<svg width="101" height="48" viewBox="0 0 101 48" fill="none" xmlns="http://www.w3.org/2000/svg">
	<path
		d="M10.017 20.27C4.563 20.27 0.999 16.328 0.999 10.55C0.999 4.745 4.563 0.856999 10.017 0.856999C15.471 0.856999 19.035 4.745 19.035 10.55C19.035 16.328 15.471 20.27 10.017 20.27ZM10.017 16.787C13.122 16.787 14.877 14.303 14.877 10.55C14.877 6.77 13.122 4.34 10.017 4.34C6.912 4.34 5.157 6.77 5.157 10.55C5.157 14.303 6.912 16.787 10.017 16.787ZM29.7861 20.27C25.1421 20.27 21.9831 17.867 21.9831 12.818L21.9831 1.1L26.0601 1.1L26.0601 12.521C26.0601 15.329 27.4641 16.76 29.7861 16.76C32.1081 16.76 33.4851 15.329 33.4851 12.521V1.1L37.5621 1.1V12.818C37.5621 17.867 34.3761 20.27 29.7861 20.27ZM55.94 20L51.944 20L48.353 13.709H44.951V20H40.901V1.1L48.542 1.1C53.564 1.1 55.751 3.719 55.751 7.418C55.751 10.118 54.59 12.224 51.971 13.169L55.94 20ZM44.951 4.61V10.199H48.407C50.621 10.199 51.593 9.092 51.593 7.418C51.593 5.717 50.621 4.61 48.407 4.61L44.951 4.61ZM5.508 47L0.594 28.1H4.752L7.776 41.303H7.965L11.61 28.1H15.768L19.413 41.303H19.602L22.626 28.1H26.784L21.87 47H17.658L13.689 33.203L9.72 47H5.508ZM37.1088 47.27C31.6548 47.27 28.0908 43.328 28.0908 37.55C28.0908 31.745 31.6548 27.857 37.1088 27.857C42.5628 27.857 46.1268 31.745 46.1268 37.55C46.1268 43.328 42.5628 47.27 37.1088 47.27ZM37.1088 43.787C40.2138 43.787 41.9688 41.303 41.9688 37.55C41.9688 33.77 40.2138 31.34 37.1088 31.34C34.0038 31.34 32.2488 33.77 32.2488 37.55C32.2488 41.303 34.0038 43.787 37.1088 43.787ZM64.1138 47H60.1178L56.5268 40.709H53.1248V47H49.0748V28.1L56.7158 28.1C61.7378 28.1 63.9248 30.719 63.9248 34.418C63.9248 37.118 62.7638 39.224 60.1448 40.169L64.1138 47ZM53.1248 31.61V37.199H56.5808C58.7948 37.199 59.7668 36.092 59.7668 34.418C59.7668 32.717 58.7948 31.61 56.5808 31.61H53.1248ZM79.1999 47L73.3949 39.413L70.8299 42.41L70.8299 47H66.7799L66.7799 28.1H70.8299V36.983L78.3629 28.1H83.1149L75.8789 36.524L83.8439 47H79.1999ZM92.6764 47.27C87.8434 47.27 84.7654 44.975 84.7654 40.817H88.9504C89.0314 42.518 90.1114 43.922 92.7034 43.922C94.8904 43.922 96.0514 43.004 96.0514 41.465C96.0514 40.169 95.1874 39.521 93.4864 39.197L90.7594 38.684C87.7894 38.09 85.2784 36.74 85.2784 33.311C85.2784 29.693 88.1944 27.857 92.4334 27.857C96.7534 27.857 99.8314 29.801 99.8314 33.662H95.6734C95.7274 31.961 94.3234 31.205 92.4874 31.205C90.3274 31.205 89.5174 32.312 89.5174 33.473C89.5174 34.337 89.9764 35.255 91.6774 35.552L94.2154 36.038C98.6434 36.875 100.344 38.576 100.344 41.438C100.344 45.515 96.9694 47.27 92.6764 47.27Z"
		fill="black" />
</svg>