<svg width="149" height="21" viewBox="0 0 149 21" fill="none" xmlns="http://www.w3.org/2000/svg">
	<path
		d="M0.404 20L0.404 1.1L8.045 1.1C13.067 1.1 15.254 3.719 15.254 7.418C15.254 11.09 13.067 13.709 8.045 13.709L4.454 13.709L4.454 20H0.404ZM4.454 10.199L7.91 10.199C10.124 10.199 11.096 9.092 11.096 7.418C11.096 5.717 10.124 4.61 7.91 4.61L4.454 4.61L4.454 10.199ZM26.5375 20.27C21.0835 20.27 17.5195 16.328 17.5195 10.55C17.5195 4.745 21.0835 0.856999 26.5375 0.856999C31.9915 0.856999 35.5555 4.745 35.5555 10.55C35.5555 16.328 31.9915 20.27 26.5375 20.27ZM26.5375 16.787C29.6425 16.787 31.3975 14.303 31.3975 10.55C31.3975 6.77 29.6425 4.34 26.5375 4.34C23.4325 4.34 21.6775 6.77 21.6775 10.55C21.6775 14.303 23.4325 16.787 26.5375 16.787ZM53.5425 20H49.5465L45.9555 13.709H42.5535V20H38.5035V1.1L46.1445 1.1C51.1665 1.1 53.3535 3.719 53.3535 7.418C53.3535 10.118 52.1925 12.224 49.5735 13.169L53.5425 20ZM42.5535 4.61V10.199H46.0095C48.2235 10.199 49.1955 9.092 49.1955 7.418C49.1955 5.717 48.2235 4.61 46.0095 4.61L42.5535 4.61ZM60.3522 20V4.61L54.8712 4.61V1.1L69.8832 1.1V4.61L64.4022 4.61V20H60.3522ZM72.4107 20V1.1L84.9117 1.1V4.61L76.4607 4.61V9.038L83.4537 9.038V12.305L76.4607 12.305V20L72.4107 20ZM96.0129 20.27C90.5589 20.27 86.9949 16.328 86.9949 10.55C86.9949 4.745 90.5589 0.856999 96.0129 0.856999C101.467 0.856999 105.031 4.745 105.031 10.55C105.031 16.328 101.467 20.27 96.0129 20.27ZM96.0129 16.787C99.1179 16.787 100.873 14.303 100.873 10.55C100.873 6.77 99.1179 4.34 96.0129 4.34C92.9079 4.34 91.1529 6.77 91.1529 10.55C91.1529 14.303 92.9079 16.787 96.0129 16.787ZM107.979 20V1.1L112.029 1.1V16.49L120.723 16.49V20L107.979 20ZM123.39 20V1.1L127.44 1.1V20H123.39ZM139.399 20.27C133.945 20.27 130.381 16.328 130.381 10.55C130.381 4.745 133.945 0.856999 139.399 0.856999C144.853 0.856999 148.417 4.745 148.417 10.55C148.417 16.328 144.853 20.27 139.399 20.27ZM139.399 16.787C142.504 16.787 144.259 14.303 144.259 10.55C144.259 6.77 142.504 4.34 139.399 4.34C136.294 4.34 134.539 6.77 134.539 10.55C134.539 14.303 136.294 16.787 139.399 16.787Z"
		fill="black" />
</svg>