<svg width="712" height="144" viewBox="0 0 712 144" fill="none" xmlns="http://www.w3.org/2000/svg">
	<path
		d="M59 144C23.2 144 0.4 127 0.4 96.2H31.4C32 108.8 40 119.2 59.2 119.2C75.4 119.2 84 112.4 84 101C84 91.4 77.6 86.6 65 84.2L44.8 80.4C22.8 76 4.2 66 4.2 40.6C4.2 13.8 25.8 0.19999 57.2 0.19999C89.2 0.19999 112 14.6 112 43.2H81.2C81.6 30.6 71.2 25 57.6 25C41.6 25 35.6 33.2 35.6 41.8C35.6 48.2 39 55 51.6 57.2L70.4 60.8C103.2 67 115.8 79.6 115.8 100.8C115.8 131 90.8 144 59 144ZM125.673 142V1.99999H221.273V28H155.673V59.4H215.273V82.8H155.673V116H223.273V142H125.673ZM342.55 142H312.95L286.35 95.4H261.15V142H231.15V1.99999H287.75C324.95 1.99999 341.15 21.4 341.15 48.8C341.15 68.8 332.55 84.4 313.15 91.4L342.55 142ZM261.15 28V69.4H286.75C303.15 69.4 310.35 61.2 310.35 48.8C310.35 36.2 303.15 28 286.75 28H261.15ZM390.992 142L340.392 1.99999H371.792L409.392 111.4H411.192L448.792 1.99999H480.192L429.592 142H390.992ZM487.025 142V1.99999H582.625V28H517.025V59.4H576.625V82.8H517.025V116H584.625V142H487.025ZM592.502 142V1.99999H645.502C689.102 1.99999 711.702 27 711.702 72C711.702 117 689.102 142 645.502 142H592.502ZM622.502 116H642.502C671.102 116 681.102 102.8 681.102 72C681.102 41.2 671.102 28 642.502 28H622.502V116Z"
		fill="black" />
</svg>