<svg width="32" height="66" viewBox="0 0 32 66" fill="none" xmlns="http://www.w3.org/2000/svg">
	<path
		d="M13.175 59.5056C13.1751 63.0416 10.6193 65.3523 6.87324 65.3523C3.10966 65.3523 0.588936 63.0417 0.588935 59.5056C0.588935 55.9696 3.10966 53.659 6.87324 53.659C10.6193 53.659 13.175 55.9696 13.175 59.5056ZM10.9169 59.5056C10.9169 57.4926 9.30644 56.3547 6.87324 56.3547C4.42254 56.3547 2.84708 57.4926 2.84708 59.5056C2.84708 61.5187 4.42254 62.6565 6.87324 62.6565C9.30644 62.6565 10.9169 61.5187 10.9169 59.5056ZM13.175 46.6887C13.175 49.6995 11.6171 51.7476 8.34366 51.7476L0.74648 51.7476L0.74648 49.1044L8.15111 49.1044C9.97163 49.1044 10.8994 48.1941 10.8994 46.6887C10.8994 45.1832 9.97163 44.2905 8.15111 44.2905L0.74648 44.2905L0.74648 41.6472L8.34366 41.6472C11.6171 41.6472 13.175 43.7128 13.175 46.6887ZM13 29.7322L13 32.3229L8.92133 34.6511L8.92133 36.8567L13 36.8567L13 39.4825L0.74648 39.4825L0.74648 34.5286C0.74648 31.2726 2.44447 29.8547 4.84266 29.8547C6.59316 29.8547 7.95855 30.6074 8.57123 32.3054L13 29.7322ZM3.02213 36.8567L6.64567 36.8567L6.64567 34.6161C6.64567 33.1807 5.92797 32.5505 4.84266 32.5505C3.73984 32.5505 3.02213 33.1807 3.02213 34.6161L3.02213 36.8567ZM31 62.429L18.7465 65.6149L18.7465 62.9191L27.3064 60.9586L27.3064 60.836L18.7465 58.4728L18.7465 55.7771L27.3064 53.4139L27.3064 53.2913L18.7465 51.3308L18.7465 48.635L31 51.8209L31 54.5517L22.0549 57.125L31 59.6982L31 62.429ZM31.175 41.9411C31.175 45.4771 28.6193 47.7878 24.8732 47.7878C21.1097 47.7878 18.5889 45.4771 18.5889 41.9411C18.5889 38.4051 21.1097 36.0944 24.8732 36.0944C28.6193 36.0944 31.175 38.4051 31.175 41.9411ZM28.9169 41.9411C28.9169 39.928 27.3064 38.7902 24.8732 38.7902C22.4225 38.7902 20.8471 39.928 20.8471 41.9411C20.8471 43.9542 22.4225 45.092 24.8732 45.092C27.3064 45.092 28.9169 43.9542 28.9169 41.9411ZM31 24.4328L31 27.0236L26.9213 29.3517L26.9213 31.5574L31 31.5574L31 34.1831L18.7465 34.1831L18.7465 29.2292C18.7465 25.9733 20.4445 24.5553 22.8427 24.5553C24.5932 24.5553 25.9586 25.3081 26.5712 27.006L31 24.4328ZM21.0221 31.5574L24.6457 31.5574L24.6457 29.3167C24.6457 27.8813 23.928 27.2511 22.8427 27.2511C21.7398 27.2511 21.0221 27.8813 21.0221 29.3167L21.0221 31.5574ZM31 14.652L26.0811 18.4156L28.0241 20.0786L31 20.0786L31 22.7043L18.7465 22.7043L18.7465 20.0786L24.5056 20.0786L18.7465 15.1947L18.7465 12.1138L24.208 16.8051L31 11.6412L31 14.652ZM31.175 5.91468C31.175 9.04808 29.6871 11.0437 26.9913 11.0437L26.9913 8.33038C28.0942 8.27786 29.0044 7.57766 29.0044 5.89718C29.0044 4.47927 28.4093 3.72655 27.4115 3.72655C26.5712 3.72655 26.1511 4.28671 25.941 5.38953L25.6084 7.15754C25.2233 9.08309 24.3481 10.7111 22.1249 10.7111C19.7793 10.7111 18.5889 8.82052 18.5889 6.07223C18.5889 3.27142 19.8493 1.27585 22.3525 1.27585L22.3525 3.97162C21.2497 3.93661 20.7596 4.84687 20.7596 6.03722C20.7596 7.43762 21.4773 7.96277 22.23 7.96277C22.7901 7.96277 23.3853 7.66518 23.5779 6.56237L23.893 4.91689C24.4356 2.04607 25.5384 0.943254 27.394 0.943254C30.0372 0.943254 31.175 3.13138 31.175 5.91468Z"
		fill="black" />
</svg>