<svg width="10" height="66" viewBox="0 0 10 66" fill="none" xmlns="http://www.w3.org/2000/svg">
	<path
		d="M9 65.3863L0.739071 65.3863L0.739071 62.0466C0.739071 59.8515 1.8838 58.8956 3.50058 58.8956C5.10556 58.8956 6.25029 59.8515 6.25029 62.0466L6.25029 63.6161L9 63.6161L9 65.3863ZM4.71612 63.6161L4.71612 62.1056C4.71612 61.1379 4.23226 60.713 3.50058 60.713C2.7571 60.713 2.27324 61.1379 2.27324 62.1056L2.27324 63.6161L4.71612 63.6161ZM9.11801 53.9638C9.11801 56.3476 7.39502 57.9054 4.86954 57.9054C2.33225 57.9054 0.632859 56.3476 0.632859 53.9638C0.632859 51.5799 2.33225 50.0221 4.86953 50.0221C7.39502 50.0221 9.11801 51.5799 9.11801 53.9638ZM7.59564 53.9638C7.59564 52.6066 6.50992 51.8395 4.86954 51.8395C3.21735 51.8395 2.15523 52.6066 2.15523 53.9638C2.15523 55.3209 3.21735 56.088 4.86954 56.088C6.50992 56.088 7.59564 55.3209 7.59564 53.9638ZM9 42.1602L9 43.9068L6.25029 45.4764L6.25029 46.9634L9 46.9634L9 48.7336L0.739071 48.7336L0.73907 45.3938C0.73907 43.1987 1.8838 42.2428 3.50058 42.2428C4.68071 42.2428 5.60122 42.7503 6.01426 43.895L9 42.1602ZM2.27324 46.9634L4.71612 46.9634L4.71612 45.4528C4.71612 44.4851 4.23226 44.0602 3.50058 44.0602C2.7571 44.0602 2.27324 44.4851 2.27324 45.4528L2.27324 46.9634ZM9 39.1838L2.27324 39.1838L2.27324 41.5795L0.73907 41.5795L0.73907 35.0179L2.27324 35.0179L2.27324 37.4136L9 37.4136L9 39.1838ZM9 33.9132L0.73907 33.9132L0.73907 28.4492L2.27324 28.4492L2.27324 32.143L4.20866 32.143L4.20866 29.0865L5.63662 29.0865L5.63662 32.143L9 32.143L9 33.9132ZM9.11801 23.597C9.11801 25.9809 7.39502 27.5387 4.86953 27.5387C2.33225 27.5387 0.632858 25.9809 0.632858 23.597C0.632857 21.2131 2.33225 19.6554 4.86953 19.6554C7.39502 19.6554 9.11801 21.2131 9.11801 23.597ZM7.59564 23.597C7.59564 22.2399 6.50992 21.4728 4.86953 21.4728C3.21735 21.4728 2.15523 22.2399 2.15523 23.597C2.15523 24.9542 3.21735 25.7212 4.86953 25.7212C6.50992 25.7212 7.59564 24.9542 7.59564 23.597ZM9 18.3668L0.739069 18.3668L0.739069 16.5966L7.46583 16.5966L7.46583 12.7966L9 12.7966L9 18.3668ZM9 11.6308L0.739069 11.6308L0.739069 9.86063L9 9.86063L9 11.6308ZM9.11801 4.63375C9.11801 7.01762 7.39502 8.57539 4.86953 8.57539C2.33225 8.57539 0.632857 7.01762 0.632857 4.63375C0.632857 2.24988 2.33225 0.692108 4.86953 0.692108C7.39502 0.692107 9.11801 2.24988 9.11801 4.63375ZM7.59564 4.63375C7.59564 3.2766 6.50992 2.50951 4.86953 2.50951C3.21735 2.50951 2.15523 3.2766 2.15523 4.63375C2.15523 5.9909 3.21735 6.75799 4.86953 6.75799C6.50992 6.75799 7.59564 5.9909 7.59564 4.63375Z"
		fill="black" />
</svg>