<svg width="276" height="66" viewBox="0 0 276 66" fill="none" xmlns="http://www.w3.org/2000/svg">
	<path
		d="M25.3234 65.9078C9.43686 65.9078 0.90354 57.8284 0.90354 46.4809H8.43828C8.89218 53.7433 13.8851 59.4624 25.4141 59.4624C35.7631 59.4624 40.9375 54.6511 40.9375 47.5702C40.9375 40.3986 35.7631 37.4937 28.4099 36.0412L20.0581 34.4071C8.89218 32.1376 2.71914 26.7816 2.71914 17.6128C2.71914 7.44548 10.4354 0.636976 24.5063 0.636976C38.3049 0.636976 46.8382 7.26392 46.8382 17.5221H39.3943C39.1219 11.5306 34.129 6.99158 24.5063 6.99158C14.4298 6.99158 10.5262 11.9845 10.5262 17.7036C10.5262 22.8781 13.7035 26.8724 21.9645 28.5064L30.1347 30.1405C41.6638 32.41 48.7446 37.0398 48.7446 47.3887C48.7446 59.1901 39.7574 65.9078 25.3234 65.9078ZM81.7233 65.9078C65.2013 65.9078 52.946 54.288 52.946 33.227C52.946 12.166 65.2013 0.636976 81.7233 0.636976C98.2452 0.636976 110.591 12.166 110.591 33.227C110.591 54.288 98.2452 65.9078 81.7233 65.9078ZM81.7233 59.3716C94.0694 59.3716 102.966 50.4752 102.966 33.227C102.966 15.9788 94.0694 7.17314 81.7233 7.17314C69.468 7.17314 60.5715 15.9788 60.5715 33.227C60.5715 50.4752 69.468 59.3716 81.7233 59.3716ZM133.304 65V1.454H173.701V8.08094H140.748V30.1405H167.8V36.4043H140.748V65H133.304ZM217.468 65L211.568 49.1135H181.429L175.528 65H167.63L191.868 1.454H201.128L225.366 65H217.468ZM183.608 43.3036H209.389L196.771 9.53342H196.226L183.608 43.3036ZM275.081 65H267.546L253.112 40.4894H252.205H236.5V65H229.056V1.454H252.205C267.092 1.454 274.627 8.89796 274.627 21.0625C274.627 30.6852 269.725 37.4029 260.102 39.6724L275.081 65ZM236.5 8.08094V33.8625H251.932C261.918 33.8625 267.002 29.3235 267.002 21.0625C267.002 12.6199 261.918 8.08094 251.932 8.08094H236.5Z"
		fill="black" />
</svg>