<svg width="238" height="64" viewBox="0 0 238 64" fill="none" xmlns="http://www.w3.org/2000/svg">
	<path
		d="M17.5177 64L0.54184 0.453997H8.16736L21.7844 53.4695H22.1475L38.034 0.453997H46.0226L61.9091 53.4695H62.2722L75.8892 0.453997H83.6055L66.5389 64H58.5503L42.0283 9.9859L25.5971 64H17.5177ZM128.608 0.453997H136.142V64H128.608V35.949H95.1098V64H87.6658V0.453997H95.1098V29.6852H128.608V0.453997ZM189.649 64L183.749 48.1135H153.61L147.709 64H139.811L164.049 0.453997H173.309L197.547 64H189.649ZM155.788 42.3036H181.57L168.952 8.53342H168.407L155.788 42.3036ZM209.533 64V7.08094H189.471V0.453997H237.039V7.08094H216.977V64H209.533Z"
		fill="black" />
</svg>