<svg width="605" height="144" viewBox="0 0 605 144" fill="none" xmlns="http://www.w3.org/2000/svg">
	<path
		d="M54.4 144C19.4 144 0.6 126.2 0.6 101.2H17.2C18.2 117.2 29.2 129.8 54.6 129.8C77.4 129.8 88.8 119.2 88.8 103.6C88.8 87.8 77.4 81.4 61.2 78.2L42.8 74.6C18.2 69.6 4.6 57.8 4.6 37.6C4.6 15.2 21.6 0.19999 52.6 0.19999C83 0.19999 101.8 14.8 101.8 37.4H85.4C84.8 24.2 73.8 14.2 52.6 14.2C30.4 14.2 21.8 25.2 21.8 37.8C21.8 49.2 28.8 58 47 61.6L65 65.2C90.4 70.2 106 80.4 106 103.2C106 129.2 86.2 144 54.4 144ZM178.656 144C142.256 144 115.256 118.4 115.256 72C115.256 25.6 142.256 0.19999 178.656 0.19999C215.056 0.19999 242.256 25.6 242.256 72C242.256 118.4 215.056 144 178.656 144ZM178.656 129.6C205.856 129.6 225.456 110 225.456 72C225.456 34 205.856 14.6 178.656 14.6C151.656 14.6 132.056 34 132.056 72C132.056 110 151.656 129.6 178.656 129.6ZM292.295 142V1.99999H381.295V16.6H308.695V65.2H368.295V79H308.695V142H292.295ZM477.72 142L464.72 107H398.32L385.32 142H367.92L421.32 1.99999H441.72L495.12 142H477.72ZM403.12 94.2H459.92L432.12 19.8H430.92L403.12 94.2ZM604.648 142H588.048L556.248 88H554.248H519.648V142H503.248V1.99999H554.248C587.048 1.99999 603.648 18.4 603.648 45.2C603.648 66.4 592.848 81.2 571.648 86.2L604.648 142ZM519.648 16.6V73.4H553.648C575.648 73.4 586.848 63.4 586.848 45.2C586.848 26.6 575.648 16.6 553.648 16.6H519.648Z"
		fill="black" />
</svg>