<svg width="100" height="100" viewBox="0 0 100 100" fill="none" xmlns="http://www.w3.org/2000/svg">
	<circle cx="50" cy="50" r="49" fill="black" stroke="#F3E7D3" stroke-width="2" />
	<path
		d="M42.3458 83.4374C39.7105 83.4374 37.1352 83.108 34.6198 82.4492C32.1044 81.8503 29.8285 80.8621 27.7922 79.4846C25.8158 78.0472 24.2287 76.2205 23.0309 74.0045C21.833 71.7287 21.2341 69.0036 21.2341 65.8294C21.2341 61.9365 22.4918 58.4927 25.0073 55.4982C27.5826 52.5036 31.0263 50.078 35.3385 48.2214C33.7813 46.1851 32.4937 44.2985 31.4755 42.5617C30.4574 40.7649 29.7087 38.9981 29.2296 37.2613C28.7505 35.4646 28.5109 33.6379 28.5109 31.7813C28.5708 27.4691 30.1579 24.0553 33.2722 21.5399C36.3866 18.9646 40.3394 17.6769 45.1307 17.6769C48.1851 17.6769 50.8204 18.2459 53.0363 19.3838C55.3122 20.4618 57.049 21.9591 58.2469 23.8756C59.5046 25.7323 60.1334 27.8584 60.1334 30.254C60.1334 32.47 59.6543 34.5961 58.696 36.6325C57.7378 38.6687 56.1806 40.6452 54.0245 42.5617C51.8684 44.4183 48.9937 46.2749 45.4002 48.1316C47.0173 49.8085 48.7841 51.6651 50.7006 53.7014C52.677 55.7377 54.6534 57.7441 56.6298 59.7205C58.6062 61.637 60.4029 63.3739 62.02 64.931C62.3195 63.853 62.5291 62.8348 62.6489 61.8766C62.8285 60.8584 62.9184 59.9601 62.9184 59.1815C62.9184 57.804 62.7087 56.4564 62.2895 55.1388C61.9302 53.7613 61.2414 52.6234 60.2233 51.725C59.265 50.7668 57.8875 50.2577 56.0908 50.1978V47.2332H71.8122V50.9165L64.3558 50.5571C65.314 51.3357 66.0028 52.3539 66.422 53.6116C66.8412 54.8693 67.0808 56.3366 67.1407 58.0136C67.2006 59.1515 67.0808 60.6189 66.7813 62.4156C66.5418 64.1524 66.0627 65.9791 65.344 67.8956C66.0028 68.4945 66.6915 69.1533 67.4102 69.872C68.1888 70.5308 68.9973 71.2196 69.8358 71.9383C72.5309 74.3339 74.8367 76.1307 76.7532 77.3285C78.7296 78.4664 80.197 79.0354 81.1552 79.0354V82H72.8004C72.2614 82 71.0336 81.461 69.1171 80.3829C67.2605 79.245 64.775 77.2985 61.6607 74.5436C59.7441 76.9991 57.1988 79.0953 54.0245 80.8321C50.9102 82.569 47.0173 83.4374 42.3458 83.4374ZM43.4238 78.9456C47.1969 79.0653 50.3113 78.4664 52.7668 77.1488C55.2822 75.7713 57.2886 74.0644 58.7859 72.0281C58.3666 71.6089 57.9474 71.2196 57.5282 70.8602C57.1089 70.441 56.6597 70.0218 56.1806 69.6025C52.1679 65.6497 48.6044 62.1461 45.49 59.0916C42.4356 56.0372 39.8303 53.2822 37.6742 50.8267C35.7577 51.9646 34.2604 53.372 33.1824 55.049C32.1044 56.7259 31.3258 58.4029 30.8467 60.0798C30.4274 61.7568 30.2178 63.2241 30.2178 64.4818C30.2178 67.7759 30.8467 70.471 32.1044 72.5671C33.422 74.6633 35.069 76.2205 37.0454 77.2387C39.0817 78.2568 41.2078 78.8258 43.4238 78.9456ZM43.4238 45.9755C46.7777 43.7595 49.2632 41.304 50.8802 38.6089C52.4973 35.8539 53.3058 33.1588 53.3058 30.5236C53.3058 27.6488 52.5572 25.2831 51.0599 23.4265C49.5626 21.5099 47.4365 20.5517 44.6815 20.5517C42.226 20.5517 40.1597 21.48 38.4828 23.3366C36.8657 25.1333 36.0572 27.7087 36.0572 31.0626C36.0572 33.6379 36.7459 36.1833 38.1234 38.6987C39.5608 41.2141 41.3276 43.6397 43.4238 45.9755Z"
		fill="#F3E7D3" />
</svg>