<svg width="119" height="221" viewBox="0 0 119 221" fill="none" xmlns="http://www.w3.org/2000/svg">
	<path
		d="M59.5 213.782C62.6863 213.782 65.4556 215.552 66.8678 218.154C67.8285 219.926 69.7224 221 71.7499 221L113.46 221C116.52 221 119 218.538 119 215.501L119 5.49897C119 2.4619 116.52 -1.08415e-07 113.46 -2.4216e-07L71.9563 -2.05634e-06C69.8711 -2.14749e-06 67.9332 1.14898 67.0165 3.00838C65.6566 5.76675 62.8033 7.66714 59.5 7.66714C56.1967 7.66714 53.3434 5.76675 51.9835 3.00838C51.0669 1.14898 49.1303 -3.0541e-06 47.0437 -3.14531e-06L5.53998 -4.9595e-06C2.48026 -5.09324e-06 5.6291e-06 2.4619 5.49635e-06 5.49897L-3.68307e-06 215.5C-3.81583e-06 218.537 2.48025 220.999 5.53997 220.999L47.2501 220.999C49.2762 220.999 51.1715 219.923 52.1322 218.153C53.5444 215.55 56.3136 213.781 59.5 213.781L59.5 213.782Z"
		fill="#F89A1C" />
	<path
		d="M40.1816 194.708C36.0909 194.708 32.9443 193.862 30.7416 192.171C28.5389 190.44 27.0246 187.923 26.1986 184.619C25.3726 181.315 24.9596 177.283 24.9596 172.524C24.9596 167.804 25.4119 163.812 26.3166 160.547C27.2606 157.282 28.8733 154.804 31.1546 153.113C33.4753 151.382 36.6809 150.517 40.7716 150.517C44.9016 150.517 48.0483 151.343 50.2116 152.995C52.3749 154.647 53.8499 157.066 54.6366 160.252C55.4233 163.399 55.8166 167.253 55.8166 171.816C55.8166 176.733 55.3643 180.902 54.4596 184.324C53.5943 187.707 52.0209 190.283 49.7396 192.053C47.4976 193.823 44.3116 194.708 40.1816 194.708ZM40.4176 188.336C42.3449 188.336 43.7609 187.805 44.6656 186.743C45.6096 185.681 46.2193 183.99 46.4946 181.669C46.8093 179.309 46.9666 176.221 46.9666 172.406C46.9666 168.669 46.8289 165.68 46.5536 163.438C46.3176 161.196 45.7473 159.583 44.8426 158.6C43.9379 157.577 42.5416 157.066 40.6536 157.066C38.7656 157.066 37.3299 157.577 36.3466 158.6C35.3633 159.583 34.6946 161.216 34.3406 163.497C33.9866 165.739 33.8096 168.787 33.8096 172.642C33.8096 176.339 33.9473 179.348 34.2226 181.669C34.5373 183.99 35.1666 185.681 36.1106 186.743C37.0546 187.805 38.4903 188.336 40.4176 188.336ZM40.4766 177.126C39.3753 177.126 38.4903 176.752 37.8216 176.005C37.1529 175.218 36.8186 174.058 36.8186 172.524C36.8186 170.99 37.1529 169.849 37.8216 169.102C38.4903 168.355 39.3753 167.981 40.4766 167.981C41.6173 167.981 42.5219 168.355 43.1906 169.102C43.8593 169.849 44.1936 170.99 44.1936 172.524C44.1936 174.058 43.8593 175.218 43.1906 176.005C42.5219 176.752 41.6173 177.126 40.4766 177.126ZM65.0865 194V186.566H75.4705V160.429L65.1455 163.261V156.181L80.4855 151.284H84.3205V186.566L92.9935 186.566V194L65.0865 194Z"
		fill="#F3E7D3" />
	<path
		d="M22.9366 131.799C22.9366 130.565 23.0356 129.43 23.2336 128.395C23.4316 127.344 23.7667 126.43 24.2388 125.653C24.7262 124.861 25.3735 124.252 26.1807 123.826C27.0031 123.384 28.0311 123.163 29.2647 123.163C30.5288 123.163 31.5493 123.384 32.326 123.826C33.118 124.252 33.7272 124.846 34.1536 125.608C34.58 126.369 34.8694 127.252 35.0217 128.258C35.174 129.263 35.2502 130.337 35.2502 131.479C35.2502 133.261 35.0674 134.814 34.7019 136.139C34.3516 137.449 33.7272 138.469 32.8286 139.2C31.93 139.916 30.6735 140.274 29.0591 140.274C27.795 140.274 26.7594 140.069 25.9522 139.657C25.1602 139.231 24.5434 138.645 24.1018 137.898C23.6601 137.137 23.3555 136.238 23.1879 135.203C23.0204 134.167 22.9366 133.032 22.9366 131.799ZM26.5919 131.73C26.5919 133.116 26.6528 134.235 26.7746 135.088C26.9117 135.926 27.1554 136.535 27.5057 136.916C27.8712 137.297 28.4042 137.487 29.1048 137.487C29.7902 137.487 30.3156 137.297 30.6811 136.916C31.0467 136.535 31.2903 135.918 31.4122 135.065C31.5493 134.213 31.6178 133.086 31.6178 131.684C31.6178 130.359 31.5569 129.278 31.435 128.44C31.3132 127.603 31.0771 126.986 30.7268 126.59C30.3918 126.179 29.8816 125.973 29.1962 125.973C28.4804 125.973 27.9321 126.179 27.5514 126.59C27.1706 127.001 26.9117 127.633 26.7746 128.486C26.6528 129.324 26.5919 130.405 26.5919 131.73ZM41.6495 140H38.1542V123.46H44.2081C45.2438 123.46 46.1043 123.612 46.7896 123.917C47.475 124.206 48.0157 124.595 48.4116 125.082C48.8076 125.569 49.0818 126.11 49.2341 126.704C49.4016 127.298 49.4854 127.9 49.4854 128.509C49.4854 129.712 49.2645 130.763 48.8228 131.662C48.3812 132.56 47.6806 133.23 46.7211 133.672L50.2849 140H46.4698L43.5685 134.289H41.6495V140ZM41.6495 126.156V131.639H43.4086C43.8198 131.639 44.2081 131.563 44.5737 131.41C44.9544 131.258 45.259 130.976 45.4875 130.565C45.7311 130.139 45.853 129.537 45.853 128.76C45.853 128.014 45.7311 127.458 45.4875 127.093C45.259 126.727 44.9468 126.483 44.5508 126.361C44.1548 126.224 43.7132 126.156 43.2258 126.156H41.6495ZM57.3239 140H52.6407V123.46H57.7123C59.2962 123.46 60.5831 123.788 61.5731 124.442C62.5631 125.082 63.2865 126.004 63.7434 127.207C64.2155 128.41 64.4516 129.834 64.4516 131.479C64.4516 133.169 64.2003 134.654 63.6977 135.934C63.1951 137.213 62.4184 138.21 61.3675 138.926C60.3166 139.642 58.9688 140 57.3239 140ZM56.1817 126.156V137.304H57.1868C58.1159 137.304 58.8469 137.076 59.38 136.619C59.913 136.162 60.2862 135.515 60.4994 134.677C60.7278 133.839 60.8421 132.842 60.8421 131.684C60.8421 130.283 60.7126 129.179 60.4537 128.372C60.21 127.565 59.8293 126.994 59.3114 126.658C58.8088 126.323 58.1768 126.156 57.4153 126.156H56.1817ZM67.7668 123.46H78.0471V126.247H71.2849V130.359H77.5902V133.101H71.2849V137.213H78.4583V140H67.7668V123.46ZM85.5201 140H82.0248V123.46H88.0788C89.1144 123.46 89.9749 123.612 90.6603 123.917C91.3456 124.206 91.8863 124.595 92.2823 125.082C92.6783 125.569 92.9524 126.11 93.1047 126.704C93.2722 127.298 93.356 127.9 93.356 128.509C93.356 129.712 93.1352 130.763 92.6935 131.662C92.2518 132.56 91.5512 133.23 90.5918 133.672L94.1556 140H90.3405L87.4391 134.289H85.5201V140ZM85.5201 126.156V131.639H87.2792C87.6904 131.639 88.0788 131.563 88.4443 131.41C88.8251 131.258 89.1297 130.976 89.3581 130.565C89.6018 130.139 89.7236 129.537 89.7236 128.76C89.7236 128.014 89.6018 127.458 89.3581 127.093C89.1297 126.727 88.8174 126.483 88.4215 126.361C88.0255 126.224 87.5838 126.156 87.0964 126.156H85.5201Z"
		fill="#F3E7D3" />
</svg>