<svg width="236" height="69" viewBox="0 0 236 69" fill="none" xmlns="http://www.w3.org/2000/svg">
	<path
		d="M22.27 68.08C15.91 68.08 10.9 66.7 7.24 63.94C3.58 61.12 1.33 56.26 0.49 49.36L7.87 48.19C8.41 51.01 9.16 53.41 10.12 55.39C11.14 57.37 12.61 58.87 14.53 59.89C16.45 60.91 19.12 61.42 22.54 61.42C25 61.42 27.22 61.09 29.2 60.43C31.18 59.71 32.74 58.54 33.88 56.92C35.08 55.24 35.68 52.99 35.68 50.17C35.68 47.35 35.02 45.16 33.7 43.6C32.38 41.98 30.64 40.72 28.48 39.82C26.32 38.86 23.98 38.02 21.46 37.3C19.24 36.64 17.02 35.92 14.8 35.14C12.64 34.3 10.66 33.25 8.86 31.99C7.06 30.67 5.62 28.93 4.54 26.77C3.46 24.61 2.92 21.88 2.92 18.58C2.92 13.06 4.75 8.71 8.41 5.53C12.07 2.29 17.08 0.669996 23.44 0.669996C27.22 0.669996 30.52 1.24 33.34 2.38C36.16 3.51999 38.41 5.41 40.09 8.05C41.83 10.69 42.91 14.32 43.33 18.94L35.95 19.93C35.59 17.59 35.08 15.49 34.42 13.63C33.76 11.71 32.59 10.21 30.91 9.13C29.29 7.99 26.8 7.41999 23.44 7.41999C18.7 7.41999 15.4 8.41 13.54 10.39C11.74 12.37 10.84 14.86 10.84 17.86C10.84 20.5 11.5 22.6 12.82 24.16C14.2 25.72 15.97 26.95 18.13 27.85C20.35 28.75 22.69 29.59 25.15 30.37C27.37 31.03 29.56 31.78 31.72 32.62C33.94 33.46 35.95 34.54 37.75 35.86C39.61 37.18 41.08 38.89 42.16 40.99C43.24 43.09 43.78 45.76 43.78 49C43.78 53.44 42.79 57.07 40.81 59.89C38.83 62.71 36.22 64.78 32.98 66.1C29.74 67.42 26.17 68.08 22.27 68.08ZM74.0474 67H65.7674V8.77H47.7674V1.84H92.0474V8.77H74.0474V67ZM107.944 1.84H118.294L139.174 67H130.084L124.144 47.38H102.004L96.0644 67H87.6944L107.944 1.84ZM103.714 40.54H122.344L113.074 9.85H112.984L103.714 40.54ZM153.765 67H145.575V1.84H166.635C170.715 1.84 174.075 2.41 176.715 3.55C179.355 4.63 181.425 6.1 182.925 7.96C184.425 9.82 185.475 11.86 186.075 14.08C186.675 16.3 186.975 18.52 186.975 20.74C186.975 25.6 186.015 29.74 184.095 33.16C182.175 36.58 179.055 39.01 174.735 40.45L189.405 67H180.495L166.815 42.16H153.765V67ZM153.765 8.68V35.5H163.395C166.155 35.5 168.645 35.17 170.865 34.51C173.145 33.79 174.975 32.41 176.355 30.37C177.735 28.33 178.425 25.36 178.425 21.46C178.425 17.86 177.795 15.16 176.535 13.36C175.275 11.5 173.385 10.27 170.865 9.67C168.345 9.01 165.195 8.68 161.415 8.68H153.765ZM217.495 67H209.215V8.77H191.215V1.84H235.495V8.77H217.495V67Z"
		fill="black" />
</svg>