<svg width="80" height="69" viewBox="0 0 80 69" fill="none" xmlns="http://www.w3.org/2000/svg">
	<path
		d="M2.53057 8.99999L0.272949 0.31684H2.18324L3.57254 6.38264H3.65938L5.33398 0.31684H7.24428L8.91888 6.38264H9.00571L10.3951 0.31684H12.3054L10.0477 8.99999H8.11259L6.28913 2.66129L4.46567 8.99999H2.53057ZM17.0487 9.12403C14.543 9.12403 12.9057 7.31298 12.9057 4.65842C12.9057 1.99145 14.543 0.2052 17.0487 0.2052C19.5545 0.2052 21.1918 1.99145 21.1918 4.65842C21.1918 7.31298 19.5545 9.12403 17.0487 9.12403ZM17.0487 7.52386C18.4752 7.52386 19.2815 6.38264 19.2815 4.65842C19.2815 2.92179 18.4752 1.80538 17.0487 1.80538C15.6222 1.80538 14.816 2.92179 14.816 4.65842C14.816 6.38264 15.6222 7.52386 17.0487 7.52386ZM29.4555 8.99999H27.6197L25.9699 6.10974H24.4069V8.99999H22.5462V0.31684H26.0567C28.3639 0.31684 29.3687 1.52008 29.3687 3.2195C29.3687 4.45994 28.8353 5.4275 27.6321 5.86165L29.4555 8.99999ZM24.4069 1.92943V4.49716H25.9947C27.0119 4.49716 27.4585 3.98857 27.4585 3.2195C27.4585 2.43801 27.0119 1.92943 25.9947 1.92943H24.4069ZM36.3866 8.99999L33.7196 5.51433L32.5411 6.89123V8.99999H30.6805V0.31684H32.5411V4.39792L36.0019 0.31684H38.1852L34.8607 4.18705L38.5201 8.99999H36.3866ZM2.53057 22L0.272949 13.3169H2.18324L3.57254 19.3827H3.65938L5.33398 13.3169H7.24428L8.91888 19.3827H9.00571L10.3951 13.3169H12.3054L10.0477 22H8.11259L6.28913 15.6613L4.46567 22H2.53057ZM13.4673 22V13.3169H15.328V22H13.4673ZM19.011 22V14.9294H16.4928V13.3169H23.3897V14.9294H20.8715V22H19.011ZM29.8104 13.3169H31.671V22H29.8104V18.4275H26.4116V22H24.5508V13.3169H26.4116V16.8893H29.8104V13.3169ZM39.8978 22.124C37.7642 22.124 36.3129 21.02 36.3129 18.7004V13.3169H38.186V18.564C38.186 19.854 38.831 20.5115 39.8978 20.5115C40.9646 20.5115 41.5971 19.854 41.5971 18.564V13.3169H43.4702V18.7004C43.4702 21.02 42.0066 22.124 39.8978 22.124ZM48.4526 22.124C46.2322 22.124 44.8181 21.0697 44.8181 19.1594H46.7408C46.778 19.9409 47.2742 20.5859 48.465 20.5859C49.4698 20.5859 50.0033 20.1641 50.0033 19.4571C50.0033 18.8617 49.6063 18.564 48.8248 18.4151L47.5719 18.1794C46.2074 17.9065 45.0538 17.2863 45.0538 15.7109C45.0538 14.0487 46.3935 13.2052 48.341 13.2052C50.3257 13.2052 51.7398 14.0983 51.7398 15.8722H49.8295C49.8543 15.0907 49.2093 14.7434 48.3658 14.7434C47.3734 14.7434 47.0014 15.252 47.0014 15.7853C47.0014 16.1823 47.2122 16.604 47.9937 16.7405L49.1597 16.9638C51.194 17.3483 51.9755 18.1298 51.9755 19.4447C51.9755 21.3178 50.4249 22.124 48.4526 22.124Z"
		fill="#F3E7D3" />
	<path fill-rule="evenodd" clip-rule="evenodd" d="M67.0229 67.621V9H69.0229V67.621H67.0229Z" fill="#F3E7D3" />
	<path fill-rule="evenodd" clip-rule="evenodd"
		d="M79.7838 58.3359L68.8811 68.3953L56.2834 59.3708L57.4294 57.7711L68.7244 65.8626L78.4494 56.8896L79.7838 58.3359Z"
		fill="#F3E7D3" />
</svg>