<svg width="1209" height="132" viewBox="0 0 1209 132" fill="none" xmlns="http://www.w3.org/2000/svg">
	<path
		d="M915.346 3.10034H993.599V24.3155H942.126V55.6165H990.121V76.4838H942.126V107.785H996.729V129H915.346V3.10034Z"
		fill="black" />
	<path
		d="M838.29 129H811.685V3.10034H857.767C865.65 3.10034 872.2 4.25964 877.417 6.57823C882.634 8.78089 886.749 11.7371 889.763 15.4468C892.777 19.1566 894.864 23.2721 896.023 27.7934C897.299 32.3146 897.936 36.8938 897.936 41.531C897.936 50.6895 896.255 58.6886 892.893 65.5285C889.531 72.3683 884.199 77.4692 876.895 80.8312L904.023 129H874.982L852.898 85.5264H838.29V129ZM838.29 23.6199V65.3546H851.68C854.81 65.3546 857.767 64.7749 860.549 63.6156C863.447 62.4563 865.766 60.3116 867.505 57.1815C869.36 53.9355 870.287 49.3563 870.287 43.4439C870.287 37.7633 869.36 33.5319 867.505 30.7496C865.766 27.9673 863.389 26.1124 860.375 25.185C857.361 24.1416 853.999 23.6199 850.289 23.6199H838.29Z"
		fill="black" />
	<path d="M713.588 3.10034H791.84V24.3155H740.367V55.6165H788.362V76.4838H740.367V107.785H794.97V129H713.588V3.10034Z"
		fill="black" />
	<path d="M608.883 3.10034H635.836V54.3992H668.529V3.10034H695.482V129H668.529V76.8316H635.836V129H608.883V3.10034Z"
		fill="black" />
	<path d="M463.988 129H437.208V25.0111H401.908V3.10034H498.941V25.0111H463.988V129Z" fill="black" />
	<path
		d="M333.894 129H307.289V3.10034H353.371C361.254 3.10034 367.804 4.25964 373.021 6.57823C378.238 8.78089 382.353 11.7371 385.367 15.4468C388.381 19.1566 390.468 23.2721 391.627 27.7934C392.903 32.3146 393.54 36.8938 393.54 41.531C393.54 50.6895 391.859 58.6886 388.497 65.5285C385.135 72.3683 379.803 77.4692 372.499 80.8312L399.627 129H370.586L348.502 85.5264H333.894V129ZM333.894 23.6199V65.3546H347.284C350.414 65.3546 353.371 64.7749 356.153 63.6156C359.051 62.4563 361.37 60.3116 363.109 57.1815C364.964 53.9355 365.891 49.3563 365.891 43.4439C365.891 37.7633 364.964 33.5319 363.109 30.7496C361.37 27.9673 358.993 26.1124 355.979 25.185C352.965 24.1416 349.603 23.6199 345.893 23.6199H333.894Z"
		fill="black" />
	<path
		d="M229.537 3.10034H264.838L299.269 129H270.055L262.925 97.8729H232.494L225.886 129H198.236L229.537 3.10034ZM258.752 77.0055L247.275 25.8805H246.753L235.971 77.0055H258.752Z"
		fill="black" />
	<path d="M161.35 129H134.571V25.0111H99.2699V3.10034H196.303V25.0111H161.35V129Z" fill="black" />
	<path
		d="M45.8639 131.087C40.5312 131.087 35.2564 130.565 30.0395 129.522C24.8227 128.478 20.0696 126.623 15.7802 123.957C11.6067 121.175 8.12883 117.233 5.34651 112.132C2.5642 106.915 0.883222 100.249 0.303574 92.1344L23.6054 88.6565C24.301 93.0618 25.2864 97.0034 26.5616 100.481C27.9528 103.843 30.1555 106.51 33.1696 108.48C36.2997 110.335 40.763 111.263 46.5595 111.263C52.0082 111.263 56.5874 110.103 60.2972 107.785C64.1229 105.35 66.0357 101.119 66.0357 95.0906C66.0357 91.033 64.9344 87.845 62.7317 85.5264C60.5291 83.2078 57.5728 81.3529 53.8631 79.9617C50.2693 78.5706 46.3277 77.2954 42.0383 76.1361C37.7489 74.9768 33.4015 73.6436 28.9962 72.1365C24.5908 70.6294 20.5333 68.6006 16.8236 66.0502C13.2297 63.3838 10.2735 59.8479 7.95493 55.4426C5.75227 51.0373 4.65094 45.4147 4.65094 38.5748C4.65094 30.4598 6.50581 23.6199 10.2156 18.0553C14.0412 12.3747 19.2001 8.08533 25.6922 5.18709C32.1842 2.28884 39.6037 0.839722 47.9507 0.839722C55.2542 0.839722 61.9782 1.82513 68.1224 3.79593C74.2667 5.76674 79.3097 9.36056 83.2513 14.5774C87.3088 19.7942 89.6274 27.3297 90.207 37.1837L66.7313 39.966C66.3835 35.7925 65.63 32.3146 64.4707 29.5323C63.4273 26.6341 61.6304 24.4314 59.0799 22.9243C56.5295 21.4172 52.7618 20.6637 47.7768 20.6637C41.6325 20.6637 37.0533 21.9389 34.0391 24.4894C31.1409 27.0398 29.6918 30.5177 29.6918 34.9231C29.6918 38.8647 30.7931 41.9948 32.9957 44.3134C35.3143 46.516 38.3285 48.3129 42.0383 49.7041C45.748 51.0952 49.7476 52.4284 54.037 53.7037C58.3264 54.9789 62.6737 56.428 67.0791 58.051C71.4844 59.674 75.484 61.8187 79.0778 64.4851C82.7875 67.1515 85.7437 70.6874 87.9464 75.0927C90.265 79.3821 91.4243 84.8308 91.4243 91.4388C91.4243 100.829 89.2796 108.48 84.9902 114.393C80.8167 120.189 75.2521 124.421 68.2963 127.087C61.4565 129.754 53.979 131.087 45.8639 131.087Z"
		fill="black" />
	<path
		d="M506.372 47.2504C507.469 44.7826 509.662 43.96 511.582 45.8794L541.196 69.1868L538.454 28.3303C538.179 25.5883 539.55 23.6688 542.018 23.6688C544.212 23.6688 545.857 25.5883 545.583 28.3303L542.841 69.1868L572.181 45.8794C574.374 43.96 576.294 44.7826 577.665 47.2504C579.036 49.7183 578.213 52.1861 575.745 53.2829L543.389 70.832L575.745 88.3811C578.213 89.4779 579.036 91.9458 577.665 94.4136C576.294 96.8815 574.374 97.7041 572.181 95.7846L542.841 72.4772L545.583 113.334C545.857 116.076 544.486 117.995 542.018 117.995C539.276 117.995 538.179 116.076 538.454 113.334L540.921 72.4772L511.582 95.7846C509.662 97.7041 507.469 96.6073 506.372 94.4136C505.001 91.9458 505.549 89.4779 508.017 88.3811L540.373 70.832L508.017 53.2829C505.549 52.1861 505.001 49.7183 506.372 47.2504Z"
		fill="#F3E7D3" />
	<path fill-rule="evenodd" clip-rule="evenodd"
		d="M1045.05 119.389V5H1049.05V119.297L1065.17 103.172L1068 106L1047 127L1026 106L1028.83 103.172L1045.05 119.389Z"
		fill="#F3E7D3" />
	<path
		d="M1200.46 58.27C1195.63 58.27 1192.55 55.975 1192.55 51.817H1196.74C1196.82 53.518 1197.9 54.922 1200.49 54.922C1202.68 54.922 1203.84 54.004 1203.84 52.465C1203.84 51.169 1202.97 50.521 1201.27 50.197L1198.55 49.684C1195.58 49.09 1193.07 47.74 1193.07 44.311C1193.07 40.693 1195.98 38.857 1200.22 38.857C1204.54 38.857 1207.62 40.801 1207.62 44.662H1203.46C1203.51 42.961 1202.11 42.205 1200.27 42.205C1198.11 42.205 1197.3 43.312 1197.3 44.473C1197.3 45.337 1197.76 46.255 1199.46 46.552L1202 47.038C1206.43 47.875 1208.13 49.576 1208.13 52.438C1208.13 56.515 1204.76 58.27 1200.46 58.27Z"
		fill="#F3E7D3" />
	<path
		d="M1181.84 58.27C1177.2 58.27 1174.04 55.867 1174.04 50.818V39.1H1178.12V50.521C1178.12 53.329 1179.52 54.76 1181.84 54.76C1184.16 54.76 1185.54 53.329 1185.54 50.521V39.1H1189.62V50.818C1189.62 55.867 1186.43 58.27 1181.84 58.27Z"
		fill="#F3E7D3" />
	<path d="M1159.89 39.1H1163.94V58H1159.89V50.224H1152.49V58H1148.44V39.1H1152.49V46.876H1159.89V39.1Z"
		fill="#F3E7D3" />
	<path d="M1136.38 58V42.61H1130.9V39.1H1145.91V42.61H1140.43V58H1136.38Z" fill="#F3E7D3" />
	<path d="M1124.31 58V39.1H1128.36V58H1124.31Z" fill="#F3E7D3" />
	<path
		d="M1100.51 58L1095.59 39.1H1099.75L1102.78 52.303H1102.96L1106.61 39.1H1110.77L1114.41 52.303H1114.6L1117.63 39.1L1121.78 39.1L1116.87 58H1112.66L1108.69 44.203L1104.72 58H1100.51Z"
		fill="#F3E7D3" />
	<path
		d="M1174.2 31L1168.39 23.413L1165.83 26.41V31H1161.78V12.1H1165.83V20.983L1173.36 12.1H1178.11L1170.88 20.524L1178.84 31H1174.2Z"
		fill="#F3E7D3" />
	<path
		d="M1159.11 31L1155.12 31L1151.53 24.709H1148.12V31H1144.07V12.1L1151.72 12.1C1156.74 12.1 1158.92 14.719 1158.92 18.418C1158.92 21.118 1157.76 23.224 1155.14 24.169L1159.11 31ZM1148.12 15.61V21.199H1151.58C1153.79 21.199 1154.77 20.092 1154.77 18.418C1154.77 16.717 1153.79 15.61 1151.58 15.61L1148.12 15.61Z"
		fill="#F3E7D3" />
	<path
		d="M1132.11 31.27C1126.65 31.27 1123.09 27.328 1123.09 21.55C1123.09 15.745 1126.65 11.857 1132.11 11.857C1137.56 11.857 1141.13 15.745 1141.13 21.55C1141.13 27.328 1137.56 31.27 1132.11 31.27ZM1132.11 27.787C1135.21 27.787 1136.97 25.303 1136.97 21.55C1136.97 17.77 1135.21 15.34 1132.11 15.34C1129 15.34 1127.25 17.77 1127.25 21.55C1127.25 25.303 1129 27.787 1132.11 27.787Z"
		fill="#F3E7D3" />
	<path
		d="M1100.51 31L1095.59 12.1H1099.75L1102.78 25.303H1102.96L1106.61 12.1H1110.77L1114.41 25.303H1114.6L1117.63 12.1H1121.78L1116.87 31H1112.66L1108.69 17.203L1104.72 31H1100.51Z"
		fill="#F3E7D3" />
</svg>