<svg width="560" height="228" viewBox="0 0 560 228" fill="none" xmlns="http://www.w3.org/2000/svg">
	<line x1="461" y1="116" y2="116" stroke="black" stroke-width="2" />
	<path d="M510.5 0V228" stroke="black" stroke-width="2" />
	<circle cx="510" cy="114" r="49" fill="#F3E7D3" stroke="black" stroke-width="2" />
	<path
		d="M502.346 147.437C499.711 147.437 497.135 147.108 494.62 146.449C492.104 145.85 489.829 144.862 487.792 143.485C485.816 142.047 484.229 140.221 483.031 138.005C481.833 135.729 481.234 133.004 481.234 129.829C481.234 125.936 482.492 122.493 485.007 119.498C487.583 116.504 491.026 114.078 495.338 112.221C493.781 110.185 492.494 108.299 491.476 106.562C490.457 104.765 489.709 102.998 489.23 101.261C488.75 99.4646 488.511 97.6379 488.511 95.7813C488.571 91.4691 490.158 88.0553 493.272 85.5399C496.387 82.9646 500.339 81.6769 505.131 81.6769C508.185 81.6769 510.82 82.2459 513.036 83.3838C515.312 84.4618 517.049 85.9591 518.247 87.8756C519.505 89.7323 520.133 91.8584 520.133 94.254C520.133 96.47 519.654 98.5961 518.696 100.632C517.738 102.669 516.181 104.645 514.025 106.562C511.868 108.418 508.994 110.275 505.4 112.132C507.017 113.809 508.784 115.665 510.701 117.701C512.677 119.738 514.653 121.744 516.63 123.72C518.606 125.637 520.403 127.374 522.02 128.931C522.319 127.853 522.529 126.835 522.649 125.877C522.829 124.858 522.918 123.96 522.918 123.181C522.918 121.804 522.709 120.456 522.29 119.139C521.93 117.761 521.241 116.623 520.223 115.725C519.265 114.767 517.888 114.258 516.091 114.198V111.233H531.812V114.916L524.356 114.557C525.314 115.336 526.003 116.354 526.422 117.612C526.841 118.869 527.081 120.337 527.141 122.014C527.201 123.152 527.081 124.619 526.781 126.416C526.542 128.152 526.063 129.979 525.344 131.896C526.003 132.495 526.692 133.153 527.41 133.872C528.189 134.531 528.997 135.22 529.836 135.938C532.531 138.334 534.837 140.131 536.753 141.328C538.73 142.466 540.197 143.035 541.155 143.035V146H532.8C532.261 146 531.034 145.461 529.117 144.383C527.26 143.245 524.775 141.299 521.661 138.544C519.744 140.999 517.199 143.095 514.025 144.832C510.91 146.569 507.017 147.437 502.346 147.437ZM503.424 142.946C507.197 143.065 510.311 142.466 512.767 141.149C515.282 139.771 517.289 138.064 518.786 136.028C518.367 135.609 517.947 135.22 517.528 134.86C517.109 134.441 516.66 134.022 516.181 133.603C512.168 129.65 508.604 126.146 505.49 123.092C502.436 120.037 499.83 117.282 497.674 114.827C495.758 115.965 494.26 117.372 493.182 119.049C492.104 120.726 491.326 122.403 490.847 124.08C490.427 125.757 490.218 127.224 490.218 128.482C490.218 131.776 490.847 134.471 492.104 136.567C493.422 138.663 495.069 140.221 497.045 141.239C499.082 142.257 501.208 142.826 503.424 142.946ZM503.424 109.975C506.778 107.759 509.263 105.304 510.88 102.609C512.497 99.8539 513.306 97.1588 513.306 94.5236C513.306 91.6488 512.557 89.2831 511.06 87.4265C509.563 85.5099 507.437 84.5517 504.682 84.5517C502.226 84.5517 500.16 85.48 498.483 87.3366C496.866 89.1333 496.057 91.7087 496.057 95.0626C496.057 97.6379 496.746 100.183 498.123 102.699C499.561 105.214 501.328 107.64 503.424 109.975Z"
		fill="black" />
	<path
		d="M28.5344 86V31.2744H46.203C63.5588 31.2744 72.0804 41.125 72.0804 58.6372C72.0804 76.0712 63.5588 86 46.203 86H28.5344ZM34.9451 80.2929H45.6557C59.4935 80.2929 65.5915 73.2567 65.5915 58.6372C65.5915 44.0176 59.4935 36.9815 45.6557 36.9815H34.9451V80.2929ZM76.8652 86V31.2744H111.655V36.9815H83.2759V55.2755H109.31V60.5135H83.2759V80.2929H112.437V86H76.8652ZM136.197 86.7818C122.516 86.7818 115.167 79.8238 115.167 70.0514H121.656C122.047 76.3057 126.347 81.2311 136.275 81.2311C145.188 81.2311 149.644 77.0875 149.644 70.9895C149.644 64.8134 145.188 62.3116 138.855 61.0607L131.663 59.6535C122.047 57.699 116.731 53.0864 116.731 45.1903C116.731 36.4342 123.376 30.5708 135.494 30.5708C147.377 30.5708 154.726 36.2779 154.726 45.1121H148.315C148.081 39.9523 143.781 36.0433 135.494 36.0433C126.816 36.0433 123.454 40.3432 123.454 45.2685C123.454 49.7247 126.19 53.1646 133.305 54.5719L140.341 55.9791C150.27 57.9336 156.368 61.9207 156.368 70.8332C156.368 80.9965 148.628 86.7818 136.197 86.7818ZM161.159 86V31.2744H167.569V86H161.159ZM197.609 86.7818C182.52 86.7818 172.357 77.0875 172.357 58.6372C172.357 40.265 182.677 30.5708 197.296 30.5708C207.851 30.5708 215.669 35.5742 217.936 45.3467H211.525C209.414 39.3269 204.411 36.1997 197.296 36.1997C186.039 36.1997 178.924 44.0958 178.924 58.559C178.924 73.1786 186.117 81.1529 197.453 81.1529C207.147 81.1529 213.48 75.3676 213.48 63.2498H199.72V57.9336H219.812V61.2953C219.812 78.1821 211.916 86.7818 197.609 86.7818ZM224.915 86V31.2744H232.107L261.033 76.0712H261.19V31.2744H267.679V86H260.252L231.56 41.3595H231.325V86H224.915Z"
		fill="black" />
	<path
		d="M27.5344 199V144.274H48.0174C59.3535 144.274 64.2788 149.747 64.2788 157.409C64.2788 163.116 61.5425 167.259 56.3045 168.979C63.497 170.777 67.7968 175.546 67.7968 183.208C67.7968 192.355 61.5425 199 48.252 199H27.5344ZM33.9451 166.868H47.4702C54.2718 166.868 57.6335 163.585 57.6335 158.19C57.6335 152.796 54.2718 149.825 47.4702 149.825H33.9451V166.868ZM33.9451 193.449H47.8611C56.7735 193.449 60.9952 189.149 60.9952 182.895C60.9952 176.562 56.7735 172.419 47.8611 172.419H33.9451V193.449ZM111.379 199H104.891L92.46 177.892H91.6782H78.1532V199H71.7425V144.274H91.6782C104.5 144.274 110.989 150.685 110.989 161.161C110.989 169.448 106.767 175.233 98.4798 177.188L111.379 199ZM78.1532 149.981V172.184H91.4437C100.043 172.184 104.421 168.275 104.421 161.161C104.421 153.89 100.043 149.981 91.4437 149.981H78.1532ZM155.142 199L150.061 185.319H124.105L119.023 199H112.222L133.096 144.274H141.07L161.944 199H155.142ZM125.981 180.315H148.184L137.317 151.232H136.848L125.981 180.315ZM165.121 199V144.274H172.314L201.24 189.071H201.396V144.274H207.885V199H200.458L171.766 154.36H171.532V199H165.121ZM214.139 199V144.274H231.808C249.163 144.274 257.685 154.125 257.685 171.637C257.685 189.071 249.163 199 231.808 199H214.139ZM220.55 193.293H231.26C245.098 193.293 251.196 186.257 251.196 171.637C251.196 157.018 245.098 149.981 231.26 149.981H220.55V193.293ZM262.47 199V144.274H268.881V199H262.47ZM275.223 199V144.274H282.415L311.342 189.071H311.498V144.274H317.987V199H310.56L281.868 154.36H281.634V199H275.223ZM347.938 199.782C332.85 199.782 322.686 190.088 322.686 171.637C322.686 153.265 333.006 143.571 347.626 143.571C358.18 143.571 365.998 148.574 368.265 158.347H361.854C359.743 152.327 354.74 149.2 347.626 149.2C336.368 149.2 329.253 157.096 329.253 171.559C329.253 186.179 336.446 194.153 347.782 194.153C357.476 194.153 363.809 188.368 363.809 176.25H350.049V170.934H370.141V174.295C370.141 191.182 362.245 199.782 347.938 199.782Z"
		fill="black" />
</svg>