<svg width="324" height="66" viewBox="0 0 324 66" fill="none" xmlns="http://www.w3.org/2000/svg">
	<path
		d="M26.9564 65.9078C10.7073 65.9078 0.358746 58.1917 0.358746 44.2121H14.4292C14.7015 49.931 18.3326 54.6514 27.0472 54.6514C34.4001 54.6514 38.3035 51.565 38.3035 46.3907C38.3035 42.0334 35.3986 39.8548 29.6797 38.7655L20.5112 37.0407C10.5258 35.0436 2.08351 30.5048 2.08351 18.9761C2.08351 6.81199 11.8874 0.639162 26.1394 0.639162C40.6637 0.639162 51.0123 7.1751 51.0123 20.1562H37.0326C37.2142 14.4373 32.4938 11.8955 26.3209 11.8955C19.0588 11.8955 16.3355 15.6174 16.3355 19.5208C16.3355 22.4256 17.8787 25.512 23.5976 26.5106L32.1307 28.1446C47.0181 30.9587 52.737 36.6776 52.737 46.3C52.737 60.0073 41.3899 65.9078 26.9564 65.9078ZM57.2184 65V1.45615H100.61V13.2572H70.835V27.5091H97.8865V38.13H70.835V53.199H101.518V65H57.2184ZM155.655 65H142.22L130.147 43.849H118.709V65H105.093V1.45615H130.782C147.667 1.45615 155.02 10.2615 155.02 22.698C155.02 31.7756 151.117 38.8562 142.311 42.0334L155.655 65ZM118.709 13.2572V32.048H130.329C137.772 32.048 141.04 28.3261 141.04 22.698C141.04 16.979 137.772 13.2572 130.329 13.2572H118.709ZM177.643 65L154.676 1.45615H168.928L185.994 51.1111H186.811L203.877 1.45615H218.129L195.162 65H177.643ZM221.23 65V1.45615H264.622V13.2572H234.847V27.5091H261.898V38.13H234.847V53.199H265.529V65H221.23ZM269.105 65V1.45615H293.16C312.95 1.45615 323.208 12.8033 323.208 33.2281C323.208 53.6529 312.95 65 293.16 65H269.105ZM282.721 53.199H291.799C304.78 53.199 309.319 47.2077 309.319 33.2281C309.319 19.2484 304.78 13.2572 291.799 13.2572H282.721V53.199Z"
		fill="black" />
</svg>