<svg width="249" height="65" viewBox="0 0 249 65" fill="none" xmlns="http://www.w3.org/2000/svg">
	<path
		d="M17.517 65L0.541754 1.45615H8.16701L21.7836 54.4699H22.1467L38.0326 1.45615H46.021L61.907 54.4699H62.2701L75.8866 1.45615H83.6026L66.5366 65H58.5482L42.0268 10.9877L25.5962 65H17.517ZM87.6628 65V1.45615H128.059V8.08287H95.1065V29.3247H125.335V35.4067H95.1065V58.3733H128.966V65H87.6628ZM132.136 19.8839V15.9805H132.772C137.22 15.9805 138.218 14.3465 138.218 10.7154C134.406 10.7154 132.136 8.44598 132.136 5.54112C132.136 2.81781 134.133 0.639162 137.129 0.639162C140.306 0.639162 143.03 2.81781 143.03 8.80909C143.03 16.3436 139.035 19.8839 133.77 19.8839H132.136ZM169.554 65L145.317 1.45615H153.214L173.911 56.9209H174.456L195.153 1.45615H203.051L178.813 65H169.554ZM207.261 65V1.45615H247.657V8.08287H214.705V29.3247H244.934V35.4067H214.705V58.3733H248.565V65H207.261Z"
		fill="black" />
</svg>