<svg width="548" height="142" viewBox="0 0 548 142" fill="none" xmlns="http://www.w3.org/2000/svg">
	<path
		d="M38 142L0.6 1.99999H17.4L47.4 118.8H48.2L83.2 1.99999H100.8L135.8 118.8H136.6L166.6 1.99999H183.6L146 142H128.4L92 23L55.8 142H38ZM192.545 142V1.99999H281.545V16.6H208.945V63.4H275.545V76.8H208.945V127.4H283.545V142H192.545ZM290.53 42.6V34H291.93C301.73 34 303.93 30.4 303.93 22.4C295.53 22.4 290.53 17.4 290.53 11C290.53 4.99999 294.93 0.19999 301.53 0.19999C308.53 0.19999 314.53 4.99999 314.53 18.2C314.53 34.8 305.73 42.6 294.13 42.6H290.53ZM372.969 142L319.569 1.99999H336.969L382.569 124.2H383.769L429.369 1.99999H446.769L393.369 142H372.969ZM456.045 142V1.99999H545.045V16.6H472.445V63.4H539.045V76.8H472.445V127.4H547.045V142H456.045Z"
		fill="black" />
</svg>