<svg width="359" height="540" viewBox="0 0 359 540" fill="none" xmlns="http://www.w3.org/2000/svg">
	<path
		d="M328.812 275.113C328.548 270.488 330.877 266.323 334.522 264.059C337.004 262.518 338.399 259.68 338.231 256.738L325.604 35.4604C325.351 31.0195 321.586 27.6227 317.196 27.8732L13.6145 45.1972C9.22411 45.4477 5.87059 49.2507 6.12401 53.6917L18.7342 274.669C18.9069 277.696 20.7284 280.414 23.4923 281.591C27.5924 283.337 30.576 287.322 30.8496 292.116C31.1232 296.911 28.6123 301.209 24.7374 303.41C22.1253 304.894 20.6247 307.8 20.7976 310.828L33.4362 532.305C33.6896 536.746 37.454 540.143 41.8444 539.892L345.424 522.569C349.814 522.318 353.168 518.515 352.914 514.074L340.259 292.297C340.091 289.357 338.38 286.695 335.74 285.446C331.861 283.611 329.074 279.738 328.81 275.113L328.812 275.113Z"
		fill="#626D2F" />
	<path
		d="M328.599 271.733C328.974 267.116 331.853 263.31 335.775 261.569C338.446 260.384 340.218 257.766 340.457 254.828L358.388 33.9174C358.748 29.4838 355.487 25.6015 351.104 25.2457L48.0252 0.644149C43.6421 0.288358 39.7973 3.59388 39.4374 8.02746L21.5299 228.639C21.2846 231.661 22.7149 234.603 25.2906 236.149C29.1116 238.443 31.5186 242.8 31.1301 247.587C30.7416 252.373 27.6633 256.285 23.5224 257.932C20.7311 259.043 18.8451 261.714 18.5996 264.738L0.651651 485.848C0.291768 490.282 3.5531 494.164 7.93625 494.52L311.013 519.121C315.396 519.477 319.241 516.171 319.601 511.738L337.573 290.329C337.811 287.393 336.482 284.521 334.04 282.921C330.45 280.57 328.222 276.35 328.597 271.733L328.599 271.733Z"
		fill="#F89A1C" />
</svg>