<?xml version="1.0" encoding="UTF-8"?>
<svg id="Layer_1" xmlns="http://www.w3.org/2000/svg" version="1.1" viewBox="0 0 118.4 52.2">
  <!-- Generator: Adobe Illustrator 29.0.0, SVG Export Plug-In . SVG Version: 2.1.0 Build 186)  -->
  <defs>
    <style>
      .st0 {
        stroke: #231f20;
        stroke-linecap: round;
        stroke-miterlimit: 10;
        stroke-width: .9px;
      }
    </style>
  </defs>
  <g id="Layer_5">
    <polygon points="37.3 19.1 36.7 20.9 37.2 22.6 37.4 24.4 37.3 26.1 36.8 27.9 36.6 29.6 36.6 31.4 36.7 33.1 37.1 34.9 37.1 36.6 36.7 38.3 36.1 40 35.2 41.4 34.5 42.9 33.8 44.6 32.8 46 31.8 47.5 30.1 48.1 28.5 48.8 27.1 49.9 25.5 50.3 23.9 51.2 22.1 50.8 20.4 51.5 20.4 51.4 18.6 51.4 17 50.5 15.4 50 13.6 50.1 12.2 48.9 10.4 48.6 9.4 47 7.7 46.5 6.5 45.3 5.8 43.6 4.1 42.7 3.7 40.9 2.3 39.8 2.1 38 1.6 36.4 1.4 34.7 .9 33 .6 31.4 .6 29.7 .6 28.1 .6 26.5 .6 24.8 .4 23.2 1 21.6 1 20 .8 18.3 .9 16.5 1.2 14.8 1.7 13.2 2.3 11.5 2.9 9.8 4.2 8.6 5.2 7.2 6.2 5.8 7.9 5 8.9 3.4 10.7 3 12.4 2.6 14 1.9 15.7 1.6 17.4 .9 19.2 1.7 21 .9 22.6 1.7 24.5 1.7 25.9 2.9 27.7 3.3 29.4 3.8 30.6 5.2 32 6.3 33 7.8 34.4 8.9 34.8 10.8 35.7 12.2 36.2 13.9 36.9 15.6 37 17.4 37.3 19.1"/>
    <polygon class="st0" points="37.3 19.1 36.7 20.9 37.2 22.6 37.4 24.4 37.3 26.1 36.8 27.9 36.6 29.6 36.6 31.4 36.7 33.1 37.1 34.9 37.1 36.6 36.7 38.3 36.1 40 35.2 41.4 34.5 42.9 33.8 44.6 32.8 46 31.8 47.5 30.1 48.1 28.5 48.8 27.1 49.9 25.5 50.3 23.9 51.2 22.1 50.8 20.4 51.5 20.4 51.4 18.6 51.4 17 50.5 15.4 50 13.6 50.1 12.2 48.9 10.4 48.6 9.4 47 7.7 46.5 6.5 45.3 5.8 43.6 4.1 42.7 3.7 40.9 2.3 39.8 2.1 38 1.6 36.4 1.4 34.7 .9 33 .6 31.4 .6 29.7 .6 28.1 .6 26.5 .6 24.8 .4 23.2 1 21.6 1 20 .8 18.3 .9 16.5 1.2 14.8 1.7 13.2 2.3 11.5 2.9 9.8 4.2 8.6 5.2 7.2 6.2 5.8 7.9 5 8.9 3.4 10.7 3 12.4 2.6 14 1.9 15.7 1.6 17.4 .9 19.2 1.7 21 .9 22.6 1.7 24.5 1.7 25.9 2.9 27.7 3.3 29.4 3.8 30.6 5.2 32 6.3 33 7.8 34.4 8.9 34.8 10.8 35.7 12.2 36.2 13.9 36.9 15.6 37 17.4 37.3 19.1"/>
    <polygon points="117.8 18.8 117.2 20.5 117.8 22.2 118 24 117.8 25.7 117.4 27.5 117.2 29.2 117.1 31 117.2 32.7 117.7 34.5 117.7 36.2 117.2 37.9 116.7 39.6 115.7 41 115 42.5 114.4 44.2 113.4 45.6 112.4 47.1 110.7 47.7 109.1 48.4 107.7 49.5 106 49.9 104.4 50.8 102.6 50.5 100.9 51.2 100.9 51 99.2 51 97.6 50.1 95.9 49.7 94.1 49.7 92.8 48.5 91 48.2 90 46.6 88.2 46.1 87 44.9 86.3 43.2 84.7 42.3 84.3 40.6 82.8 39.4 82.7 37.6 82.1 36 82 34.3 81.4 32.7 81.2 31 81.2 29.3 81.2 27.7 81.2 26.1 81.2 24.5 81 22.8 81.6 21.2 81.5 19.6 81.3 17.9 81.4 16.2 81.8 14.4 82.3 12.8 82.8 11.1 83.4 9.4 84.7 8.2 85.7 6.8 86.8 5.4 88.4 4.6 89.4 3 91.2 2.6 92.9 2.2 94.5 1.5 96.3 1.2 98 .5 99.7 1.3 101.5 .5 103.2 1.4 105 1.3 106.4 2.5 108.2 2.9 110 3.4 111.2 4.8 112.6 5.9 113.5 7.4 114.9 8.6 115.3 10.4 116.3 11.9 116.8 13.5 117.4 15.2 117.6 17 117.8 18.8"/>
    <polygon class="st0" points="117.8 18.8 117.2 20.5 117.8 22.2 118 24 117.8 25.7 117.4 27.5 117.2 29.2 117.1 31 117.2 32.7 117.7 34.5 117.7 36.2 117.2 37.9 116.7 39.6 115.7 41 115 42.5 114.4 44.2 113.4 45.6 112.4 47.1 110.7 47.7 109.1 48.4 107.7 49.5 106 49.9 104.4 50.8 102.6 50.5 100.9 51.2 100.9 51 99.2 51 97.6 50.1 95.9 49.7 94.1 49.7 92.8 48.5 91 48.2 90 46.6 88.2 46.1 87 44.9 86.3 43.2 84.7 42.3 84.3 40.6 82.8 39.4 82.7 37.6 82.1 36 82 34.3 81.4 32.7 81.2 31 81.2 29.3 81.2 27.7 81.2 26.1 81.2 24.5 81 22.8 81.6 21.2 81.5 19.6 81.3 17.9 81.4 16.2 81.8 14.4 82.3 12.8 82.8 11.1 83.4 9.4 84.7 8.2 85.7 6.8 86.8 5.4 88.4 4.6 89.4 3 91.2 2.6 92.9 2.2 94.5 1.5 96.3 1.2 98 .5 99.7 1.3 101.5 .5 103.2 1.4 105 1.3 106.4 2.5 108.2 2.9 110 3.4 111.2 4.8 112.6 5.9 113.5 7.4 114.9 8.6 115.3 10.4 116.3 11.9 116.8 13.5 117.4 15.2 117.6 17 117.8 18.8"/>
  </g>
</svg>