<svg width="320" height="496" viewBox="0 0 320 496" fill="none" xmlns="http://www.w3.org/2000/svg">
	<path
		d="M309.549 247.5C309.549 242.868 312.111 238.842 315.879 236.789C318.445 235.392 320 232.639 320 229.691V8.05391C320 3.60575 316.435 0 312.038 0H7.96232C3.56474 0 0 3.60575 0 8.05391V229.391C0 232.423 1.66368 235.24 4.35603 236.573C8.35005 238.55 11.1017 242.698 11.1017 247.5C11.1017 252.302 8.35005 256.45 4.35603 258.427C1.66368 259.76 0 262.575 0 265.609V487.446C0 491.894 3.56474 495.5 7.96232 495.5H312.036C316.433 495.5 319.998 491.894 319.998 487.446V265.309C319.998 262.363 318.441 259.608 315.877 258.211C312.109 256.158 309.547 252.132 309.547 247.5H309.549Z"
		fill="#D33E27" />
</svg>