<svg width="1920" height="373" viewBox="0 0 1920 373" fill="none" xmlns="http://www.w3.org/2000/svg">
	<g clip-path="url(#clip0_2586_2)">
		<path d="M2156 42L-236 353.741V500H2156V42Z" fill="black" />
		<g clip-path="url(#clip1_2586_2)">
			<path d="M80 133C80 115.327 94.3269 101 112 101H408.501C426.174 101 440.501 115.327 440.501 133V266.433H80V133Z"
				fill="#F89A1C" />
			<path
				d="M85.5398 106.403C85.6088 107.15 86.2528 107.611 87.0464 107.472C87.8284 107.334 88.2539 106.909 88.1734 106.046C88.0929 105.195 87.5524 104.678 86.8278 104.77C86.1148 104.862 85.4707 105.667 85.5398 106.391V106.403Z"
				fill="black" />
			<path
				d="M102.515 103.861C102.584 104.608 103.228 105.08 104.01 104.942C104.792 104.793 105.183 104.286 105.149 103.481C105.114 102.734 104.447 102.17 103.769 102.251C103.033 102.343 102.434 103.113 102.503 103.861H102.515Z"
				fill="black" />
			<path
				d="M95.3842 103.493C94.6137 103.585 94.0617 104.275 94.1077 105.092C94.1652 106.047 94.8207 106.219 95.5683 106.196C96.2698 106.173 96.7988 105.506 96.7413 104.782C96.6838 104.022 96.0513 103.424 95.3842 103.505V103.493Z"
				fill="black" />
			<path
				d="M129.691 101.112C130.324 100.94 130.795 100.514 130.738 99.6749C130.692 98.8698 130.094 98.3293 129.392 98.4098C128.679 98.4903 128.012 99.3068 128.069 100.008C128.127 100.687 128.84 101.227 129.691 101.112Z"
				fill="black" />
			<path
				d="M121.192 102.366C121.87 102.24 122.284 101.757 122.227 100.94C122.169 100.17 121.525 99.5946 120.847 99.6981C120.088 99.8016 119.513 100.538 119.582 101.32C119.651 102.056 120.283 102.504 121.18 102.366H121.192Z"
				fill="black" />
			<path
				d="M112.601 103.666C113.268 103.505 113.74 103.091 113.682 102.251C113.613 101.377 113.027 100.848 112.245 100.986C111.509 101.113 110.957 101.895 111.049 102.665C111.129 103.321 111.808 103.792 112.601 103.677V103.666Z"
				fill="black" />
			<path
				d="M162.986 103.401C163.066 104.39 163.572 104.712 164.297 104.643C165.056 104.563 165.424 104.057 165.378 103.263C165.32 102.412 164.768 102.194 164.055 102.274C163.331 102.366 162.997 102.826 162.997 103.39L162.986 103.401Z"
				fill="black" />
			<path
				d="M112.003 110.877C112.106 112.038 112.612 112.337 113.325 112.291C113.992 112.257 114.533 111.509 114.429 110.819C114.326 110.072 113.797 109.819 113.141 109.911C112.428 110.003 111.98 110.417 112.003 110.877Z"
				fill="black" />
			<path
				d="M172.877 103.378C173.567 103.252 174.084 102.539 173.946 101.86C173.797 101.135 173.291 100.894 172.612 100.997C171.876 101.124 171.45 101.549 171.554 102.355C171.657 103.137 172.129 103.447 172.877 103.367V103.378Z"
				fill="black" />
			<path
				d="M79.3751 117.386C80.0997 117.225 80.4562 116.673 80.3872 115.96C80.3182 115.178 79.7546 114.902 79.0071 115.028C78.271 115.143 77.949 115.638 78.0065 116.351C78.0755 117.156 78.6046 117.421 79.3751 117.386Z"
				fill="black" />
			<path
				d="M103.527 112.567C103.55 113.407 104.125 113.637 104.815 113.556C105.563 113.464 105.942 112.912 105.862 112.153C105.781 111.337 105.195 111.095 104.493 111.21C103.803 111.325 103.424 111.774 103.527 112.567Z"
				fill="black" />
			<path
				d="M147.333 107.197C148.184 107.082 148.483 106.495 148.426 105.793C148.368 105.046 147.897 104.678 147.115 104.816C146.356 104.942 145.976 105.414 146.068 106.185C146.16 106.955 146.643 107.266 147.333 107.197Z"
				fill="black" />
			<path
				d="M95.0391 113.671C95.1541 114.557 95.6486 114.913 96.4192 114.833C97.2357 114.741 97.4772 114.108 97.4542 113.407C97.4197 112.659 96.8907 112.372 96.2121 112.452C95.4761 112.533 95.0391 112.935 95.0391 113.671Z"
				fill="black" />
			<path
				d="M155.924 103.401C154.958 103.746 154.429 104.08 154.556 104.908C154.682 105.667 155.188 105.989 155.901 105.92C156.568 105.851 157.166 105.034 156.913 104.413C156.729 103.965 156.189 103.666 155.924 103.401Z"
				fill="black" />
			<path
				d="M181.502 99.6519C180.386 99.8474 179.995 100.284 180.076 101.078C180.156 101.883 180.708 102.136 181.398 102.125C182.008 102.113 182.698 101.204 182.445 100.618C182.249 100.158 181.72 99.8704 181.502 99.6519Z"
				fill="black" />
			<path
				d="M139.904 107.047C139.743 106.277 139.248 105.955 138.512 106.104C137.834 106.242 137.443 106.702 137.512 107.45C137.592 108.255 138.121 108.565 138.834 108.462C139.57 108.347 139.927 107.818 139.892 107.047H139.904Z"
				fill="black" />
			<path
				d="M129.082 108.278C129.162 109.485 129.68 109.796 130.404 109.727C131.152 109.646 131.566 109.129 131.497 108.358C131.428 107.553 130.841 107.185 130.163 107.392C129.691 107.53 129.323 108.082 129.093 108.289L129.082 108.278Z"
				fill="black" />
			<path
				d="M121.652 108.634C120.767 108.76 120.502 109.278 120.606 110.037C120.709 110.842 121.204 111.118 121.94 110.992C122.722 110.854 123.044 110.256 122.952 109.554C122.86 108.829 122.342 108.473 121.652 108.622V108.634Z"
				fill="black" />
			<path
				d="M86.5518 115.029C86.6208 115.845 87.0923 116.167 87.8283 116.11C88.5299 116.052 89.0819 115.362 88.9669 114.661C88.8289 113.89 88.2769 113.648 87.5753 113.74C86.8623 113.844 86.5403 114.304 86.5633 115.029H86.5518Z"
				fill="black" />
			<path
				d="M182.503 110.842C182.733 110.394 183.124 109.945 183.158 109.485C183.216 108.784 182.687 108.462 182.02 108.577C181.353 108.68 180.927 109.175 181.088 109.819C181.203 110.256 181.698 110.566 182.02 110.934C182.181 110.911 182.342 110.888 182.491 110.865L182.503 110.842Z"
				fill="black" />
			<path
				d="M122.929 119.778C123.182 119.33 123.607 118.904 123.653 118.444C123.722 117.777 123.228 117.398 122.561 117.478C121.894 117.547 121.445 118.019 121.583 118.663C121.687 119.1 122.158 119.445 122.457 119.824C122.607 119.813 122.768 119.79 122.917 119.778H122.929Z"
				fill="black" />
			<path
				d="M148.518 115.926C148.736 115.466 149.139 114.994 149.15 114.545C149.162 113.867 148.621 113.568 147.966 113.671C147.276 113.786 146.908 114.315 147.092 114.936C147.218 115.362 147.724 115.661 148.058 116.018C148.207 115.983 148.368 115.96 148.518 115.926Z"
				fill="black" />
			<path
				d="M113.751 118.605C113.51 119.065 113.13 119.502 113.073 119.974C112.992 120.698 113.544 120.986 114.177 120.905C114.809 120.825 115.327 120.422 115.12 119.721C114.993 119.272 114.545 118.939 114.234 118.548C114.073 118.571 113.901 118.594 113.74 118.605H113.751Z"
				fill="black" />
			<path
				d="M88.9441 124.873C89.1856 124.413 89.6112 123.965 89.6342 123.505C89.6802 122.815 89.1511 122.504 88.4956 122.573C87.7941 122.654 87.4145 123.183 87.564 123.804C87.6675 124.241 88.1621 124.563 88.4841 124.931C88.6451 124.908 88.7946 124.885 88.9556 124.873H88.9441Z"
				fill="black" />
			<path
				d="M207.735 107.369C208.161 106.61 208.587 106.173 208.633 105.713C208.702 105.035 208.219 104.667 207.551 104.747C206.815 104.828 206.436 105.391 206.574 106.047C206.666 106.461 207.172 106.748 207.735 107.369Z"
				fill="black" />
			<path
				d="M155.556 113.304C155.66 114.431 156.166 114.615 156.787 114.511C157.431 114.396 157.799 113.982 157.684 113.269C157.581 112.579 157.121 112.188 156.499 112.418C156.074 112.579 155.752 113.108 155.545 113.304H155.556Z"
				fill="black" />
			<path
				d="M165.389 113.419C165.642 112.97 166.056 112.545 166.091 112.085C166.148 111.429 165.665 111.038 164.987 111.107C164.297 111.176 163.894 111.67 164.032 112.315C164.124 112.752 164.596 113.085 164.883 113.465C165.044 113.442 165.205 113.43 165.378 113.407L165.389 113.419Z"
				fill="black" />
			<path
				d="M172.416 111.44C172.865 111.624 173.313 111.969 173.762 111.946C174.383 111.912 174.774 111.44 174.636 110.704C174.509 110.003 174.026 109.658 173.44 109.888C173.014 110.049 172.704 110.589 172.347 110.957C172.37 111.118 172.393 111.279 172.416 111.44Z"
				fill="black" />
			<path
				d="M240.455 101.239C240.904 101.423 241.352 101.768 241.801 101.745C242.433 101.722 242.824 101.227 242.698 100.514C242.583 99.8244 242.1 99.4564 241.479 99.6864C241.053 99.8474 240.743 100.376 240.375 100.744C240.398 100.905 240.421 101.066 240.444 101.227L240.455 101.239Z"
				fill="black" />
			<path
				d="M199.282 105.954C198.236 106.161 197.983 106.656 198.04 107.311C198.098 108.036 198.592 108.289 199.236 108.163C199.869 108.047 200.352 107.61 200.122 106.932C199.972 106.495 199.489 106.184 199.282 105.954Z"
				fill="black" />
			<path
				d="M231.921 102.458C232.358 102.665 232.784 103.045 233.232 103.045C233.865 103.045 234.244 102.562 234.175 101.849C234.095 101.136 233.635 100.768 233.014 100.975C232.577 101.113 232.255 101.63 231.875 101.975C231.887 102.136 231.91 102.309 231.921 102.47V102.458Z"
				fill="black" />
			<path
				d="M223.48 103.114C223.583 104.241 224.09 104.425 224.711 104.333C225.378 104.229 225.723 103.804 225.619 103.091C225.527 102.389 225.044 102.021 224.435 102.24C224.009 102.389 223.687 102.907 223.48 103.114Z"
				fill="black" />
			<path
				d="M131.532 118.49C131.762 118.042 132.141 117.593 132.176 117.133C132.233 116.432 131.693 116.11 131.049 116.19C130.393 116.271 129.956 116.777 130.14 117.421C130.266 117.858 130.726 118.18 131.037 118.559C131.198 118.536 131.359 118.513 131.52 118.49H131.532Z"
				fill="black" />
			<path
				d="M104.378 121.584C104.815 121.779 105.252 122.147 105.7 122.147C106.333 122.147 106.701 121.664 106.597 120.951C106.494 120.273 106.068 119.859 105.436 120.077C105.01 120.227 104.688 120.744 104.32 121.089C104.343 121.25 104.366 121.423 104.378 121.584Z"
				fill="black" />
			<path
				d="M96.0513 122.182C96.1318 123.309 96.6378 123.516 97.2588 123.436C97.9144 123.355 98.2824 122.941 98.1904 122.217C98.0984 121.527 97.6499 121.124 97.0288 121.331C96.5918 121.469 96.2698 121.987 96.0513 122.182Z"
				fill="black" />
			<path
				d="M78.8695 125.402C79.3065 125.598 79.7436 125.966 80.2036 125.966C80.8476 125.966 81.2272 125.471 81.1352 124.758C81.0432 124.068 80.5716 123.677 79.9506 123.884C79.5136 124.034 79.1915 124.563 78.812 124.919C78.835 125.08 78.8465 125.241 78.8695 125.402Z"
				fill="black" />
			<path
				d="M191.036 109.566C191.266 109.117 191.669 108.669 191.692 108.209C191.738 107.53 191.22 107.196 190.565 107.288C189.898 107.38 189.484 107.887 189.645 108.519C189.76 108.956 190.243 109.267 190.565 109.635C190.726 109.612 190.887 109.589 191.036 109.566Z"
				fill="black" />
			<path
				d="M214.958 104.942C215.383 105.172 215.797 105.563 216.234 105.575C216.844 105.598 217.281 105.161 217.212 104.425C217.143 103.735 216.729 103.309 216.096 103.482C215.659 103.608 215.314 104.103 214.923 104.436C214.935 104.597 214.946 104.77 214.958 104.931V104.942Z"
				fill="black" />
			<path
				d="M139.984 117.202C140.191 116.742 140.559 116.282 140.582 115.822C140.617 115.12 140.088 114.833 139.432 114.948C138.753 115.063 138.385 115.604 138.558 116.213C138.684 116.639 139.179 116.938 139.512 117.294C139.673 117.26 139.834 117.237 139.984 117.202Z"
				fill="black" />
			<path
				d="M233.704 109.681C233.474 110.06 233.083 110.44 233.049 110.842C232.991 111.475 233.543 111.785 234.061 111.613C234.406 111.498 234.866 110.992 234.877 110.67C234.889 110.325 234.429 109.991 234.187 109.646C234.026 109.658 233.865 109.681 233.704 109.692V109.681Z"
				fill="black" />
			<path
				d="M114.625 127.541C114.43 127.932 114.027 128.369 114.085 128.715C114.142 129.037 114.729 129.52 114.982 129.451C115.338 129.347 115.81 128.83 115.844 128.461C115.879 128.151 115.361 127.806 115.097 127.472L114.637 127.541H114.625Z"
				fill="black" />
			<path
				d="M131.002 126.391C131.37 126.575 131.796 126.978 132.083 126.886C132.44 126.771 132.9 126.242 132.934 125.874C132.992 125.333 132.532 124.908 131.934 125.149C131.554 125.299 131.267 125.69 130.933 125.977C130.956 126.115 130.979 126.253 131.002 126.391Z"
				fill="black" />
			<path
				d="M123.136 126.253C122.952 126.656 122.653 127.047 122.618 127.461C122.572 128.139 123.136 128.369 123.63 128.174C123.964 128.047 124.389 127.507 124.378 127.173C124.378 126.828 123.895 126.518 123.63 126.184C123.469 126.207 123.297 126.23 123.136 126.253Z"
				fill="black" />
			<path
				d="M106.103 128.807C105.896 129.198 105.505 129.635 105.551 129.968C105.609 130.29 106.184 130.785 106.437 130.716C106.805 130.612 107.276 130.106 107.322 129.738C107.357 129.428 106.851 129.083 106.575 128.749C106.414 128.772 106.264 128.784 106.103 128.807Z"
				fill="black" />
			<path
				d="M80.5712 132.671C80.3872 133.073 79.9847 133.533 80.0652 133.867C80.1342 134.189 80.7552 134.626 81.0198 134.546C81.3648 134.442 81.8133 133.89 81.8363 133.522C81.8478 133.211 81.3188 132.901 81.0313 132.579C80.8818 132.602 80.7207 132.636 80.5712 132.659V132.671Z"
				fill="black" />
			<path
				d="M140.18 123.712C139.95 124.103 139.49 124.551 139.57 124.85C139.651 125.195 140.203 125.598 140.559 125.598C140.835 125.598 141.33 125 141.353 124.666C141.364 124.333 140.904 123.999 140.651 123.654C140.49 123.666 140.341 123.689 140.18 123.7V123.712Z"
				fill="black" />
			<path
				d="M157.236 121.159C157.029 121.55 156.661 121.941 156.638 122.332C156.592 122.953 157.109 123.275 157.638 123.068C157.983 122.941 158.42 122.435 158.42 122.113C158.42 121.768 157.96 121.435 157.696 121.101C157.535 121.124 157.385 121.136 157.224 121.159H157.236Z"
				fill="black" />
			<path
				d="M301.685 99.5255C301.489 99.9166 301.109 100.354 301.167 100.687C301.225 101.009 301.811 101.481 302.053 101.412C302.421 101.297 302.881 100.802 302.927 100.434C302.961 100.135 302.444 99.79 302.168 99.468C302.007 99.491 301.846 99.514 301.685 99.537V99.5255Z"
				fill="black" />
			<path
				d="M268.183 106.966C268.551 106.265 268.896 105.897 268.908 105.517C268.931 104.942 268.551 104.62 267.919 104.724C267.298 104.816 266.964 105.241 267.114 105.782C267.217 106.161 267.666 106.414 268.183 106.966Z"
				fill="black" />
			<path
				d="M191.186 116.087C190.99 116.489 190.565 116.984 190.668 117.26C190.795 117.605 191.347 117.961 191.726 117.95C191.979 117.95 192.451 117.294 192.439 116.961C192.428 116.616 191.933 116.317 191.657 116.006C191.496 116.029 191.347 116.064 191.186 116.087Z"
				fill="black" />
			<path
				d="M250.806 107.139C250.576 107.519 250.116 107.967 250.185 108.266C250.265 108.611 250.806 109.025 251.162 109.025C251.438 109.025 251.956 108.439 251.967 108.117C251.99 107.783 251.53 107.438 251.277 107.093C251.116 107.105 250.967 107.116 250.806 107.139Z"
				fill="black" />
			<path
				d="M275.509 104.782C275.877 104.954 276.326 105.345 276.614 105.242C276.97 105.115 277.407 104.586 277.442 104.207C277.476 103.655 277.005 103.252 276.429 103.505C276.05 103.666 275.762 104.08 275.44 104.379C275.463 104.517 275.498 104.644 275.521 104.782H275.509Z"
				fill="black" />
			<path
				d="M148.644 122.446C148.449 122.837 148.058 123.286 148.115 123.62C148.173 123.942 148.679 124.333 149.035 124.356C149.541 124.39 150.07 124.022 149.886 123.378C149.783 122.998 149.392 122.699 149.127 122.377C148.966 122.4 148.805 122.423 148.644 122.446Z"
				fill="black" />
			<path
				d="M164.906 121.377C165.309 121.538 165.746 121.883 166.102 121.791C166.413 121.71 166.632 121.147 166.896 120.802C166.54 120.549 166.183 120.1 165.826 120.112C165.493 120.123 165.159 120.641 164.837 120.928C164.86 121.078 164.883 121.227 164.906 121.377Z"
				fill="black" />
			<path
				d="M174.647 120.963C175.015 120.284 175.475 119.801 175.395 119.514C175.303 119.18 174.693 118.778 174.36 118.835C174.061 118.881 173.647 119.514 173.624 119.893C173.601 120.169 174.141 120.457 174.647 120.974V120.963Z"
				fill="black" />
			<path
				d="M183.089 119.617C183.48 119.054 183.894 118.709 183.917 118.352C183.975 117.72 183.572 117.386 182.905 117.467C182.261 117.536 181.985 118.019 182.089 118.536C182.158 118.893 182.618 119.134 183.089 119.629V119.617Z"
				fill="black" />
			<path
				d="M98.1099 132.349C98.4895 131.785 98.9725 131.348 98.9035 131.095C98.8115 130.727 98.3515 130.29 97.9834 130.232C97.3394 130.129 96.9829 130.727 97.0749 131.302C97.1324 131.647 97.6269 131.889 98.1099 132.349Z"
				fill="black" />
			<path
				d="M200.202 117.133C200.536 116.432 200.881 116.029 200.869 115.661C200.835 115.017 200.306 114.707 199.731 115.006C199.409 115.178 199.029 115.753 199.087 116.052C199.156 116.397 199.662 116.639 200.202 117.133Z"
				fill="black" />
			<path
				d="M284.836 101.745C284.457 102.47 284.066 102.895 284.1 103.252C284.135 103.551 284.767 104.022 284.997 103.942C285.365 103.815 285.779 103.309 285.848 102.93C285.894 102.677 285.365 102.332 284.836 101.745Z"
				fill="black" />
			<path
				d="M216.637 112.28C216.464 112.683 216.085 113.154 216.177 113.476C216.269 113.787 216.855 114.178 217.166 114.12C217.476 114.063 217.948 113.465 217.936 113.154C217.913 112.809 217.419 112.51 217.131 112.188C216.97 112.222 216.809 112.245 216.648 112.28H216.637Z"
				fill="black" />
			<path
				d="M259.121 105.909C258.925 106.311 258.546 106.76 258.603 107.105C258.649 107.404 259.27 107.852 259.523 107.772C259.891 107.657 260.363 107.139 260.386 106.783C260.409 106.472 259.868 106.15 259.569 105.84C259.42 105.863 259.27 105.886 259.121 105.92V105.909Z"
				fill="black" />
			<path
				d="M224.434 112.383C224.802 112.567 225.148 112.889 225.527 112.901C226.091 112.901 226.551 112.464 226.355 111.877C226.252 111.544 225.734 111.153 225.412 111.176C225.067 111.199 224.722 111.67 224.377 111.946C224.4 112.096 224.423 112.245 224.434 112.395V112.383Z"
				fill="black" />
			<path
				d="M241.501 109.888C241.881 110.049 242.329 110.44 242.617 110.325C242.962 110.187 243.181 109.623 243.445 109.255C243.1 109.025 242.743 108.576 242.421 108.622C242.065 108.668 241.754 109.163 241.421 109.462C241.444 109.6 241.478 109.75 241.501 109.888Z"
				fill="black" />
			<path
				d="M293.795 103.137C294.083 102.378 294.382 101.964 294.359 101.596C294.313 100.986 293.795 100.687 293.266 100.986C292.944 101.17 292.553 101.745 292.611 102.044C292.68 102.389 293.197 102.619 293.795 103.137Z"
				fill="black" />
			<path
				d="M89.6111 133.706C89.9906 133.027 90.4162 132.602 90.3702 132.257C90.3357 131.946 89.8181 131.532 89.4616 131.497C88.8406 131.44 88.4265 131.935 88.576 132.567C88.6566 132.924 89.0936 133.165 89.5996 133.706H89.6111Z"
				fill="black" />
			<path
				d="M208.207 113.522C208 113.913 207.655 114.292 207.609 114.706C207.528 115.385 208.092 115.615 208.598 115.442C208.943 115.327 209.38 114.81 209.391 114.488C209.391 114.143 208.943 113.809 208.69 113.464C208.529 113.476 208.379 113.499 208.218 113.51L208.207 113.522Z"
				fill="black" />
			<path
				d="M276.188 113.154C276.832 113.453 277.2 113.775 277.522 113.729C277.775 113.694 277.97 113.2 278.2 112.912C277.89 112.682 277.602 112.291 277.269 112.268C277.027 112.245 276.728 112.694 276.188 113.165V113.154Z"
				fill="black" />
			<path
				d="M149.909 133.223C150.277 132.682 150.496 132.36 150.703 132.05C150.358 131.82 150.047 131.486 149.668 131.394C149.53 131.36 149.024 131.935 149.07 132.13C149.139 132.475 149.507 132.728 149.909 133.223Z"
				fill="black" />
			<path
				d="M165.597 129.681C166.218 129.991 166.563 130.325 166.885 130.279C167.149 130.244 167.368 129.773 167.609 129.485C167.31 129.244 167.034 128.853 166.712 128.818C166.459 128.795 166.149 129.232 165.597 129.681Z"
				fill="black" />
			<path
				d="M233.98 119.733C234.325 119.871 234.704 120.17 235.003 120.089C235.268 120.02 235.452 119.537 235.67 119.238C235.348 119.031 235.038 118.675 234.693 118.663C234.463 118.652 234.175 119.089 233.922 119.33C233.945 119.468 233.957 119.606 233.98 119.744V119.733Z"
				fill="black" />
			<path
				d="M318.925 106.909C319.258 107.081 319.615 107.426 319.902 107.357C320.178 107.3 320.397 106.817 320.638 106.518C320.339 106.299 320.052 105.931 319.73 105.908C319.477 105.885 319.189 106.299 318.913 106.518C318.913 106.644 318.925 106.782 318.936 106.909H318.925Z"
				fill="black" />
			<path
				d="M285.745 110.601C285.4 111.153 284.986 111.544 285.043 111.751C285.147 112.073 285.55 112.406 285.883 112.464C286.079 112.498 286.585 111.946 286.562 111.716C286.539 111.394 286.136 111.118 285.734 110.601H285.745Z"
				fill="black" />
			<path
				d="M106.092 138.64C106.747 138.939 107.104 139.249 107.414 139.192C107.667 139.146 107.874 138.663 108.093 138.375C107.782 138.145 107.495 137.777 107.161 137.743C106.931 137.72 106.632 138.157 106.092 138.628V138.64Z"
				fill="black" />
			<path
				d="M123.101 136.006C123.734 136.34 124.067 136.673 124.412 136.65C124.665 136.639 124.907 136.167 125.148 135.891C124.861 135.638 124.596 135.235 124.286 135.201C124.021 135.166 123.699 135.581 123.113 136.006H123.101Z"
				fill="black" />
			<path
				d="M98.7313 138.605C98.4208 139.18 98.0413 139.583 98.1218 139.79C98.2368 140.1 98.6508 140.434 98.9728 140.468C99.1684 140.48 99.6514 139.916 99.6284 139.675C99.5939 139.353 99.1799 139.1 98.7313 138.605Z"
				fill="black" />
			<path
				d="M131.704 134.81C132.359 135.109 132.716 135.419 133.026 135.373C133.279 135.327 133.486 134.844 133.716 134.557C133.406 134.327 133.118 133.947 132.796 133.924C132.555 133.901 132.256 134.35 131.715 134.821L131.704 134.81Z"
				fill="black" />
			<path
				d="M217.695 120.779C217.419 121.377 217.074 121.791 217.166 121.998C217.304 122.309 217.729 122.608 218.051 122.619C218.247 122.619 218.707 122.033 218.649 121.803C218.58 121.481 218.166 121.251 217.695 120.779Z"
				fill="black" />
			<path
				d="M352.668 101.642C353.289 101.975 353.634 102.32 353.933 102.274C354.209 102.228 354.427 101.757 354.68 101.481C354.381 101.239 354.105 100.848 353.76 100.802C353.53 100.768 353.208 101.205 352.656 101.642H352.668Z"
				fill="black" />
			<path
				d="M335.692 104.184C336.325 104.506 336.658 104.839 336.98 104.805C337.233 104.782 337.463 104.31 337.705 104.034C337.417 103.793 337.141 103.39 336.819 103.355C336.566 103.321 336.256 103.747 335.692 104.184Z"
				fill="black" />
			<path
				d="M328.24 104.207C327.918 104.793 327.538 105.219 327.619 105.414C327.745 105.725 328.171 106.035 328.504 106.07C328.7 106.093 329.171 105.506 329.137 105.265C329.091 104.943 328.677 104.69 328.24 104.207Z"
				fill="black" />
			<path
				d="M293.14 110.624C293.795 110.911 294.163 111.233 294.485 111.176C294.75 111.13 294.957 110.635 295.187 110.348C294.865 110.129 294.566 109.761 294.221 109.738C293.968 109.727 293.68 110.164 293.14 110.624Z"
				fill="black" />
			<path
				d="M301.696 109.29C302.34 109.623 302.685 109.945 302.984 109.899C303.237 109.865 303.456 109.382 303.686 109.106C303.387 108.876 303.111 108.496 302.789 108.45C302.559 108.416 302.248 108.841 301.696 109.29Z"
				fill="black" />
			<path
				d="M310.23 108.082C310.874 108.358 311.242 108.669 311.553 108.611C311.806 108.565 312.001 108.071 312.231 107.783C311.921 107.565 311.622 107.197 311.288 107.174C311.047 107.162 310.759 107.611 310.23 108.082Z"
				fill="black" />
			<path
				d="M82.0206 143.424C82.3081 142.826 82.6647 142.389 82.5727 142.193C82.4346 141.883 81.9861 141.584 81.6526 141.572C81.4571 141.572 81.0086 142.182 81.0546 142.412C81.1236 142.734 81.5491 142.964 82.0206 143.424Z"
				fill="black" />
			<path
				d="M260.409 116.696C260.754 116.133 261.156 115.742 261.087 115.535C260.984 115.213 260.581 114.868 260.259 114.822C260.052 114.799 259.558 115.351 259.569 115.592C259.592 115.914 259.995 116.19 260.42 116.696H260.409Z"
				fill="black" />
			<path
				d="M90.4733 142.17C90.7953 141.584 91.1633 141.17 91.0943 140.963C90.9678 140.641 90.5538 140.319 90.2318 140.284C90.0363 140.261 89.5647 140.848 89.5877 141.089C89.6222 141.411 90.0363 141.664 90.4848 142.17H90.4733Z"
				fill="black" />
			<path
				d="M115.937 138.341C116.27 137.754 116.65 137.352 116.581 137.145C116.466 136.834 116.063 136.512 115.73 136.477C115.546 136.454 115.074 137.018 115.097 137.26C115.132 137.582 115.523 137.846 115.937 138.341Z"
				fill="black" />
			<path
				d="M345.48 103.953C345.79 103.378 346.181 102.964 346.101 102.757C345.974 102.447 345.537 102.136 345.215 102.125C344.997 102.125 344.502 102.688 344.548 102.895C344.617 103.229 345.031 103.47 345.48 103.953Z"
				fill="black" />
			<path
				d="M226.378 121.791C226.723 121.239 227.137 120.848 227.068 120.641C226.965 120.319 226.562 119.974 226.24 119.916C226.045 119.882 225.538 120.434 225.55 120.675C225.573 120.997 225.976 121.273 226.378 121.779V121.791Z"
				fill="black" />
			<path
				d="M209.506 124.31C209.828 123.735 210.231 123.298 210.15 123.114C210.012 122.803 209.564 122.493 209.23 122.493C209.012 122.493 208.529 123.079 208.575 123.298C208.644 123.62 209.069 123.861 209.518 124.321L209.506 124.31Z"
				fill="black" />
			<path
				d="M200.904 125.609C201.26 125.023 201.651 124.62 201.571 124.425C201.456 124.103 201.053 123.769 200.72 123.723C200.536 123.7 200.053 124.252 200.064 124.505C200.076 124.816 200.478 125.092 200.892 125.598L200.904 125.609Z"
				fill="black" />
			<path
				d="M192.186 124.609C191.91 125.195 191.554 125.632 191.646 125.839C191.784 126.15 192.232 126.437 192.577 126.437C192.773 126.437 193.221 125.816 193.164 125.598C193.083 125.276 192.658 125.057 192.186 124.609Z"
				fill="black" />
			<path
				d="M175.188 127.139C174.878 127.725 174.498 128.139 174.579 128.346C174.694 128.657 175.119 128.968 175.453 128.991C175.648 129.002 176.108 128.438 176.085 128.197C176.039 127.875 175.637 127.633 175.2 127.139H175.188Z"
				fill="black" />
			<path
				d="M157.189 130.957C157.833 131.267 158.19 131.589 158.5 131.543C158.742 131.509 158.937 131.026 159.156 130.738C158.857 130.508 158.581 130.14 158.259 130.106C158.017 130.083 157.718 130.508 157.178 130.957H157.189Z"
				fill="black" />
			<path
				d="M140.088 133.499C140.732 133.821 141.077 134.154 141.399 134.108C141.652 134.074 141.882 133.591 142.112 133.315C141.813 133.073 141.537 132.694 141.215 132.659C140.973 132.636 140.663 133.062 140.099 133.51L140.088 133.499Z"
				fill="black" />
			<path
				d="M182.687 127.219C183.342 127.495 183.71 127.806 184.021 127.737C184.274 127.679 184.446 127.173 184.665 126.874C184.343 126.667 184.044 126.311 183.71 126.288C183.48 126.276 183.204 126.725 182.698 127.219H182.687Z"
				fill="black" />
			<path
				d="M361.201 100.411C361.822 100.71 362.179 101.021 362.501 100.986C362.742 100.952 362.961 100.469 363.179 100.181C362.88 99.9511 362.593 99.5601 362.271 99.5371C362.018 99.5256 361.719 99.9626 361.201 100.411Z"
				fill="black" />
			<path
				d="M243.25 116.961C242.928 117.547 242.548 117.961 242.629 118.168C242.755 118.479 243.169 118.778 243.503 118.824C243.687 118.847 244.158 118.272 244.124 118.042C244.078 117.72 243.675 117.467 243.25 116.961Z"
				fill="black" />
			<path
				d="M250.691 116.869C251.312 117.225 251.657 117.57 251.967 117.547C252.22 117.524 252.462 117.041 252.715 116.765C252.427 116.524 252.163 116.121 251.829 116.075C251.576 116.041 251.254 116.443 250.679 116.857L250.691 116.869Z"
				fill="black" />
			<path
				d="M267.677 114.327C268.287 114.684 268.62 115.04 268.931 115.006C269.195 114.983 269.437 114.5 269.69 114.224C269.391 113.971 269.126 113.58 268.793 113.534C268.563 113.499 268.229 113.913 267.677 114.339V114.327Z"
				fill="black" />
			<path
				d="M319.776 115.477C320.213 115.719 320.489 116.018 320.742 115.983C320.995 115.949 321.213 115.581 321.443 115.362C321.202 115.121 320.972 114.707 320.707 114.695C320.466 114.695 320.19 115.109 319.787 115.477H319.776Z"
				fill="black" />
			<path
				d="M158.397 139.836C158.846 139.985 159.168 140.215 159.386 140.135C159.605 140.054 159.731 139.652 159.904 139.399C159.628 139.226 159.352 138.927 159.064 138.927C158.892 138.927 158.707 139.399 158.397 139.836Z"
				fill="black" />
			<path
				d="M90.2781 149.853C90.7151 150.106 91.0141 150.416 91.2212 150.359C91.4857 150.278 91.6697 149.887 91.8882 149.634C91.6582 149.439 91.4052 149.059 91.1867 149.094C90.9106 149.14 90.6691 149.508 90.2666 149.864L90.2781 149.853Z"
				fill="black" />
			<path
				d="M115.856 146.219C116.281 146.357 116.604 146.587 116.822 146.506C117.041 146.414 117.167 146.023 117.34 145.77C117.064 145.598 116.788 145.299 116.5 145.299C116.327 145.299 116.143 145.782 115.867 146.219H115.856Z"
				fill="black" />
			<path
				d="M124.332 144.781C124.746 145.011 125.045 145.322 125.252 145.264C125.516 145.184 125.712 144.804 125.93 144.551C125.666 144.356 125.401 144.045 125.114 144.022C124.918 144.022 124.677 144.425 124.332 144.781Z"
				fill="black" />
			<path
				d="M149.76 140.974C150.22 141.204 150.507 141.48 150.749 141.434C150.99 141.388 151.186 141.032 151.404 140.813C151.163 140.583 150.933 140.181 150.691 140.181C150.45 140.181 150.185 140.595 149.76 140.974Z"
				fill="black" />
			<path
				d="M209.322 132.107C209.794 132.303 210.104 132.567 210.369 132.51C210.576 132.475 210.725 132.05 210.898 131.797C210.633 131.613 210.38 131.291 210.104 131.279C209.909 131.279 209.69 131.705 209.322 132.107Z"
				fill="black" />
			<path
				d="M235.809 128.956C236.062 128.576 236.418 128.243 236.361 128.082C236.269 127.806 235.912 127.622 235.671 127.403C235.464 127.679 235.142 127.944 235.084 128.243C235.049 128.404 235.475 128.645 235.809 128.956Z"
				fill="black" />
			<path
				d="M269.678 122.067C269.414 122.504 269.069 122.826 269.115 123.021C269.172 123.286 269.54 123.585 269.805 123.608C269.989 123.619 270.414 123.136 270.38 122.964C270.322 122.676 269.989 122.446 269.667 122.067H269.678Z"
				fill="black" />
			<path
				d="M328.366 114.223C328.781 114.453 329.057 114.741 329.287 114.695C329.517 114.66 329.701 114.281 329.908 114.051C329.655 113.832 329.436 113.487 329.149 113.441C328.976 113.418 328.712 113.855 328.355 114.223H328.366Z"
				fill="black" />
			<path
				d="M192.566 134.753C192.842 134.868 193.141 135.144 193.371 135.075C193.601 135.006 193.75 134.615 193.946 134.362C193.67 134.166 193.417 133.833 193.129 133.821C192.853 133.821 192.566 134.155 192.278 134.339C192.37 134.477 192.474 134.615 192.566 134.753Z"
				fill="black" />
			<path
				d="M200.823 133.407C201.249 133.591 201.548 133.855 201.789 133.786C202.008 133.729 202.341 133.211 202.284 133.108C202.146 132.843 201.812 132.556 201.548 132.556C201.352 132.556 201.145 133.004 200.823 133.407Z"
				fill="black" />
			<path
				d="M243.376 127.036C243.813 127.22 244.112 127.484 244.342 127.427C244.572 127.358 244.733 126.967 244.917 126.725C244.653 126.53 244.388 126.208 244.101 126.196C243.917 126.196 243.698 126.645 243.376 127.036Z"
				fill="black" />
			<path
				d="M388.584 104.183C388.354 104.735 388.101 105.069 388.136 105.345C388.159 105.54 388.631 105.805 388.849 105.759C389.068 105.713 389.424 105.264 389.39 105.069C389.332 104.793 388.987 104.586 388.584 104.172V104.183Z"
				fill="black" />
			<path
				d="M311.38 116.788C311.828 117.007 312.139 117.306 312.346 117.225C312.587 117.133 312.875 116.754 312.886 116.489C312.886 116.305 312.438 115.926 312.265 115.972C311.989 116.041 311.771 116.397 311.38 116.788Z"
				fill="black" />
			<path
				d="M371.782 108.577C372.035 108.197 372.392 107.852 372.334 107.68C372.242 107.404 371.874 107.231 371.621 107.013C371.414 107.3 371.092 107.576 371.058 107.864C371.035 108.048 371.46 108.266 371.782 108.565V108.577Z"
				fill="black" />
			<path
				d="M336.935 112.958C337.326 113.177 337.602 113.464 337.832 113.418C338.062 113.372 338.246 112.981 338.441 112.751C338.188 112.533 337.958 112.199 337.682 112.153C337.521 112.13 337.268 112.579 336.935 112.958Z"
				fill="black" />
			<path
				d="M353.829 110.405C354.255 110.647 354.565 110.957 354.761 110.888C355.025 110.796 355.198 110.405 355.405 110.152C355.175 109.957 354.91 109.577 354.703 109.623C354.427 109.669 354.209 110.049 353.818 110.405H353.829Z"
				fill="black" />
			<path
				d="M363.191 108.048C362.915 108.531 362.57 108.899 362.639 109.071C362.754 109.324 363.133 109.531 363.432 109.577C363.57 109.6 363.961 109.106 363.915 108.956C363.835 108.669 363.524 108.45 363.191 108.059V108.048Z"
				fill="black" />
			<path
				d="M81.8018 151.222C82.2158 151.417 82.5148 151.682 82.7563 151.636C82.9748 151.59 83.1473 151.187 83.3314 150.946C83.0668 150.75 82.8138 150.405 82.5378 150.405C82.3423 150.405 82.1238 150.854 81.8018 151.233V151.222Z"
				fill="black" />
			<path
				d="M99.6968 147.518C99.4208 147.967 99.0758 148.3 99.1333 148.496C99.2023 148.76 99.5703 149.036 99.8463 149.082C99.9959 149.105 100.421 148.622 100.387 148.415C100.352 148.128 100.019 147.898 99.6968 147.518Z"
				fill="black" />
			<path
				d="M294.347 119.33C294.761 119.56 295.037 119.859 295.279 119.813C295.497 119.778 295.681 119.376 295.877 119.146C295.624 118.939 295.394 118.582 295.129 118.559C294.945 118.548 294.692 118.973 294.347 119.341V119.33Z"
				fill="black" />
			<path
				d="M277.349 121.814C277.786 122.078 278.085 122.4 278.281 122.343C278.545 122.262 278.729 121.883 278.948 121.63C278.729 121.423 278.488 121.043 278.281 121.066C278.016 121.101 277.763 121.457 277.361 121.814H277.349Z"
				fill="black" />
			<path
				d="M260.351 124.459C260.765 124.666 261.064 124.954 261.283 124.885C261.513 124.816 261.674 124.425 261.869 124.183C261.605 123.988 261.363 123.666 261.076 123.643C260.903 123.631 260.685 124.08 260.363 124.459H260.351Z"
				fill="black" />
			<path
				d="M166.792 138.49C167.218 138.686 167.517 138.95 167.759 138.893C167.977 138.847 168.138 138.444 168.322 138.203C168.058 138.007 167.805 137.674 167.54 137.662C167.345 137.662 167.126 138.099 166.804 138.49H166.792Z"
				fill="black" />
			<path
				d="M404.789 102.872C405.284 103.045 405.594 103.275 405.87 103.217C406.077 103.171 406.227 102.757 406.388 102.504C406.112 102.32 405.836 102.01 405.548 101.998C405.364 101.998 405.146 102.435 404.789 102.872Z"
				fill="black" />
			<path
				d="M226.32 129.519C226.711 129.738 226.987 130.049 227.206 129.991C227.447 129.934 227.631 129.554 227.838 129.324C227.585 129.105 227.367 128.772 227.079 128.726C226.907 128.703 226.654 129.14 226.32 129.519Z"
				fill="black" />
			<path
				d="M175.28 137.122C175.717 137.375 176.016 137.697 176.212 137.628C176.476 137.547 176.66 137.156 176.867 136.903C176.637 136.708 176.384 136.328 176.189 136.363C175.913 136.409 175.683 136.765 175.28 137.122Z"
				fill="black" />
			<path
				d="M414.22 100.365C413.932 100.837 413.599 101.17 413.656 101.366C413.737 101.63 414.082 101.86 414.369 101.952C414.473 101.987 414.898 101.515 414.864 101.354C414.806 101.055 414.53 100.814 414.22 100.365Z"
				fill="black" />
			<path
				d="M183.848 136.04C184.354 136.178 184.688 136.385 184.952 136.305C185.148 136.247 185.424 135.661 185.355 135.569C185.171 135.327 184.814 135.097 184.538 135.12C184.343 135.132 184.17 135.58 183.848 136.04Z"
				fill="black" />
			<path
				d="M397.314 102.849C396.98 103.401 396.716 103.689 396.658 103.999C396.635 104.149 397.049 104.505 397.233 104.482C397.486 104.448 397.889 104.114 397.889 103.93C397.889 103.643 397.601 103.355 397.302 102.849H397.314Z"
				fill="black" />
			<path
				d="M252.645 124.632C252.438 125.069 252.128 125.425 252.208 125.621C252.289 125.862 252.691 125.977 252.956 126.15C253.117 125.885 253.416 125.598 253.381 125.379C253.335 125.138 252.99 124.954 252.657 124.643L252.645 124.632Z"
				fill="black" />
			<path
				d="M141.353 142.308C141.756 142.504 142.055 142.768 142.273 142.711C142.503 142.642 142.664 142.262 142.848 142.009C142.584 141.814 142.342 141.492 142.055 141.469C141.894 141.457 141.675 141.906 141.353 142.308Z"
				fill="black" />
			<path
				d="M133.912 144.241C134.142 143.804 134.452 143.447 134.372 143.275C134.268 143.01 133.889 142.884 133.636 142.688C133.463 142.964 133.164 143.252 133.176 143.493C133.187 143.712 133.567 143.896 133.912 144.229V144.241Z"
				fill="black" />
			<path
				d="M285.756 120.618C286.216 120.837 286.504 121.101 286.745 121.055C286.964 121.009 287.297 120.595 287.274 120.399C287.24 120.158 286.849 119.767 286.688 119.801C286.4 119.87 286.17 120.227 285.756 120.618Z"
				fill="black" />
			<path
				d="M108.242 148.093C108.495 147.656 108.817 147.323 108.76 147.15C108.656 146.886 108.3 146.725 108.047 146.529C107.863 146.794 107.552 147.058 107.552 147.311C107.552 147.541 107.909 147.737 108.242 148.093Z"
				fill="black" />
			<path
				d="M302.881 118.018C303.283 118.249 303.548 118.548 303.778 118.502C304.019 118.456 304.215 118.088 304.422 117.869C304.18 117.65 303.962 117.282 303.686 117.248C303.502 117.225 303.237 117.65 302.881 118.018Z"
				fill="black" />
			<path
				d="M380.269 107.358C380.545 106.921 380.879 106.599 380.821 106.426C380.741 106.15 380.384 105.978 380.143 105.759C379.959 106.012 379.625 106.277 379.614 106.53C379.614 106.76 379.947 106.99 380.269 107.369V107.358Z"
				fill="black" />
			<path
				d="M346.147 110.624C345.882 111.038 345.571 111.325 345.594 111.567C345.617 111.808 345.974 112.004 346.181 112.211C346.4 111.958 346.756 111.716 346.814 111.44C346.848 111.245 346.457 110.98 346.147 110.624Z"
				fill="black" />
			<path
				d="M218.845 131.532C219.098 131.107 219.42 130.773 219.351 130.601C219.259 130.325 218.902 130.164 218.661 129.957C218.477 130.221 218.155 130.486 218.155 130.739C218.155 130.969 218.511 131.176 218.845 131.544V131.532Z"
				fill="black" />
			<path
				d="M186.567 205.312V163.312L196.311 161.942V167.222L192.651 167.737V199.177L196.311 198.662V203.942L186.567 205.312ZM199.473 197.258V163.658L207.268 162.562L216.965 186.304L226.662 159.837L234.457 158.741V192.341L228.23 193.216V170.656L227.993 170.69L219.342 194.466L214.589 195.134L205.89 173.796L205.7 173.823V196.383L199.473 197.258ZM237.863 191.863V158.263L260.156 155.13V160.65L244.09 162.908V171.452L258.73 169.394V174.338L244.09 176.396V185.468L260.632 183.143V188.663L237.863 191.863ZM262.606 188.385V154.785L269.166 153.863L283.711 175.387L283.854 175.367V151.799L290.128 150.917V184.517L283.283 185.479L268.976 164.306L268.833 164.326V187.51L262.606 188.385ZM306.743 182.662C298.662 183.798 293.291 180.137 293.291 171.353V150.473L299.565 149.591V169.991C299.565 175.367 302.227 177.777 306.743 177.142C311.258 176.508 313.873 173.356 313.873 167.98V147.58L320.195 146.692V167.572C320.195 176.356 314.728 181.54 306.743 182.662ZM333.163 184.709L323.419 186.079V180.799L327.079 180.284V148.844L323.419 149.359V144.079L333.163 142.709V184.709Z"
				fill="black" />
			<path
				d="M113.109 141.956C109.725 141.956 106.437 139.556 106.437 133.316C106.437 127.124 109.725 124.7 113.109 124.7C116.493 124.7 119.781 127.124 119.781 133.316C119.781 139.556 116.493 141.956 113.109 141.956ZM113.109 139.364C115.749 139.364 116.829 136.652 116.829 133.316C116.829 130.028 115.749 127.292 113.109 127.292C110.445 127.292 109.365 130.028 109.365 133.316C109.365 136.652 110.445 139.364 113.109 139.364ZM124.027 141.716V128.732C123.187 129.62 121.867 129.98 120.547 130.004V127.484C122.323 127.292 123.547 126.476 124.027 124.916H127.099V141.716H124.027Z"
				fill="black" />
		</g>
		<path d="M112 102H408.501C425.622 102 439.501 115.879 439.501 133V265.433H81V133C81 115.879 94.8792 102 112 102Z"
			stroke="black" stroke-width="2" />
		<mask id="mask0_2586_2" style="mask-type:luminance" maskUnits="userSpaceOnUse" x="-286" y="-167" width="2582"
			height="652">
			<path d="M2295.88 -167L-283.294 265.631L-286 484.195L2295.88 91.5121V-167Z" fill="white" />
		</mask>
		<g mask="url(#mask0_2586_2)">
			<path d="M31.6199 315.866L-12.179 322.221L-12.8657 279.687L30.9198 273.332L31.6199 315.866Z" fill="#D33E27" />
			<path d="M75.4056 309.497L31.62 315.866L30.9199 273.332L74.7189 266.977L75.4056 309.497Z" fill="#F3E7D3" />
			<path d="M119.191 303.142L75.4054 309.497L74.7188 266.977L118.504 260.622L119.191 303.142Z" fill="#D33E27" />
			<path d="M161.98 296.827L119.191 303.034L118.518 261.484L161.293 255.277L161.98 296.827Z" fill="#F3E7D3" />
			<path d="M204.756 290.607L161.98 296.827L161.293 255.277L204.083 249.07L204.756 290.607Z" fill="#D33E27" />
			<path d="M247.531 284.4L204.756 290.607L204.083 249.07L246.858 242.863L247.531 284.4Z" fill="#F3E7D3" />
			<path d="M290.307 278.193L247.532 284.4L246.858 242.863L289.634 236.643L290.307 278.193Z" fill="#D33E27" />
			<path d="M333.083 271.986L290.307 278.193L289.634 236.643L332.409 230.436L333.083 271.986Z" fill="#F3E7D3" />
			<path d="M375.872 265.766L333.083 271.986L332.41 230.435L375.199 224.229L375.872 265.766Z" fill="#D33E27" />
			<path d="M418.648 259.558L375.872 265.765L375.199 224.228L417.974 218.021L418.648 259.558Z" fill="#F3E7D3" />
			<path d="M461.424 253.351L418.648 259.558L417.975 218.021L460.75 211.801L461.424 253.351Z" fill="#D33E27" />
			<path d="M502.583 247.373L459.807 253.58L459.134 212.043L501.91 205.836L502.583 247.373Z" fill="#F3E7D3" />
			<path d="M545.359 241.166L502.583 247.373L501.91 205.836L544.686 199.616L545.359 241.166Z" fill="#D33E27" />
			<path d="M588.134 234.959L545.359 241.166L544.686 199.616L587.461 193.409L588.134 234.959Z" fill="#F3E7D3" />
			<path d="M630.924 228.753L588.135 234.96L587.461 193.409L630.237 187.202L630.924 228.753Z" fill="#D33E27" />
			<path d="M673.7 222.532L630.924 228.753L630.237 187.202L673.026 180.995L673.7 222.532Z" fill="#F3E7D3" />
			<path d="M716.475 216.325L673.7 222.532L673.026 180.995L715.802 174.788L716.475 216.325Z" fill="#D33E27" />
			<path d="M759.251 210.118L716.475 216.325L715.802 174.788L758.577 168.568L759.251 210.118Z" fill="#F3E7D3" />
			<path d="M802.04 203.911L759.251 210.118L758.578 168.568L801.353 162.361L802.04 203.911Z" fill="#D33E27" />
			<path d="M844.816 197.691L802.04 203.911L801.354 162.361L844.143 156.154L844.816 197.691Z" fill="#F3E7D3" />
			<path d="M887.591 191.484L844.816 197.691L844.143 156.154L886.918 149.947L887.591 191.484Z" fill="#D33E27" />
			<path d="M930.367 185.277L887.591 191.484L886.918 149.947L929.694 143.726L930.367 185.277Z" fill="#F3E7D3" />
			<path d="M973.143 179.07L930.367 185.277L929.694 143.726L972.47 137.519L973.143 179.07Z" fill="#D33E27" />
			<path d="M1015.93 172.849L973.143 179.07L972.47 137.519L1015.26 131.312L1015.93 172.849Z" fill="#F3E7D3" />
			<path d="M1058.71 166.642L1015.93 172.849L1015.26 131.312L1058.03 125.105L1058.71 166.642Z" fill="#D33E27" />
			<path d="M1101.48 160.435L1058.71 166.642L1058.03 125.105L1100.81 118.885L1101.48 160.435Z" fill="#F3E7D3" />
			<path d="M1144.26 154.228L1101.48 160.435L1100.81 118.885L1143.59 112.678L1144.26 154.228Z" fill="#D33E27" />
			<path d="M31.4183 357.766L-12.3672 364.121L-13.0674 321.588L30.7316 315.233L31.4183 357.766Z" fill="#F3E7D3" />
			<path d="M75.2171 351.411L31.4181 357.766L30.7314 315.233L74.517 308.878L75.2171 351.411Z" fill="#D33E27" />
			<path d="M119.002 345.056L75.2167 351.411L74.5166 308.878L118.316 302.523L119.002 345.056Z" fill="#F3E7D3" />
			<path d="M162.788 338.687L119.003 345.056L118.316 302.523L162.101 296.168L162.788 338.687Z" fill="#D33E27" />
			<path d="M205.564 332.373L162.788 338.58L162.115 297.029L204.89 290.822L205.564 332.373Z" fill="#F3E7D3" />
			<path d="M248.353 326.166L205.564 332.373L204.891 290.822L247.666 284.615L248.353 326.166Z" fill="#D33E27" />
			<path d="M291.128 319.945L248.353 326.166L247.666 284.615L290.455 278.408L291.128 319.945Z" fill="#F3E7D3" />
			<path d="M333.904 313.738L291.128 319.945L290.455 278.408L333.231 272.201L333.904 313.738Z" fill="#D33E27" />
			<path d="M376.68 307.531L333.904 313.738L333.231 272.201L376.007 265.981L376.68 307.531Z" fill="#F3E7D3" />
			<path d="M419.469 301.324L376.68 307.531L376.007 265.981L418.782 259.774L419.469 301.324Z" fill="#D33E27" />
			<path d="M462.245 295.104L419.469 301.324L418.782 259.774L461.571 253.567L462.245 295.104Z" fill="#F3E7D3" />
			<path d="M505.02 288.897L462.244 295.104L461.571 253.567L504.347 247.36L505.02 288.897Z" fill="#D33E27" />
			<path d="M546.18 282.919L503.404 289.139L502.718 247.589L545.507 241.382L546.18 282.919Z" fill="#F3E7D3" />
			<path d="M588.956 276.712L546.18 282.919L545.507 241.382L588.283 235.175L588.956 276.712Z" fill="#D33E27" />
			<path d="M631.732 270.505L588.956 276.712L588.283 235.175L631.058 228.955L631.732 270.505Z" fill="#F3E7D3" />
			<path d="M674.507 264.298L631.732 270.505L631.059 228.955L673.834 222.748L674.507 264.298Z" fill="#D33E27" />
			<path d="M717.296 258.078L674.507 264.298L673.834 222.748L716.623 216.541L717.296 258.078Z" fill="#F3E7D3" />
			<path d="M760.072 251.87L717.296 258.077L716.623 216.54L759.399 210.333L760.072 251.87Z" fill="#D33E27" />
			<path d="M802.848 245.663L760.072 251.87L759.399 210.333L802.175 204.113L802.848 245.663Z" fill="#F3E7D3" />
			<path d="M845.624 239.456L802.848 245.663L802.175 204.113L844.95 197.906L845.624 239.456Z" fill="#D33E27" />
			<path d="M888.413 233.25L845.623 239.457L844.95 197.906L887.726 191.699L888.413 233.25Z" fill="#F3E7D3" />
			<path d="M931.188 227.029L888.412 233.25L887.726 191.699L930.515 185.492L931.188 227.029Z" fill="#D33E27" />
			<path d="M973.964 220.822L931.188 227.029L930.515 185.492L973.291 179.285L973.964 220.822Z" fill="#F3E7D3" />
			<path d="M1016.74 214.615L973.964 220.822L973.291 179.285L1016.07 173.065L1016.74 214.615Z" fill="#D33E27" />
			<path d="M1059.53 208.408L1016.74 214.615L1016.07 173.065L1058.84 166.858L1059.53 208.408Z" fill="#F3E7D3" />
			<path d="M1102.3 202.188L1059.53 208.408L1058.84 166.858L1101.63 160.651L1102.3 202.188Z" fill="#D33E27" />
			<path d="M1145.08 195.981L1102.3 202.188L1101.63 160.651L1144.41 154.444L1145.08 195.981Z" fill="#F3E7D3" />
			<path d="M1188.26 148.237L1144.47 154.592L1143.79 112.058L1187.57 105.703L1188.26 148.237Z" fill="#F3E7D3" />
			<path d="M1188.91 190.232L1145.12 196.587L1144.42 154.067L1188.22 147.698L1188.91 190.232Z" fill="#D33E27" />
			<path d="M1233.42 143.511L1189.63 149.866L1188.93 107.346L1232.73 100.991L1233.42 143.511Z" fill="#D33E27" />
			<path d="M1277.22 137.156L1233.42 143.511L1232.73 100.991L1276.52 94.6357L1277.22 137.156Z" fill="#F3E7D3" />
			<path d="M1321 130.801L1277.22 137.156L1276.52 94.6359L1320.32 88.2808L1321 130.801Z" fill="#D33E27" />
			<path d="M1364.79 124.445L1321 130.801L1320.32 88.2807L1364.1 81.9121L1364.79 124.445Z" fill="#F3E7D3" />
			<path d="M1408.59 118.09L1364.79 124.446L1364.1 81.9122L1407.89 75.5571L1408.59 118.09Z" fill="#D33E27" />
			<path d="M1452.37 111.735L1408.59 118.09L1407.89 75.557L1451.69 69.2019L1452.37 111.735Z" fill="#F3E7D3" />
			<path d="M1496.17 105.367L1452.37 111.735L1451.69 69.202L1495.47 62.8469L1496.17 105.367Z" fill="#D33E27" />
			<path d="M1538.3 99.254L1494.5 105.609L1493.82 63.0892L1537.6 56.7341L1538.3 99.254Z" fill="#F3E7D3" />
			<path d="M1582.09 92.899L1538.3 99.2541L1537.6 56.7342L1581.4 50.3792L1582.09 92.899Z" fill="#D33E27" />
			<path d="M1625.87 86.5438L1582.09 92.8989L1581.4 50.379L1625.19 44.0105L1625.87 86.5438Z" fill="#F3E7D3" />
			<path d="M1669.67 80.1888L1625.87 86.5439L1625.19 44.0106L1668.98 37.6555L1669.67 80.1888Z" fill="#D33E27" />
			<path d="M1713.46 73.8336L1669.67 80.1887L1668.98 37.6554L1712.77 31.3003L1713.46 73.8336Z" fill="#F3E7D3" />
			<path d="M1757.26 67.4786L1713.46 73.8337L1712.77 31.3004L1756.56 24.9453L1757.26 67.4786Z" fill="#D33E27" />
			<path d="M1801.04 61.11L1757.26 67.4785L1756.56 24.9452L1800.35 18.5901L1801.04 61.11Z" fill="#F3E7D3" />
			<path d="M1844.84 54.755L1801.04 61.1101L1800.35 18.5902L1844.14 12.2351L1844.84 54.755Z" fill="#D33E27" />
			<path d="M1887.62 48.4403L1844.83 54.6473L1844.15 13.0969L1886.93 6.88989L1887.62 48.4403Z" fill="#F3E7D3" />
			<path d="M1930.39 42.2198L1887.62 48.4403L1886.93 6.88984L1929.72 0.682861L1930.39 42.2198Z" fill="#D33E27" />
			<path d="M1233.23 185.425L1189.43 191.78L1188.74 149.246L1232.53 142.891L1233.23 185.425Z" fill="#F3E7D3" />
			<path d="M1277.02 179.07L1233.23 185.425L1232.53 142.891L1276.33 136.536L1277.02 179.07Z" fill="#D33E27" />
			<path d="M1320.8 172.701L1277.02 179.07L1276.33 136.536L1320.11 130.181L1320.8 172.701Z" fill="#F3E7D3" />
			<path d="M1364.6 166.346L1320.8 172.701L1320.11 130.181L1363.9 123.826L1364.6 166.346Z" fill="#D33E27" />
			<path d="M1408.39 159.991L1364.6 166.346L1363.9 123.826L1407.7 117.471L1408.39 159.991Z" fill="#F3E7D3" />
			<path d="M1452.18 153.636L1408.39 159.991L1407.7 117.471L1451.48 111.103L1452.18 153.636Z" fill="#D33E27" />
			<path d="M1495.97 147.281L1452.18 153.636L1451.48 111.103L1495.28 104.748L1495.97 147.281Z" fill="#F3E7D3" />
			<path d="M1539.76 140.926L1495.97 147.281L1495.28 104.747L1539.07 98.3923L1539.76 140.926Z" fill="#D33E27" />
			<path d="M1581.9 134.799L1538.1 141.168L1537.41 98.6346L1581.2 92.2795L1581.9 134.799Z" fill="#F3E7D3" />
			<path d="M1625.68 128.444L1581.9 134.799L1581.2 92.2797L1625 85.9246L1625.68 128.444Z" fill="#D33E27" />
			<path d="M1669.47 122.089L1625.68 128.444L1625 85.9244L1668.78 79.5693L1669.47 122.089Z" fill="#F3E7D3" />
			<path d="M1713.27 115.734L1669.47 122.089L1668.78 79.5695L1712.57 73.2009L1713.27 115.734Z" fill="#D33E27" />
			<path d="M1757.05 109.379L1713.27 115.734L1712.57 73.2008L1756.37 66.8457L1757.05 109.379Z" fill="#F3E7D3" />
			<path d="M1800.85 103.024L1757.05 109.379L1756.37 66.8458L1800.15 60.4907L1800.85 103.024Z" fill="#D33E27" />
			<path d="M1844.64 96.6691L1800.85 103.024L1800.15 60.4908L1843.95 54.1357L1844.64 96.6691Z" fill="#F3E7D3" />
			<path d="M1888.42 90.3004L1844.64 96.6689L1843.95 54.1356L1887.74 47.7805L1888.42 90.3004Z" fill="#D33E27" />
			<path d="M1931.2 83.9857L1888.42 90.1927L1887.75 48.6423L1930.53 42.4353L1931.2 83.9857Z" fill="#F3E7D3" />
		</g>
		<path fill-rule="evenodd" clip-rule="evenodd"
			d="M2117.94 -25.4876L-272.619 317.176L-273.045 314.206L2117.52 -28.4573L2117.94 -25.4876Z" fill="black" />
		<path fill-rule="evenodd" clip-rule="evenodd"
			d="M2117.95 16.2511L-271.272 360.261L-271.699 357.291L2117.52 13.2817L2117.95 16.2511Z" fill="black" />
		<path fill-rule="evenodd" clip-rule="evenodd"
			d="M2117.95 59.3362L-267.232 403.346L-267.661 400.377L2117.52 56.3669L2117.95 59.3362Z" fill="black" />
		<path
			d="M1830.13 373H1021.87C1009.62 373 1008.34 354.926 1020.47 353.169L1828.73 236.103C1834.68 235.241 1840 239.901 1840 245.968V363.034C1840 368.538 1835.58 373 1830.13 373Z"
			fill="#F3E7D3" />
		<path
			d="M1613.16 349.2V314.2H1621.36V318.6H1618.28V344.8H1621.36V349.2H1613.16ZM1634.86 344.4C1627.74 344.4 1623.42 340.96 1623.42 335.12H1628.82C1628.98 337.84 1630.74 340 1634.9 340C1638.5 340 1640.38 338.48 1640.38 335.92C1640.38 333.68 1638.82 332.64 1636.1 332.12L1632.18 331.36C1627.62 330.48 1624.18 328.36 1624.18 323.56C1624.18 318.44 1628.26 315.64 1634.5 315.64C1640.82 315.64 1645.18 318.56 1645.18 323.92H1639.78C1639.78 321.4 1637.7 320.04 1634.58 320.04C1631.02 320.04 1629.7 321.8 1629.7 323.72C1629.7 325.28 1630.58 326.76 1633.38 327.28L1637.1 328C1643.26 329.16 1645.94 331.56 1645.94 335.92C1645.94 341.68 1641.22 344.4 1634.86 344.4ZM1648.05 344V316H1659.05C1666.25 316 1669.53 319.72 1669.53 325.16C1669.53 330.56 1666.25 334.28 1659.05 334.28H1653.29V344H1648.05ZM1653.29 329.68H1658.85C1662.45 329.68 1664.09 327.96 1664.09 325.16C1664.09 322.32 1662.45 320.6 1658.85 320.6H1653.29V329.68ZM1671.21 344V316H1689.97V320.6H1676.45V327.72H1688.77V331.84H1676.45V339.4H1690.37V344H1671.21ZM1704.35 344.4C1696.55 344.4 1691.43 339.16 1691.43 330C1691.43 320.88 1696.55 315.64 1704.35 315.64C1710.47 315.64 1715.27 318.68 1715.91 325.32H1710.79C1709.87 321.76 1707.55 320.2 1704.35 320.2C1699.27 320.2 1696.83 324.16 1696.83 330C1696.83 335.84 1699.19 339.84 1704.35 339.84C1707.47 339.84 1709.87 338.28 1710.79 334.68H1715.91C1715.27 341.36 1710.47 344.4 1704.35 344.4ZM1717.66 344V316H1722.9V344H1717.66ZM1745.91 344L1743.91 338.28H1731.71L1729.71 344H1724.19L1734.47 316H1741.19L1751.47 344H1745.91ZM1733.11 334.36H1742.55L1737.99 321.4H1737.67L1733.11 334.36ZM1752.74 344V316H1757.98V339.4H1771.26V344H1752.74ZM1783.78 344.4C1776.66 344.4 1772.34 340.96 1772.34 335.12H1777.74C1777.9 337.84 1779.66 340 1783.82 340C1787.42 340 1789.3 338.48 1789.3 335.92C1789.3 333.68 1787.74 332.64 1785.02 332.12L1781.1 331.36C1776.54 330.48 1773.1 328.36 1773.1 323.56C1773.1 318.44 1777.18 315.64 1783.42 315.64C1789.74 315.64 1794.1 318.56 1794.1 323.92H1788.7C1788.7 321.4 1786.62 320.04 1783.5 320.04C1779.94 320.04 1778.62 321.8 1778.62 323.72C1778.62 325.28 1779.5 326.76 1782.3 327.28L1786.02 328C1792.18 329.16 1794.86 331.56 1794.86 335.92C1794.86 341.68 1790.14 344.4 1783.78 344.4ZM1805.16 349.2H1796.96V344.8H1800.04V318.6H1796.96V314.2H1805.16V349.2Z"
			fill="black" />
	</g>
	<defs>
		<clipPath id="clip0_2586_2">
			<rect width="1920" height="373" fill="white" />
		</clipPath>
		<clipPath id="clip1_2586_2">
			<path d="M80 133C80 115.327 94.3269 101 112 101H408.501C426.174 101 440.501 115.327 440.501 133V266.433H80V133Z"
				fill="white" />
		</clipPath>
	</defs>
</svg>