<?xml version="1.0" encoding="UTF-8"?><svg id="Layer_1" xmlns="http://www.w3.org/2000/svg" viewBox="0 0 118.39 52.2"><defs><style>.cls-1{fill:#231f20;}.cls-2{fill:none;stroke:#231f20;stroke-linecap:round;stroke-miterlimit:10;stroke-width:.87px;}</style></defs><g id="Layer_5"><polygon class="cls-1" points="37.27 19.15 36.65 20.9 37.21 22.64 37.4 24.38 37.29 26.12 36.81 27.87 36.6 29.62 36.58 31.37 36.69 33.12 37.14 34.87 37.11 36.62 36.65 38.31 36.12 39.95 35.19 41.41 34.47 42.94 33.85 44.57 32.84 46 31.84 47.5 30.11 48.13 28.52 48.81 27.14 49.89 25.45 50.26 23.88 51.18 22.09 50.85 20.36 51.55 20.37 51.38 18.62 51.39 17.03 50.48 15.4 50.04 13.57 50.13 12.21 48.94 10.43 48.62 9.45 47 7.69 46.49 6.48 45.26 5.75 43.63 4.13 42.72 3.73 40.94 2.29 39.78 2.12 37.98 1.58 36.37 1.41 34.67 .87 33.05 .61 31.36 .61 29.73 .6 28.1 .62 26.46 .62 24.83 .44 23.2 1 21.58 .97 19.95 .77 18.3 .85 16.55 1.21 14.83 1.74 13.16 2.26 11.49 2.86 9.82 4.17 8.58 5.15 7.15 6.24 5.77 7.86 5.01 8.88 3.37 10.69 3.02 12.4 2.63 13.99 1.9 15.7 1.59 17.4 .89 19.17 1.66 20.98 .87 22.64 1.74 24.47 1.71 25.9 2.93 27.66 3.27 29.41 3.81 30.62 5.18 32.03 6.26 32.98 7.78 34.37 8.95 34.78 10.75 35.72 12.24 36.23 13.93 36.87 15.6 37.04 17.38 37.27 19.15"/><polygon class="cls-2" points="37.27 19.15 36.65 20.9 37.21 22.64 37.4 24.38 37.29 26.12 36.81 27.87 36.6 29.62 36.58 31.37 36.69 33.12 37.14 34.87 37.11 36.62 36.65 38.31 36.12 39.95 35.19 41.41 34.47 42.94 33.85 44.57 32.84 46 31.84 47.5 30.11 48.13 28.52 48.81 27.14 49.89 25.45 50.26 23.88 51.18 22.09 50.85 20.36 51.55 20.37 51.38 18.62 51.39 17.03 50.48 15.4 50.04 13.57 50.13 12.21 48.94 10.43 48.62 9.45 47 7.69 46.49 6.48 45.26 5.75 43.63 4.13 42.72 3.73 40.94 2.29 39.78 2.12 37.98 1.58 36.37 1.41 34.67 .87 33.05 .61 31.36 .61 29.73 .6 28.1 .62 26.46 .62 24.83 .44 23.2 1 21.58 .97 19.95 .77 18.3 .85 16.55 1.21 14.83 1.74 13.16 2.26 11.49 2.86 9.82 4.17 8.58 5.15 7.15 6.24 5.77 7.86 5.01 8.88 3.37 10.69 3.02 12.4 2.63 13.99 1.9 15.7 1.59 17.4 .89 19.17 1.66 20.98 .87 22.64 1.74 24.47 1.71 25.9 2.93 27.66 3.27 29.41 3.81 30.62 5.18 32.03 6.26 32.98 7.78 34.37 8.95 34.78 10.75 35.72 12.24 36.23 13.93 36.87 15.6 37.04 17.38 37.27 19.15"/><polygon class="cls-1" points="117.82 18.76 117.2 20.51 117.77 22.25 117.96 23.99 117.84 25.73 117.36 27.49 117.15 29.23 117.13 30.98 117.24 32.73 117.69 34.48 117.66 36.23 117.2 37.92 116.67 39.56 115.74 41.02 115.02 42.55 114.4 44.19 113.4 45.61 112.4 47.11 110.66 47.74 109.07 48.42 107.69 49.5 106 49.88 104.43 50.79 102.64 50.46 100.91 51.16 100.92 50.99 99.18 51 97.58 50.09 95.95 49.66 94.12 49.74 92.77 48.55 90.99 48.23 90 46.61 88.24 46.1 87.04 44.87 86.3 43.24 84.68 42.34 84.28 40.56 82.84 39.39 82.67 37.59 82.14 35.98 81.96 34.28 81.42 32.66 81.17 30.97 81.16 29.34 81.15 27.71 81.18 26.08 81.17 24.45 81 22.81 81.55 21.19 81.52 19.56 81.32 17.92 81.4 16.16 81.76 14.44 82.29 12.77 82.82 11.1 83.42 9.44 84.72 8.19 85.7 6.76 86.79 5.38 88.41 4.62 89.43 2.98 91.24 2.63 92.95 2.24 94.54 1.51 96.26 1.2 97.96 .5 99.72 1.28 101.54 .48 103.19 1.35 105.02 1.32 106.45 2.54 108.21 2.88 109.96 3.42 111.18 4.79 112.59 5.87 113.53 7.39 114.92 8.57 115.33 10.36 116.27 11.86 116.78 13.54 117.42 15.21 117.59 16.99 117.82 18.76"/><polygon class="cls-2" points="117.82 18.76 117.2 20.51 117.77 22.25 117.96 23.99 117.84 25.73 117.36 27.49 117.15 29.23 117.13 30.98 117.24 32.73 117.69 34.48 117.66 36.23 117.2 37.92 116.67 39.56 115.74 41.02 115.02 42.55 114.4 44.19 113.4 45.61 112.4 47.11 110.66 47.74 109.07 48.42 107.69 49.5 106 49.88 104.43 50.79 102.64 50.46 100.91 51.16 100.92 50.99 99.18 51 97.58 50.09 95.95 49.66 94.12 49.74 92.77 48.55 90.99 48.23 90 46.61 88.24 46.1 87.04 44.87 86.3 43.24 84.68 42.34 84.28 40.56 82.84 39.39 82.67 37.59 82.14 35.98 81.96 34.28 81.42 32.66 81.17 30.97 81.16 29.34 81.15 27.71 81.18 26.08 81.17 24.45 81 22.81 81.55 21.19 81.52 19.56 81.32 17.92 81.4 16.16 81.76 14.44 82.29 12.77 82.82 11.1 83.42 9.44 84.72 8.19 85.7 6.76 86.79 5.38 88.41 4.62 89.43 2.98 91.24 2.63 92.95 2.24 94.54 1.51 96.26 1.2 97.96 .5 99.72 1.28 101.54 .48 103.19 1.35 105.02 1.32 106.45 2.54 108.21 2.88 109.96 3.42 111.18 4.79 112.59 5.87 113.53 7.39 114.92 8.57 115.33 10.36 116.27 11.86 116.78 13.54 117.42 15.21 117.59 16.99 117.82 18.76"/></g></svg>