<svg width="102" height="34" viewBox="0 0 102 34" fill="none" xmlns="http://www.w3.org/2000/svg">
	<path d="M4.5 1H1V33H4.5" stroke="#F89A1C" stroke-width="2" />
	<path
		d="M13.412 15H9.508V3.416H13.78C14.6973 3.416 15.4067 3.544 15.908 3.8C16.42 4.04533 16.7773 4.38133 16.98 4.808C17.1827 5.23467 17.284 5.71467 17.284 6.248C17.284 6.77067 17.1827 7.21333 16.98 7.576C16.7773 7.93867 16.5107 8.232 16.18 8.456C15.8493 8.68 15.4867 8.84533 15.092 8.952V8.984C16.02 9.09067 16.6973 9.38933 17.124 9.88C17.5613 10.3707 17.78 11.016 17.78 11.816C17.78 12.6053 17.588 13.2347 17.204 13.704C16.8307 14.1627 16.3133 14.4933 15.652 14.696C15.0013 14.8987 14.2547 15 13.412 15ZM11.972 5.208V8.264H12.564C12.948 8.264 13.316 8.22667 13.668 8.152C14.02 8.06667 14.308 7.90667 14.532 7.672C14.756 7.43733 14.868 7.096 14.868 6.648C14.868 6.18933 14.772 5.85867 14.58 5.656C14.3987 5.45333 14.1427 5.33067 13.812 5.288C13.4813 5.23467 13.108 5.208 12.692 5.208H11.972ZM11.972 10.008V13.224H12.916C13.364 13.224 13.7533 13.1867 14.084 13.112C14.4253 13.0267 14.6867 12.872 14.868 12.648C15.06 12.4133 15.156 12.072 15.156 11.624C15.156 11.144 15.0493 10.792 14.836 10.568C14.6333 10.3333 14.3613 10.184 14.02 10.12C13.6787 10.0453 13.3053 10.008 12.9 10.008H11.972ZM18.6459 3.416H21.1259V11.288C21.1259 12.0347 21.2592 12.552 21.5259 12.84C21.7925 13.1173 22.2139 13.256 22.7899 13.256C23.2912 13.256 23.6805 13.1173 23.9579 12.84C24.2352 12.552 24.3739 12.0347 24.3739 11.288V3.416H26.8379V11.192C26.8379 12.2053 26.6512 13.0053 26.2779 13.592C25.9045 14.168 25.4032 14.5787 24.7739 14.824C24.1552 15.0693 23.4672 15.192 22.7099 15.192C21.3552 15.192 20.3365 14.84 19.6539 14.136C18.9819 13.432 18.6459 12.4293 18.6459 11.128V3.416ZM35.7197 3.416V5.208H33.2717V13.208H35.7197V15H28.3277V13.208H30.8077V5.208H28.3277V3.416H35.7197ZM45.5456 15H37.7856V3.416H40.2496V12.968H45.5456V15ZM49.8835 15H46.6035V3.416H50.1555C51.2648 3.416 52.1662 3.64533 52.8595 4.104C53.5528 4.552 54.0595 5.19733 54.3795 6.04C54.7102 6.88267 54.8755 7.88 54.8755 9.032C54.8755 10.216 54.6995 11.256 54.3475 12.152C53.9955 13.048 53.4515 13.7467 52.7155 14.248C51.9795 14.7493 51.0355 15 49.8835 15ZM49.0835 5.304V13.112H49.7875C50.4382 13.112 50.9502 12.952 51.3235 12.632C51.6968 12.312 51.9582 11.8587 52.1075 11.272C52.2675 10.6853 52.3475 9.98667 52.3475 9.176C52.3475 8.19467 52.2568 7.42133 52.0755 6.856C51.9048 6.29067 51.6382 5.89067 51.2755 5.656C50.9235 5.42133 50.4808 5.304 49.9475 5.304H49.0835ZM63.5654 3.416V5.208H61.1174V13.208H63.5654V15H56.1734V13.208H58.6534V5.208H56.1734V3.416H63.5654ZM67.1193 15H65.0552V3.416H67.7912L71.1193 11.432H71.1993V3.416H73.2473V15H70.6553L67.1992 6.808H67.1193V15ZM74.1291 9.384C74.1291 8.49867 74.1985 7.68267 74.3371 6.936C74.4758 6.17867 74.7105 5.52267 75.0411 4.968C75.3718 4.41333 75.8198 3.98133 76.3851 3.672C76.9611 3.36267 77.6865 3.208 78.5611 3.208C79.7665 3.208 80.6945 3.52267 81.3451 4.152C81.9958 4.78133 82.3745 5.79467 82.4811 7.192L80.1931 7.416C80.1078 6.63733 79.9425 6.072 79.6971 5.72C79.4625 5.35733 79.0625 5.176 78.4971 5.176C77.9211 5.176 77.5051 5.35733 77.2491 5.72C76.9931 6.072 76.8331 6.552 76.7691 7.16C76.7051 7.768 76.6731 8.45067 76.6731 9.208C76.6731 10.136 76.7158 10.8987 76.8011 11.496C76.8971 12.0933 77.0731 12.536 77.3291 12.824C77.5958 13.1013 77.9798 13.24 78.4811 13.24C79.0465 13.24 79.4785 13.0427 79.7771 12.648C80.0758 12.2533 80.2251 11.6987 80.2251 10.984V10.664H78.3051V8.968H82.6251V15H80.8971L80.6411 13.608C80.3958 14.1307 80.0598 14.5253 79.6331 14.792C79.2065 15.0587 78.6625 15.192 78.0011 15.192C77.0305 15.192 76.2625 14.9467 75.6971 14.456C75.1318 13.9547 74.7265 13.2667 74.4811 12.392C74.2465 11.5173 74.1291 10.5147 74.1291 9.384ZM14.708 31H12.244V21.432H8.996V19.416H17.924V21.432H14.708V31ZM18.7579 19.416H21.2379V24.136H24.2459V19.416H26.7259V31H24.2459V26.2H21.2379V31H18.7579V19.416ZM28.3917 19.416H35.5918V21.368H30.8557V24.248H35.2717V26.168H30.8557V29.048H35.8797V31H28.3917V19.416ZM50.5395 31H46.6355V19.416H50.9075C51.8248 19.416 52.5342 19.544 53.0355 19.8C53.5475 20.0453 53.9048 20.3813 54.1075 20.808C54.3102 21.2347 54.4115 21.7147 54.4115 22.248C54.4115 22.7707 54.3102 23.2133 54.1075 23.576C53.9048 23.9387 53.6382 24.232 53.3075 24.456C52.9768 24.68 52.6142 24.8453 52.2195 24.952V24.984C53.1475 25.0907 53.8248 25.3893 54.2515 25.88C54.6888 26.3707 54.9075 27.016 54.9075 27.816C54.9075 28.6053 54.7155 29.2347 54.3315 29.704C53.9582 30.1627 53.4408 30.4933 52.7795 30.696C52.1288 30.8987 51.3822 31 50.5395 31ZM49.0995 21.208V24.264H49.6915C50.0755 24.264 50.4435 24.2267 50.7955 24.152C51.1475 24.0667 51.4355 23.9067 51.6595 23.672C51.8835 23.4373 51.9955 23.096 51.9955 22.648C51.9955 22.1893 51.8995 21.8587 51.7075 21.656C51.5262 21.4533 51.2702 21.3307 50.9395 21.288C50.6088 21.2347 50.2355 21.208 49.8195 21.208H49.0995ZM49.0995 26.008V29.224H50.0435C50.4915 29.224 50.8808 29.1867 51.2115 29.112C51.5528 29.0267 51.8142 28.872 51.9955 28.648C52.1875 28.4133 52.2835 28.072 52.2835 27.624C52.2835 27.144 52.1768 26.792 51.9635 26.568C51.7608 26.3333 51.4888 26.184 51.1475 26.12C50.8062 26.0453 50.4328 26.008 50.0275 26.008H49.0995ZM58.4294 31H55.9814V19.416H60.2214C60.9467 19.416 61.5494 19.5227 62.0294 19.736C62.5094 19.9387 62.888 20.2107 63.1654 20.552C63.4427 20.8933 63.6347 21.272 63.7414 21.688C63.8587 22.104 63.9174 22.5253 63.9174 22.952C63.9174 23.7947 63.7627 24.5307 63.4534 25.16C63.144 25.7893 62.6534 26.2587 61.9814 26.568L64.4774 31H61.8054L59.7734 27H58.4294V31ZM58.4294 21.304V25.144H59.6614C59.9494 25.144 60.2214 25.0907 60.4774 24.984C60.744 24.8773 60.9574 24.68 61.1174 24.392C61.288 24.0933 61.3734 23.672 61.3734 23.128C61.3734 22.6053 61.288 22.216 61.1174 21.96C60.9574 21.704 60.7387 21.5333 60.4614 21.448C60.184 21.352 59.8747 21.304 59.5334 21.304H58.4294ZM67.3912 19.416H70.6393L73.8073 31H71.1193L70.4633 28.136H67.6632L67.0552 31H64.5112L67.3912 19.416ZM70.0793 26.216L69.0233 21.512H68.9753L67.9833 26.216H70.0793ZM76.4011 31H74.3371V19.416H77.0731L80.4011 27.432H80.4811V19.416H82.5291V31H79.9371L76.4811 22.808H76.4011V31ZM87.011 31H83.731V19.416H87.283C88.3923 19.416 89.2937 19.6453 89.987 20.104C90.6803 20.552 91.187 21.1973 91.507 22.04C91.8377 22.8827 92.003 23.88 92.003 25.032C92.003 26.216 91.827 27.256 91.475 28.152C91.123 29.048 90.579 29.7467 89.843 30.248C89.107 30.7493 88.163 31 87.011 31ZM86.211 21.304V29.112H86.915C87.5657 29.112 88.0777 28.952 88.451 28.632C88.8243 28.312 89.0857 27.8587 89.235 27.272C89.395 26.6853 89.475 25.9867 89.475 25.176C89.475 24.1947 89.3843 23.4213 89.203 22.856C89.0323 22.2907 88.7657 21.8907 88.403 21.656C88.051 21.4213 87.6083 21.304 87.075 21.304H86.211Z"
		fill="black" />
	<path d="M97.5 1H101V33H97.5" stroke="#F89A1C" stroke-width="2" />
</svg>