<svg width="400" height="135" viewBox="0 0 400 135" fill="none" xmlns="http://www.w3.org/2000/svg">
<g clip-path="url(#clip0_38_2)">
<path d="M-298.333 143.958L698.333 -3.80095V-73.125H-298.333V143.958Z" fill="#F3E7D3"/>
<path d="M698.333 -2.70833L-298.334 127.184V188.125H698.333V-2.70833Z" fill="black"/>
<g clip-path="url(#clip1_38_2)">
<path d="M40 12C40 5.37259 45.3726 0 52 0H149.333C155.961 0 161.333 5.37258 161.333 12V66.072H40V12Z" fill="#F89A1C"/>
<path d="M72.9113 42.2767V26.5267L76.5654 26.0132V27.9932L75.1928 28.1861V39.9761L76.5654 39.7832V41.7632L72.9113 42.2767ZM77.7511 39.2565V26.6565L80.6744 26.2457L84.3107 35.1487L87.9469 25.2236L90.8702 24.8128V37.4128L88.5351 37.741V29.281L88.446 29.2935L85.2019 38.2094L83.4194 38.4599L80.1575 30.4584L80.0862 30.4684V38.9284L77.7511 39.2565ZM92.1475 37.2333V24.6333L100.507 23.4584V25.5284L94.4825 26.3751V29.5791L99.9726 28.8075V30.6615L94.4825 31.4331V34.8351L100.686 33.9633V36.0333L92.1475 37.2333ZM101.426 35.9292V23.3292L103.886 22.9835L109.34 31.055L109.394 31.0475V22.2095L111.747 21.8788V34.4788L109.18 34.8395L103.815 26.8996L103.761 26.9071V35.6011L101.426 35.9292ZM117.977 33.7831C114.947 34.209 112.933 32.8361 112.933 29.5421V21.7121L115.286 21.3814V29.0314C115.286 31.0474 116.284 31.9511 117.977 31.7131C119.671 31.4751 120.651 30.2934 120.651 28.2774V20.6274L123.022 20.2942V28.1242C123.022 31.4182 120.972 33.3623 117.977 33.7831ZM127.885 34.5507L124.231 35.0643V33.0843L125.603 32.8914V21.1014L124.231 21.2943V19.3143L127.885 18.8007V34.5507Z" fill="black"/>
<path d="M39.3751 1.2039C40.0997 1.06405 40.4562 0.584591 40.3872 -0.0347225C40.3182 -0.71397 39.7546 -0.953702 39.0071 -0.843823C38.271 -0.743934 37.949 -0.314416 38.0065 0.304897C38.0755 1.00412 38.6046 1.23386 39.3751 1.2039Z" fill="black"/>
<path d="M46.5518 -0.843769C46.6208 -0.134555 47.0923 0.145137 47.8283 0.0951927C48.5299 0.045248 49.0819 -0.554097 48.9669 -1.16342C48.8289 -1.83268 48.2769 -2.04244 47.5753 -1.96252C46.8623 -1.87262 46.5403 -1.47307 46.5633 -0.843769H46.5518Z" fill="black"/>
<path d="M82.9287 3.2816C83.1817 2.89203 83.6072 2.52244 83.6532 2.12288C83.7222 1.54353 83.2277 1.21389 82.5607 1.28382C81.8936 1.34375 81.4451 1.75329 81.5831 2.31268C81.6866 2.69225 82.1581 2.9919 82.4572 3.32154C82.6067 3.31155 82.7677 3.29159 82.9172 3.2816H82.9287Z" fill="black"/>
<path d="M108.518 -0.0645628C108.736 -0.46412 109.139 -0.873678 109.15 -1.26325C109.162 -1.85259 108.621 -2.11232 107.966 -2.02241C107.276 -1.92253 106.908 -1.46303 107.092 -0.923627C107.218 -0.554036 107.724 -0.294321 108.058 0.0153353C108.207 -0.0146315 108.368 -0.034596 108.518 -0.0645628Z" fill="black"/>
<path d="M73.7513 2.26295C73.5098 2.6625 73.1303 3.04208 73.0728 3.45163C72.9923 4.08093 73.5443 4.33065 74.1769 4.26073C74.8094 4.19081 75.3269 3.8412 75.1199 3.23187C74.9934 2.8423 74.5449 2.55264 74.2344 2.21301C74.0733 2.23299 73.9008 2.25296 73.7398 2.26295H73.7513Z" fill="black"/>
<path d="M48.9441 7.70676C49.1856 7.30721 49.6112 6.91764 49.6342 6.51808C49.6802 5.91874 49.1511 5.64904 48.4956 5.70898C47.7941 5.7789 47.4145 6.2384 47.564 6.7778C47.6675 7.15738 48.1621 7.43705 48.4841 7.7567C48.6451 7.73672 48.7946 7.71675 48.9556 7.70676H48.9441Z" fill="black"/>
<path d="M91.5316 2.16308C91.7616 1.77351 92.1411 1.38395 92.1756 0.984393C92.2331 0.375068 91.6926 0.0953709 91.0485 0.165293C90.393 0.235216 89.9559 0.674736 90.14 1.23412C90.2665 1.6137 90.7265 1.89338 91.037 2.22301C91.198 2.20303 91.359 2.18306 91.5201 2.16308H91.5316Z" fill="black"/>
<path d="M64.3778 4.84998C64.8148 5.0198 65.2519 5.33946 65.7004 5.33946C66.3329 5.33946 66.701 4.91992 66.5975 4.3006C66.494 3.71126 66.0684 3.35165 65.4359 3.54144C65.0104 3.67129 64.6883 4.1208 64.3203 4.42047C64.3433 4.56031 64.3663 4.71014 64.3778 4.84998Z" fill="black"/>
<path d="M56.0513 5.3696C56.1318 6.34851 56.6378 6.52831 57.2588 6.45839C57.9144 6.38847 58.2824 6.02887 58.1904 5.39956C58.0984 4.80023 57.6499 4.4506 57.0288 4.6304C56.5918 4.75026 56.2698 5.19979 56.0513 5.3696Z" fill="black"/>
<path d="M38.8695 8.16635C39.3065 8.33616 39.7436 8.6558 40.2036 8.6558C40.8476 8.6558 41.2272 8.22629 41.1352 7.60697C41.0432 7.00764 40.5716 6.668 39.9506 6.8478C39.5136 6.97766 39.1915 7.43714 38.812 7.7468C38.835 7.88665 38.8465 8.0265 38.8695 8.16635Z" fill="black"/>
<path d="M99.984 1.04402C100.191 0.644459 100.559 0.24492 100.582 -0.154637C100.617 -0.763962 100.088 -1.01369 99.432 -0.913805C98.7534 -0.813916 98.3854 -0.34443 98.5579 0.184983C98.6844 0.554573 99.1789 0.814288 99.5125 1.12394C99.6735 1.09398 99.8345 1.07398 99.984 1.04402Z" fill="black"/>
<path d="M74.6252 10.0243C74.4297 10.3639 74.0272 10.7435 74.0847 11.0432C74.1422 11.3229 74.7287 11.7424 74.9817 11.6825C75.3382 11.5926 75.8098 11.1431 75.8443 10.8234C75.8788 10.5537 75.3613 10.254 75.0967 9.96436L74.6367 10.0243H74.6252Z" fill="black"/>
<path d="M91.0021 9.02536C91.3701 9.18518 91.7957 9.53479 92.0832 9.45488C92.4397 9.35499 92.8997 8.89549 92.9342 8.57584C92.9917 8.10637 92.5317 7.73677 91.9337 7.94654C91.5541 8.07639 91.2666 8.41602 90.9331 8.66574C90.9561 8.78561 90.9791 8.90549 91.0021 9.02536Z" fill="black"/>
<path d="M83.1359 8.90539C82.9519 9.255 82.6529 9.59464 82.6184 9.95425C82.5724 10.5436 83.1359 10.7434 83.6304 10.5736C83.964 10.4637 84.3895 9.9942 84.378 9.70452C84.378 9.40485 83.895 9.13514 83.6304 8.84546C83.4694 8.86544 83.2969 8.88541 83.1359 8.90539Z" fill="black"/>
<path d="M66.1031 11.1229C65.8961 11.4626 65.5051 11.8421 65.5511 12.1318C65.6086 12.4115 66.1836 12.841 66.4366 12.7811C66.8047 12.6912 67.2762 12.2517 67.3222 11.932C67.3567 11.6623 66.8507 11.3627 66.5747 11.073C66.4136 11.093 66.2641 11.103 66.1031 11.1229Z" fill="black"/>
<path d="M40.5712 14.4793C40.3872 14.829 39.9847 15.2285 40.0652 15.5182C40.1342 15.7979 40.7552 16.1775 41.0198 16.1075C41.3648 16.0176 41.8133 15.5382 41.8363 15.2185C41.8478 14.9488 41.3188 14.6791 41.0313 14.3994C40.8818 14.4194 40.7207 14.4494 40.5712 14.4693V14.4793Z" fill="black"/>
<path d="M100.18 6.69788C99.9499 7.03751 99.4899 7.42706 99.5704 7.68678C99.6509 7.98644 100.203 8.33608 100.559 8.33608C100.835 8.33608 101.33 7.81666 101.353 7.52698C101.364 7.2373 100.904 6.94762 100.651 6.64795C100.49 6.65794 100.341 6.67789 100.18 6.68788V6.69788Z" fill="black"/>
<path d="M117.236 4.48035C117.029 4.81998 116.661 5.15959 116.638 5.49921C116.592 6.03861 117.109 6.31832 117.638 6.13852C117.983 6.02864 118.42 5.58914 118.42 5.30945C118.42 5.00978 117.96 4.7201 117.696 4.43042C117.535 4.4504 117.385 4.46037 117.224 4.48035H117.236Z" fill="black"/>
<path d="M151.186 0.0751788C150.99 0.424791 150.565 0.854335 150.668 1.09407C150.795 1.39374 151.347 1.70337 151.726 1.69338C151.979 1.69338 152.451 1.12403 152.439 0.834347C152.428 0.534679 151.933 0.27495 151.657 0.00524902C151.496 0.0252269 151.347 0.055201 151.186 0.0751788Z" fill="black"/>
<path d="M108.644 5.59899C108.449 5.93862 108.058 6.32821 108.115 6.61788C108.173 6.89757 108.679 7.23718 109.035 7.25716C109.541 7.28713 110.07 6.96747 109.886 6.40809C109.783 6.07846 109.392 5.81875 109.127 5.53906C108.966 5.55904 108.805 5.57902 108.644 5.59899Z" fill="black"/>
<path d="M124.906 4.67002C125.309 4.80987 125.746 5.10955 126.102 5.02964C126.413 4.95972 126.632 4.47024 126.896 4.17058C126.54 3.95082 126.183 3.56124 125.826 3.57123C125.493 3.58122 125.159 4.03075 124.837 4.28047C124.86 4.41033 124.883 4.54017 124.906 4.67002Z" fill="black"/>
<path d="M134.647 4.31028C135.015 3.72093 135.475 3.30139 135.395 3.05166C135.303 2.76198 134.693 2.41238 134.36 2.46232C134.061 2.50228 133.647 3.05165 133.624 3.38129C133.601 3.62102 134.141 3.87074 134.647 4.32025V4.31028Z" fill="black"/>
<path d="M143.089 3.14177C143.48 2.65231 143.894 2.35263 143.917 2.04298C143.975 1.49359 143.572 1.20392 142.905 1.27384C142.261 1.33377 141.985 1.7533 142.089 2.2028C142.158 2.51246 142.618 2.72224 143.089 3.15176V3.14177Z" fill="black"/>
<path d="M58.1099 14.1995C58.4895 13.71 58.9725 13.3305 58.9035 13.1107C58.8115 12.7911 58.3515 12.4115 57.9834 12.3615C57.3394 12.2716 56.9829 12.7911 57.0749 13.2905C57.1324 13.5902 57.6269 13.7999 58.1099 14.1995Z" fill="black"/>
<path d="M160.202 0.984247C160.536 0.374922 160.881 0.0253107 160.869 -0.294335C160.835 -0.853715 160.306 -1.12342 159.731 -0.863711C159.409 -0.713877 159.029 -0.214427 159.087 0.0452849C159.156 0.344953 159.662 0.554723 160.202 0.984247Z" fill="black"/>
<path d="M49.6111 15.3781C49.9906 14.7888 50.4162 14.4192 50.3702 14.1195C50.3357 13.8498 49.8181 13.4902 49.4616 13.4603C48.8406 13.4103 48.4265 13.8399 48.576 14.3892C48.6566 14.6989 49.0936 14.9087 49.5996 15.3781H49.6111Z" fill="black"/>
<path d="M109.909 14.9589C110.277 14.4894 110.496 14.2098 110.703 13.9401C110.358 13.7403 110.047 13.4506 109.668 13.3707C109.53 13.3407 109.024 13.8402 109.07 14.01C109.139 14.3097 109.507 14.5294 109.909 14.9589Z" fill="black"/>
<path d="M125.597 11.8822C126.218 12.152 126.563 12.4416 126.885 12.4017C127.149 12.3717 127.368 11.9621 127.609 11.7124C127.31 11.5027 127.034 11.163 126.712 11.1331C126.459 11.1131 126.149 11.4927 125.597 11.8822Z" fill="black"/>
<path d="M66.0918 19.6637C66.7473 19.9234 67.1039 20.1931 67.4144 20.1431C67.6674 20.1032 67.8744 19.6836 68.0929 19.4339C67.7824 19.2341 67.4949 18.9145 67.1614 18.8845C66.9314 18.8646 66.6323 19.2441 66.0918 19.6537V19.6637Z" fill="black"/>
<path d="M83.1011 17.3762C83.7336 17.6658 84.0671 17.9555 84.4122 17.9355C84.6652 17.9255 84.9067 17.516 85.1482 17.2763C84.8607 17.0565 84.5962 16.7069 84.2857 16.6769C84.0211 16.647 83.6991 17.0066 83.1126 17.3762H83.1011Z" fill="black"/>
<path d="M58.7313 19.6335C58.4208 20.133 58.0413 20.4826 58.1218 20.6624C58.2368 20.9321 58.6508 21.2218 58.9728 21.2517C59.1684 21.2617 59.6514 20.7723 59.6284 20.5625C59.5939 20.2828 59.1799 20.0631 58.7313 19.6335Z" fill="black"/>
<path d="M91.7036 16.3373C92.3592 16.597 92.7157 16.8667 93.0262 16.8267C93.2792 16.7868 93.4862 16.3672 93.7162 16.1175C93.4057 15.9177 93.1182 15.5881 92.7962 15.5681C92.5547 15.5481 92.2557 15.9377 91.7151 16.3473L91.7036 16.3373Z" fill="black"/>
<path d="M42.0206 23.8188C42.3081 23.2994 42.6647 22.9198 42.5727 22.75C42.4346 22.4803 41.9861 22.2206 41.6526 22.2106C41.4571 22.2106 41.0086 22.74 41.0546 22.9398C41.1236 23.2195 41.5491 23.4192 42.0206 23.8188Z" fill="black"/>
<path d="M50.4733 22.7302C50.7953 22.2207 51.1633 21.8611 51.0943 21.6813C50.9678 21.4017 50.5538 21.122 50.2318 21.092C50.0363 21.072 49.5647 21.5815 49.5877 21.7912C49.6222 22.0709 50.0363 22.2907 50.4848 22.7302H50.4733Z" fill="black"/>
<path d="M75.9366 19.4038C76.2701 18.8944 76.6496 18.5448 76.5806 18.365C76.4656 18.0953 76.0631 17.8156 75.7295 17.7856C75.5455 17.7657 75.074 18.2551 75.097 18.4649C75.1315 18.7446 75.5225 18.9743 75.9366 19.4038Z" fill="black"/>
<path d="M160.904 8.34605C161.26 7.83661 161.651 7.487 161.571 7.31719C161.456 7.0375 161.053 6.74784 160.72 6.70788C160.536 6.6879 160.053 7.16736 160.064 7.38712C160.076 7.65682 160.478 7.89657 160.892 8.33608L160.904 8.34605Z" fill="black"/>
<path d="M152.186 7.47693C151.91 7.98636 151.554 8.36595 151.646 8.54575C151.784 8.81545 152.232 9.06516 152.577 9.06516C152.773 9.06516 153.221 8.52578 153.164 8.33599C153.083 8.0563 152.658 7.8665 152.186 7.47693Z" fill="black"/>
<path d="M135.188 9.67468C134.878 10.1841 134.498 10.5437 134.579 10.7235C134.694 10.9932 135.119 11.2629 135.453 11.2829C135.648 11.2929 136.108 10.8034 136.085 10.5936C136.039 10.314 135.637 10.1042 135.2 9.67468H135.188Z" fill="black"/>
<path d="M117.189 12.9909C117.833 13.2606 118.19 13.5403 118.5 13.5004C118.742 13.4704 118.937 13.0509 119.156 12.8012C118.857 12.6014 118.581 12.2817 118.259 12.2518C118.017 12.2318 117.718 12.6014 117.178 12.9909H117.189Z" fill="black"/>
<path d="M100.088 15.1985C100.732 15.4782 101.077 15.7679 101.399 15.7279C101.652 15.6979 101.882 15.2784 102.112 15.0387C101.813 14.8289 101.537 14.4992 101.215 14.4693C100.973 14.4493 100.663 14.8189 100.099 15.2085L100.088 15.1985Z" fill="black"/>
<path d="M142.687 9.74459C143.342 9.98433 143.71 10.254 144.021 10.1941C144.274 10.1442 144.446 9.70465 144.665 9.44494C144.343 9.26514 144.044 8.95547 143.71 8.93549C143.48 8.9255 143.204 9.31507 142.698 9.74459H142.687Z" fill="black"/>
<path d="M118.397 20.7024C118.846 20.8323 119.168 21.0321 119.386 20.9622C119.605 20.8922 119.731 20.5426 119.904 20.3229C119.628 20.173 119.352 19.9133 119.064 19.9133C118.892 19.9133 118.707 20.3229 118.397 20.7024Z" fill="black"/>
<path d="M50.2781 29.4026C50.7151 29.6224 51.0141 29.8921 51.2212 29.8422C51.4857 29.7722 51.6697 29.4326 51.8882 29.2128C51.6582 29.043 51.4052 28.7134 51.1867 28.7434C50.9106 28.7833 50.6691 29.103 50.2666 29.4126L50.2781 29.4026Z" fill="black"/>
<path d="M75.856 26.2464C76.2815 26.3663 76.6035 26.566 76.822 26.4961C77.0405 26.4162 77.167 26.0766 77.3396 25.8568C77.0635 25.707 76.7875 25.4473 76.5 25.4473C76.3275 25.4473 76.1435 25.8668 75.8675 26.2464H75.856Z" fill="black"/>
<path d="M84.3315 24.9979C84.7456 25.1977 85.0446 25.4674 85.2516 25.4174C85.5161 25.3475 85.7116 25.0179 85.9301 24.7981C85.6656 24.6283 85.4011 24.3586 85.1136 24.3386C84.9181 24.3386 84.6766 24.6882 84.3315 24.9979Z" fill="black"/>
<path d="M109.76 21.6912C110.22 21.891 110.507 22.1307 110.749 22.0907C110.99 22.0508 111.186 21.7411 111.404 21.5513C111.163 21.3516 110.933 21.002 110.691 21.002C110.45 21.002 110.185 21.3616 109.76 21.6912Z" fill="black"/>
<path d="M152.566 16.2874C152.842 16.3873 153.141 16.627 153.371 16.5671C153.601 16.5071 153.75 16.1675 153.946 15.9478C153.67 15.7779 153.417 15.4883 153.129 15.4783C152.853 15.4783 152.566 15.7679 152.278 15.9278C152.37 16.0476 152.474 16.1675 152.566 16.2874Z" fill="black"/>
<path d="M160.823 15.1186C161.249 15.2784 161.548 15.5082 161.789 15.4482C162.008 15.3983 162.341 14.9488 162.284 14.8589C162.146 14.6291 161.812 14.3794 161.548 14.3794C161.352 14.3794 161.145 14.769 160.823 15.1186Z" fill="black"/>
<path d="M41.8018 30.5916C42.2158 30.7614 42.5148 30.9911 42.7563 30.9511C42.9748 30.9112 43.1473 30.5616 43.3314 30.3518C43.0668 30.182 42.8138 29.8823 42.5378 29.8823C42.3423 29.8823 42.1238 30.2719 41.8018 30.6015V30.5916Z" fill="black"/>
<path d="M59.6968 27.375C59.4208 27.7646 59.0758 28.0542 59.1333 28.224C59.2023 28.4538 59.5703 28.6935 59.8463 28.7335C59.9959 28.7535 60.4214 28.3339 60.3869 28.1541C60.3524 27.9044 60.0189 27.7046 59.6968 27.375Z" fill="black"/>
<path d="M126.792 19.5337C127.218 19.7035 127.517 19.9332 127.759 19.8833C127.977 19.8433 128.138 19.4937 128.322 19.2839C128.058 19.1141 127.805 18.8244 127.54 18.8145C127.345 18.8145 127.126 19.194 126.804 19.5337H126.792Z" fill="black"/>
<path d="M135.28 18.345C135.717 18.5648 136.016 18.8445 136.212 18.7845C136.476 18.7146 136.66 18.375 136.867 18.1552C136.637 17.9854 136.384 17.6558 136.189 17.6858C135.913 17.7257 135.683 18.0354 135.28 18.345Z" fill="black"/>
<path d="M143.848 17.406C144.354 17.5258 144.688 17.7056 144.952 17.6357C145.148 17.5858 145.424 17.0763 145.355 16.9964C145.171 16.7866 144.814 16.5869 144.538 16.6069C144.343 16.6168 144.17 17.0064 143.848 17.406Z" fill="black"/>
<path d="M101.353 22.85C101.756 23.0198 102.055 23.2495 102.273 23.1996C102.503 23.1397 102.664 22.81 102.848 22.5903C102.584 22.4205 102.342 22.1408 102.055 22.1208C101.894 22.1108 101.675 22.5004 101.353 22.85Z" fill="black"/>
<path d="M93.9117 24.5282C94.1417 24.1486 94.4522 23.839 94.3717 23.6891C94.2682 23.4594 93.8887 23.3495 93.6356 23.1797C93.4631 23.4194 93.1641 23.6692 93.1756 23.8789C93.1871 24.0687 93.5666 24.2285 93.9117 24.5182V24.5282Z" fill="black"/>
<path d="M68.2423 27.8744C68.4953 27.4948 68.8173 27.2051 68.7598 27.0553C68.6563 26.8255 68.2998 26.6857 68.0468 26.5159C67.8628 26.7456 67.5522 26.9754 67.5522 27.1951C67.5522 27.3949 67.9088 27.5647 68.2423 27.8744Z" fill="black"/>
<path d="M52.804 25.12C51.112 25.12 49.468 23.92 49.468 20.8C49.468 17.704 51.112 16.492 52.804 16.492C54.496 16.492 56.14 17.704 56.14 20.8C56.14 23.92 54.496 25.12 52.804 25.12ZM52.804 23.824C54.124 23.824 54.664 22.468 54.664 20.8C54.664 19.156 54.124 17.788 52.804 17.788C51.472 17.788 50.932 19.156 50.932 20.8C50.932 22.468 51.472 23.824 52.804 23.824ZM58.2632 25V18.508C57.8432 18.952 57.1832 19.132 56.5232 19.144V17.884C57.4112 17.788 58.0232 17.38 58.2632 16.6H59.7992V25H58.2632Z" fill="black"/>
</g>
<path d="M52 0.5H149.333C155.685 0.5 160.833 5.64873 160.833 12V65.572H40.5V12C40.5 5.64873 45.6487 0.5 52 0.5Z" stroke="black"/>
<mask id="mask0_38_2" style="mask-type:luminance" maskUnits="userSpaceOnUse" x="-320" y="-90" width="1077" height="272">
<path d="M756.615 -89.7915L-318.039 90.4713L-319.167 181.54L756.615 17.9219V-89.7915Z" fill="white"/>
</mask>
<g mask="url(#mask0_38_2)">
<path d="M9.40934 82.8638L-8.41383 85.4501L-8.69434 68.143L9.12884 65.5568L9.40934 82.8638Z" fill="#F3E7D3"/>
<path d="M27.2326 80.2774L9.40941 82.8636L9.12891 65.5566L26.9521 62.9647L27.2326 80.2774Z" fill="#D33E27"/>
<path d="M45.0559 77.6917L27.2327 80.278L26.9521 62.9653L44.7754 60.379L45.0559 77.6917Z" fill="#F3E7D3"/>
<path d="M62.8847 75.1049L45.0559 77.6912L44.7754 60.3785L62.5986 57.7922L62.8847 75.1049Z" fill="#D33E27"/>
<path d="M80.7084 72.513L62.8852 75.1049L62.5991 57.7922L80.4279 55.2059L80.7084 72.513Z" fill="#F3E7D3"/>
<path d="M98.5314 69.9273L80.7082 72.5135L80.4277 55.2065L98.2509 52.6202L98.5314 69.9273Z" fill="#D33E27"/>
<path d="M116.355 67.3411L98.5315 69.9274L98.251 52.6203L116.074 50.0284L116.355 67.3411Z" fill="#F3E7D3"/>
<path d="M134.184 64.7543L116.355 67.3406L116.074 50.0279L133.897 47.4417L134.184 64.7543Z" fill="#D33E27"/>
<path d="M152.007 62.1627L134.184 64.7545L133.897 47.4418L151.726 44.8556L152.007 62.1627Z" fill="#F3E7D3"/>
<path d="M169.83 59.5767L152.007 62.163L151.727 44.8559L169.55 42.2697L169.83 59.5767Z" fill="#D33E27"/>
<path d="M187.653 56.9903L169.829 59.5765L169.549 42.2695L187.372 39.6776L187.653 56.9903Z" fill="#F3E7D3"/>
<path d="M205.476 54.4037L187.653 56.99L187.372 39.6773L205.195 37.0911L205.476 54.4037Z" fill="#D33E27"/>
<path d="M223.305 51.8118L205.476 54.4037L205.195 37.091L223.024 34.5048L223.305 51.8118Z" fill="#F3E7D3"/>
<path d="M241.128 49.2261L223.305 51.8124L223.024 34.5053L240.848 31.9191L241.128 49.2261Z" fill="#D33E27"/>
<path d="M258.951 46.64L241.128 49.2262L240.848 31.9191L258.671 29.3273L258.951 46.64Z" fill="#F3E7D3"/>
<path d="M276.775 44.0535L258.951 46.6398L258.671 29.3271L276.494 26.7408L276.775 44.0535Z" fill="#D33E27"/>
<path d="M10.425 100.165L-7.39821 102.752L-7.67871 85.4445L10.1445 82.8583L10.425 100.165Z" fill="#D33E27"/>
<path d="M27.5751 97.674L9.75194 100.266L9.46582 82.9532L27.2946 80.3669L27.5751 97.674Z" fill="#F3E7D3"/>
<path d="M45.3986 95.0882L27.5754 97.6744L27.2949 80.3674L45.1181 77.7811L45.3986 95.0882Z" fill="#D33E27"/>
<path d="M63.2219 92.5019L45.3987 95.0881L45.1182 77.7811L62.9414 75.1892L63.2219 92.5019Z" fill="#F3E7D3"/>
<path d="M81.0451 89.9158L63.2219 92.5021L62.9414 75.1894L80.7646 72.6031L81.0451 89.9158Z" fill="#D33E27"/>
<path d="M98.873 87.3242L81.0442 89.916L80.7637 72.6033L98.5925 70.0171L98.873 87.3242Z" fill="#F3E7D3"/>
<path d="M116.696 84.7376L98.8733 87.3239L98.5928 70.0168L116.416 67.4305L116.696 84.7376Z" fill="#D33E27"/>
<path d="M134.52 82.1513L116.697 84.7376L116.416 67.4305L134.239 64.8386L134.52 82.1513Z" fill="#F3E7D3"/>
<path d="M152.343 79.565L134.52 82.1512L134.239 64.8386L152.062 62.2523L152.343 79.565Z" fill="#D33E27"/>
<path d="M170.172 76.9793L152.343 79.5656L152.062 62.2529L169.886 59.6666L170.172 76.9793Z" fill="#F3E7D3"/>
<path d="M187.995 74.3869L170.172 76.9788L169.886 59.6661L187.715 57.0798L187.995 74.3869Z" fill="#D33E27"/>
<path d="M205.819 71.8009L187.995 74.3871L187.715 57.08L205.538 54.4938L205.819 71.8009Z" fill="#F3E7D3"/>
<path d="M223.642 69.2144L205.819 71.8007L205.538 54.4936L223.361 51.9017L223.642 69.2144Z" fill="#D33E27"/>
<path d="M241.471 66.6287L223.642 69.215L223.361 51.9023L241.185 49.316L241.471 66.6287Z" fill="#F3E7D3"/>
<path d="M259.293 64.0364L241.47 66.6283L241.184 49.3156L259.012 46.7294L259.293 64.0364Z" fill="#D33E27"/>
<path d="M277.116 61.4503L259.293 64.0365L259.013 46.7294L276.836 44.1432L277.116 61.4503Z" fill="#F3E7D3"/>
<path d="M295.108 41.5571L276.864 44.205L276.578 26.4828L294.822 23.8348L295.108 41.5571Z" fill="#F3E7D3"/>
<path d="M295.377 59.0545L277.134 61.7025L276.842 43.9858L295.091 41.3323L295.377 59.0545Z" fill="#D33E27"/>
<path d="M313.924 39.5875L295.68 42.2354L295.389 24.5188L313.638 21.8708L313.924 39.5875Z" fill="#D33E27"/>
<path d="M332.174 36.9399L313.925 39.5878L313.639 21.8712L331.883 19.2233L332.174 36.9399Z" fill="#F3E7D3"/>
<path d="M350.418 34.2917L332.174 36.9396L331.882 19.223L350.131 16.5751L350.418 34.2917Z" fill="#D33E27"/>
<path d="M368.662 31.6442L350.418 34.2922L350.132 16.5756L368.376 13.922L368.662 31.6442Z" fill="#F3E7D3"/>
<path d="M386.912 28.996L368.662 31.644L368.376 13.9218L386.62 11.2738L386.912 28.996Z" fill="#D33E27"/>
<path d="M405.156 26.3481L386.912 28.996L386.62 11.2738L404.87 8.62585L405.156 26.3481Z" fill="#F3E7D3"/>
<path d="M313.846 57.0519L295.597 59.6999L295.311 41.9777L313.555 39.3297L313.846 57.0519Z" fill="#F3E7D3"/>
<path d="M332.09 54.4037L313.846 57.0517L313.555 39.3295L331.804 36.6815L332.09 54.4037Z" fill="#D33E27"/>
<path d="M350.334 51.7502L332.09 54.4037L331.804 36.6815L350.048 34.0336L350.334 51.7502Z" fill="#F3E7D3"/>
<path d="M368.584 49.1021L350.334 51.7501L350.048 34.0335L368.292 31.3855L368.584 49.1021Z" fill="#D33E27"/>
<path d="M386.828 46.4544L368.584 49.1024L368.292 31.3857L386.542 28.7378L386.828 46.4544Z" fill="#F3E7D3"/>
<path d="M405.077 43.8064L386.827 46.4544L386.541 28.7378L404.785 26.0842L405.077 43.8064Z" fill="#D33E27"/>
</g>
<path fill-rule="evenodd" clip-rule="evenodd" d="M682.477 -30.8283L-313.591 111.948L-313.769 110.711L682.3 -32.0657L682.477 -30.8283Z" fill="black"/>
<path fill-rule="evenodd" clip-rule="evenodd" d="M682.478 -13.437L-313.03 129.9L-313.208 128.663L682.299 -14.6742L682.478 -13.437Z" fill="black"/>
<path fill-rule="evenodd" clip-rule="evenodd" d="M682.477 4.51515L-311.347 147.853L-311.525 146.615L682.299 3.27795L682.477 4.51515Z" fill="black"/>
<path d="M356.185 135H43.8156C39.0794 135 38.5858 127.876 43.274 127.183L355.644 81.0405C357.942 80.701 360 82.5376 360 84.929V131.072C360 133.241 358.292 135 356.185 135Z" fill="#F3E7D3"/>
<path d="M260.653 125.34V109.59H264.343V111.57H262.957V123.36H264.343V125.34H260.653ZM270.419 123.18C267.215 123.18 265.271 121.632 265.271 119.004H267.701C267.773 120.228 268.565 121.2 270.437 121.2C272.057 121.2 272.903 120.516 272.903 119.364C272.903 118.356 272.201 117.888 270.977 117.654L269.213 117.312C267.161 116.916 265.613 115.962 265.613 113.802C265.613 111.498 267.449 110.238 270.257 110.238C273.101 110.238 275.063 111.552 275.063 113.964H272.633C272.633 112.83 271.697 112.218 270.293 112.218C268.691 112.218 268.097 113.01 268.097 113.874C268.097 114.576 268.493 115.242 269.753 115.476L271.427 115.8C274.199 116.322 275.405 117.402 275.405 119.364C275.405 121.956 273.281 123.18 270.419 123.18ZM276.352 123V110.4H281.302C284.542 110.4 286.018 112.074 286.018 114.522C286.018 116.952 284.542 118.626 281.302 118.626H278.71V123H276.352ZM278.71 116.556H281.212C282.832 116.556 283.57 115.782 283.57 114.522C283.57 113.244 282.832 112.47 281.212 112.47H278.71V116.556ZM286.776 123V110.4H295.218V112.47H289.134V115.674H294.678V117.528H289.134V120.93H295.398V123H286.776ZM301.69 123.18C298.18 123.18 295.876 120.822 295.876 116.7C295.876 112.596 298.18 110.238 301.69 110.238C304.444 110.238 306.604 111.606 306.892 114.594H304.588C304.174 112.992 303.13 112.29 301.69 112.29C299.404 112.29 298.306 114.072 298.306 116.7C298.306 119.328 299.368 121.128 301.69 121.128C303.094 121.128 304.174 120.426 304.588 118.806H306.892C306.604 121.812 304.444 123.18 301.69 123.18ZM307.678 123V110.4H310.036V123H307.678ZM320.391 123L319.491 120.426H314.001L313.101 123H310.617L315.243 110.4H318.267L322.893 123H320.391ZM314.631 118.662H318.879L316.827 112.83H316.683L314.631 118.662ZM323.465 123V110.4H325.823V120.93H331.799V123H323.465ZM337.431 123.18C334.227 123.18 332.283 121.632 332.283 119.004H334.713C334.785 120.228 335.577 121.2 337.449 121.2C339.069 121.2 339.915 120.516 339.915 119.364C339.915 118.356 339.213 117.888 337.989 117.654L336.225 117.312C334.173 116.916 332.625 115.962 332.625 113.802C332.625 111.498 334.461 110.238 337.269 110.238C340.113 110.238 342.075 111.552 342.075 113.964H339.645C339.645 112.83 338.709 112.218 337.305 112.218C335.703 112.218 335.109 113.01 335.109 113.874C335.109 114.576 335.505 115.242 336.765 115.476L338.439 115.8C341.211 116.322 342.417 117.402 342.417 119.364C342.417 121.956 340.293 123.18 337.431 123.18ZM347.055 125.34H343.365V123.36H344.751V111.57H343.365V109.59H347.055V125.34Z" fill="black"/>
</g>
<defs>
<clipPath id="clip0_38_2">
<rect width="400" height="135" fill="white"/>
</clipPath>
<clipPath id="clip1_38_2">
<path d="M40 12C40 5.37259 45.3726 0 52 0H149.333C155.961 0 161.333 5.37258 161.333 12V66.072H40V12Z" fill="white"/>
</clipPath>
</defs>
</svg>
