<svg width="1746" height="1027" viewBox="0 0 1746 1027" fill="none" xmlns="http://www.w3.org/2000/svg">
	<path
		d="M1677.63 524.437C1676.88 500.193 1689.78 478.703 1709.39 467.342C1722.73 459.612 1730.52 444.947 1730.04 429.521L1720.22 112.164C1719.5 88.8834 1700.05 70.5955 1676.79 71.3154L67.9651 121.091C44.6981 121.811 26.4214 141.266 27.1416 164.546L36.9118 480.333C37.4027 496.198 46.6612 510.671 61.1218 517.205C82.5738 526.898 97.8043 548.157 98.5819 573.291C99.3595 598.425 85.4723 620.585 64.6607 631.586C50.6316 639.001 42.2852 654.008 42.7763 669.884L52.5465 985.671C53.2668 1008.95 72.7112 1027.24 95.9782 1026.52L1704.79 976.744C1728.06 976.024 1746.33 956.569 1745.61 933.289L1735.79 615.931C1735.32 600.516 1726.63 586.35 1712.84 579.46C1692.57 569.332 1678.37 548.681 1677.62 524.437L1677.63 524.437Z"
		fill="#626D2F" />
	<path
		d="M1659.94 544.588C1661.34 520.373 1676.09 500.108 1696.63 490.526C1710.61 484.007 1719.65 470.088 1720.54 454.68L1738.84 137.699C1740.18 114.446 1722.43 94.5095 1699.19 93.1683L92.2707 0.428402C69.0312 -0.912812 49.1051 16.849 47.7632 40.1018L29.5598 355.515C28.6452 371.362 36.5871 386.597 50.413 394.384C70.9234 405.937 84.2136 428.46 82.7648 453.564C81.3159 478.668 65.5229 499.513 43.8196 508.629C29.1896 514.775 19.5483 528.985 18.6331 544.842L0.429745 860.255C-0.912238 883.508 16.8382 903.444 40.0776 904.785L1646.99 997.524C1670.22 998.866 1690.15 981.104 1691.49 957.851L1709.79 640.869C1710.68 625.472 1703.28 610.594 1690.15 602.511C1670.86 590.629 1658.53 568.802 1659.93 544.587L1659.94 544.588Z"
		fill="#F89A1C" />
</svg>