<svg width="544" height="641" viewBox="0 0 544 641" fill="none" xmlns="http://www.w3.org/2000/svg">
	<path
		d="M465.212 6.95913C464.607 6.53285 464.003 6.1175 463.387 5.69123C453.813 -0.954356 438.7 -0.67017 429.61 6.33611C429.346 6.54378 429.071 6.75146 428.807 6.95913C419.651 13.9982 404.417 14.2387 394.854 7.49471C394.085 6.9482 393.315 6.41262 392.546 5.86611C383.214 -0.724821 368.419 -0.67017 359.164 5.97541C358.878 6.18309 358.581 6.39076 358.296 6.59843C348.876 13.3752 333.74 13.2877 324.474 6.39076C324.364 6.30332 324.243 6.22681 324.134 6.13936C314.813 -0.801332 299.545 -0.834123 290.158 6.05192C289.839 6.28146 289.521 6.52192 289.202 6.75146C279.782 13.6594 264.471 13.5938 255.161 6.60936C254.919 6.42355 254.666 6.23774 254.424 6.05192C245.158 -0.899704 229.935 -0.998077 220.493 5.83332C220.064 6.15029 219.625 6.45634 219.196 6.77332C209.809 13.5719 194.674 13.5063 185.386 6.64216C185.199 6.50006 185.012 6.3689 184.825 6.22681C175.515 -0.648309 160.369 -0.69203 150.993 6.12843C150.663 6.3689 150.333 6.60936 150.003 6.84983C140.726 13.5938 125.767 13.6266 116.424 6.93727C115.907 6.56564 115.38 6.19402 114.863 5.82239C105.597 -0.812263 90.7912 -0.834123 81.4923 5.76774C81.2065 5.96448 80.9207 6.17216 80.6349 6.3689C71.347 12.9598 56.5961 12.9489 47.3192 6.34704C46.6707 5.88797 46.0221 5.41797 45.3626 4.9589C35.8658 -1.79598 20.6863 -1.63203 11.4863 5.34146C9.91449 6.53285 8.33169 7.73518 6.7269 8.94843C2.40718 12.2166 0 16.5887 0 21.1356V623.479C0 633.152 10.7059 641 23.9289 641H520.071C533.283 641 544 633.152 544 623.479V20.7203C544 16.2061 541.615 11.8559 537.35 8.59867C536.218 7.73518 535.097 6.87169 533.976 6.01913C524.666 -1.09645 509.189 -1.18389 499.715 5.81146C499.363 6.07378 499.022 6.32518 498.67 6.5875C489.514 13.3424 474.664 13.5173 465.234 6.97006L465.212 6.95913Z"
		fill="#F3E7D3" />
</svg>