<svg width="400" height="155" viewBox="0 0 400 155" fill="none" xmlns="http://www.w3.org/2000/svg">
	<g clip-path="url(#clip0_2589_3408)">
		<path d="M698.333 17.2917L-298.334 147.184V208.125H698.333V17.2917Z" fill="black" />
		<g clip-path="url(#clip1_2589_3408)">
			<path d="M40 12C40 5.3726 45.3726 0 52 0H209.998C216.625 0 221.998 5.37258 221.998 12V82.3348H40V12Z"
				fill="#F89A1C" />
			<path
				d="M65.7408 6.38435C66.2753 5.62346 66.8099 5.18538 66.8676 4.72423C66.9543 4.04405 66.3476 3.67514 65.5097 3.75584C64.5851 3.83654 64.1084 4.40143 64.2817 5.05855C64.3973 5.47358 65.0329 5.76181 65.7408 6.38435Z"
				fill="black" />
			<path
				d="M106.84 0.239243C107.404 0.4237 107.967 0.76956 108.531 0.746503C109.325 0.723446 109.816 0.227709 109.657 -0.487062C109.513 -1.17878 108.906 -1.54769 108.126 -1.31712C107.592 -1.15572 107.202 -0.625408 106.739 -0.256494C106.768 -0.0950943 106.797 0.0663035 106.826 0.227703L106.84 0.239243Z"
				fill="black" />
			<path
				d="M55.123 4.96606C53.8084 5.17358 53.4906 5.6693 53.5628 6.32643C53.635 7.05273 54.2562 7.30638 55.0652 7.17956C55.8598 7.06428 56.4665 6.62618 56.1776 5.946C55.9898 5.50791 55.383 5.19664 55.123 4.96606Z"
				fill="black" />
			<path
				d="M96.1213 1.46164C96.6702 1.66915 97.2047 2.04959 97.7681 2.04959C98.5627 2.04959 99.0394 1.5654 98.9527 0.850625C98.8516 0.135854 98.2738 -0.233071 97.4937 -0.025557C96.9447 0.112786 96.5402 0.631583 96.0635 0.97744C96.0779 1.13884 96.1068 1.31176 96.1213 1.47316V1.46164Z"
				fill="black" />
			<path
				d="M85.5181 2.1188C85.6481 3.2486 86.2837 3.43307 87.0638 3.34084C87.9017 3.23709 88.3351 2.81053 88.2051 2.09576C88.0895 1.39251 87.4828 1.02359 86.7171 1.24264C86.1826 1.39251 85.7781 1.91129 85.5181 2.1188Z"
				fill="black" />
			<path
				d="M44.7648 8.58606C45.0537 8.13644 45.5593 7.6868 45.5882 7.22566C45.646 6.54548 44.9959 6.21116 44.1725 6.30339C43.3346 6.39562 42.8145 6.90288 43.0168 7.53695C43.1613 7.97504 43.768 8.28631 44.1725 8.65523C44.3747 8.63217 44.577 8.60911 44.7648 8.58606Z"
				fill="black" />
			<path
				d="M74.8129 3.95159C75.3474 4.18216 75.8675 4.57412 76.4164 4.58565C77.1821 4.6087 77.731 4.17062 77.6443 3.43279C77.5577 2.74108 77.0376 2.31453 76.2431 2.48746C75.6941 2.61427 75.2607 3.11 74.7695 3.44433C74.784 3.60573 74.7984 3.77865 74.8129 3.94005V3.95159Z"
				fill="black" />
			<path
				d="M98.3608 8.70158C98.0719 9.08202 97.5808 9.46247 97.5374 9.86597C97.4652 10.5 98.1586 10.8113 98.8087 10.6384C99.2421 10.5231 99.8199 10.0159 99.8344 9.69305C99.8488 9.34719 99.271 9.01285 98.9676 8.66699C98.7653 8.67852 98.5631 8.70159 98.3608 8.71312V8.70158Z"
				fill="black" />
			<path
				d="M183.752 -1.47824C183.506 -1.08627 183.029 -0.648192 183.102 -0.313864C183.174 0.0089357 183.911 0.481612 184.214 0.412441C184.676 0.297155 185.254 -0.198562 185.312 -0.567476C185.355 -0.867219 184.705 -1.21309 184.358 -1.53589C184.156 -1.51283 183.954 -1.48978 183.752 -1.46672V-1.47824Z"
				fill="black" />
			<path
				d="M141.67 5.9807C142.133 5.27745 142.566 4.90855 142.58 4.5281C142.609 3.95168 142.133 3.62887 141.338 3.73263C140.558 3.82486 140.139 4.25141 140.327 4.79326C140.457 5.1737 141.02 5.42733 141.67 5.9807Z"
				fill="black" />
			<path
				d="M44.9529 15.1227C44.7073 15.5262 44.1728 16.022 44.3028 16.2986C44.4617 16.6445 45.1551 17.0019 45.6319 16.9903C45.9497 16.9903 46.542 16.3332 46.5275 15.9989C46.5131 15.653 45.8919 15.3533 45.5452 15.042C45.3429 15.065 45.1551 15.0996 44.9529 15.1227Z"
				fill="black" />
			<path
				d="M119.842 6.15353C119.553 6.53397 118.975 6.9836 119.062 7.28334C119.163 7.6292 119.842 8.04423 120.29 8.04423C120.637 8.04423 121.287 7.45626 121.301 7.13346C121.33 6.79913 120.752 6.45328 120.434 6.10742C120.232 6.11895 120.044 6.13047 119.842 6.15353Z"
				fill="black" />
			<path
				d="M150.873 3.79032C151.335 3.96325 151.898 4.35521 152.26 4.25146C152.707 4.12464 153.256 3.59434 153.3 3.21389C153.343 2.66052 152.751 2.25702 152.029 2.51065C151.552 2.67205 151.191 3.08707 150.786 3.38682C150.815 3.52516 150.858 3.65198 150.887 3.79032H150.873Z"
				fill="black" />
			<path
				d="M56.2787 16.1719C56.6977 15.4686 57.1311 15.0651 57.1166 14.6962C57.0733 14.0506 56.4087 13.7393 55.6864 14.0391C55.2819 14.212 54.8052 14.7884 54.8774 15.0882C54.9641 15.434 55.5997 15.6761 56.2787 16.1719Z"
				fill="black" />
			<path
				d="M162.588 0.746826C162.112 1.47313 161.62 1.89968 161.664 2.25706C161.707 2.55681 162.502 3.02947 162.791 2.94877C163.253 2.82195 163.773 2.31471 163.86 1.93427C163.917 1.68064 163.253 1.33478 162.588 0.746826Z"
				fill="black" />
			<path
				d="M76.9223 11.3071C76.7056 11.7106 76.2289 12.1832 76.3445 12.506C76.46 12.8173 77.1968 13.2093 77.5868 13.1516C77.9769 13.094 78.5692 12.4945 78.5547 12.1832C78.5258 11.8374 77.9047 11.5376 77.5435 11.2148C77.3413 11.2494 77.139 11.2725 76.9367 11.3071H76.9223Z"
				fill="black" />
			<path
				d="M130.286 4.92024C130.041 5.32374 129.564 5.77335 129.636 6.11921C129.694 6.41895 130.474 6.86858 130.792 6.78788C131.254 6.6726 131.847 6.15379 131.875 5.79641C131.904 5.48514 131.225 5.16235 130.85 4.85107C130.662 4.87413 130.474 4.89718 130.286 4.93176V4.92024Z"
				fill="black" />
			<path
				d="M86.7168 11.4107C87.179 11.5951 87.6124 11.9179 88.0892 11.9295C88.797 11.9295 89.3749 11.4914 89.1293 10.9034C88.9993 10.5691 88.3492 10.1771 87.9447 10.2002C87.5113 10.2232 87.0779 10.6959 86.6445 10.9726C86.6734 11.1225 86.7023 11.2723 86.7168 11.4222V11.4107Z"
				fill="black" />
			<path
				d="M108.155 8.90889C108.632 9.07029 109.195 9.46227 109.556 9.34698C109.989 9.20864 110.264 8.64372 110.596 8.2748C110.163 8.04423 109.715 7.59463 109.311 7.64074C108.863 7.68686 108.473 8.1826 108.054 8.48234C108.083 8.62068 108.126 8.77055 108.155 8.90889Z"
				fill="black" />
			<path
				d="M173.842 2.14186C174.203 1.38097 174.579 0.965949 174.55 0.597035C174.492 -0.0139791 173.842 -0.31372 173.178 -0.0139778C172.773 0.170479 172.282 0.746905 172.354 1.04665C172.441 1.3925 173.091 1.62307 173.842 2.14186Z"
				fill="black" />
			<path
				d="M66.3332 12.5518C66.0731 12.9438 65.6398 13.3242 65.582 13.7392C65.4808 14.4194 66.1887 14.65 66.8243 14.4771C67.2577 14.3618 67.8067 13.843 67.8211 13.5202C67.8211 13.1743 67.2577 12.84 66.9399 12.4941C66.7377 12.5057 66.5499 12.5287 66.3476 12.5403L66.3332 12.5518Z"
				fill="black" />
			<path
				d="M151.725 12.183C152.534 12.4827 152.996 12.8055 153.4 12.7594C153.718 12.7248 153.964 12.2291 154.253 11.9409C153.863 11.7103 153.502 11.3183 153.083 11.2953C152.779 11.2722 152.404 11.7219 151.725 12.1945V12.183Z"
				fill="black" />
			<path
				d="M98.707 18.7774C99.1404 18.9158 99.6171 19.2155 99.9927 19.1348C100.325 19.0657 100.556 18.5815 100.831 18.2817C100.426 18.0742 100.036 17.7168 99.6027 17.7053C99.3137 17.6938 98.9526 18.1318 98.6348 18.3739C98.6637 18.5123 98.6781 18.6506 98.707 18.789V18.7774Z"
				fill="black" />
			<path
				d="M205.407 5.92309C205.826 6.09602 206.274 6.44188 206.635 6.3727C206.982 6.31506 207.256 5.83087 207.56 5.53112C207.184 5.31208 206.823 4.94317 206.418 4.92011C206.1 4.89705 205.739 5.31208 205.393 5.53112C205.393 5.65794 205.407 5.79628 205.421 5.92309H205.407Z"
				fill="black" />
			<path
				d="M163.73 9.62378C163.296 10.1772 162.776 10.5691 162.849 10.7766C162.979 11.0994 163.484 11.4338 163.903 11.4914C164.149 11.526 164.784 10.9726 164.755 10.7421C164.727 10.4193 164.221 10.1426 163.715 9.62378H163.73Z"
				fill="black" />
			<path
				d="M78.251 19.8267C77.9043 20.4261 77.4709 20.8412 77.5864 21.0487C77.7598 21.36 78.2943 21.6597 78.6988 21.6712C78.9444 21.6712 79.5222 21.0833 79.45 20.8527C79.3633 20.5299 78.8433 20.2993 78.251 19.8267Z"
				fill="black" />
			<path
				d="M217.108 3.21411C216.704 3.80207 216.227 4.22861 216.328 4.4246C216.487 4.73587 217.022 5.04715 217.441 5.08173C217.686 5.10479 218.278 4.51684 218.235 4.27474C218.177 3.95194 217.657 3.69831 217.108 3.21411Z"
				fill="black" />
			<path
				d="M173.019 9.6467C173.842 9.93491 174.304 10.2577 174.709 10.2001C175.041 10.154 175.301 9.65824 175.59 9.37002C175.185 9.15098 174.81 8.78207 174.377 8.75901C174.059 8.74748 173.698 9.18556 173.019 9.6467Z"
				fill="black" />
			<path
				d="M183.767 8.3096C184.576 8.64392 185.009 8.96672 185.385 8.92061C185.702 8.88602 185.977 8.40182 186.266 8.12513C185.89 7.89456 185.543 7.51415 185.139 7.46803C184.85 7.43345 184.46 7.85998 183.767 8.3096Z"
				fill="black" />
			<path
				d="M194.486 7.09897C195.295 7.37566 195.757 7.68692 196.147 7.62928C196.465 7.58316 196.711 7.08743 196.999 6.79922C196.609 6.58017 196.234 6.21126 195.815 6.18821C195.512 6.17668 195.15 6.6263 194.486 7.09897Z"
				fill="black" />
			<path
				d="M131.904 15.7341C132.338 15.1692 132.843 14.7773 132.757 14.5697C132.627 14.2469 132.121 13.9011 131.717 13.8549C131.457 13.8319 130.835 14.3853 130.85 14.6274C130.879 14.9502 131.384 15.2269 131.919 15.7341H131.904Z"
				fill="black" />
			<path
				d="M89.1585 20.8409C89.5919 20.2875 90.112 19.8956 90.0253 19.6881C89.8953 19.3653 89.3897 19.0194 88.9852 18.9618C88.7396 18.9272 88.104 19.4805 88.1184 19.7226C88.1473 20.0454 88.6529 20.3221 89.1585 20.8294V20.8409Z"
				fill="black" />
			<path
				d="M67.9655 23.3659C68.37 22.7895 68.8756 22.3514 68.7745 22.167C68.6011 21.8557 68.0377 21.5444 67.6188 21.5444C67.3443 21.5444 66.7376 22.1324 66.7954 22.3514C66.882 22.6742 67.4165 22.9163 67.9799 23.3775L67.9655 23.3659Z"
				fill="black" />
			<path
				d="M57.1598 24.6685C57.6077 24.0805 58.0988 23.677 57.9977 23.481C57.8532 23.1582 57.3476 22.8239 56.9287 22.7778C56.6975 22.7547 56.0908 23.3081 56.1052 23.5617C56.1197 23.873 56.6253 24.1497 57.1454 24.657L57.1598 24.6685Z"
				fill="black" />
			<path
				d="M46.2098 23.6655C45.863 24.2535 45.4152 24.6916 45.5308 24.8991C45.7041 25.2104 46.2675 25.4986 46.7009 25.4986C46.9465 25.4986 47.5099 24.876 47.4377 24.657C47.3365 24.3342 46.802 24.1151 46.2098 23.6655Z"
				fill="black" />
			<path
				d="M110.351 15.999C109.946 16.587 109.47 17.002 109.571 17.2095C109.73 17.5208 110.25 17.8205 110.669 17.8666C110.9 17.8897 111.492 17.3133 111.449 17.0827C111.391 16.7599 110.885 16.5063 110.351 15.999Z"
				fill="black" />
			<path
				d="M119.698 15.9069C120.478 16.2643 120.911 16.6102 121.301 16.5871C121.619 16.564 121.922 16.0798 122.24 15.8031C121.879 15.561 121.547 15.1576 121.128 15.1114C120.81 15.0769 120.405 15.4804 119.683 15.8954L119.698 15.9069Z"
				fill="black" />
			<path
				d="M141.035 13.359C141.8 13.7164 142.219 14.0738 142.609 14.0392C142.942 14.0161 143.245 13.532 143.563 13.2553C143.187 13.0016 142.855 12.6097 142.436 12.5635C142.147 12.529 141.728 12.944 141.035 13.3706V13.359Z"
				fill="black" />
			<path
				d="M206.476 14.5122C207.025 14.7543 207.372 15.0541 207.69 15.0195C208.007 14.9849 208.282 14.616 208.571 14.3969C208.267 14.1548 207.978 13.7398 207.646 13.7283C207.343 13.7283 206.996 14.1433 206.491 14.5122H206.476Z"
				fill="black" />
			<path
				d="M67.7344 31.1821C68.3267 31.3781 68.7167 31.6432 69.049 31.5856C69.309 31.551 69.4968 31.1244 69.7135 30.8708C69.3812 30.6864 69.0634 30.3636 68.7167 30.3521C68.4711 30.3521 68.1967 30.7786 67.7344 31.1821Z"
				fill="black" />
			<path
				d="M101.004 28.0234C101.322 27.643 101.77 27.3086 101.697 27.1472C101.582 26.8705 101.134 26.6861 100.831 26.467C100.571 26.7437 100.166 27.0089 100.094 27.3086C100.05 27.47 100.585 27.7121 101.004 28.0234Z"
				fill="black" />
			<path
				d="M143.548 21.1177C143.216 21.5558 142.782 21.8785 142.84 22.0745C142.912 22.3397 143.375 22.6394 143.707 22.6625C143.938 22.674 144.473 22.1898 144.429 22.0169C144.357 21.7287 143.938 21.4981 143.534 21.1177H143.548Z"
				fill="black" />
			<path
				d="M217.267 13.2553C217.787 13.4858 218.134 13.7741 218.423 13.7279C218.712 13.6934 218.943 13.3129 219.203 13.0823C218.885 12.8633 218.611 12.5174 218.25 12.4713C218.033 12.4483 217.701 12.8864 217.253 13.2553H217.267Z"
				fill="black" />
			<path
				d="M46.6864 33.834C47.0331 33.9492 47.4087 34.2259 47.6976 34.1568C47.9865 34.0876 48.1743 33.6956 48.4199 33.442C48.0732 33.246 47.7554 32.9117 47.3942 32.9001C47.0475 32.9001 46.6864 33.2345 46.3252 33.4189C46.4408 33.5573 46.5708 33.6956 46.6864 33.834Z"
				fill="black" />
			<path
				d="M57.0586 32.4849C57.5931 32.6694 57.9687 32.9346 58.2721 32.8654C58.5466 32.8078 58.9655 32.289 58.8933 32.1852C58.7199 31.9201 58.301 31.6318 57.9687 31.6318C57.7231 31.6318 57.4631 32.0814 57.0586 32.4849Z"
				fill="black" />
			<path
				d="M110.51 26.0984C111.059 26.2829 111.434 26.548 111.723 26.4904C112.012 26.4212 112.214 26.0292 112.446 25.7871C112.113 25.5912 111.781 25.2684 111.42 25.2568C111.189 25.2568 110.914 25.7065 110.51 26.0984Z"
				fill="black" />
			<path
				d="M195.93 15.8261C196.494 16.0451 196.884 16.3448 197.144 16.2641C197.447 16.1719 197.808 15.7915 197.823 15.5263C197.823 15.3418 197.259 14.9614 197.043 15.0075C196.696 15.0767 196.421 15.4341 195.93 15.8261Z"
				fill="black" />
			<path
				d="M174.536 18.374C175.056 18.6045 175.402 18.9043 175.706 18.8582C175.98 18.8236 176.211 18.4201 176.457 18.1895C176.139 17.982 175.85 17.6246 175.518 17.6015C175.287 17.59 174.969 18.0166 174.536 18.3855V18.374Z"
				fill="black" />
			<path
				d="M153.184 20.8639C153.733 21.129 154.109 21.4518 154.354 21.3942C154.686 21.3135 154.918 20.933 155.192 20.6794C154.918 20.4719 154.614 20.0915 154.354 20.1145C154.022 20.1491 153.704 20.5065 153.199 20.8639H153.184Z"
				fill="black" />
			<path
				d="M131.833 23.5155C132.353 23.723 132.728 24.0112 133.003 23.9421C133.292 23.8729 133.494 23.4809 133.739 23.2388C133.407 23.0429 133.104 22.7201 132.743 22.697C132.526 22.6855 132.251 23.1351 131.847 23.5155H131.833Z"
				fill="black" />
			<path
				d="M89.0859 28.5883C89.5771 28.8073 89.9238 29.1186 90.1983 29.061C90.5017 29.0033 90.7328 28.6229 90.9929 28.3923C90.675 28.1733 90.4006 27.839 90.0394 27.7929C89.8227 27.7698 89.5049 28.2079 89.0859 28.5883Z"
				fill="black" />
			<path
				d="M122.153 23.6885C121.893 24.1266 121.503 24.484 121.604 24.68C121.705 24.9221 122.211 25.0373 122.543 25.2103C122.745 24.9451 123.121 24.6569 123.077 24.4379C123.019 24.1958 122.586 24.0113 122.167 23.7L122.153 23.6885Z"
				fill="black" />
			<path
				d="M163.744 19.6651C164.322 19.8842 164.683 20.1493 164.987 20.1032C165.261 20.0571 165.68 19.6421 165.651 19.4461C165.608 19.204 165.117 18.812 164.914 18.8466C164.553 18.9158 164.264 19.2732 163.744 19.6651Z"
				fill="black" />
			<path
				d="M185.254 17.0594C185.76 17.29 186.092 17.5898 186.381 17.5436C186.685 17.4975 186.93 17.1286 187.19 16.9096C186.887 16.6905 186.612 16.3216 186.266 16.287C186.034 16.264 185.702 16.6905 185.254 17.0594Z"
				fill="black" />
			<path
				d="M79.6959 30.6058C80.0137 30.1792 80.4182 29.8449 80.3315 29.672C80.2159 29.3953 79.7681 29.2339 79.4647 29.0264C79.2336 29.2915 78.8291 29.5567 78.8291 29.8103C78.8291 30.0409 79.2769 30.2484 79.6959 30.6173V30.6058Z"
				fill="black" />
			<path
				d="M81.7112 58.2542V30.2542L88.2073 29.3412V32.8612L85.7673 33.2042V54.1642L88.2073 53.8213V57.3413L81.7112 58.2542ZM90.3154 52.885V30.485L95.5123 29.7546L101.977 45.5821L108.441 27.9376L113.638 27.2072V49.6072L109.487 50.1906V35.1506L109.329 35.1729L103.561 51.0234L100.392 51.4688L94.5933 37.2438L94.4666 37.2616V52.3016L90.3154 52.885ZM115.909 49.2881V26.8881L130.771 24.7993V28.4793L120.06 29.9846V35.6806L129.82 34.309V37.605L120.06 38.9766V45.0246L131.088 43.4748V47.1548L115.909 49.2881ZM132.404 46.9698V24.5698L136.777 23.9552L146.474 38.3044L146.569 38.291V22.579L150.752 21.9912V44.3912L146.189 45.0325L136.651 30.917L136.555 30.9304V46.3864L132.404 46.9698ZM161.829 43.1545C156.442 43.9116 152.861 41.4708 152.861 35.6148V21.6948L157.044 21.1069V34.7069C157.044 38.2909 158.818 39.8975 161.829 39.4745C164.839 39.0514 166.582 36.9504 166.582 33.3664V19.7664L170.796 19.1741V33.0941C170.796 38.9501 167.152 42.4063 161.829 43.1545ZM179.442 44.5191L172.946 45.432V41.912L175.386 41.5691V20.6091L172.946 20.952V17.432L179.442 16.5191V44.5191Z"
				fill="black" />
			<path
				d="M56.072 26.16C53.816 26.16 51.624 24.56 51.624 20.4C51.624 16.272 53.816 14.656 56.072 14.656C58.328 14.656 60.52 16.272 60.52 20.4C60.52 24.56 58.328 26.16 56.072 26.16ZM56.072 24.432C57.832 24.432 58.552 22.624 58.552 20.4C58.552 18.208 57.832 16.384 56.072 16.384C54.296 16.384 53.576 18.208 53.576 20.4C53.576 22.624 54.296 24.432 56.072 24.432ZM63.3509 26V17.344C62.7909 17.936 61.9109 18.176 61.0309 18.192V16.512C62.2149 16.384 63.0309 15.84 63.3509 14.8H65.3989V26H63.3509Z"
				fill="black" />
		</g>
		<path d="M52 1H209.998C216.073 1 220.998 5.92487 220.998 12V81.3348H41V12C41 5.92488 45.9249 1 52 1Z" stroke="black"
			stroke-width="2" />
		<mask id="mask0_2589_3408" style="mask-type:luminance" maskUnits="userSpaceOnUse" x="-320" y="-70" width="1077"
			height="272">
			<path d="M756.615 -69.7915L-318.039 110.471L-319.167 201.54L756.615 37.9219V-69.7915Z" fill="white" />
		</mask>
		<g mask="url(#mask0_2589_3408)">
			<path d="M9.40934 102.864L-8.41383 105.45L-8.69434 88.1429L9.12884 85.5566L9.40934 102.864Z" fill="#F3E7D3" />
			<path d="M27.2326 100.277L9.40941 102.864L9.12891 85.5565L26.9521 82.9646L27.2326 100.277Z" fill="#D33E27" />
			<path d="M45.0559 97.6916L27.2327 100.278L26.9521 82.9652L44.7754 80.3789L45.0559 97.6916Z" fill="#F3E7D3" />
			<path d="M62.8847 95.1049L45.0559 97.6912L44.7754 80.3785L62.5986 77.7922L62.8847 95.1049Z" fill="#D33E27" />
			<path d="M80.708 92.5129L62.8848 95.1047L62.5986 77.7921L80.4275 75.2058L80.708 92.5129Z" fill="#F3E7D3" />
			<path d="M98.5314 89.9272L80.7082 92.5134L80.4277 75.2064L98.2509 72.6201L98.5314 89.9272Z" fill="#D33E27" />
			<path d="M116.355 87.341L98.5315 89.9273L98.251 72.6202L116.074 70.0283L116.355 87.341Z" fill="#F3E7D3" />
			<path d="M134.184 84.7543L116.355 87.3406L116.074 70.0279L133.897 67.4417L134.184 84.7543Z" fill="#D33E27" />
			<path d="M152.007 82.1625L134.184 84.7544L133.897 67.4417L151.726 64.8555L152.007 82.1625Z" fill="#F3E7D3" />
			<path d="M169.83 79.5766L152.007 82.1628L151.727 64.8558L169.55 62.2695L169.83 79.5766Z" fill="#D33E27" />
			<path d="M187.653 76.9902L169.829 79.5764L169.549 62.2693L187.372 59.6775L187.653 76.9902Z" fill="#F3E7D3" />
			<path d="M205.476 74.4037L187.653 76.99L187.372 59.6773L205.195 57.0911L205.476 74.4037Z" fill="#D33E27" />
			<path d="M223.305 71.8117L205.476 74.4036L205.195 57.0909L223.024 54.5046L223.305 71.8117Z" fill="#F3E7D3" />
			<path d="M241.128 69.226L223.305 71.8123L223.024 54.5052L240.848 51.9189L241.128 69.226Z" fill="#D33E27" />
			<path d="M258.951 66.6398L241.128 69.2261L240.848 51.919L258.671 49.3271L258.951 66.6398Z" fill="#F3E7D3" />
			<path d="M276.775 64.0534L258.951 66.6397L258.671 49.327L276.494 46.7407L276.775 64.0534Z" fill="#D33E27" />
			<path d="M10.425 120.165L-7.39821 122.751L-7.67871 105.444L10.1445 102.858L10.425 120.165Z" fill="#D33E27" />
			<path d="M27.5751 117.674L9.75194 120.266L9.46582 102.953L27.2946 100.367L27.5751 117.674Z" fill="#F3E7D3" />
			<path d="M45.3986 115.088L27.5754 117.674L27.2949 100.367L45.1181 97.781L45.3986 115.088Z" fill="#D33E27" />
			<path d="M63.2219 112.502L45.3987 115.088L45.1182 97.7811L62.9414 95.1892L63.2219 112.502Z" fill="#F3E7D3" />
			<path d="M81.0451 109.916L63.2219 112.502L62.9414 95.1893L80.7646 92.603L81.0451 109.916Z" fill="#D33E27" />
			<path d="M98.873 107.324L81.0442 109.916L80.7637 92.6031L98.5925 90.0168L98.873 107.324Z" fill="#F3E7D3" />
			<path d="M116.696 104.737L98.8733 107.324L98.5928 90.0167L116.416 87.4304L116.696 104.737Z" fill="#D33E27" />
			<path d="M134.52 102.151L116.697 104.738L116.416 87.4305L134.239 84.8386L134.52 102.151Z" fill="#F3E7D3" />
			<path d="M152.343 99.5649L134.52 102.151L134.239 84.8384L152.062 82.2522L152.343 99.5649Z" fill="#D33E27" />
			<path d="M170.172 96.9792L152.343 99.5654L152.062 82.2527L169.886 79.6665L170.172 96.9792Z" fill="#F3E7D3" />
			<path d="M187.995 94.3869L170.172 96.9788L169.886 79.6661L187.715 77.0798L187.995 94.3869Z" fill="#D33E27" />
			<path d="M205.819 91.8007L187.995 94.387L187.715 77.0799L205.538 74.4937L205.819 91.8007Z" fill="#F3E7D3" />
			<path d="M223.642 89.2143L205.819 91.8005L205.538 74.4935L223.361 71.9016L223.642 89.2143Z" fill="#D33E27" />
			<path d="M241.471 86.6286L223.642 89.2148L223.361 71.9022L241.185 69.3159L241.471 86.6286Z" fill="#F3E7D3" />
			<path d="M259.293 84.0363L241.47 86.6282L241.184 69.3155L259.012 66.7292L259.293 84.0363Z" fill="#D33E27" />
			<path d="M277.116 81.4501L259.293 84.0364L259.013 66.7293L276.836 64.1431L277.116 81.4501Z" fill="#F3E7D3" />
			<path d="M295.108 61.5569L276.864 64.2049L276.578 46.4827L294.822 43.8347L295.108 61.5569Z" fill="#F3E7D3" />
			<path d="M295.377 79.0545L277.134 81.7025L276.842 63.9858L295.091 61.3323L295.377 79.0545Z" fill="#D33E27" />
			<path d="M313.924 59.5875L295.68 62.2354L295.389 44.5188L313.638 41.8708L313.924 59.5875Z" fill="#D33E27" />
			<path d="M332.174 56.9397L313.925 59.5877L313.639 41.8711L331.883 39.2231L332.174 56.9397Z" fill="#F3E7D3" />
			<path d="M350.418 54.2916L332.174 56.9395L331.882 39.2229L350.131 36.575L350.418 54.2916Z" fill="#D33E27" />
			<path d="M368.662 51.6441L350.418 54.292L350.132 36.5754L368.376 33.9219L368.662 51.6441Z" fill="#F3E7D3" />
			<path d="M386.912 48.9959L368.662 51.6439L368.376 33.9216L386.62 31.2737L386.912 48.9959Z" fill="#D33E27" />
			<path d="M405.156 46.348L386.912 48.9959L386.62 31.2737L404.87 28.6257L405.156 46.348Z" fill="#F3E7D3" />
			<path d="M313.846 77.0518L295.597 79.6998L295.311 61.9775L313.555 59.3296L313.846 77.0518Z" fill="#F3E7D3" />
			<path d="M332.09 74.4036L313.846 77.0516L313.555 59.3294L331.804 56.6814L332.09 74.4036Z" fill="#D33E27" />
			<path d="M350.334 71.7501L332.09 74.4036L331.804 56.6814L350.048 54.0334L350.334 71.7501Z" fill="#F3E7D3" />
			<path d="M368.584 69.1021L350.334 71.7501L350.048 54.0335L368.292 51.3855L368.584 69.1021Z" fill="#D33E27" />
			<path d="M386.828 66.4542L368.584 69.1021L368.292 51.3855L386.542 48.7375L386.828 66.4542Z" fill="#F3E7D3" />
			<path d="M405.077 63.8064L386.827 66.4544L386.541 48.7378L404.785 46.0842L405.077 63.8064Z" fill="#D33E27" />
		</g>
		<path fill-rule="evenodd" clip-rule="evenodd"
			d="M682.477 -10.8283L-313.591 131.948L-313.769 130.711L682.3 -12.0657L682.477 -10.8283Z" fill="black" />
		<path fill-rule="evenodd" clip-rule="evenodd"
			d="M682.478 6.56292L-313.03 149.9L-313.208 148.663L682.299 5.32568L682.478 6.56292Z" fill="black" />
		<path fill-rule="evenodd" clip-rule="evenodd"
			d="M682.477 24.515L-311.347 167.852L-311.525 166.615L682.299 23.2778L682.477 24.515Z" fill="black" />
		<path
			d="M356.185 155H43.8156C39.0794 155 38.5858 147.876 43.274 147.183L355.644 101.041C357.942 100.701 360 102.538 360 104.929V151.072C360 153.241 358.292 155 356.185 155Z"
			fill="#F3E7D3" />
		<path
			d="M260.653 145.34V129.59H264.343V131.57H262.957V143.36H264.343V145.34H260.653ZM270.419 143.18C267.215 143.18 265.271 141.632 265.271 139.004H267.701C267.773 140.228 268.565 141.2 270.437 141.2C272.057 141.2 272.903 140.516 272.903 139.364C272.903 138.356 272.201 137.888 270.977 137.654L269.213 137.312C267.161 136.916 265.613 135.962 265.613 133.802C265.613 131.498 267.449 130.238 270.257 130.238C273.101 130.238 275.063 131.552 275.063 133.964H272.633C272.633 132.83 271.697 132.218 270.293 132.218C268.691 132.218 268.097 133.01 268.097 133.874C268.097 134.576 268.493 135.242 269.753 135.476L271.427 135.8C274.199 136.322 275.405 137.402 275.405 139.364C275.405 141.956 273.281 143.18 270.419 143.18ZM276.352 143V130.4H281.302C284.542 130.4 286.018 132.074 286.018 134.522C286.018 136.952 284.542 138.626 281.302 138.626H278.71V143H276.352ZM278.71 136.556H281.212C282.832 136.556 283.57 135.782 283.57 134.522C283.57 133.244 282.832 132.47 281.212 132.47H278.71V136.556ZM286.776 143V130.4H295.218V132.47H289.134V135.674H294.678V137.528H289.134V140.93H295.398V143H286.776ZM301.69 143.18C298.18 143.18 295.876 140.822 295.876 136.7C295.876 132.596 298.18 130.238 301.69 130.238C304.444 130.238 306.604 131.606 306.892 134.594H304.588C304.174 132.992 303.13 132.29 301.69 132.29C299.404 132.29 298.306 134.072 298.306 136.7C298.306 139.328 299.368 141.128 301.69 141.128C303.094 141.128 304.174 140.426 304.588 138.806H306.892C306.604 141.812 304.444 143.18 301.69 143.18ZM307.678 143V130.4H310.036V143H307.678ZM320.391 143L319.491 140.426H314.001L313.101 143H310.617L315.243 130.4H318.267L322.893 143H320.391ZM314.631 138.662H318.879L316.827 132.83H316.683L314.631 138.662ZM323.465 143V130.4H325.823V140.93H331.799V143H323.465ZM337.431 143.18C334.227 143.18 332.283 141.632 332.283 139.004H334.713C334.785 140.228 335.577 141.2 337.449 141.2C339.069 141.2 339.915 140.516 339.915 139.364C339.915 138.356 339.213 137.888 337.989 137.654L336.225 137.312C334.173 136.916 332.625 135.962 332.625 133.802C332.625 131.498 334.461 130.238 337.269 130.238C340.113 130.238 342.075 131.552 342.075 133.964H339.645C339.645 132.83 338.709 132.218 337.305 132.218C335.703 132.218 335.109 133.01 335.109 133.874C335.109 134.576 335.505 135.242 336.765 135.476L338.439 135.8C341.211 136.322 342.417 137.402 342.417 139.364C342.417 141.956 340.293 143.18 337.431 143.18ZM347.055 145.34H343.365V143.36H344.751V131.57H343.365V129.59H347.055V145.34Z"
			fill="black" />
	</g>
	<defs>
		<clipPath id="clip0_2589_3408">
			<rect width="400" height="155" fill="white" />
		</clipPath>
		<clipPath id="clip1_2589_3408">
			<path d="M40 12C40 5.3726 45.3726 0 52 0H209.998C216.625 0 221.998 5.37258 221.998 12V82.3348H40V12Z"
				fill="white" />
		</clipPath>
	</defs>
</svg>