<svg width="427" height="302" viewBox="0 0 427 302" fill="none" xmlns="http://www.w3.org/2000/svg">
<g id="taco_full">
<g id="taco_eyes">
<path id="Vector" d="M187.9 171.6L187.3 173.4L187.8 175.1L188 176.9L187.9 178.6L187.4 180.4L187.2 182.1V183.9L187.3 185.6L187.7 187.4V189.1L187.3 190.8L186.7 192.5L185.8 193.9L185.1 195.4L184.4 197.1L183.4 198.5L182.4 200L180.7 200.6L179.1 201.3L177.7 202.4L176.1 202.8L174.5 203.7L172.7 203.3L171 204V203.9H169.2L167.6 203L166 202.5L164.2 202.6L162.8 201.4L161 201.1L160 199.5L158.3 199L157.1 197.8L156.4 196.1L154.7 195.2L154.3 193.4L152.9 192.3L152.7 190.5L152.2 188.9L152 187.2L151.5 185.5L151.2 183.9V182.2V180.6V179V177.3L151 175.7L151.6 174.1V172.5L151.4 170.8L151.5 169L151.8 167.3L152.3 165.7L152.9 164L153.5 162.3L154.8 161.1L155.8 159.7L156.8 158.3L158.5 157.5L159.5 155.9L161.3 155.5L163 155.1L164.6 154.4L166.3 154.1L168 153.4L169.8 154.2L171.6 153.4L173.2 154.2H175.1L176.5 155.4L178.3 155.8L180 156.3L181.2 157.7L182.6 158.8L183.6 160.3L185 161.4L185.4 163.3L186.3 164.7L186.8 166.4L187.5 168.1L187.6 169.9L187.9 171.6Z" fill="black"/>
<path id="Vector_2" d="M268.4 171.3L267.8 173L268.4 174.7L268.6 176.5L268.4 178.2L268 180L267.8 181.7L267.7 183.5L267.8 185.2L268.3 187V188.7L267.8 190.4L267.3 192.1L266.3 193.5L265.6 195L265 196.7L264 198.1L263 199.6L261.3 200.2L259.7 200.9L258.3 202L256.6 202.4L255 203.3L253.2 203L251.5 203.7V203.5H249.8L248.2 202.6L246.5 202.2H244.7L243.4 201L241.6 200.7L240.6 199.1L238.8 198.6L237.6 197.4L236.9 195.7L235.3 194.8L234.9 193.1L233.4 191.9L233.3 190.1L232.7 188.5L232.6 186.8L232 185.2L231.8 183.5V181.8V180.2V178.6V177L231.6 175.3L232.2 173.7L232.1 172.1L231.9 170.4L232 168.7L232.4 166.9L232.9 165.3L233.4 163.6L234 161.9L235.3 160.7L236.3 159.3L237.4 157.9L239 157.1L240 155.5L241.8 155.1L243.5 154.7L245.1 154L246.9 153.7L248.6 153L250.3 153.8L252.1 153L253.8 153.9L255.6 153.8L257 155L258.8 155.4L260.6 155.9L261.8 157.3L263.2 158.4L264.1 159.9L265.5 161.1L265.9 162.9L266.9 164.4L267.4 166L268 167.7L268.2 169.5L268.4 171.3Z" fill="black"/>
</g>
</g>
</svg>
