<svg width="101" height="228" viewBox="0 0 101 228" fill="none" xmlns="http://www.w3.org/2000/svg">
	<path d="M48.5 0V228" stroke="#1F1D1A" stroke-width="2" />
	<circle cx="50.5" cy="114" r="49" fill="#F3E7D3" stroke="black" stroke-width="2" />
	<path
		d="M42.8458 147.437C40.2105 147.437 37.6352 147.108 35.1198 146.449C32.6044 145.85 30.3285 144.862 28.2922 143.485C26.3158 142.047 24.7287 140.221 23.5309 138.005C22.333 135.729 21.7341 133.004 21.7341 129.829C21.7341 125.936 22.9918 122.493 25.5073 119.498C28.0826 116.504 31.5263 114.078 35.8385 112.221C34.2813 110.185 32.9937 108.299 31.9755 106.562C30.9574 104.765 30.2087 102.998 29.7296 101.261C29.2505 99.4646 29.0109 97.6379 29.0109 95.7813C29.0708 91.4691 30.6579 88.0553 33.7722 85.5399C36.8866 82.9646 40.8394 81.6769 45.6307 81.6769C48.6851 81.6769 51.3204 82.2459 53.5363 83.3838C55.8122 84.4618 57.549 85.9591 58.7469 87.8756C60.0046 89.7323 60.6334 91.8584 60.6334 94.254C60.6334 96.47 60.1543 98.5961 59.196 100.632C58.2378 102.669 56.6806 104.645 54.5245 106.562C52.3684 108.418 49.4937 110.275 45.9002 112.132C47.5173 113.809 49.2841 115.665 51.2006 117.701C53.177 119.738 55.1534 121.744 57.1298 123.72C59.1062 125.637 60.9029 127.374 62.52 128.931C62.8195 127.853 63.0291 126.835 63.1489 125.877C63.3285 124.858 63.4184 123.96 63.4184 123.181C63.4184 121.804 63.2087 120.456 62.7895 119.139C62.4302 117.761 61.7414 116.623 60.7233 115.725C59.765 114.767 58.3875 114.258 56.5908 114.198V111.233H72.3122V114.916L64.8558 114.557C65.814 115.336 66.5028 116.354 66.922 117.612C67.3412 118.869 67.5808 120.337 67.6407 122.014C67.7006 123.152 67.5808 124.619 67.2813 126.416C67.0418 128.152 66.5627 129.979 65.844 131.896C66.5028 132.495 67.1915 133.153 67.9102 133.872C68.6888 134.531 69.4973 135.22 70.3358 135.938C73.0309 138.334 75.3367 140.131 77.2532 141.328C79.2296 142.466 80.697 143.035 81.6552 143.035V146H73.3004C72.7614 146 71.5336 145.461 69.6171 144.383C67.7605 143.245 65.275 141.299 62.1607 138.544C60.2441 140.999 57.6988 143.095 54.5245 144.832C51.4102 146.569 47.5173 147.437 42.8458 147.437ZM43.9238 142.946C47.6969 143.065 50.8113 142.466 53.2668 141.149C55.7822 139.771 57.7886 138.064 59.2859 136.028C58.8666 135.609 58.4474 135.22 58.0282 134.86C57.6089 134.441 57.1597 134.022 56.6806 133.603C52.6679 129.65 49.1044 126.146 45.99 123.092C42.9356 120.037 40.3303 117.282 38.1742 114.827C36.2577 115.965 34.7604 117.372 33.6824 119.049C32.6044 120.726 31.8258 122.403 31.3467 124.08C30.9274 125.757 30.7178 127.224 30.7178 128.482C30.7178 131.776 31.3467 134.471 32.6044 136.567C33.922 138.663 35.569 140.221 37.5454 141.239C39.5817 142.257 41.7078 142.826 43.9238 142.946ZM43.9238 109.975C47.2777 107.759 49.7632 105.304 51.3802 102.609C52.9973 99.8539 53.8058 97.1588 53.8058 94.5236C53.8058 91.6488 53.0572 89.2831 51.5599 87.4265C50.0626 85.5099 47.9365 84.5517 45.1815 84.5517C42.726 84.5517 40.6597 85.48 38.9828 87.3366C37.3657 89.1333 36.5572 91.7087 36.5572 95.0626C36.5572 97.6379 37.2459 100.183 38.6234 102.699C40.0608 105.214 41.8276 107.64 43.9238 109.975Z"
		fill="black" />
</svg>