<svg width="997" height="154" viewBox="0 0 997 154" fill="none" xmlns="http://www.w3.org/2000/svg">
	<path
		d="M0.0760002 151.5V2.39999H60.568C93.796 2.39999 108.919 17.097 108.919 39.675C108.919 55.863 101.464 65.022 87.406 69.495C109.558 75.459 119.143 89.304 119.143 107.835C119.143 131.904 102.529 151.5 63.124 151.5H0.0760002ZM32.026 62.892H59.29C68.875 62.892 76.969 57.78 76.969 45.639C76.969 33.498 68.875 29.238 59.29 29.238H32.026V62.892ZM32.026 124.662H62.059C79.951 124.662 86.128 115.077 86.128 104.214C86.128 92.925 79.951 83.127 62.059 83.127H32.026V124.662ZM246.026 151.5H214.502L186.173 101.871H159.335V151.5H127.385V2.39999H187.664C227.282 2.39999 244.535 23.061 244.535 52.242C244.535 73.542 235.376 90.156 214.715 97.611L246.026 151.5ZM159.335 30.09V74.181H186.599C204.065 74.181 211.733 65.448 211.733 52.242C211.733 38.823 204.065 30.09 186.599 30.09H159.335ZM361.229 151.5L351.644 123.597H288.809L279.224 151.5H245.783L299.672 2.39999H340.781L394.67 151.5H361.229ZM296.903 99.954H343.55L321.185 34.989H319.268L296.903 99.954ZM400.932 151.5V2.39999H434.16L494.226 100.38H494.865V2.39999H526.815V151.5H492.309L433.521 55.437H432.882V151.5H400.932ZM541.554 151.5V2.39999H597.999C644.433 2.39999 668.502 29.025 668.502 76.95C668.502 124.875 644.433 151.5 597.999 151.5H541.554ZM573.504 123.81H594.804C625.263 123.81 635.913 109.752 635.913 76.95C635.913 44.148 625.263 30.09 594.804 30.09H573.504V123.81ZM678.847 151.5V2.39999H710.797V151.5H678.847ZM725.449 151.5V2.39999H758.677L818.743 100.38H819.382V2.39999H851.332V151.5H816.826L758.038 55.437H757.399V151.5H725.449ZM932.978 153.63C888.035 153.63 861.836 125.301 861.836 77.376C861.836 28.812 890.378 0.482989 932.126 0.482989C963.011 0.482989 988.784 15.606 993.896 49.686H962.372C957.26 32.22 943.415 27.96 931.913 27.96C906.566 27.96 894.638 48.834 894.638 76.524C894.638 104.427 906.14 126.153 932.126 126.153C948.101 126.153 964.928 118.272 964.928 95.055H936.173V69.495H996.665V81.636C996.665 130.626 974.087 153.63 932.978 153.63Z"
		fill="black" />
</svg>