<svg width="337" height="134" viewBox="0 0 337 134" fill="none" xmlns="http://www.w3.org/2000/svg">
	<path
		d="M83.1 26.0181C86.7597 27.4925 89.1149 30.3249 90.2941 33.8366C91.1207 36.6185 91.3206 39.8389 90.7735 43.2231C90.6625 44.0906 90.4657 45.0612 90.2602 45.9373C89.5667 48.7634 88.2977 51.5469 86.8312 54.2533L82.9739 52.7017C84.1917 50.3991 85.2119 48.0195 85.7512 45.5886C85.9826 44.9958 86.1109 44.3173 86.2392 43.6387C86.3754 42.0069 86.2369 40.4954 85.7465 39.302C85.0152 37.5592 83.6486 36.1603 81.4752 35.3117C79.9889 34.6859 78.0564 34.3867 75.8577 34.3025C66.0154 33.9663 54.3751 41.0345 43.7762 51.1507C31.6069 62.8398 21.0379 78.4782 16.0927 92.077C13.8302 98.5714 13.1989 104.154 16.1658 109.502C17.9976 112.859 21.3573 115.218 26.09 115.928C27.8249 116.15 29.6371 116.174 31.7239 116.078C39.6675 115.445 48.6314 112.432 57.4299 106.577C66.3229 100.714 73.6171 92.9959 86.1966 78.5068L89.8051 80.4622C76.1275 96.4808 67.5722 106.029 57.5897 113.516C48.2251 120.471 38.7126 124.773 30.3825 125.346C28.0123 125.468 25.8223 125.478 23.8897 125.179C17.9031 124.299 13.8215 121.339 11.4221 116.986C7.42319 109.732 9.13068 96.1444 12.4645 86.7894C17.6152 72.3144 28.862 55.7566 41.6493 43.5346C53.2951 32.3698 66.3091 24.6994 77.577 25.0002C79.6812 25.0931 81.5193 25.4009 83.1 26.0181ZM105.626 54.7215C105.008 56.3021 103.833 58.0293 102.83 59.5501C102.684 60.0397 102.547 60.6238 102.762 60.8899C103.063 61.0529 103.741 61.1812 104.411 61.215C105.373 61.3174 106.24 61.4284 107.048 61.9259C108.457 62.7493 109.077 64.3119 107.594 67.8771C108.445 69.8947 107.023 74.1212 100.528 83.2896C98.9328 85.6268 97.0545 89.0377 96.0862 91.9842C96.1122 92.2676 96.1382 92.551 96.1641 92.8344C96.3964 93.2894 96.6113 93.5554 97.1954 93.6924C97.9597 93.7176 99.2649 93.4074 101.102 92.6675C104.296 91.1364 107.42 88.8496 110.218 86.1165C113.548 82.9535 116.362 79.3616 118.258 76.1396L118.352 76.1309L118.429 75.9333L122.201 77.588L122.124 77.7856C119.722 81.7208 116.033 87.2028 111.785 91.7835C108.49 95.3243 104.963 98.4101 101.305 100.079C98.4635 101.292 96.3168 101.775 94.7794 101.63C92.7611 101.434 91.5149 100.31 91.067 98.5407C90.5593 97.1584 90.6868 95.4321 91.1836 93.5767C91.2434 93.1901 91.3977 92.795 91.4488 92.314C91.5598 91.4465 91.6708 90.579 91.8676 89.6084C92.706 85.245 95.3558 79.8582 97.6292 76.6016C99.4823 73.955 100.821 71.9272 101.833 70.5008C100.673 70.3213 99.5138 70.1418 98.5684 69.1807C98.2503 68.8288 97.9236 68.3824 97.7859 67.9188C96.5161 69.6545 94.8347 72.0948 93.2304 74.3376C91.0341 77.3966 87.1311 83.6603 86.4533 84.5798L86.3589 84.5884L83.0936 82.2205L83.0849 82.126L83.1794 82.1174C83.5226 81.7049 84.8608 79.6771 88.4977 73.6283C90.7192 69.8049 94.005 65.1219 96.2871 61.9597C98.1402 59.3131 100.096 55.7046 101.88 53.3501L105.626 54.7215ZM153.689 62.3183C151.496 68.5206 144.792 74.3741 137.272 78.588C132.113 81.5376 126.601 83.7575 121.844 84.8603C122.344 87.1959 123.376 89.1017 124.923 90.3888C126.366 91.5901 128.231 92.1813 130.206 91.905C134.542 91.4122 139.71 88.5571 144.448 85.1698C150.251 80.9229 155.117 75.8093 156.729 72.6132L160.749 73.8641C158.828 77.8505 154.976 82.5854 150.419 86.9087C146.205 90.8195 141.304 94.5075 136.461 96.7612C135.732 97.1139 135.002 97.4665 134.358 97.7161C129.67 99.5746 125.78 99.7407 122.834 98.7724C119.784 97.7184 117.755 95.3324 116.894 92.1725C116.765 91.8033 116.73 91.4255 116.704 91.1421C116.36 89.4591 116.375 87.5525 116.683 85.7144L116.116 85.7663C115.258 85.7498 114.399 85.7333 113.531 85.6223L115.203 80.992C115.683 81.0431 116.164 81.0943 116.731 81.0424C116.92 81.025 117.109 81.0077 117.298 80.9904C117.811 78.2762 118.797 75.5186 120.255 72.7178C122.605 68.2158 126.097 63.7044 129.95 60.0172C133.795 56.2355 138.086 53.1749 142.044 51.669C145.17 50.43 148.089 50.0671 150.546 50.8897C151.929 51.4297 153.055 52.2791 153.743 53.5497C154.44 54.9147 154.674 58.513 154.263 60.2653C154.144 61.0383 154.015 61.7168 153.689 62.3183ZM122.991 79.7065C126.881 78.4927 131.165 76.3854 135.302 73.7199C141.878 69.5927 147.585 64.3067 149.324 59.3844C149.496 59.1781 149.565 58.8861 149.642 58.6885C149.315 58.2421 148.903 57.8989 148.31 57.6675C147.03 57.2133 145.338 57.4636 143.501 58.2035C140.195 59.5544 136.444 62.2796 132.96 65.8377C129.382 69.4045 126.061 73.7097 123.883 78.0054C123.557 78.6068 123.326 79.1996 122.991 79.7065ZM205.908 68.4864L210.246 69.0414C208.489 73.7748 203.022 79.6103 199.237 83.0054C194.56 87.054 189.427 90.287 185.734 90.5302C184.6 90.6341 183.621 90.3428 182.908 89.8366C181.275 88.6527 181.05 86.1966 181.812 83.0786L181.889 82.881C180.061 84.7631 178.036 86.5682 176.002 88.2787C170.946 92.3619 165.4 95.2517 160.514 94.9376C157.25 94.6652 155.042 93.4387 153.898 91.3527C152.651 89.1808 152.486 86.3382 153.325 83.0225C153.289 81.5969 153.434 80.0595 153.854 78.4017C154.625 75.3781 156.219 71.9931 158.484 68.642C164.326 59.6287 182.623 42.0435 193.003 49.2842C194.842 50.6398 196.26 52.6054 197.044 54.9151C198.073 53.6776 199.446 52.0276 200.682 50.9618L202.986 54.2751C199.098 57.5845 191.55 70.8503 189.304 75.438C188.103 77.9295 187.169 80.2061 186.578 82.0702C186.604 82.3536 186.612 82.448 186.715 82.5338C186.819 82.6196 186.913 82.611 187.196 82.585C189.945 82.4284 194.125 80.2353 197.953 77.3124C200.632 75.3523 204.768 71.6391 205.908 68.4864ZM175.447 81.1853C185.43 74.7453 187.409 68.2769 193.826 59.306C193.662 57.5112 192.295 56.1124 190.526 55.5125C181.97 52.5817 166.144 68.0351 161.718 74.8231C159.959 77.461 158.673 80.0556 158.031 82.4007C158.074 82.873 158.212 83.3366 158.435 83.6972C159.106 84.7788 160.412 85.5164 162.422 85.618C166.441 85.8211 171.129 83.9625 175.447 81.1853ZM223.976 44.2543C222.981 45.8696 222.08 47.4762 221.18 49.0829C215.048 60.1233 210.066 71.2488 208.714 77.2787C208.629 78.4296 208.707 79.2797 208.879 80.1212C209.31 81.7012 209.972 82.6883 210.968 83.1685C211.166 83.2456 211.458 83.3141 211.664 83.4857C214.903 84.5225 218.74 82.7419 222.371 79.7419C226.353 76.4239 230.111 71.6975 232.513 67.7624C233.096 66.8516 233.68 65.9408 234.083 65.1418L234.074 65.0473L234.169 65.0387L234.16 64.9442L234.254 64.9355L234.246 64.8411L238.18 66.1951L238.189 66.2895L238.094 66.2982L238.103 66.3927C237.383 67.8875 236.396 69.5973 235.23 71.4189C232.227 76.0759 228.075 81.6957 223.698 85.9072C218.78 90.454 213.415 93.232 208.596 91.5781C208.304 91.5096 208.003 91.3467 207.702 91.1837C205.812 90.3091 204.54 88.9016 203.851 86.5833C203.283 84.5398 203.306 81.6799 204.102 77.8919L204.094 77.7974C204.247 76.3545 204.401 74.9116 204.726 73.2624C205.966 67.0522 210.76 56.9918 216.781 46.8189C217.193 46.1144 217.613 45.5043 218.025 44.7998C215.569 45.0249 212.658 45.4822 210.245 46.1797L210.018 41.6281C213.65 40.7236 217.515 40.2742 221.104 39.9451C225.78 32.7533 230.876 25.9992 235.75 20.98L235.922 20.7738L238.844 23.5542C235.017 27.5248 230.864 33.1446 226.867 39.4169L226.961 39.4083C232.543 38.9919 238.246 38.8502 243.836 38.5283L243.024 43.1751C236.763 43.4632 230.503 43.7513 224.071 44.2456L223.976 44.2543ZM250.382 50.8833C245.483 56.6668 240.249 64.005 236.458 70.449C235.137 72.6657 234.005 74.8652 233.216 76.6521C233.242 76.9355 233.174 77.2275 233.2 77.5109C233.269 78.2666 233.604 78.8074 234.026 79.2451C234.533 79.5797 235.125 79.8111 235.787 79.7505C238.629 79.5852 241.883 77.6676 244.783 75.0203C247.865 72.2612 251.288 68.0418 252.659 64.2963L256.911 64.9545C255.008 70.1775 250.435 76.4074 246.419 80.3953C242.497 84.3745 238.017 87.4525 233.946 87.7303C232.237 87.7917 230.768 87.3548 229.625 86.3165C228.585 85.364 227.794 84.0076 227.638 82.3073C227.491 80.7014 227.962 78.5626 228.896 76.286C230.719 68.1173 241.359 55.3301 247.203 48.4122L250.382 50.8833ZM261.036 34.094C260.066 34.9449 259.156 35.4094 258.023 35.5133C256.984 35.6085 256.099 35.3086 255.463 34.6048C254.732 33.9097 254.551 32.9738 254.645 31.9174C254.833 30.8523 255.313 29.8557 256.189 29.0134C257.055 28.0766 258.06 27.6035 259.099 27.5083C260.232 27.4044 261.117 27.7043 261.762 28.5025C262.398 29.2063 262.673 30.1336 262.58 31.19C262.392 32.2551 261.911 33.2517 261.036 34.094ZM258.602 85.4703C256.121 86.4598 254.034 86.5558 252.333 85.6639C251.233 85.0979 250.202 84.2399 249.591 82.7718C248.989 81.3981 248.815 79.5088 249.14 76.8119C249.259 76.0389 249.379 75.2658 249.593 74.4842C249.618 73.7198 249.644 72.9554 249.755 72.0879C250.455 67.2608 252.958 61.3159 256.424 55.4734C260.052 49.3301 264.822 43.1774 269.551 38.6479L272.207 41.6432C268.277 45.528 264.082 51.7232 260.574 58.1412C257.572 63.846 255.146 69.5933 254.127 74.0685C254.111 74.9274 254.18 75.6831 254.335 76.3357C254.508 77.1772 254.843 77.718 255.247 77.9667C255.84 78.1982 256.784 78.1116 257.978 77.6212C259.729 76.9843 261.798 75.6516 264.201 73.812C268.476 70.5624 273.093 65.8527 277.117 60.9114C278.138 59.5795 279.159 58.2476 280.085 56.9243C279.887 55.7994 279.877 54.6572 279.859 53.4205C279.884 51.6084 280.088 49.6844 280.482 47.7432C283.529 33.1754 293.672 34.7223 290.195 46.6624C287.993 53.8181 281.953 62.7543 279.251 66.5265C275.193 72.1376 270.542 77.5173 266.276 80.8613C263.418 82.9332 260.903 84.5926 258.602 85.4703ZM285.453 45.8587C284.262 49.4924 284.675 49.8356 286.02 45.8067C287.16 42.654 286.199 43.5994 285.453 45.8587ZM325.809 46.5414C323.615 52.7438 316.912 58.5973 309.392 62.8112C304.233 65.7608 298.721 67.9806 293.964 69.0835C294.463 71.4191 295.495 73.3249 297.042 74.612C298.486 75.8132 300.35 76.4044 302.325 76.1281C306.662 75.6354 311.83 72.7802 316.568 69.3929C322.37 65.146 327.236 60.0324 328.848 56.8364L332.868 58.0873C330.948 62.0737 327.095 66.8086 322.538 71.1319C318.324 75.0427 313.423 78.7307 308.581 80.9844C307.851 81.337 307.121 81.6897 306.478 81.9392C301.79 83.7978 297.899 83.9639 294.953 82.9956C291.903 81.9415 289.875 79.5555 289.014 76.3957C288.885 76.0265 288.85 75.6487 288.824 75.3653C288.479 73.6823 288.495 71.7757 288.803 69.9376L288.236 69.9895C287.377 69.973 286.518 69.9564 285.651 69.8454L287.322 65.2152C287.803 65.2663 288.284 65.3175 288.851 65.2655C289.04 65.2482 289.229 65.2309 289.418 65.2136C289.931 62.4993 290.916 59.7418 292.374 56.941C294.724 52.439 298.216 47.9276 302.069 44.2404C305.914 40.4587 310.206 37.3981 314.164 35.8922C317.289 34.6532 320.209 34.2903 322.666 35.1129C324.049 35.6529 325.174 36.5023 325.863 37.7729C326.559 39.1379 326.794 42.7361 326.383 44.4884C326.263 45.2615 326.135 45.94 325.809 46.5414ZM295.111 63.9297C299 62.7159 303.284 60.6086 307.422 57.9431C313.997 53.8159 319.704 48.5299 321.444 43.6075C321.616 43.4013 321.684 43.1092 321.761 42.9117C321.434 42.4653 321.022 42.1221 320.429 41.8907C319.149 41.4364 317.458 41.6868 315.62 42.4267C312.315 43.7775 308.564 46.5028 305.08 50.0609C301.501 53.6277 298.181 57.9328 296.002 62.2286C295.677 62.83 295.445 63.4227 295.111 63.9297Z"
		fill="black" />
	<g clip-path="url(#clip0_38_32)">
		<path
			d="M283.554 92.639L237.412 97.9108L188.934 103.449L138.119 109.253L90.5887 114.683C89.9853 114.753 89.4209 115.14 89.0438 115.746C87.8611 117.629 88.9914 120.329 90.8686 120.113L134.444 115.132L185.355 109.315L231.4 104.056L279.879 98.5184L329.822 92.8167C330.435 92.747 331 92.3511 331.388 91.7263C332.543 89.8322 331.41 87.1701 329.552 87.3875L283.554 92.639Z"
			fill="black" />
	</g>
	<defs>
		<clipPath id="clip0_38_32">
			<rect width="241.34" height="46.336" fill="white" transform="translate(91.052 73.7407) rotate(3.26807)" />
		</clipPath>
	</defs>
</svg>