<svg width="143" height="143" viewBox="0 0 143 143" fill="none" xmlns="http://www.w3.org/2000/svg">
	<path
		d="M72.878 4.30737L76.3274 7.75671L70.2607 20.5054L83.0267 14.456L86.476 17.9054L73.1987 31.1827L70.46 28.444L78.8234 20.0807L78.7367 19.994L67.4094 25.402L65.364 23.3567L70.7894 12.0554L70.694 11.96L62.3307 20.3234L59.592 17.5847L72.8694 4.30737H72.878Z"
		fill="black" />
	<path fill-rule="evenodd" clip-rule="evenodd"
		d="M72.612 4.04997C72.6802 3.98171 72.7728 3.94336 72.8694 3.94336H72.878C72.9746 3.94336 73.0671 3.98171 73.1354 4.04997L76.5847 7.49931C76.6937 7.60825 76.7222 7.77398 76.656 7.9131L71.0287 19.7387L82.8708 14.1271C83.0099 14.0612 83.1753 14.0899 83.2841 14.1986L86.7334 17.648C86.8756 17.7901 86.8756 18.0206 86.7334 18.1627L73.4561 31.4401C73.3878 31.5083 73.2952 31.5467 73.1987 31.5467C73.1022 31.5467 73.0096 31.5083 72.9413 31.4401L70.2026 28.7014C70.0605 28.5593 70.0605 28.3288 70.2026 28.1866L77.3114 21.0778L67.5662 25.7305C67.427 25.797 67.261 25.7685 67.152 25.6594L65.1066 23.6141C64.9974 23.5048 64.969 23.3385 65.0359 23.1992L69.7135 13.4553L62.5881 20.5807C62.5198 20.649 62.4272 20.6874 62.3307 20.6874C62.2342 20.6874 62.1416 20.649 62.0733 20.5807L59.3346 17.8421C59.1925 17.6999 59.1925 17.4695 59.3346 17.3273L72.612 4.04997ZM72.8737 4.8178L60.1068 17.5847L62.3307 19.8086L70.4366 11.7026C70.5788 11.5605 70.8093 11.5605 70.9514 11.7026L71.0467 11.798C71.156 11.9072 71.1844 12.0736 71.1175 12.2129L65.8038 23.2817L67.4848 24.9627L78.5799 19.6655C78.7191 19.5991 78.885 19.6276 78.9941 19.7366L79.0807 19.8233C79.2229 19.9655 79.2229 20.1959 79.0807 20.3381L70.9748 28.444L73.1987 30.6679L85.9613 17.9054L82.9507 14.8948L70.4166 20.8343C70.2774 20.9002 70.1119 20.8715 70.0031 20.7625C69.8943 20.6536 69.8659 20.488 69.932 20.349L75.8882 7.83235L72.8737 4.8178Z"
		fill="black" />
	<path
		d="M86.0081 39.0346L80.6261 33.6526L77.3154 35.3166L74.4468 32.4479L92.3434 23.7812L95.8621 27.2999L87.1954 45.1966L84.3268 42.3279L85.9908 39.0173L86.0081 39.0346ZM87.4208 36.2353L91.2948 28.5306L91.1301 28.3659L83.4254 32.2399L87.4208 36.2353Z"
		fill="black" />
	<path fill-rule="evenodd" clip-rule="evenodd"
		d="M92.1848 23.4536C92.3243 23.3861 92.4912 23.4143 92.6008 23.5239L96.1195 27.0425C96.2291 27.1521 96.2573 27.3191 96.1897 27.4586L87.523 45.3552C87.4717 45.4613 87.3722 45.5359 87.256 45.5555C87.1398 45.5751 87.0214 45.5373 86.938 45.454L84.0694 42.5853C83.9584 42.4743 83.9311 42.3047 84.0015 42.1644L85.5475 39.0887L80.5546 34.0959L77.4789 35.6418C77.3387 35.7123 77.169 35.685 77.058 35.574L74.1894 32.7053C74.1061 32.622 74.0682 32.5035 74.0878 32.3873C74.1075 32.2712 74.1821 32.1717 74.2881 32.1203L92.1848 23.4536ZM86.2472 38.7589C86.2475 38.7593 86.2479 38.7596 86.2482 38.7599L86.2655 38.7772C86.4076 38.9194 86.4076 39.1498 86.2655 39.292C86.262 39.2954 86.2586 39.2988 86.255 39.302L84.7701 42.2565L87.0909 44.5773L95.4217 27.3743L92.2691 24.2217L75.0661 32.5524L77.3869 34.8733L80.4626 33.3274C80.6029 33.2569 80.7725 33.2842 80.8835 33.3952L86.2472 38.7589ZM90.9666 28.0407C91.1068 27.9702 91.2765 27.9975 91.3875 28.1085L91.5522 28.2732C91.6632 28.3842 91.6905 28.5538 91.62 28.6941L87.746 36.3988C87.6935 36.5032 87.594 36.576 87.4787 36.5946C87.3633 36.6132 87.246 36.5753 87.1634 36.4926L83.168 32.4973C83.0854 32.4147 83.0475 32.2974 83.0661 32.182C83.0847 32.0666 83.1575 31.9672 83.2619 31.9147L90.9666 28.0407ZM84.0391 32.3388L87.3219 35.6216L90.6418 29.0188L84.0391 32.3388Z"
		fill="black" />
	<path
		d="M101.747 33.1846L106.583 38.0206C110.561 41.9986 110.249 46.4359 105.985 50.6999C101.721 54.9639 97.2832 55.2759 93.3052 51.2979L88.4692 46.4619L101.747 33.1846ZM95.4979 48.5592C98.1066 51.1679 100.273 50.8299 103.194 47.9092C106.115 44.9886 106.453 42.8219 103.844 40.2132L102.015 38.3846L93.6692 46.7306L95.4979 48.5592Z"
		fill="black" />
	<path fill-rule="evenodd" clip-rule="evenodd"
		d="M101.489 32.9272C101.632 32.785 101.862 32.785 102.004 32.9272L106.84 37.7632C108.881 39.8043 109.859 42.0034 109.738 44.2723C109.618 46.5324 108.412 48.7876 106.242 50.9573C104.072 53.127 101.817 54.333 99.5572 54.4531C97.2884 54.5737 95.0893 53.5964 93.0481 51.5553L88.2121 46.7193C88.1438 46.651 88.1055 46.5584 88.1055 46.4619C88.1055 46.3653 88.1438 46.2728 88.2121 46.2045L101.489 32.9272ZM101.747 33.6993L88.9842 46.4619L93.5629 51.0405C95.4997 52.9773 97.5082 53.833 99.5186 53.7262C101.538 53.6188 103.633 52.5368 105.727 50.4425C107.822 48.3482 108.904 46.2527 109.011 44.2336C109.118 42.2233 108.262 40.2148 106.325 38.2779L101.747 33.6993ZM101.758 38.1272C101.9 37.985 102.131 37.985 102.273 38.1272L104.102 39.9558C105.443 41.2969 106.094 42.5926 105.955 43.9805C105.818 45.3437 104.926 46.692 103.452 48.1666C101.977 49.6412 100.629 50.5333 99.2654 50.6699C97.8775 50.8089 96.5818 50.1577 95.2407 48.8166L93.4121 46.9879C93.2699 46.8458 93.2699 46.6153 93.4121 46.4732L101.758 38.1272ZM94.1842 46.7306L95.7555 48.3018C97.0231 49.5694 98.1151 50.0535 99.1929 49.9455C100.295 49.8351 101.491 49.0979 102.937 47.6518C104.383 46.2058 105.12 45.0104 105.23 43.9079C105.338 42.8301 104.854 41.7382 103.587 40.4706L102.015 38.8993L94.1842 46.7306Z"
		fill="black" />
	<path
		d="M114.253 45.6819L122.98 54.4092L120.51 56.8792L114.521 50.8906L111.54 53.8719L116.983 59.3146L114.764 61.5332L109.321 56.0906L106.175 59.2366L112.346 65.4072L109.876 67.8772L100.967 58.9679L114.244 45.6906L114.253 45.6819Z"
		fill="black" />
	<path fill-rule="evenodd" clip-rule="evenodd"
		d="M114.252 45.3181C114.349 45.3181 114.442 45.3564 114.51 45.4247L123.237 54.1521C123.379 54.2942 123.379 54.5247 123.237 54.6668L120.767 57.1368C120.699 57.2051 120.606 57.2434 120.51 57.2434C120.413 57.2434 120.321 57.2051 120.252 57.1368L114.521 51.4056L112.055 53.8721L117.24 59.0574C117.382 59.1995 117.382 59.43 117.24 59.5722L115.021 61.7908C114.879 61.933 114.649 61.933 114.506 61.7908L109.321 56.6056L106.69 59.2368L112.603 65.1501C112.672 65.2183 112.71 65.3109 112.71 65.4074C112.71 65.504 112.672 65.5966 112.603 65.6648L110.133 68.1348C109.991 68.277 109.761 68.277 109.618 68.1348L100.709 59.2255C100.641 59.1572 100.603 59.0647 100.603 58.9681C100.603 58.8716 100.641 58.779 100.709 58.7107L113.995 45.4248C114.063 45.3565 114.156 45.3181 114.252 45.3181ZM114.253 46.1969L101.481 58.9681L109.876 67.3627L111.831 65.4074L105.918 59.4942C105.776 59.352 105.776 59.1215 105.918 58.9794L109.064 55.8334C109.206 55.6912 109.436 55.6912 109.579 55.8334L114.764 61.0187L116.468 59.3148L111.282 54.1295C111.214 54.0612 111.176 53.9687 111.176 53.8721C111.176 53.7756 111.214 53.683 111.282 53.6147L114.264 50.6334C114.406 50.4912 114.636 50.4912 114.779 50.6334L120.51 56.3647L122.465 54.4094L114.253 46.1969Z"
		fill="black" />
	<path d="M117.381 62.8074L123.006 68.432L120.917 70.5207L115.292 64.896L117.381 62.8074Z" fill="black" />
	<path fill-rule="evenodd" clip-rule="evenodd"
		d="M117.124 62.55C117.266 62.4078 117.497 62.4078 117.639 62.55L123.263 68.1746C123.406 68.3168 123.406 68.5473 123.263 68.6894L121.175 70.7781C121.107 70.8463 121.014 70.8847 120.917 70.8847C120.821 70.8847 120.728 70.8463 120.66 70.7781L115.035 65.1534C114.967 65.0851 114.929 64.9926 114.929 64.896C114.929 64.7995 114.967 64.7069 115.035 64.6386L117.124 62.55ZM115.807 64.896L120.917 70.0059L122.491 68.432L117.381 63.3221L115.807 64.896Z"
		fill="black" />
	<path
		d="M55.7093 21.4846L64.1593 29.9346L61.6893 32.4046L55.978 26.6933L52.8667 29.8046L57.59 34.528L55.2933 36.8246L50.57 32.1013L45.162 37.5093L42.4233 34.7706L55.7007 21.4933L55.7093 21.4846Z"
		fill="black" />
	<path fill-rule="evenodd" clip-rule="evenodd"
		d="M55.452 21.2272C55.5941 21.0851 55.8246 21.0851 55.9667 21.2272L64.4167 29.6772C64.5589 29.8194 64.5589 30.0498 64.4167 30.192L61.9467 32.662C61.8046 32.8041 61.5741 32.8041 61.4319 32.662L55.978 27.208L53.3814 29.8046L57.8474 34.2706C57.9895 34.4127 57.9895 34.6432 57.8474 34.7853L55.5507 37.082C55.4824 37.1503 55.3899 37.1886 55.2933 37.1886C55.1968 37.1886 55.1042 37.1503 55.0359 37.082L50.57 32.616L45.4194 37.7667C45.2772 37.9088 45.0468 37.9088 44.9046 37.7667L42.1659 35.028C42.0238 34.8858 42.0238 34.6554 42.1659 34.5132L55.4433 21.2359L55.4433 21.2358L55.452 21.2272ZM55.7093 21.9994L63.6446 29.9346L61.6893 31.8898L56.2354 26.4359C56.1671 26.3676 56.0745 26.3293 55.978 26.3293C55.8815 26.3293 55.7889 26.3676 55.7206 26.4359L52.6093 29.5472C52.4671 29.6894 52.4671 29.9198 52.6093 30.062L57.0752 34.5279L55.2933 36.3098L50.8274 31.8439C50.6852 31.7017 50.4548 31.7017 50.3126 31.8439L45.162 36.9945L42.9381 34.7706L55.7093 21.9994Z"
		fill="black" />
	<path
		d="M58.5606 37.6132C62.6426 33.5312 67.782 33.2106 71.4653 36.9026C75.1486 40.5946 74.828 45.7339 70.746 49.8072C66.664 53.8806 61.5073 54.2272 57.8153 50.5439C54.1233 46.8606 54.4873 41.6779 58.552 37.6132H58.5606ZM67.938 46.9906C70.59 44.3386 71.1186 41.4439 69.0126 39.3379C66.9066 37.2319 64.0206 37.7606 61.36 40.4126C58.6993 43.0646 58.162 45.9852 60.2593 48.0826C62.3566 50.1799 65.2946 49.6252 67.9293 46.9819L67.938 46.9906Z"
		fill="black" />
	<path fill-rule="evenodd" clip-rule="evenodd"
		d="M65.1832 34.7061C63.0342 34.8289 60.8093 35.8794 58.818 37.8706C58.8023 37.8863 58.7853 37.9005 58.7672 37.9129C56.8119 39.8848 55.7684 42.1003 55.6382 44.2436C55.5074 46.3967 56.2952 48.5132 58.0724 50.2862C59.8503 52.06 61.963 52.8497 64.1126 52.721C66.2677 52.5919 68.4975 51.5367 70.4888 49.5496C72.4799 47.5628 73.5304 45.34 73.6542 43.191C73.7778 41.0472 72.9821 38.9383 71.2076 37.1596C69.4333 35.3812 67.3268 34.5835 65.1832 34.7061ZM65.1417 33.9792C67.5091 33.8439 69.8139 34.7319 71.723 36.6455C73.6318 38.5588 74.5175 40.8656 74.381 43.2328C74.2449 45.5948 73.094 47.9784 71.0031 50.0649C68.9124 52.1511 66.5228 53.3059 64.1561 53.4477C61.7839 53.5897 59.4723 52.7112 57.5582 50.8016C55.6434 48.8912 54.7672 46.5747 54.9115 44.1995C55.0555 41.8299 56.2123 39.4381 58.2946 37.3558C58.3106 37.3398 58.328 37.3254 58.3465 37.3128C60.4269 35.2493 62.796 34.1133 65.1417 33.9792ZM65.3395 37.7311C66.7756 37.5126 68.1383 37.9488 69.27 39.0805C70.4019 40.2124 70.8378 41.5773 70.6194 43.0142C70.4035 44.4343 69.5552 45.8881 68.1953 47.248C68.1722 47.2711 68.1466 47.2905 68.1195 47.3062C66.7867 48.6233 65.3516 49.4507 63.9489 49.6696C62.5064 49.8947 61.1315 49.4696 60.0019 48.34C58.8732 47.2112 58.4427 45.8412 58.6657 44.3999C58.886 42.975 59.7384 41.5149 61.103 40.1548C62.4669 38.7953 63.9205 37.947 65.3395 37.7311ZM67.7456 46.6676C68.9977 45.3964 69.7179 44.1009 69.8997 42.9048C70.0821 41.7049 69.7294 40.5694 68.7552 39.5953C67.7809 38.621 66.6476 38.2685 65.449 38.4508C64.2334 38.6358 62.9137 39.3778 61.6169 40.6704C60.3209 41.9622 59.5742 43.2884 59.3851 44.5112C59.1985 45.7176 59.5481 46.8566 60.5167 47.8252C61.4844 48.7929 62.6272 49.1391 63.8367 48.9503C65.0622 48.7591 66.3887 48.012 67.6715 46.7249C67.6938 46.7025 67.7188 46.6833 67.7456 46.6676Z"
		fill="black" />
	<path
		d="M73.1986 65.5286L75.1919 58.682L72.8952 56.3853L68.4752 60.8053L65.7366 58.0666L79.0139 44.7893L84.1792 49.9546C87.5766 53.352 87.2126 56.6713 84.6126 59.2713C82.7146 61.1693 80.4526 61.8626 78.0172 60.7533L75.9026 68.2326L73.1986 65.5286ZM75.3566 53.9153L77.6966 56.2553C79.1959 57.7546 80.6259 57.6333 81.8046 56.4546C82.9832 55.276 83.1219 53.82 81.6226 52.3293L79.2826 49.9893L75.3566 53.9153Z"
		fill="black" />
	<path fill-rule="evenodd" clip-rule="evenodd"
		d="M78.7565 44.5319C78.8987 44.3898 79.1291 44.3898 79.2713 44.5319L84.4366 49.6972C86.1805 51.4412 86.9995 53.2069 87.0089 54.91C87.0182 56.613 86.2176 58.1811 84.8699 59.5287C83.8866 60.512 82.7903 61.202 81.6032 61.4935C80.5315 61.7567 79.4067 61.6899 78.2556 61.2479L76.2528 68.3317C76.2177 68.4559 76.1193 68.5523 75.9944 68.5849C75.8694 68.6174 75.7365 68.5813 75.6452 68.49L72.9412 65.786C72.8472 65.6921 72.8119 65.5544 72.8491 65.4269L74.7822 58.787L72.8952 56.9001L68.7326 61.0627C68.6644 61.1309 68.5718 61.1693 68.4752 61.1693C68.3787 61.1693 68.2861 61.1309 68.2178 61.0627L65.4792 58.324C65.337 58.1819 65.337 57.9514 65.4792 57.8092L78.7565 44.5319ZM66.2513 58.0666L68.4752 60.2905L72.6378 56.1279C72.7061 56.0596 72.7987 56.0213 72.8952 56.0213C72.9918 56.0213 73.0844 56.0596 73.1526 56.1279L75.4493 58.4246C75.5432 58.5185 75.5785 58.6562 75.5414 58.7837L73.6083 65.4236L75.7211 67.5364L77.667 60.6543C77.6958 60.5521 77.7679 60.4677 77.8642 60.423C77.9605 60.3784 78.0715 60.378 78.1681 60.422C79.3167 60.9452 80.4074 61.0376 81.4296 60.7865C82.4568 60.5343 83.4405 59.9285 84.3552 59.0139C85.6076 57.7615 86.2889 56.3699 86.2809 54.914C86.2729 53.458 85.5752 51.8654 83.9218 50.212L79.0139 45.3041L66.2513 58.0666ZM79.0252 49.7319C79.1673 49.5898 79.3978 49.5898 79.5399 49.7319L81.8792 52.0712C81.8793 52.0713 81.8794 52.0714 81.8795 52.0714C82.6733 52.8608 83.0754 53.6838 83.0818 54.5061C83.0882 55.329 82.6979 56.0761 82.0619 56.712C81.4263 57.3477 80.6848 57.7347 79.8657 57.7232C79.0485 57.7117 78.2309 57.3044 77.4392 56.5127L75.0992 54.1727C75.0309 54.1044 74.9926 54.0118 74.9926 53.9153C74.9926 53.8188 75.0309 53.7262 75.0992 53.6579L79.0252 49.7319ZM75.8713 53.9153L77.9539 55.9979C78.6615 56.7055 79.3087 56.9873 79.8759 56.9952C80.4414 57.0032 81.0042 56.7402 81.5472 56.1972C82.0899 55.6545 82.3583 55.0843 82.3538 54.5118C82.3494 53.9389 82.0712 53.2887 81.3659 52.5874L81.3652 52.5867L79.2826 50.5041L75.8713 53.9153Z"
		fill="black" />
	<path d="M83.3992 63.1714L89.0239 68.7961L86.9352 70.8847L81.3105 65.2601L83.3992 63.1714Z" fill="black" />
	<path fill-rule="evenodd" clip-rule="evenodd"
		d="M83.1421 62.914C83.2842 62.7718 83.5147 62.7718 83.6568 62.914L89.2815 68.5387C89.4236 68.6808 89.4236 68.9113 89.2815 69.0534L87.1928 71.1421C87.0507 71.2842 86.8202 71.2842 86.6781 71.1421L81.0534 65.5174C80.9112 65.3753 80.9112 65.1448 81.0534 65.0027L83.1421 62.914ZM81.8256 65.26L86.9354 70.3699L88.5093 68.796L83.3994 63.6861L81.8256 65.26Z"
		fill="black" />
	<path
		d="M95.3333 82.6974L89.9513 77.3154L86.6406 78.9794L83.772 76.1108L101.669 67.4441L105.187 70.9628L96.5206 88.8594L93.652 85.9908L95.316 82.6801L95.3333 82.6974ZM96.746 79.8981L100.62 72.1934L100.455 72.0288L92.7506 75.9028L96.746 79.8981Z"
		fill="black" />
	<path fill-rule="evenodd" clip-rule="evenodd"
		d="M101.51 67.1165C101.649 67.0489 101.816 67.0771 101.926 67.1867L105.445 70.7054C105.554 70.815 105.582 70.9819 105.515 71.1214L96.8482 89.0181C96.7969 89.1241 96.6974 89.1987 96.5812 89.2183C96.465 89.238 96.3466 89.2001 96.2632 89.1168L93.3946 86.2481C93.2836 86.1372 93.2562 85.9675 93.3267 85.8273L94.8727 82.7516L89.8798 77.7587L86.8041 79.3046C86.6639 79.3751 86.4942 79.3478 86.3832 79.2368L83.5146 76.3681C83.4313 76.2848 83.3934 76.1663 83.413 76.0502C83.4326 75.934 83.5073 75.8345 83.6133 75.7831L101.51 67.1165ZM95.5733 82.4227C95.5733 82.4227 95.5733 82.4227 95.5733 82.4227L95.5907 82.44C95.7328 82.5822 95.7328 82.8127 95.5907 82.9548C95.5872 82.9582 95.5838 82.9616 95.5802 82.9649L94.0953 85.9193L96.4161 88.2401L104.747 71.0371L101.594 67.8845L84.3913 76.2153L86.7121 78.5361L89.7878 76.9902C89.9281 76.9197 90.0977 76.947 90.2087 77.058L95.5733 82.4227ZM100.292 71.7036C100.432 71.633 100.602 71.6604 100.713 71.7714L100.877 71.936C100.988 72.047 101.016 72.2167 100.945 72.3569L97.0712 80.0616C97.0187 80.166 96.9192 80.2389 96.8039 80.2575C96.6885 80.276 96.5712 80.2381 96.4886 80.1555L92.4932 76.1601C92.4106 76.0775 92.3727 75.9602 92.3913 75.8449C92.4098 75.7295 92.4827 75.63 92.5871 75.5776L100.292 71.7036ZM93.3643 76.0016L96.6471 79.2844L99.967 72.6817L93.3643 76.0016Z"
		fill="black" />
	<path
		d="M111.08 76.8474L113.819 79.5861L103.003 90.4021L108.879 96.2781L106.409 98.7481L97.7944 90.1334L111.072 76.8561L111.08 76.8474Z"
		fill="black" />
	<path fill-rule="evenodd" clip-rule="evenodd"
		d="M111.081 76.4834C111.177 76.4834 111.27 76.5217 111.338 76.59L114.077 79.3287C114.145 79.3969 114.183 79.4895 114.183 79.5861C114.183 79.6826 114.145 79.7752 114.077 79.8435L103.518 90.4021L109.137 96.0207C109.279 96.1628 109.279 96.3933 109.137 96.5354L106.667 99.0055C106.598 99.0737 106.506 99.1121 106.409 99.1121C106.313 99.1121 106.22 99.0737 106.152 99.0055L97.5373 90.3908C97.469 90.3225 97.4307 90.2299 97.4307 90.1334C97.4307 90.0369 97.469 89.9443 97.5373 89.876L110.823 76.5901C110.891 76.5218 110.984 76.4834 111.081 76.4834ZM111.081 77.3622L98.3094 90.1334L106.409 98.2333L108.365 96.2781L102.746 90.6594C102.678 90.5912 102.639 90.4986 102.639 90.4021C102.639 90.3055 102.678 90.2129 102.746 90.1447L113.305 79.5861L111.081 77.3622Z"
		fill="black" />
	<path
		d="M121.134 86.9006L123.873 89.6393L113.057 100.455L118.933 106.331L116.463 108.801L107.848 100.187L121.125 86.9093L121.134 86.9006Z"
		fill="black" />
	<path fill-rule="evenodd" clip-rule="evenodd"
		d="M120.877 86.6431C121.019 86.5011 121.249 86.5011 121.391 86.6432L124.13 89.3819C124.272 89.5241 124.272 89.7545 124.13 89.8967L113.571 100.455L119.19 106.074C119.332 106.216 119.332 106.447 119.19 106.589L116.72 109.059C116.652 109.127 116.559 109.165 116.463 109.165C116.366 109.165 116.273 109.127 116.205 109.059L107.59 100.444C107.448 100.302 107.448 100.071 107.59 99.9292L120.877 86.6431ZM121.134 87.4154L123.358 89.6393L112.799 100.198C112.657 100.34 112.657 100.571 112.799 100.713L118.418 106.331L116.463 108.287L108.363 100.187L121.134 87.4154Z"
		fill="black" />
	<path
		d="M35.0654 51.0727L31.2261 51.4453L28.0021 54.6693L25.2634 51.9307L38.5408 38.6533L41.2794 41.392L35.0394 47.632L46.3754 46.4793L49.5908 49.6947L38.7834 50.726L36.8074 63.4747L33.6701 60.3373L35.0741 51.0813L35.0654 51.0727Z"
		fill="black" />
	<path fill-rule="evenodd" clip-rule="evenodd"
		d="M38.2834 38.3959C38.4255 38.2538 38.656 38.2538 38.7981 38.3959L41.5368 41.1346C41.679 41.2767 41.679 41.5072 41.5368 41.6494L36.0197 47.1664L46.3386 46.1172C46.4474 46.1061 46.5555 46.1446 46.6328 46.2219L49.8481 49.4373C49.9478 49.5369 49.981 49.6852 49.9333 49.8178C49.8856 49.9504 49.7656 50.0436 49.6253 50.057L39.0998 51.0614L37.1671 63.5304C37.1461 63.6659 37.0508 63.7781 36.9205 63.8206C36.7902 63.8632 36.647 63.829 36.55 63.732L33.4127 60.5947C33.3309 60.5129 33.2928 60.3971 33.3102 60.2827L34.6456 51.4791L31.3912 51.795L28.2595 54.9267C28.1912 54.995 28.0986 55.0333 28.0021 55.0333C27.9055 55.0333 27.813 54.995 27.7447 54.9267L25.006 52.188C24.8639 52.0459 24.8639 51.8154 25.006 51.6733L38.2834 38.3959ZM25.7782 51.9306L28.0021 54.1545L30.9687 51.1879C31.0284 51.1282 31.1069 51.0912 31.1909 51.083L35.0302 50.7103C35.1385 50.6998 35.2458 50.7383 35.3228 50.8152L35.3314 50.8239C35.4133 50.9057 35.4513 51.0215 35.434 51.1359L34.0576 60.21L36.5576 62.71L38.4237 50.6702C38.4492 50.5057 38.5831 50.3794 38.7488 50.3636L48.787 49.4057L46.2403 46.8589L35.0762 47.9941C34.9231 48.0097 34.7767 47.9272 34.7106 47.7881C34.6446 47.649 34.6732 47.4835 34.782 47.3746L40.7646 41.392L38.5407 39.1681L25.7782 51.9306Z"
		fill="black" />
	<path d="M51.3328 51.4453L54.0714 54.184L40.7941 67.4613L38.0554 64.7226L51.3328 51.4453Z" fill="black" />
	<path fill-rule="evenodd" clip-rule="evenodd"
		d="M51.0754 51.1879C51.2175 51.0458 51.448 51.0458 51.5901 51.1879L54.3288 53.9266C54.3971 53.9948 54.4354 54.0874 54.4354 54.184C54.4354 54.2805 54.3971 54.3731 54.3288 54.4414L41.0515 67.7187C40.9093 67.8608 40.6788 67.8608 40.5367 67.7187L37.798 64.98C37.7298 64.9118 37.6914 64.8192 37.6914 64.7226C37.6914 64.6261 37.7298 64.5335 37.798 64.4652L51.0754 51.1879ZM38.5702 64.7226L40.7941 66.9465L53.5566 54.184L51.3327 51.9601L38.5702 64.7226Z"
		fill="black" />
	<path
		d="M56.056 56.1687L58.9074 59.02L55.328 72.8954L55.38 72.9474L64.1074 64.22L66.846 66.9587L53.5687 80.236L50.6134 77.2807L54.132 63.6827L54.08 63.6307L45.526 72.1847L42.7874 69.446L56.0647 56.1687H56.056Z"
		fill="black" />
	<path fill-rule="evenodd" clip-rule="evenodd"
		d="M55.7559 55.9627C55.8228 55.8651 55.9345 55.8047 56.056 55.8047H56.0647C56.1862 55.8047 56.2979 55.8651 56.3648 55.9627L59.1647 58.7626C59.2558 58.8537 59.292 58.9862 59.2598 59.1109L55.9774 71.8352L63.85 63.9626C63.9182 63.8944 64.0108 63.856 64.1073 63.856C64.2039 63.856 64.2965 63.8944 64.3647 63.9626L67.1034 66.7013C67.2455 66.8435 67.2455 67.0739 67.1034 67.2161L53.8261 80.4934C53.7578 80.5617 53.6652 80.6 53.5687 80.6C53.4721 80.6 53.3796 80.5617 53.3113 80.4934L50.356 77.5381C50.2648 77.4469 50.2287 77.3143 50.2609 77.1895L53.4814 64.7441L45.7834 72.4421C45.7151 72.5103 45.6225 72.5487 45.526 72.5487C45.4295 72.5487 45.3369 72.5103 45.2686 72.4421L42.53 69.7034C42.3878 69.5613 42.3878 69.3308 42.53 69.1886L55.7559 55.9627ZM56.0603 56.6878L43.3021 69.446L45.526 71.6699L53.8226 63.3733C53.8909 63.305 53.9835 63.2667 54.08 63.2667C54.1766 63.2667 54.2691 63.305 54.3374 63.3733L54.3894 63.4253C54.4806 63.5165 54.5167 63.6491 54.4844 63.7739L51.0179 77.1704L53.5687 79.7213L66.3312 66.9587L64.1073 64.7348L55.6374 73.2047C55.4952 73.3469 55.2648 73.3469 55.1226 73.2048L55.0706 73.1528C54.9795 73.0617 54.9434 72.9292 54.9755 72.8044L58.503 59.1304L56.0603 56.6878Z"
		fill="black" />
	<path
		d="M68.8306 68.9434L73.6666 73.7794C77.6446 77.7574 77.3326 82.1947 73.0686 86.4587C68.8046 90.7227 64.3672 91.0347 60.3892 87.0567L55.5532 82.2207L68.8306 68.9434ZM62.5819 84.318C65.1906 86.9267 67.3572 86.5887 70.2779 83.668C73.1986 80.7474 73.5366 78.5807 70.9279 75.972L69.0992 74.1434L60.7532 82.4894L62.5819 84.318Z"
		fill="black" />
	<path fill-rule="evenodd" clip-rule="evenodd"
		d="M68.5734 68.686C68.7155 68.5438 68.946 68.5438 69.0882 68.686L73.9242 73.522C75.9653 75.5631 76.9426 77.7622 76.822 80.0311C76.7019 82.2912 75.4959 84.5464 73.3262 86.7161C71.1565 88.8858 68.9013 90.0918 66.6412 90.2119C64.3723 90.3325 62.1732 89.3552 60.1321 87.3141L55.2961 82.4781C55.2278 82.4098 55.1895 82.3172 55.1895 82.2207C55.1895 82.1241 55.2278 82.0316 55.2961 81.9633L68.5734 68.686ZM68.8308 69.4581L56.0682 82.2207L60.6468 86.7993C62.5837 88.7361 64.5922 89.5918 66.6025 89.4849C68.6216 89.3776 70.7171 88.2956 72.8114 86.2013C74.9057 84.107 75.9877 82.0115 76.095 79.9924C76.2019 77.9821 75.3462 75.9736 73.4094 74.0367L68.8308 69.4581ZM69.0995 73.7793C69.196 73.7793 69.2886 73.8177 69.3568 73.886L71.1855 75.7146C72.5266 77.0557 73.1778 78.3514 73.0388 79.7393C72.9022 81.1025 72.0101 82.4508 70.5355 83.9254C69.0609 85.4 67.7126 86.2921 66.3494 86.4287C64.9615 86.5677 63.6658 85.9165 62.3247 84.5754L60.4961 82.7467C60.4278 82.6785 60.3895 82.5859 60.3895 82.4893C60.3895 82.3928 60.4278 82.3002 60.4961 82.232L68.8421 73.886C68.9103 73.8177 69.0029 73.7793 69.0995 73.7793ZM61.2682 82.4893L62.8395 84.0606C64.1071 85.3282 65.199 85.8123 66.2768 85.7043C67.3793 85.5939 68.5747 84.8566 70.0207 83.4106C71.4668 81.9646 72.204 80.7692 72.3144 79.6667C72.4224 78.5889 71.9383 77.497 70.6707 76.2294L69.0995 74.6581L61.2682 82.4893Z"
		fill="black" />
	<path
		d="M72.1239 90.1074L74.9493 92.9327C73.8053 94.1807 73.5539 95.8967 75.3046 97.656C76.7866 99.138 78.2166 99.2767 79.2913 98.1934C80.2013 97.2834 80.0713 96.2434 79.1526 94.8654L77.6706 92.664C76.0846 90.2374 75.3306 87.594 77.7399 85.1847C80.2793 82.6454 83.5466 83.3214 86.4066 86.19C89.2666 89.0587 90.0379 92.56 87.3253 95.2727L84.5173 92.4647C85.7479 91.3034 85.3319 89.8214 84.0926 88.582C82.6279 87.1174 81.3106 87.3514 80.4873 88.166C79.8806 88.7727 79.5426 89.726 80.4873 91.0867L81.8653 93.1407C84.2659 96.72 84.2226 99.0687 82.2119 101.079C79.3433 103.948 75.8333 102.899 72.9299 99.996C69.6626 96.7287 69.1946 93.0367 72.1153 90.116L72.1239 90.1074Z"
		fill="black" />
	<path fill-rule="evenodd" clip-rule="evenodd"
		d="M81.9022 84.0198C80.5318 83.8267 79.1921 84.2473 77.9973 85.4421C76.8621 86.5773 76.4921 87.7394 76.5702 88.8933C76.6496 90.0674 77.1959 91.2719 77.9739 92.4628L79.4555 94.6635C79.9285 95.3731 80.2316 96.042 80.271 96.6825C80.3119 97.3467 80.0668 97.9324 79.5491 98.4504C79.5489 98.4505 79.5492 98.4502 79.5491 98.4504L79.2913 98.1934L79.5497 98.4497C79.5495 98.45 79.5493 98.4502 79.5491 98.4504C78.9433 99.0607 78.2088 99.3482 77.4056 99.2479C76.6192 99.1498 75.8207 98.6869 75.0472 97.9134L75.0466 97.9128C74.1231 96.9848 73.6924 96.0307 73.6775 95.1085C73.6645 94.3062 73.9671 93.5744 74.4548 92.953L74.6919 93.1901L74.9493 92.9327L74.681 92.6868C74.6019 92.773 74.5263 92.8618 74.4548 92.953L72.1293 90.6275C72.2074 90.5423 72.2885 90.4576 72.3727 90.3734L72.3813 90.3648L72.1239 90.1074L71.8666 90.3648L72.1293 90.6275C70.9131 91.9548 70.4247 93.4123 70.5645 94.8918C70.7145 96.4785 71.5926 98.1439 73.1873 99.7387C74.6081 101.159 76.1461 102.094 77.6438 102.343C79.1204 102.589 80.5986 102.178 81.9546 100.822C82.9053 99.8713 83.3634 98.8738 83.329 97.709C83.294 96.5229 82.7474 95.1094 81.563 93.3435L80.1866 91.2919C80.1871 91.2927 80.1877 91.2935 80.1883 91.2943L80.4873 91.0867L80.185 91.2895L80.1866 91.2919C79.6814 90.5634 79.4914 89.9025 79.5429 89.312C79.5945 88.7209 79.8833 88.2552 80.2299 87.9087L80.2313 87.9073C80.6997 87.4438 81.3282 87.1284 82.0629 87.1556C82.7957 87.1826 83.5734 87.5481 84.35 88.3247C85.0008 88.9755 85.4695 89.7224 85.5908 90.4963C85.6988 91.1853 85.5252 91.8613 85.0247 92.4573L84.7747 92.2073L84.5173 92.4647L84.7671 92.7295C84.861 92.6409 84.9468 92.5501 85.0247 92.4573L87.3183 94.751C87.2387 94.8398 87.1553 94.928 87.0679 95.0153L87.3253 95.2727L87.5827 95.0153L87.3183 94.751C88.4056 93.5381 88.7769 92.1937 88.5949 90.8383C88.3975 89.3679 87.5422 87.8447 86.1488 86.447C84.7531 85.0471 83.2899 84.2153 81.9022 84.0198ZM82.0038 83.2989C83.5997 83.5238 85.2001 84.4643 86.6644 85.9331C88.131 87.4041 89.0914 89.0658 89.3165 90.7414C89.5436 92.4328 89.0149 94.0978 87.5827 95.5301C87.4405 95.6723 87.21 95.6723 87.0679 95.5301L84.2599 92.7221C84.1903 92.6526 84.1519 92.5578 84.1533 92.4594C84.1547 92.3611 84.1959 92.2675 84.2674 92.2C84.8008 91.6967 84.957 91.154 84.8716 90.609C84.7827 90.0417 84.4237 89.428 83.8352 88.8394C83.1471 88.1513 82.5339 87.9015 82.036 87.8831C81.5403 87.8647 81.0987 88.0734 80.744 88.4241C80.4842 88.6841 80.301 88.9982 80.2681 89.3753C80.2352 89.7526 80.348 90.2479 80.7863 90.8791L80.7896 90.8839L82.1675 92.9379C83.3838 94.7514 84.0158 96.3019 84.0567 97.6876C84.0982 99.0946 83.5292 100.277 82.4693 101.337C80.9566 102.849 79.2455 103.348 77.5241 103.061C75.8237 102.778 74.1551 101.736 72.6726 100.253C71 98.5808 70.0104 96.7666 69.8397 94.9603C69.6679 93.1418 70.3314 91.3852 71.8579 89.8587L71.8666 89.85C72.0087 89.7078 72.2392 89.7078 72.3813 89.85L75.2067 92.6753C75.3445 92.8131 75.3493 93.035 75.2176 93.1787C74.6919 93.7522 74.3943 94.4069 74.4054 95.0968C74.4165 95.7843 74.7353 96.5678 75.5623 97.399C76.2707 98.1073 76.9281 98.4547 77.4958 98.5255C78.0464 98.5942 78.5641 98.4096 79.0329 97.937L79.0339 97.936C79.4259 97.544 79.5707 97.1549 79.5444 96.7272C79.5166 96.2759 79.2955 95.7361 78.8502 95.068C78.85 95.0678 78.8504 95.0682 78.8502 95.068L77.3659 92.8632C76.5587 91.6282 75.9356 90.2984 75.8439 88.9424C75.7507 87.5657 76.2084 86.2015 77.4825 84.9273C78.8271 83.5828 80.3908 83.0717 82.0038 83.2989Z"
		fill="black" />
	<path d="M85.9908 100.109L91.6154 105.733L89.5268 107.822L83.9021 102.197L85.9908 100.109Z" fill="black" />
	<path fill-rule="evenodd" clip-rule="evenodd"
		d="M85.7334 99.8512C85.8755 99.7091 86.106 99.7091 86.2481 99.8512L91.8728 105.476C92.015 105.618 92.015 105.849 91.8728 105.991L89.7841 108.079C89.7159 108.148 89.6233 108.186 89.5268 108.186C89.4302 108.186 89.3376 108.148 89.2694 108.079L83.6447 102.455C83.5764 102.386 83.5381 102.294 83.5381 102.197C83.5381 102.101 83.5764 102.008 83.6447 101.94L85.7334 99.8512ZM84.4169 102.197L89.5268 107.307L91.1006 105.733L85.9908 100.623L84.4169 102.197Z"
		fill="black" />
	<path
		d="M93.3834 106.773C97.4654 102.691 102.605 102.371 106.288 106.063C109.971 109.755 109.651 114.894 105.569 118.967C101.487 123.041 96.3301 123.387 92.6381 119.704C88.9461 116.021 89.3101 110.838 93.3747 106.773H93.3834ZM102.761 116.151C105.413 113.499 105.941 110.604 103.835 108.498C101.729 106.392 98.8434 106.921 96.1827 109.573C93.5221 112.225 92.9847 115.145 95.0821 117.243C97.1794 119.34 100.117 118.785 102.752 116.142L102.761 116.151Z"
		fill="black" />
	<path fill-rule="evenodd" clip-rule="evenodd"
		d="M100.006 103.866C97.8568 103.989 95.6318 105.04 93.6405 107.031C93.6248 107.046 93.6078 107.061 93.5897 107.073C91.6344 109.045 90.591 111.26 90.4607 113.404C90.3299 115.557 91.1177 117.673 92.8949 119.446C94.6728 121.22 96.7855 122.01 98.9351 121.881C101.09 121.752 103.32 120.697 105.311 118.71C107.302 116.723 108.353 114.5 108.477 112.351C108.6 110.207 107.805 108.098 106.03 106.32C104.256 104.541 102.149 103.744 100.006 103.866ZM99.9642 103.139C102.332 103.004 104.636 103.892 106.545 105.806C108.454 107.719 109.34 110.026 109.204 112.393C109.067 114.755 107.917 117.139 105.826 119.225C103.735 121.311 101.345 122.466 98.9786 122.608C96.6064 122.75 94.2948 121.871 92.3807 119.962C90.4659 118.051 89.5897 115.735 89.7341 113.36C89.878 110.99 91.0348 108.598 93.1171 106.516C93.1331 106.5 93.1505 106.486 93.169 106.473C95.2494 104.409 97.6185 103.273 99.9642 103.139ZM100.162 106.891C101.598 106.673 102.961 107.109 104.093 108.241C105.224 109.373 105.66 110.737 105.442 112.174C105.226 113.595 104.378 115.048 103.018 116.408C102.995 116.431 102.97 116.45 102.942 116.466C101.609 117.783 100.174 118.611 98.7714 118.83C97.3289 119.055 95.954 118.63 94.8244 117.5C93.6957 116.371 93.2652 115.001 93.4882 113.56C93.7085 112.135 94.5609 110.675 95.9255 109.315C97.2894 107.955 98.743 107.107 100.162 106.891ZM102.568 115.828C103.82 114.557 104.54 113.261 104.722 112.065C104.905 110.865 104.552 109.73 103.578 108.755C102.603 107.781 101.47 107.429 100.272 107.611C99.0559 107.796 97.7362 108.538 96.4394 109.831C95.1434 111.122 94.3967 112.449 94.2076 113.671C94.021 114.878 94.3706 116.017 95.3392 116.985C96.3069 117.953 97.4497 118.299 98.6592 118.11C99.8847 117.919 101.211 117.172 102.494 115.885C102.516 115.863 102.541 115.843 102.568 115.828Z"
		fill="black" />
	<path
		d="M113.837 113.949L122.287 122.399L119.817 124.869L114.105 119.158L110.994 122.269L115.726 127.001L113.429 129.298L108.697 124.566L103.289 129.974L100.551 127.235L113.828 113.958L113.837 113.949Z"
		fill="black" />
	<path fill-rule="evenodd" clip-rule="evenodd"
		d="M113.579 113.692C113.721 113.55 113.952 113.55 114.094 113.692L122.544 122.142C122.686 122.284 122.686 122.515 122.544 122.657L120.074 125.127C119.932 125.269 119.701 125.269 119.559 125.127L114.105 119.673L111.509 122.269L115.983 126.744C116.125 126.886 116.125 127.117 115.983 127.259L113.687 129.556C113.618 129.624 113.526 129.662 113.429 129.662C113.333 129.662 113.24 129.624 113.172 129.556L108.697 125.081L103.547 130.232C103.478 130.3 103.386 130.338 103.289 130.338C103.193 130.338 103.1 130.3 103.032 130.232L100.293 127.493C100.225 127.425 100.187 127.332 100.187 127.235C100.187 127.139 100.225 127.046 100.293 126.978L113.579 113.692ZM113.837 114.464L101.065 127.235L103.289 129.459L108.44 124.309C108.508 124.24 108.601 124.202 108.697 124.202C108.794 124.202 108.886 124.24 108.955 124.309L113.429 128.783L115.211 127.001L110.736 122.527C110.594 122.385 110.594 122.154 110.736 122.012L113.848 118.901C113.99 118.759 114.22 118.759 114.363 118.901L119.817 124.355L121.772 122.399L113.837 114.464Z"
		fill="black" />
	<path
		d="M21.3721 55.822L26.5547 61.0047C29.4061 63.856 29.3887 66.456 27.3781 68.4667C25.9394 69.9054 24.4834 70.0874 22.8801 69.2814C24.2494 71.708 23.8334 73.762 22.1867 75.4173C20.0461 77.558 16.8741 77.8874 13.4941 74.5074L8.09473 69.108L21.3721 55.8307V55.822ZM15.7907 72.02C17.3247 73.554 18.7027 73.2334 19.6734 72.2627C20.6441 71.292 21.0254 69.8534 19.4914 68.3194L16.9174 65.7454L13.2167 69.446L15.7907 72.02ZM21.0514 66.2827C21.8747 67.106 23.0187 67.34 24.1021 66.2567C25.1854 65.1733 24.8734 64.0987 24.0501 63.284L21.7101 60.944L18.7114 63.9427L21.0514 66.2827Z"
		fill="black" />
	<path fill-rule="evenodd" clip-rule="evenodd"
		d="M21.2327 55.4857C21.3688 55.4294 21.5253 55.4605 21.6294 55.5646L26.8121 60.7473C28.2728 62.208 29.0423 63.6471 29.1525 65.0219C29.2636 66.4087 28.6984 67.6611 27.6354 68.7241C26.8783 69.4812 26.0892 69.9344 25.2509 70.0748C24.7091 70.1655 24.1654 70.1223 23.619 69.9652C24.0114 70.916 24.1418 71.8256 24.0251 72.6875C23.8735 73.8065 23.3109 74.8034 22.4448 75.6741L22.4441 75.6747C21.3155 76.8034 19.8916 77.4747 18.2873 77.3962C16.6877 77.3179 14.9692 76.4973 13.2367 74.7647L7.83733 69.3654C7.69518 69.2232 7.69518 68.9928 7.83733 68.8506L21.072 55.616C21.111 55.5591 21.1662 55.5133 21.2327 55.4857ZM21.3764 56.3411L8.60949 69.108L13.7514 74.25C15.3989 75.8974 16.9563 76.6021 18.3229 76.669C19.6848 76.7357 20.9173 76.172 21.9293 75.16C22.7095 74.3755 23.178 73.5179 23.3037 72.5897C23.4294 71.6615 23.218 70.6209 22.563 69.4602C22.4843 69.3207 22.506 69.1462 22.6166 69.0302C22.7271 68.9143 22.9004 68.8842 23.0435 68.9561C23.7953 69.3341 24.4814 69.4654 25.1307 69.3568C25.7809 69.2479 26.4391 68.8908 27.1207 68.2093C28.0683 67.2616 28.5172 66.2087 28.4268 65.08C28.3354 63.9393 27.688 62.6527 26.2973 61.2621L21.3764 56.3411ZM21.4527 60.6866C21.5948 60.5445 21.8253 60.5445 21.9674 60.6866L24.3061 63.0253C24.3063 63.0255 24.3064 63.0256 24.3066 63.0258C24.7536 63.4683 25.0977 64.0158 25.1536 64.637C25.2108 65.2733 24.9594 65.9141 24.3594 66.5141C23.7605 67.113 23.1081 67.3803 22.4612 67.3482C21.8229 67.3166 21.2504 66.9965 20.794 66.5401L18.454 64.2001C18.3118 64.0579 18.3118 63.8274 18.454 63.6853L21.4527 60.6866ZM21.71 61.4588L19.2262 63.9427L21.3088 66.0253C21.6757 66.3922 22.0869 66.6008 22.4972 66.6211C22.899 66.641 23.3603 66.4837 23.8447 65.9993C24.328 65.516 24.4623 65.0777 24.4285 64.7022C24.3934 64.3119 24.1701 63.9149 23.794 63.5428L23.7927 63.5414L21.71 61.4588ZM16.66 65.488C16.8021 65.3458 17.0326 65.3458 17.1748 65.488L19.7488 68.062C20.5679 68.8811 20.915 69.7173 20.8854 70.5157C20.8561 71.3065 20.4598 71.9911 19.9308 72.5201C19.4012 73.0496 18.7288 73.433 17.9487 73.4446C17.1648 73.4562 16.3473 73.0914 15.5333 72.2774L12.9593 69.7034C12.8911 69.6351 12.8527 69.5426 12.8527 69.446C12.8527 69.3495 12.8911 69.2569 12.9593 69.1886L16.66 65.488ZM13.7315 69.446L16.0481 71.7626C16.7681 72.4827 17.4067 72.7245 17.9379 72.7166C18.4729 72.7087 18.9749 72.4464 19.416 72.0053C19.8577 71.5636 20.1373 71.0435 20.1579 70.4888C20.1781 69.9417 19.9488 69.2916 19.234 68.5767L16.9174 66.2601L13.7315 69.446Z"
		fill="black" />
	<path
		d="M27.1959 88.2093L29.1892 81.3626L26.8926 79.066L22.4726 83.486L19.7339 80.7473L33.0112 67.47L38.1766 72.6353C41.5739 76.0326 41.2099 79.352 38.6099 81.952C36.7119 83.85 34.4499 84.5433 32.0146 83.434L29.8999 90.9133L27.1959 88.2093ZM29.3539 76.596L31.6939 78.936C33.1932 80.4353 34.6232 80.314 35.8019 79.1353C36.9806 77.9566 37.1192 76.5006 35.6199 75.01L33.2799 72.67L29.3539 76.596Z"
		fill="black" />
	<path fill-rule="evenodd" clip-rule="evenodd"
		d="M32.7541 67.2126C32.8962 67.0704 33.1267 67.0704 33.2688 67.2126L38.4342 72.3779C40.1781 74.1218 40.9971 75.8876 41.0064 77.5906C41.0158 79.2937 40.2151 80.8617 38.8675 82.2093C37.8841 83.1927 36.7879 83.8826 35.6008 84.1742C34.5291 84.4374 33.4043 84.3706 32.2532 83.9286L30.2504 91.0123C30.2152 91.1366 30.1169 91.233 29.9919 91.2655C29.8669 91.2981 29.7341 91.262 29.6427 91.1707L26.9387 88.4667C26.8448 88.3727 26.8095 88.2351 26.8466 88.1075L28.7797 81.4677L26.8928 79.5807L22.7302 83.7433C22.6619 83.8116 22.5693 83.85 22.4728 83.85C22.3762 83.85 22.2837 83.8116 22.2154 83.7433L19.4767 81.0047C19.3346 80.8625 19.3346 80.6321 19.4767 80.4899L32.7541 67.2126ZM20.2489 80.7473L22.4728 82.9712L26.6354 78.8086C26.7775 78.6664 27.008 78.6664 27.1502 78.8086L29.4468 81.1052C29.5408 81.1992 29.5761 81.3368 29.5389 81.4644L27.6058 88.1042L29.7187 90.2171L31.6645 83.3349C31.6934 83.2328 31.7654 83.1483 31.8617 83.1037C31.9581 83.0591 32.0691 83.0587 32.1657 83.1027C33.3142 83.6259 34.405 83.7182 35.4271 83.4672C36.4543 83.2149 37.4381 82.6092 38.3527 81.6946C39.6051 80.4422 40.2864 79.0506 40.2785 77.5946C40.2705 76.1387 39.5728 74.5461 37.9194 72.8927L33.0115 67.9847L20.2489 80.7473ZM33.2801 72.306C33.3767 72.306 33.4692 72.3443 33.5375 72.4126L35.8768 74.7518C35.8769 74.7519 35.8769 74.752 35.877 74.7521C36.6709 75.5415 37.073 76.3644 37.0794 77.1868C37.0857 78.0096 36.6954 78.7568 36.0595 79.3927C35.4238 80.0284 34.6823 80.4154 33.8632 80.4038C33.046 80.3923 32.2285 79.9851 31.4367 79.1933L29.0967 76.8533C28.9546 76.7112 28.9546 76.4807 29.0967 76.3386L33.0227 72.4126C33.091 72.3443 33.1836 72.306 33.2801 72.306ZM29.8689 76.596L31.9515 78.6786C32.6591 79.3862 33.3062 79.6679 33.8735 79.6759C34.4389 79.6839 35.0018 79.4209 35.5447 78.8779C36.0875 78.3352 36.3558 77.765 36.3514 77.1925C36.3469 76.6196 36.0688 75.9693 35.3635 75.2681L35.3627 75.2673L33.2801 73.1847L29.8689 76.596Z"
		fill="black" />
	<path
		d="M42.1634 98.2106L36.7814 92.8286L33.4707 94.4926L30.6021 91.6239L48.4987 82.9573L52.0174 86.4759L43.3507 104.373L40.482 101.504L42.1461 98.1933L42.1634 98.2106ZM43.576 95.4113L47.4501 87.7066L47.2854 87.5419L39.5807 91.4159L43.576 95.4113Z"
		fill="black" />
	<path fill-rule="evenodd" clip-rule="evenodd"
		d="M48.3401 82.6297C48.4795 82.5621 48.6465 82.5903 48.7561 82.6999L52.2748 86.2185C52.3843 86.3281 52.4125 86.4951 52.345 86.6346L43.6783 104.531C43.627 104.637 43.5275 104.712 43.4113 104.732C43.2951 104.751 43.1766 104.713 43.0933 104.63L40.2247 101.761C40.1137 101.65 40.0863 101.481 40.1568 101.34L41.7027 98.2647L36.7099 93.2719L33.6342 94.8178C33.4939 94.8883 33.3243 94.861 33.2133 94.75L30.3447 91.8813C30.2613 91.798 30.2235 91.6795 30.2431 91.5634C30.2627 91.4472 30.3374 91.3477 30.4434 91.2963L48.3401 82.6297ZM42.4207 97.9532C42.5629 98.0953 42.5629 98.3258 42.4208 98.468C42.4173 98.4714 42.4138 98.4748 42.4103 98.4781L40.9254 101.432L43.2462 103.753L51.5769 86.5503L48.4244 83.3977L31.2213 91.7285L33.5422 94.0493L36.6179 92.5034C36.7581 92.4329 36.9278 92.4602 37.0388 92.5712L42.4207 97.9532ZM47.1219 87.2167C47.2621 87.1462 47.4318 87.1736 47.5428 87.2845L47.7074 87.4492C47.8184 87.5602 47.8458 87.7299 47.7752 87.8701L43.9012 95.5748C43.8487 95.6792 43.7493 95.752 43.6339 95.7706C43.5186 95.7892 43.4013 95.7513 43.3187 95.6687L39.3233 91.6733C39.2407 91.5907 39.2028 91.4734 39.2213 91.358C39.2399 91.2427 39.3128 91.1432 39.4172 91.0907L47.1219 87.2167ZM40.1944 91.5148L43.4772 94.7976L46.7971 88.1949L40.1944 91.5148Z"
		fill="black" />
	<path
		d="M57.902 92.3521L60.7533 95.2034L57.174 109.079L57.226 109.131L65.9533 100.403L68.692 103.142L55.4146 116.419L52.4593 113.464L55.978 99.8661L55.926 99.8141L47.372 108.368L44.6333 105.629L57.9106 92.3521H57.902Z"
		fill="black" />
	<path fill-rule="evenodd" clip-rule="evenodd"
		d="M57.6018 92.1461C57.6688 92.0485 57.7804 91.988 57.902 91.988H57.9106C58.0322 91.988 58.1438 92.0485 58.2108 92.1461L61.0107 94.946C61.1018 95.0371 61.1379 95.1695 61.1057 95.2943L57.8234 108.019L65.6959 100.146C65.838 100.004 66.0685 100.004 66.2107 100.146L68.9493 102.885C69.0176 102.953 69.056 103.046 69.056 103.142C69.056 103.239 69.0176 103.331 68.9493 103.399L55.672 116.677C55.6037 116.745 55.5112 116.783 55.4146 116.783C55.3181 116.783 55.2255 116.745 55.1572 116.677L52.2019 113.721C52.1107 113.63 52.0746 113.498 52.1069 113.373L55.3273 100.927L47.6293 108.625C47.5611 108.694 47.4685 108.732 47.372 108.732C47.2754 108.732 47.1828 108.694 47.1146 108.625L44.3759 105.887C44.2337 105.745 44.2337 105.514 44.3759 105.372L57.6018 92.1461ZM57.9063 92.8711L45.1481 105.629L47.372 107.853L55.6686 99.5567C55.7368 99.4884 55.8294 99.45 55.926 99.45C56.0225 99.45 56.1151 99.4884 56.1834 99.5567L56.2354 99.6087C56.3265 99.6998 56.3626 99.8324 56.3303 99.9572L52.8638 113.354L55.4146 115.905L68.1772 103.142L65.9533 100.918L57.4833 109.388C57.3412 109.53 57.1107 109.53 56.9686 109.388L56.9166 109.336C56.8255 109.245 56.7893 109.113 56.8215 108.988L60.3489 95.3138L57.9063 92.8711Z"
		fill="black" />
	<path
		d="M70.6767 105.127L75.5127 109.963C79.4907 113.941 79.1874 118.378 74.9147 122.642C70.6421 126.906 66.2134 127.218 62.2354 123.24L57.3994 118.404L70.6767 105.127ZM64.4281 120.51C67.0367 123.119 69.2034 122.781 72.1241 119.86C75.0447 116.939 75.3827 114.773 72.7741 112.164L70.9454 110.335L62.5994 118.681L64.4281 120.51Z"
		fill="black" />
	<path fill-rule="evenodd" clip-rule="evenodd"
		d="M70.4193 104.869C70.5615 104.727 70.792 104.727 70.9341 104.869L75.7701 109.705C77.8111 111.746 78.7907 113.945 78.6712 116.214C78.5522 118.475 77.3461 120.73 75.1719 122.9C72.998 125.069 70.7429 126.275 68.4839 126.395C66.216 126.516 64.0191 125.538 61.978 123.497L57.142 118.661C56.9999 118.519 56.9999 118.289 57.142 118.147L70.4193 104.869ZM57.9142 118.404L62.4928 122.983C64.4297 124.92 66.4361 125.775 68.4452 125.668C70.4632 125.561 72.5588 124.479 74.6576 122.384C76.7561 120.29 77.8379 118.195 77.9442 116.176C78.0501 114.166 77.1923 112.157 75.2553 110.22L70.6767 105.641L57.9142 118.404ZM70.9454 109.971C71.0419 109.971 71.1345 110.01 71.2028 110.078L73.0315 111.907C74.3725 113.248 75.0238 114.543 74.8848 115.931C74.7482 117.295 73.8561 118.643 72.3815 120.117C70.9068 121.592 69.5586 122.484 68.1953 122.621C66.8075 122.76 65.5118 122.108 64.1707 120.767L62.342 118.939C62.1999 118.797 62.1999 118.566 62.342 118.424L70.688 110.078C70.7563 110.01 70.8489 109.971 70.9454 109.971ZM63.1142 118.681L64.6854 120.253C65.953 121.52 67.045 122.004 68.1228 121.896C69.2252 121.786 70.4207 121.049 71.8667 119.603C73.3127 118.157 74.0499 116.961 74.1604 115.859C74.2683 114.781 73.7843 113.689 72.5167 112.421L70.9454 110.85L63.1142 118.681Z"
		fill="black" />
	<path
		d="M73.9701 126.291L76.7955 129.116C75.6515 130.364 75.4001 132.08 77.1508 133.831C78.6328 135.313 80.0628 135.451 81.1375 134.368C82.0475 133.458 81.9174 132.418 80.9988 131.04L79.5168 128.839C77.9221 126.412 77.1768 123.769 79.5861 121.359C82.1255 118.82 85.3928 119.496 88.2528 122.365C91.1128 125.233 91.8841 128.735 89.1715 131.447L86.3635 128.639C87.5941 127.478 87.1781 125.996 85.9388 124.757C84.4828 123.301 83.1568 123.526 82.3335 124.341C81.7268 124.947 81.3888 125.901 82.3335 127.261L83.7114 129.315C86.1208 132.895 86.0688 135.243 84.0581 137.254C81.1894 140.123 77.6794 139.074 74.7761 136.171C71.5088 132.903 71.0408 129.211 73.9614 126.291H73.9701Z"
		fill="black" />
	<path fill-rule="evenodd" clip-rule="evenodd"
		d="M83.7482 120.194C82.3777 120.001 81.0381 120.422 79.8433 121.617C78.7078 122.752 78.3359 123.914 78.4129 125.068C78.4913 126.242 79.0375 127.446 79.8196 128.637L81.3014 130.838C81.7745 131.548 82.0776 132.217 82.117 132.857C82.1578 133.521 81.9128 134.107 81.395 134.625C81.3949 134.625 81.3952 134.625 81.395 134.625L81.1372 134.368L81.3956 134.624C81.3954 134.625 81.3952 134.625 81.395 134.625C80.7892 135.235 80.0548 135.523 79.2516 135.422C78.4652 135.324 77.6666 134.861 76.8932 134.088C75.9693 133.164 75.5383 132.212 75.5234 131.291C75.5105 130.489 75.8131 129.758 76.3007 129.136L76.5378 129.373L76.7952 129.116L76.5269 128.87C76.4478 128.956 76.3723 129.045 76.3007 129.136L73.9711 126.807C74.0505 126.72 74.133 126.634 74.2186 126.548L73.9699 126.299V126.291L73.9656 126.295L73.9612 126.291V126.299L73.7125 126.548L73.9711 126.807C72.758 128.133 72.2708 129.589 72.4104 131.066C72.5604 132.653 73.4385 134.318 75.0333 135.913C76.4541 137.334 77.9921 138.268 79.4897 138.518C80.9663 138.764 82.4445 138.353 83.8005 136.997C84.7516 136.045 85.2116 135.048 85.1782 133.883C85.1442 132.697 84.5978 131.284 83.4093 129.519L82.0325 127.466C82.0331 127.467 82.0337 127.468 82.0342 127.469L82.3332 127.261L82.0309 127.464L82.0325 127.466C81.5274 126.738 81.3373 126.077 81.3888 125.487C81.4404 124.895 81.7293 124.43 82.0758 124.083L82.0772 124.082C82.5468 123.617 83.1778 123.305 83.9127 123.333C84.6458 123.362 85.4233 123.727 86.1959 124.499C86.8468 125.15 87.3155 125.897 87.4368 126.671C87.5447 127.36 87.3712 128.036 86.8706 128.632L86.6206 128.382L86.3632 128.639L86.613 128.904C86.7069 128.815 86.7927 128.725 86.8706 128.632L89.1643 130.926C89.0847 131.014 89.0012 131.103 88.9138 131.19L89.1712 131.447L89.4286 131.19L89.1643 130.926C90.2516 129.713 90.6229 128.368 90.4409 127.013C90.2434 125.542 89.3882 124.019 87.9948 122.622C86.5991 121.222 85.1358 120.39 83.7482 120.194ZM83.8498 119.474C85.4456 119.698 87.046 120.639 88.5103 122.108C89.9769 123.579 90.9374 125.24 91.1624 126.916C91.3896 128.607 90.8609 130.272 89.4286 131.705C89.3603 131.773 89.2678 131.811 89.1712 131.811C89.0747 131.811 88.9821 131.773 88.9138 131.705L86.1058 128.897C86.0363 128.827 85.9978 128.732 85.9993 128.634C86.0007 128.536 86.0419 128.442 86.1134 128.375C86.6467 127.871 86.8029 127.329 86.7175 126.784C86.6286 126.216 86.2697 125.603 85.6812 125.014C84.9978 124.331 84.3844 124.08 83.8846 124.061C83.387 124.042 82.9436 124.249 82.5899 124.599C82.3302 124.859 82.147 125.173 82.1141 125.55C82.0812 125.927 82.194 126.422 82.6322 127.054L82.6355 127.058L84.0132 129.112C84.0131 129.112 84.0133 129.112 84.0132 129.112C85.2338 130.926 85.8662 132.477 85.9059 133.862C85.9462 135.27 85.3749 136.452 84.3153 137.511C82.8026 139.024 81.0915 139.523 79.37 139.236C77.6697 138.952 76.001 137.911 74.5185 136.428C72.8459 134.755 71.8564 132.941 71.6857 131.135C71.5138 129.316 72.1773 127.56 73.7038 126.033C73.7721 125.965 73.8647 125.927 73.9612 125.927H73.9699C74.0664 125.927 74.159 125.965 74.2273 126.033L77.0526 128.859C77.1904 128.996 77.1952 129.218 77.0635 129.362C76.5378 129.935 76.2402 130.59 76.2513 131.279C76.2624 131.965 76.5811 132.746 77.4079 133.573C78.1165 134.282 78.7739 134.629 79.3417 134.7C79.8924 134.769 80.4101 134.584 80.8788 134.112L80.8798 134.111C81.2718 133.719 81.4166 133.329 81.3903 132.902C81.3626 132.45 81.1414 131.911 80.6961 131.242C80.6959 131.242 80.6962 131.243 80.6961 131.242L79.2123 129.039C78.4004 127.803 77.7771 126.473 77.6865 125.117C77.5946 123.74 78.0546 122.376 79.3285 121.102C80.6731 119.757 82.2367 119.246 83.8498 119.474Z"
		fill="black" />
</svg>