<svg width="509" height="155" viewBox="0 0 509 155" fill="none" xmlns="http://www.w3.org/2000/svg">
	<path
		d="M71.1646 154.13C35.5936 154.13 12.5896 133.895 12.5896 95.555H34.7416C34.7416 120.689 48.3736 134.747 71.1646 134.747C93.9556 134.747 107.801 120.689 107.801 94.064V2.89999H129.953V95.555C129.953 133.895 106.523 154.13 71.1646 154.13ZM203.674 154.13C168.103 154.13 145.099 133.895 145.099 95.555V2.89999H167.251V94.064C167.251 120.476 180.883 134.747 203.674 134.747C226.465 134.747 240.097 120.476 240.097 94.064V2.89999H262.462V95.555C262.462 133.895 239.032 154.13 203.674 154.13ZM333.201 154.13C295.713 154.13 274.413 135.599 274.413 106.844H296.991C297.843 122.819 308.493 135.386 333.414 135.386C355.566 135.386 366.855 125.588 366.855 110.252C366.855 95.555 356.205 89.378 340.23 86.183L319.995 82.136C294.861 77.237 278.673 65.096 278.673 41.879C278.673 16.532 298.269 0.982989 331.284 0.982989C364.299 0.982989 385.812 16.532 385.812 42.518H363.234C363.021 28.886 351.519 19.727 331.497 19.727C309.984 19.727 301.677 30.377 301.677 42.305C301.677 52.955 308.067 61.475 325.533 64.883L344.916 68.717C374.523 74.468 390.072 86.183 390.072 110.039C390.072 139.007 367.281 154.13 333.201 154.13ZM435.17 152V22.283H389.375V2.89999H503.117V22.283H457.322V152H435.17Z"
		fill="black" />
	<g clip-path="url(#clip0_0_1)">
		<path
			d="M64.8115 135.315L63.8748 131.536L62.0753 124.281L60.4973 117.922L58.6013 110.307L57.0118 103.915L55.1613 96.4592L53.5718 90.0998L51.8007 82.9774L50.2226 76.6075L48.4004 69.2783L46.811 62.919L44.8185 54.8744L43.2404 48.5151L40.7598 38.5681L40.7598 38.5575L40.6462 38.0858L50.9663 35.8547L51.0741 36.3052L51.8461 39.522L53.4242 46.1357L55.3429 54.1219L56.9607 60.8893L58.6751 68.0277L60.3099 74.8745L61.9561 81.7214L63.6137 88.6266L65.2315 95.3834L66.8664 102.225L68.5921 109.438L70.2099 116.168L71.7596 122.638L73.4058 129.496L73.8826 131.483L74.666 134.753C73.4285 135.352 71.4644 135.749 69.2278 135.776L68.9554 135.776C67.4284 135.776 66.0206 135.606 64.8682 135.315"
			fill="black" />
		<path
			d="M63.9825 135.225C63.1366 131.828 62.2965 128.431 61.4507 125.028C60.7809 122.331 60.1167 119.634 59.4412 116.936C58.5783 113.481 57.7212 110.026 56.864 106.57C56.0409 103.258 55.2235 99.9515 54.4004 96.6393C53.7078 93.8359 53.0039 91.0378 52.3057 88.2344C51.4258 84.6997 50.5516 81.1649 49.6718 77.6302C48.9679 74.7844 48.264 71.9439 47.5544 69.1034C46.754 65.8813 45.9479 62.6646 45.1475 59.4425C44.2904 55.9926 43.4389 52.5479 42.5817 49.098C41.7246 45.6481 40.9469 42.5373 40.1294 39.2569C40.0273 38.833 39.9194 38.4143 39.8172 37.9904C39.7718 37.7943 39.9705 37.683 40.1408 37.6459C43.5808 36.904 47.0208 36.1568 50.4608 35.4148C50.8639 35.3301 51.6756 35.4837 51.7835 35.9395C52.5782 39.3046 53.3899 42.6645 54.196 46.0243C54.8829 48.8966 55.5754 51.7636 56.2623 54.6306C57.0968 58.1283 57.9369 61.6259 58.7713 65.1235C59.5547 68.388 60.3324 71.6524 61.1158 74.9169C61.8254 77.8899 62.5463 80.8629 63.2559 83.8359C64.113 87.4024 64.9645 90.9689 65.816 94.5407C66.4802 97.323 67.15 100.105 67.8142 102.893C68.6543 106.396 69.4887 109.904 70.3289 113.407C71.0782 116.518 71.8218 119.628 72.5655 122.739C73.3091 125.85 74.0754 129.04 74.8304 132.188C75.0404 133.073 75.2562 133.963 75.4662 134.848C75.4946 134.976 75.4094 135.092 75.2902 135.145C72.1738 136.592 68.0299 136.528 64.7261 135.733C64.4706 135.67 63.9257 135.447 64.0222 135.119C64.1187 134.79 64.7204 134.854 64.9645 134.912C67.7744 135.59 71.345 135.606 73.9903 134.377L73.8143 134.673C73.0082 131.319 72.2078 127.964 71.4018 124.604C70.7035 121.7 70.011 118.796 69.3128 115.892C68.501 112.511 67.6893 109.13 66.8832 105.749C66.0771 102.368 65.2597 98.9446 64.4423 95.5423C63.7611 92.6859 63.0799 89.8295 62.393 86.9784C61.5358 83.3907 60.673 79.803 59.8102 76.2206C59.129 73.3748 58.4535 70.529 57.7666 67.6832C56.9435 64.265 56.1261 60.8416 55.3086 57.4181C54.4912 53.9947 53.6397 50.4388 52.7996 46.9517C52.0957 44.0158 51.3975 41.0747 50.6936 38.1388C50.5006 37.3491 50.3132 36.5542 50.1259 35.7646L51.4485 36.2893C48.0085 37.0312 44.5685 37.7784 41.1285 38.5203L41.4521 38.1759C42.2865 41.5516 43.1323 44.9273 43.9725 48.3084C44.6423 50.9952 45.3065 53.682 45.9706 56.3688C46.8335 59.8559 47.702 63.3429 48.5705 66.83C49.3823 70.0732 50.1827 73.3165 50.9887 76.5597C51.6926 79.3949 52.3909 82.2301 53.1004 85.0706C53.9803 88.616 54.8659 92.156 55.7514 95.7013C56.4553 98.5206 57.1535 101.345 57.8517 104.165C58.6692 107.445 59.4809 110.731 60.2983 114.011C61.1158 117.291 61.9729 120.746 62.8074 124.112C63.534 127.037 64.2549 129.957 64.9815 132.882L65.606 135.405C65.7536 136.009 64.096 135.781 63.9597 135.225L63.9825 135.225Z"
			fill="black" />
		<path
			d="M51.8461 39.522L53.4242 46.1357C53.4242 46.1357 53.0269 53.2316 44.8185 54.8745L43.2404 48.5151C43.2404 48.5151 49.8139 46.2947 51.8461 39.522ZM55.3429 54.1219C55.3713 54.0583 55.394 53.9842 55.411 53.9153L57.0005 60.5396C57.0005 60.5396 56.9891 60.6668 56.9607 60.8946C56.7564 62.3414 55.5075 67.8528 48.4061 69.2784L48.3948 69.2784L46.8167 62.919C46.8167 62.919 53.2653 60.7409 55.3429 54.1272L55.3429 54.1219ZM50.2226 76.6075C50.5121 76.5068 56.5747 74.3287 58.6751 68.033C58.7262 67.8952 58.7716 67.7627 58.8113 67.6196L60.4008 74.2439C60.4008 74.2439 60.3894 74.4877 60.3156 74.8852C59.9977 76.6658 58.4934 81.6367 51.8064 82.9827L51.7951 82.9827L50.217 76.6234L50.2283 76.6128L50.2226 76.6075ZM53.5718 90.0946C53.9465 89.9674 59.8047 87.8158 61.9561 81.7267C62.0356 81.5201 62.1037 81.3134 62.1605 81.1014L63.7499 87.7257C63.7499 87.7257 63.7329 88.0702 63.6137 88.6319C63.188 90.5927 61.5304 95.1714 55.1613 96.4592C55.1499 96.4698 55.1442 96.4698 55.1329 96.4698L53.5548 90.1105C53.5548 90.1105 53.5661 90.1105 53.5718 90.0999L53.5718 90.0946ZM57.0062 103.916C58.2039 103.444 63.3356 101.107 65.2259 95.394C65.2769 95.2668 65.311 95.1396 65.3507 95.0072L66.9402 101.631C66.9402 101.631 66.9288 101.859 66.8607 102.236C66.5485 103.963 65.118 108.886 58.5956 110.307C58.5105 110.333 58.4196 110.349 58.3345 110.37L56.7564 104.016C56.7564 104.016 56.8415 103.99 57.0062 103.916ZM60.4916 117.917C60.9854 117.763 66.628 115.85 68.5864 109.443C68.6034 109.406 68.6148 109.369 68.6261 109.337L70.2156 115.961C70.2156 115.961 70.2156 116.041 70.2042 116.178C70.1248 117.328 69.3698 122.803 62.0754 124.281C62.064 124.281 62.047 124.292 62.0356 124.292L60.4575 117.933C60.4575 117.933 60.4689 117.933 60.4973 117.922L60.4916 117.917ZM71.7483 122.644C71.7766 122.554 71.805 122.464 71.8334 122.373L73.4229 128.998C73.4229 128.998 73.4229 129.189 73.3945 129.501C73.3434 129.909 73.2469 130.524 72.9971 131.234C72.5146 132.654 71.4701 134.462 69.2108 135.781L68.9383 135.781C67.4113 135.781 66.0036 135.611 64.8512 135.32L63.9032 131.526L63.7386 130.847C63.7386 130.847 69.6536 129.204 71.7426 122.644L71.7483 122.644Z"
			fill="#F89A1C" />
		<path
			d="M52.6807 39.5855C52.9475 40.709 53.2143 41.8325 53.4867 42.9559C53.6741 43.7297 53.8557 44.5087 54.043 45.2824C54.1112 45.5739 54.2417 45.8971 54.2587 46.1992C54.3042 46.8404 54.0544 47.5824 53.8614 48.1812C53.4186 49.5591 52.6807 50.8786 51.6759 51.9756C50.0297 53.7668 47.7477 54.8585 45.3011 55.3672C44.8186 55.4679 44.1204 55.3248 43.9898 54.8055C43.4619 52.6857 42.9396 50.5659 42.4117 48.4462C42.3606 48.2289 42.5763 48.0805 42.7637 48.0169C43.8479 47.646 45.074 46.9146 46.0901 46.1674C48.4743 44.4239 50.1886 42.0285 51.0231 39.3152C51.2274 38.6422 52.8737 39.0556 52.6693 39.7286C51.4205 43.7721 48.0372 47.54 43.723 49.0079L44.0749 48.5787C44.6029 50.6984 45.1251 52.8182 45.653 54.938L44.3417 54.3762C48.0486 53.6078 51.0004 51.3609 52.1584 47.9427C52.3628 47.3333 52.6182 46.602 52.6012 45.9554C52.6012 46.0455 52.6239 46.1038 52.5671 45.9554C52.4933 45.7594 52.4649 45.5315 52.4195 45.3301L51.9143 43.2103C51.6135 41.9597 51.3183 40.7037 51.0174 39.453C50.8471 38.7376 52.5274 38.939 52.6807 39.5855Z"
			fill="black" />
		<path
			d="M54.5196 53.9153L54.5877 53.7086C54.8091 53.0409 56.1091 53.4383 56.2396 53.9789C56.478 54.9752 56.7165 55.9715 56.9549 56.9678C57.233 58.1336 57.6588 59.3366 57.8064 60.5237C57.9085 61.3186 57.5509 62.3043 57.2728 63.0462C56.7562 64.4294 55.9444 65.7277 54.8545 66.7823C54.0882 67.519 53.2027 68.1496 52.232 68.6318C51.1534 69.1724 49.7172 69.8083 48.4741 69.8083C48.1051 69.8083 47.651 69.5592 47.5601 69.2095C47.0322 67.0897 46.51 64.9699 45.982 62.8501C45.9309 62.6329 46.1467 62.4845 46.334 62.4209C47.4012 62.0552 48.5989 61.3398 49.6037 60.6138C51.9481 58.9074 53.6625 56.5756 54.5196 53.9206C54.7353 53.2529 56.3815 53.6662 56.1658 54.3339C54.8886 58.2926 51.5337 61.9704 47.299 63.4172L47.651 62.9879C48.1789 65.1077 48.7011 67.2275 49.229 69.3473L48.3151 68.7484C47.9121 68.7484 48.616 68.6318 48.7636 68.5894C49.0247 68.5205 49.2915 68.4411 49.5469 68.3563C50.0862 68.1761 50.6141 67.9641 51.1137 67.7044C51.9311 67.2805 52.6918 66.7558 53.3446 66.1305C54.372 65.1395 55.144 63.9418 55.6322 62.6435C55.8025 62.1877 55.9388 61.7267 56.0409 61.255C56.075 61.1013 56.1034 60.9423 56.1261 60.7887C56.1431 60.6562 56.1829 60.5131 56.1772 60.3859C56.1885 60.582 56.1602 60.4495 56.1545 60.4018C55.9274 59.3207 55.6379 58.2449 55.3825 57.1691C55.127 56.0934 54.8545 54.9593 54.5877 53.857L56.2396 54.1273L56.1715 54.3339C55.9501 55.0017 54.3096 54.5883 54.5253 53.9206L54.5196 53.9153Z"
			fill="black" />
		<path
			d="M49.7399 76.1093C53.6113 74.7686 56.8413 71.1755 57.9823 67.4076C58.1867 66.7346 59.5093 67.148 59.6342 67.6779C60.1508 69.8242 60.8149 71.9758 61.1839 74.1485C61.3258 74.9858 60.9341 76.051 60.6276 76.8353C60.0997 78.2026 59.2822 79.4904 58.1923 80.5291C57.4033 81.2763 56.5007 81.9122 55.5016 82.3892C54.4515 82.8979 53.0664 83.502 51.8686 83.502C51.4996 83.502 51.0455 83.253 50.9547 82.9032C50.6765 81.7797 50.3984 80.6562 50.1202 79.5275L49.581 77.3494C49.5242 77.1215 49.2347 76.4803 49.4674 76.2683C49.9726 75.8072 51.528 76.4273 50.9774 76.9307C51.159 76.7664 51.0001 76.5863 51.108 76.9307C51.1818 77.1692 51.2272 77.4236 51.2896 77.6674L51.8346 79.856L52.6236 83.0357L51.7097 82.4369C51.318 82.4369 52.0219 82.315 52.1695 82.2779C52.4363 82.209 52.7031 82.1295 52.9642 82.0394C53.4865 81.8645 53.986 81.6578 54.4742 81.4141C55.2859 80.9954 56.0409 80.4867 56.688 79.8666C57.7155 78.8915 58.4932 77.7098 58.9927 76.422C59.2652 75.7172 59.6512 74.6785 59.532 74.0107C59.3333 72.8873 58.9927 71.7691 58.7316 70.6615C58.4818 69.6228 58.2321 68.5841 57.9823 67.5454L59.6342 67.8157C58.4024 71.8751 55.0078 75.6112 50.7049 77.1003C50.0408 77.3282 48.7806 76.4379 49.7456 76.1093L49.7399 76.1093Z"
			fill="black" />
		<path
			d="M53.0892 89.6019C54.2586 89.2044 55.5245 88.4307 56.5746 87.6358C58.8623 85.9135 60.5539 83.5499 61.3316 80.9002C61.5303 80.2219 62.8586 80.6405 62.9835 81.1705C63.4944 83.2902 64.0734 85.41 64.5105 87.5457C64.6922 88.4254 64.3118 89.4535 63.9939 90.2802C63.4887 91.6051 62.711 92.8557 61.6722 93.8838C60.9399 94.6099 60.0884 95.2352 59.1518 95.7227C58.0108 96.3216 56.8187 96.5707 55.6039 96.9628C55.1385 97.1112 54.4119 96.8833 54.2927 96.4011C53.7647 94.2813 53.2425 92.1615 52.7146 90.0417C52.6805 89.9145 52.7884 89.7397 52.9076 89.6814L52.9246 89.6708C53.2936 89.4959 53.7647 89.5436 54.0996 89.7715C54.3381 89.9357 54.5708 90.3438 54.2018 90.524L54.1848 90.5346L54.3778 90.1742C54.9057 92.294 55.428 94.4138 55.9559 96.5336L54.6446 95.9718C55.6607 95.6486 56.6711 95.4684 57.6362 94.9967C58.4763 94.5834 59.271 94.064 59.9465 93.4387C61.0024 92.4636 61.8028 91.2712 62.3137 89.9728C62.4953 89.5171 62.6429 89.0507 62.7508 88.5738C62.8246 88.2558 62.9267 87.9061 62.9154 87.5775C62.9154 87.7524 62.8984 87.5828 62.8643 87.4662C62.518 86.3692 62.325 85.2139 62.0582 84.0958C61.8141 83.0783 61.57 82.0608 61.3259 81.0433L62.9778 81.3136C61.7857 85.3517 58.3344 89.1408 54.0486 90.5929C53.3844 90.8155 52.1185 89.9251 53.0892 89.6019Z"
			fill="black" />
		<path
			d="M56.5293 103.417C60.2758 101.939 63.4036 98.5685 64.5333 94.8006C64.7376 94.1223 66.0603 94.5409 66.1852 95.0709C66.6961 97.2065 67.3148 99.3422 67.7235 101.494C67.8768 102.289 67.5305 103.253 67.2637 104.011C66.7869 105.336 66.0376 106.597 65.0328 107.636C63.3639 109.363 61.1955 110.291 58.817 110.863C58.3401 110.98 57.6306 110.81 57.5057 110.301C56.9777 108.182 56.4555 106.067 55.9276 103.947C55.8708 103.73 56.0922 103.582 56.2795 103.518C56.3647 103.486 56.4498 103.455 56.5293 103.417C57.1821 103.153 58.4366 104.022 57.4886 104.408C57.4092 104.446 57.324 104.477 57.2389 104.509L57.5908 104.08C58.1187 106.2 58.641 108.314 59.1689 110.434L57.8576 109.872C59.9069 109.379 61.8199 108.637 63.3128 107.191C64.3233 106.21 65.0839 105.034 65.5664 103.751C65.8275 103.057 66.1909 102.045 66.0773 101.414C65.8673 100.291 65.538 99.1779 65.2769 98.065C65.0272 97.0264 64.7774 95.9877 64.5276 94.949L66.1795 95.2192C64.959 99.2945 61.6723 102.771 57.4943 104.419C56.8415 104.679 55.5813 103.799 56.535 103.428L56.5293 103.417Z"
			fill="black" />
		<path
			d="M60.0091 117.424C61.1955 117.053 62.3365 116.364 63.347 115.601C65.5949 113.9 66.8948 111.653 67.7974 109.13C68.0301 108.473 69.3187 108.855 69.4493 109.4C69.6877 110.397 69.9261 111.393 70.1645 112.389C70.4427 113.555 70.8344 114.742 71.0103 115.924C71.1125 116.618 70.8855 117.45 70.6811 118.113C70.2837 119.411 69.5798 120.646 68.6148 121.658C66.9856 123.354 64.8285 124.228 62.5068 124.785C62.03 124.896 61.3204 124.732 61.1955 124.223C60.6676 122.103 60.1454 119.983 59.6174 117.864C59.5663 117.662 59.7764 117.477 59.9694 117.434L60.0091 117.424C60.4008 117.328 60.9003 117.413 61.1728 117.715C61.3999 117.964 61.3488 118.325 60.9685 118.42L60.9287 118.431L61.2807 118.001C61.8086 120.121 62.3308 122.241 62.8588 124.361L61.5475 123.799C63.5286 123.327 65.4019 122.649 66.8608 121.255C67.8485 120.307 68.5694 119.151 68.9895 117.89C69.1938 117.275 69.4436 116.502 69.3698 115.85C69.2449 114.769 68.8419 113.651 68.5864 112.591C68.331 111.531 68.0585 110.381 67.7917 109.279L69.4436 109.549C68.4843 112.23 67.0992 114.557 64.7377 116.38C63.6308 117.233 62.3422 117.996 60.9741 118.425C60.31 118.637 59.0384 117.736 60.0148 117.434L60.0091 117.424Z"
			fill="black" />
		<path
			d="M70.925 122.437C70.9533 122.347 70.9817 122.257 71.0101 122.167C71.2258 121.494 72.5371 121.902 72.662 122.437C73.1104 124.308 73.5589 126.179 74.0073 128.049C74.2287 128.961 74.2798 129.597 74.0698 130.556C73.6951 132.241 72.7755 133.847 71.4415 135.039C71.0158 135.421 70.556 135.781 70.0564 136.078C69.6307 136.332 69.239 136.311 68.7508 136.306C67.3884 136.285 66.0317 136.131 64.7091 135.808C64.4026 135.733 64.096 135.543 64.0222 135.246C63.6476 133.757 63.2729 132.268 62.9096 130.773C62.8585 130.566 63.0742 130.397 63.2616 130.344C66.9968 129.295 69.818 125.823 70.925 122.432C71.1463 121.764 72.7869 122.183 72.5712 122.845C71.3677 126.523 68.3251 130.185 64.2266 131.34L64.5785 130.911C64.9418 132.405 65.3165 133.894 65.6911 135.384L65.0043 134.822C66.361 135.15 67.7404 135.246 69.1368 135.246L68.5805 135.352C70.2949 134.324 71.5551 132.84 72.1795 131.027C72.3952 130.402 72.6733 129.565 72.5882 128.897C72.5541 128.616 72.452 128.33 72.3838 128.055C71.924 126.136 71.4642 124.218 71.0044 122.305L72.6563 122.575C72.6279 122.665 72.5996 122.755 72.5712 122.845C72.3555 123.513 70.7149 123.1 70.925 122.432L70.925 122.437Z"
			fill="black" />
		<path
			d="M63.4946 135.771C62.6488 132.374 61.8086 128.977 60.9628 125.574C60.293 122.877 59.6288 120.18 58.9533 117.482C58.0905 114.027 57.2333 110.572 56.3762 107.116C55.553 103.804 54.7356 100.497 53.9125 97.1853C53.22 94.3819 52.5161 91.5838 51.8179 88.7804C50.938 85.2457 50.0638 81.7109 49.1839 78.1762C48.48 75.3304 47.7761 72.4899 47.0665 69.6494C46.2661 66.4273 45.4601 63.2106 44.6597 59.9885C43.8025 56.5386 42.951 53.0939 42.0939 49.644C41.2367 46.1941 40.459 43.0833 39.6416 39.8029C39.5848 39.575 39.5224 39.3525 39.4713 39.1246C39.4656 39.0875 39.4542 39.0557 39.4429 39.0186C39.4259 38.9391 39.2953 38.5735 39.4202 38.849C39.5167 39.0557 39.4372 38.9497 39.4145 38.8861C39.3748 38.7801 39.3577 38.6529 39.3294 38.5364C39.1193 37.6937 39.9027 37.0896 40.6861 36.92C44.1261 36.1781 47.5661 35.4309 51.0061 34.689C51.5113 34.5777 52.1641 34.9009 52.2777 35.3938C53.0724 38.7589 53.8841 42.1188 54.6902 45.4786C55.3771 48.3509 56.0696 51.2179 56.7565 54.0849C57.5909 57.5826 58.4311 61.0802 59.2655 64.5778C60.0489 67.8423 60.8266 71.1067 61.61 74.3712C62.3195 77.3442 63.0405 80.3172 63.75 83.2902C64.6072 86.8567 65.4587 90.4232 66.3102 93.995C66.9743 96.7772 67.6442 99.5595 68.3083 102.347C69.1485 105.85 69.9829 109.358 70.8231 112.861C71.5724 115.972 72.316 119.083 73.0596 122.193C73.8033 125.304 74.5696 128.494 75.3246 131.642C75.5346 132.527 75.7503 133.418 75.9604 134.303C76.1307 135.018 75.58 135.548 74.9499 135.839C71.754 137.323 67.525 137.228 64.1474 136.412C63.4492 136.242 63.3811 135.378 63.6876 134.896C64.0793 134.276 64.8286 134.059 65.5438 134.228C68.28 134.891 71.7597 134.875 74.3312 133.683L73.3208 135.219C72.5147 131.865 71.7143 128.51 70.9082 125.15C70.21 122.246 69.5175 119.342 68.8192 116.438C68.0075 113.057 67.1957 109.676 66.3897 106.295C65.5836 102.914 64.7661 99.4906 63.9487 96.0883C63.2675 93.2319 62.5863 90.3755 61.8995 87.5244C61.0423 83.9367 60.1795 80.349 59.3166 76.7665C58.6354 73.9207 57.9599 71.0749 57.2731 68.2291C56.4499 64.811 55.6325 61.3876 54.8151 57.9641C53.9806 54.4771 53.1462 50.9847 52.306 47.4977C51.6021 44.5618 50.9039 41.6206 50.2 38.6847C50.007 37.8951 49.8197 37.1002 49.6324 36.3106L50.9039 37.0154C47.4639 37.7573 44.0239 38.5046 40.5839 39.2465L41.9406 37.6302C41.9917 37.8368 42.0314 38.0382 42.0768 38.2449C42.1677 38.7059 41.9746 37.8792 42.0882 38.2131C42.1733 38.4569 42.2131 38.7218 42.2755 38.9709L42.9964 41.875C43.4846 43.8358 43.9728 45.8019 44.461 47.7627C45.1308 50.4495 45.795 53.1363 46.4592 55.8231C47.322 59.3102 48.1905 62.7972 49.059 66.2842C49.8708 69.5275 50.6712 72.7708 51.4773 76.014C52.1812 78.8492 52.8794 81.6844 53.5889 84.5249C54.4688 88.0703 55.3544 91.6103 56.2399 95.1556C56.9438 97.9749 57.642 100.8 58.3403 103.619C59.1577 106.899 59.9694 110.185 60.7869 113.465C61.6043 116.746 62.4615 120.201 63.2959 123.566C64.0225 126.491 64.7434 129.411 65.47 132.337L66.0945 134.859C66.4351 136.221 63.8295 137.249 63.4662 135.776L63.4946 135.771Z"
			fill="black" />
		<path
			d="M40.433 38.0946C40.1748 37.0538 42.3622 35.6919 45.3187 35.0527C48.2752 34.4134 50.8812 34.7389 51.1394 35.7796C51.3976 36.8204 49.2102 38.1823 46.2537 38.8215C43.2972 39.4608 40.6912 39.1353 40.433 38.0946Z"
			fill="#FFF4EC" />
		<path
			d="M41.8555 38.0116C41.8215 37.9056 41.935 38.1123 41.9634 38.1494C41.8385 38.0116 42.128 38.2553 42.0258 38.1917C41.9236 38.1282 42.3551 38.3348 42.2302 38.2871C42.1053 38.2394 42.2983 38.3083 42.304 38.3083C42.4061 38.3348 42.5083 38.356 42.6105 38.3772C42.8262 38.4196 42.4402 38.356 42.6729 38.3878C42.7694 38.3984 42.8659 38.409 42.9625 38.4196C43.1441 38.4355 43.3201 38.4461 43.5017 38.4461C43.3371 38.4461 43.6153 38.4461 43.6209 38.4461C43.7345 38.4461 43.848 38.4408 43.9672 38.4302C44.2056 38.4196 44.4497 38.3984 44.6881 38.3719C46.1868 38.1917 47.9635 37.7307 49.1386 36.8404C49.4621 36.5966 49.763 36.2786 49.7516 35.9925C49.7516 35.8706 49.6495 35.7593 49.6324 35.7381C49.5359 35.6374 49.377 35.5844 49.2237 35.5473C49.1726 35.5367 48.8093 35.4625 48.9853 35.489C48.7923 35.4572 48.5936 35.4466 48.4006 35.436C48.0487 35.4148 47.7251 35.4307 47.271 35.4678C46.4138 35.5367 45.551 35.7169 44.7335 35.9766C43.9161 36.2363 43.11 36.5436 42.4459 37.0418C42.0939 37.3067 41.7817 37.6194 41.8612 38.0169C41.969 38.568 40.8678 38.7747 40.4875 38.7906C39.9993 38.8171 39.1364 38.7323 39.0286 38.1706C38.898 37.5134 39.4373 36.8934 39.9312 36.4906C40.7656 35.8123 41.7874 35.3459 42.8092 34.9803C45.1423 34.1589 47.9238 33.6978 50.3931 34.2172C51.1424 34.3761 52.1301 34.6994 52.4651 35.4148C52.7773 36.072 52.3629 36.7291 51.869 37.1955C51.1481 37.8791 50.1831 38.3348 49.2521 38.7058C48.0657 39.1774 46.7941 39.4954 45.5169 39.6756C44.0921 39.8717 42.6105 39.9459 41.1914 39.6491C40.2831 39.4583 39.2954 39.0715 39.0172 38.1653C38.8583 37.63 40.0504 37.4074 40.391 37.3915C40.9246 37.3597 41.6852 37.4551 41.8498 38.0116L41.8555 38.0116Z"
			fill="black" />
	</g>
	<defs>
		<clipPath id="clip0_0_1">
			<rect width="37" height="103" fill="white" transform="matrix(-1 7.24156e-10 7.24156e-10 1 76 34)" />
		</clipPath>
	</defs>
</svg>