<svg width="536" height="150" viewBox="0 0 536 150" fill="none" xmlns="http://www.w3.org/2000/svg">
	<path
		d="M43.925 150V28.59H0.686V0.89999H119.114V28.59H75.875V150H43.925ZM216.585 0.89999H248.535V150H216.585V88.656H158.223V150H126.273V0.89999H158.223V62.244H216.585V0.89999ZM370.101 150L360.516 122.097H297.681L288.096 150H254.655L308.544 0.89999H349.653L403.542 150H370.101ZM305.775 98.454H352.422L330.057 33.489H328.14L305.775 98.454ZM409.804 150V0.89999H443.032L503.098 98.88H503.737V0.89999H535.687V150H501.181L442.393 53.937H441.754V150H409.804Z"
		fill="black" />
</svg>