<svg width="138" height="74" viewBox="0 0 138 74" fill="none" xmlns="http://www.w3.org/2000/svg">
	<path
		d="M6.075 19V3.61H0.594V0.0999987H15.606V3.61H10.125V19H6.075ZM29.5815 0.0999987H33.6315V19H29.5815V11.224H22.1835V19H18.1335V0.0999987H22.1835V7.876H29.5815V0.0999987ZM37.1041 19V0.0999987H41.1541V19H37.1041ZM44.6314 19V0.0999987H48.8434L56.4574 12.52H56.5384V0.0999987H60.5884V19H56.2144L48.7624 6.823H48.6814V19H44.6314ZM76.4967 19L70.6917 11.413L68.1267 14.41V19H64.0767V0.0999987H68.1267V8.983L75.6597 0.0999987H80.4117L73.1757 8.524L81.1407 19H76.4967ZM10.017 46.27C4.563 46.27 0.999 42.328 0.999 36.55C0.999 30.745 4.563 26.857 10.017 26.857C15.471 26.857 19.035 30.745 19.035 36.55C19.035 42.328 15.471 46.27 10.017 46.27ZM10.017 42.787C13.122 42.787 14.877 40.303 14.877 36.55C14.877 32.77 13.122 30.34 10.017 30.34C6.912 30.34 5.157 32.77 5.157 36.55C5.157 40.303 6.912 42.787 10.017 42.787ZM29.7861 46.27C25.1421 46.27 21.9831 43.867 21.9831 38.818V27.1H26.0601V38.521C26.0601 41.329 27.4641 42.76 29.7861 42.76C32.1081 42.76 33.4851 41.329 33.4851 38.521V27.1H37.5621V38.818C37.5621 43.867 34.3761 46.27 29.7861 46.27ZM45.572 46V30.61H40.091V27.1H55.103V30.61H49.622V46H45.572ZM64.6091 46.27C59.7761 46.27 56.6981 43.975 56.6981 39.817H60.8831C60.9641 41.518 62.0441 42.922 64.6361 42.922C66.8231 42.922 67.9841 42.004 67.9841 40.465C67.9841 39.169 67.1201 38.521 65.4191 38.197L62.6921 37.684C59.7221 37.09 57.2111 35.74 57.2111 32.311C57.2111 28.693 60.1271 26.857 64.3661 26.857C68.6861 26.857 71.7641 28.801 71.7641 32.662H67.6061C67.6601 30.961 66.2561 30.205 64.4201 30.205C62.2601 30.205 61.4501 31.312 61.4501 32.473C61.4501 33.337 61.9091 34.255 63.6101 34.552L66.1481 35.038C70.5761 35.875 72.2771 37.576 72.2771 40.438C72.2771 44.515 68.9021 46.27 64.6091 46.27ZM75.23 46V27.1H79.28V46H75.23ZM82.7573 46V27.1H89.9123C95.7983 27.1 98.8493 30.475 98.8493 36.55C98.8493 42.625 95.7983 46 89.9123 46H82.7573ZM86.8073 42.49H89.5073C93.3683 42.49 94.7183 40.708 94.7183 36.55C94.7183 32.392 93.3683 30.61 89.5073 30.61H86.8073V42.49ZM101.781 46V27.1H114.687V30.61H105.831V34.849H113.877V38.008H105.831V42.49H114.957V46H101.781ZM6.075 73V57.61H0.594V54.1H15.606V57.61H10.125V73H6.075ZM29.5815 54.1H33.6315V73H29.5815V65.224H22.1835V73H18.1335V54.1H22.1835V61.876H29.5815V54.1ZM37.1041 73V54.1H50.0101V57.61H41.1541V61.849H49.2001V65.008H41.1541V69.49H50.2801V73H37.1041ZM59.7261 73V54.1H67.3941C71.6061 54.1 73.5231 55.963 73.5231 58.825C73.5231 60.877 72.5781 62.038 70.7961 62.605C73.6041 63.361 74.8191 65.116 74.8191 67.465C74.8191 70.516 72.7131 73 67.7181 73H59.7261ZM63.7761 61.768H67.2321C68.4471 61.768 69.4731 61.12 69.4731 59.581C69.4731 58.042 68.4471 57.502 67.2321 57.502H63.7761V61.768ZM63.7761 69.598H67.5831C69.8511 69.598 70.6341 68.383 70.6341 67.006C70.6341 65.575 69.8511 64.333 67.5831 64.333H63.7761V69.598ZM85.965 73.27C80.511 73.27 76.947 69.328 76.947 63.55C76.947 57.745 80.511 53.857 85.965 53.857C91.419 53.857 94.983 57.745 94.983 63.55C94.983 69.328 91.419 73.27 85.965 73.27ZM85.965 69.787C89.07 69.787 90.825 67.303 90.825 63.55C90.825 59.77 89.07 57.34 85.965 57.34C82.86 57.34 81.105 59.77 81.105 63.55C81.105 67.303 82.86 69.787 85.965 69.787ZM101.218 73L96.3037 54.1H100.462L103.486 67.303H103.675L107.32 54.1H111.478L115.123 67.303H115.312L118.336 54.1H122.494L117.58 73H113.368L109.399 59.203L105.43 73H101.218ZM125.023 73V54.1H129.073V69.49H137.767V73H125.023Z"
		fill="black" />
</svg>