<svg width="95" height="120" viewBox="0 0 95 120" fill="none" xmlns="http://www.w3.org/2000/svg">
	<path
		d="M9.92727 0.786362C10.2242 0.828786 10.447 0.934846 10.5955 1.10454C10.7439 1.25303 10.85 1.44394 10.9136 1.67727C10.9985 1.88939 11.0515 2.12273 11.0727 2.37727C11.1152 2.6106 11.1682 2.83333 11.2318 3.04545C11.3379 3.27879 11.4121 3.51212 11.4545 3.74545C11.497 3.97879 11.5288 4.22273 11.55 4.47727C11.5924 4.7106 11.6348 4.95454 11.6773 5.20909C11.7197 5.44242 11.7939 5.66515 11.9 5.87727C12.0061 6.11061 12.0803 6.36515 12.1227 6.64091C12.1864 6.91667 12.2818 7.17121 12.4091 7.40454C12.5788 8.18939 12.7591 8.96364 12.95 9.72727C13.1621 10.4697 13.3318 11.2439 13.4591 12.05C13.7561 12.75 13.9364 13.503 14 14.3091C14.0849 15.0939 14.2758 15.8364 14.5727 16.5364C14.5727 16.8333 14.6045 17.1197 14.6682 17.3955C14.7318 17.6712 14.8061 17.9364 14.8909 18.1909C14.997 18.4455 15.103 18.7 15.2091 18.9545C15.3152 19.2091 15.4 19.4742 15.4636 19.75C15.5909 19.9833 15.697 20.2061 15.7818 20.4182C15.8879 20.6515 16.0576 20.8636 16.2909 21.0545C16.5455 21.2455 16.6939 21.4788 16.7364 21.7545C16.8 22.0515 16.853 22.3485 16.8955 22.6455C16.8318 22.8152 16.7364 22.9424 16.6091 23.0273C16.4818 23.1333 16.3333 23.2076 16.1636 23.25C16.0152 23.2924 15.8455 23.3242 15.6545 23.3455C15.4849 23.3667 15.3258 23.3879 15.1773 23.4091C14.8167 23.4939 14.4455 23.5152 14.0636 23.4727C13.6818 23.4515 13.2788 23.4621 12.8545 23.5045C12.2182 23.4621 11.5712 23.4621 10.9136 23.5045C10.2561 23.547 9.60909 23.5152 8.97273 23.4091C8.80303 23.3667 8.66515 23.2606 8.55909 23.0909C8.45303 22.9424 8.37879 22.7833 8.33636 22.6136C8.2303 22.3167 8.25152 22.0197 8.4 21.7227C8.54849 21.447 8.7394 21.2242 8.97273 21.0545C9.24849 20.8848 9.4394 20.6727 9.54546 20.4182C9.65152 20.1636 9.70455 19.8879 9.70455 19.5909C9.72576 19.3152 9.71515 19.0182 9.67273 18.7C9.6303 18.403 9.6197 18.1167 9.64091 17.8409C9.53485 17.4803 9.41818 17.1303 9.29091 16.7909C9.18485 16.4515 9.11061 16.1015 9.06818 15.7409C8.94091 15.5712 8.79243 15.4758 8.62273 15.4545C8.51667 15.4121 8.41061 15.4121 8.30455 15.4545C8.19849 15.4758 8.08182 15.4864 7.95455 15.4864C7.50909 15.4652 7.06364 15.4439 6.61818 15.4227C6.17273 15.4015 5.71667 15.4227 5.25 15.4864C4.95303 15.6773 4.79394 15.953 4.77273 16.3136C4.75152 16.653 4.70909 16.9606 4.64546 17.2364C4.47576 17.5333 4.3697 17.8409 4.32727 18.1591C4.30606 18.4773 4.27424 18.8167 4.23182 19.1773C4.16818 19.5167 4.18939 19.8455 4.29545 20.1636C4.42273 20.503 4.63485 20.7682 4.93182 20.9591C5.16515 21.0652 5.34546 21.2136 5.47273 21.4045C5.62121 21.6167 5.71667 21.8288 5.75909 22.0409C5.82273 22.4015 5.7803 22.7197 5.63182 22.9955C5.46212 23.2076 5.23939 23.3136 4.96364 23.3136C4.68788 23.3348 4.43333 23.3667 4.2 23.4091C3.83939 23.303 3.44697 23.2606 3.02273 23.2818C2.59849 23.3242 2.18485 23.3667 1.78182 23.4091C1.54849 23.3455 1.28333 23.3136 0.986364 23.3136C0.689394 23.3136 0.456061 23.1864 0.286364 22.9318C0.180303 22.6985 0.137879 22.4545 0.159091 22.2C0.180303 21.9455 0.243939 21.7121 0.35 21.5C0.498485 21.2879 0.689394 21.097 0.922727 20.9273C1.15606 20.7788 1.29394 20.5773 1.33636 20.3227C1.5697 19.6439 1.76061 18.9545 1.90909 18.2545C2.07879 17.5758 2.24849 16.8864 2.41818 16.1864C2.52424 15.953 2.59849 15.7091 2.64091 15.4545C2.70455 15.2 2.74697 14.9455 2.76818 14.6909C2.81061 14.4364 2.85303 14.1924 2.89545 13.9591C2.95909 13.7045 3.05455 13.4606 3.18182 13.2273C3.41515 11.8909 3.70152 10.5864 4.04091 9.31364C4.40152 8.04091 4.68788 6.73636 4.9 5.4C5.11212 4.97576 5.25 4.54091 5.31364 4.09545C5.37727 3.62879 5.47273 3.18333 5.6 2.75909C5.6 2.6106 5.57879 2.44091 5.53636 2.25C5.49394 2.05909 5.45152 1.87879 5.40909 1.70909C5.38788 1.53939 5.38788 1.3803 5.40909 1.23182C5.45152 1.08333 5.56818 0.956058 5.75909 0.849998C6.20455 0.743937 6.70303 0.701513 7.25455 0.722725C7.82727 0.743937 8.27273 0.754543 8.59091 0.754543L9.92727 0.786362ZM6.96818 8.29545C6.90455 8.21061 6.84091 8.17879 6.77727 8.2C6.73485 8.2 6.69242 8.24242 6.65 8.32727C6.62879 8.39091 6.60758 8.46515 6.58636 8.55C6.58636 8.63485 6.57576 8.68788 6.55455 8.70909C6.55455 8.94242 6.51212 9.15454 6.42727 9.34545C6.36364 9.53636 6.33182 9.74848 6.33182 9.98182C6.28939 10.4061 6.19394 10.8197 6.04546 11.2227C5.91818 11.6045 5.85455 12.0288 5.85455 12.4955C5.87576 12.5591 5.91818 12.6121 5.98182 12.6545C6.06667 12.697 6.14091 12.7288 6.20455 12.75C6.35303 12.75 6.49091 12.7712 6.61818 12.8136C6.76667 12.8348 6.91515 12.8561 7.06364 12.8773C7.21212 12.8773 7.35 12.8667 7.47727 12.8455C7.60455 12.803 7.73182 12.7288 7.85909 12.6227C7.92273 12.5803 7.95455 12.5167 7.95455 12.4318C7.97576 12.3258 7.97576 12.2303 7.95455 12.1455C7.76364 11.5303 7.59394 10.9045 7.44546 10.2682C7.29697 9.6106 7.13788 8.95303 6.96818 8.29545ZM28.349 0.690907C28.8793 0.839392 29.3884 1.0303 29.8763 1.26363C30.3854 1.47576 30.9157 1.66666 31.4672 1.83636C31.7429 1.96363 31.9763 2.13333 32.1672 2.34545C32.3581 2.53636 32.5278 2.74848 32.6763 2.98182C32.8248 3.21515 32.9626 3.44848 33.0899 3.68182C33.2384 3.91515 33.4187 4.12727 33.6308 4.31818C33.7369 4.48788 33.7899 4.66818 33.7899 4.85909C33.8111 5.02879 33.8429 5.20909 33.8854 5.4C34.0339 5.69697 34.0869 6.01515 34.0445 6.35454C34.0233 6.69394 34.0657 7.03333 34.1717 7.37273C34.1293 8.17879 33.9066 8.92121 33.5036 9.6C33.1217 10.2788 32.602 10.8939 31.9445 11.4455C31.7748 11.5727 31.5626 11.7106 31.3081 11.8591C31.0748 12.0076 30.9793 12.2197 31.0217 12.4955C31.149 12.7924 31.3081 13.0788 31.499 13.3545C31.6899 13.6091 31.8066 13.9061 31.849 14.2455C32.0823 14.5636 32.2308 14.9136 32.2945 15.2955C32.3793 15.6773 32.5278 16.0379 32.7399 16.3773C32.8036 16.7379 32.899 17.0773 33.0263 17.3955C33.1748 17.6924 33.2808 18.0106 33.3445 18.35C33.5354 18.6894 33.6839 19.0394 33.7899 19.4C33.9172 19.7818 34.1399 20.1106 34.4581 20.3864C34.5642 20.5136 34.6808 20.6303 34.8081 20.7364C34.9566 20.8636 35.0945 20.9803 35.2217 21.0864C35.349 21.2136 35.4445 21.3515 35.5081 21.5C35.5929 21.6485 35.6248 21.8182 35.6036 22.0091C35.646 22.3697 35.5823 22.6455 35.4126 22.8364C35.2217 23.0485 34.999 23.1864 34.7445 23.25C34.5111 23.3348 34.2566 23.3773 33.9808 23.3773C33.7263 23.3773 33.4611 23.3561 33.1854 23.3136C32.9308 23.2924 32.6763 23.2924 32.4217 23.3136C31.9975 23.4197 31.5733 23.4409 31.149 23.3773C30.746 23.3136 30.3642 23.2182 30.0036 23.0909C29.7914 22.9424 29.6323 22.7621 29.5263 22.55C29.4202 22.3379 29.3142 22.1258 29.2081 21.9136C28.9748 21.4894 28.8157 21.0333 28.7308 20.5455C28.646 20.0788 28.4551 19.6545 28.1581 19.2727C28.052 18.9121 27.946 18.5409 27.8399 18.1591C27.7339 17.7985 27.596 17.4485 27.4263 17.1091C27.3839 16.7485 27.2566 16.4197 27.0445 16.1227C26.8323 15.8258 26.7157 15.497 26.6945 15.1364C26.5672 14.8818 26.4611 14.6167 26.3763 14.3409C26.2914 14.0652 26.1536 13.8106 25.9626 13.5773C25.7929 13.5561 25.6551 13.6409 25.549 13.8318C25.5066 14.6591 25.496 15.4864 25.5172 16.3136C25.5384 17.1409 25.549 17.9788 25.549 18.8273C25.4429 19.2515 25.4429 19.6439 25.549 20.0045C25.6551 20.3864 25.8778 20.7045 26.2172 20.9591C26.4293 21.0227 26.6414 21.1182 26.8536 21.2455C27.0657 21.3939 27.2142 21.5848 27.299 21.8182C27.3202 22.0727 27.3202 22.3379 27.299 22.6136C27.299 22.9106 27.1823 23.1333 26.949 23.2818C26.5884 23.4091 26.196 23.4409 25.7717 23.3773C25.3475 23.3348 24.9339 23.3136 24.5308 23.3136C24.0854 23.3561 23.6399 23.3667 23.1945 23.3455C22.749 23.3455 22.2929 23.3667 21.8263 23.4091H18.9945C18.8884 23.3667 18.7717 23.3136 18.6445 23.25C18.5384 23.1864 18.4536 23.1015 18.3899 22.9955C18.2839 22.7621 18.2414 22.4758 18.2626 22.1364C18.2839 21.8182 18.4005 21.5636 18.6126 21.3727C18.6975 21.2667 18.8036 21.1818 18.9308 21.1182C19.0793 21.0545 19.2172 20.9803 19.3445 20.8955C19.4717 20.8106 19.5778 20.7152 19.6626 20.6091C19.7687 20.503 19.8217 20.3652 19.8217 20.1955C19.8642 19.7924 19.9066 19.4 19.949 19.0182C19.9914 18.6576 20.002 18.2652 19.9808 17.8409C20.0869 17.6712 20.1293 17.5015 20.1081 17.3318C20.0869 17.1409 20.0551 16.9606 20.0126 16.7909C20.1187 16.303 20.1505 15.8045 20.1081 15.2955C20.0869 14.7864 20.0551 14.2773 20.0126 13.7682C19.9914 13.3864 20.0232 13.0045 20.1081 12.6227C20.2142 12.2409 20.2142 11.8591 20.1081 11.4773C20.1081 11.1591 20.1187 10.8409 20.1399 10.5227C20.1823 10.1833 20.1823 9.85454 20.1399 9.53636C19.9702 9.04848 19.8854 8.50758 19.8854 7.91364C19.9066 7.3197 19.9278 6.75757 19.949 6.22727C19.9702 5.90909 19.9702 5.5697 19.949 5.20909C19.9278 4.82727 19.9172 4.45606 19.9172 4.09545C19.9172 3.90454 19.8536 3.72424 19.7263 3.55454C19.599 3.36363 19.4505 3.20454 19.2808 3.07727C19.0475 3.03485 18.8248 2.91818 18.6126 2.72727C18.4005 2.51515 18.2732 2.29242 18.2308 2.05909C18.2308 1.80454 18.252 1.57121 18.2945 1.35909C18.3581 1.12576 18.5172 0.945452 18.7717 0.81818L19.0899 0.722725C19.9596 0.680301 20.8293 0.680301 21.699 0.722725C22.5475 0.722725 23.3854 0.701513 24.2126 0.659089C25.0611 0.616664 25.9096 0.616664 26.7581 0.659089L28.349 0.690907ZM27.7126 3.61818C27.4369 3.40606 27.1505 3.25757 26.8536 3.17273C26.5778 3.06667 26.2914 2.99242 25.9945 2.95C25.8672 2.97121 25.7611 3.06666 25.6763 3.23636C25.6339 4.10606 25.6339 4.98636 25.6763 5.87727C25.7399 6.42879 25.7399 6.9697 25.6763 7.5C25.6126 8.00909 25.6339 8.53939 25.7399 9.09091C25.7399 9.23939 25.7293 9.40909 25.7081 9.6C25.6869 9.7697 25.6763 9.93939 25.6763 10.1091C25.6763 10.2788 25.6975 10.4485 25.7399 10.6182C25.7823 10.7667 25.8778 10.8833 26.0263 10.9682C26.6202 11.0318 27.1187 10.8303 27.5217 10.3636C27.7763 10.1303 27.9566 9.86515 28.0626 9.56818C28.1687 9.25 28.2429 8.93182 28.2854 8.61364C28.3278 8.27424 28.349 7.93485 28.349 7.59545C28.3702 7.23485 28.4126 6.89545 28.4763 6.57727C28.4339 6.04697 28.3702 5.52727 28.2854 5.01818C28.2005 4.50909 28.0096 4.04242 27.7126 3.61818ZM44.2658 0.786362C44.5628 0.828786 44.8704 0.849998 45.1885 0.849998C45.5067 0.828786 45.8143 0.839392 46.1113 0.881816C46.5355 0.796967 46.9279 0.807573 47.2885 0.913635C47.6704 0.998483 48.0734 0.987876 48.4976 0.881816C48.8582 0.881816 49.2082 0.87121 49.5476 0.849998C49.9082 0.807574 50.2688 0.807574 50.6294 0.849998C50.8628 0.849998 51.0113 0.945452 51.0749 1.13636C51.1597 1.32727 51.2446 1.50757 51.3294 1.67727C51.3719 2.10151 51.3719 2.52576 51.3294 2.95C51.287 3.35303 51.287 3.76667 51.3294 4.19091C51.287 4.3606 51.2764 4.55151 51.2976 4.76364C51.34 4.95454 51.3613 5.14545 51.3613 5.33636C51.3825 5.50606 51.3613 5.67576 51.2976 5.84545C51.2552 5.99394 51.1385 6.12121 50.9476 6.22727C50.6082 6.33333 50.2264 6.40757 49.8022 6.45C49.3779 6.49242 49.0067 6.38636 48.6885 6.13182C48.4976 6.00454 48.3704 5.83485 48.3067 5.62273C48.2643 5.38939 48.2007 5.17727 48.1158 4.98636C47.7552 4.41363 47.2885 3.95757 46.7158 3.61818C46.1643 3.25757 45.5491 3.1303 44.8704 3.23636C44.7007 3.32121 44.5946 3.4803 44.5522 3.71363C44.5097 4.1803 44.5204 4.66818 44.584 5.17727C44.6476 5.66515 44.6052 6.14242 44.4567 6.60909C44.5628 7.18182 44.5734 7.75454 44.4885 8.32727C44.4249 8.87879 44.4461 9.4303 44.5522 9.98182C44.5522 10.1303 44.637 10.2258 44.8067 10.2682C45.2097 10.2682 45.5704 10.1303 45.8885 9.85454C46.2067 9.57879 46.4507 9.28182 46.6204 8.96364C46.684 8.83636 46.7264 8.68788 46.7476 8.51818C46.79 8.34848 46.8325 8.2 46.8749 8.07273C46.9385 7.92424 47.0234 7.80757 47.1294 7.72273C47.2567 7.61667 47.4264 7.56364 47.6385 7.56364C47.787 7.56364 47.9461 7.55303 48.1158 7.53182C48.3067 7.5106 48.4764 7.5 48.6249 7.5C48.7946 7.5 48.9537 7.53182 49.1022 7.59545C49.2507 7.65909 49.3673 7.77576 49.4522 7.94545C49.4946 8.0303 49.5158 8.15757 49.5158 8.32727C49.537 8.47576 49.537 8.60303 49.5158 8.70909C49.4097 9.66364 49.3991 10.6182 49.484 11.5727C49.5688 12.5061 49.5794 13.45 49.5158 14.4045C49.5582 14.6379 49.5582 14.8606 49.5158 15.0727C49.4734 15.2848 49.3355 15.4439 49.1022 15.55C48.8476 15.6348 48.54 15.6773 48.1794 15.6773C47.84 15.6561 47.5537 15.5606 47.3204 15.3909C47.1507 15.2636 47.034 15.1258 46.9704 14.9773C46.9279 14.8076 46.8855 14.6379 46.8431 14.4682C46.8007 14.2985 46.7476 14.1394 46.684 13.9909C46.6204 13.8212 46.5143 13.6727 46.3658 13.5455C46.0688 13.1 45.6552 12.8242 45.1249 12.7182C44.9976 12.6758 44.881 12.697 44.7749 12.7818C44.6688 12.8667 44.5628 12.9621 44.4567 13.0682C44.3507 13.4924 44.3294 13.9273 44.3931 14.3727C44.4779 14.797 44.4991 15.2424 44.4567 15.7091C44.5204 16.4091 44.5204 17.1197 44.4567 17.8409C44.4143 18.5409 44.4779 19.2409 44.6476 19.9409C44.6476 20.1318 44.6794 20.3015 44.7431 20.45C44.8279 20.6197 44.9552 20.7364 45.1249 20.8C45.2734 20.9273 45.4325 21.0015 45.6022 21.0227C45.7719 21.0652 45.931 21.0652 46.0794 21.0227C46.2491 20.9803 46.4082 20.9167 46.5567 20.8318C46.7264 20.747 46.8749 20.6621 47.0022 20.5773C47.4264 20.2167 47.787 19.8242 48.084 19.4C48.381 18.997 48.5825 18.5515 48.6885 18.0636C48.7946 17.9576 48.8794 17.8409 48.9431 17.7136C49.0279 17.5652 49.1128 17.4273 49.1976 17.3C49.3037 17.1727 49.4097 17.0773 49.5158 17.0136C49.6431 16.9288 49.8022 16.897 49.9931 16.9182C50.2476 16.9182 50.5234 16.9182 50.8204 16.9182C51.1173 16.9182 51.3507 17.0561 51.5204 17.3318C51.6052 17.4591 51.637 17.5864 51.6158 17.7136C51.6158 17.8409 51.5946 17.9682 51.5522 18.0955C51.531 18.2227 51.4991 18.35 51.4567 18.4773C51.4355 18.6258 51.4355 18.7742 51.4567 18.9227C51.3719 19.1561 51.3294 19.3894 51.3294 19.6227C51.3294 19.8561 51.34 20.1 51.3613 20.3545C51.3825 20.6091 51.3931 20.8636 51.3931 21.1182C51.4143 21.3727 51.4037 21.6273 51.3613 21.8818C51.34 22.0091 51.3294 22.147 51.3294 22.2955C51.3507 22.4439 51.3507 22.5818 51.3294 22.7091C51.3082 22.8364 51.2552 22.953 51.1704 23.0591C51.1067 23.1652 51.0007 23.25 50.8522 23.3136C50.3007 23.4197 49.7173 23.4515 49.1022 23.4091C48.5082 23.3879 47.9355 23.4197 47.384 23.5045C46.4931 23.3985 45.581 23.3667 44.6476 23.4091C43.7355 23.4515 42.834 23.4197 41.9431 23.3136C41.6249 23.3773 41.2961 23.3879 40.9567 23.3455C40.6385 23.303 40.3416 23.3348 40.0658 23.4409C39.8961 23.4409 39.737 23.4197 39.5885 23.3773C39.4613 23.3348 39.3234 23.3136 39.1749 23.3136C38.9416 23.3136 38.6976 23.3136 38.4431 23.3136C38.1885 23.3348 37.9552 23.2924 37.7431 23.1864C37.5734 23.0591 37.4461 22.9106 37.3613 22.7409C37.2764 22.5924 37.2658 22.4121 37.3294 22.2C37.3507 22.0091 37.4249 21.8394 37.5522 21.6909C37.6794 21.5424 37.8173 21.4045 37.9658 21.2773C38.1355 21.15 38.284 21.0121 38.4113 20.8636C38.5597 20.7364 38.6658 20.5773 38.7294 20.3864C38.8143 20.0894 38.8355 19.7818 38.7931 19.4636C38.7507 19.1455 38.7294 18.8167 38.7294 18.4773C38.7507 18.0318 38.7507 17.5864 38.7294 17.1409C38.7294 16.6742 38.7613 16.2076 38.8249 15.7409C38.7825 15.0197 38.7613 14.2985 38.7613 13.5773C38.7613 12.8561 38.8037 12.1561 38.8885 11.4773C38.8249 10.9258 38.7931 10.3636 38.7931 9.79091C38.8143 9.21818 38.8249 8.65606 38.8249 8.10454C38.8249 7.48939 38.8143 6.85303 38.7931 6.19545C38.7719 5.53788 38.7613 4.8697 38.7613 4.19091C38.7613 3.97879 38.7082 3.79848 38.6022 3.65C38.4961 3.50151 38.3688 3.37424 38.2204 3.26818C38.0719 3.16212 37.9128 3.05606 37.7431 2.95C37.5946 2.84394 37.4567 2.71667 37.3294 2.56818C37.287 2.39848 37.234 2.20757 37.1704 1.99545C37.1279 1.78333 37.1491 1.57121 37.234 1.35909C37.4673 0.998483 37.7643 0.81818 38.1249 0.81818C38.4855 0.796968 38.8461 0.807574 39.2067 0.849998C39.8643 0.786361 40.5537 0.743937 41.2749 0.722725C42.0173 0.680301 42.7279 0.712119 43.4067 0.81818L44.2658 0.786362ZM70.3301 1.42273C70.3513 1.71969 70.3301 2.01666 70.2665 2.31363C70.2241 2.6106 70.0544 2.84394 69.7574 3.01363C69.5665 3.1197 69.3438 3.24697 69.0892 3.39545C68.8347 3.54394 68.6968 3.76667 68.6756 4.06363C68.6332 4.82727 68.5801 5.59091 68.5165 6.35454C68.4741 7.11818 68.4635 7.89242 68.4847 8.67727C68.4635 9.4197 68.4528 10.1621 68.4528 10.9045C68.4741 11.647 68.5059 12.3788 68.5483 13.1C68.5059 13.7576 68.4741 14.4258 68.4528 15.1045C68.4528 15.7833 68.421 16.4515 68.3574 17.1091C68.5271 17.5545 68.5801 18.0318 68.5165 18.5409C68.4741 19.05 68.4528 19.5485 68.4528 20.0364C68.4741 20.503 68.4635 20.9485 68.421 21.3727C68.3786 21.797 68.3574 22.2424 68.3574 22.7091C68.3574 22.8152 68.3044 22.9106 68.1983 22.9955C68.0922 23.1015 67.9862 23.1758 67.8801 23.2182C67.6256 23.3242 67.3498 23.3667 67.0528 23.3455C66.7559 23.3242 66.5013 23.2076 66.2892 22.9955C65.6741 22.0621 65.0907 21.1394 64.5392 20.2273C64.0089 19.3152 63.4468 18.403 62.8528 17.4909C62.3862 16.5364 61.8665 15.6136 61.2938 14.7227C60.721 13.8106 60.1907 12.8773 59.7028 11.9227C59.3422 11.4348 59.0347 10.9258 58.7801 10.3955C58.5256 9.84394 58.1862 9.33485 57.7619 8.86818C57.7195 8.76212 57.6665 8.76212 57.6028 8.86818C57.4968 9.10151 57.4438 9.35606 57.4438 9.63182C57.4438 9.88636 57.4225 10.1303 57.3801 10.3636C57.4225 10.703 57.4438 11.0318 57.4438 11.35C57.465 11.6682 57.4862 11.997 57.5074 12.3364C57.5074 12.8455 57.4968 13.3439 57.4756 13.8318C57.4756 14.2985 57.465 14.7758 57.4438 15.2636C57.3589 15.5394 57.3271 15.8045 57.3483 16.0591C57.3907 16.2924 57.4225 16.5364 57.4438 16.7909C57.4438 17.1091 57.4331 17.4379 57.4119 17.7773C57.3907 18.1167 57.3907 18.4455 57.4119 18.7636C57.4331 19.103 57.4862 19.4212 57.571 19.7182C57.6559 20.0364 57.7831 20.3227 57.9528 20.5773C58.1013 20.7045 58.271 20.8106 58.4619 20.8955C58.6528 20.9803 58.8331 21.0652 59.0028 21.15C59.1725 21.2561 59.321 21.3727 59.4483 21.5C59.5756 21.6485 59.6604 21.8288 59.7028 22.0409C59.7028 22.3167 59.671 22.5712 59.6074 22.8045C59.5438 23.0591 59.3741 23.2394 59.0983 23.3455C58.9286 23.4515 58.7377 23.4727 58.5256 23.4091C58.3347 23.3667 58.1438 23.3667 57.9528 23.4091C57.5922 23.3455 57.2316 23.3136 56.871 23.3136C56.5104 23.3348 56.1498 23.3561 55.7892 23.3773C55.4286 23.3985 55.068 23.3985 54.7074 23.3773C54.368 23.3561 54.0392 23.2712 53.721 23.1227C53.5301 22.9742 53.4241 22.7939 53.4028 22.5818C53.3816 22.3697 53.3922 22.147 53.4347 21.9136C53.4559 21.7015 53.5195 21.5318 53.6256 21.4045C53.7528 21.2773 53.8907 21.1712 54.0392 21.0864C54.2089 21.0015 54.368 20.9167 54.5165 20.8318C54.6862 20.747 54.8241 20.6303 54.9301 20.4818C55.121 20.2273 55.2165 19.9303 55.2165 19.5909C55.2165 19.2727 55.2589 18.9652 55.3438 18.6682C55.2589 17.9894 55.2059 17.2894 55.1847 16.5682C55.1635 15.8258 55.2059 15.1045 55.3119 14.4045C55.2059 14.1076 55.1847 13.8212 55.2483 13.5455C55.3331 13.2697 55.3225 12.9939 55.2165 12.7182C55.3225 12.2727 55.3225 11.8485 55.2165 11.4455C55.1316 11.0212 55.121 10.6076 55.1847 10.2045C55.2907 8.74091 55.2907 7.29848 55.1847 5.87727C55.1422 5.49545 55.1316 5.11363 55.1528 4.73182C55.1953 4.32879 55.068 3.98939 54.771 3.71363C54.665 3.56515 54.5271 3.43788 54.3574 3.33182C54.2089 3.20454 54.0604 3.07727 53.9119 2.95C53.7635 2.82273 53.6362 2.69545 53.5301 2.56818C53.4453 2.4197 53.4028 2.23939 53.4028 2.02727C53.3604 1.79394 53.3604 1.57121 53.4028 1.35909C53.4665 1.14697 53.6044 0.987876 53.8165 0.881816C54.1347 0.775755 54.4635 0.733331 54.8028 0.754543C55.1635 0.754543 55.5241 0.754543 55.8847 0.754543C56.1816 0.712119 56.4892 0.701513 56.8074 0.722725C57.1256 0.722725 57.4438 0.722725 57.7619 0.722725C58.1013 0.722725 58.4513 0.743937 58.8119 0.786362C59.1725 0.807574 59.4695 0.966665 59.7028 1.26363C60.0422 1.68788 60.318 2.14394 60.5301 2.63182C60.7635 3.09848 61.0604 3.54394 61.421 3.96818C61.5695 4.32879 61.7604 4.68939 61.9938 5.05C62.2483 5.4106 62.4604 5.77121 62.6301 6.13182C62.7362 6.51363 62.9271 6.84242 63.2028 7.11818C63.4786 7.39394 63.6695 7.69091 63.7756 8.00909C64.1362 8.5606 64.465 9.12273 64.7619 9.69545C65.0801 10.2682 65.3983 10.8409 65.7165 11.4136C65.8225 11.5197 65.9286 11.5621 66.0347 11.5409C66.1619 11.3924 66.2362 11.2227 66.2574 11.0318C66.2998 10.8409 66.3104 10.65 66.2892 10.4591C66.2892 10.247 66.2574 10.0455 66.1938 9.85454C66.1513 9.66364 66.1195 9.48333 66.0983 9.31364C66.0983 9.18636 66.1089 9.0803 66.1301 8.99545C66.1513 8.91061 66.1725 8.81515 66.1938 8.70909C66.0877 7.96667 66.0877 7.21364 66.1938 6.45C66.1513 6.25909 66.1407 6.05757 66.1619 5.84545C66.1831 5.63333 66.1938 5.42121 66.1938 5.20909C66.1938 4.97576 66.1725 4.76363 66.1301 4.57273C66.1089 4.38182 66.0347 4.20151 65.9074 4.03182C65.8225 3.77727 65.6847 3.58636 65.4938 3.45909C65.3241 3.3106 65.1331 3.18333 64.921 3.07727C64.7301 2.97121 64.5392 2.85454 64.3483 2.72727C64.1786 2.6 64.0513 2.40909 63.9665 2.15454C63.9665 1.94242 63.9665 1.74091 63.9665 1.55C63.9877 1.35909 64.0725 1.17879 64.221 1.00909C64.4756 0.860604 64.7407 0.76515 65.0165 0.722725C65.2922 0.680301 65.5786 0.659089 65.8756 0.659089C66.1938 0.659089 66.5013 0.669695 66.7983 0.690907C67.1165 0.712119 67.4241 0.701513 67.721 0.659089C68.315 0.595452 68.9195 0.595452 69.5347 0.659089C69.7044 0.680301 69.8635 0.775756 70.0119 0.945453C70.1816 1.09394 70.2877 1.25303 70.3301 1.42273ZM77.5088 1.74091C77.8907 2.37727 78.1346 3.09848 78.2407 3.90454C78.3467 4.7106 78.2831 5.48485 78.0498 6.22727C77.9437 6.77879 77.7634 7.28788 77.5088 7.75454C77.2755 8.2 77.021 8.64545 76.7452 9.09091C76.2361 9.68485 75.674 10.1727 75.0588 10.5545C74.4437 10.9364 73.7861 11.1591 73.0861 11.2227C72.9164 11.2227 72.7573 11.1803 72.6088 11.0955C72.4816 10.9894 72.3755 10.8621 72.2907 10.7136C72.1634 10.4803 72.1104 10.2045 72.1316 9.88636C72.174 9.56818 72.2588 9.29242 72.3861 9.05909C72.5134 8.9106 72.6513 8.78333 72.7998 8.67727C72.9695 8.57121 73.1285 8.47576 73.277 8.39091C73.4467 8.28485 73.6058 8.17879 73.7543 8.07273C73.924 7.96667 74.0619 7.81818 74.1679 7.62727C74.274 7.43636 74.3801 7.21364 74.4861 6.95909C74.5922 6.70454 74.5922 6.4606 74.4861 6.22727C74.3164 6.12121 74.1361 6.05757 73.9452 6.03636C73.7755 5.99394 73.6058 5.94091 73.4361 5.87727C73.0331 5.68636 72.6831 5.4106 72.3861 5.05C72.0891 4.68939 71.9195 4.29697 71.877 3.87273C71.8134 3.32121 71.8346 2.7803 71.9407 2.25C72.0679 1.69848 72.3543 1.24242 72.7998 0.881816C73.1179 0.563634 73.4785 0.351513 73.8816 0.245452C74.3058 0.11818 74.7513 0.0757558 75.2179 0.118179C75.6846 0.22424 76.1195 0.404543 76.5225 0.659089C76.9255 0.913634 77.2543 1.27424 77.5088 1.74091ZM94.5761 1.23182C94.6397 1.40151 94.6503 1.5606 94.6079 1.70909C94.5655 1.83636 94.5443 1.98485 94.5443 2.15454C94.5655 2.70606 94.5655 3.25757 94.5443 3.80909C94.523 4.33939 94.523 4.89091 94.5443 5.46363C94.5018 5.5697 94.4594 5.68636 94.417 5.81364C94.3746 5.94091 94.3003 6.02576 94.1943 6.06818C93.9397 6.21666 93.6321 6.30151 93.2715 6.32273C92.9109 6.32273 92.614 6.22727 92.3806 6.03636C92.2533 5.90909 92.1473 5.77121 92.0624 5.62273C91.9988 5.45303 91.9352 5.28333 91.8715 5.11363C91.8291 4.94394 91.7761 4.78485 91.7124 4.63636C91.6488 4.46666 91.5533 4.30757 91.4261 4.15909C91.2564 4.0106 91.0973 3.8303 90.9488 3.61818C90.8003 3.40606 90.6094 3.34242 90.3761 3.42727C90.2064 3.6606 90.1321 3.93636 90.1533 4.25454C90.1958 4.55151 90.1852 4.84848 90.1215 5.14545C90.1852 5.63333 90.1746 6.12121 90.0897 6.60909C90.0261 7.07576 90.0579 7.54242 90.1852 8.00909C90.2276 8.28485 90.2276 8.55 90.1852 8.80454C90.1427 9.03788 90.1003 9.28182 90.0579 9.53636C90.0155 9.7697 89.973 10.003 89.9306 10.2364C89.9094 10.4697 89.9412 10.7136 90.0261 10.9682C90.0261 11.2652 90.0155 11.5833 89.9943 11.9227C89.9943 12.2409 90.0155 12.5485 90.0579 12.8455C90.0367 13.0152 90.0261 13.1848 90.0261 13.3545C90.0473 13.5242 90.0367 13.6833 89.9943 13.8318C89.9306 14.7652 89.9306 15.6773 89.9943 16.5682C90.1003 16.9288 90.1321 17.3 90.0897 17.6818C90.0685 18.0636 90.1003 18.4348 90.1852 18.7955C90.1215 19.1561 90.1109 19.5273 90.1533 19.9091C90.217 20.2909 90.3655 20.6197 90.5988 20.8955C90.8109 21.0227 91.0337 21.1606 91.267 21.3091C91.5003 21.4576 91.6382 21.6591 91.6806 21.9136C91.7018 22.147 91.7018 22.3803 91.6806 22.6136C91.6806 22.847 91.564 23.0167 91.3306 23.1227C90.4821 23.3773 89.6018 23.4939 88.6897 23.4727C87.7776 23.4515 86.8761 23.4409 85.9852 23.4409C85.7518 23.3348 85.5079 23.2924 85.2533 23.3136C85.02 23.3561 84.7655 23.3561 84.4897 23.3136C84.2776 23.2924 84.0761 23.2394 83.8852 23.1545C83.6943 23.0697 83.4821 23.0485 83.2488 23.0909C83.0791 23.0061 82.973 22.8788 82.9306 22.7091C82.9094 22.5606 82.8988 22.4015 82.8988 22.2318C82.8988 22.1045 82.9094 21.9773 82.9306 21.85C82.9518 21.7439 83.0155 21.6485 83.1215 21.5636C83.2912 21.3939 83.4927 21.2773 83.7261 21.2136C83.9594 21.15 84.1185 20.9803 84.2033 20.7045C84.3094 20.4712 84.3624 20.2167 84.3624 19.9409C84.3837 19.6652 84.4155 19.4106 84.4579 19.1773C84.3943 18.6894 84.373 18.2121 84.3943 17.7455C84.4367 17.2576 84.4473 16.7697 84.4261 16.2818C84.4685 15.7939 84.4897 15.3273 84.4897 14.8818C84.4897 14.4152 84.4897 13.9379 84.4897 13.45C84.5109 13.047 84.4791 12.6652 84.3943 12.3045C84.3094 11.9227 84.3306 11.5409 84.4579 11.1591C84.3306 10.6288 84.3094 10.0879 84.3943 9.53636C84.5003 8.98485 84.5215 8.45454 84.4579 7.94545C84.5003 7.45757 84.4897 6.9803 84.4261 6.51363C84.3837 6.02576 84.3412 5.53788 84.2988 5.05V3.55454C84.1715 3.38485 84.023 3.33182 83.8533 3.39545C83.514 3.69242 83.217 4.02121 82.9624 4.38182C82.7079 4.72121 82.57 5.12424 82.5488 5.59091C82.4852 5.78182 82.3579 5.95151 82.167 6.1C81.9761 6.24848 81.7746 6.33333 81.5624 6.35454C81.2655 6.35454 80.9579 6.33333 80.6397 6.29091C80.3427 6.22727 80.12 6.04697 79.9715 5.75C79.8867 5.4106 79.8336 5.08182 79.8124 4.76364C79.8124 4.42424 79.823 4.08485 79.8443 3.74545C79.8655 3.40606 79.8761 3.06667 79.8761 2.72727C79.8973 2.38788 79.8973 2.03788 79.8761 1.67727C79.8973 1.50757 79.9503 1.35909 80.0352 1.23182C80.1412 1.10454 80.2579 0.987876 80.3852 0.881816C80.5761 0.775755 80.7882 0.733331 81.0215 0.754543C81.2549 0.775756 81.4882 0.786362 81.7215 0.786362C82.3367 0.828786 82.9518 0.828786 83.567 0.786362C84.2033 0.743937 84.8397 0.754543 85.4761 0.81818C86.1549 0.775755 86.8549 0.754543 87.5761 0.754543C88.2973 0.733331 88.9973 0.765149 89.6761 0.849998C89.973 0.765149 90.2488 0.743937 90.5033 0.786362C90.7579 0.828786 91.0337 0.818179 91.3306 0.754543C91.5852 0.775756 91.8397 0.775756 92.0943 0.754543C92.37 0.733331 92.6352 0.722725 92.8897 0.722725C93.1443 0.701513 93.3882 0.712119 93.6215 0.754543C93.8761 0.775756 94.1094 0.849998 94.3215 0.977271L94.5761 1.23182ZM8.87727 33.0727C8.98333 33.2636 9.05758 33.4864 9.1 33.7409C9.16364 33.9955 9.14243 34.2288 9.03636 34.4409C8.99394 34.5894 8.9197 34.7167 8.81364 34.8227C8.70758 34.9076 8.59091 35.003 8.46364 35.1091C8.35758 35.1939 8.26212 35.2894 8.17727 35.3955C8.09243 35.5015 8.03939 35.6394 8.01818 35.8091C8.01818 36.297 8.09242 36.753 8.24091 37.1773C8.38939 37.5803 8.52727 37.9939 8.65455 38.4182C8.88788 38.9909 9.07879 39.5636 9.22727 40.1364C9.37576 40.7091 9.54546 41.2818 9.73637 41.8545C9.77879 41.8758 9.81061 41.9076 9.83182 41.95C9.87424 41.9712 9.91667 41.9606 9.95909 41.9182C10.1076 41.7273 10.2136 41.5258 10.2773 41.3136C10.3621 41.0803 10.4364 40.8576 10.5 40.6455C10.5636 40.4121 10.6273 40.1894 10.6909 39.9773C10.7545 39.7652 10.85 39.5636 10.9773 39.3727C11.1258 38.8848 11.2848 38.4182 11.4545 37.9727C11.6242 37.5273 11.7727 37.0818 11.9 36.6364C11.9424 36.4667 11.9318 36.3076 11.8682 36.1591C11.8258 35.9894 11.7833 35.8409 11.7409 35.7136C11.6136 35.5651 11.4758 35.4273 11.3273 35.3C11.1788 35.1727 11.0409 35.0455 10.9136 34.9182C10.7864 34.7909 10.6803 34.653 10.5955 34.5045C10.5318 34.3348 10.5106 34.1439 10.5318 33.9318C10.4682 33.4652 10.6167 33.0833 10.9773 32.7864C11.3167 32.5955 11.6667 32.553 12.0273 32.6591C12.4091 32.7439 12.8015 32.7651 13.2045 32.7227C13.6076 32.7439 14.0212 32.7545 14.4455 32.7545C14.8909 32.7545 15.3045 32.7651 15.6864 32.7864C15.7924 32.8712 15.8985 32.9348 16.0045 32.9773C16.1318 32.9985 16.2273 33.0833 16.2909 33.2318C16.4606 33.7197 16.45 34.1864 16.2591 34.6318C16.0682 35.0561 15.7818 35.4167 15.4 35.7136C15.1242 36.0742 14.9015 36.4667 14.7318 36.8909C14.5621 37.2939 14.3818 37.6864 14.1909 38.0682C14.1061 38.3651 14.0212 38.6621 13.9364 38.9591C13.8727 39.2561 13.7667 39.5212 13.6182 39.7545C13.5545 39.9879 13.4697 40.2 13.3636 40.3909C13.2576 40.5606 13.1833 40.7515 13.1409 40.9636C13.0773 41.1333 13.0136 41.303 12.95 41.4727C12.8864 41.6424 12.8015 41.8121 12.6955 41.9818C12.5894 42.2788 12.5045 42.5758 12.4409 42.8727C12.3773 43.1485 12.2712 43.403 12.1227 43.6364C11.9742 44.2727 11.7833 44.8773 11.55 45.45C11.3167 46.0227 11.2212 46.6697 11.2636 47.3909C11.2636 48.0697 11.2424 48.7591 11.2 49.4591C11.1788 50.1591 11.2 50.8697 11.2636 51.5909C11.2848 51.8242 11.3273 52.0576 11.3909 52.2909C11.4545 52.5242 11.603 52.7045 11.8364 52.8318C12.0909 52.9379 12.3348 53.1076 12.5682 53.3409C12.8227 53.5742 12.9712 53.8394 13.0136 54.1364C13.0561 54.3273 13.0561 54.5182 13.0136 54.7091C12.9712 54.9 12.8652 55.0697 12.6955 55.2182C12.5894 55.2606 12.4833 55.303 12.3773 55.3455C12.2924 55.3879 12.1758 55.4091 12.0273 55.4091C11.2848 55.4939 10.5318 55.5152 9.76818 55.4727C9.02576 55.4303 8.27273 55.4091 7.50909 55.4091C7.02121 55.4727 6.53333 55.4939 6.04546 55.4727C5.55758 55.4515 5.0697 55.4303 4.58182 55.4091C4.41212 55.4091 4.24242 55.3455 4.07273 55.2182C3.90303 55.1121 3.79697 54.9742 3.75455 54.8045C3.71212 54.55 3.71212 54.2742 3.75455 53.9773C3.81818 53.7015 3.93485 53.4682 4.10455 53.2773C4.29546 53.1076 4.50758 52.9697 4.74091 52.8636C4.99546 52.7576 5.16515 52.5773 5.25 52.3227C5.35606 51.9833 5.40909 51.6439 5.40909 51.3045C5.4303 50.9652 5.4303 50.6152 5.40909 50.2545C5.38788 49.9152 5.36667 49.5758 5.34546 49.2364C5.32424 48.897 5.34546 48.547 5.40909 48.1864C5.38788 47.8682 5.38788 47.55 5.40909 47.2318C5.45152 46.9136 5.4197 46.6061 5.31364 46.3091C5.20758 45.9485 5.10152 45.5879 4.99546 45.2273C4.91061 44.8667 4.78333 44.5061 4.61364 44.1455C4.3803 43.6576 4.18939 43.1697 4.04091 42.6818C3.89242 42.1727 3.73333 41.6424 3.56364 41.0909C3.37273 40.4333 3.13939 39.797 2.86364 39.1818C2.60909 38.5667 2.39697 37.9303 2.22727 37.2727C2.03636 36.7848 1.81364 36.3182 1.55909 35.8727C1.32576 35.4061 0.965152 35.003 0.477273 34.6636C0.371212 34.4303 0.286364 34.1545 0.222727 33.8364C0.180303 33.497 0.243939 33.2106 0.413636 32.9773C0.562121 32.8288 0.731818 32.7333 0.922727 32.6909C1.13485 32.6485 1.34697 32.6379 1.55909 32.6591C1.79242 32.6591 2.01515 32.6803 2.22727 32.7227C2.46061 32.7439 2.67273 32.7333 2.86364 32.6909C3.60606 32.6485 4.35909 32.6591 5.12273 32.7227C5.88636 32.7651 6.63939 32.7227 7.38182 32.5955C7.63636 32.6591 7.90152 32.6909 8.17727 32.6909C8.47424 32.6697 8.70758 32.797 8.87727 33.0727ZM26.4993 32.3409C26.966 32.447 27.4221 32.5636 27.8675 32.6909C28.3342 32.8182 28.7584 33.0091 29.1402 33.2636C29.6918 33.3697 30.1796 33.6455 30.6039 34.0909C31.0281 34.5152 31.3781 34.9606 31.6539 35.4273C32.0993 35.8515 32.4069 36.3182 32.5766 36.8273C32.7463 37.3364 32.9372 37.8348 33.1493 38.3227C33.1918 38.6833 33.2978 39.0121 33.4675 39.3091C33.6584 39.5848 33.7433 39.903 33.7221 40.2636C33.6796 40.4758 33.669 40.6773 33.6902 40.8682C33.7327 41.0379 33.7645 41.2182 33.7857 41.4091C33.8281 41.6 33.8599 41.7909 33.8811 41.9818C33.9236 42.1727 33.9236 42.3742 33.8811 42.5864C34.0296 43.2864 34.0933 44.0182 34.0721 44.7818C34.0721 45.5455 33.9978 46.2879 33.8493 47.0091C33.7433 47.3485 33.669 47.6879 33.6266 48.0273C33.6054 48.3667 33.5311 48.6955 33.4039 49.0136C33.319 49.247 33.266 49.5015 33.2448 49.7773C33.2448 50.053 33.1811 50.3076 33.0539 50.5409C32.7569 51.1985 32.3857 51.803 31.9402 52.3545C31.4948 52.9273 31.0281 53.4894 30.5402 54.0409C30.0524 54.4652 29.5539 54.8258 29.0448 55.1227C28.5569 55.4409 28.0054 55.6318 27.3902 55.6955C26.8175 55.8015 26.2342 55.8439 25.6402 55.8227C25.0463 55.8227 24.4842 55.7379 23.9539 55.5682C23.4236 55.5894 22.9569 55.4727 22.5539 55.2182C22.1508 54.9636 21.7266 54.7409 21.2811 54.55C20.9418 54.3167 20.6342 54.0515 20.3584 53.7545C20.1039 53.4576 19.8281 53.1924 19.5311 52.9591C19.2978 52.5985 19.0539 52.2485 18.7993 51.9091C18.566 51.5697 18.4069 51.1985 18.3221 50.7955C18.1311 50.6258 18.0251 50.4242 18.0039 50.1909C18.0039 49.9788 17.9508 49.7561 17.8448 49.5227C17.5902 48.8227 17.3993 48.0591 17.2721 47.2318C17.3145 46.9561 17.3145 46.6591 17.2721 46.3409C17.2508 46.0015 17.219 45.6939 17.1766 45.4182C17.0705 44.6758 17.0493 43.9439 17.113 43.2227C17.1766 42.4803 17.2614 41.7591 17.3675 41.0591C17.4099 40.8682 17.3993 40.7091 17.3357 40.5818C17.2721 40.4333 17.2827 40.2742 17.3675 40.1045C17.4948 39.9773 17.5796 39.8288 17.6221 39.6591C17.6857 39.4894 17.7281 39.3197 17.7493 39.15C17.7918 38.9591 17.8236 38.7788 17.8448 38.6091C17.8872 38.4182 17.9508 38.2379 18.0357 38.0682C18.2054 37.5591 18.4281 37.05 18.7039 36.5409C18.9796 36.0318 19.3084 35.5545 19.6902 35.1091C20.0721 34.6424 20.4857 34.2288 20.9311 33.8682C21.3978 33.4864 21.8963 33.1788 22.4266 32.9455C22.8296 32.7333 23.2433 32.5955 23.6675 32.5318C24.113 32.447 24.5584 32.3621 25.0039 32.2773L26.4993 32.3409ZM27.1993 35.9682C27.0508 35.7985 26.9236 35.6182 26.8175 35.4273C26.7114 35.2364 26.563 35.0561 26.3721 34.8864C26.1811 34.7591 25.969 34.6955 25.7357 34.6955C25.5024 34.6955 25.2796 34.7167 25.0675 34.7591C24.7069 34.9924 24.4311 35.2682 24.2402 35.5864C24.0493 35.9045 23.9008 36.2545 23.7948 36.6364C23.7099 36.997 23.6357 37.3682 23.5721 37.75C23.5296 38.1318 23.4766 38.5136 23.413 38.8955C23.3918 39.1076 23.3387 39.3303 23.2539 39.5636C23.169 39.7758 23.1796 40.0091 23.2857 40.2636C23.1796 40.6455 23.1478 41.0485 23.1902 41.4727C23.2539 41.8758 23.2645 42.2682 23.2221 42.65C23.2857 42.9894 23.3175 43.3394 23.3175 43.7C23.3175 44.0394 23.3069 44.3894 23.2857 44.75L23.3175 47.0727C23.4236 47.497 23.4554 47.953 23.413 48.4409C23.3705 48.9076 23.4024 49.3742 23.5084 49.8409C23.6145 50.2227 23.6781 50.6045 23.6993 50.9864C23.7205 51.3894 23.8372 51.75 24.0493 52.0682C24.1766 52.45 24.4099 52.7576 24.7493 52.9909C25.0887 53.2242 25.4493 53.3727 25.8311 53.4364C26.0645 53.4152 26.2766 53.3197 26.4675 53.15C26.6796 53.0015 26.8281 52.8106 26.913 52.5773C27.0827 52.0894 27.2524 51.5909 27.4221 51.0818C27.613 50.5939 27.719 50.0636 27.7402 49.4909C27.8463 49.0667 27.8887 48.6106 27.8675 48.1227C27.8675 47.6136 27.9311 47.147 28.0584 46.7227C28.1008 46.4045 28.0796 46.1076 27.9948 45.8318C27.9311 45.5561 27.9205 45.2591 27.963 44.9409C28.1114 44.453 28.1221 43.9652 27.9948 43.4773C27.8887 42.9682 27.8357 42.4697 27.8357 41.9818C27.8357 41.8121 27.8463 41.6636 27.8675 41.5364C27.9099 41.3879 27.9205 41.2288 27.8993 41.0591C27.7296 40.6348 27.6448 40.1788 27.6448 39.6909C27.6448 39.1818 27.6236 38.6833 27.5811 38.1955C27.5811 37.3894 27.4539 36.647 27.1993 35.9682ZM51.7856 33.1364C51.8916 33.3485 51.9447 33.5712 51.9447 33.8045C51.9447 34.0379 51.8916 34.25 51.7856 34.4409C51.6795 34.6106 51.5523 34.7379 51.4038 34.8227C51.2765 34.8864 51.1386 34.9394 50.9901 34.9818C50.8629 35.0242 50.725 35.0879 50.5765 35.1727C50.4492 35.2364 50.3432 35.353 50.2583 35.5227C50.0886 35.7561 49.9826 36 49.9401 36.2545C49.9189 36.4879 49.9189 36.7424 49.9401 37.0182C49.9613 37.2939 49.9826 37.5697 50.0038 37.8455C50.0462 38.1212 50.0568 38.3864 50.0356 38.6409C50.0992 39.8712 50.0992 41.0803 50.0356 42.2682C50.0568 43.053 50.0568 43.8485 50.0356 44.6545C50.0144 45.4394 50.0144 46.2136 50.0356 46.9773C49.9295 47.2742 49.8977 47.5712 49.9401 47.8682C49.9826 48.1652 49.9826 48.4621 49.9401 48.7591C50.025 49.3106 50.025 49.8409 49.9401 50.35C49.8553 50.8803 49.7916 51.4212 49.7492 51.9727C49.5795 52.4394 49.3992 52.8848 49.2083 53.3091C49.0386 53.7545 48.7098 54.1364 48.2219 54.4545C47.9886 54.7303 47.7129 54.9 47.3947 54.9636C47.0977 55.0485 46.8007 55.1652 46.5038 55.3136C46.0583 55.4409 45.6023 55.5258 45.1356 55.5682C44.6689 55.6106 44.2023 55.653 43.7356 55.6955C43.4386 55.7379 43.131 55.7697 42.8129 55.7909C42.4947 55.8333 42.1765 55.8015 41.8583 55.6955C41.6038 55.7379 41.3704 55.7061 41.1583 55.6C40.9674 55.5152 40.7553 55.4515 40.5219 55.4091C40.1613 55.2182 39.8007 55.0591 39.4401 54.9318C39.0795 54.8045 38.7401 54.5924 38.4219 54.2955C38.0401 53.7227 37.7007 53.1394 37.4038 52.5455C37.1068 51.9515 36.9901 51.2833 37.0538 50.5409C36.9689 50.35 36.9265 50.1591 36.9265 49.9682C36.9477 49.7561 36.9689 49.5545 36.9901 49.3636C37.0326 49.1515 37.0644 48.95 37.0856 48.7591C37.1068 48.547 37.0962 48.3455 37.0538 48.1545C37.0962 47.9212 37.1174 47.6667 37.1174 47.3909C37.1174 47.0939 37.1068 46.8182 37.0856 46.5636C37.1704 46.2242 37.2129 45.8742 37.2129 45.5136C37.2129 45.153 37.2023 44.7924 37.181 44.4318C37.1598 44.05 37.1386 43.6788 37.1174 43.3182C37.1174 42.9576 37.1598 42.6076 37.2447 42.2682C37.1598 41.9288 37.1386 41.6 37.181 41.2818C37.2235 40.9636 37.2129 40.6455 37.1492 40.3273C37.2765 39.5424 37.2765 38.7576 37.1492 37.9727C37.1492 37.7182 37.1598 37.4742 37.181 37.2409C37.2235 37.0076 37.2447 36.7636 37.2447 36.5091C37.0962 36.2545 36.9901 35.9682 36.9265 35.65C36.8629 35.3106 36.6826 35.0561 36.3856 34.8864C36.2159 34.8439 36.0462 34.8015 35.8765 34.7591C35.7068 34.6955 35.5795 34.5788 35.4947 34.4091C35.431 34.2394 35.3674 34.0485 35.3038 33.8364C35.2613 33.603 35.2932 33.4015 35.3992 33.2318C35.5477 33.0197 35.728 32.8818 35.9401 32.8182C36.1735 32.7333 36.4174 32.6909 36.6719 32.6909C36.9265 32.6909 37.181 32.7015 37.4356 32.7227C37.6901 32.7439 37.9447 32.7333 38.1992 32.6909C38.6023 32.6061 38.9947 32.6167 39.3765 32.7227C39.7795 32.8076 40.1932 32.8182 40.6174 32.7545C40.8719 32.7121 41.1265 32.7015 41.381 32.7227C41.6568 32.7227 41.9326 32.7015 42.2083 32.6591C42.378 32.7015 42.5583 32.7121 42.7492 32.6909C42.9401 32.6697 43.131 32.6591 43.3219 32.6591C43.5129 32.6591 43.6826 32.6909 43.831 32.7545C43.9795 32.8182 44.0962 32.9455 44.181 33.1364C44.2659 33.3061 44.3295 33.497 44.3719 33.7091C44.4356 33.9 44.4144 34.1015 44.3083 34.3136C44.2235 34.5045 44.0962 34.653 43.9265 34.7591C43.778 34.8651 43.6189 34.9606 43.4492 35.0455C43.2795 35.1303 43.1204 35.2364 42.9719 35.3636C42.8235 35.4697 42.728 35.6394 42.6856 35.8727C42.6856 36.8061 42.6538 37.7288 42.5901 38.6409C42.5265 39.5318 42.5159 40.4439 42.5583 41.3773C42.6219 41.547 42.6219 41.7167 42.5583 41.8864C42.5159 42.0561 42.5159 42.247 42.5583 42.4591C42.728 43.2227 42.8023 44.0076 42.781 44.8136C42.781 45.6197 42.7492 46.4258 42.6856 47.2318C42.6432 47.4864 42.6538 47.7621 42.7174 48.0591C42.781 48.3561 42.7598 48.6318 42.6538 48.8864C42.6113 49.247 42.6007 49.597 42.6219 49.9364C42.6432 50.2758 42.6644 50.6258 42.6856 50.9864C42.6432 51.3682 42.7174 51.697 42.9083 51.9727C43.1204 52.2485 43.3432 52.5136 43.5765 52.7682C43.7886 52.9591 44.0219 53.0758 44.2765 53.1182C44.5523 53.1606 44.8386 53.2136 45.1356 53.2773C45.3053 53.1924 45.4856 53.1288 45.6765 53.0864C45.8674 53.0652 46.0477 53.0227 46.2174 52.9591C46.4083 52.8955 46.578 52.8106 46.7265 52.7045C46.875 52.6197 47.0023 52.4712 47.1083 52.2591C47.4053 51.8136 47.5644 51.3152 47.5856 50.7636C47.6068 50.2333 47.6704 49.7136 47.7765 49.2045C47.7765 48.8439 47.7447 48.4727 47.681 48.0909C47.6386 47.7091 47.6704 47.3379 47.7765 46.9773C47.7553 46.1924 47.7447 45.4076 47.7447 44.6227C47.7447 43.8167 47.7235 43.0106 47.681 42.2045C47.6386 41.547 47.6386 40.8894 47.681 40.2318C47.7447 39.553 47.7447 38.8742 47.681 38.1955C47.7447 37.7288 47.7977 37.2515 47.8401 36.7636C47.9038 36.2545 47.8507 35.7879 47.681 35.3636C47.575 35.2152 47.4477 35.1091 47.2992 35.0455C47.1507 34.9818 46.9916 34.9288 46.8219 34.8864C46.6735 34.8439 46.5356 34.7803 46.4083 34.6955C46.281 34.6106 46.1856 34.4621 46.1219 34.25C45.9735 33.9106 45.9735 33.5818 46.1219 33.2636C46.2916 32.9879 46.5038 32.85 46.7583 32.85C47.0341 32.8288 47.2992 32.7864 47.5538 32.7227C47.8295 32.7227 48.0947 32.7227 48.3492 32.7227C48.6038 32.7227 48.8477 32.7439 49.081 32.7864C49.3144 32.8076 49.5583 32.797 49.8129 32.7545C50.0674 32.7121 50.3113 32.6803 50.5447 32.6591C50.7992 32.6379 51.0326 32.6591 51.2447 32.7227C51.4568 32.7864 51.6371 32.9242 51.7856 33.1364ZM7.47727 64.7864C7.77424 64.8288 8.08182 64.85 8.4 64.85C8.71818 64.8288 9.02576 64.8394 9.32273 64.8818C9.74697 64.797 10.1394 64.8076 10.5 64.9136C10.8818 64.9985 11.2848 64.9879 11.7091 64.8818C12.0697 64.8818 12.4197 64.8712 12.7591 64.85C13.1197 64.8076 13.4803 64.8076 13.8409 64.85C14.0742 64.85 14.2227 64.9455 14.2864 65.1364C14.3712 65.3273 14.4561 65.5076 14.5409 65.6773C14.5833 66.1015 14.5833 66.5258 14.5409 66.95C14.4985 67.353 14.4985 67.7667 14.5409 68.1909C14.4985 68.3606 14.4879 68.5515 14.5091 68.7636C14.5515 68.9545 14.5727 69.1455 14.5727 69.3364C14.5939 69.5061 14.5727 69.6758 14.5091 69.8455C14.4667 69.9939 14.35 70.1212 14.1591 70.2273C13.8197 70.3333 13.4379 70.4076 13.0136 70.45C12.5894 70.4924 12.2182 70.3864 11.9 70.1318C11.7091 70.0045 11.5818 69.8348 11.5182 69.6227C11.4758 69.3894 11.4121 69.1773 11.3273 68.9864C10.9667 68.4136 10.5 67.9576 9.92727 67.6182C9.37576 67.2576 8.76061 67.1303 8.08182 67.2364C7.91212 67.3212 7.80606 67.4803 7.76364 67.7136C7.72121 68.1803 7.73182 68.6682 7.79546 69.1773C7.85909 69.6651 7.81667 70.1424 7.66818 70.6091C7.77424 71.1818 7.78485 71.7545 7.7 72.3273C7.63636 72.8788 7.65758 73.4303 7.76364 73.9818C7.76364 74.1303 7.84849 74.2258 8.01818 74.2682C8.42121 74.2682 8.78182 74.1303 9.1 73.8545C9.41818 73.5788 9.66212 73.2818 9.83182 72.9636C9.89546 72.8364 9.93788 72.6879 9.95909 72.5182C10.0015 72.3485 10.0439 72.2 10.0864 72.0727C10.15 71.9242 10.2348 71.8076 10.3409 71.7227C10.4682 71.6167 10.6379 71.5636 10.85 71.5636C10.9985 71.5636 11.1576 71.553 11.3273 71.5318C11.5182 71.5106 11.6879 71.5 11.8364 71.5C12.0061 71.5 12.1652 71.5318 12.3136 71.5955C12.4621 71.6591 12.5788 71.7758 12.6636 71.9455C12.7061 72.0303 12.7273 72.1576 12.7273 72.3273C12.7485 72.4758 12.7485 72.603 12.7273 72.7091C12.6212 73.6636 12.6106 74.6182 12.6955 75.5727C12.7803 76.5061 12.7909 77.45 12.7273 78.4045C12.7697 78.6379 12.7697 78.8606 12.7273 79.0727C12.6849 79.2848 12.547 79.4439 12.3136 79.55C12.0591 79.6348 11.7515 79.6773 11.3909 79.6773C11.0515 79.6561 10.7652 79.5606 10.5318 79.3909C10.3621 79.2636 10.2455 79.1258 10.1818 78.9773C10.1394 78.8076 10.097 78.6379 10.0545 78.4682C10.0121 78.2985 9.95909 78.1394 9.89546 77.9909C9.83182 77.8212 9.72576 77.6727 9.57727 77.5455C9.2803 77.1 8.86667 76.8242 8.33636 76.7182C8.20909 76.6758 8.09243 76.697 7.98636 76.7818C7.8803 76.8667 7.77424 76.9621 7.66818 77.0682C7.56212 77.4924 7.54091 77.9273 7.60455 78.3727C7.68939 78.797 7.71061 79.2424 7.66818 79.7091C7.73182 80.4091 7.73182 81.1197 7.66818 81.8409C7.62576 82.5409 7.68939 83.2409 7.85909 83.9409C7.85909 84.1318 7.89091 84.3015 7.95455 84.45C8.03939 84.6197 8.16667 84.7364 8.33636 84.8C8.48485 84.9273 8.64394 85.0015 8.81364 85.0227C8.98333 85.0652 9.14243 85.0652 9.29091 85.0227C9.46061 84.9803 9.6197 84.9167 9.76818 84.8318C9.93788 84.747 10.0864 84.6621 10.2136 84.5773C10.6379 84.2167 10.9985 83.8242 11.2955 83.4C11.5924 82.997 11.7939 82.5515 11.9 82.0636C12.0061 81.9576 12.0909 81.8409 12.1545 81.7136C12.2394 81.5652 12.3242 81.4273 12.4091 81.3C12.5152 81.1727 12.6212 81.0773 12.7273 81.0136C12.8545 80.9288 13.0136 80.897 13.2045 80.9182C13.4591 80.9182 13.7348 80.9182 14.0318 80.9182C14.3288 80.9182 14.5621 81.0561 14.7318 81.3318C14.8167 81.4591 14.8485 81.5864 14.8273 81.7136C14.8273 81.8409 14.8061 81.9682 14.7636 82.0955C14.7424 82.2227 14.7106 82.35 14.6682 82.4773C14.647 82.6258 14.647 82.7742 14.6682 82.9227C14.5833 83.1561 14.5409 83.3894 14.5409 83.6227C14.5409 83.8561 14.5515 84.1 14.5727 84.3545C14.5939 84.6091 14.6045 84.8636 14.6045 85.1182C14.6258 85.3727 14.6152 85.6273 14.5727 85.8818C14.5515 86.0091 14.5409 86.147 14.5409 86.2955C14.5621 86.4439 14.5621 86.5818 14.5409 86.7091C14.5197 86.8364 14.4667 86.953 14.3818 87.0591C14.3182 87.1652 14.2121 87.25 14.0636 87.3136C13.5121 87.4197 12.9288 87.4515 12.3136 87.4091C11.7197 87.3879 11.147 87.4197 10.5955 87.5045C9.70455 87.3985 8.79243 87.3667 7.85909 87.4091C6.94697 87.4515 6.04546 87.4197 5.15455 87.3136C4.83636 87.3773 4.50758 87.3879 4.16818 87.3455C3.85 87.303 3.55303 87.3348 3.27727 87.4409C3.10758 87.4409 2.94849 87.4197 2.8 87.3773C2.67273 87.3348 2.53485 87.3136 2.38636 87.3136C2.15303 87.3136 1.90909 87.3136 1.65455 87.3136C1.4 87.3348 1.16667 87.2924 0.954546 87.1864C0.784849 87.0591 0.657576 86.9106 0.572727 86.7409C0.487879 86.5924 0.477273 86.4121 0.540909 86.2C0.562121 86.0091 0.636364 85.8394 0.763636 85.6909C0.890909 85.5424 1.02879 85.4045 1.17727 85.2773C1.34697 85.15 1.49545 85.0121 1.62273 84.8636C1.77121 84.7364 1.87727 84.5773 1.94091 84.3864C2.02576 84.0894 2.04697 83.7818 2.00455 83.4636C1.96212 83.1455 1.94091 82.8167 1.94091 82.4773C1.96212 82.0318 1.96212 81.5864 1.94091 81.1409C1.94091 80.6742 1.97273 80.2076 2.03636 79.7409C1.99394 79.0197 1.97273 78.2985 1.97273 77.5773C1.97273 76.8561 2.01515 76.1561 2.1 75.4773C2.03636 74.9258 2.00455 74.3636 2.00455 73.7909C2.02576 73.2182 2.03636 72.6561 2.03636 72.1045C2.03636 71.4894 2.02576 70.853 2.00455 70.1955C1.98333 69.5379 1.97273 68.8697 1.97273 68.1909C1.97273 67.9788 1.9197 67.7985 1.81364 67.65C1.70758 67.5015 1.5803 67.3742 1.43182 67.2682C1.28333 67.1621 1.12424 67.0561 0.954546 66.95C0.806061 66.8439 0.668182 66.7167 0.540909 66.5682C0.498485 66.3985 0.445455 66.2076 0.381818 65.9955C0.339394 65.7833 0.360606 65.5712 0.445455 65.3591C0.678788 64.9985 0.975758 64.8182 1.33636 64.8182C1.69697 64.797 2.05758 64.8076 2.41818 64.85C3.07576 64.7864 3.76515 64.7439 4.48636 64.7227C5.22879 64.6803 5.93939 64.7121 6.61818 64.8182L7.47727 64.7864ZM28.2279 64.7227C29.3734 64.9561 30.3492 65.4545 31.1552 66.2182C31.2613 66.5151 31.3037 66.8439 31.2825 67.2045C31.2825 67.5439 31.3143 67.8621 31.3779 68.1591C31.3992 68.5197 31.4098 68.8803 31.4098 69.2409C31.4098 69.5803 31.3673 69.9091 31.2825 70.2273C31.3037 70.397 31.3037 70.5879 31.2825 70.8C31.2825 70.9909 31.2295 71.1606 31.1234 71.3091C30.8901 71.5424 30.5931 71.6697 30.2325 71.6909C29.8719 71.7121 29.5431 71.6803 29.2461 71.5955C29.0764 71.5106 28.9492 71.4045 28.8643 71.2773C28.8007 71.1288 28.7476 70.9803 28.7052 70.8318C28.684 70.6621 28.6522 70.503 28.6098 70.3545C28.5673 70.2061 28.5037 70.0682 28.4189 69.9409C28.3764 69.7288 28.3658 69.4848 28.387 69.2091C28.4083 68.9333 28.3128 68.7106 28.1007 68.5409C27.9522 68.3924 27.8143 68.2227 27.687 68.0318C27.5598 67.8197 27.4219 67.6288 27.2734 67.4591C27.1249 67.2682 26.9658 67.1091 26.7961 66.9818C26.6264 66.8545 26.4249 66.7697 26.1916 66.7273C26.0007 66.7273 25.8098 66.7061 25.6189 66.6636C25.4492 66.6212 25.2795 66.6424 25.1098 66.7273C24.8128 66.8758 24.5052 67.0667 24.187 67.3C23.8901 67.5121 23.6886 67.7985 23.5825 68.1591C23.3492 68.8803 23.2219 69.6227 23.2007 70.3864C23.1795 71.15 23.1264 71.8924 23.0416 72.6136C23.084 72.9742 23.0734 73.3242 23.0098 73.6636C22.9461 74.003 22.9249 74.3636 22.9461 74.7455C22.8825 74.8939 22.8719 75.053 22.9143 75.2227C22.9779 75.3924 22.9779 75.5515 22.9143 75.7C22.9143 76.4424 22.9249 77.1742 22.9461 77.8955C22.9673 78.6167 23.0098 79.3379 23.0734 80.0591C23.0946 80.3561 23.0946 80.6848 23.0734 81.0455C23.0734 81.3848 23.1158 81.7242 23.2007 82.0636C23.2219 82.5727 23.3492 83.0394 23.5825 83.4636C23.837 83.9091 24.0704 84.3439 24.2825 84.7682C24.4946 85.0015 24.7492 85.1606 25.0461 85.2455C25.3431 85.3515 25.6295 85.3833 25.9052 85.3409C25.9901 85.3197 26.0537 85.2773 26.0961 85.2136C26.1598 85.15 26.2128 85.097 26.2552 85.0545C26.3189 84.2697 26.3613 83.4742 26.3825 82.6682C26.4037 81.8833 26.4037 81.0985 26.3825 80.3136V80.1864C26.3189 79.847 26.2764 79.497 26.2552 79.1364C26.234 78.7758 26.0749 78.4788 25.7779 78.2455C25.6719 78.1818 25.5446 78.1288 25.3961 78.0864C25.2476 78.0227 25.1098 77.9485 24.9825 77.8636C24.8552 77.7788 24.7492 77.6833 24.6643 77.5773C24.5795 77.45 24.537 77.3015 24.537 77.1318C24.5158 76.8561 24.5264 76.5803 24.5689 76.3045C24.6325 76.0288 24.8022 75.8167 25.0779 75.6682C25.5022 75.5621 25.9264 75.5409 26.3507 75.6045C26.7749 75.647 27.1992 75.6258 27.6234 75.5409C28.0901 75.6894 28.5567 75.7424 29.0234 75.7C29.4901 75.6364 29.9886 75.6258 30.5189 75.6682C30.7734 75.7318 31.0492 75.7636 31.3461 75.7636C31.6643 75.7424 31.9507 75.7424 32.2052 75.7636C32.481 75.7848 32.7143 75.8591 32.9052 75.9864C33.1173 76.1136 33.2552 76.3576 33.3189 76.7182C33.3613 76.9727 33.3401 77.2273 33.2552 77.4818C33.1916 77.7364 33.0219 77.9167 32.7461 78.0227C32.3219 78.2561 32.0461 78.5955 31.9189 79.0409C31.8128 79.4652 31.7916 79.9106 31.8552 80.3773C31.7492 80.7379 31.7492 81.0879 31.8552 81.4273C31.9613 81.7455 31.9719 82.0848 31.887 82.4455C31.8022 82.6788 31.7704 82.9121 31.7916 83.1455C31.8128 83.4 31.8446 83.6545 31.887 83.9091C31.8658 84.2061 31.8234 84.5136 31.7598 84.8318C31.6961 85.15 31.6961 85.4682 31.7598 85.7864C31.7598 86.0833 31.6855 86.2955 31.537 86.4227C31.3886 86.5712 31.2083 86.6879 30.9961 86.7727C30.8052 86.8576 30.5931 86.9318 30.3598 86.9955C30.1264 87.0591 29.9249 87.1652 29.7552 87.3136C29.0976 87.3561 28.4613 87.4621 27.8461 87.6318C27.231 87.8227 26.5628 87.9076 25.8416 87.8864C25.5446 87.7803 25.2476 87.7485 24.9507 87.7909C24.6749 87.8545 24.3992 87.8227 24.1234 87.6955C23.1689 87.5045 22.2673 87.2076 21.4189 86.8045C20.5704 86.4015 19.8173 85.7864 19.1598 84.9591C18.6931 84.3015 18.2689 83.6227 17.887 82.9227C17.5264 82.2439 17.3143 81.4909 17.2507 80.6636C17.081 80.1758 16.9537 79.6455 16.8689 79.0727C16.784 78.5 16.6992 77.9273 16.6143 77.3545C16.5719 76.8879 16.5719 76.4424 16.6143 76.0182C16.6779 75.5727 16.6886 75.1273 16.6461 74.6818C16.7734 74.2364 16.837 73.7803 16.837 73.3136C16.8583 72.847 16.9219 72.3909 17.0279 71.9455C17.134 71.7333 17.2401 71.5212 17.3461 71.3091C17.4522 71.097 17.5052 70.8636 17.5052 70.6091C17.8022 70.1848 17.9931 69.7394 18.0779 69.2727C18.1628 68.7848 18.3537 68.3394 18.6507 67.9364C19.0749 67.3424 19.5628 66.8121 20.1143 66.3455C20.687 65.8576 21.3022 65.497 21.9598 65.2636C22.4901 64.8606 23.084 64.6379 23.7416 64.5955C24.3992 64.5318 25.0461 64.4682 25.6825 64.4045C26.1279 64.3621 26.5522 64.3939 26.9552 64.5C27.3795 64.5848 27.8037 64.6591 28.2279 64.7227ZM46.3892 64.7227C47.5346 64.9561 48.5104 65.4545 49.3164 66.2182C49.4225 66.5151 49.4649 66.8439 49.4437 67.2045C49.4437 67.5439 49.4755 67.8621 49.5392 68.1591C49.5604 68.5197 49.571 68.8803 49.571 69.2409C49.571 69.5803 49.5286 69.9091 49.4437 70.2273C49.4649 70.397 49.4649 70.5879 49.4437 70.8C49.4437 70.9909 49.3907 71.1606 49.2846 71.3091C49.0513 71.5424 48.7543 71.6697 48.3937 71.6909C48.0331 71.7121 47.7043 71.6803 47.4074 71.5955C47.2377 71.5106 47.1104 71.4045 47.0255 71.2773C46.9619 71.1288 46.9089 70.9803 46.8664 70.8318C46.8452 70.6621 46.8134 70.503 46.771 70.3545C46.7286 70.2061 46.6649 70.0682 46.5801 69.9409C46.5377 69.7288 46.5271 69.4848 46.5483 69.2091C46.5695 68.9333 46.474 68.7106 46.2619 68.5409C46.1134 68.3924 45.9755 68.2227 45.8483 68.0318C45.721 67.8197 45.5831 67.6288 45.4346 67.4591C45.2861 67.2682 45.1271 67.1091 44.9574 66.9818C44.7877 66.8545 44.5861 66.7697 44.3528 66.7273C44.1619 66.7273 43.971 66.7061 43.7801 66.6636C43.6104 66.6212 43.4407 66.6424 43.271 66.7273C42.974 66.8758 42.6664 67.0667 42.3483 67.3C42.0513 67.5121 41.8498 67.7985 41.7437 68.1591C41.5104 68.8803 41.3831 69.6227 41.3619 70.3864C41.3407 71.15 41.2877 71.8924 41.2028 72.6136C41.2452 72.9742 41.2346 73.3242 41.171 73.6636C41.1074 74.003 41.0861 74.3636 41.1074 74.7455C41.0437 74.8939 41.0331 75.053 41.0755 75.2227C41.1392 75.3924 41.1392 75.5515 41.0755 75.7C41.0755 76.4424 41.0861 77.1742 41.1074 77.8955C41.1286 78.6167 41.171 79.3379 41.2346 80.0591C41.2558 80.3561 41.2558 80.6848 41.2346 81.0455C41.2346 81.3848 41.277 81.7242 41.3619 82.0636C41.3831 82.5727 41.5104 83.0394 41.7437 83.4636C41.9983 83.9091 42.2316 84.3439 42.4437 84.7682C42.6558 85.0015 42.9104 85.1606 43.2074 85.2455C43.5043 85.3515 43.7907 85.3833 44.0664 85.3409C44.1513 85.3197 44.2149 85.2773 44.2574 85.2136C44.321 85.15 44.374 85.097 44.4164 85.0545C44.4801 84.2697 44.5225 83.4742 44.5437 82.6682C44.5649 81.8833 44.5649 81.0985 44.5437 80.3136V80.1864C44.4801 79.847 44.4377 79.497 44.4164 79.1364C44.3952 78.7758 44.2361 78.4788 43.9392 78.2455C43.8331 78.1818 43.7058 78.1288 43.5574 78.0864C43.4089 78.0227 43.271 77.9485 43.1437 77.8636C43.0164 77.7788 42.9104 77.6833 42.8255 77.5773C42.7407 77.45 42.6983 77.3015 42.6983 77.1318C42.677 76.8561 42.6877 76.5803 42.7301 76.3045C42.7937 76.0288 42.9634 75.8167 43.2392 75.6682C43.6634 75.5621 44.0877 75.5409 44.5119 75.6045C44.9361 75.647 45.3604 75.6258 45.7846 75.5409C46.2513 75.6894 46.718 75.7424 47.1846 75.7C47.6513 75.6364 48.1498 75.6258 48.6801 75.6682C48.9346 75.7318 49.2104 75.7636 49.5074 75.7636C49.8255 75.7424 50.1119 75.7424 50.3664 75.7636C50.6422 75.7848 50.8755 75.8591 51.0664 75.9864C51.2786 76.1136 51.4164 76.3576 51.4801 76.7182C51.5225 76.9727 51.5013 77.2273 51.4164 77.4818C51.3528 77.7364 51.1831 77.9167 50.9074 78.0227C50.4831 78.2561 50.2074 78.5955 50.0801 79.0409C49.974 79.4652 49.9528 79.9106 50.0164 80.3773C49.9104 80.7379 49.9104 81.0879 50.0164 81.4273C50.1225 81.7455 50.1331 82.0848 50.0483 82.4455C49.9634 82.6788 49.9316 82.9121 49.9528 83.1455C49.974 83.4 50.0058 83.6545 50.0483 83.9091C50.0271 84.2061 49.9846 84.5136 49.921 84.8318C49.8574 85.15 49.8574 85.4682 49.921 85.7864C49.921 86.0833 49.8467 86.2955 49.6983 86.4227C49.5498 86.5712 49.3695 86.6879 49.1574 86.7727C48.9664 86.8576 48.7543 86.9318 48.521 86.9955C48.2877 87.0591 48.0861 87.1652 47.9164 87.3136C47.2589 87.3561 46.6225 87.4621 46.0074 87.6318C45.3922 87.8227 44.724 87.9076 44.0028 87.8864C43.7058 87.7803 43.4089 87.7485 43.1119 87.7909C42.8361 87.8545 42.5604 87.8227 42.2846 87.6955C41.3301 87.5045 40.4286 87.2076 39.5801 86.8045C38.7316 86.4015 37.9786 85.7864 37.321 84.9591C36.8543 84.3015 36.4301 83.6227 36.0483 82.9227C35.6877 82.2439 35.4755 81.4909 35.4119 80.6636C35.2422 80.1758 35.1149 79.6455 35.0301 79.0727C34.9452 78.5 34.8604 77.9273 34.7755 77.3545C34.7331 76.8879 34.7331 76.4424 34.7755 76.0182C34.8392 75.5727 34.8498 75.1273 34.8074 74.6818C34.9346 74.2364 34.9983 73.7803 34.9983 73.3136C35.0195 72.847 35.0831 72.3909 35.1892 71.9455C35.2952 71.7333 35.4013 71.5212 35.5074 71.3091C35.6134 71.097 35.6664 70.8636 35.6664 70.6091C35.9634 70.1848 36.1543 69.7394 36.2392 69.2727C36.324 68.7848 36.5149 68.3394 36.8119 67.9364C37.2361 67.3424 37.724 66.8121 38.2755 66.3455C38.8483 65.8576 39.4634 65.497 40.121 65.2636C40.6513 64.8606 41.2452 64.6379 41.9028 64.5955C42.5604 64.5318 43.2074 64.4682 43.8437 64.4045C44.2892 64.3621 44.7134 64.3939 45.1164 64.5C45.5407 64.5848 45.9649 64.6591 46.3892 64.7227ZM63.1504 77.9273C63.2565 78.0545 63.3095 78.2136 63.3095 78.4045C63.3095 78.5955 63.2883 78.7864 63.2458 78.9773C63.2458 79.4015 63.2671 79.8576 63.3095 80.3455C63.3731 80.8121 63.3095 81.2364 63.1186 81.6182C62.9489 81.8727 62.758 82.0212 62.5459 82.0636C62.3337 82.1273 62.111 82.1379 61.8777 82.0955C61.6443 82.0742 61.4004 82.0424 61.1459 82C60.8913 81.9576 60.6474 81.9788 60.414 82.0636C60.011 82.0636 59.6292 82.053 59.2686 82.0318C58.908 82.0106 58.5368 82.0212 58.1549 82.0636C57.6671 82.0212 57.1898 82.0318 56.7231 82.0955C56.2777 82.1591 55.811 82.1803 55.3231 82.1591C55.0262 82.1379 54.708 82.1273 54.3686 82.1273C54.0504 82.1485 53.764 82.1061 53.5095 82C53.1701 81.8091 52.9792 81.5227 52.9368 81.1409C52.958 80.653 52.9686 80.1758 52.9686 79.7091C52.9686 79.2212 52.9792 78.7227 53.0004 78.2136C53.0428 78.1076 53.0852 78.0121 53.1277 77.9273C53.1913 77.8212 53.2762 77.7364 53.3822 77.6727C53.8065 77.5667 54.2625 77.503 54.7504 77.4818C55.2383 77.4606 55.7155 77.4818 56.1822 77.5455C56.6065 77.503 57.0519 77.503 57.5186 77.5455C57.9852 77.5879 58.4307 77.5561 58.8549 77.45C59.3852 77.45 59.9049 77.4606 60.414 77.4818C60.9231 77.4818 61.4322 77.4712 61.9413 77.45C62.1746 77.45 62.408 77.4712 62.6413 77.5136C62.8746 77.5561 63.0443 77.6939 63.1504 77.9273ZM12.5045 96.8182C12.9288 96.9455 13.3106 97.147 13.65 97.4227C13.9894 97.6773 14.3182 97.953 14.6364 98.25C14.7848 98.3985 14.8591 98.5682 14.8591 98.7591C14.8803 98.9288 14.8803 99.1091 14.8591 99.3C14.8591 99.4909 14.8485 99.6818 14.8273 99.8727C14.8061 100.042 14.8379 100.212 14.9227 100.382C14.9439 100.7 14.9121 100.997 14.8273 101.273C14.8485 101.57 14.8485 101.888 14.8273 102.227C14.8061 102.545 14.7636 102.864 14.7 103.182C14.6576 103.224 14.6152 103.277 14.5727 103.341C14.5303 103.383 14.4667 103.415 14.3818 103.436C14.1697 103.394 13.947 103.383 13.7136 103.405C13.5015 103.405 13.2788 103.394 13.0455 103.373C12.8545 103.309 12.7167 103.203 12.6318 103.055C12.547 102.906 12.4727 102.747 12.4091 102.577C12.3455 102.408 12.2818 102.238 12.2182 102.068C12.1758 101.877 12.1121 101.718 12.0273 101.591C11.9212 101.421 11.8576 101.262 11.8364 101.114C11.8152 100.944 11.7515 100.785 11.6455 100.636C11.4758 100.255 11.253 99.9045 10.9773 99.5864C10.7227 99.247 10.3939 99.0136 9.99091 98.8864C9.73636 98.8439 9.46061 98.8333 9.16364 98.8545C8.86667 98.8545 8.61212 98.9394 8.4 99.1091C7.95455 99.4697 7.62576 99.8833 7.41364 100.35C7.22273 100.817 7.01061 101.283 6.77727 101.75C6.8197 101.983 6.8303 102.217 6.80909 102.45C6.78788 102.662 6.75606 102.874 6.71364 103.086C6.69242 103.298 6.67121 103.521 6.65 103.755C6.62879 103.967 6.63939 104.179 6.68182 104.391C6.63939 104.688 6.61818 104.985 6.61818 105.282C6.61818 105.579 6.59697 105.876 6.55455 106.173C6.51212 107.064 6.4697 107.955 6.42727 108.845C6.40606 109.715 6.39546 110.595 6.39546 111.486C6.39546 112.102 6.4803 112.685 6.65 113.236C6.8197 113.767 6.93636 114.329 7 114.923C7.19091 115.262 7.33939 115.612 7.44546 115.973C7.55152 116.333 7.79546 116.62 8.17727 116.832C8.41061 117.065 8.68636 117.203 9.00455 117.245C9.34394 117.309 9.66212 117.277 9.95909 117.15C10.3833 116.917 10.7758 116.598 11.1364 116.195C11.5182 115.792 11.7197 115.336 11.7409 114.827C11.9318 114.467 12.0803 114.085 12.1864 113.682C12.2924 113.258 12.4303 112.865 12.6 112.505C12.8121 112.165 13.0985 111.995 13.4591 111.995C13.8409 111.974 14.1909 112.006 14.5091 112.091C14.6788 112.133 14.8273 112.229 14.9545 112.377C15.0818 112.505 15.1667 112.653 15.2091 112.823C15.2515 113.629 15.2515 114.435 15.2091 115.241C15.1879 116.068 15.1561 116.895 15.1136 117.723C15.0076 117.998 14.8591 118.211 14.6682 118.359C14.4985 118.529 14.297 118.667 14.0636 118.773C13.8303 118.879 13.5864 118.974 13.3318 119.059C13.0985 119.144 12.8758 119.229 12.6636 119.314C12.2818 119.483 11.8788 119.579 11.4545 119.6C11.0303 119.642 10.6061 119.717 10.1818 119.823C9.82121 119.78 9.43939 119.78 9.03636 119.823C8.65455 119.865 8.28333 119.823 7.92273 119.695C7.62576 119.632 7.31818 119.558 7 119.473C6.68182 119.409 6.35303 119.345 6.01364 119.282C5.39849 118.985 4.80455 118.635 4.23182 118.232C3.6803 117.829 3.16061 117.352 2.67273 116.8C2.24849 116.227 1.87727 115.623 1.55909 114.986C1.24091 114.371 1.01818 113.714 0.890909 113.014C0.848485 112.717 0.774243 112.43 0.668182 112.155C0.562121 111.879 0.530303 111.571 0.572727 111.232C0.445455 110.998 0.381818 110.723 0.381818 110.405C0.40303 110.065 0.360606 109.758 0.254545 109.482C0.29697 108.994 0.29697 108.538 0.254545 108.114C0.212121 107.668 0.201515 107.212 0.222727 106.745C0.286364 106.385 0.328788 106.024 0.35 105.664C0.371212 105.282 0.392424 104.911 0.413636 104.55C0.540909 104.105 0.668182 103.659 0.795455 103.214C0.922727 102.768 1.07121 102.333 1.24091 101.909C1.41061 101.464 1.60152 101.039 1.81364 100.636C2.04697 100.233 2.33333 99.8515 2.67273 99.4909C3.09697 99.0667 3.48939 98.6424 3.85 98.2182C4.23182 97.7939 4.68788 97.4439 5.21818 97.1682C5.7697 96.9773 6.32121 96.797 6.87273 96.6273C7.42424 96.4364 8.00758 96.3091 8.62273 96.2455C9.34394 96.1818 10.0121 96.2242 10.6273 96.3727C11.2636 96.5 11.8894 96.6485 12.5045 96.8182ZM22.9424 96.6909C23.1757 96.7333 23.4303 96.7439 23.706 96.7227C24.003 96.6803 24.2894 96.6591 24.5651 96.6591C24.8409 96.6379 25.0848 96.6803 25.2969 96.7864C25.5091 96.8712 25.6682 97.0621 25.7742 97.3591C25.8379 97.5924 25.8591 97.8364 25.8379 98.0909C25.8379 98.3455 25.7636 98.5576 25.6151 98.7273C25.5091 98.8333 25.3818 98.9182 25.2333 98.9818C25.106 99.0242 24.9682 99.0773 24.8197 99.1409C24.6924 99.1833 24.5757 99.2576 24.4697 99.3636C24.3848 99.4485 24.3318 99.5758 24.3106 99.7455C24.2045 100.445 24.1409 101.156 24.1197 101.877C24.1197 102.577 24.1197 103.288 24.1197 104.009C24.1621 104.348 24.1621 104.688 24.1197 105.027C24.0985 105.345 24.0666 105.664 24.0242 105.982C23.9818 106.3 23.95 106.629 23.9288 106.968C23.9288 107.286 23.9606 107.605 24.0242 107.923C24.003 108.792 24.0348 109.652 24.1197 110.5C24.1833 111.518 24.1833 112.526 24.1197 113.523C24.056 114.52 24.0879 115.506 24.2151 116.482C24.3 116.652 24.4166 116.789 24.5651 116.895C24.7348 117.002 24.8939 117.108 25.0424 117.214C25.1909 117.32 25.3182 117.436 25.4242 117.564C25.5515 117.691 25.6257 117.85 25.6469 118.041C25.6682 118.317 25.6469 118.561 25.5833 118.773C25.5409 119.006 25.403 119.186 25.1697 119.314C24.8515 119.42 24.5227 119.441 24.1833 119.377C23.8439 119.314 23.4939 119.292 23.1333 119.314C22.7303 119.314 22.3166 119.335 21.8924 119.377C21.4894 119.441 21.0757 119.452 20.6515 119.409C20.1848 119.409 19.7394 119.388 19.3151 119.345C18.8909 119.324 18.4666 119.356 18.0424 119.441C17.8091 119.398 17.5757 119.345 17.3424 119.282C17.1303 119.218 16.9712 119.07 16.8651 118.836C16.7803 118.391 16.8439 117.967 17.056 117.564C17.1621 117.458 17.2788 117.362 17.406 117.277C17.5545 117.192 17.6924 117.097 17.8197 116.991C17.9469 116.906 18.053 116.8 18.1379 116.673C18.2439 116.567 18.3182 116.429 18.3606 116.259C18.5091 115.856 18.5621 115.432 18.5197 114.986C18.4985 114.541 18.4879 114.106 18.4879 113.682C18.4454 113.3 18.4454 112.918 18.4879 112.536C18.5303 112.155 18.4985 111.773 18.3924 111.391C18.4985 111.115 18.5091 110.839 18.4242 110.564C18.3606 110.267 18.3606 109.97 18.4242 109.673C18.403 108.145 18.3818 106.618 18.3606 105.091C18.3606 103.542 18.3818 101.994 18.4242 100.445C18.403 100.148 18.3394 99.8833 18.2333 99.65C18.1485 99.3955 17.9894 99.1833 17.756 99.0136C17.5439 98.9288 17.3212 98.8121 17.0879 98.6636C16.8757 98.4939 16.7485 98.2924 16.706 98.0591C16.6 97.5288 16.7697 97.1258 17.2151 96.85C17.5757 96.7227 17.9469 96.6803 18.3288 96.7227C18.7106 96.7439 19.0818 96.7333 19.4424 96.6909H22.9424ZM42.0189 97.2318C42.0825 97.4015 42.0931 97.5606 42.0507 97.7091C42.0083 97.8364 41.9871 97.9848 41.9871 98.1545C42.0083 98.7061 42.0083 99.2576 41.9871 99.8091C41.9659 100.339 41.9659 100.891 41.9871 101.464C41.9447 101.57 41.9022 101.686 41.8598 101.814C41.8174 101.941 41.7431 102.026 41.6371 102.068C41.3825 102.217 41.075 102.302 40.7143 102.323C40.3537 102.323 40.0568 102.227 39.8234 102.036C39.6962 101.909 39.5901 101.771 39.5053 101.623C39.4416 101.453 39.378 101.283 39.3143 101.114C39.2719 100.944 39.2189 100.785 39.1553 100.636C39.0916 100.467 38.9962 100.308 38.8689 100.159C38.6992 100.011 38.5401 99.8303 38.3916 99.6182C38.2431 99.4061 38.0522 99.3424 37.8189 99.4273C37.6492 99.6606 37.575 99.9364 37.5962 100.255C37.6386 100.552 37.628 100.848 37.5643 101.145C37.628 101.633 37.6174 102.121 37.5325 102.609C37.4689 103.076 37.5007 103.542 37.628 104.009C37.6704 104.285 37.6704 104.55 37.628 104.805C37.5856 105.038 37.5431 105.282 37.5007 105.536C37.4583 105.77 37.4159 106.003 37.3734 106.236C37.3522 106.47 37.384 106.714 37.4689 106.968C37.4689 107.265 37.4583 107.583 37.4371 107.923C37.4371 108.241 37.4583 108.548 37.5007 108.845C37.4795 109.015 37.4689 109.185 37.4689 109.355C37.4901 109.524 37.4795 109.683 37.4371 109.832C37.3734 110.765 37.3734 111.677 37.4371 112.568C37.5431 112.929 37.575 113.3 37.5325 113.682C37.5113 114.064 37.5431 114.435 37.628 114.795C37.5643 115.156 37.5537 115.527 37.5962 115.909C37.6598 116.291 37.8083 116.62 38.0416 116.895C38.2537 117.023 38.4765 117.161 38.7098 117.309C38.9431 117.458 39.081 117.659 39.1234 117.914C39.1447 118.147 39.1447 118.38 39.1234 118.614C39.1234 118.847 39.0068 119.017 38.7734 119.123C37.925 119.377 37.0447 119.494 36.1325 119.473C35.2204 119.452 34.3189 119.441 33.428 119.441C33.1947 119.335 32.9507 119.292 32.6962 119.314C32.4628 119.356 32.2083 119.356 31.9325 119.314C31.7204 119.292 31.5189 119.239 31.328 119.155C31.1371 119.07 30.925 119.048 30.6916 119.091C30.5219 119.006 30.4159 118.879 30.3734 118.709C30.3522 118.561 30.3416 118.402 30.3416 118.232C30.3416 118.105 30.3522 117.977 30.3734 117.85C30.3947 117.744 30.4583 117.648 30.5643 117.564C30.734 117.394 30.9356 117.277 31.1689 117.214C31.4022 117.15 31.5613 116.98 31.6462 116.705C31.7522 116.471 31.8053 116.217 31.8053 115.941C31.8265 115.665 31.8583 115.411 31.9007 115.177C31.8371 114.689 31.8159 114.212 31.8371 113.745C31.8795 113.258 31.8901 112.77 31.8689 112.282C31.9113 111.794 31.9325 111.327 31.9325 110.882C31.9325 110.415 31.9325 109.938 31.9325 109.45C31.9537 109.047 31.9219 108.665 31.8371 108.305C31.7522 107.923 31.7734 107.541 31.9007 107.159C31.7734 106.629 31.7522 106.088 31.8371 105.536C31.9431 104.985 31.9643 104.455 31.9007 103.945C31.9431 103.458 31.9325 102.98 31.8689 102.514C31.8265 102.026 31.784 101.538 31.7416 101.05V99.5545C31.6143 99.3848 31.4659 99.3318 31.2962 99.3955C30.9568 99.6924 30.6598 100.021 30.4053 100.382C30.1507 100.721 30.0128 101.124 29.9916 101.591C29.928 101.782 29.8007 101.952 29.6098 102.1C29.4189 102.248 29.2174 102.333 29.0053 102.355C28.7083 102.355 28.4007 102.333 28.0825 102.291C27.7856 102.227 27.5628 102.047 27.4143 101.75C27.3295 101.411 27.2765 101.082 27.2553 100.764C27.2553 100.424 27.2659 100.085 27.2871 99.7455C27.3083 99.4061 27.3189 99.0667 27.3189 98.7273C27.3401 98.3879 27.3401 98.0379 27.3189 97.6773C27.3401 97.5076 27.3931 97.3591 27.478 97.2318C27.584 97.1045 27.7007 96.9879 27.828 96.8818C28.0189 96.7758 28.231 96.7333 28.4643 96.7545C28.6977 96.7758 28.931 96.7864 29.1643 96.7864C29.7795 96.8288 30.3947 96.8288 31.0098 96.7864C31.6462 96.7439 32.2825 96.7545 32.9189 96.8182C33.5977 96.7758 34.2977 96.7545 35.0189 96.7545C35.7401 96.7333 36.4401 96.7651 37.1189 96.85C37.4159 96.7651 37.6916 96.7439 37.9462 96.7864C38.2007 96.8288 38.4765 96.8182 38.7734 96.7545C39.028 96.7758 39.2825 96.7758 39.5371 96.7545C39.8128 96.7333 40.078 96.7227 40.3325 96.7227C40.5871 96.7015 40.831 96.7121 41.0643 96.7545C41.3189 96.7758 41.5522 96.85 41.7643 96.9773L42.0189 97.2318ZM50.7127 96.7864C51.0097 96.8288 51.3173 96.85 51.6354 96.85C51.9536 96.8288 52.2612 96.8394 52.5582 96.8818C52.9824 96.797 53.3748 96.8076 53.7354 96.9136C54.1173 96.9985 54.5203 96.9879 54.9445 96.8818C55.3051 96.8818 55.6551 96.8712 55.9945 96.85C56.3551 96.8076 56.7157 96.8076 57.0764 96.85C57.3097 96.85 57.4582 96.9455 57.5218 97.1364C57.6067 97.3273 57.6915 97.5076 57.7764 97.6773C57.8188 98.1015 57.8188 98.5258 57.7764 98.95C57.7339 99.353 57.7339 99.7667 57.7764 100.191C57.7339 100.361 57.7233 100.552 57.7445 100.764C57.787 100.955 57.8082 101.145 57.8082 101.336C57.8294 101.506 57.8082 101.676 57.7445 101.845C57.7021 101.994 57.5854 102.121 57.3945 102.227C57.0551 102.333 56.6733 102.408 56.2491 102.45C55.8248 102.492 55.4536 102.386 55.1354 102.132C54.9445 102.005 54.8173 101.835 54.7536 101.623C54.7112 101.389 54.6476 101.177 54.5627 100.986C54.2021 100.414 53.7354 99.9576 53.1627 99.6182C52.6112 99.2576 51.9961 99.1303 51.3173 99.2364C51.1476 99.3212 51.0415 99.4803 50.9991 99.7136C50.9567 100.18 50.9673 100.668 51.0309 101.177C51.0945 101.665 51.0521 102.142 50.9036 102.609C51.0097 103.182 51.0203 103.755 50.9354 104.327C50.8718 104.879 50.893 105.43 50.9991 105.982C50.9991 106.13 51.0839 106.226 51.2536 106.268C51.6567 106.268 52.0173 106.13 52.3354 105.855C52.6536 105.579 52.8976 105.282 53.0673 104.964C53.1309 104.836 53.1733 104.688 53.1945 104.518C53.237 104.348 53.2794 104.2 53.3218 104.073C53.3854 103.924 53.4703 103.808 53.5764 103.723C53.7036 103.617 53.8733 103.564 54.0854 103.564C54.2339 103.564 54.393 103.553 54.5627 103.532C54.7536 103.511 54.9233 103.5 55.0718 103.5C55.2415 103.5 55.4006 103.532 55.5491 103.595C55.6976 103.659 55.8142 103.776 55.8991 103.945C55.9415 104.03 55.9627 104.158 55.9627 104.327C55.9839 104.476 55.9839 104.603 55.9627 104.709C55.8567 105.664 55.8461 106.618 55.9309 107.573C56.0157 108.506 56.0264 109.45 55.9627 110.405C56.0051 110.638 56.0051 110.861 55.9627 111.073C55.9203 111.285 55.7824 111.444 55.5491 111.55C55.2945 111.635 54.987 111.677 54.6264 111.677C54.287 111.656 54.0006 111.561 53.7673 111.391C53.5976 111.264 53.4809 111.126 53.4173 110.977C53.3748 110.808 53.3324 110.638 53.29 110.468C53.2476 110.298 53.1945 110.139 53.1309 109.991C53.0673 109.821 52.9612 109.673 52.8127 109.545C52.5157 109.1 52.1021 108.824 51.5718 108.718C51.4445 108.676 51.3279 108.697 51.2218 108.782C51.1157 108.867 51.0097 108.962 50.9036 109.068C50.7976 109.492 50.7764 109.927 50.84 110.373C50.9248 110.797 50.9461 111.242 50.9036 111.709C50.9673 112.409 50.9673 113.12 50.9036 113.841C50.8612 114.541 50.9248 115.241 51.0945 115.941C51.0945 116.132 51.1264 116.302 51.19 116.45C51.2748 116.62 51.4021 116.736 51.5718 116.8C51.7203 116.927 51.8794 117.002 52.0491 117.023C52.2188 117.065 52.3779 117.065 52.5264 117.023C52.6961 116.98 52.8551 116.917 53.0036 116.832C53.1733 116.747 53.3218 116.662 53.4491 116.577C53.8733 116.217 54.2339 115.824 54.5309 115.4C54.8279 114.997 55.0294 114.552 55.1354 114.064C55.2415 113.958 55.3264 113.841 55.39 113.714C55.4748 113.565 55.5597 113.427 55.6445 113.3C55.7506 113.173 55.8567 113.077 55.9627 113.014C56.09 112.929 56.2491 112.897 56.44 112.918C56.6945 112.918 56.9703 112.918 57.2673 112.918C57.5642 112.918 57.7976 113.056 57.9673 113.332C58.0521 113.459 58.0839 113.586 58.0627 113.714C58.0627 113.841 58.0415 113.968 57.9991 114.095C57.9779 114.223 57.9461 114.35 57.9036 114.477C57.8824 114.626 57.8824 114.774 57.9036 114.923C57.8188 115.156 57.7764 115.389 57.7764 115.623C57.7764 115.856 57.787 116.1 57.8082 116.355C57.8294 116.609 57.84 116.864 57.84 117.118C57.8612 117.373 57.8506 117.627 57.8082 117.882C57.787 118.009 57.7764 118.147 57.7764 118.295C57.7976 118.444 57.7976 118.582 57.7764 118.709C57.7551 118.836 57.7021 118.953 57.6173 119.059C57.5536 119.165 57.4476 119.25 57.2991 119.314C56.7476 119.42 56.1642 119.452 55.5491 119.409C54.9551 119.388 54.3824 119.42 53.8309 119.505C52.94 119.398 52.0279 119.367 51.0945 119.409C50.1824 119.452 49.2809 119.42 48.39 119.314C48.0718 119.377 47.743 119.388 47.4036 119.345C47.0854 119.303 46.7885 119.335 46.5127 119.441C46.343 119.441 46.1839 119.42 46.0354 119.377C45.9082 119.335 45.7703 119.314 45.6218 119.314C45.3885 119.314 45.1445 119.314 44.89 119.314C44.6354 119.335 44.4021 119.292 44.19 119.186C44.0203 119.059 43.893 118.911 43.8082 118.741C43.7233 118.592 43.7127 118.412 43.7764 118.2C43.7976 118.009 43.8718 117.839 43.9991 117.691C44.1264 117.542 44.2642 117.405 44.4127 117.277C44.5824 117.15 44.7309 117.012 44.8582 116.864C45.0067 116.736 45.1127 116.577 45.1764 116.386C45.2612 116.089 45.2824 115.782 45.24 115.464C45.1976 115.145 45.1764 114.817 45.1764 114.477C45.1976 114.032 45.1976 113.586 45.1764 113.141C45.1764 112.674 45.2082 112.208 45.2718 111.741C45.2294 111.02 45.2082 110.298 45.2082 109.577C45.2082 108.856 45.2506 108.156 45.3354 107.477C45.2718 106.926 45.24 106.364 45.24 105.791C45.2612 105.218 45.2718 104.656 45.2718 104.105C45.2718 103.489 45.2612 102.853 45.24 102.195C45.2188 101.538 45.2082 100.87 45.2082 100.191C45.2082 99.9788 45.1551 99.7985 45.0491 99.65C44.943 99.5015 44.8157 99.3742 44.6673 99.2682C44.5188 99.1621 44.3597 99.0561 44.19 98.95C44.0415 98.8439 43.9036 98.7167 43.7764 98.5682C43.7339 98.3985 43.6809 98.2076 43.6173 97.9955C43.5748 97.7833 43.596 97.5712 43.6809 97.3591C43.9142 96.9985 44.2112 96.8182 44.5718 96.8182C44.9324 96.797 45.293 96.8076 45.6536 96.85C46.3112 96.7864 47.0006 96.7439 47.7218 96.7227C48.4642 96.6803 49.1748 96.7121 49.8536 96.8182L50.7127 96.7864ZM73.0861 98.5364C73.8073 98.9606 74.4225 99.5227 74.9316 100.223C75.4407 100.902 75.8649 101.591 76.2043 102.291C76.7346 103.394 77.0528 104.592 77.1588 105.886C77.2649 107.18 77.3073 108.495 77.2861 109.832C77.2013 110.532 77.0846 111.242 76.9361 111.964C76.7876 112.664 76.5437 113.332 76.2043 113.968C76.1407 114.435 75.971 114.859 75.6952 115.241C75.4407 115.644 75.1967 116.047 74.9634 116.45C74.6028 116.98 74.1785 117.405 73.6907 117.723C73.2028 118.041 72.6831 118.285 72.1316 118.455C71.8982 118.688 71.6437 118.836 71.3679 118.9C71.0922 118.985 70.8058 119.048 70.5088 119.091C70.127 119.155 69.7558 119.218 69.3952 119.282C69.0346 119.367 68.674 119.42 68.3134 119.441C68.0164 119.42 67.7195 119.409 67.4225 119.409C67.1467 119.409 66.8922 119.377 66.6588 119.314C66.2134 119.377 65.7573 119.377 65.2907 119.314C64.8452 119.271 64.3785 119.271 63.8907 119.314C63.3816 119.356 62.8619 119.398 62.3316 119.441C61.8013 119.483 61.2816 119.473 60.7725 119.409C60.624 119.367 60.4861 119.303 60.3588 119.218C60.2528 119.155 60.1467 119.059 60.0407 118.932C59.9346 118.656 59.9028 118.38 59.9452 118.105C60.0088 117.829 60.1255 117.595 60.2952 117.405C60.4649 117.235 60.6664 117.108 60.8998 117.023C61.1331 116.959 61.3028 116.811 61.4088 116.577C61.5785 116.28 61.6422 115.93 61.5998 115.527C61.5573 115.145 61.5573 114.774 61.5998 114.414C61.621 114.074 61.621 113.756 61.5998 113.459C61.5785 113.141 61.6104 112.833 61.6952 112.536C61.6528 111.985 61.621 111.455 61.5998 110.945C61.5998 110.415 61.6528 109.885 61.7588 109.355C61.6104 108.548 61.5467 107.732 61.5679 106.905C61.6104 106.056 61.674 105.229 61.7588 104.423C61.7164 103.723 61.6634 103.033 61.5998 102.355C61.5361 101.655 61.5361 100.933 61.5998 100.191C61.5573 99.9576 61.5149 99.7242 61.4725 99.4909C61.4301 99.2364 61.2922 99.0561 61.0588 98.95C60.8255 98.8651 60.624 98.7909 60.4543 98.7273C60.2846 98.6636 60.1467 98.5258 60.0407 98.3136C59.9558 98.0803 59.9134 97.847 59.9134 97.6136C59.9346 97.3803 60.0407 97.1682 60.2316 96.9773C60.3801 96.85 60.5392 96.7758 60.7088 96.7545C60.8785 96.7333 61.0482 96.7333 61.2179 96.7545C61.4088 96.7545 61.5998 96.7651 61.7907 96.7864C61.9816 96.8076 62.1725 96.8076 62.3634 96.7864C62.8513 96.6803 63.3073 96.6591 63.7316 96.7227C64.177 96.7864 64.6437 96.797 65.1316 96.7545C65.3013 96.797 65.4922 96.797 65.7043 96.7545C65.9164 96.7121 66.1179 96.7015 66.3088 96.7227C68.9179 96.4894 71.177 97.0939 73.0861 98.5364ZM69.0452 99.4909C68.8543 99.3848 68.6422 99.2682 68.4088 99.1409C68.1967 99.0136 67.9634 98.95 67.7088 98.95C67.6452 98.9712 67.571 99.003 67.4861 99.0455C67.4225 99.0879 67.3907 99.1409 67.3907 99.2045C67.3482 99.6076 67.3164 100.021 67.2952 100.445C67.2952 100.87 67.3164 101.273 67.3588 101.655C67.3164 102.036 67.3164 102.408 67.3588 102.768C67.4225 103.129 67.4225 103.489 67.3588 103.85C67.3588 104.402 67.3588 104.942 67.3588 105.473C67.3801 106.003 67.3482 106.544 67.2634 107.095C67.327 107.456 67.3482 107.827 67.327 108.209C67.3058 108.57 67.3164 108.93 67.3588 109.291C67.3801 109.461 67.3801 109.63 67.3588 109.8C67.3376 109.948 67.3058 110.108 67.2634 110.277C67.2422 110.426 67.221 110.585 67.1998 110.755C67.1998 110.903 67.2316 111.062 67.2952 111.232C67.3376 111.592 67.327 111.953 67.2634 112.314C67.221 112.653 67.2528 112.992 67.3588 113.332C67.3801 113.883 67.3588 114.467 67.2952 115.082C67.2316 115.697 67.3058 116.248 67.5179 116.736C67.624 116.885 67.7407 116.991 67.8679 117.055C68.0164 117.118 68.1649 117.171 68.3134 117.214C68.6952 117.277 69.024 117.161 69.2998 116.864C69.5755 116.588 69.7982 116.312 69.9679 116.036C70.2861 115.464 70.477 114.838 70.5407 114.159C70.6043 113.48 70.6998 112.812 70.827 112.155C70.8482 111.603 70.8695 111.083 70.8907 110.595C70.9331 110.086 70.9861 109.577 71.0498 109.068C71.0073 108.75 70.9861 108.442 70.9861 108.145C70.9861 107.827 70.9967 107.509 71.0179 107.191C71.0392 106.873 71.0392 106.565 71.0179 106.268C71.0179 105.971 70.9861 105.674 70.9225 105.377C70.9437 104.911 70.9013 104.486 70.7952 104.105C70.6892 103.723 70.6043 103.33 70.5407 102.927C70.4982 102.248 70.371 101.623 70.1588 101.05C69.9679 100.456 69.5967 99.9364 69.0452 99.4909ZM86.5522 98.1864C87.1249 98.7803 87.634 99.4167 88.0794 100.095C88.5249 100.753 88.8643 101.464 89.0976 102.227C89.2037 102.588 89.2885 102.97 89.3522 103.373C89.4158 103.755 89.4901 104.147 89.5749 104.55C89.5961 105.059 89.5855 105.579 89.5431 106.109C89.5219 106.639 89.3734 107.117 89.0976 107.541C88.9704 107.944 88.7476 108.336 88.4294 108.718C88.1113 109.1 87.7401 109.386 87.3158 109.577C86.9128 109.747 86.4991 109.938 86.0749 110.15C85.6719 110.341 85.237 110.479 84.7704 110.564C84.537 110.648 84.2931 110.755 84.0385 110.882C83.784 110.988 83.6355 111.189 83.5931 111.486C83.5294 111.677 83.4658 111.879 83.4022 112.091C83.3597 112.282 83.2325 112.43 83.0204 112.536C82.7658 112.642 82.49 112.695 82.1931 112.695C81.8961 112.674 81.6416 112.568 81.4294 112.377C81.3022 112.25 81.2067 112.112 81.1431 111.964C81.1007 111.794 81.0582 111.635 81.0158 111.486C80.9946 111.317 80.9628 111.158 80.9204 111.009C80.8991 110.839 80.8461 110.68 80.7613 110.532C80.634 109.895 80.4749 109.259 80.284 108.623C80.1143 107.965 80.1143 107.297 80.284 106.618C80.5173 106.236 80.8461 105.982 81.2704 105.855C81.6946 105.727 82.0976 105.579 82.4794 105.409C83.0522 105.367 83.5931 105.261 84.1022 105.091C84.6113 104.921 85.1097 104.72 85.5976 104.486C85.8946 104.232 86.0643 103.924 86.1067 103.564C86.1491 103.182 86.1491 102.8 86.1067 102.418C86.0431 101.994 85.8628 101.623 85.5658 101.305C85.29 100.986 84.9507 100.742 84.5476 100.573C84.0597 100.424 83.5507 100.382 83.0204 100.445C82.5113 100.509 82.0446 100.626 81.6204 100.795C81.1749 100.965 80.7613 100.976 80.3794 100.827C79.9976 100.658 79.6582 100.414 79.3613 100.095C79.1067 99.7985 78.937 99.4591 78.8522 99.0773C78.7885 98.6742 78.8204 98.2606 78.9476 97.8364C79.0537 97.4758 79.2764 97.1682 79.6158 96.9136C79.9552 96.6379 80.3052 96.4788 80.6658 96.4364C81.0476 96.2455 81.4931 96.1606 82.0022 96.1818C82.5325 96.203 82.9885 96.2667 83.3704 96.3727C83.9219 96.6061 84.4628 96.8606 84.9931 97.1364C85.5446 97.4121 86.0643 97.7621 86.5522 98.1864ZM84.9294 115.432C85.2052 115.814 85.3643 116.259 85.4067 116.768C85.4491 117.277 85.3325 117.723 85.0567 118.105C84.7597 118.656 84.3461 119.091 83.8158 119.409C83.3067 119.748 82.7446 119.918 82.1294 119.918C81.6416 119.897 81.1961 119.727 80.7931 119.409C80.4113 119.091 80.1037 118.73 79.8704 118.327C79.7007 117.967 79.6158 117.574 79.6158 117.15C79.637 116.747 79.6582 116.355 79.6794 115.973C79.8704 115.506 80.1885 115.071 80.634 114.668C81.0794 114.286 81.5779 114.106 82.1294 114.127C82.7022 114.085 83.2325 114.17 83.7204 114.382C84.2294 114.594 84.6325 114.944 84.9294 115.432Z"
		fill="black" />
</svg>