<svg width="509" height="155" viewBox="0 0 509 155" fill="none" xmlns="http://www.w3.org/2000/svg">
	<path
		d="M71.1646 154.13C35.5936 154.13 12.5896 133.895 12.5896 95.555H34.7416C34.7416 120.689 48.3736 134.747 71.1646 134.747C93.9556 134.747 107.801 120.689 107.801 94.064V2.89999H129.953V95.555C129.953 133.895 106.523 154.13 71.1646 154.13ZM203.674 154.13C168.103 154.13 145.099 133.895 145.099 95.555V2.89999H167.251V94.064C167.251 120.476 180.883 134.747 203.674 134.747C226.465 134.747 240.097 120.476 240.097 94.064V2.89999H262.462V95.555C262.462 133.895 239.032 154.13 203.674 154.13ZM333.201 154.13C295.713 154.13 274.413 135.599 274.413 106.844H296.991C297.843 122.819 308.493 135.386 333.414 135.386C355.566 135.386 366.855 125.588 366.855 110.252C366.855 95.555 356.205 89.378 340.23 86.183L319.995 82.136C294.861 77.237 278.673 65.096 278.673 41.879C278.673 16.532 298.269 0.982989 331.284 0.982989C364.299 0.982989 385.812 16.532 385.812 42.518H363.234C363.021 28.886 351.519 19.727 331.497 19.727C309.984 19.727 301.677 30.377 301.677 42.305C301.677 52.955 308.067 61.475 325.533 64.883L344.916 68.717C374.523 74.468 390.072 86.183 390.072 110.039C390.072 139.007 367.281 154.13 333.201 154.13ZM435.17 152V22.283H389.375V2.89999H503.117V22.283H457.322V152H435.17Z"
		fill="black" />
</svg>