<svg width="186" height="153" viewBox="0 0 186 153" fill="none" xmlns="http://www.w3.org/2000/svg">
	<path fill-rule="evenodd" clip-rule="evenodd"
		d="M146.647 2.44261C148.154 0.881606 150.231 0 152.401 0H158.579C160.74 0 162.808 0.873785 164.314 2.4226C165.821 3.97141 166.636 6.06356 166.576 8.22314L166.375 15.421L172.872 13.2534C174.974 12.5518 177.274 12.7542 179.222 13.8122C181.17 14.8701 182.592 16.6889 183.148 18.8347L184.844 25.3769C185.939 29.602 183.445 33.9252 179.24 35.0928L173.252 36.7553L177.395 42.4265C179.965 45.9439 179.248 50.8707 175.782 53.5101L170.816 57.2927C169.054 58.6343 166.815 59.1858 164.632 58.816C162.449 58.4462 160.517 57.1881 159.296 55.3412L155.59 49.7381L151.966 55.2887C150.76 57.136 148.844 58.4032 146.672 58.7906C144.5 59.178 142.265 58.6513 140.494 57.335L135.755 53.8115C133.561 52.355 132.18 49.8722 132.18 47.1457V47.1323C132.18 45.2791 132.82 43.5231 133.938 42.1284L137.861 36.7584L131.862 35.0928C127.656 33.9252 125.163 29.602 126.258 25.377L127.954 18.8347C128.509 16.6919 129.928 14.8751 131.872 13.8164C133.816 12.7577 136.111 12.5519 138.213 13.2478L144.654 15.3809L144.406 8.27886C144.33 6.11008 145.139 4.00362 146.647 2.44261Z"
		fill="black" />
	<path
		d="M7.038 26L0.759 1.85H6.072L9.936 18.7205H10.1775L14.835 1.85H20.148L24.8055 18.7205H25.047L28.911 1.85H34.224L27.945 26H22.563L17.4915 8.3705L12.42 26H7.038ZM37.4557 26V1.85H53.9467V6.335H42.6307V11.7515H52.9117V15.788H42.6307V21.515H54.2917V26H37.4557ZM19.2855 61L17.733 56.4805H7.5555L6.003 61H0.5865L9.315 36.85H15.9735L24.702 61H19.2855ZM8.8665 52.651H16.422L12.7995 42.1285H12.489L8.8665 52.651ZM47.0027 61H41.8967L37.3082 52.9615H32.9612V61H27.7862V36.85H37.5497C43.9667 36.85 46.7612 40.1965 46.7612 44.923C46.7612 48.373 45.2777 51.064 41.9312 52.2715L47.0027 61ZM32.9612 41.335V48.4765H37.3772C40.2062 48.4765 41.4482 47.062 41.4482 44.923C41.4482 42.7495 40.2062 41.335 37.3772 41.335H32.9612ZM50.4094 61V36.85H66.9004V41.335H55.5844V46.7515H65.8654V50.788H55.5844V56.515H67.2454V61H50.4094Z"
		fill="black" />
	<path
		d="M16.616 103.954C16.7947 104.356 16.884 104.758 16.884 105.16C16.9287 105.562 16.9287 105.986 16.884 106.433C16.884 106.835 16.884 107.259 16.884 107.706C16.884 108.108 16.9287 108.532 17.018 108.979C16.75 109.872 16.6607 110.743 16.75 111.592C16.884 112.396 16.9957 113.222 17.085 114.071C17.1743 116.483 17.1967 118.895 17.152 121.307C17.1073 123.674 17.0627 126.064 17.018 128.476C16.8393 129.503 16.7947 130.508 16.884 131.491C16.9733 132.474 16.951 133.479 16.817 134.506C16.683 134.997 16.616 135.511 16.616 136.047C16.6607 136.583 16.6383 137.097 16.549 137.588C16.7723 138.258 16.8617 138.928 16.817 139.598C16.7723 140.223 16.7053 140.849 16.616 141.474C16.7053 142.233 16.817 142.948 16.951 143.618C17.085 144.333 17.3753 145.003 17.822 145.628C18.09 145.896 18.358 146.097 18.626 146.231C18.9387 146.365 19.229 146.477 19.497 146.566C19.8097 146.7 20.1 146.834 20.368 146.968C20.6807 147.147 20.971 147.37 21.239 147.638C21.4623 148.04 21.6187 148.442 21.708 148.844C21.842 149.246 21.8643 149.693 21.775 150.184C21.4623 150.72 21.0603 151.077 20.569 151.256C20.0777 151.479 19.5417 151.591 18.961 151.591C18.425 151.636 17.8443 151.613 17.219 151.524C16.6383 151.435 16.08 151.39 15.544 151.39C15.0527 151.524 14.606 151.524 14.204 151.39C13.802 151.301 13.4 151.234 12.998 151.189C11.9707 151.412 10.8763 151.502 9.715 151.457C8.59833 151.412 7.45933 151.39 6.298 151.39C5.896 151.211 5.40467 151.211 4.824 151.39C4.51133 151.345 4.17633 151.323 3.819 151.323C3.50633 151.368 3.19367 151.368 2.881 151.323C2.56833 151.323 2.278 151.256 2.01 151.122C1.742 151.033 1.51867 150.809 1.34 150.452C1.11667 150.005 1.02733 149.514 1.072 148.978C1.16133 148.487 1.34 148.04 1.608 147.638C1.92067 147.325 2.25567 147.08 2.613 146.901C3.015 146.722 3.39467 146.544 3.752 146.365C4.154 146.186 4.51133 145.963 4.824 145.695C5.18133 145.472 5.47167 145.159 5.695 144.757C5.963 144.087 6.164 143.372 6.298 142.613C6.47667 141.854 6.52133 141.072 6.432 140.268C6.566 139.955 6.61067 139.643 6.566 139.33C6.566 139.017 6.54367 138.705 6.499 138.392C6.45433 138.079 6.40967 137.789 6.365 137.521C6.32033 137.208 6.34267 136.873 6.432 136.516C6.38733 136.025 6.47667 135.578 6.7 135.176C6.92333 134.774 6.968 134.327 6.834 133.836C6.432 133.032 6.27567 132.161 6.365 131.223C6.45433 130.285 6.566 129.414 6.7 128.61C6.34267 127.404 6.18633 126.153 6.231 124.858C6.32033 123.563 6.32033 122.267 6.231 120.972C6.45433 120.302 6.499 119.654 6.365 119.029C6.27567 118.359 6.18633 117.667 6.097 116.952C5.963 116.684 5.78433 116.528 5.561 116.483C5.33767 116.394 5.092 116.371 4.824 116.416C4.556 116.461 4.288 116.505 4.02 116.55C3.752 116.595 3.50633 116.617 3.283 116.617C2.79167 116.662 2.30033 116.617 1.809 116.483C1.36233 116.349 0.982667 116.059 0.67 115.612C0.446667 114.987 0.312667 114.294 0.268 113.535C0.268 112.776 0.446667 112.128 0.804 111.592C1.51867 111.101 2.25567 110.743 3.015 110.52C3.77433 110.252 4.53367 109.939 5.293 109.582C6.18633 109.225 6.901 108.666 7.437 107.907C7.973 107.103 8.48667 106.321 8.978 105.562C9.20133 105.071 9.40233 104.579 9.581 104.088C9.75967 103.552 10.1617 103.239 10.787 103.15C11.5463 103.016 12.328 102.971 13.132 103.016C13.936 103.016 14.74 103.061 15.544 103.15C15.7673 103.239 15.9683 103.351 16.147 103.485C16.3703 103.574 16.5267 103.731 16.616 103.954ZM45.2145 104.691C46.1525 105.316 46.9565 106.031 47.6265 106.835C48.3412 107.594 48.9442 108.421 49.4355 109.314C49.9715 110.207 50.4405 111.123 50.8425 112.061C51.2445 112.999 51.6242 113.937 51.9815 114.875C52.0709 115.768 52.2272 116.572 52.4505 117.287C52.7185 118.002 52.8079 118.783 52.7185 119.632C53.0759 121.285 53.2099 122.982 53.1205 124.724C53.0759 126.466 53.0982 128.208 53.1875 129.95C53.1875 131.201 53.1875 132.474 53.1875 133.769C53.1875 135.064 52.9419 136.27 52.4505 137.387C52.3612 138.414 52.1379 139.375 51.7805 140.268C51.4232 141.161 51.1329 142.099 50.9095 143.082C50.5075 143.573 50.1949 144.042 49.9715 144.489C49.7929 144.98 49.5695 145.472 49.3015 145.963C48.5869 146.99 47.7829 148.018 46.8895 149.045C45.9962 150.072 44.9242 150.787 43.6735 151.189C42.7802 151.502 41.8645 151.792 40.9265 152.06C40.0332 152.373 39.0282 152.417 37.9115 152.194C37.0629 151.926 36.1695 151.703 35.2315 151.524C34.3382 151.345 33.5565 150.899 32.8865 150.184C30.9659 148.978 29.4695 147.437 28.3975 145.561C27.3255 143.685 26.5215 141.742 25.9855 139.732C25.8515 138.973 25.6952 138.236 25.5165 137.521C25.3825 136.762 25.2262 136.002 25.0475 135.243C24.9582 133.278 24.8689 131.379 24.7795 129.548C24.6902 127.672 24.7125 125.729 24.8465 123.719C24.9359 122.111 25.0699 120.548 25.2485 119.029C25.4719 117.466 25.7845 115.947 26.1865 114.473C26.5439 113.312 27.0352 112.173 27.6605 111.056C28.2859 109.939 28.8889 108.867 29.4695 107.84C30.4522 106.634 31.5019 105.607 32.6185 104.758C33.7799 103.865 35.0529 103.329 36.4375 103.15C37.1522 102.927 37.8445 102.86 38.5145 102.949C39.2292 103.038 39.9439 103.083 40.6585 103.083C41.4179 103.217 42.1772 103.44 42.9365 103.753C43.7405 104.021 44.4999 104.334 45.2145 104.691ZM40.6585 109.247C40.5245 109.024 40.3682 108.845 40.1895 108.711C40.0109 108.532 39.8099 108.398 39.5865 108.309C39.3632 108.22 39.1399 108.22 38.9165 108.309C38.6932 108.354 38.5145 108.443 38.3805 108.577C37.4872 109.426 36.9735 110.431 36.8395 111.592C36.7055 112.709 36.5715 113.825 36.4375 114.942C36.3929 115.88 36.3259 116.84 36.2365 117.823C36.1919 118.761 36.1919 119.721 36.2365 120.704C36.3259 123.429 36.3482 126.176 36.3035 128.945C36.3035 131.67 36.3035 134.417 36.3035 137.186C36.5269 138.347 36.6162 139.553 36.5715 140.804C36.5715 142.055 36.6832 143.261 36.9065 144.422C36.9959 144.779 37.0629 145.137 37.1075 145.494C37.1969 145.896 37.3979 146.276 37.7105 146.633C37.9785 146.812 38.2465 146.901 38.5145 146.901C38.8272 146.946 39.1175 146.946 39.3855 146.901C39.7875 146.678 40.1672 146.387 40.5245 146.03C40.8819 145.717 41.0605 145.338 41.0605 144.891C41.1499 144.042 41.2839 143.194 41.4625 142.345C41.6412 141.541 41.6189 140.67 41.3955 139.732C41.4849 138.973 41.6412 138.213 41.8645 137.454C42.0879 136.695 42.0655 135.935 41.7975 135.176C41.9762 134.104 42.0209 133.077 41.9315 132.094C41.8869 131.067 41.8645 129.995 41.8645 128.878C41.7305 127.315 41.7082 125.751 41.7975 124.188C41.8869 122.58 41.8869 121.017 41.7975 119.498C41.8869 118.247 41.8199 117.064 41.5965 115.947C41.4179 114.786 41.2839 113.624 41.1945 112.463C41.1052 111.927 41.0829 111.369 41.1275 110.788C41.1722 110.207 41.0159 109.694 40.6585 109.247ZM77.0448 104.691C77.9828 105.316 78.7868 106.031 79.4568 106.835C80.1714 107.594 80.7744 108.421 81.2658 109.314C81.8018 110.207 82.2708 111.123 82.6728 112.061C83.0748 112.999 83.4544 113.937 83.8118 114.875C83.9011 115.768 84.0574 116.572 84.2808 117.287C84.5488 118.002 84.6381 118.783 84.5488 119.632C84.9061 121.285 85.0401 122.982 84.9508 124.724C84.9061 126.466 84.9284 128.208 85.0178 129.95C85.0178 131.201 85.0178 132.474 85.0178 133.769C85.0178 135.064 84.7721 136.27 84.2808 137.387C84.1914 138.414 83.9681 139.375 83.6108 140.268C83.2534 141.161 82.9631 142.099 82.7398 143.082C82.3378 143.573 82.0251 144.042 81.8018 144.489C81.6231 144.98 81.3998 145.472 81.1318 145.963C80.4171 146.99 79.6131 148.018 78.7198 149.045C77.8264 150.072 76.7544 150.787 75.5038 151.189C74.6104 151.502 73.6948 151.792 72.7568 152.06C71.8634 152.373 70.8584 152.417 69.7418 152.194C68.8931 151.926 67.9998 151.703 67.0618 151.524C66.1684 151.345 65.3868 150.899 64.7168 150.184C62.7961 148.978 61.2998 147.437 60.2278 145.561C59.1558 143.685 58.3518 141.742 57.8158 139.732C57.6818 138.973 57.5254 138.236 57.3468 137.521C57.2128 136.762 57.0564 136.002 56.8778 135.243C56.7884 133.278 56.6991 131.379 56.6098 129.548C56.5204 127.672 56.5428 125.729 56.6768 123.719C56.7661 122.111 56.9001 120.548 57.0788 119.029C57.3021 117.466 57.6148 115.947 58.0168 114.473C58.3741 113.312 58.8654 112.173 59.4908 111.056C60.1161 109.939 60.7191 108.867 61.2998 107.84C62.2824 106.634 63.3321 105.607 64.4488 104.758C65.6101 103.865 66.8831 103.329 68.2678 103.15C68.9824 102.927 69.6748 102.86 70.3448 102.949C71.0594 103.038 71.7741 103.083 72.4888 103.083C73.2481 103.217 74.0074 103.44 74.7668 103.753C75.5708 104.021 76.3301 104.334 77.0448 104.691ZM72.4888 109.247C72.3548 109.024 72.1984 108.845 72.0198 108.711C71.8411 108.532 71.6401 108.398 71.4168 108.309C71.1934 108.22 70.9701 108.22 70.7468 108.309C70.5234 108.354 70.3448 108.443 70.2108 108.577C69.3174 109.426 68.8038 110.431 68.6698 111.592C68.5358 112.709 68.4018 113.825 68.2678 114.942C68.2231 115.88 68.1561 116.84 68.0668 117.823C68.0221 118.761 68.0221 119.721 68.0668 120.704C68.1561 123.429 68.1784 126.176 68.1338 128.945C68.1338 131.67 68.1338 134.417 68.1338 137.186C68.3571 138.347 68.4464 139.553 68.4018 140.804C68.4018 142.055 68.5134 143.261 68.7368 144.422C68.8261 144.779 68.8931 145.137 68.9378 145.494C69.0271 145.896 69.2281 146.276 69.5408 146.633C69.8088 146.812 70.0768 146.901 70.3448 146.901C70.6574 146.946 70.9478 146.946 71.2158 146.901C71.6178 146.678 71.9974 146.387 72.3548 146.03C72.7121 145.717 72.8908 145.338 72.8908 144.891C72.9801 144.042 73.1141 143.194 73.2928 142.345C73.4714 141.541 73.4491 140.67 73.2258 139.732C73.3151 138.973 73.4714 138.213 73.6948 137.454C73.9181 136.695 73.8958 135.935 73.6278 135.176C73.8064 134.104 73.8511 133.077 73.7618 132.094C73.7171 131.067 73.6948 129.995 73.6948 128.878C73.5608 127.315 73.5384 125.751 73.6278 124.188C73.7171 122.58 73.7171 121.017 73.6278 119.498C73.7171 118.247 73.6501 117.064 73.4268 115.947C73.2481 114.786 73.1141 113.624 73.0248 112.463C72.9354 111.927 72.9131 111.369 72.9578 110.788C73.0024 110.207 72.8461 109.694 72.4888 109.247ZM101.907 103.485C102.398 103.708 102.845 103.999 103.247 104.356C103.694 104.713 104.14 105.048 104.587 105.361C105.48 105.852 106.217 106.522 106.798 107.371C107.379 108.22 107.781 109.091 108.004 109.984C108.629 111.145 108.942 112.463 108.942 113.937C108.942 115.366 108.83 116.729 108.607 118.024C108.384 119.587 107.736 121.128 106.664 122.647C105.637 124.121 104.364 125.215 102.845 125.93C102.13 126.332 101.349 126.622 100.5 126.801C99.6513 126.98 98.7803 127.047 97.887 127.002C97.0383 126.957 96.1897 126.823 95.341 126.6C94.537 126.332 93.8 125.975 93.13 125.528C91.8793 124.903 90.8967 124.009 90.182 122.848C89.512 121.687 89.0653 120.458 88.842 119.163C88.2167 117.332 88.0157 115.299 88.239 113.066C88.373 112.083 88.5963 111.123 88.909 110.185C89.2217 109.202 89.6237 108.287 90.115 107.438C90.651 106.589 91.2763 105.83 91.991 105.16C92.7503 104.445 93.6213 103.887 94.604 103.485C95.676 102.994 96.882 102.793 98.222 102.882C99.562 102.927 100.79 103.128 101.907 103.485ZM122.342 104.758C122.387 105.339 122.297 105.83 122.074 106.232C121.851 106.634 121.65 107.058 121.471 107.505C121.114 108.13 120.823 108.778 120.6 109.448C120.421 110.073 120.086 110.676 119.595 111.257C119.238 112.284 118.813 113.267 118.322 114.205C117.831 115.143 117.406 116.103 117.049 117.086C116.022 119.141 114.994 121.173 113.967 123.183C112.984 125.193 111.979 127.248 110.952 129.347C110.461 130.374 109.969 131.402 109.478 132.429C109.031 133.412 108.473 134.394 107.803 135.377C107.446 136.404 107.088 137.387 106.731 138.325C106.374 139.218 105.972 140.112 105.525 141.005C104.989 141.764 104.587 142.568 104.319 143.417C104.096 144.266 103.671 145.047 103.046 145.762C102.957 146.119 102.756 146.454 102.443 146.767C102.175 147.124 101.996 147.482 101.907 147.839C101.684 148.107 101.483 148.42 101.304 148.777C101.17 149.134 101.014 149.469 100.835 149.782C100.701 150.095 100.5 150.385 100.232 150.653C100.009 150.921 99.696 151.1 99.294 151.189C98.6687 151.144 98.021 151.167 97.351 151.256C96.681 151.345 96.145 151.1 95.743 150.519C95.6537 150.206 95.676 149.916 95.81 149.648C95.944 149.38 96.0557 149.134 96.145 148.911C96.3683 148.018 96.6587 147.191 97.016 146.432C97.3733 145.673 97.7307 144.913 98.088 144.154C98.9813 142.144 99.8747 140.201 100.768 138.325C101.706 136.449 102.644 134.551 103.582 132.63C104.163 131.692 104.676 130.776 105.123 129.883C105.614 128.945 106.083 128.007 106.53 127.069C106.798 126.488 107.021 125.952 107.2 125.461C107.379 124.925 107.58 124.344 107.803 123.719C108.696 122.424 109.366 121.084 109.813 119.699C110.304 118.27 110.952 116.907 111.756 115.612C112.203 114.272 112.739 113.021 113.364 111.86C114.034 110.654 114.682 109.426 115.307 108.175C115.486 107.728 115.664 107.259 115.843 106.768C116.022 106.232 116.245 105.741 116.513 105.294C116.781 104.803 117.094 104.401 117.451 104.088C117.853 103.775 118.367 103.597 118.992 103.552C119.26 103.641 119.573 103.686 119.93 103.686C120.287 103.641 120.622 103.641 120.935 103.686C121.292 103.686 121.583 103.775 121.806 103.954C122.074 104.088 122.253 104.356 122.342 104.758ZM99.495 107.706C99.4057 107.527 99.2493 107.371 99.026 107.237C98.8473 107.058 98.624 107.014 98.356 107.103C98.1327 107.237 97.8647 107.393 97.552 107.572C97.284 107.751 97.083 108.019 96.949 108.376C96.9043 109.448 96.7703 110.498 96.547 111.525C96.3237 112.508 96.2567 113.557 96.346 114.674C96.4353 115.969 96.48 117.242 96.48 118.493C96.48 119.699 96.7257 120.838 97.217 121.91C97.3957 122.133 97.5967 122.357 97.82 122.58C98.088 122.803 98.4007 122.915 98.758 122.915C98.9813 122.87 99.16 122.781 99.294 122.647C99.4727 122.513 99.6513 122.357 99.83 122.178C100.277 121.061 100.522 119.878 100.567 118.627C100.656 117.376 100.746 116.126 100.835 114.875C100.88 113.58 100.813 112.351 100.634 111.19C100.455 109.984 100.076 108.823 99.495 107.706ZM127.501 132.228C128.394 133.523 128.908 134.953 129.042 136.516C129.176 138.079 129.355 139.62 129.578 141.139C129.578 142.122 129.422 143.037 129.109 143.886C128.796 144.735 128.484 145.583 128.171 146.432C127.59 147.415 126.853 148.353 125.96 149.246C125.111 150.139 124.173 150.787 123.146 151.189C122.655 151.591 122.096 151.837 121.471 151.926C120.89 152.015 120.287 152.105 119.662 152.194C118.143 152.105 116.669 151.837 115.24 151.39C113.855 150.988 112.716 150.072 111.823 148.643C111.287 148.152 110.885 147.616 110.617 147.035C110.349 146.454 110.014 145.918 109.612 145.427L108.741 142.479C108.652 140.916 108.719 139.397 108.942 137.923C109.21 136.404 109.701 135.042 110.416 133.836C110.997 132.809 111.711 131.804 112.56 130.821C113.409 129.794 114.391 129.079 115.508 128.677C117.071 128.32 118.702 128.163 120.399 128.208C122.096 128.208 123.593 128.722 124.888 129.749C125.379 130.106 125.848 130.508 126.295 130.955C126.742 131.357 127.144 131.781 127.501 132.228ZM121.404 135.779C121.225 135.243 121.047 134.752 120.868 134.305C120.689 133.814 120.488 133.322 120.265 132.831C120.131 132.608 119.952 132.496 119.729 132.496C119.506 132.451 119.282 132.429 119.059 132.429C118.3 132.92 117.808 133.568 117.585 134.372C117.362 135.176 117.205 135.98 117.116 136.784C116.982 138.169 116.87 139.531 116.781 140.871C116.692 142.256 116.803 143.618 117.116 144.958C117.116 145.583 117.183 146.142 117.317 146.633C117.451 147.169 117.764 147.638 118.255 148.04C118.478 148.129 118.702 148.196 118.925 148.241C119.148 148.33 119.372 148.33 119.595 148.241C120.042 148.107 120.377 147.884 120.6 147.571C120.868 147.258 121.069 146.901 121.203 146.499C121.337 146.142 121.426 145.74 121.471 145.293C121.516 144.846 121.583 144.422 121.672 144.02C121.538 142.635 121.493 141.251 121.538 139.866C121.627 138.437 121.583 137.074 121.404 135.779Z"
		fill="black" />
</svg>