<svg width="502" height="156" viewBox="0 0 502 156" fill="none" xmlns="http://www.w3.org/2000/svg">
	<path
		d="M61.5796 155.13C27.0736 155.13 7.47762 133.83 13.4416 96.768H26.6476C21.7486 126.375 36.2326 143.415 63.2836 143.415C89.9086 143.415 107.801 126.588 112.7 96.129L127.184 3.89999H140.39L125.693 96.768C119.516 133.617 96.0856 155.13 61.5796 155.13ZM189.706 155.13C154.987 155.13 136.456 133.617 142.207 96.768L156.904 3.89999H170.11L155.413 96.129C150.514 126.588 164.572 143.415 191.623 143.415C218.674 143.415 236.353 126.588 241.039 96.129L255.736 3.89999H268.942L254.245 96.768C248.281 133.617 224.425 155.13 189.706 155.13ZM314.216 155.13C278.006 155.13 261.179 135.96 265.226 111.465H278.219C276.302 129.357 287.804 143.841 315.92 143.841C343.184 143.841 360.224 129.996 360.224 109.122C360.224 92.295 348.722 86.544 332.108 83.136L314.429 79.302C291.425 74.19 280.349 63.114 280.349 44.796C280.349 18.384 303.14 1.98299 335.303 1.98299C366.827 1.98299 383.867 17.745 380.459 39.684H367.679C368.957 25.413 358.307 13.272 333.812 13.272C309.317 13.272 293.981 25.413 293.981 44.157C293.981 57.15 301.649 65.031 320.393 68.865L338.072 72.699C359.372 77.385 374.069 85.905 374.069 107.844C374.069 137.238 349.148 155.13 314.216 155.13ZM416.527 153L438.253 15.615H389.902L391.819 3.89999H501.514L499.384 15.615H451.246L429.52 153H416.527Z"
		fill="black" />
	<g clip-path="url(#clip0_34_14206)">
		<path
			d="M10.628 6.1199C11.178 6.1999 11.658 6.5499 12.158 6.8199C13.138 7.5499 13.878 8.5099 13.828 9.8099C13.878 10.8899 13.848 12.0199 13.258 12.8799C13.018 13.2099 12.688 13.4799 12.348 13.6799C12.058 13.7799 11.778 14.0099 11.608 14.2799C11.558 14.4299 11.728 14.5099 11.818 14.5799C12.608 15.0599 13.438 15.5599 13.938 16.4199C14.418 17.2499 14.488 18.2799 14.438 19.3399C14.578 19.7199 14.338 20.0699 14.268 20.4499L13.858 21.4799C13.218 22.7899 11.878 23.2399 10.688 23.6199C10.068 23.6699 9.42801 23.8199 8.77801 23.6399C7.93801 23.5599 7.12801 23.8399 6.26801 23.7199C5.47801 23.7999 4.66801 23.6699 3.85801 23.6399C3.35801 23.6199 2.61801 23.9199 2.35801 23.3399C2.25801 22.8899 2.30801 22.3799 2.68801 22.1599C3.01801 21.7799 3.71801 21.5799 3.52801 20.8999C3.59801 20.2699 3.57801 19.5399 3.59801 18.8399C3.92801 17.8799 3.49801 16.8999 3.57801 15.8499C3.62801 15.2999 3.50801 14.7199 3.57801 14.1699C3.43801 13.3399 3.64801 12.4099 3.59801 11.5499C3.47801 10.8999 3.76801 10.2399 3.59801 9.6399C3.71801 9.1099 3.47801 8.6799 3.49801 8.1599C3.32801 7.4799 2.42801 7.6099 2.37801 6.8499C2.32801 6.6699 2.35801 6.4499 2.42801 6.2999C2.90801 5.6499 3.78801 5.9699 4.47801 5.8499C5.19801 5.8999 6.00801 5.7499 6.71801 5.9299C8.00801 5.8799 9.36801 5.7799 10.608 6.1299L10.628 6.1199ZM8.59801 7.7599C8.40801 7.7099 8.16801 7.7099 7.97801 7.8599C7.87801 8.0899 7.80801 8.2899 7.80801 8.5399C7.99801 9.7999 7.97801 11.2299 7.87801 12.4899C7.89801 12.8399 7.54801 13.2399 7.94801 13.5199C8.15801 13.6199 8.42801 13.4199 8.66801 13.3399C8.87801 13.0599 9.23801 12.9399 9.35801 12.5599C9.56801 11.7799 9.56801 10.8999 9.59801 10.0399C9.57801 9.4599 9.64801 8.8099 9.23801 8.3599C9.09801 8.1299 8.85802 7.8799 8.59801 7.7599ZM8.93801 15.5999C8.62801 15.4699 8.21801 15.1999 7.90801 15.4999L7.88801 16.5299C7.95801 17.4399 7.74801 18.3899 7.88801 19.2999C7.76801 20.1599 7.64801 21.2399 8.26801 21.8699C8.67801 22.1499 9.00801 21.7899 9.29801 21.5699C9.50801 21.1399 9.67801 20.7699 9.77801 20.3399C10.018 19.3599 9.94801 18.3299 9.87801 17.3499C9.87801 16.7999 9.51801 16.4399 9.35801 15.9899L8.94801 15.6099L8.93801 15.5999Z"
			fill="black" />
		<path
			d="M25.138 6.68009C25.998 7.11009 26.138 8.01009 26.758 8.64009C26.898 8.89009 26.898 9.19009 26.948 9.50009C27.188 9.95009 26.998 10.5301 27.158 11.0601C27.088 12.3201 26.468 13.4201 25.488 14.2801C25.228 14.4801 24.748 14.6601 24.798 15.1101C24.988 15.5901 25.348 15.9701 25.418 16.4901C25.748 16.9901 25.778 17.6501 26.088 18.1801C26.188 18.7601 26.448 19.2101 26.538 19.7401C26.828 20.2701 26.898 20.9201 27.368 21.3501C27.698 21.7501 28.278 22.0301 28.228 22.6301C28.248 22.8801 28.228 23.1101 28.088 23.2801C27.518 23.9601 26.588 23.5801 25.848 23.6601C25.228 23.8401 24.558 23.6901 24.038 23.4801C23.728 23.2501 23.608 22.8801 23.438 22.5501C23.078 21.8701 23.108 21.0701 22.648 20.4601C22.478 19.8801 22.358 19.2801 22.098 18.7501C22.028 18.1701 21.578 17.7701 21.548 17.1901C21.358 16.7901 21.288 16.3101 20.998 15.9601C20.828 15.9301 20.758 16.0401 20.688 16.1601C20.638 17.4701 20.688 18.7801 20.688 20.1101C20.518 20.7601 20.688 21.3901 21.188 21.8001C21.498 21.9001 21.878 22.1001 21.998 22.4801C22.018 22.8801 22.098 23.4101 21.738 23.6401C21.188 23.8401 20.518 23.6601 19.928 23.6601C19.258 23.7401 18.588 23.6601 17.898 23.7401H15.778C15.638 23.6601 15.418 23.5901 15.328 23.4101C15.158 23.0301 15.188 22.4301 15.498 22.1301C15.788 21.8001 16.378 21.7501 16.408 21.2001C16.478 20.5701 16.548 20.0201 16.528 19.3401C16.698 19.0901 16.598 18.7601 16.548 18.5101C16.688 17.7301 16.598 16.9301 16.548 16.1201C16.528 15.5201 16.758 14.9101 16.618 14.3101C16.618 13.8101 16.688 13.2801 16.638 12.7801C16.398 12.0001 16.468 10.9901 16.498 10.1601C16.518 9.66009 16.478 9.05009 16.478 8.47009C16.478 8.17009 16.268 7.87009 15.998 7.67009C15.668 7.59009 15.258 7.24009 15.208 6.87009C15.208 6.47009 15.228 6.09009 15.618 5.89009L15.858 5.81009C16.478 5.78009 17.198 5.78009 17.818 5.81009C19.088 5.81009 20.348 5.71009 21.608 5.76009L22.798 5.79009C23.588 6.02009 24.328 6.42009 25.138 6.70009V6.68009ZM21.038 7.56009C20.918 7.59009 20.848 7.69009 20.798 7.79009C20.778 8.47009 20.778 9.17009 20.798 9.88009C20.898 10.7401 20.698 11.5701 20.848 12.4201C20.848 12.8701 20.638 13.6001 21.058 13.9001C21.508 13.9501 21.868 13.8001 22.178 13.4201C22.938 12.6701 22.728 11.4601 22.898 10.4301C22.828 9.60009 22.758 8.75009 22.328 8.09009C21.918 7.76009 21.498 7.64009 21.038 7.56009Z"
			fill="black" />
		<path
			d="M37.0782 7.63C37.3882 8.34 37.2482 9.19 37.5782 9.87C37.7482 10.25 37.7682 10.7 37.9582 11.08C38.1982 12.31 38.5582 13.49 38.7482 14.75C39.1982 15.86 39.1282 17.19 39.5782 18.29C39.5582 19.25 40.0282 19.95 40.2482 20.83C40.4382 21.18 40.5082 21.56 40.8682 21.86C41.2482 22.16 41.2482 22.64 41.3182 23.12C41.1482 23.67 40.5082 23.62 40.0282 23.72C39.4782 23.85 38.9082 23.72 38.2882 23.8C37.3382 23.72 36.3282 23.88 35.3782 23.72C35.1182 23.64 34.9482 23.37 34.8982 23.09C34.7582 22.61 35.0182 22.13 35.3782 21.86C36.2382 21.33 35.8282 20.18 35.8782 19.32C35.7382 18.74 35.5182 18.24 35.4482 17.66C35.3482 17.53 35.2582 17.46 35.1182 17.43C34.9482 17.35 34.8082 17.46 34.6182 17.46C33.9482 17.43 33.2782 17.36 32.5882 17.46C32.1582 17.76 32.2282 18.39 32.1382 18.84C31.8982 19.29 31.8782 19.82 31.8282 20.37C31.7282 20.9 31.8982 21.48 32.3582 21.78C32.6882 21.93 32.9282 22.31 32.9782 22.63C33.0282 22.88 32.9982 23.16 32.8782 23.38C32.6182 23.71 32.1582 23.63 31.8082 23.71C31.2582 23.56 30.5882 23.63 29.9982 23.71C29.6382 23.61 29.1182 23.74 28.8782 23.33C28.7082 22.95 28.7582 22.53 28.9282 22.2C29.1382 21.87 29.5982 21.67 29.6682 21.27C29.9982 20.21 30.2382 19.11 30.4782 18C30.8082 17.25 30.6682 16.37 31.0482 15.66C31.3782 13.57 32.0282 11.59 32.3382 9.47C32.6482 8.82 32.6682 8.06 32.8682 7.38C32.8882 6.88 32.4382 6.17 32.9882 5.87C33.6582 5.72 34.6382 5.79 35.1082 5.79L36.1082 5.82C37.0182 5.95 36.8982 6.95 37.0882 7.61L37.0782 7.63ZM33.5682 12.11C33.5682 12.46 33.3982 12.76 33.3982 13.12C33.3282 13.8 33.0382 14.38 33.0382 15.11C33.0582 15.21 33.2082 15.29 33.2982 15.31C33.7282 15.31 34.1782 15.56 34.5382 15.21C34.6382 15.13 34.6382 14.96 34.6082 14.83C34.3182 13.87 34.1082 12.82 33.8682 11.79C33.6582 11.49 33.6082 12.02 33.5582 12.12L33.5682 12.11Z"
			fill="black" />
		<path
			d="M54.0981 7.6099C53.8081 7.7899 53.3081 7.9599 53.2881 8.4399C53.2181 9.6499 53.1181 10.8499 53.1481 12.0899C53.1281 13.2499 53.1281 14.4499 53.1981 15.5899C53.1281 16.6199 53.1481 17.7299 53.0581 18.7599C53.3181 19.4599 53.1281 20.3199 53.1281 21.0699C53.1481 21.7999 53.0581 22.4499 53.0581 23.1799C53.0581 23.3599 52.8481 23.5099 52.6981 23.5799C52.3181 23.7299 51.8181 23.7299 51.5081 23.3999C50.5981 21.9399 49.8181 20.4799 48.9281 19.0499C48.2381 17.5399 47.2781 16.1599 46.5681 14.6499C46.0181 13.8699 45.7281 12.9699 45.1081 12.2399C45.0881 12.1599 45.0381 12.1599 44.9881 12.2399C44.8181 12.6199 44.8881 13.0399 44.8181 13.4199C44.8681 13.9499 44.8881 14.4499 44.9181 14.9799C44.9181 15.7799 44.8981 16.5099 44.8681 17.2899C44.7481 17.7199 44.8481 18.0899 44.8681 18.4999C44.8481 19.5299 44.7281 20.6599 45.2481 21.4899C45.7281 21.8699 46.4381 21.9399 46.5581 22.6499C46.5581 23.0799 46.5081 23.5099 46.1081 23.6799C45.8481 23.8599 45.5381 23.6499 45.2481 23.7299C44.1981 23.4999 43.0481 23.9599 42.0781 23.4999C41.7881 23.2699 41.7881 22.8999 41.8681 22.5399C41.9381 21.8599 42.6781 21.8599 42.9881 21.4099C43.2781 21.0099 43.1781 20.4499 43.2981 19.9799C43.1781 18.8999 43.1281 17.7199 43.2781 16.6099C43.1381 16.1599 43.3481 15.6999 43.2081 15.2799C43.3481 14.5799 43.0881 13.9199 43.1881 13.2899C43.2581 12.1599 43.2581 10.9799 43.1881 9.8699C43.1381 9.2699 43.3081 8.5899 42.8781 8.1599C42.5681 7.6799 41.8281 7.4799 41.8481 6.8299C41.7981 6.4499 41.8481 6.0999 42.1581 5.9299C42.6381 5.7499 43.1581 5.8299 43.7081 5.8299C44.1381 5.7799 44.6381 5.8099 45.1181 5.8099C45.6181 5.8099 46.2381 5.7599 46.5781 6.2399C47.0781 6.9199 47.3381 7.6999 47.8681 8.3799C48.0781 8.9599 48.5381 9.5099 48.7781 10.0899C48.9481 10.6899 49.4981 11.0699 49.6381 11.5699C50.1881 12.4199 50.6181 13.3599 51.0981 14.2599C51.1681 14.3399 51.2181 14.3899 51.3381 14.3599C51.7481 13.8799 51.4581 13.1299 51.3881 12.5999C51.3881 12.3999 51.4381 12.2999 51.4581 12.1199C51.3881 11.5699 51.3881 10.9099 51.4581 10.3299C51.3581 9.7299 51.5981 8.9199 51.2481 8.4199C50.9881 7.6199 50.0281 7.7199 49.7881 6.9399C49.7881 6.6099 49.7681 6.2899 49.9781 6.0299C50.7181 5.5499 51.6981 5.8799 52.5981 5.7499C53.0481 5.6999 53.5081 5.6999 53.9581 5.7499C54.2181 5.7799 54.4781 6.0799 54.5581 6.3499C54.5781 6.8299 54.5581 7.3299 54.1281 7.6099H54.0981Z"
			fill="black" />
		<path
			d="M67.408 10.2C68.198 11.94 68.238 14.07 68.218 16.16C68.098 17.27 67.908 18.42 67.408 19.43C67.308 20.16 66.838 20.76 66.478 21.39C65.958 22.22 65.168 22.72 64.358 22.97C64.028 23.35 63.568 23.4 63.138 23.47C62.568 23.57 62.038 23.72 61.488 23.75C61.058 23.72 60.608 23.75 60.248 23.65C59.578 23.75 58.888 23.57 58.168 23.65C57.408 23.73 56.588 23.83 55.828 23.73C55.618 23.65 55.418 23.55 55.278 23.35C55.108 22.92 55.228 22.44 55.468 22.14C55.708 21.86 56.138 21.86 56.298 21.49C56.538 21.01 56.398 20.33 56.438 19.78C56.458 19.25 56.388 18.75 56.508 18.3C56.458 17.45 56.408 16.62 56.558 15.79C56.348 14.53 56.438 13.17 56.558 11.89C56.508 10.78 56.348 9.70004 56.438 8.55004C56.388 8.17004 56.388 7.72004 56.028 7.57004C55.698 7.44004 55.408 7.39004 55.268 7.07004C55.148 6.69004 55.128 6.32004 55.408 6.01004C55.838 5.63004 56.438 5.91004 57.008 5.86004C57.728 5.71004 58.368 5.89004 59.088 5.83004C59.348 5.91004 59.688 5.78004 59.968 5.81004C61.898 5.63004 63.618 6.11004 65.048 7.24004C66.118 7.92004 66.888 9.10004 67.388 10.21L67.408 10.2ZM61.038 7.56004C60.938 7.59004 60.798 7.66004 60.798 7.76004C60.728 8.39004 60.728 9.09004 60.778 9.70004C60.728 10.3 60.878 10.86 60.778 11.44C60.778 12.29 60.828 13.12 60.708 14C60.808 14.55 60.708 15.18 60.778 15.74C60.878 16.27 60.518 16.75 60.728 17.27C60.798 17.82 60.608 18.4 60.778 18.93C60.798 19.81 60.588 20.84 60.898 21.62C61.068 21.85 61.278 21.95 61.498 22C62.068 22.1 62.478 21.5 62.738 21.07C63.218 20.16 63.188 19.03 63.378 18C63.398 17.14 63.448 16.37 63.548 15.56C63.408 14.58 63.668 13.55 63.448 12.64C63.468 11.91 63.258 11.33 63.158 10.7C63.108 9.64004 62.868 8.69004 62.038 7.98004C61.748 7.80004 61.418 7.55004 61.038 7.55004V7.56004Z"
			fill="black" />
		<path
			d="M24.2181 26.8001C24.7681 26.8801 25.2481 27.2301 25.7481 27.5001C26.7281 28.2301 27.4681 29.1901 27.4181 30.4901C27.4681 31.5701 27.4381 32.7001 26.8481 33.5601C26.6081 33.8901 26.2781 34.1601 25.9381 34.3601C25.6481 34.4601 25.3681 34.6901 25.1981 34.9601C25.1481 35.1101 25.3181 35.1901 25.4081 35.2601C26.1981 35.7401 27.0281 36.2401 27.5281 37.1001C28.0081 37.9301 28.0781 38.9601 28.0281 40.0201C28.1681 40.4001 27.9281 40.7501 27.8581 41.1301L27.4481 42.1601C26.8081 43.4701 25.4681 43.9201 24.2781 44.3001C23.6581 44.3501 23.0181 44.5001 22.3681 44.3201C21.5381 44.2401 20.7181 44.5201 19.8581 44.4001C19.0681 44.4801 18.2581 44.3501 17.4481 44.3201C16.9481 44.3001 16.2081 44.6001 15.9481 44.0201C15.8481 43.5701 15.8981 43.0601 16.2781 42.8401C16.6081 42.4601 17.3081 42.2601 17.1181 41.5801C17.1881 40.9501 17.1681 40.2201 17.1881 39.5201C17.5181 38.5601 17.0881 37.5801 17.1681 36.5301C17.2181 35.9801 17.0981 35.4001 17.1681 34.8501C17.0281 34.0201 17.2381 33.0901 17.1881 32.2301C17.0681 31.5801 17.3581 30.9201 17.1881 30.3201C17.3081 29.7901 17.0681 29.3601 17.0881 28.8401C16.9181 28.1601 16.0181 28.2901 15.9681 27.5301C15.9181 27.3501 15.9481 27.1301 16.0181 26.9801C16.4981 26.3301 17.3781 26.6501 18.0681 26.5301C18.7881 26.5801 19.5981 26.4301 20.3081 26.6101C21.5981 26.5601 22.9581 26.4601 24.1981 26.8101L24.2181 26.8001ZM22.1881 28.4401C21.9981 28.3901 21.7581 28.3901 21.5681 28.5401C21.4681 28.7701 21.3981 28.9701 21.3981 29.2201C21.5881 30.4801 21.5681 31.9101 21.4681 33.1701C21.4881 33.5201 21.1381 33.9201 21.5381 34.2001C21.7481 34.3001 22.0181 34.1001 22.2581 34.0201C22.4681 33.7401 22.8281 33.6201 22.9481 33.2401C23.1581 32.4601 23.1581 31.5801 23.1881 30.7201C23.1681 30.1401 23.2381 29.4901 22.8281 29.0401C22.6881 28.8101 22.4481 28.5601 22.1881 28.4401ZM22.5181 36.2801C22.2081 36.1501 21.7981 35.8801 21.4881 36.1801L21.4681 37.2101C21.5381 38.1201 21.3281 39.0701 21.4681 39.9801C21.3481 40.8401 21.2281 41.9201 21.8481 42.5501C22.2581 42.8301 22.5881 42.4701 22.8781 42.2501C23.0881 41.8201 23.2581 41.4501 23.3581 41.0201C23.5981 40.0401 23.5281 39.0101 23.4581 38.0301C23.4581 37.4801 23.0981 37.1201 22.9281 36.6701L22.5181 36.2901V36.2801Z"
			fill="black" />
		<path
			d="M41.1382 27.8301C40.8482 28.3601 40.2582 28.1601 39.9882 28.6901C39.4882 29.3901 39.8882 30.3201 39.8182 31.1501C39.8682 32.1301 39.8682 33.0601 39.8182 34.0201C39.8382 35.2501 39.7982 36.5301 39.8182 37.7401C39.6482 38.1901 39.8182 38.6701 39.7482 39.1501C39.8682 40.0301 39.6482 40.8301 39.6082 41.6901C39.3682 42.4201 39.1782 43.1501 38.4582 43.6501C38.1282 44.0801 37.6282 44.1001 37.1682 44.3301C36.4982 44.5301 35.7882 44.5801 35.0882 44.6301C34.6382 44.7101 34.1582 44.7801 33.6782 44.6301C33.2982 44.7101 33.0082 44.4801 32.6782 44.4001C32.1582 44.1001 31.5782 43.9701 31.0982 43.5201C30.5282 42.6101 29.9782 41.7301 30.0682 40.5501C29.8282 39.9201 30.1882 39.2701 30.0682 38.6601C30.1382 38.2801 30.1182 37.8001 30.0882 37.4001C30.3782 36.3201 29.9682 35.0901 30.2082 34.0101C30.0882 33.4801 30.2282 32.9801 30.1382 32.4801C30.2382 31.9001 30.2382 31.2001 30.1382 30.6201C30.1382 30.2201 30.2082 29.8701 30.2082 29.4601C29.9982 29.0601 30.0182 28.4501 29.5682 28.1801C29.3082 28.1001 29.0182 28.0801 28.8982 27.8001C28.7982 27.5201 28.6582 27.1501 28.8282 26.8701C29.3082 26.1701 30.1882 26.5901 30.9282 26.4401C31.5282 26.3101 32.1182 26.5901 32.7382 26.4901C33.1182 26.4101 33.5282 26.4901 33.9282 26.4101C34.4282 26.5101 35.1682 26.1601 35.4082 26.7901C35.5282 27.0401 35.6682 27.3901 35.5082 27.7201C35.2482 28.3501 34.4382 28.2201 34.2882 28.9501C34.2882 30.4101 34.1482 31.8401 34.1882 33.3001C34.2882 33.5801 34.1382 33.8301 34.1882 34.1501C34.4482 35.3601 34.3782 36.6401 34.2882 37.9201C34.2382 38.3201 34.4282 38.8301 34.2682 39.2301C34.2182 39.7801 34.2682 40.3401 34.2882 40.8901C34.2182 41.4901 34.5982 41.9001 34.9582 42.3001C35.2682 42.6001 35.6982 42.6001 36.1282 42.7001C36.6282 42.4501 37.3182 42.5501 37.6082 41.9001C38.0382 41.2001 37.9682 40.2901 38.1082 39.4901C38.1082 38.9101 37.9682 38.3101 38.1082 37.7301C38.0882 36.5001 38.1082 35.2401 38.0382 33.9601C37.9682 32.9301 38.1382 31.8501 38.0382 30.7901C38.1382 30.0601 38.2982 29.2101 38.0382 28.5501C37.7282 28.0701 37.0382 28.3201 36.8682 27.6701C36.7682 27.4201 36.7682 27.1201 36.8682 26.8901C37.1082 26.4601 37.5582 26.5601 37.9382 26.4601C38.3482 26.4601 38.7282 26.4601 39.0882 26.5101C39.8082 26.5601 40.6682 26.0801 41.1182 26.7901C41.2582 27.1201 41.2882 27.5201 41.1182 27.8201L41.1382 27.8301Z"
			fill="black" />
		<path
			d="M48.6282 26.9799C48.7282 27.3599 48.7282 27.7799 48.5082 28.0599C48.1982 28.3899 47.5782 28.3099 47.5282 28.8599C47.3882 29.9699 47.3882 31.0999 47.3882 32.2299C47.5282 33.3099 47.0982 34.2899 47.3182 35.3199C47.2982 36.0199 47.3182 36.6799 47.3882 37.3599C47.4882 38.9699 47.2682 40.5499 47.4582 42.0899C47.7482 42.6199 48.4582 42.6899 48.5282 43.3199C48.5482 43.7499 48.5082 44.1199 48.1682 44.3299C47.6882 44.4799 47.1682 44.3099 46.6382 44.3299C46.0382 44.3299 45.3982 44.4799 44.7782 44.4099C44.0882 44.4099 43.4382 44.3099 42.8182 44.4399C42.4582 44.3599 42.0982 44.3399 41.9382 43.9599C41.8682 43.6099 41.9182 43.2799 42.0782 42.9499C42.3882 42.6199 42.9582 42.4699 43.0582 41.9199C43.2682 41.2899 43.1582 40.5599 43.1582 39.8799C43.0882 39.2799 43.2282 38.6699 43.0882 38.0699C43.2282 37.6399 43.0182 37.1599 43.1082 36.7099C43.0882 34.2999 43.0582 31.8599 43.1082 29.4199C43.0882 28.9699 42.9682 28.5599 42.6082 28.2899C42.2982 28.1599 41.8882 27.8899 41.8182 27.5399C41.7482 27.1399 41.8882 26.7899 42.1982 26.5799C42.7182 26.3799 43.3182 26.5299 43.8682 26.4499H46.4882C47.2082 26.5999 48.2982 26.0199 48.6082 26.9799H48.6282Z"
			fill="black" />
		<path
			d="M55.6782 26.5501C55.8182 26.6001 56.0082 26.7001 56.1082 26.8801C56.2482 27.2301 56.1582 27.6601 55.9382 27.9901C55.7282 28.1901 55.4182 28.2901 55.1482 28.4401C54.7882 28.7701 54.9082 29.3001 54.8182 29.7001C54.7682 30.9101 55.0582 32.1601 54.8182 33.3501C54.9582 33.9501 54.9182 34.5601 54.8182 35.1401C54.7682 36.4001 54.9582 37.6801 54.8882 38.9901C54.9082 39.9201 54.7882 40.8001 54.8882 41.7601C54.9582 42.0401 54.9882 42.3601 55.2682 42.5401C55.5782 42.7201 55.8882 42.4901 56.1082 42.3901C56.7782 41.9901 57.1582 41.2301 57.5682 40.5801C57.7582 40.1501 57.8282 39.5201 58.3582 39.3701C58.8382 39.3701 59.4082 39.0901 59.8182 39.4501C60.2682 40.0001 59.8682 40.7601 59.9182 41.4401C59.8182 42.2701 59.7282 43.1001 59.6282 43.9001C59.5282 44.1001 59.3882 44.3501 59.1782 44.3501L58.8182 44.4301H55.3382C54.5482 44.5101 53.8582 44.3301 53.0682 44.4301C52.7382 44.3301 52.3982 44.5101 52.0682 44.5101C51.3282 44.4301 50.5682 44.4301 49.8482 44.2801C49.6382 44.2001 49.4382 43.9801 49.3982 43.7301C49.3482 43.4001 49.4482 43.1001 49.6882 42.9501C50.1882 42.8201 50.6182 42.3501 50.7382 41.8401C50.7382 40.9901 50.6382 40.1601 50.6682 39.3001C50.6182 38.8501 50.6182 38.4201 50.7382 37.9701C50.7582 37.3201 50.5682 36.6401 50.6882 35.9801C50.5482 35.0801 50.6682 34.0401 50.6182 33.1101C50.5682 32.5301 50.6882 31.9801 50.6182 31.4001C50.6382 30.6201 50.6682 29.6901 50.5482 28.9401C50.4282 28.1901 49.4782 28.4101 49.3982 27.6301C49.3482 27.2801 49.2982 26.8801 49.5682 26.6201C50.1382 26.2701 50.8782 26.5201 51.4982 26.5201C51.8282 26.5201 52.2382 26.4701 52.5982 26.5001C53.5782 26.6301 54.6982 26.3201 55.6982 26.5801L55.6782 26.5501Z"
			fill="black" />
		<path
			d="M10.0581 58.42C10.0581 59.07 10.2481 59.9 9.95813 60.51C9.47813 61.31 8.61812 60.61 7.92812 60.86C7.32812 60.86 6.80813 60.78 6.23812 60.86C5.49812 60.78 4.85812 60.96 4.11812 60.94C3.66812 60.91 3.13813 60.99 2.75813 60.81C2.49813 60.66 2.34812 60.41 2.32812 60.13C2.34812 59.35 2.34812 58.62 2.37812 57.82C2.42812 57.67 2.49812 57.49 2.66812 57.39C3.30812 57.21 4.07812 57.19 4.76813 57.29C5.40812 57.24 6.12813 57.39 6.76813 57.21C7.55813 57.21 8.31812 57.23 9.07812 57.21C9.43813 57.21 9.81812 57.21 9.98812 57.59C10.1581 57.79 10.1081 58.12 10.0581 58.42Z"
			fill="black" />
		<path
			d="M24.0882 51.5599C24.8782 53.2999 24.9182 55.4299 24.8982 57.5199C24.7782 58.6299 24.5882 59.7799 24.0882 60.7899C23.9882 61.5199 23.5182 62.1199 23.1582 62.7499C22.6282 63.5799 21.8482 64.0799 21.0382 64.3299C20.7082 64.7099 20.2482 64.7599 19.8182 64.8299C19.2482 64.9299 18.7182 65.0799 18.1682 65.1099C17.7382 65.0799 17.2882 65.1099 16.9282 65.0099C16.2582 65.1099 15.5682 64.9299 14.8482 65.0099C14.0882 65.0899 13.2782 65.1899 12.5082 65.0899C12.2982 65.0099 12.0982 64.9099 11.9582 64.7099C11.7882 64.2799 11.9082 63.7999 12.1482 63.4999C12.3882 63.2199 12.8182 63.2199 12.9882 62.8499C13.2282 62.3699 13.0882 61.6899 13.1282 61.1399C13.1482 60.6099 13.0782 60.1099 13.1982 59.6599C13.1482 58.8099 13.0982 57.9799 13.2482 57.1499C13.0382 55.8899 13.1282 54.5299 13.2482 53.2499C13.1982 52.1399 13.0382 51.0599 13.1282 49.9099C13.0782 49.5299 13.0782 49.0799 12.7182 48.9299C12.3882 48.7999 12.0982 48.7499 11.9582 48.4299C11.8382 48.0499 11.8182 47.6799 12.0982 47.3699C12.5282 46.9899 13.1282 47.2699 13.6982 47.2199C14.4182 47.0699 15.0582 47.2499 15.7782 47.1899C16.0382 47.2699 16.3782 47.1399 16.6582 47.1699C18.5882 46.9899 20.3082 47.4699 21.7382 48.5999C22.8082 49.2799 23.5782 50.4599 24.0782 51.5699L24.0882 51.5599ZM17.7182 48.9199C17.6182 48.9499 17.4782 49.0199 17.4782 49.1199C17.4082 49.7499 17.4082 50.4499 17.4582 51.0599C17.4082 51.6599 17.5582 52.2199 17.4582 52.7999C17.4582 53.6499 17.5082 54.4799 17.3882 55.3599C17.4882 55.9099 17.3882 56.5399 17.4582 57.0999C17.5582 57.6299 17.1982 58.1099 17.4082 58.6299C17.4782 59.1799 17.2882 59.7599 17.4582 60.2899C17.4782 61.1699 17.2682 62.1999 17.5782 62.9799C17.7482 63.2099 17.9582 63.3099 18.1782 63.3599C18.7482 63.4599 19.1582 62.8599 19.4182 62.4299C19.8982 61.5199 19.8682 60.3899 20.0582 59.3599C20.0782 58.4999 20.1282 57.7299 20.2282 56.9199C20.0882 55.9399 20.3482 54.9099 20.1282 53.9999C20.1482 53.2699 19.9382 52.6899 19.8382 52.0599C19.7882 50.9999 19.5482 50.0499 18.7182 49.3399C18.4282 49.1599 18.0982 48.9099 17.7182 48.9099V48.9199Z"
			fill="black" />
		<path
			d="M32.2781 47.6601C32.3781 48.0401 32.3781 48.4601 32.1581 48.7401C31.8481 49.0701 31.2281 48.9901 31.1781 49.5401C31.0381 50.6501 31.0381 51.7801 31.0381 52.9101C31.1781 53.9901 30.7481 54.9701 30.9681 56.0001C30.9481 56.7001 30.9681 57.3601 31.0381 58.0401C31.1381 59.6501 30.9181 61.2301 31.1081 62.7701C31.3981 63.3001 32.1081 63.3701 32.1781 64.0001C32.1981 64.4301 32.1581 64.8001 31.8181 65.0101C31.3381 65.1601 30.8181 64.9901 30.2881 65.0101C29.6881 65.0101 29.0481 65.1601 28.4281 65.0901C27.7381 65.0901 27.0881 64.9901 26.4681 65.1201C26.1081 65.0401 25.7481 65.0201 25.5881 64.6401C25.5181 64.2901 25.5681 63.9601 25.7281 63.6301C26.0381 63.3001 26.6081 63.1501 26.7081 62.6001C26.9181 61.9701 26.8081 61.2401 26.8081 60.5601C26.7381 59.9601 26.8781 59.3501 26.7381 58.7501C26.8781 58.3201 26.6681 57.8401 26.7581 57.3901C26.7381 54.9801 26.7081 52.5401 26.7581 50.1001C26.7381 49.6501 26.6181 49.2401 26.2581 48.9701C25.9481 48.8401 25.5381 48.5701 25.4681 48.2201C25.3981 47.8201 25.5381 47.4701 25.8481 47.2601C26.3681 47.0601 26.9681 47.2101 27.5181 47.1301H30.1381C30.8581 47.2801 31.9481 46.7001 32.2581 47.6601H32.2781Z"
			fill="black" />
		<path
			d="M45.2182 48.97C44.9282 49.15 44.4282 49.32 44.4082 49.8C44.3382 51.01 44.2382 52.21 44.2682 53.45C44.2482 54.61 44.2482 55.81 44.3182 56.95C44.2482 57.98 44.2682 59.09 44.1782 60.12C44.4382 60.82 44.2482 61.68 44.2482 62.43C44.2682 63.16 44.1782 63.81 44.1782 64.54C44.1782 64.72 43.9682 64.87 43.8182 64.94C43.4382 65.09 42.9382 65.09 42.6282 64.76C41.7182 63.3 40.9382 61.84 40.0482 60.41C39.3582 58.9 38.3982 57.52 37.6882 56.01C37.1382 55.23 36.8482 54.33 36.2282 53.6C36.2082 53.52 36.1582 53.52 36.1082 53.6C35.9382 53.98 36.0082 54.4 35.9382 54.78C35.9882 55.31 36.0082 55.81 36.0382 56.34C36.0382 57.14 36.0182 57.87 35.9882 58.65C35.8682 59.08 35.9682 59.45 35.9882 59.86C35.9682 60.89 35.8482 62.02 36.3682 62.85C36.8482 63.23 37.5582 63.3 37.6782 64.01C37.6782 64.44 37.6282 64.87 37.2282 65.04C36.9682 65.22 36.6582 65.01 36.3682 65.09C35.3182 64.86 34.1682 65.32 33.1982 64.86C32.9082 64.63 32.9082 64.26 32.9882 63.9C33.0582 63.22 33.7982 63.22 34.1082 62.77C34.3982 62.37 34.2982 61.81 34.4182 61.34C34.2982 60.26 34.2482 59.08 34.3982 57.97C34.2582 57.52 34.4682 57.06 34.3282 56.64C34.4682 55.94 34.2082 55.28 34.3082 54.65C34.3782 53.52 34.3782 52.34 34.3082 51.23C34.2582 50.63 34.4282 49.95 33.9982 49.52C33.6882 49.04 32.9482 48.84 32.9682 48.19C32.9182 47.81 32.9682 47.46 33.2782 47.29C33.7582 47.11 34.2782 47.19 34.8282 47.19C35.2582 47.14 35.7582 47.17 36.2382 47.17C36.7382 47.17 37.3582 47.12 37.6982 47.6C38.1982 48.28 38.4582 49.06 38.9882 49.74C39.1982 50.32 39.6582 50.87 39.8982 51.45C40.0682 52.05 40.6182 52.43 40.7582 52.93C41.3082 53.78 41.7382 54.72 42.2182 55.62C42.2882 55.7 42.3382 55.75 42.4582 55.72C42.8682 55.24 42.5782 54.49 42.5082 53.96C42.5082 53.76 42.5582 53.66 42.5782 53.48C42.5082 52.93 42.5082 52.27 42.5782 51.69C42.4782 51.09 42.7182 50.28 42.3682 49.78C42.1082 48.98 41.1482 49.08 40.9082 48.3C40.9082 47.97 40.8882 47.65 41.0982 47.39C41.8382 46.91 42.8182 47.24 43.7182 47.11C44.1682 47.06 44.6282 47.06 45.0782 47.11C45.3382 47.14 45.5982 47.44 45.6782 47.71C45.6982 48.19 45.6782 48.69 45.2482 48.97H45.2182Z"
			fill="black" />
		<path
			d="M57.1681 48.34C57.3381 48.79 57.2381 49.4 57.3381 49.87C57.3581 50.45 57.3881 51 57.2681 51.5C57.2881 51.78 57.3181 52.13 57.1481 52.35C56.8181 52.73 56.1681 52.7 55.7381 52.58C55.2181 52.3 55.4081 51.65 55.1181 51.27C55.0481 50.92 55.2181 50.44 54.8781 50.16C54.4281 49.68 54.1581 48.83 53.4481 48.73C53.1581 48.73 52.8981 48.6 52.6381 48.73C52.1881 48.96 51.6581 49.31 51.4881 49.86C51.1281 50.99 51.1981 52.25 51.0781 53.38C51.1281 53.96 50.9781 54.46 51.0081 55.06C50.9081 55.29 51.0781 55.59 50.9881 55.81C50.9881 56.99 51.0081 58.12 51.1081 59.26C51.1281 59.74 51.0881 60.32 51.2081 60.84C51.2281 61.64 51.7081 62.3 52.0181 62.98C52.3281 63.36 52.8281 63.51 53.2381 63.43C53.3581 63.4 53.4481 63.28 53.4981 63.2C53.5981 61.97 53.6181 60.69 53.5981 59.45V59.35C53.4981 58.82 53.5981 58.17 53.1481 57.82C52.8181 57.64 52.1881 57.47 52.2181 56.94C52.1981 56.51 52.2181 56.01 52.6281 55.78C53.2481 55.63 53.8981 55.8 54.5381 55.68C55.2281 55.91 55.9181 55.71 56.7081 55.78C57.4681 56.01 58.6381 55.48 58.8081 56.61C58.8581 57.01 58.7881 57.47 58.3781 57.64C57.7581 58.02 57.6181 58.77 57.7081 59.5C57.5381 60.08 57.8781 60.56 57.7281 61.13C57.6081 61.48 57.6581 61.88 57.7281 62.29C57.7081 62.74 57.5381 63.27 57.6281 63.77C57.6281 64.68 56.6281 64.52 56.1281 64.98C55.1481 65.06 54.2681 65.46 53.1881 65.43C52.7581 65.28 52.3081 65.48 51.8981 65.28C50.4681 64.98 49.1581 64.43 48.1781 63.12C47.4881 62.09 46.8381 61.03 46.7481 59.73C46.4881 58.95 46.3881 58.02 46.2681 57.11C46.1981 56.38 46.3681 55.7 46.2881 55C46.4781 54.3 46.4081 53.54 46.5781 52.84C46.7481 52.51 46.9381 52.19 46.9381 51.78C47.3881 51.13 47.3481 50.3 47.7981 49.67C48.4181 48.74 49.2981 47.91 50.2781 47.56C51.0681 46.93 52.1181 46.98 53.0681 46.88C53.7381 46.83 54.3381 47.03 54.9781 47.13C55.8181 47.31 56.5581 47.68 57.1781 48.31L57.1681 48.34Z"
			fill="black" />
		<path
			d="M7.04801 28.65C7.24801 29.3 7.52801 29.22 7.72801 29.87C7.85801 30.28 8.21801 30.61 8.56801 30.38C9.11801 30.02 9.02801 29.87 9.57801 29.51C10.098 29.17 10.828 29.8 10.598 30.4C10.348 31.04 10.398 31.05 10.148 31.69C9.98801 32.09 10.148 32.32 10.568 32.38C11.218 32.47 11.178 32.71 11.828 32.8C12.438 32.89 12.578 33.67 12.028 33.97C11.448 34.29 11.458 34.3 10.888 34.63C10.518 34.83 10.528 35.28 10.808 35.61C11.248 36.12 11.258 36.1 11.698 36.61C12.108 37.09 11.618 37.84 11.008 37.7C10.368 37.56 10.318 37.78 9.68801 37.63C9.28801 37.54 8.72801 37.76 8.74801 38.19C8.76801 38.88 9.10801 38.86 9.13801 39.55C9.15801 40.2 8.27801 40.48 7.89801 39.97C7.49801 39.43 7.49801 39.43 7.09801 38.89C6.84801 38.55 6.23801 38.5 5.97801 38.84C5.57801 39.38 5.70801 39.48 5.30801 40.02C4.92801 40.53 4.08801 40.2 4.11801 39.55C4.13801 38.86 4.23801 38.87 4.25801 38.18C4.27801 37.75 3.79801 37.31 3.38801 37.4C2.74801 37.54 2.73801 37.49 2.09801 37.64C1.49801 37.78 1.14801 37.2 1.55801 36.72C1.99801 36.21 2.10801 36.31 2.54801 35.8C2.82801 35.48 2.65801 34.72 2.28801 34.52C1.70801 34.2 1.65801 34.3 1.07801 33.98C0.538013 33.68 0.698013 33.03 1.30801 32.94C1.95801 32.85 1.94801 32.84 2.59801 32.75C3.00801 32.69 3.27801 32.03 3.11801 31.63C2.86801 30.99 2.79801 31.02 2.54801 30.39C2.31801 29.79 3.02801 29.14 3.54801 29.48C4.09801 29.84 4.09801 29.85 4.64801 30.22C4.99801 30.45 5.56801 30.39 5.69801 29.98C5.89801 29.33 5.90801 29.33 6.10801 28.68C6.29801 28.06 6.84801 28.05 7.03801 28.67L7.04801 28.65Z"
			fill="#20201F" />
		<path
			d="M7.04801 28.65C7.24801 29.3 7.52801 29.22 7.72801 29.87C7.85801 30.28 8.21801 30.61 8.56801 30.38C9.11801 30.02 9.02801 29.87 9.57801 29.51C10.098 29.17 10.828 29.8 10.598 30.4C10.348 31.04 10.398 31.05 10.148 31.69C9.98801 32.09 10.148 32.32 10.568 32.38C11.218 32.47 11.178 32.71 11.828 32.8C12.438 32.89 12.578 33.67 12.028 33.97C11.448 34.29 11.458 34.3 10.888 34.63C10.518 34.83 10.528 35.28 10.808 35.61C11.248 36.12 11.258 36.1 11.698 36.61C12.108 37.09 11.618 37.84 11.008 37.7C10.368 37.56 10.318 37.78 9.68801 37.63C9.28801 37.54 8.72801 37.76 8.74801 38.19C8.76801 38.88 9.10801 38.86 9.13801 39.55C9.15801 40.2 8.27801 40.48 7.89801 39.97C7.49801 39.43 7.49801 39.43 7.09801 38.89C6.84801 38.55 6.23801 38.5 5.97801 38.84C5.57801 39.38 5.70801 39.48 5.30801 40.02C4.92801 40.53 4.08801 40.2 4.11801 39.55C4.13801 38.86 4.23801 38.87 4.25801 38.18C4.27801 37.75 3.79801 37.31 3.38801 37.4C2.74801 37.54 2.73801 37.49 2.09801 37.64C1.49801 37.78 1.14801 37.2 1.55801 36.72C1.99801 36.21 2.10801 36.31 2.54801 35.8C2.82801 35.48 2.65801 34.72 2.28801 34.52C1.70801 34.2 1.65801 34.3 1.07801 33.98C0.538013 33.68 0.698013 33.03 1.30801 32.94C1.95801 32.85 1.94801 32.84 2.59801 32.75C3.00801 32.69 3.27801 32.03 3.11801 31.63C2.86801 30.99 2.79801 31.02 2.54801 30.39C2.31801 29.79 3.02801 29.14 3.54801 29.48C4.09801 29.84 4.09801 29.85 4.64801 30.22C4.99801 30.45 5.56801 30.39 5.69801 29.98C5.89801 29.33 5.90801 29.33 6.10801 28.68C6.29801 28.06 6.84801 28.05 7.03801 28.67L7.04801 28.65Z"
			stroke="#20201F" stroke-width="0.86" stroke-linecap="round" stroke-linejoin="round" />
	</g>
	<defs>
		<clipPath id="clip0_34_14206">
			<rect width="68.78" height="70.95" fill="white" transform="translate(0.328125)" />
		</clipPath>
	</defs>
</svg>