<svg width="548" height="168" viewBox="0 0 548 168" fill="none" xmlns="http://www.w3.org/2000/svg">
	<g clip-path="url(#clip0_38_22)">
		<path
			d="M548 160H546.286V154.94H548V160ZM3.71425 160H2V153.403H3.71425V160ZM548 149.281H546.286V142.684H548V149.281ZM3.71425 147.744H2V141.137H3.71425V147.744ZM548 137.015H546.286V130.417H548V137.015ZM3.71425 135.478H2V128.88H3.71425V135.478ZM548 124.758H546.286V118.161H548V124.758ZM3.71425 123.221H2V116.624H3.71425V123.221ZM548 112.492H546.286V105.885H548V112.492ZM3.71425 110.955H2V104.358H3.71425V110.955ZM548 100.236H546.286V93.6386H548V100.236ZM3.71425 98.6988H2V92.0916H3.71425V98.6988ZM548 87.9795H546.286V81.3823H548V87.9795ZM3.71425 86.4325H2V79.8353H3.71425V86.4325ZM548 75.7133H546.286V69.1061H548V75.7133ZM3.71425 74.1763H2V67.5791H3.71425V74.1763ZM548 63.4571H546.286V56.8598H548V63.4571ZM3.71425 61.91H2V55.3028H3.71425V61.91ZM548 51.1908H546.286V44.5936H548V51.1908ZM3.71425 49.6538H2V43.0566H3.71425V49.6538ZM548 38.9346H546.286V32.3373H548V38.9346ZM3.71425 37.3876H2V30.7903H3.71425V37.3876ZM548 26.6683H546.286V20.0611H548V26.6683ZM3.71425 25.1313H2V18.5341H3.71425V25.1313ZM548 14.4121H546.286V7.81486H548V14.4121ZM3.71425 12.8651H2V6.25788H3.71425V12.8651ZM548 2.14584H546.286V1.71667H541.841V0H548.01V2.14584H548ZM536.19 1.71667H529.602V0H536.19V1.71667ZM523.941 1.71667H517.343V0H523.941V1.71667ZM511.702 1.71667H505.114V0H511.702V1.71667ZM499.453 1.71667H492.865V0H499.453V1.71667ZM487.214 1.71667H480.616V0H487.214V1.71667ZM474.965 1.71667H468.377V0H474.965V1.71667ZM462.726 1.71667H456.138V0H462.726V1.71667ZM450.477 1.71667H443.879V0H450.477V1.71667ZM438.238 1.71667H431.65V0H438.238V1.71667ZM425.989 1.71667H419.401V0H425.989V1.71667ZM413.75 1.71667H407.152V0H413.75V1.71667ZM401.501 1.71667H394.913V0H401.501V1.71667ZM389.262 1.71667H382.674V0H389.262V1.71667ZM377.013 1.71667H370.415V0H377.013V1.71667ZM364.774 1.71667H358.176V0H364.774V1.71667ZM352.525 1.71667H345.937V0H352.525V1.71667ZM340.286 1.71667H333.698V0H340.286V1.71667ZM328.037 1.71667H321.439V0H328.037V1.71667ZM315.798 1.71667H309.21V0H315.798V1.71667ZM303.549 1.71667H296.961V0H303.549V1.71667ZM291.31 1.71667H284.712V0H291.31V1.71667ZM279.061 1.71667H272.473V0H279.061V1.71667ZM266.822 1.71667H260.234V0H266.822V1.71667ZM254.583 1.71667H247.986V0H254.583V1.71667ZM242.334 1.71667H235.737V0H242.334V1.71667ZM230.095 1.71667H223.508V0H230.095V1.71667ZM217.847 1.71667H211.259V0H217.847V1.71667ZM205.608 1.71667H199.01V0H205.608V1.71667ZM193.359 1.71667H186.771V0H193.359V1.71667ZM181.12 1.71667H174.532V0H181.12V1.71667ZM168.871 1.71667H162.273V0H168.871V1.71667ZM156.632 1.71667H150.034V0H156.632V1.71667ZM144.383 1.71667H137.795V0H144.383V1.71667ZM132.144 1.71667H125.556V0H132.144V1.71667ZM119.895 1.71667H113.297V0H119.895V1.71667ZM107.656 1.71667H101.068V0H107.656V1.71667ZM95.4069 1.71667H88.819V0H95.4069V1.71667ZM83.1679 1.71667H76.5701V0H83.1679V1.71667ZM70.919 1.71667H64.3311V0H70.919V1.71667ZM58.68 1.71667H52.0921V0H58.68V1.71667ZM46.4311 1.71667H39.8432V0H46.4311V1.71667ZM34.1921 1.71667H27.5942V0H34.1921V1.71667ZM21.9432 1.71667H15.3552V0H21.9432V1.71667ZM9.70418 1.71667H3.10629V0H9.69421V1.71667H9.70418Z"
			fill="black" />
	</g>
	<path
		d="M21.087 165V10.788H53.25L99.471 144.126H100.323L145.479 10.788H177.003V165H158.259V32.088H157.407L110.76 165H88.182L40.683 31.875H39.618V165H21.087ZM204.626 55.944C206.33 46.288 209.241 37.91 213.359 30.81C217.477 23.568 223.157 17.959 230.399 13.983C237.641 10.007 246.658 8.01899 257.45 8.01899C268.384 8.01899 277.259 10.007 284.075 13.983C290.891 17.817 296.145 23.284 299.837 30.384C303.529 37.342 306.014 45.507 307.292 54.879C308.712 64.109 309.422 74.049 309.422 84.699C309.422 101.455 307.86 116.081 304.736 128.577C301.754 140.931 296.287 150.516 288.335 157.332C280.525 164.148 269.378 167.556 254.894 167.556C243.96 167.556 235.014 165.639 228.056 161.805C221.098 157.829 215.702 152.291 211.868 145.191C208.176 137.949 205.549 129.5 203.987 119.844C202.567 110.046 201.857 99.396 201.857 87.894C201.857 76.392 202.78 65.742 204.626 55.944ZM222.305 87.681C222.305 102.307 223.228 114.306 225.074 123.678C227.062 133.05 230.47 140.008 235.298 144.552C240.126 149.096 246.871 151.368 255.533 151.368C268.597 151.368 277.472 146.114 282.158 135.606C286.844 124.956 289.187 108.697 289.187 86.829C289.187 73.197 288.264 61.766 286.418 52.536C284.714 43.164 281.519 36.135 276.833 31.449C272.289 26.763 265.686 24.42 257.024 24.42C243.96 24.42 234.872 29.816 229.76 40.608C224.79 51.258 222.305 66.949 222.305 87.681ZM350.982 165H331.599V10.788H381.441C391.097 10.788 399.049 12.137 405.297 14.835C411.545 17.391 416.444 20.87 419.994 25.272C423.544 29.674 426.029 34.502 427.449 39.756C428.869 45.01 429.579 50.264 429.579 55.518C429.579 67.02 427.307 76.818 422.763 84.912C418.219 93.006 410.835 98.757 400.611 102.165L435.33 165H414.243L381.867 106.212H350.982V165ZM350.982 26.976V90.45H373.773C380.305 90.45 386.198 89.669 391.452 88.107C396.848 86.403 401.179 83.137 404.445 78.309C407.711 73.481 409.344 66.452 409.344 57.222C409.344 48.702 407.853 42.312 404.871 38.052C401.889 33.65 397.416 30.739 391.452 29.319C385.488 27.757 378.033 26.976 369.087 26.976H350.982ZM453.673 10.788H534.187V26.976H473.269V78.522H530.14V94.497H473.269V148.599H537.382V165H453.673V10.788Z"
		fill="black" />
	<defs>
		<clipPath id="clip0_38_22">
			<rect width="546" height="160" fill="white" transform="translate(2)" />
		</clipPath>
	</defs>
</svg>