<svg width="160" height="160" viewBox="0 0 160 160" fill="none" xmlns="http://www.w3.org/2000/svg">
	<path
		d="M128.265 106.63C130.021 109.652 130.409 109.419 132.165 112.452C133.265 114.363 133.354 116.552 133.421 118.463C133.498 120.552 132.832 122.43 131.932 124.23C131.032 126.03 129.865 127.696 128.221 128.896C126.576 130.096 124.732 130.952 122.665 131.219C120.765 131.463 118.843 130.93 116.787 130.141C113.521 128.896 113.321 129.43 110.054 128.185C108.376 127.552 106.721 126.985 105.043 127.074C103.365 127.163 101.609 127.73 100.076 128.508C98.5428 129.285 96.8539 130.13 95.7539 131.496C94.6539 132.863 94.0761 134.574 93.6094 136.319C92.7094 139.696 92.8428 139.73 91.9428 143.108C91.3761 145.241 90.5539 147.174 89.2428 148.585C87.8206 150.108 85.8872 151.052 83.9761 151.685C82.065 152.319 79.965 152.463 77.9428 152.141C75.9205 151.819 73.9761 151.141 72.3317 149.863C70.8205 148.685 69.8872 146.885 68.9872 144.874C67.5539 141.685 67.0205 141.93 65.5872 138.741C64.8539 137.096 63.9317 135.719 62.6872 134.596C61.4428 133.474 60.0872 132.063 58.4539 131.541C56.8205 131.019 54.965 131.33 53.2206 131.508C51.4761 131.685 50.0761 132.441 48.5205 133.341C45.4983 135.096 45.2983 134.741 42.265 136.485C40.3539 137.585 38.3761 137.785 36.4539 137.852C34.365 137.93 32.4872 137.541 30.6872 136.641C28.8872 135.741 27.1428 134.63 25.9428 132.974C24.7428 131.319 23.5094 129.485 23.2539 127.419C23.0094 125.519 23.2539 123.263 24.0428 121.196C25.2872 117.93 25.665 118.074 26.9094 114.808C27.5428 113.13 27.4094 111.441 27.3094 109.763C27.2094 108.085 27.465 106.152 26.6872 104.619C25.9094 103.085 24.4539 101.941 23.0983 100.841C21.7428 99.7409 20.265 99.052 18.5317 98.5854C15.1539 97.6854 15.1761 97.6187 11.7983 96.7187C9.66499 96.152 7.7761 95.2076 6.3761 93.8965C4.85388 92.4743 3.54277 90.6854 2.92055 88.7743C2.29833 86.8631 2.32055 84.6187 2.64277 82.6076C2.96499 80.5965 3.50944 78.4409 4.78721 76.7965C5.96499 75.2854 8.06499 74.6076 10.0761 73.7076C13.265 72.2742 13.1094 71.9298 16.2872 70.4965C17.9317 69.7631 19.2317 68.6409 20.3539 67.3965C21.4761 66.152 22.6094 64.6965 23.1317 63.0631C23.6539 61.4298 23.2983 59.6854 23.1094 57.952C22.9205 56.2187 22.665 54.6631 21.765 53.1076C20.0094 50.0854 19.9761 50.1076 18.2205 47.0854C17.1205 45.1742 17.0428 43.0742 16.9761 41.1631C16.8983 39.0742 17.1428 37.0854 18.0428 35.2854C18.9428 33.4854 20.2539 31.8187 21.9094 30.6187C23.565 29.4187 25.5317 29.0742 27.5983 28.8076C29.4983 28.5631 31.5428 28.2187 33.6094 29.0076C36.8761 30.252 36.8983 30.1854 40.165 31.4298C41.8428 32.0631 43.4983 32.6742 45.1761 32.5742C46.8539 32.4742 48.6317 31.9187 50.1539 31.1409C51.6761 30.3631 53.165 29.3298 54.265 27.9631C55.365 26.5965 55.5317 24.8742 55.9983 23.1409C56.8983 19.7631 57.7761 19.9965 58.6761 16.6187C59.2428 14.4854 59.965 12.7187 61.265 11.3187C62.6872 9.79646 64.2317 8.31869 66.1428 7.69647C68.0539 7.07424 70.2317 7.26313 72.2428 7.57424C74.2539 7.88535 76.0761 8.67424 77.7317 9.95202C79.2428 11.1298 80.4983 12.6631 81.4094 14.6742C82.8428 17.8631 83.065 17.7631 84.4983 20.9409C85.2317 22.5854 86.1539 24.052 87.3983 25.1631C88.6428 26.2742 90.1983 27.3298 91.8317 27.8631C93.465 28.3965 95.2317 28.152 96.9761 27.9631C98.7206 27.7742 100.154 27.2187 101.721 26.3187C104.743 24.5631 104.776 24.6298 107.809 22.8854C109.721 21.7854 111.821 21.152 113.732 21.0742C115.821 20.9965 117.843 21.8187 119.643 22.7298C121.443 23.6409 122.809 25.1742 124.009 26.8187C125.209 28.4631 126.054 30.1965 126.309 32.2743C126.554 34.1742 126.698 36.252 125.921 38.3187C124.676 41.5854 124.076 41.352 122.832 44.6187C122.198 46.2965 122.176 48.1965 122.276 49.8742C122.376 51.552 122.721 53.4631 123.509 54.9854C124.298 56.5076 125.621 57.8298 126.976 58.9187C128.332 60.0076 129.943 60.552 131.687 61.0076C135.065 61.9076 134.932 62.3854 138.309 63.2854C140.443 63.852 142.021 64.8187 143.421 66.1298C144.943 67.552 146.754 68.8742 147.387 70.7742C148.021 72.6742 147.965 74.9631 147.643 76.9742C147.321 78.9854 146.309 80.8298 145.032 82.4742C143.854 83.9854 142.298 85.2965 140.287 86.2076C137.098 87.6409 136.965 87.352 133.787 88.7854C132.143 89.5187 130.554 90.5631 129.432 91.8076C128.309 93.052 128.065 95.0409 127.543 96.6742C127.021 98.3076 126.254 99.9742 126.432 101.708C126.609 103.441 127.354 105.03 128.254 106.585L128.265 106.63Z"
		fill="black" />
	<path
		d="M126.076 107.052C126.932 108.507 127.965 109.796 128.92 111.185C130.232 113.085 130.876 114.885 131.02 117.174C131.276 121.285 129.332 125.752 125.798 128.041C123.92 129.252 121.832 129.841 119.643 129.296C117.698 128.807 115.876 127.952 113.898 127.541C111.92 127.13 110.087 126.296 108.143 125.774C105.709 125.119 103.22 125.319 100.843 126.107C98.8094 126.774 96.676 127.852 94.9983 129.185C93.3205 130.519 92.3982 132.341 91.7205 134.33C90.4983 137.93 90.3094 141.996 88.6094 145.419C86.6983 149.274 81.9983 151.185 77.8427 150.407C75.8316 150.03 73.9316 149.163 72.7538 147.441C71.576 145.719 70.9871 143.73 69.8871 141.985C68.9649 140.53 68.2094 139.063 67.4094 137.519C66.4205 135.607 65.0316 134.141 63.4427 132.719C61.676 131.141 59.8205 129.907 57.4205 129.619C55.0205 129.33 52.4649 129.596 50.276 130.33C48.3205 130.985 46.6427 132.196 44.7871 133.052C43.176 133.796 41.6094 134.719 39.9872 135.419C36.2649 137.041 31.5427 136.007 28.7205 133.13C27.376 131.763 26.0872 129.774 25.7205 127.874C25.2649 125.563 25.8205 123.119 26.7094 120.985C27.3205 119.507 28.1427 118.119 28.7649 116.641C29.7316 114.319 29.8205 112.274 29.7094 109.796C29.6094 107.452 29.7649 105.285 28.3316 103.274C27.1094 101.541 25.2983 99.9853 23.4983 98.8741C20.2316 96.8519 16.1094 96.1519 12.4205 95.1519C8.28715 94.0297 5.12049 90.6075 4.8316 86.2519C4.69827 84.163 5.07604 81.8408 5.80938 79.8741C6.59827 77.763 7.9316 76.8075 9.92049 75.9408C11.6205 75.1964 13.276 74.4297 14.876 73.4964C16.576 72.5075 18.4649 71.8297 20.0649 70.6741C21.6649 69.5186 23.2205 67.7964 24.3205 66.0852C25.6983 63.9519 25.9427 61.7741 25.6538 59.2964C25.3872 56.9964 25.1316 54.7741 23.9983 52.7075C23.2316 51.2964 22.3649 49.9297 21.5427 48.5519C21.0094 47.6519 20.3983 46.763 20.0094 45.7964C19.576 44.7075 19.476 43.4852 19.4094 42.3297C19.2872 40.1075 19.3649 37.8297 20.4538 35.8297C21.4205 34.0408 22.8427 32.2186 24.7538 31.3741C26.6649 30.5297 29.0983 30.2741 31.1316 30.2853C32.9205 30.2853 34.6983 31.263 36.3649 31.863C38.4316 32.6075 40.476 33.5186 42.6205 34.0297C46.9983 35.063 52.0427 33.2519 55.2649 30.2075C56.9094 28.663 57.5983 26.8964 58.1094 24.7408C58.5427 22.9408 59.2427 21.5408 60.0316 19.9075C60.9094 18.0964 61.1538 16.0519 62.076 14.263C62.9983 12.4741 64.576 10.8741 66.2649 9.85192C69.6649 7.79636 74.876 9.47414 77.376 12.2297C78.7649 13.763 79.4316 15.7075 80.376 17.5186C81.1871 19.0741 81.9205 20.663 82.7094 22.2186C84.7871 26.2964 89.0094 29.5853 93.6538 29.9297C95.9316 30.0964 98.4538 29.7853 100.609 29.0519C102.509 28.4075 104.198 27.263 105.954 26.3075C109.432 24.3853 112.898 21.8297 116.987 23.4741C121.076 25.1186 123.676 28.9964 124.076 33.2741C124.287 35.5964 123.854 37.6964 122.732 39.7408C121.887 41.2852 120.987 42.7408 120.42 44.4297C119.02 48.5964 119.943 54.1075 122.709 57.5075C124.076 59.1852 125.843 60.6075 127.809 61.5297C129.776 62.4519 131.765 62.7297 133.676 63.5186C135.376 64.2186 137.176 64.6297 138.876 65.3297C140.576 66.0297 142.054 67.4297 143.42 68.7297C145.009 70.263 145.554 71.9297 145.543 74.1408C145.543 76.5186 144.909 78.6964 143.587 80.6741C142.387 82.463 140.854 83.863 138.887 84.7741C137.42 85.4519 135.887 85.9408 134.376 86.5075C132.365 87.2741 130.354 88.2186 128.687 89.5964C127.02 90.9741 126.198 92.6186 125.643 94.7075C125.087 96.7964 124.12 98.7186 124.076 100.83C124.032 103.052 124.998 105.174 126.076 107.074C127.154 108.974 131.776 108.541 130.465 106.23C129.22 104.041 128.42 101.974 129.143 99.4741C129.443 98.4519 129.843 97.4741 130.12 96.4519C130.398 95.4297 130.576 94.3297 131.143 93.4186C133.165 90.163 137.965 89.4297 141.243 87.9964C145.387 86.1741 148.943 82.5186 149.909 77.9741C150.398 75.7075 150.454 73.0852 149.743 70.863C149.098 68.863 147.643 67.4408 146.109 66.0741C144.454 64.5964 142.843 63.2408 140.765 62.3853C139.02 61.6741 137.187 61.2297 135.432 60.5186C133.454 59.7186 131.209 59.463 129.354 58.3964C127.498 57.3297 125.92 55.4964 125.254 53.5186C124.509 51.3075 124.354 48.5964 124.854 46.3186C125.254 44.4853 126.287 43.0075 127.165 41.3853C129.376 37.2519 129.509 32.1408 127.209 27.9853C124.909 23.8297 121.132 20.863 116.465 19.7297C111.798 18.5964 107.587 20.8075 103.487 23.0741C101.765 24.0297 100.065 25.2075 98.2094 25.8741C96.1983 26.5964 93.4538 26.9186 91.5094 25.9075C87.7982 23.9741 86.5094 20.0297 84.7094 16.5297C83.6983 14.563 82.9094 12.5853 81.4649 10.8741C80.0205 9.16303 77.9983 7.74081 75.8871 6.88525C71.6316 5.15192 66.1094 4.85192 62.2316 7.57414C60.5316 8.76303 58.8316 10.4519 57.8427 12.2852C56.8538 14.1186 56.576 16.3408 55.6205 18.2519C54.776 19.9519 53.976 21.4964 53.5205 23.363C52.9538 25.6741 52.3538 27.2519 50.3649 28.6964C48.6871 29.9186 46.3427 31.0741 44.2205 30.8964C42.0983 30.7186 40.1649 29.6297 38.2649 28.9408C36.3649 28.2519 34.4427 27.3186 32.4427 27.0075C29.976 26.6186 27.2983 27.0075 24.8649 27.4852C20.2983 28.3964 16.676 31.6964 15.2205 36.1297C14.5094 38.3075 14.5649 40.7408 14.7649 42.9964C14.976 45.4297 15.9316 47.3519 17.1538 49.4186C18.0538 50.9297 19.0538 52.4297 19.8316 54.0075C20.3094 54.9741 20.5316 56.0075 20.676 57.0741C20.8649 58.3964 21.1205 59.8075 21.076 61.1408C20.9872 63.4741 19.2649 65.5741 17.6427 67.1186C16.0205 68.663 14.2205 69.263 12.3872 70.2964C10.8427 71.1741 9.29826 71.9964 7.65382 72.6964C5.72049 73.5297 3.77604 74.3964 2.48715 76.1408C-0.0795115 79.6186 -0.690623 85.4741 0.798266 89.463C2.4316 93.8297 6.34271 96.8964 10.7094 98.2075C14.3872 99.3075 18.7538 99.7741 21.8094 102.219C23.6094 103.663 24.8316 104.985 24.9316 107.374C25.0316 109.763 25.3316 112.485 24.3872 114.863C23.7649 116.419 22.8983 117.863 22.2538 119.407C21.2983 121.707 20.7316 124.019 20.8427 126.53C21.0427 130.896 24.4094 135.119 28.076 137.241C32.2538 139.652 37.276 140.363 41.9094 138.796C43.7427 138.174 45.4205 137.052 47.1983 136.274C49.1205 135.419 50.8649 134.052 52.876 133.441C54.7205 132.874 57.2316 132.574 58.8538 133.774C60.476 134.974 61.9538 136.441 62.8871 138.196C63.7538 139.83 64.576 141.407 65.5427 142.985C66.676 144.819 67.3316 146.885 68.576 148.663C71.3983 152.707 76.8094 154.374 81.576 153.996C86.0538 153.641 90.8538 151.419 92.9316 147.252C94.6871 143.73 95.0427 139.696 96.1871 135.963C96.8538 133.752 97.8982 132.052 99.9316 130.885C101.765 129.819 104.009 128.641 106.198 128.852C108.387 129.063 110.487 130.296 112.654 130.774C114.643 131.207 116.487 131.985 118.454 132.519C123.165 133.796 128.32 132.341 131.654 128.741C134.798 125.352 136.12 120.93 135.643 116.396C135.209 112.296 132.443 109.63 130.454 106.252C129.865 105.241 128.487 104.774 127.365 105.007C126.432 105.207 125.465 106.085 126.065 107.107L126.076 107.052Z"
		fill="black" />
	<path
		d="M136.943 107.785C138.698 110.807 140.276 109.885 142.032 112.919C144.954 117.963 142.176 124.13 139.02 127.841C135.865 131.552 131.254 132.585 125.809 130.519C122.543 129.274 122.254 130.03 118.987 128.796C112.12 126.196 104.443 130.419 102.554 137.507C101.654 140.885 100.32 140.53 99.4204 143.908C97.9204 149.541 94.6538 153.93 89.8093 154.319C84.9649 154.708 80.1982 151.285 77.8093 145.963C76.376 142.774 76.0649 142.919 74.6315 139.73C71.6204 133.03 62.5427 128.93 56.1871 132.608C53.1649 134.363 53.7093 135.296 50.6871 137.041C45.6427 139.963 40.5538 139.408 36.8538 136.263C33.1538 133.119 30.2871 127.607 32.3538 122.163C33.5982 118.896 34.4204 119.208 35.6538 115.941C38.2538 109.074 34.4316 101.419 27.3427 99.5297C23.9649 98.6297 23.8427 99.0964 20.4649 98.1964C14.8316 96.6964 13.0982 91.5631 12.7093 86.7297C12.3204 81.8964 12.9427 75.9742 18.2538 73.5853C21.4427 72.1519 21.6093 72.5186 24.7871 71.0853C31.4871 68.0742 35.7649 59.7075 32.0871 53.352C30.3316 50.3297 28.5316 51.3742 26.7871 48.352C23.8649 43.3075 24.0982 36.552 27.2427 32.852C30.3871 29.152 36.8538 28.2742 42.2982 30.352C45.5649 31.5964 45.0871 32.852 48.3538 34.0964C55.2204 36.6964 64.3538 31.8075 66.2538 24.7075C67.1538 21.3297 66.0538 21.0408 66.9538 17.6631C68.4538 12.0297 72.9871 7.05196 77.8315 6.66307C82.676 6.27418 89.5538 9.72973 91.9538 15.0408C93.3871 18.2297 91.876 18.9075 93.3093 22.0964C96.3204 28.7964 103.432 29.9964 109.787 26.3186C112.809 24.5631 114.343 27.2075 117.365 25.4631C122.409 22.5408 127.443 22.1964 131.143 25.3408C134.843 28.4853 137.076 34.1853 134.998 39.6297C133.754 42.8964 133.509 42.8075 132.276 46.0742C129.676 52.9408 133.498 59.6964 140.587 61.5853C143.965 62.4853 144.143 61.8186 147.52 62.7186C153.154 64.2186 156.465 70.2186 156.854 75.0631C157.243 79.9075 155.109 86.7186 149.798 89.1075C146.609 90.5408 145.243 87.5075 142.065 88.9408C135.365 91.952 133.276 101.463 136.943 107.819V107.785Z"
		fill="#F3E7D3" />
	<mask id="mask0_38_1580" style="mask-type:luminance" maskUnits="userSpaceOnUse" x="12" y="6" width="145" height="149">
		<path
			d="M136.943 107.785C138.698 110.807 140.276 109.885 142.032 112.919C144.954 117.963 142.176 124.13 139.02 127.841C135.865 131.552 131.254 132.585 125.809 130.519C122.543 129.274 122.254 130.03 118.987 128.796C112.12 126.196 104.443 130.419 102.554 137.507C101.654 140.885 100.32 140.53 99.4204 143.908C97.9204 149.541 94.6538 153.93 89.8093 154.319C84.9649 154.708 80.1982 151.285 77.8093 145.963C76.376 142.774 76.0649 142.919 74.6315 139.73C71.6204 133.03 62.5427 128.93 56.1871 132.608C53.1649 134.363 53.7093 135.296 50.6871 137.041C45.6427 139.963 40.5538 139.408 36.8538 136.263C33.1538 133.119 30.2871 127.607 32.3538 122.163C33.5982 118.896 34.4204 119.208 35.6538 115.941C38.2538 109.074 34.4316 101.419 27.3427 99.5297C23.9649 98.6297 23.8427 99.0964 20.4649 98.1964C14.8316 96.6964 13.0982 91.5631 12.7093 86.7297C12.3204 81.8964 12.9427 75.9742 18.2538 73.5853C21.4427 72.1519 21.6093 72.5186 24.7871 71.0853C31.4871 68.0742 35.7649 59.7075 32.0871 53.352C30.3316 50.3297 28.5316 51.3742 26.7871 48.352C23.8649 43.3075 24.0982 36.552 27.2427 32.852C30.3871 29.152 36.8538 28.2742 42.2982 30.352C45.5649 31.5964 45.0871 32.852 48.3538 34.0964C55.2204 36.6964 64.3538 31.8075 66.2538 24.7075C67.1538 21.3297 66.0538 21.0408 66.9538 17.6631C68.4538 12.0297 72.9871 7.05196 77.8315 6.66307C82.676 6.27418 89.5538 9.72973 91.9538 15.0408C93.3871 18.2297 91.876 18.9075 93.3093 22.0964C96.3204 28.7964 103.432 29.9964 109.787 26.3186C112.809 24.5631 114.343 27.2075 117.365 25.4631C122.409 22.5408 127.443 22.1964 131.143 25.3408C134.843 28.4853 137.076 34.1853 134.998 39.6297C133.754 42.8964 133.509 42.8075 132.276 46.0742C129.676 52.9408 133.498 59.6964 140.587 61.5853C143.965 62.4853 144.143 61.8186 147.52 62.7186C153.154 64.2186 156.465 70.2186 156.854 75.0631C157.243 79.9075 155.109 86.7186 149.798 89.1075C146.609 90.5408 145.243 87.5075 142.065 88.9408C135.365 91.952 133.276 101.463 136.943 107.819V107.785Z"
			fill="white" />
	</mask>
	<g mask="url(#mask0_38_1580)">
		<path
			d="M158.498 150.052C157.798 150.041 157.232 150.607 157.22 151.319C157.22 151.963 157.865 152.574 158.543 152.574C159.176 152.574 159.687 151.996 159.709 151.274C159.72 150.563 159.232 150.074 158.509 150.052H158.498Z"
			fill="black" stroke="black" stroke-width="0.86" stroke-miterlimit="10" />
		<path
			d="M159.809 145.241C159.821 144.552 159.232 143.952 158.565 143.963C157.932 143.974 157.321 144.63 157.321 145.285C157.321 145.896 158.009 146.541 158.632 146.53C159.254 146.519 159.798 145.919 159.809 145.241Z"
			fill="black" stroke="black" stroke-width="0.86" stroke-miterlimit="10" />
		<path
			d="M155.809 10.841C155.809 10.1854 155.365 9.6743 154.754 9.65208C154.098 9.62986 153.609 10.1299 153.598 10.8299C153.587 11.4965 154.043 11.9854 154.665 11.9965C155.354 12.0187 155.798 11.5521 155.809 10.841Z"
			fill="black" stroke="black" stroke-width="0.86" stroke-miterlimit="10" />
		<path
			d="M154.554 24.163C155.198 24.1519 155.62 23.6853 155.609 22.9964C155.609 22.2964 155.12 21.7964 154.454 21.8297C153.82 21.8519 153.365 22.3853 153.398 23.0853C153.42 23.7519 153.876 24.1741 154.554 24.163Z"
			fill="black" stroke="black" stroke-width="0.86" stroke-miterlimit="10" />
		<path
			d="M153.598 76.8186C152.965 76.8074 152.498 77.2741 152.476 77.9408C152.454 78.6408 152.921 79.163 153.565 79.1741C154.187 79.1741 154.676 78.6852 154.687 78.0408C154.698 77.3186 154.265 76.8297 153.598 76.8186Z"
			fill="black" stroke="black" stroke-width="0.86" stroke-miterlimit="10" />
		<path
			d="M152.154 96.2631C152.131 96.9298 152.565 97.4298 153.198 97.4631C153.843 97.4964 154.343 97.0298 154.365 96.3853C154.398 95.6631 153.965 95.1409 153.32 95.1075C152.676 95.0742 152.165 95.5742 152.143 96.252L152.154 96.2631Z"
			fill="black" stroke="black" stroke-width="0.86" stroke-miterlimit="10" />
		<path
			d="M153.165 103.574C153.831 103.574 154.265 103.141 154.276 102.463C154.276 101.752 153.82 101.241 153.165 101.241C152.498 101.241 152.054 101.719 152.054 102.452C152.054 103.119 152.498 103.574 153.165 103.574Z"
			fill="black" stroke="black" stroke-width="0.86" stroke-miterlimit="10" />
		<path
			d="M155.087 53.5965C155.098 52.8632 154.687 52.3965 153.998 52.3965C153.343 52.3965 152.898 52.8409 152.876 53.5187C152.854 54.1965 153.354 54.7409 153.987 54.7409C154.62 54.7409 155.076 54.2743 155.087 53.5965Z"
			fill="black" stroke="black" stroke-width="0.86" stroke-miterlimit="10" />
		<path
			d="M153.509 82.9519C152.854 82.9297 152.365 83.4297 152.365 84.1408C152.365 84.7852 152.787 85.2519 153.398 85.2852C154.098 85.3186 154.554 84.8741 154.576 84.1408C154.598 83.463 154.154 82.963 153.509 82.9519Z"
			fill="black" stroke="black" stroke-width="0.86" stroke-miterlimit="10" />
		<path
			d="M151.743 120.685C151.72 121.319 152.187 121.874 152.787 121.919C153.387 121.963 153.954 121.407 153.965 120.741C153.976 120.063 153.487 119.53 152.854 119.519C152.265 119.519 151.765 120.03 151.743 120.685Z"
			fill="black" stroke="black" stroke-width="0.86" stroke-miterlimit="10" />
		<path
			d="M153.443 151.219C153.465 150.552 153.009 150.041 152.376 150.007C151.743 149.985 151.22 150.53 151.22 151.207C151.22 151.863 151.687 152.352 152.343 152.352C153.02 152.352 153.42 151.93 153.443 151.207V151.219Z"
			fill="black" stroke="black" stroke-width="0.86" stroke-miterlimit="10" />
		<path
			d="M152.432 143.974C151.809 143.974 151.354 144.452 151.332 145.141C151.309 145.819 151.754 146.296 152.409 146.307C153.087 146.33 153.554 145.841 153.554 145.13C153.554 144.485 153.065 143.985 152.432 143.974Z"
			fill="black" stroke="black" stroke-width="0.86" stroke-miterlimit="10" />
		<path
			d="M153.743 132.874C153.743 132.185 153.32 131.741 152.665 131.719C151.998 131.697 151.531 132.197 151.531 132.897C151.531 133.552 151.987 134.041 152.62 134.052C153.276 134.063 153.743 133.585 153.743 132.863V132.874Z"
			fill="black" stroke="black" stroke-width="0.86" stroke-miterlimit="10" />
		<path
			d="M152.787 125.674C152.12 125.663 151.643 126.152 151.643 126.852C151.643 127.519 152.076 127.996 152.72 128.019C153.376 128.041 153.843 127.563 153.865 126.852C153.876 126.196 153.42 125.685 152.787 125.674Z"
			fill="black" stroke="black" stroke-width="0.86" stroke-miterlimit="10" />
		<path
			d="M154.054 114.585C154.054 113.852 153.654 113.43 152.976 113.43C152.276 113.43 151.832 113.896 151.843 114.63C151.854 115.285 152.354 115.796 152.976 115.774C153.621 115.752 154.065 115.274 154.054 114.596V114.585Z"
			fill="black" stroke="black" stroke-width="0.86" stroke-miterlimit="10" />
		<path
			d="M154.476 90.1631C154.487 89.4964 154.043 89.0186 153.387 88.9964C152.743 88.9742 152.287 89.4297 152.254 90.1297C152.221 90.8297 152.698 91.3297 153.387 91.3297C154.032 91.3297 154.454 90.8853 154.476 90.1631Z"
			fill="black" stroke="black" stroke-width="0.86" stroke-miterlimit="10" />
		<path
			d="M154.776 71.8963C154.776 71.2186 154.354 70.7075 153.754 70.6741C153.076 70.6408 152.565 71.163 152.565 71.8963C152.565 72.5408 153.065 73.0408 153.676 73.0408C154.32 73.0408 154.765 72.5741 154.776 71.8963Z"
			fill="black" stroke="black" stroke-width="0.86" stroke-miterlimit="10" />
		<path
			d="M154.898 65.6743C154.876 65.0299 154.376 64.541 153.743 64.5632C153.109 64.5855 152.643 65.141 152.676 65.841C152.709 66.4743 153.165 66.9077 153.798 66.8966C154.465 66.8966 154.92 66.3855 154.898 65.6743Z"
			fill="black" stroke="black" stroke-width="0.86" stroke-miterlimit="10" />
		<path
			d="M154.643 15.7854C154.021 15.7632 153.543 16.2299 153.509 16.8965C153.476 17.6299 153.898 18.1077 154.576 18.1299C155.243 18.141 155.709 17.6965 155.721 17.041C155.732 16.3188 155.309 15.8299 154.643 15.7965V15.7854Z"
			fill="black" stroke="black" stroke-width="0.86" stroke-miterlimit="10" />
		<path
			d="M155.209 47.4186C155.209 46.7631 154.754 46.2631 154.12 46.252C153.454 46.252 152.987 46.7408 152.987 47.452C152.987 48.1186 153.443 48.5964 154.076 48.6075C154.731 48.6075 155.198 48.1186 155.209 47.4186Z"
			fill="black" stroke="black" stroke-width="0.86" stroke-miterlimit="10" />
		<path
			d="M151.954 108.43C151.932 109.119 152.343 109.596 153.009 109.619C153.698 109.641 154.165 109.174 154.176 108.452C154.187 107.796 153.698 107.274 153.076 107.274C152.432 107.274 151.987 107.73 151.954 108.43Z"
			fill="black" stroke="black" stroke-width="0.86" stroke-miterlimit="10" />
		<path
			d="M154.998 59.752C155.02 59.052 154.554 58.5076 153.909 58.5076C153.298 58.5076 152.809 59.0076 152.787 59.6631C152.765 60.3298 153.209 60.8298 153.843 60.8631C154.465 60.8965 154.976 60.4076 154.998 59.752Z"
			fill="black" stroke="black" stroke-width="0.86" stroke-miterlimit="10" />
		<path
			d="M154.243 42.5519C154.887 42.5408 155.309 42.0741 155.298 41.3741C155.298 40.663 154.832 40.1963 154.143 40.2185C153.498 40.2408 153.054 40.763 153.087 41.4741C153.121 42.1408 153.576 42.563 154.243 42.5519Z"
			fill="black" stroke="black" stroke-width="0.86" stroke-miterlimit="10" />
		<path
			d="M154.332 34.0741C153.698 34.0519 153.187 34.5963 153.187 35.2741C153.187 35.9297 153.598 36.3852 154.221 36.4074C154.887 36.4408 155.365 35.9963 155.398 35.3297C155.432 34.6186 154.987 34.0852 154.332 34.063V34.0741Z"
			fill="black" stroke="black" stroke-width="0.86" stroke-miterlimit="10" />
		<path
			d="M152.543 137.852C151.898 137.852 151.454 138.307 151.443 138.996C151.431 139.674 151.876 140.174 152.509 140.185C153.154 140.196 153.643 139.719 153.654 139.063C153.654 138.33 153.231 137.852 152.543 137.841V137.852Z"
			fill="black" stroke="black" stroke-width="0.86" stroke-miterlimit="10" />
		<path
			d="M154.432 27.9631C153.787 27.9298 153.32 28.3854 153.276 29.0743C153.243 29.7409 153.732 30.2854 154.398 30.2965C155.02 30.3187 155.465 29.8409 155.498 29.1409C155.52 28.4742 155.087 27.9854 154.42 27.9631H154.432Z"
			fill="black" stroke="black" stroke-width="0.86" stroke-miterlimit="10" />
		<path
			d="M149.609 10.7631C149.609 10.0965 149.276 9.71868 148.643 9.69646C147.976 9.67424 147.576 10.0631 147.576 10.7409C147.576 11.3853 147.931 11.7409 148.598 11.752C149.254 11.7631 149.598 11.4298 149.609 10.752V10.7631Z"
			fill="black" stroke="black" stroke-width="0.86" stroke-miterlimit="10" />
		<path
			d="M148.009 48.3521C148.676 48.3521 149.009 48.0187 149.009 47.341C149.009 46.7298 148.609 46.3187 147.998 46.3076C147.365 46.3076 146.943 46.7076 146.954 47.3076C146.965 48.0076 147.309 48.3409 148.02 48.3521H148.009Z"
			fill="black" stroke="black" stroke-width="0.86" stroke-miterlimit="10" />
		<path
			d="M147.209 95.1632C146.532 95.141 146.165 95.4854 146.12 96.1743C146.087 96.7965 146.465 97.1965 147.109 97.2188C147.72 97.241 148.12 96.8965 148.165 96.3076C148.209 95.6188 147.843 95.1743 147.209 95.1521V95.1632Z"
			fill="black" stroke="black" stroke-width="0.86" stroke-miterlimit="10" />
		<path
			d="M147.565 70.7408C146.921 70.7408 146.554 71.1186 146.543 71.752C146.543 72.4297 146.921 72.7964 147.609 72.7853C148.265 72.7853 148.587 72.4297 148.576 71.7409C148.565 71.0742 148.221 70.7297 147.565 70.7297V70.7408Z"
			fill="black" stroke="black" stroke-width="0.86" stroke-miterlimit="10" />
		<path
			d="M146.543 131.763C145.865 131.763 145.498 132.141 145.509 132.841C145.509 133.485 145.854 133.797 146.576 133.808C147.254 133.808 147.554 133.497 147.543 132.785C147.543 132.097 147.209 131.774 146.543 131.774V131.763Z"
			fill="black" stroke="black" stroke-width="0.86" stroke-miterlimit="10" />
		<path
			d="M146.598 125.719C146.009 125.73 145.587 126.13 145.598 126.697C145.598 127.408 145.987 127.785 146.721 127.774C147.354 127.774 147.687 127.385 147.665 126.708C147.643 126.085 147.232 125.708 146.598 125.73V125.719Z"
			fill="black" stroke="black" stroke-width="0.86" stroke-miterlimit="10" />
		<path
			d="M147.976 54.4964C148.554 54.4853 148.898 54.0853 148.887 53.4631C148.865 52.7519 148.498 52.4075 147.809 52.4297C147.165 52.4631 146.832 52.8297 146.854 53.5075C146.865 54.1519 147.276 54.5186 147.976 54.4964Z"
			fill="black" stroke="black" stroke-width="0.86" stroke-miterlimit="10" />
		<path
			d="M148.076 102.374C148.076 101.719 147.654 101.263 147.043 101.274C146.443 101.274 146.02 101.707 146.009 102.307C146.009 102.941 146.431 103.363 147.098 103.363C147.665 103.363 148.076 102.952 148.076 102.374Z"
			fill="black" stroke="black" stroke-width="0.86" stroke-miterlimit="10" />
		<path
			d="M146.254 152.108C146.976 152.108 147.22 151.885 147.232 151.174C147.243 150.452 146.887 150.052 146.243 150.052C145.587 150.052 145.187 150.463 145.198 151.141C145.198 151.796 145.543 152.096 146.254 152.108Z"
			fill="black" stroke="black" stroke-width="0.86" stroke-miterlimit="10" />
		<path
			d="M147.454 138.974C147.454 138.319 147.02 137.852 146.42 137.852C145.798 137.852 145.365 138.319 145.376 138.974C145.376 139.574 145.82 139.952 146.465 139.952C147.087 139.952 147.443 139.597 147.454 138.974Z"
			fill="black" stroke="black" stroke-width="0.86" stroke-miterlimit="10" />
		<path
			d="M148.52 17.8743C149.143 17.8743 149.509 17.5298 149.52 16.9298C149.532 16.2632 149.12 15.8076 148.498 15.8076C147.865 15.8076 147.443 16.2521 147.454 16.9076C147.454 17.5298 147.832 17.8632 148.532 17.8743H148.52Z"
			fill="black" stroke="black" stroke-width="0.86" stroke-miterlimit="10" />
		<path
			d="M148.32 30.0631C148.965 30.0631 149.298 29.7187 149.298 29.0298C149.298 28.3965 148.909 28.0076 148.287 28.0076C147.654 28.0076 147.276 28.3965 147.265 29.0298C147.265 29.7298 147.598 30.0631 148.32 30.0631Z"
			fill="black" stroke="black" stroke-width="0.86" stroke-miterlimit="10" />
		<path
			d="M147.298 91.0853C147.954 91.0853 148.276 90.752 148.276 90.052C148.276 89.4298 147.876 89.0298 147.254 89.0298C146.632 89.0298 146.232 89.4298 146.232 90.052C146.232 90.7631 146.554 91.0742 147.298 91.0853Z"
			fill="black" stroke="black" stroke-width="0.86" stroke-miterlimit="10" />
		<path
			d="M146.865 113.463C146.176 113.452 145.809 113.819 145.821 114.519C145.821 115.141 146.209 115.496 146.865 115.508C147.476 115.508 147.854 115.163 147.865 114.574C147.865 113.852 147.543 113.474 146.876 113.463H146.865Z"
			fill="black" stroke="black" stroke-width="0.86" stroke-miterlimit="10" />
		<path
			d="M146.331 146.074C146.965 146.085 147.32 145.763 147.354 145.152C147.387 144.474 146.987 144.03 146.365 144.019C145.72 144.019 145.309 144.385 145.287 144.996C145.265 145.652 145.665 146.052 146.343 146.074H146.331Z"
			fill="black" stroke="black" stroke-width="0.86" stroke-miterlimit="10" />
		<path
			d="M147.343 85.041C148.009 85.0632 148.376 84.7188 148.387 84.0743C148.398 83.441 148.02 83.0076 147.432 82.9965C146.743 82.9743 146.343 83.3521 146.332 84.0188C146.32 84.641 146.709 85.0188 147.354 85.041H147.343Z"
			fill="black" stroke="black" stroke-width="0.86" stroke-miterlimit="10" />
		<path
			d="M147.676 66.652C148.331 66.6631 148.687 66.3186 148.687 65.652C148.687 65.0297 148.287 64.6075 147.687 64.5964C147.065 64.5853 146.62 64.9964 146.62 65.5853C146.62 66.252 146.998 66.6409 147.687 66.652H147.676Z"
			fill="black" stroke="black" stroke-width="0.86" stroke-miterlimit="10" />
		<path
			d="M149.109 41.3299C149.109 40.6965 148.72 40.2632 148.143 40.2521C147.476 40.2299 147.054 40.641 147.054 41.2854C147.054 41.9187 147.431 42.2965 148.076 42.3076C148.72 42.3299 149.109 41.9521 149.12 41.3299H149.109Z"
			fill="black" stroke="black" stroke-width="0.86" stroke-miterlimit="10" />
		<path
			d="M148.409 21.8519C147.787 21.8519 147.365 22.2519 147.354 22.8742C147.343 23.5075 147.787 23.9519 148.443 23.9408C149.02 23.9408 149.42 23.5186 149.409 22.9186C149.409 22.2853 148.998 21.8519 148.409 21.8408V21.8519Z"
			fill="black" stroke="black" stroke-width="0.86" stroke-miterlimit="10" />
		<path
			d="M146.92 109.374C147.598 109.396 147.932 109.085 147.954 108.419C147.976 107.796 147.587 107.352 146.998 107.341C146.365 107.319 145.92 107.696 145.898 108.296C145.876 108.974 146.232 109.363 146.909 109.385L146.92 109.374Z"
			fill="black" stroke="black" stroke-width="0.86" stroke-miterlimit="10" />
		<path
			d="M147.454 78.8964C148.076 78.9187 148.465 78.5742 148.487 77.9853C148.509 77.3409 148.087 76.8409 147.498 76.8187C146.887 76.7964 146.432 77.252 146.421 77.8853C146.398 78.4964 146.787 78.8631 147.465 78.8853L147.454 78.8964Z"
			fill="black" stroke="black" stroke-width="0.86" stroke-miterlimit="10" />
		<path
			d="M146.798 121.652C147.398 121.652 147.765 121.285 147.765 120.674C147.765 120.074 147.343 119.585 146.798 119.563C146.198 119.541 145.72 120.007 145.698 120.63C145.687 121.241 146.12 121.663 146.798 121.663V121.652Z"
			fill="black" stroke="black" stroke-width="0.86" stroke-miterlimit="10" />
		<path
			d="M147.765 60.6076C148.398 60.6187 148.765 60.2965 148.798 59.6853C148.832 59.0409 148.387 58.552 147.776 58.552C147.154 58.552 146.754 58.9631 146.732 59.5964C146.721 60.2409 147.087 60.5965 147.765 60.6076Z"
			fill="black" stroke="black" stroke-width="0.86" stroke-miterlimit="10" />
		<path
			d="M148.209 36.1631C148.831 36.1631 149.198 35.8298 149.198 35.2186C149.198 34.5409 148.82 34.1187 148.187 34.1187C147.531 34.1187 147.165 34.4964 147.165 35.1853C147.165 35.8187 147.52 36.1409 148.209 36.152V36.1631Z"
			fill="black" stroke="black" stroke-width="0.86" stroke-miterlimit="10" />
		<path
			d="M141.754 114.474C141.776 113.952 141.309 113.474 140.776 113.452C140.265 113.441 139.876 113.841 139.865 114.419C139.865 114.996 140.176 115.33 140.732 115.33C141.276 115.33 141.721 115.119 141.754 114.463V114.474Z"
			fill="black" stroke="black" stroke-width="0.86" stroke-miterlimit="10" />
		<path
			d="M141.809 46.2854C141.321 46.3521 141.032 46.6854 140.987 47.2299C140.954 47.7854 141.365 48.2187 141.887 48.2076C142.465 48.1965 142.876 47.8187 142.876 47.2965C142.876 46.7632 142.409 46.2965 141.798 46.2854H141.809Z"
			fill="black" stroke="black" stroke-width="0.86" stroke-miterlimit="10" />
		<path
			d="M142.476 71.6297C142.476 71.1519 141.954 70.6741 141.432 70.7075C140.954 70.7297 140.554 71.2297 140.576 71.763C140.609 72.3519 140.965 72.6186 141.509 72.6075C142.087 72.5852 142.443 72.2963 142.465 71.6408L142.476 71.6297Z"
			fill="black" stroke="black" stroke-width="0.86" stroke-miterlimit="10" />
		<path
			d="M141.398 76.852C140.898 76.8409 140.487 77.252 140.476 77.8187C140.476 78.3965 140.787 78.6965 141.354 78.7298C141.876 78.7631 142.354 78.3409 142.376 77.8631C142.398 77.3298 141.943 76.8631 141.398 76.852Z"
			fill="black" stroke="black" stroke-width="0.86" stroke-miterlimit="10" />
		<path
			d="M141.82 52.4186C141.32 52.3964 140.909 52.8075 140.898 53.3741C140.898 53.9408 141.165 54.2741 141.743 54.2964C142.298 54.3186 142.754 53.9408 142.776 53.4519C142.798 52.9297 142.343 52.4408 141.809 52.4186H141.82Z"
			fill="black" stroke="black" stroke-width="0.86" stroke-miterlimit="10" />
		<path
			d="M143.087 35.1298C143.087 34.5742 142.654 34.1298 142.109 34.1187C141.587 34.1187 141.209 34.5075 141.198 35.0964C141.198 35.6853 141.532 35.9742 142.087 36.0075C142.643 36.0409 143.087 35.6409 143.098 35.1298H143.087Z"
			fill="black" stroke="black" stroke-width="0.86" stroke-miterlimit="10" />
		<path
			d="M140.376 137.874C139.876 137.852 139.454 138.263 139.443 138.83C139.421 139.419 139.743 139.707 140.298 139.752C140.843 139.796 141.321 139.396 141.343 138.919C141.365 138.407 140.887 137.896 140.387 137.874H140.376Z"
			fill="black" stroke="black" stroke-width="0.86" stroke-miterlimit="10" />
		<path
			d="M139.554 132.763C139.554 133.252 139.854 133.574 140.409 133.63C140.943 133.685 141.42 133.285 141.443 132.785C141.476 132.208 141.02 131.741 140.431 131.741C139.965 131.741 139.576 132.163 139.565 132.763H139.554Z"
			fill="black" stroke="black" stroke-width="0.86" stroke-miterlimit="10" />
		<path
			d="M140.443 125.707C139.965 125.774 139.676 126.107 139.654 126.652C139.632 127.196 140.076 127.652 140.576 127.607C141.132 127.563 141.543 127.319 141.543 126.685C141.543 126.141 141.076 125.696 140.443 125.707Z"
			fill="black" stroke="black" stroke-width="0.86" stroke-miterlimit="10" />
		<path
			d="M141.854 108.285C141.854 107.741 141.387 107.297 140.82 107.341C140.243 107.374 139.976 107.741 139.965 108.285C139.965 108.863 140.343 109.263 140.887 109.219C141.443 109.174 141.832 108.919 141.843 108.285H141.854Z"
			fill="black" stroke="black" stroke-width="0.86" stroke-miterlimit="10" />
		<path
			d="M141.72 58.5521C141.187 58.541 140.776 58.9521 140.787 59.5077C140.798 60.0632 141.087 60.4077 141.654 60.441C142.198 60.4743 142.643 60.0855 142.665 59.5743C142.687 59.041 142.243 58.5521 141.709 58.541L141.72 58.5521Z"
			fill="black" stroke="black" stroke-width="0.86" stroke-miterlimit="10" />
		<path
			d="M139.332 144.997C139.376 145.474 139.587 145.863 140.176 145.908C140.72 145.952 141.187 145.574 141.22 145.074C141.265 144.53 140.854 144.063 140.309 144.019C139.787 143.974 139.365 144.374 139.343 144.997H139.332Z"
			fill="black" stroke="black" stroke-width="0.86" stroke-miterlimit="10" />
		<path
			d="M141.954 102.252C141.954 101.73 141.465 101.274 140.943 101.285C140.454 101.296 140.032 101.763 140.054 102.308C140.076 102.896 140.454 103.152 140.987 103.174C141.498 103.196 141.965 102.752 141.965 102.263L141.954 102.252Z"
			fill="black" stroke="black" stroke-width="0.86" stroke-miterlimit="10" />
		<path
			d="M141.321 82.9852C140.798 82.963 140.354 83.3741 140.365 83.9186C140.365 84.463 140.654 84.8186 141.221 84.8852C141.721 84.9408 142.221 84.4963 142.254 84.0297C142.287 83.4852 141.865 83.0075 141.321 82.9852Z"
			fill="black" stroke="black" stroke-width="0.86" stroke-miterlimit="10" />
		<path
			d="M140.698 119.585C140.176 119.563 139.765 119.963 139.765 120.53C139.765 121.096 140.043 121.43 140.609 121.474C141.132 121.519 141.609 121.108 141.632 120.63C141.665 120.096 141.232 119.608 140.698 119.585Z"
			fill="black" stroke="black" stroke-width="0.86" stroke-miterlimit="10" />
		<path
			d="M143.498 10.6965C143.498 10.1743 143.032 9.67432 142.509 9.67432C142.02 9.67432 141.609 10.1299 141.609 10.6743C141.609 11.2632 141.932 11.5521 142.487 11.5743C143.054 11.5965 143.487 11.2077 143.487 10.6965H143.498Z"
			fill="black" stroke="black" stroke-width="0.86" stroke-miterlimit="10" />
		<path
			d="M143.398 16.8519C143.409 16.2964 142.998 15.8519 142.443 15.8408C141.943 15.8297 141.52 16.2297 141.509 16.7852C141.509 17.363 141.831 17.663 142.376 17.7186C142.887 17.7741 143.387 17.3297 143.398 16.863V16.8519Z"
			fill="black" stroke="black" stroke-width="0.86" stroke-miterlimit="10" />
		<path
			d="M142.565 65.6076C142.587 65.0742 142.143 64.5964 141.598 64.5964C141.009 64.5964 140.743 64.9742 140.676 65.4964C140.609 66.0187 141.043 66.4853 141.554 66.4964C142.12 66.4964 142.543 66.1409 142.565 65.6187V65.6076Z"
			fill="black" stroke="black" stroke-width="0.86" stroke-miterlimit="10" />
		<path
			d="M141.109 95.141C140.621 95.1188 140.187 95.541 140.176 96.0965C140.165 96.6632 140.443 96.9965 141.021 97.0299C141.609 97.0632 142.032 96.7076 142.054 96.1965C142.076 95.6521 141.643 95.1632 141.109 95.141Z"
			fill="black" stroke="black" stroke-width="0.86" stroke-miterlimit="10" />
		<path
			d="M141.387 22.9297C141.432 23.4186 141.743 23.7186 142.298 23.7519C142.832 23.7853 143.298 23.363 143.298 22.863C143.298 22.3408 142.832 21.8741 142.309 21.863C141.809 21.863 141.409 22.2964 141.387 22.9186V22.9297Z"
			fill="black" stroke="black" stroke-width="0.86" stroke-miterlimit="10" />
		<path
			d="M142.009 40.252C141.476 40.252 141.065 40.7075 141.098 41.3075C141.132 41.8631 141.487 42.1075 141.987 42.1408C142.521 42.1853 142.976 41.752 142.987 41.2631C142.987 40.7186 142.554 40.252 142.009 40.252Z"
			fill="black" stroke="black" stroke-width="0.86" stroke-miterlimit="10" />
		<path
			d="M140.098 150.063C139.609 150.063 139.232 150.53 139.254 151.097C139.265 151.619 139.665 152.008 140.176 151.952C140.709 151.897 141.143 151.674 141.132 151.019C141.121 150.474 140.665 150.052 140.109 150.063H140.098Z"
			fill="black" stroke="black" stroke-width="0.86" stroke-miterlimit="10" />
		<path
			d="M142.221 27.9853C141.709 27.963 141.332 28.363 141.309 28.963C141.298 29.5408 141.565 29.8519 142.154 29.863C142.776 29.8741 143.154 29.563 143.176 29.0186C143.198 28.463 142.787 28.0186 142.221 27.9964V27.9853Z"
			fill="black" stroke="black" stroke-width="0.86" stroke-miterlimit="10" />
		<path
			d="M141.165 89.0298C140.643 89.0298 140.265 89.4742 140.276 90.0409C140.298 90.6298 140.632 90.8964 141.198 90.8964C141.809 90.8964 142.165 90.5298 142.143 89.9631C142.121 89.4409 141.676 89.0186 141.165 89.0298Z"
			fill="black" stroke="black" stroke-width="0.86" stroke-miterlimit="10" />
		<path
			d="M136.387 21.8519C135.698 21.8297 135.409 22.1519 135.376 22.6741C135.343 23.2186 135.654 23.5186 136.198 23.5519C136.787 23.5852 137.009 23.2075 137.032 22.6964C137.054 22.1852 136.776 21.8964 136.387 21.8519Z"
			fill="black" stroke="black" stroke-width="0.86" stroke-miterlimit="10" />
		<path
			d="M136.009 46.252C135.176 46.3075 134.932 46.6853 134.965 47.1742C134.998 47.7186 135.365 48.0186 135.943 47.9742C136.532 47.9186 136.709 47.4408 136.598 47.0075C136.52 46.6853 136.154 46.4186 136.009 46.252Z"
			fill="black" stroke="black" stroke-width="0.86" stroke-miterlimit="10" />
		<path
			d="M135.265 28.8298C135.265 29.3298 135.698 29.752 136.187 29.7076C136.698 29.6631 136.932 29.3187 136.932 28.8409C136.932 28.3187 136.687 27.9743 136.109 27.9854C135.565 27.9854 135.287 28.2965 135.254 28.8409L135.265 28.8298Z"
			fill="black" stroke="black" stroke-width="0.86" stroke-miterlimit="10" />
		<path
			d="M135.909 89.8519C135.909 89.3742 135.676 89.063 135.165 89.0075C134.654 88.9519 134.22 89.3408 134.22 89.8519C134.22 90.3964 134.554 90.6853 135.065 90.7186C135.632 90.7519 135.865 90.3964 135.909 89.8519Z"
			fill="black" stroke="black" stroke-width="0.86" stroke-miterlimit="10" />
		<path
			d="M135.576 10.4854C135.565 11.0965 135.92 11.3521 136.409 11.3743C136.931 11.3965 137.243 11.0965 137.243 10.5299C137.243 9.98543 136.965 9.67432 136.42 9.67432C135.876 9.67432 135.609 9.99654 135.576 10.4854Z"
			fill="black" stroke="black" stroke-width="0.86" stroke-miterlimit="10" />
		<path
			d="M135.987 40.2188C135.376 40.2299 135.076 40.5299 135.065 41.0632C135.065 41.6076 135.398 41.9299 135.909 41.9299C136.443 41.9299 136.72 41.5965 136.72 41.041C136.72 40.5076 136.432 40.2521 135.987 40.2188Z"
			fill="black" stroke="black" stroke-width="0.86" stroke-miterlimit="10" />
		<path
			d="M135.643 64.5965C134.909 64.552 134.676 64.9409 134.643 65.4298C134.598 65.9854 134.998 66.2631 135.498 66.2965C136.021 66.3298 136.287 65.9632 136.309 65.4854C136.343 64.952 136.065 64.6298 135.643 64.6076V64.5965Z"
			fill="black" stroke="black" stroke-width="0.86" stroke-miterlimit="10" />
		<path
			d="M135.798 95.9631C135.776 95.4075 135.509 95.1409 134.943 95.1409C134.343 95.1409 134.143 95.5298 134.12 96.0075C134.098 96.552 134.509 96.8298 134.998 96.8409C135.554 96.8631 135.765 96.452 135.798 95.9631Z"
			fill="black" stroke="black" stroke-width="0.86" stroke-miterlimit="10" />
		<path
			d="M134.131 144.008C133.543 144.008 133.32 144.374 133.309 144.874C133.287 145.441 133.687 145.696 134.187 145.708C134.709 145.708 134.965 145.352 134.976 144.863C134.987 144.33 134.709 144.008 134.131 144.008Z"
			fill="black" stroke="black" stroke-width="0.86" stroke-miterlimit="10" />
		<path
			d="M134.809 101.252C134.365 101.252 134.065 101.552 134.043 102.074C134.009 102.607 134.298 102.93 134.843 102.952C135.398 102.974 135.676 102.674 135.698 102.141C135.72 101.596 135.476 101.285 134.809 101.263V101.252Z"
			fill="black" stroke="black" stroke-width="0.86" stroke-miterlimit="10" />
		<path
			d="M135.176 132.585C135.187 132.019 134.898 131.752 134.354 131.741C133.809 131.741 133.52 132.041 133.509 132.574C133.498 133.141 133.854 133.419 134.354 133.43C134.876 133.441 135.176 133.13 135.176 132.574V132.585Z"
			fill="black" stroke="black" stroke-width="0.86" stroke-miterlimit="10" />
		<path
			d="M135.298 126.53C135.243 126.008 135.009 125.696 134.487 125.685C133.976 125.674 133.554 126.096 133.609 126.585C133.676 127.096 133.976 127.396 134.509 127.396C135.132 127.396 135.198 126.941 135.298 126.53Z"
			fill="black" stroke="black" stroke-width="0.86" stroke-miterlimit="10" />
		<path
			d="M133.821 114.363C133.832 114.874 134.209 115.141 134.698 115.152C135.187 115.163 135.476 114.841 135.487 114.33C135.498 113.807 135.298 113.441 134.721 113.43C134.143 113.43 133.854 113.741 133.821 114.363Z"
			fill="black" stroke="black" stroke-width="0.86" stroke-miterlimit="10" />
		<path
			d="M134.82 109.008C135.432 109.008 135.565 108.585 135.587 108.108C135.598 107.597 135.309 107.319 134.798 107.308C134.243 107.308 133.965 107.63 133.92 108.13C133.865 108.608 134.309 109.008 134.832 108.997L134.82 109.008Z"
			fill="black" stroke="black" stroke-width="0.86" stroke-miterlimit="10" />
		<path
			d="M134.876 150.908C134.876 150.33 134.587 150.03 134.043 150.03C133.498 150.03 133.198 150.374 133.198 150.885C133.198 151.419 133.543 151.719 134.054 151.741C134.62 151.763 134.843 151.396 134.876 150.908Z"
			fill="black" stroke="black" stroke-width="0.86" stroke-miterlimit="10" />
		<path
			d="M137.198 16.8632C137.076 16.1521 136.898 15.7521 136.321 15.7743C135.776 15.7965 135.498 16.1299 135.465 16.641C135.432 17.1188 135.932 17.6076 136.387 17.4743C136.721 17.3743 136.987 17.0299 137.198 16.8521V16.8632Z"
			fill="black" stroke="black" stroke-width="0.86" stroke-miterlimit="10" />
		<path
			d="M135.32 78.5408C135.887 78.5186 136.098 78.1519 136.098 77.6519C136.098 77.1742 135.854 76.8075 135.331 76.8186C134.787 76.8186 134.42 77.1297 134.443 77.7075C134.465 78.2297 134.787 78.5075 135.32 78.5519V78.5408Z"
			fill="black" stroke="black" stroke-width="0.86" stroke-miterlimit="10" />
		<path
			d="M134.543 71.5298C134.532 72.0743 134.832 72.3632 135.343 72.3965C135.876 72.4298 136.187 72.141 136.209 71.5854C136.232 71.041 135.965 70.7187 135.421 70.6965C134.876 70.6743 134.587 70.9632 134.543 71.5187V71.5298Z"
			fill="black" stroke="black" stroke-width="0.86" stroke-miterlimit="10" />
		<path
			d="M136.832 35.2187C136.832 34.4187 136.565 34.1075 136.009 34.0964C135.443 34.0853 135.209 34.452 135.132 34.9409C135.076 35.3742 135.609 35.9298 136.054 35.8075C136.387 35.7075 136.654 35.3631 136.821 35.2298L136.832 35.2187Z"
			fill="black" stroke="black" stroke-width="0.86" stroke-miterlimit="10" />
		<path
			d="M136.643 53.4853C136.521 52.7853 136.343 52.4298 135.754 52.4075C135.187 52.3853 134.821 52.7187 134.843 53.2631C134.854 53.8187 135.232 54.152 135.709 54.0964C136.043 54.0631 136.332 53.6964 136.643 53.4853Z"
			fill="black" stroke="black" stroke-width="0.86" stroke-miterlimit="10" />
		<path
			d="M134.187 137.863C133.609 137.907 133.376 138.285 133.409 138.796C133.443 139.341 133.82 139.607 134.343 139.563C134.865 139.519 135.109 139.152 135.076 138.674C135.043 138.163 134.754 137.83 134.187 137.874V137.863Z"
			fill="black" stroke="black" stroke-width="0.86" stroke-miterlimit="10" />
		<path
			d="M134.554 119.585C133.976 119.541 133.732 119.908 133.732 120.419C133.732 120.963 134.076 121.263 134.598 121.263C135.154 121.263 135.387 120.874 135.387 120.352C135.387 119.841 135.109 119.563 134.565 119.585H134.554Z"
			fill="black" stroke="black" stroke-width="0.86" stroke-miterlimit="10" />
		<path
			d="M136.431 59.3297C136.365 58.8408 136.143 58.5519 135.598 58.5408C134.998 58.5297 134.765 58.8963 134.754 59.3852C134.743 59.9185 135.076 60.2297 135.609 60.2297C136.176 60.2297 136.365 59.8297 136.42 59.3297H136.431Z"
			fill="black" stroke="black" stroke-width="0.86" stroke-miterlimit="10" />
		<path
			d="M135.243 82.963C134.643 82.963 134.376 83.2852 134.343 83.7964C134.32 84.3408 134.643 84.6519 135.176 84.663C135.687 84.6741 135.987 84.363 136.009 83.863C136.032 83.3408 135.765 83.0075 135.243 82.9519V82.963Z"
			fill="black" stroke="black" stroke-width="0.86" stroke-miterlimit="10" />
		<path
			d="M128.998 35.0076C129.287 35.2076 129.543 35.5187 129.865 35.5854C130.343 35.6743 130.621 35.341 130.632 34.8632C130.632 34.3854 130.343 34.041 129.887 34.1076C129.576 34.1521 129.298 34.4743 129.009 34.6743C129.009 34.7854 129.009 34.9076 129.009 35.0187L128.998 35.0076Z"
			fill="black" stroke="black" stroke-width="0.86" stroke-miterlimit="10" />
		<path
			d="M127.965 96.0187C128.243 96.2298 128.498 96.5521 128.809 96.6187C129.276 96.7187 129.654 96.3632 129.554 95.9076C129.487 95.5965 129.132 95.1965 128.843 95.141C128.598 95.0965 128.265 95.4854 127.976 95.6854C127.976 95.7965 127.976 95.9076 127.965 96.0187Z"
			fill="black" stroke="black" stroke-width="0.86" stroke-miterlimit="10" />
		<path
			d="M127.754 108.174C128.032 108.396 128.287 108.741 128.598 108.796C129.043 108.874 129.365 108.563 129.387 108.074C129.409 107.585 129.132 107.252 128.665 107.308C128.354 107.352 128.065 107.641 127.765 107.83V108.174H127.754Z"
			fill="black" stroke="black" stroke-width="0.86" stroke-miterlimit="10" />
		<path
			d="M127.954 137.719C127.754 138.008 127.443 138.285 127.387 138.597C127.32 139.03 127.576 139.374 128.098 139.374C128.598 139.374 128.909 139.074 128.843 138.63C128.798 138.308 128.487 138.03 128.287 137.73C128.176 137.73 128.065 137.73 127.943 137.73L127.954 137.719Z"
			fill="black" stroke="black" stroke-width="0.86" stroke-miterlimit="10" />
		<path
			d="M129.421 10.6076C129.709 10.8076 129.987 11.1187 130.298 11.1631C130.765 11.2298 131.032 10.8742 131.032 10.3965C131.032 9.90758 130.709 9.59646 130.265 9.67424C129.954 9.7298 129.687 10.052 129.409 10.2631C129.409 10.3742 129.409 10.4854 129.409 10.5965L129.421 10.6076Z"
			fill="black" stroke="black" stroke-width="0.86" stroke-miterlimit="10" />
		<path
			d="M128.487 53.0964C128.965 53.4631 129.209 53.7964 129.52 53.8631C129.976 53.9742 130.287 53.652 130.309 53.1742C130.343 52.652 129.998 52.3298 129.531 52.3742C129.243 52.4075 128.976 52.7409 128.487 53.0853V53.0964Z"
			fill="black" stroke="black" stroke-width="0.86" stroke-miterlimit="10" />
		<path
			d="M130.409 15.7854C129.621 15.7632 129.432 16.1077 129.432 16.5521C129.432 17.0188 129.676 17.3077 130.187 17.2966C130.676 17.2743 130.998 16.9854 130.909 16.5299C130.843 16.2188 130.521 15.9521 130.409 15.7854Z"
			fill="black" stroke="black" stroke-width="0.86" stroke-miterlimit="10" />
		<path
			d="M127.031 150.919C127.309 151.13 127.576 151.452 127.887 151.519C128.343 151.608 128.654 151.285 128.654 150.808C128.654 150.341 128.398 149.974 127.92 150.052C127.609 150.096 127.32 150.396 127.031 150.585C127.031 150.696 127.031 150.808 127.031 150.919Z"
			fill="black" stroke="black" stroke-width="0.86" stroke-miterlimit="10" />
		<path
			d="M129.198 22.7075C129.476 22.9187 129.731 23.252 130.031 23.3187C130.476 23.4075 130.798 23.1075 130.831 22.6187C130.865 22.1298 130.565 21.7964 130.109 21.8409C129.798 21.8742 129.509 22.1742 129.209 22.352L129.187 22.7075H129.198Z"
			fill="black" stroke="black" stroke-width="0.86" stroke-miterlimit="10" />
		<path
			d="M129.754 27.8408C129.576 28.1408 129.287 28.4297 129.254 28.7519C129.209 29.1964 129.487 29.5075 130.009 29.4742C130.509 29.4408 130.798 29.1297 130.709 28.6964C130.643 28.3853 130.309 28.1186 130.098 27.8408C129.987 27.8408 129.876 27.8408 129.754 27.8408Z"
			fill="black" stroke="black" stroke-width="0.86" stroke-miterlimit="10" />
		<path
			d="M127.565 120.463C127.843 120.663 128.109 120.985 128.42 121.041C128.876 121.119 129.176 120.807 129.187 120.319C129.187 119.83 128.876 119.519 128.443 119.563C128.132 119.596 127.865 119.93 127.576 120.119C127.576 120.23 127.576 120.341 127.576 120.463H127.565Z"
			fill="black" stroke="black" stroke-width="0.86" stroke-miterlimit="10" />
		<path
			d="M128.931 76.6965C128.754 76.9965 128.465 77.2854 128.42 77.5965C128.365 78.041 128.654 78.3632 129.165 78.3299C129.654 78.2965 129.965 77.9965 129.876 77.541C129.809 77.2299 129.487 76.9632 129.276 76.6743C129.165 76.6743 129.043 76.6743 128.931 76.6854V76.6965Z"
			fill="black" stroke="black" stroke-width="0.86" stroke-miterlimit="10" />
		<path
			d="M130.432 47.2521C130.409 46.4966 130.098 46.2743 129.643 46.2632C129.132 46.2521 128.909 46.5743 128.909 47.0299C128.909 47.4854 129.165 47.8632 129.654 47.7632C129.976 47.6965 130.243 47.3854 130.421 47.2521H130.432Z"
			fill="black" stroke="black" stroke-width="0.86" stroke-miterlimit="10" />
		<path
			d="M128.154 125.552C127.954 125.819 127.632 126.074 127.587 126.363C127.509 126.83 127.754 127.208 128.309 127.196C128.787 127.185 129.132 126.908 129.054 126.441C128.998 126.119 128.676 125.852 128.476 125.552C128.365 125.552 128.254 125.552 128.154 125.552Z"
			fill="black" stroke="black" stroke-width="0.86" stroke-miterlimit="10" />
		<path
			d="M128.665 115.052C128.876 114.763 129.198 114.507 129.265 114.196C129.365 113.685 128.965 113.352 128.498 113.43C128.22 113.474 127.865 113.852 127.809 114.141C127.72 114.563 127.998 114.907 128.665 115.052Z"
			fill="black" stroke="black" stroke-width="0.86" stroke-miterlimit="10" />
		<path
			d="M127.854 102.119C128.132 102.33 128.376 102.663 128.687 102.741C129.132 102.841 129.465 102.541 129.487 102.052C129.509 101.574 129.232 101.23 128.776 101.263C128.465 101.297 128.176 101.585 127.876 101.763C127.876 101.874 127.865 101.997 127.854 102.108V102.119Z"
			fill="black" stroke="black" stroke-width="0.86" stroke-miterlimit="10" />
		<path
			d="M128.076 89.9075C128.365 90.1075 128.62 90.4075 128.943 90.4742C129.42 90.5742 129.687 90.2186 129.709 89.7631C129.72 89.2853 129.42 88.952 128.965 89.0075C128.654 89.052 128.376 89.3631 128.087 89.552C128.087 89.6631 128.087 89.7853 128.087 89.8964L128.076 89.9075Z"
			fill="black" stroke="black" stroke-width="0.86" stroke-miterlimit="10" />
		<path
			d="M129.076 70.5742C128.887 70.8631 128.576 71.1409 128.521 71.452C128.443 71.8964 128.743 72.2076 129.243 72.2187C129.743 72.2187 130.054 71.9298 129.987 71.4742C129.943 71.152 129.621 70.8853 129.432 70.5853C129.321 70.5853 129.198 70.5853 129.087 70.5853L129.076 70.5742Z"
			fill="black" stroke="black" stroke-width="0.86" stroke-miterlimit="10" />
		<path
			d="M129.598 64.563C128.809 64.5408 128.62 64.8853 128.62 65.3297C128.62 65.8075 128.865 66.0853 129.365 66.0741C129.854 66.0741 130.165 65.763 130.087 65.3075C130.031 64.9964 129.709 64.7186 129.598 64.563Z"
			fill="black" stroke="black" stroke-width="0.86" stroke-miterlimit="10" />
		<path
			d="M127.143 144.874C127.42 145.074 127.687 145.385 127.998 145.452C128.476 145.563 128.754 145.219 128.765 144.752C128.776 144.274 128.509 143.93 128.043 143.997C127.731 144.041 127.454 144.341 127.165 144.519C127.165 144.641 127.165 144.752 127.154 144.874H127.143Z"
			fill="black" stroke="black" stroke-width="0.86" stroke-miterlimit="10" />
		<path
			d="M128.898 41.1297C129.187 41.3297 129.443 41.6408 129.754 41.7075C130.22 41.7963 130.509 41.463 130.52 40.9852C130.532 40.5075 130.232 40.1741 129.776 40.2297C129.465 40.2741 129.187 40.5963 128.898 40.7852C128.898 40.8963 128.898 41.0075 128.898 41.1297Z"
			fill="black" stroke="black" stroke-width="0.86" stroke-miterlimit="10" />
		<path
			d="M128.865 82.8298C128.676 83.1187 128.387 83.3854 128.332 83.7076C128.254 84.1632 128.543 84.4521 129.054 84.4521C129.554 84.4521 129.854 84.1632 129.787 83.7076C129.732 83.3965 129.421 83.1187 129.221 82.8298C129.109 82.8298 128.987 82.8298 128.876 82.8298H128.865Z"
			fill="black" stroke="black" stroke-width="0.86" stroke-miterlimit="10" />
		<path
			d="M127.343 132.63C127.632 132.83 127.887 133.141 128.198 133.207C128.676 133.307 128.954 132.985 128.965 132.507C128.976 132.03 128.709 131.685 128.232 131.752C127.921 131.796 127.643 132.096 127.343 132.274C127.343 132.396 127.343 132.507 127.343 132.63Z"
			fill="black" stroke="black" stroke-width="0.86" stroke-miterlimit="10" />
		<path
			d="M129.32 58.3853C129.12 58.663 128.798 58.9186 128.732 59.2297C128.643 59.663 128.898 60.0075 129.409 60.0075C129.898 60.0075 130.232 59.7519 130.187 59.2964C130.154 58.9853 129.843 58.6964 129.665 58.3964H129.32V58.3853Z"
			fill="black" stroke="black" stroke-width="0.86" stroke-miterlimit="10" />
		<path
			d="M123.887 71.2297C123.643 71.0408 123.432 70.7297 123.165 70.6742C122.732 70.5853 122.465 70.9408 122.52 71.3297C122.565 71.5853 122.854 71.952 123.076 71.9853C123.309 72.0297 123.598 71.7297 123.865 71.5742C123.865 71.4631 123.876 71.3408 123.887 71.2297Z"
			fill="black" stroke="black" stroke-width="0.86" stroke-miterlimit="10" />
		<path
			d="M122.843 132.196C122.598 132.03 122.309 131.685 122.109 131.73C121.854 131.785 121.487 132.152 121.487 132.385C121.487 132.619 121.865 132.985 122.12 133.03C122.32 133.063 122.598 132.719 122.843 132.541C122.843 132.43 122.843 132.319 122.843 132.208V132.196Z"
			fill="black" stroke="black" stroke-width="0.86" stroke-miterlimit="10" />
		<path
			d="M124.809 16.3187C124.565 16.141 124.343 15.8521 124.065 15.7965C123.643 15.7187 123.365 16.0521 123.443 16.441C123.487 16.6965 123.787 17.041 124.009 17.0743C124.254 17.0965 124.532 16.8076 124.787 16.6521C124.787 16.541 124.798 16.4298 124.809 16.3187Z"
			fill="black" stroke="black" stroke-width="0.86" stroke-miterlimit="10" />
		<path
			d="M123.054 120.041C122.809 119.874 122.554 119.563 122.309 119.574C122.087 119.585 121.687 119.963 121.709 120.141C121.743 120.408 122.032 120.774 122.287 120.841C122.487 120.885 122.787 120.552 123.043 120.385C123.043 120.274 123.043 120.152 123.043 120.041H123.054Z"
			fill="black" stroke="black" stroke-width="0.86" stroke-miterlimit="10" />
		<path
			d="M121.776 95.7854C122.22 96.0965 122.432 96.3743 122.687 96.4187C123.076 96.4743 123.343 96.2409 123.354 95.7854C123.354 95.3409 123.109 95.0743 122.709 95.1298C122.443 95.1743 122.209 95.4632 121.765 95.7854H121.776Z"
			fill="black" stroke="black" stroke-width="0.86" stroke-miterlimit="10" />
		<path
			d="M124.376 40.6964C124.12 40.5298 123.832 40.1853 123.62 40.2298C123.365 40.2853 123.054 40.652 123.02 40.9186C122.998 41.0964 123.387 41.4853 123.62 41.5075C123.854 41.5298 124.12 41.2075 124.365 41.0298C124.365 40.9186 124.365 40.8075 124.365 40.6964H124.376Z"
			fill="black" stroke="black" stroke-width="0.86" stroke-miterlimit="10" />
		<path
			d="M123.676 83.5074C123.443 83.3186 123.187 82.9519 122.965 82.9741C122.72 82.9963 122.365 83.3408 122.32 83.5963C122.287 83.7852 122.631 84.2074 122.854 84.2408C123.087 84.2852 123.376 83.9852 123.643 83.8408C123.643 83.7297 123.665 83.6186 123.665 83.5074H123.676Z"
			fill="black" stroke="black" stroke-width="0.86" stroke-miterlimit="10" />
		<path
			d="M122.443 101.141C122.287 101.385 121.965 101.663 121.998 101.885C122.043 102.152 122.365 102.497 122.609 102.552C122.987 102.63 123.309 102.33 123.209 101.897C123.143 101.619 122.887 101.385 122.72 101.13C122.62 101.13 122.532 101.141 122.432 101.152L122.443 101.141Z"
			fill="black" stroke="black" stroke-width="0.86" stroke-miterlimit="10" />
		<path
			d="M124.909 10.152C124.654 9.98535 124.398 9.67424 124.154 9.68535C123.931 9.69646 123.598 10.0298 123.543 10.2742C123.454 10.6298 123.654 11.0298 124.12 10.9631C124.398 10.9187 124.643 10.6742 124.898 10.5076C124.898 10.3965 124.898 10.2742 124.898 10.1631L124.909 10.152Z"
			fill="black" stroke="black" stroke-width="0.86" stroke-miterlimit="10" />
		<path
			d="M123.776 21.7186C123.62 21.9853 123.332 22.2742 123.354 22.5297C123.376 22.7631 123.732 22.952 123.943 23.1742C124.154 22.9409 124.509 22.7297 124.543 22.4742C124.576 22.2409 124.254 21.9631 124.087 21.7075C123.976 21.7075 123.876 21.7075 123.765 21.7186H123.776Z"
			fill="black" stroke="black" stroke-width="0.86" stroke-miterlimit="10" />
		<path
			d="M122.732 150.574C122.254 150.308 122.009 150.063 121.754 150.041C121.32 149.996 121.132 150.33 121.165 150.741C121.198 151.152 121.443 151.452 121.865 151.33C122.132 151.252 122.332 150.941 122.743 150.574H122.732Z"
			fill="black" stroke="black" stroke-width="0.86" stroke-miterlimit="10" />
		<path
			d="M122.932 28.6298C123.354 28.9521 123.632 29.3076 123.843 29.2743C124.087 29.2298 124.432 28.8409 124.432 28.5965C124.432 28.3854 124.054 28.041 123.787 27.9854C123.598 27.9521 123.332 28.2965 122.92 28.6187L122.932 28.6298Z"
			fill="black" stroke="black" stroke-width="0.86" stroke-miterlimit="10" />
		<path
			d="M122.732 138.341C122.476 138.174 122.209 137.852 121.965 137.874C121.743 137.896 121.387 138.274 121.387 138.496C121.387 138.719 121.732 139.107 121.954 139.13C122.198 139.152 122.476 138.852 122.732 138.685C122.732 138.574 122.732 138.452 122.732 138.341Z"
			fill="black" stroke="black" stroke-width="0.86" stroke-miterlimit="10" />
		<path
			d="M122.876 34.6964C123.22 35.0186 123.409 35.3408 123.654 35.3853C124.076 35.4742 124.354 35.2186 124.387 34.7408C124.409 34.2742 124.109 34.0408 123.743 34.0742C123.487 34.0964 123.265 34.3964 122.876 34.6853V34.6964Z"
			fill="black" stroke="black" stroke-width="0.86" stroke-miterlimit="10" />
		<path
			d="M122.62 46.9742C123.065 47.2742 123.309 47.552 123.554 47.5631C123.998 47.5964 124.276 47.2409 124.132 46.8187C124.054 46.5742 123.698 46.2631 123.487 46.2742C123.243 46.2964 123.02 46.6298 122.609 46.9742H122.62Z"
			fill="black" stroke="black" stroke-width="0.86" stroke-miterlimit="10" />
		<path
			d="M123.454 107.963C122.998 107.641 122.754 107.319 122.498 107.319C122.287 107.319 121.887 107.73 121.92 107.896C121.965 108.163 122.265 108.496 122.52 108.585C122.698 108.641 122.987 108.296 123.454 107.974V107.963Z"
			fill="black" stroke="black" stroke-width="0.86" stroke-miterlimit="10" />
		<path
			d="M124.065 58.9741C123.809 58.8186 123.52 58.5075 123.287 58.5519C123.054 58.5852 122.72 58.9741 122.731 59.1964C122.731 59.4186 123.087 59.8075 123.309 59.8186C123.554 59.8297 123.809 59.5075 124.065 59.3297C124.065 59.2186 124.065 59.0964 124.065 58.9852V58.9741Z"
			fill="black" stroke="black" stroke-width="0.86" stroke-miterlimit="10" />
		<path
			d="M123.554 89.4743C123.298 89.3076 123.032 88.9965 122.787 89.0076C122.576 89.0187 122.198 89.4187 122.22 89.6076C122.254 89.8743 122.565 90.2521 122.798 90.2965C123.009 90.3409 123.287 89.9854 123.543 89.7965C123.543 89.6854 123.543 89.5854 123.543 89.4743H123.554Z"
			fill="black" stroke="black" stroke-width="0.86" stroke-miterlimit="10" />
		<path
			d="M123.098 64.463C122.931 64.7075 122.665 64.9297 122.62 65.1963C122.554 65.5963 122.809 65.9519 123.232 65.863C123.476 65.8186 123.798 65.4852 123.82 65.2519C123.843 65.0075 123.565 64.7186 123.409 64.4519C123.298 64.4519 123.198 64.4519 123.087 64.4519L123.098 64.463Z"
			fill="black" stroke="black" stroke-width="0.86" stroke-miterlimit="10" />
		<path
			d="M122.854 76.7186C122.698 76.9742 122.376 77.2631 122.432 77.4631C122.487 77.7186 122.843 77.9186 123.076 78.1298C123.276 77.9075 123.621 77.6853 123.632 77.4631C123.632 77.2075 123.332 76.952 123.165 76.6853C123.065 76.6853 122.965 76.6964 122.865 76.7075L122.854 76.7186Z"
			fill="black" stroke="black" stroke-width="0.86" stroke-miterlimit="10" />
		<path
			d="M121.465 114.174C121.954 114.441 122.209 114.685 122.465 114.696C122.887 114.708 123.154 114.374 123.009 113.974C122.92 113.73 122.565 113.408 122.354 113.43C122.109 113.452 121.887 113.796 121.465 114.174Z"
			fill="black" stroke="black" stroke-width="0.86" stroke-miterlimit="10" />
		<path
			d="M122.032 125.563C121.876 125.808 121.576 126.074 121.598 126.308C121.621 126.552 121.909 126.93 122.143 126.974C122.509 127.052 122.887 126.808 122.798 126.352C122.743 126.063 122.498 125.819 122.343 125.552H122.032V125.563Z"
			fill="black" stroke="black" stroke-width="0.86" stroke-miterlimit="10" />
		<path
			d="M122.632 144.474C122.376 144.308 122.109 143.996 121.865 144.019C121.643 144.041 121.287 144.419 121.287 144.641C121.287 144.863 121.62 145.241 121.854 145.274C122.087 145.308 122.365 144.996 122.62 144.83C122.62 144.708 122.62 144.596 122.62 144.474H122.632Z"
			fill="black" stroke="black" stroke-width="0.86" stroke-miterlimit="10" />
		<path
			d="M124.187 52.9187C123.943 52.7409 123.721 52.4631 123.443 52.3965C122.987 52.2853 122.754 52.6631 122.821 53.0298C122.865 53.2742 123.165 53.6409 123.387 53.6631C123.632 53.6965 123.909 53.3965 124.176 53.252C124.176 53.1409 124.187 53.0298 124.198 52.9187H124.187Z"
			fill="black" stroke="black" stroke-width="0.86" stroke-miterlimit="10" />
		<path
			d="M116.587 100.93C116.309 101.363 116.043 101.585 116.043 101.819C116.043 101.996 116.354 102.185 116.532 102.363C116.732 102.163 117.021 101.996 117.087 101.763C117.132 101.596 116.854 101.341 116.598 100.93H116.587Z"
			fill="black" stroke="black" stroke-width="0.86" stroke-miterlimit="10" />
		<path
			d="M117.332 10.1632C117.665 10.4743 117.854 10.641 118.043 10.8187C118.243 10.5965 118.509 10.4076 118.62 10.141C118.665 10.041 118.32 9.64097 118.176 9.65208C117.932 9.6743 117.709 9.91875 117.332 10.1521V10.1632Z"
			fill="black" stroke="black" stroke-width="0.86" stroke-miterlimit="10" />
		<path
			d="M117.965 21.5186C117.676 21.9297 117.409 22.1519 117.398 22.3741C117.398 22.563 117.698 22.7519 117.865 22.9519C118.065 22.763 118.376 22.5963 118.432 22.3741C118.476 22.1963 118.209 21.9408 117.965 21.5186Z"
			fill="black" stroke="black" stroke-width="0.86" stroke-miterlimit="10" />
		<path
			d="M116.931 70.5964C116.798 70.8298 116.554 71.0742 116.565 71.2964C116.576 71.4853 116.898 71.6631 117.076 71.8409C117.254 71.6298 117.531 71.4409 117.587 71.1964C117.62 71.0298 117.354 70.7964 117.22 70.5964C117.12 70.5964 117.031 70.5964 116.931 70.5964Z"
			fill="black" stroke="black" stroke-width="0.86" stroke-miterlimit="10" />
		<path
			d="M115.965 131.596C115.809 131.819 115.532 132.041 115.543 132.252C115.543 132.452 115.865 132.641 116.043 132.841C116.232 132.641 116.509 132.474 116.565 132.252C116.609 132.074 116.354 131.83 116.243 131.619C116.154 131.619 116.065 131.619 115.965 131.608V131.596Z"
			fill="black" stroke="black" stroke-width="0.86" stroke-miterlimit="10" />
		<path
			d="M117.254 107.885C116.921 107.597 116.698 107.263 116.543 107.297C116.309 107.341 116.032 107.608 115.954 107.83C115.909 107.963 116.232 108.363 116.398 108.374C116.632 108.374 116.865 108.13 117.265 107.885H117.254Z"
			fill="black" stroke="black" stroke-width="0.86" stroke-miterlimit="10" />
		<path
			d="M118.087 59.0186C117.709 58.7742 117.454 58.4964 117.309 58.5409C117.087 58.6075 116.82 58.8853 116.776 59.1186C116.743 59.252 117.109 59.6297 117.276 59.6075C117.509 59.5853 117.709 59.3075 118.098 59.0186H118.087Z"
			fill="black" stroke="black" stroke-width="0.86" stroke-miterlimit="10" />
		<path
			d="M115.909 143.652C115.609 144.063 115.343 144.285 115.332 144.508C115.32 144.685 115.62 144.885 115.776 145.085C115.976 144.897 116.287 144.741 116.343 144.519C116.387 144.352 116.132 144.085 115.898 143.652H115.909Z"
			fill="black" stroke="black" stroke-width="0.86" stroke-miterlimit="10" />
		<path
			d="M116.754 138.396C116.387 138.119 116.143 137.819 115.987 137.852C115.754 137.919 115.498 138.185 115.431 138.43C115.398 138.563 115.743 138.941 115.909 138.941C116.131 138.941 116.354 138.663 116.743 138.396H116.754Z"
			fill="black" stroke="black" stroke-width="0.86" stroke-miterlimit="10" />
		<path
			d="M116.376 113.096C116.098 113.541 115.843 113.774 115.843 114.008C115.843 114.196 116.154 114.385 116.332 114.574C116.521 114.363 116.809 114.185 116.865 113.941C116.909 113.763 116.632 113.519 116.376 113.096Z"
			fill="black" stroke="black" stroke-width="0.86" stroke-miterlimit="10" />
		<path
			d="M116.309 119.252C116.009 119.674 115.743 119.896 115.743 120.108C115.743 120.296 116.043 120.485 116.209 120.663C116.409 120.474 116.698 120.308 116.765 120.085C116.809 119.93 116.554 119.674 116.309 119.252Z"
			fill="black" stroke="black" stroke-width="0.86" stroke-miterlimit="10" />
		<path
			d="M116.154 125.374C115.887 125.808 115.632 126.041 115.632 126.263C115.632 126.452 115.954 126.63 116.132 126.808C116.32 126.608 116.609 126.43 116.654 126.196C116.687 126.03 116.42 125.785 116.154 125.374Z"
			fill="black" stroke="black" stroke-width="0.86" stroke-miterlimit="10" />
		<path
			d="M115.976 89.4965C116.332 89.7854 116.554 90.0965 116.698 90.0631C116.932 90.0187 117.221 89.7631 117.287 89.5298C117.332 89.3854 117.009 88.9854 116.832 88.9854C116.609 88.9854 116.376 89.2409 115.976 89.4854V89.4965Z"
			fill="black" stroke="black" stroke-width="0.86" stroke-miterlimit="10" />
		<path
			d="M114.943 150.585C115.298 150.852 115.543 151.163 115.698 151.119C115.92 151.052 116.187 150.774 116.243 150.541C116.276 150.385 115.932 149.996 115.787 150.008C115.554 150.03 115.332 150.296 114.954 150.585H114.943Z"
			fill="black" stroke="black" stroke-width="0.86" stroke-miterlimit="10" />
		<path
			d="M116.387 65.0631C116.732 65.352 116.943 65.6742 117.098 65.6409C117.332 65.5964 117.621 65.3409 117.687 65.1187C117.732 64.9853 117.409 64.5742 117.243 64.5742C117.021 64.5742 116.787 64.8187 116.387 65.0631Z"
			fill="black" stroke="black" stroke-width="0.86" stroke-miterlimit="10" />
		<path
			d="M116.598 52.9519C116.954 53.2297 117.209 53.5408 117.354 53.4964C117.587 53.4186 117.854 53.1297 117.887 52.8964C117.909 52.7408 117.565 52.3519 117.409 52.363C117.176 52.3852 116.965 52.663 116.598 52.9408V52.9519Z"
			fill="black" stroke="black" stroke-width="0.86" stroke-miterlimit="10" />
		<path
			d="M116.687 46.7742C117.054 47.0742 117.276 47.3853 117.42 47.3408C117.654 47.2853 117.932 47.0297 117.998 46.7964C118.043 46.663 117.709 46.2853 117.532 46.263C117.32 46.2519 117.087 46.5075 116.676 46.763L116.687 46.7742Z"
			fill="black" stroke="black" stroke-width="0.86" stroke-miterlimit="10" />
		<path
			d="M118.387 40.6964C118.02 40.4519 117.754 40.1631 117.598 40.2186C117.376 40.2964 117.12 40.5853 117.076 40.8297C117.054 40.9631 117.431 41.3297 117.587 41.3186C117.82 41.2964 118.02 41.0075 118.376 40.7075L118.387 40.6964Z"
			fill="black" stroke="black" stroke-width="0.86" stroke-miterlimit="10" />
		<path
			d="M118.598 28.4963C118.231 28.2297 117.987 27.9186 117.843 27.963C117.62 28.0186 117.354 28.2963 117.298 28.5297C117.265 28.663 117.609 29.0408 117.776 29.0408C117.998 29.0408 118.22 28.7741 118.609 28.5075L118.598 28.4963Z"
			fill="black" stroke="black" stroke-width="0.86" stroke-miterlimit="10" />
		<path
			d="M118.054 15.4854C117.765 15.9187 117.509 16.1409 117.498 16.3631C117.498 16.5298 117.809 16.7187 117.976 16.8965C118.165 16.7076 118.454 16.5409 118.521 16.3187C118.565 16.152 118.309 15.9076 118.054 15.4854Z"
			fill="black" stroke="black" stroke-width="0.86" stroke-miterlimit="10" />
		<path
			d="M117.687 33.7853C117.421 34.2297 117.165 34.4631 117.176 34.6853C117.176 34.8631 117.509 35.0408 117.698 35.2075C117.876 34.9964 118.165 34.8186 118.209 34.5742C118.243 34.4075 117.965 34.1853 117.687 33.7742V33.7853Z"
			fill="black" stroke="black" stroke-width="0.86" stroke-miterlimit="10" />
		<path
			d="M117.776 77.3632C117.409 77.0854 117.165 76.7854 117.021 76.8298C116.787 76.8965 116.532 77.1632 116.465 77.3965C116.432 77.5187 116.765 77.9076 116.932 77.8965C117.165 77.8965 117.387 77.6298 117.776 77.3632Z"
			fill="black" stroke="black" stroke-width="0.86" stroke-miterlimit="10" />
		<path
			d="M116.976 82.6298C116.654 83.0409 116.376 83.252 116.365 83.4742C116.354 83.6631 116.654 83.8631 116.82 84.0631C117.02 83.8742 117.331 83.7187 117.398 83.4964C117.454 83.3298 117.209 83.0631 116.987 82.6187L116.976 82.6298Z"
			fill="black" stroke="black" stroke-width="0.86" stroke-miterlimit="10" />
		<path
			d="M116.765 94.8186C116.454 95.2186 116.165 95.4297 116.154 95.6519C116.143 95.8408 116.443 96.0519 116.609 96.2519C116.809 96.0631 117.121 95.9075 117.198 95.6742C117.254 95.5075 116.998 95.2519 116.776 94.8186H116.765Z"
			fill="black" stroke="black" stroke-width="0.86" stroke-miterlimit="10" />
		<path
			d="M109.954 131.485C109.732 131.774 109.498 131.941 109.498 132.119C109.498 132.296 109.721 132.485 109.843 132.663C110.032 132.507 110.354 132.385 110.387 132.196C110.421 132.03 110.165 131.796 109.954 131.474V131.485Z"
			fill="black" stroke="black" stroke-width="0.86" stroke-miterlimit="10" />
		<path
			d="M111.787 15.6077C111.632 15.9188 111.432 16.1188 111.465 16.2854C111.498 16.4521 111.754 16.5632 111.909 16.7077C112.065 16.5299 112.298 16.3521 112.332 16.1521C112.354 16.0299 112.054 15.8632 111.787 15.6077Z"
			fill="black" stroke="black" stroke-width="0.86" stroke-miterlimit="10" />
		<path
			d="M111.998 9.4187C111.787 9.72981 111.565 9.90759 111.565 10.0854C111.565 10.2631 111.787 10.4298 111.92 10.5965C112.109 10.452 112.409 10.3187 112.443 10.1409C112.476 9.96315 112.22 9.75203 111.998 9.4187Z"
			fill="black" stroke="black" stroke-width="0.86" stroke-miterlimit="10" />
		<path
			d="M111.243 52.1743C111.054 52.4854 110.843 52.6854 110.843 52.8854C110.843 53.0299 111.121 53.1743 111.276 53.3188C111.432 53.1521 111.687 52.9965 111.721 52.7965C111.743 52.6632 111.476 52.4632 111.243 52.1743Z"
			fill="black" stroke="black" stroke-width="0.86" stroke-miterlimit="10" />
		<path
			d="M110.354 71.1297C110.587 71.3408 110.776 71.6186 110.898 71.5964C111.098 71.5519 111.265 71.3186 111.443 71.163C111.276 70.9964 111.132 70.7408 110.932 70.6741C110.82 70.6408 110.609 70.9186 110.354 71.1297Z"
			fill="black" stroke="black" stroke-width="0.86" stroke-miterlimit="10" />
		<path
			d="M111.198 95.5965C110.932 95.3743 110.754 95.1076 110.598 95.1187C110.409 95.141 110.165 95.3743 110.109 95.5632C110.076 95.6854 110.365 96.0298 110.487 96.0298C110.698 96.0187 110.887 95.7965 111.187 95.5965H111.198Z"
			fill="black" stroke="black" stroke-width="0.86" stroke-miterlimit="10" />
		<path
			d="M109.832 137.663C109.632 137.93 109.398 138.108 109.398 138.274C109.398 138.441 109.643 138.608 109.776 138.763C109.954 138.608 110.22 138.474 110.287 138.274C110.32 138.152 110.054 137.93 109.843 137.652L109.832 137.663Z"
			fill="black" stroke="black" stroke-width="0.86" stroke-miterlimit="10" />
		<path
			d="M111.354 40.1408C111.243 40.3186 111.02 40.5186 111.043 40.6852C111.065 40.8519 111.32 40.9963 111.465 41.1519C111.631 40.9741 111.898 40.8186 111.931 40.6186C111.965 40.4297 111.765 40.1963 111.665 39.9741C111.554 40.0297 111.454 40.0852 111.343 40.1408H111.354Z"
			fill="black" stroke="black" stroke-width="0.86" stroke-miterlimit="10" />
		<path
			d="M111.32 46.0742C111.143 46.3631 110.931 46.552 110.943 46.7187C110.954 46.8742 111.276 47.1631 111.354 47.1298C111.554 47.052 111.787 46.8409 111.82 46.652C111.843 46.5187 111.554 46.3298 111.32 46.0742Z"
			fill="black" stroke="black" stroke-width="0.86" stroke-miterlimit="10" />
		<path
			d="M110.809 76.6299C110.631 76.9188 110.409 77.1077 110.431 77.2854C110.454 77.4521 110.698 77.5965 110.854 77.7521C111.02 77.5743 111.276 77.4188 111.309 77.2188C111.331 77.0854 111.043 76.8965 110.809 76.6299Z"
			fill="black" stroke="black" stroke-width="0.86" stroke-miterlimit="10" />
		<path
			d="M110.021 125.452C109.809 125.752 109.576 125.952 109.609 126.096C109.643 126.274 109.876 126.507 110.054 126.541C110.176 126.563 110.498 126.274 110.487 126.141C110.465 125.941 110.243 125.752 110.032 125.452H110.021Z"
			fill="black" stroke="black" stroke-width="0.86" stroke-miterlimit="10" />
		<path
			d="M109.709 143.808C109.521 144.063 109.276 144.241 109.287 144.397C109.287 144.563 109.543 144.719 109.676 144.885C109.854 144.73 110.109 144.597 110.176 144.397C110.209 144.285 109.932 144.074 109.709 143.808Z"
			fill="black" stroke="black" stroke-width="0.86" stroke-miterlimit="10" />
		<path
			d="M110.243 113.23C110.032 113.496 109.798 113.674 109.798 113.841C109.798 113.996 110.054 114.163 110.187 114.319C110.365 114.163 110.632 114.03 110.676 113.841C110.709 113.708 110.443 113.496 110.232 113.23H110.243Z"
			fill="black" stroke="black" stroke-width="0.86" stroke-miterlimit="10" />
		<path
			d="M110.487 101.03C110.254 101.319 109.998 101.496 110.02 101.641C110.043 101.83 110.287 101.996 110.432 102.163C110.598 102.019 110.887 101.885 110.898 101.741C110.898 101.552 110.687 101.352 110.487 101.03Z"
			fill="black" stroke="black" stroke-width="0.86" stroke-miterlimit="10" />
		<path
			d="M110.62 88.8186C110.432 89.0964 110.198 89.2853 110.22 89.4408C110.243 89.6075 110.487 89.7519 110.643 89.9075C110.809 89.7408 111.054 89.5964 111.109 89.3964C111.143 89.2853 110.854 89.0853 110.632 88.8186H110.62Z"
			fill="black" stroke="black" stroke-width="0.86" stroke-miterlimit="10" />
		<path
			d="M111.743 21.6409C111.565 21.9298 111.343 22.1186 111.354 22.2853C111.354 22.4409 111.62 22.5853 111.765 22.7409C111.931 22.5742 112.187 22.4186 112.22 22.2298C112.243 22.0964 111.965 21.8964 111.731 21.6409H111.743Z"
			fill="black" stroke="black" stroke-width="0.86" stroke-miterlimit="10" />
		<path
			d="M111.065 64.3853C110.865 64.6408 110.632 64.8186 110.632 64.9741C110.632 65.1519 110.876 65.3075 111.02 65.4741C111.198 65.3186 111.454 65.1853 111.52 64.9853C111.554 64.863 111.276 64.6519 111.065 64.3853Z"
			fill="black" stroke="black" stroke-width="0.86" stroke-miterlimit="10" />
		<path
			d="M111.709 27.741C111.487 28.0299 111.232 28.2076 111.254 28.3521C111.287 28.541 111.532 28.7076 111.676 28.8743C111.843 28.7299 112.132 28.5854 112.132 28.441C112.132 28.241 111.909 28.0521 111.709 27.741Z"
			fill="black" stroke="black" stroke-width="0.86" stroke-miterlimit="10" />
		<path
			d="M111.476 33.8742C111.321 34.2186 111.143 34.4408 111.165 34.6297C111.187 34.7742 111.554 35.0186 111.621 34.9741C111.809 34.863 112.009 34.6297 112.021 34.4297C112.021 34.2964 111.743 34.1297 111.465 33.863L111.476 33.8742Z"
			fill="black" stroke="black" stroke-width="0.86" stroke-miterlimit="10" />
		<path
			d="M111.387 83.363C111.109 83.1742 110.898 82.9408 110.754 82.9742C110.576 83.0186 110.454 83.2853 110.309 83.4519C110.476 83.5853 110.643 83.8297 110.798 83.8186C110.976 83.8186 111.132 83.5742 111.398 83.363H111.387Z"
			fill="black" stroke="black" stroke-width="0.86" stroke-miterlimit="10" />
		<path
			d="M110.343 107.063C110.132 107.374 109.92 107.552 109.932 107.73C109.932 107.885 110.187 108.163 110.32 108.152C110.498 108.152 110.809 107.907 110.798 107.785C110.776 107.574 110.565 107.385 110.343 107.063Z"
			fill="black" stroke="black" stroke-width="0.86" stroke-miterlimit="10" />
		<path
			d="M110.154 119.363C109.954 119.619 109.709 119.796 109.721 119.952C109.721 120.13 109.954 120.296 110.087 120.463C110.265 120.307 110.543 120.185 110.598 119.996C110.632 119.874 110.365 119.652 110.154 119.363Z"
			fill="black" stroke="black" stroke-width="0.86" stroke-miterlimit="10" />
		<path
			d="M110.254 150.507C109.998 150.285 109.832 150.052 109.665 150.041C109.498 150.041 109.32 150.274 109.154 150.396C109.309 150.574 109.432 150.852 109.62 150.907C109.754 150.952 109.976 150.696 110.265 150.507H110.254Z"
			fill="black" stroke="black" stroke-width="0.86" stroke-miterlimit="10" />
		<path
			d="M110.531 58.9408C110.798 59.1519 110.987 59.4075 111.12 59.3741C111.32 59.3297 111.476 59.0963 111.643 58.9408C111.487 58.7852 111.343 58.5408 111.165 58.5186C111.009 58.4963 110.82 58.7297 110.531 58.9408Z"
			fill="black" stroke="black" stroke-width="0.86" stroke-miterlimit="10" />
	</g>
	<path
		d="M134.809 108.174C135.665 109.63 136.698 110.918 137.654 112.307C138.965 114.207 139.609 116.007 139.754 118.296C140.009 122.407 138.065 126.874 134.532 129.163C132.654 130.374 130.565 130.963 128.376 130.418C126.432 129.93 124.609 129.074 122.632 128.663C120.654 128.252 118.821 127.418 116.876 126.896C114.443 126.241 111.954 126.441 109.576 127.23C107.543 127.896 105.409 128.974 103.732 130.307C102.054 131.641 101.132 133.463 100.454 135.452C99.2317 139.052 99.0428 143.118 97.3428 146.541C95.4316 150.396 90.7317 152.307 86.5761 151.53C84.565 151.152 82.665 150.285 81.4872 148.563C80.3094 146.841 79.7205 144.852 78.6205 143.107C77.6983 141.652 76.9428 140.185 76.1428 138.641C75.1539 136.73 73.765 135.263 72.1761 133.841C70.4094 132.263 68.5539 131.03 66.1539 130.741C63.7539 130.452 61.1983 130.718 59.0094 131.452C57.0539 132.107 55.3761 133.318 53.5205 134.174C51.9094 134.918 50.3428 135.841 48.7206 136.541C44.9983 138.163 40.2761 137.13 37.4539 134.252C36.1094 132.885 34.8205 130.896 34.4539 128.996C33.9983 126.685 34.5539 124.241 35.4428 122.107C36.0539 120.63 36.8761 119.241 37.4983 117.763C38.465 115.441 38.5539 113.396 38.4428 110.918C38.3428 108.574 38.4983 106.407 37.065 104.396C35.8428 102.663 34.0317 101.107 32.2317 99.9962C28.965 97.974 24.8428 97.274 21.1539 96.274C17.0206 95.1518 13.8539 91.7295 13.565 87.374C13.4317 85.2851 13.8094 82.9629 14.5428 80.9962C15.3317 78.8851 16.665 77.9295 18.6539 77.0629C20.3539 76.3184 22.0094 75.5518 23.6094 74.6184C25.3094 73.6295 27.1983 72.9518 28.7983 71.7962C30.3983 70.6407 31.9539 68.9184 33.0539 67.2073C34.4317 65.074 34.6761 62.8962 34.3872 60.4184C34.1206 58.1184 33.865 55.8962 32.7317 53.8295C31.965 52.4184 31.0983 51.0518 30.2761 49.674C29.7428 48.774 29.1317 47.8851 28.7428 46.9184C28.3094 45.8295 28.2094 44.6073 28.1428 43.4518C28.0205 41.2295 28.0983 38.9518 29.1872 36.9518C30.1539 35.1629 31.5761 33.3407 33.4872 32.4962C35.3983 31.6518 37.8317 31.3962 39.865 31.4073C41.6539 31.4073 43.4317 32.3851 45.0983 32.9851C47.165 33.7295 49.2094 34.6407 51.3539 35.1518C55.7317 36.1851 60.7761 34.374 63.9983 31.3295C65.6428 29.7851 66.3317 28.0184 66.8428 25.8629C67.2761 24.0629 67.9761 22.6629 68.765 21.0295C69.6428 19.2184 69.8872 17.174 70.8094 15.3851C71.7317 13.5962 73.3094 11.9962 74.9983 10.974C78.3983 8.91844 83.6094 10.5962 86.1094 13.3518C87.4983 14.8851 88.165 16.8295 89.1094 18.6407C89.9205 20.1962 90.6539 21.7851 91.4428 23.3407C93.5205 27.4184 97.7428 30.7073 102.387 31.0518C104.665 31.2184 107.187 30.9073 109.343 30.174C111.243 29.5295 112.932 28.3851 114.687 27.4295C118.165 25.5073 121.632 22.9518 125.721 24.5962C129.809 26.2407 132.409 30.1184 132.809 34.3962C133.021 36.7184 132.587 38.8184 131.465 40.8629C130.621 42.4073 129.721 43.8629 129.154 45.5518C127.754 49.7184 128.676 55.2295 131.443 58.6295C132.809 60.3073 134.576 61.7295 136.543 62.6518C138.509 63.574 140.498 63.8518 142.409 64.6407C144.109 65.3407 145.909 65.7518 147.609 66.4518C149.309 67.1518 150.787 68.5518 152.154 69.8518C153.743 71.3851 154.287 73.0518 154.276 75.2629C154.276 77.6406 153.643 79.8184 152.321 81.7962C151.121 83.5851 149.587 84.9851 147.621 85.8962C146.154 86.574 144.621 87.0629 143.109 87.6295C141.098 88.3962 139.087 89.3407 137.421 90.7184C135.754 92.0962 134.932 93.7407 134.376 95.8295C133.821 97.9184 132.854 99.8406 132.809 101.952C132.765 104.174 133.732 106.296 134.809 108.196C135.887 110.096 140.509 109.663 139.198 107.352C137.954 105.163 137.154 103.096 137.876 100.596C138.176 99.574 138.576 98.5962 138.854 97.574C139.132 96.5518 139.309 95.4518 139.876 94.5406C141.898 91.2851 146.698 90.5518 149.976 89.1184C154.121 87.2962 157.676 83.6407 158.643 79.0962C159.132 76.8295 159.187 74.2073 158.476 71.9851C157.832 69.9851 156.376 68.5629 154.843 67.1962C153.187 65.7184 151.576 64.3629 149.498 63.5073C147.754 62.7962 145.921 62.3518 144.165 61.6406C142.187 60.8406 139.943 60.5851 138.087 59.5184C136.232 58.4518 134.654 56.6184 133.987 54.6407C133.243 52.4295 133.087 49.7184 133.587 47.4407C133.987 45.6073 135.021 44.1295 135.898 42.5073C138.109 38.374 138.243 33.2629 135.943 29.1073C133.643 24.9518 129.865 21.9851 125.198 20.8518C120.532 19.7184 116.321 21.9295 112.221 24.1962C110.498 25.1518 108.798 26.3295 106.943 26.9962C104.932 27.7184 102.187 28.0407 100.243 27.0295C96.5316 25.0962 95.2428 21.1518 93.4428 17.6518C92.4317 15.6851 91.6428 13.7073 90.1983 11.9962C88.7539 10.2851 86.7317 8.86288 84.6205 8.00732C80.365 6.27399 74.8428 5.97399 70.965 8.69621C69.265 9.8851 67.565 11.574 66.5761 13.4073C65.5872 15.2407 65.3094 17.4629 64.3539 19.374C63.5094 21.074 62.7094 22.6184 62.2539 24.4851C61.6872 26.7962 61.0872 28.374 59.0983 29.8184C57.4205 31.0407 55.0761 32.1962 52.9539 32.0184C50.8317 31.8407 48.8983 30.7518 46.9983 30.0629C45.0983 29.374 43.1761 28.4407 41.1761 28.1295C38.7094 27.7407 36.0317 28.1295 33.5983 28.6073C29.0317 29.5184 25.4094 32.8184 23.9539 37.2518C23.2428 39.4295 23.2983 41.8629 23.4983 44.1184C23.7094 46.5518 24.665 48.474 25.8872 50.5406C26.7872 52.0518 27.7872 53.5518 28.565 55.1295C29.0428 56.0962 29.265 57.1295 29.4094 58.1962C29.5983 59.5184 29.8539 60.9295 29.8094 62.2629C29.7205 64.5962 27.9983 66.6962 26.3761 68.2407C24.7539 69.7851 22.9539 70.3851 21.1206 71.4184C19.5761 72.2962 18.0317 73.1184 16.3872 73.8184C14.4539 74.6518 12.5094 75.5184 11.2206 77.2629C8.65389 80.7407 8.04278 86.5962 9.53166 90.5851C11.165 94.9518 15.0761 98.0184 19.4428 99.3295C23.1206 100.43 27.4872 100.896 30.5428 103.341C32.3428 104.785 33.565 106.107 33.665 108.496C33.765 110.885 34.065 113.607 33.1206 115.985C32.4983 117.541 31.6317 118.985 30.9872 120.53C30.0317 122.83 29.465 125.141 29.5761 127.652C29.7761 132.018 33.1428 136.241 36.8094 138.363C40.9872 140.774 46.0094 141.485 50.6428 139.918C52.4761 139.296 54.1539 138.174 55.9317 137.396C57.8539 136.541 59.5983 135.174 61.6094 134.563C63.4539 133.996 65.965 133.696 67.5872 134.896C69.2094 136.096 70.6872 137.563 71.6205 139.318C72.4872 140.952 73.3094 142.53 74.2761 144.107C75.4094 145.941 76.065 148.007 77.3094 149.785C80.1317 153.83 85.5428 155.496 90.3094 155.118C94.7872 154.763 99.5872 152.541 101.665 148.374C103.421 144.852 103.776 140.818 104.921 137.085C105.587 134.874 106.632 133.174 108.665 132.007C110.498 130.941 112.743 129.763 114.932 129.974C117.121 130.185 119.221 131.418 121.387 131.896C123.376 132.33 125.221 133.107 127.187 133.641C131.898 134.918 137.054 133.463 140.387 129.863C143.532 126.474 144.854 122.052 144.376 117.518C143.943 113.418 141.176 110.752 139.187 107.374C138.598 106.363 137.221 105.896 136.098 106.13C135.165 106.33 134.198 107.207 134.798 108.23L134.809 108.174Z"
		fill="black" />
	<path
		d="M91.2872 83.8963C90.7538 85.5296 89.8094 87.1296 88.6538 88.3963C88.2205 88.863 87.7316 89.3074 87.1872 89.6408C87.1872 89.6408 86.5316 89.9741 86.7538 89.8963C87.065 89.7963 86.9872 89.9296 86.5872 89.8408C85.0427 89.5185 83.6872 89.0741 82.4205 88.1074C77.9539 84.6741 77.065 77.8296 79.5872 72.9963C81.1872 69.9296 84.0094 67.663 87.265 66.5408C90.5205 65.4185 94.1761 65.863 97.2983 67.4296C104.109 70.8519 107.887 78.5963 107.098 86.0741C106.176 94.763 98.7094 103.052 90.4316 105.585C83.665 107.663 75.7983 104.874 70.9539 99.9519C67.565 96.5074 65.3427 91.7852 63.9983 87.2074C62.3872 81.7074 62.0205 75.6963 63.7094 70.1741C65.8205 63.263 70.8427 57.8519 76.9427 54.1408C83.0427 50.4296 90.2539 47.8296 97.6539 49.5074C111.054 52.5296 119.821 65.7074 121.465 78.7408C123.487 94.7296 114.676 110.219 100.398 117.507C86.8983 124.396 70.7427 119.807 60.1427 109.741C54.6539 104.53 50.6205 97.8074 48.765 90.4519C46.6983 82.263 47.465 73.4852 50.4094 65.5963C54.5316 54.5519 63.2427 45.5185 73.8983 40.6185C74.0316 40.563 74.165 40.4963 74.2983 40.4408C74.5539 40.3185 73.865 40.6185 74.2872 40.4408C74.4983 40.3519 74.6983 40.2741 74.9094 40.1852C75.0761 40.1185 75.2316 40.063 75.3983 39.9963C75.965 39.7963 76.8316 39.3963 76.065 38.963C75.2983 38.5296 73.5427 39.1519 72.8094 39.3963C69.865 40.4185 67.0539 42.0074 64.4316 43.6741C58.6872 47.3296 53.6427 52.1852 49.9539 57.9185C45.1094 65.4519 42.5316 74.6963 42.9316 83.6519C43.2983 91.9519 46.4094 99.9296 51.5427 106.441C56.6761 112.952 63.3427 117.641 71.0205 120.285C79.1205 123.074 87.9983 123.085 96.2094 120.719C113.076 115.874 126.376 100.641 126.465 82.7408C126.532 68.3296 118.054 53.2185 103.854 48.6408C95.7538 46.0296 87.0761 47.5852 79.4205 50.8963C71.765 54.2074 64.1983 59.4408 60.4761 67.2852C55.5316 77.7074 58.1316 91.263 65.4205 100.007C77.8094 114.863 104.376 107.007 110.643 90.0185C113.509 82.2296 111.221 73.1408 104.621 67.963C97.5538 62.4296 86.8316 63.5408 79.6872 68.4185C74.2205 72.1519 71.8205 79.3519 74.8205 85.4296C76.1872 88.1852 78.5094 90.2185 81.4761 91.0519C85.3316 92.1296 90.1094 90.963 92.9205 88.1074C94.2316 86.7741 95.2983 85.063 95.8761 83.2741C96.1205 82.5074 91.6316 82.7963 91.2872 83.8741V83.8963Z"
		fill="black" />
</svg>