<svg width="102" height="61" viewBox="0 0 102 61" fill="none" xmlns="http://www.w3.org/2000/svg">
<g clip-path="url(#clip0_65_2424)">
<path d="M38.0485 42.8396L37.5017 42.4237L36.9665 41.8808L36.1848 41.746L35.6919 41.1376L35.0373 40.7872L34.3442 40.5138L33.6626 40.225L33.1042 39.7167L32.5035 39.2777L31.718 39.166L31.0942 38.7694L30.532 38.2573L29.8581 37.9492L29.1342 37.7374L28.5374 37.2831L27.825 37.0482L27.1319 36.7825L26.5851 36.2126L25.9035 35.9161L25.1295 35.8352L24.421 35.6196L23.7587 35.2923L23.1156 34.8687L22.3339 34.9342L21.6408 34.6261L20.8707 34.6184L20.397 35.1922L19.9927 35.7967L20.0851 36.5129L20.2238 37.1945L20.6974 37.7066L21.1672 38.1764L21.6023 38.7078L22.2223 39.0043L22.873 39.4625L22.2569 38.8503L21.4945 38.6308L20.9246 38.1418L20.3816 37.6104L19.7617 37.1907L19.0262 36.9519L18.4987 36.3782L17.8171 36.0624L17.1702 35.6735L16.3885 35.6042L15.7262 35.2692L14.9984 35.1575L14.4901 35.5695L14.2668 36.1779L14.5094 36.7979L14.7096 37.5103L15.3026 37.9338L15.7223 38.5384L16.4463 38.7694L17.0393 39.1545L17.6554 39.4972L17.0431 39.1583L16.3538 38.9735L15.6492 38.8272L15.01 38.5576L14.5094 37.9646L13.8432 37.7374L13.127 37.6643L12.4416 37.6219L11.8447 37.6681L11.8139 38.3073L12.0603 38.9196L12.2067 39.6435L12.7227 40.1672L12.0372 39.8746L11.3095 39.9015L10.6048 39.8746L9.94248 39.4818L9.2224 39.7321L8.50618 39.4279L7.83231 39.7475L7.23161 40.0825L6.54234 40.2866L6.12646 40.895L6.21503 41.6035L6.29204 42.3467L6.84269 42.8434L7.51271 43.1053L8.19812 43.2709L8.83734 43.5366L9.49195 43.7791L10.1928 43.8369L10.9783 44.0448L10.2005 44.3606L9.68833 44.865L9.50735 45.5928L9.15309 46.2166L9.28016 46.9367L9.93092 47.291L10.6394 47.2602L11.3518 47.2717L12.0372 47.0676L12.7535 47.006L13.5043 47.0715L14.1936 46.8712L14.8636 46.5978L15.5144 46.2667L16.1613 45.9394L16.8929 45.8739L17.717 45.5967L16.9276 45.9625L16.4193 46.49L15.6954 46.6672L15.2179 47.2293L14.6518 47.6529L14.0665 48.0534L13.4119 48.3884L13.1193 49.0931L12.4223 49.4512L12.3029 50.1867L12.534 50.7643L12.9691 51.2803L13.693 51.3804L14.417 51.3342L15.137 51.2648L15.7878 50.899L16.454 50.641L17.1471 50.4793L17.8171 50.229L18.4717 49.9402L19.1687 49.7708L19.7886 49.3896L20.5665 49.405L21.1133 48.862L21.9065 48.8967L22.3609 48.4115L21.8526 48.8736L21.3174 49.4473L20.5665 49.7169L20.0043 50.2521L19.4151 50.745L18.8144 51.2186L18.2907 51.777L17.8556 52.3815L17.7093 52.963L18.3446 53.1863L19.0147 52.9091L19.7386 52.6742L20.2161 52.0735L20.6974 51.6114L20.2161 52.0581L19.6731 52.5433L19.2418 53.1401L18.9684 53.8486L18.3369 54.2761L18.0943 54.9769L17.8826 55.6469L17.5552 56.3015L17.7285 57.0717L18.4448 57.4028L19.1841 57.2873L19.8926 57.3027L20.578 57.0755L21.3174 57.037L21.9181 56.5749L22.7151 56.6019L23.3621 56.2707L24.0552 55.7971L23.4006 56.3362L23.0039 56.9638L22.7113 57.6416L22.3031 58.2615L22.099 59.0355L22.5727 59.7248L23.339 59.694L23.8472 59.1972L24.5365 58.893L24.8523 58.2307L25.2989 57.6916L25.7649 57.1564L26.2077 56.6096L26.5658 55.9973L27.0009 55.439L27.3783 54.8421L27.54 54.1182L27.9829 53.6215L28.0021 54.3261L27.6324 55.0308L27.7826 55.7817L27.7865 56.521L27.8635 57.2834L28.4757 57.7609L29.2151 57.8264L29.9082 57.5029L30.2085 56.7752L30.6321 56.1976L31.3214 55.7894L31.4754 55.0154L31.9644 54.4609L32.234 53.7716L32.7577 53.2325L33.1196 52.5933L33.4393 51.9349L33.6626 51.2302L34.2941 50.7373L34.3904 49.9595L34.6907 49.2933L35.0527 48.6541L35.6457 48.1381L35.6688 47.3256L36.077 46.7134L36.3273 46.0202L36.901 45.4888L37.3092 44.8727L37.5441 44.1681L37.6557 43.4056L38.0485 42.8396Z" fill="#626D2F"/>
<path d="M38.4493 42.1042C38.3184 42.004 38.0912 41.7422 37.9333 41.7114C37.8563 41.696 38.1374 41.9232 38.0373 41.8192C38.0026 41.7846 37.9718 41.7537 37.9372 41.7191C37.8332 41.6151 37.7292 41.5073 37.6252 41.4033C37.1901 40.9644 36.7588 40.9259 36.1812 40.8257L36.7588 41.1838C36.6048 40.9952 36.4546 40.7988 36.2929 40.6139C36.0657 40.356 35.7808 40.2212 35.4881 40.0633C35.0915 39.8515 34.6641 39.7052 34.2521 39.5319C34.229 39.5204 33.8785 39.3933 33.8824 39.374C33.8824 39.3471 34.1365 39.5935 34.0018 39.4318C33.9517 39.3702 33.8785 39.3201 33.8208 39.2662C33.6552 39.116 33.4973 38.9736 33.3164 38.8426C33.0507 38.6501 32.7965 38.4229 32.4692 38.3536C32.2228 38.3035 31.9648 38.2843 31.7145 38.2496L32.1188 38.4383C31.9109 38.3035 31.6875 38.1842 31.4911 38.034C31.2293 37.8338 31.0329 37.5642 30.7364 37.4063C30.2281 37.1329 29.6775 36.9828 29.1268 36.821L29.5311 37.0097C29.1692 36.7363 28.8611 36.4706 28.426 36.332C28.0563 36.2126 27.6982 36.074 27.3363 35.9354L27.7059 36.228C27.5288 36.0432 27.3555 35.8584 27.1784 35.6774C26.9088 35.404 26.6239 35.2923 26.2812 35.1421C25.8345 34.9458 25.357 34.992 24.8988 34.8495C24.7563 34.8071 24.61 34.7648 24.4675 34.7186C24.3366 34.6762 24.6716 34.8418 24.5753 34.7455C24.5368 34.707 24.4598 34.6878 24.4136 34.6647C24.2904 34.6031 24.1441 34.4991 24.0093 34.4683C23.8476 34.4259 24.2403 34.63 24.1094 34.5337C24.0478 34.4875 23.9785 34.449 23.9169 34.4067C23.5934 34.1949 23.2931 33.9407 22.8849 33.9523C22.6307 33.96 22.3728 33.9946 22.1186 34.0178L22.5422 34.0871C22.2187 33.9446 21.8837 33.7444 21.5295 33.7097C21.2176 33.6789 20.7362 33.6173 20.4513 33.7598C20.1663 33.9022 19.9314 34.2911 19.7389 34.5414C19.5464 34.7917 19.2691 35.1152 19.1921 35.4348C19.1151 35.7544 19.2345 36.2742 19.2884 36.6131C19.3538 36.9943 19.4077 37.4487 19.6503 37.7606C19.8467 38.0147 20.0932 38.2458 20.3203 38.473C20.4397 38.5923 20.5591 38.7117 20.6785 38.8311C20.8479 39.0005 20.6091 38.7579 20.6168 38.7733C20.64 38.8388 20.7362 38.9197 20.7786 38.9736C21.0905 39.3548 21.4139 39.5935 21.8645 39.7938C22.134 39.9131 21.8337 39.7475 21.8298 39.7514C21.8414 39.7437 22.0146 39.8785 22.0339 39.8939L22.4729 40.2019C22.8387 40.4599 23.3547 40.4792 23.5973 40.0402C23.8553 39.5743 23.6127 39.066 23.2777 38.731C23.0505 38.5076 22.8348 38.2304 22.5653 38.061C22.2688 37.8723 21.8298 37.8107 21.4909 37.7105L21.8953 37.8992C21.5102 37.5719 21.1598 37.1907 20.7709 36.8749C20.2972 36.486 19.8044 36.2858 19.2306 36.1048L19.6003 36.3975C19.2691 36.0394 18.9765 35.6543 18.5259 35.4463C18.137 35.2654 17.7866 35.0266 17.4054 34.8418C17.2013 34.7417 16.9972 34.7455 16.7739 34.7263C16.6892 34.7186 16.5159 34.6685 16.4312 34.6955C16.3388 34.7263 16.5428 34.7186 16.5775 34.7494C16.539 34.7147 16.4658 34.6955 16.4196 34.6685C15.9729 34.4259 15.5532 34.3066 15.0449 34.2526C14.5058 34.1949 13.8666 34.7263 13.6818 35.223C13.6125 35.4078 13.5278 35.5927 13.4777 35.7852C13.3814 36.1472 13.5316 36.4706 13.6587 36.8018C13.6933 36.8904 13.7858 37.0405 13.7935 37.1406C13.7819 36.9635 13.701 36.8595 13.7627 37.0983C13.8474 37.4217 13.9205 37.8222 14.1323 38.0841C14.2863 38.2766 14.5366 38.4383 14.7446 38.5692C14.9756 38.7156 14.7638 38.6386 14.7446 38.5346C14.76 38.6309 14.9333 38.808 14.9872 38.885C15.1604 39.1353 15.3376 39.3278 15.6264 39.4433C15.7612 39.4973 15.9075 39.5473 16.0461 39.5781C16.0654 39.582 16.177 39.6359 16.2001 39.6282C16.2656 39.6051 15.9421 39.4549 16.1077 39.5627C16.5467 39.8477 16.9895 40.1134 17.4439 40.3675L17.8521 38.654C17.3553 38.3767 16.9087 38.1996 16.3542 38.0687C16.1462 38.0186 15.8998 37.93 15.6918 37.9262C15.5725 37.9262 15.9036 38.034 15.792 37.957C15.7342 37.9185 15.6341 37.8915 15.5725 37.8646L15.2105 37.7105L15.5802 38.0032C15.3337 37.7105 15.068 37.2831 14.7099 37.1175C14.4057 36.9751 14.0168 36.8557 13.6856 36.8133C13.0002 36.7209 12.3148 36.6978 11.6255 36.7556C11.2251 36.7864 11.0325 37.1946 11.0171 37.545C10.9979 37.9416 10.9555 38.2843 11.1018 38.6655C11.1481 38.781 11.1943 38.8965 11.2405 39.0121C11.2674 39.0814 11.2944 39.1545 11.3252 39.2239C11.3906 39.3586 11.279 38.9466 11.2713 39.0891C11.2328 39.7745 11.7064 40.2982 12.1492 40.7449L12.9271 39.324C12.5497 39.1584 12.1877 38.9543 11.768 38.9582C11.5678 38.9582 11.3444 38.9466 11.1481 38.9813C10.9979 39.0082 11.46 38.9967 11.1943 38.9813C11.098 38.9774 11.0017 38.9736 10.9093 38.9697C10.8477 38.9697 10.7091 38.9351 10.6513 38.962C10.6167 38.9774 10.8785 39.1083 10.7052 38.962C10.5628 38.8388 10.3317 38.7156 10.1584 38.6386C9.72716 38.446 9.21502 38.7271 8.79914 38.8696L9.42295 38.8773C8.99168 38.6925 8.5219 38.3921 8.05211 38.5769C7.69785 38.7194 7.30894 38.9081 6.98933 39.116C6.92387 39.1584 6.64662 39.3509 6.99703 39.1584C6.92772 39.1969 6.8276 39.2085 6.75059 39.2316C6.5003 39.3047 6.13063 39.3586 5.94195 39.5435C5.54918 39.9247 5.26423 40.4984 5.32969 41.0298C5.35665 41.2378 5.37975 41.4457 5.40671 41.6536C5.42981 41.8154 5.37205 41.2994 5.39515 41.5805C5.40671 41.7268 5.42596 41.8693 5.43751 42.0156C5.47987 42.4315 5.56073 42.778 5.88034 43.0822C6.03051 43.2247 6.18454 43.371 6.34242 43.502C6.66587 43.7676 7.11255 43.9217 7.51302 44.0295C7.71326 44.0834 7.92504 44.1489 8.12913 44.1797C8.2793 44.2028 7.84418 44.0603 8.09447 44.1797C8.22539 44.2413 8.36402 44.2913 8.50264 44.3452C8.88386 44.4993 9.28048 44.688 9.69635 44.7226C10.143 44.7573 10.5358 44.8535 10.9709 44.9691L10.5473 43.1823C10.0391 43.3903 9.6694 43.552 9.27663 43.9371C9.06869 44.1373 8.93007 44.3298 8.8492 44.6148C8.8107 44.7534 8.77219 44.8959 8.74524 45.0384C8.67207 45.4042 8.86461 44.9228 8.72213 45.1192C8.55655 45.3464 8.36402 45.6891 8.32936 45.9664C8.29471 46.2629 8.39097 46.6672 8.45643 46.9598C8.60661 47.5952 9.46146 48.2267 10.1469 48.219C10.582 48.2152 11.071 48.246 11.5023 48.2036C11.718 48.1805 11.922 48.0842 12.1338 48.0303C12.3456 47.9764 12.5535 47.9803 12.7692 47.9533C12.8 47.9533 12.8655 47.9533 12.9001 47.9418C13.0464 47.8917 12.6383 47.8994 12.7961 47.9379C12.9232 47.9687 13.0772 47.961 13.2082 47.9726C13.4777 47.9957 13.701 48.0034 13.9629 47.9264C14.4211 47.7916 14.8678 47.6491 15.2991 47.4489C15.5186 47.3488 15.7342 47.2294 15.9498 47.1216C16.0885 47.0523 16.2232 46.983 16.3619 46.9136C16.4081 46.8905 16.4851 46.8713 16.5197 46.8328C16.5852 46.7635 16.2771 46.8251 16.4466 46.8597C16.9626 46.9676 17.6518 46.621 18.1216 46.4631L17.2822 44.7303C17.0242 44.8497 16.7431 44.9498 16.5005 45.0923C16.2309 45.2502 16.0268 45.5235 15.8112 45.7469L16.1886 45.5621C15.7226 45.6776 15.2567 45.7238 14.9333 46.1012C14.8139 46.2398 14.7022 46.3938 14.5636 46.5132C14.4789 46.5902 14.3788 46.6518 14.2863 46.7211C14.244 46.7519 13.9475 46.9791 14.1246 46.8482C14.3017 46.7173 14.0399 46.9059 13.9898 46.9367C13.8897 47.0061 13.7935 47.0754 13.6933 47.1408C13.5393 47.2371 13.3776 47.3141 13.2197 47.395C12.9848 47.5143 12.7807 47.6222 12.6498 47.8648C12.542 48.0688 12.4688 48.2999 12.3764 48.5155L12.6768 48.2229C12.1762 48.4809 11.6717 48.6464 11.5678 49.2702C11.5177 49.5899 11.4099 49.9672 11.4831 50.2868C11.5447 50.5448 11.6794 50.8529 11.795 51.0916C12.053 51.6153 12.5689 52.139 13.1388 52.2276C13.6317 52.3046 14.0977 52.3007 14.5944 52.2622C15.0911 52.2237 15.4415 52.1814 15.8574 51.9465C16.0114 51.8618 16.1578 51.777 16.3195 51.7116C16.435 51.6615 16.5582 51.623 16.6738 51.573C17.0165 51.4305 16.5197 51.5845 16.7508 51.5421C17.236 51.4536 17.7019 51.2957 18.1601 51.1147C18.3257 51.0493 18.4913 50.9722 18.6569 50.8991C18.834 50.8221 18.911 50.8105 18.6761 50.8644C18.8186 50.8336 18.9572 50.7951 19.0997 50.7605C19.3577 50.6988 19.5733 50.6334 19.7967 50.4909C19.839 50.464 20.1548 50.3022 20.1509 50.2714C20.1509 50.2599 19.9314 50.2599 20.0238 50.3138C20.0508 50.3292 20.2048 50.3138 20.2318 50.3138C20.5745 50.3215 20.8556 50.3715 21.1405 50.1289C21.3292 49.9672 21.4986 49.7708 21.6758 49.5937L21.0866 49.7708C21.3831 49.7824 21.6912 49.8247 21.9877 49.8093C22.4228 49.7862 22.65 49.4397 22.9234 49.1432C23.605 48.4154 22.5537 46.9136 21.7335 47.6568C21.5372 47.834 21.3369 48.0072 21.1559 48.1959C21.0289 48.3268 20.8671 48.4655 20.767 48.6156C20.64 48.8005 20.7709 48.4847 20.8556 48.5771C20.844 48.5656 20.6361 48.6541 20.6207 48.6618C20.3011 48.7774 20.0701 48.8582 19.8159 49.0854C19.5964 49.2857 19.3885 49.4936 19.1613 49.6823C18.6954 50.075 18.2217 50.4332 17.8059 50.8798C17.5748 51.1263 17.3553 51.4151 17.1743 51.7039C17.0088 51.9696 16.9587 52.2815 16.8817 52.5857C16.7739 53.0247 17.028 53.6523 17.4786 53.8102C17.9291 53.9681 18.3334 54.1914 18.7878 54.022C19.0881 53.9103 19.3769 53.7755 19.6811 53.6754C20.1278 53.5291 20.3126 53.3982 20.6053 53.0324C20.8055 52.7821 21.0327 52.5703 21.2676 52.3469C21.9954 51.65 20.8864 50.1135 20.0778 50.8606C19.6965 51.211 19.2306 51.546 18.9226 51.9619C18.6029 52.397 18.4143 52.7628 18.2179 53.2672L18.5182 52.9746C18.2333 53.1671 17.7519 53.3866 17.5864 53.6947C17.4323 53.9758 17.3553 54.3339 17.2552 54.6381C17.1975 54.8191 17.132 55 17.0858 55.181C17.0396 55.362 17.1397 55.0809 17.1204 55.0963C17.0665 55.1464 17.0242 55.285 16.9934 55.3505C16.9164 55.5045 16.8278 55.6585 16.77 55.8202C16.6738 56.1052 16.7277 56.367 16.7893 56.6481C16.9087 57.1795 17.0011 57.6609 17.544 57.9381C17.8675 58.1037 18.2795 58.3463 18.6492 58.3193C18.9418 58.2962 19.2268 58.2077 19.5233 58.2077C19.8929 58.2077 20.1548 58.2038 20.509 58.0883C20.6168 58.0536 20.7247 58.019 20.8325 57.9805C21.0866 57.8957 20.8055 57.992 20.8055 57.992C20.8748 58.0536 21.3292 57.9728 21.4255 57.9612C21.8298 57.915 22.1725 57.553 22.4883 57.3104L21.8991 57.4876C22.4382 57.5068 22.9041 57.5684 23.3932 57.3143C23.7667 57.1218 24.1017 56.8907 24.4521 56.6558L23.4355 55.0463C23.243 55.2041 23.0389 55.3505 22.8579 55.5199C22.6693 55.697 22.546 55.9242 22.4074 56.1437C22.1918 56.4864 22.0801 56.8792 21.8568 57.218C21.5603 57.6724 21.3754 58.1114 21.2753 58.6505C21.1636 59.2396 21.876 60.5258 22.5537 60.6336C22.8156 60.6759 23.1506 60.6413 23.4124 60.6105C23.7551 60.572 23.9284 60.4025 24.1633 60.1753C24.2288 60.1137 24.5176 59.9058 24.3327 59.9905C24.1248 60.0868 24.533 59.9212 24.5869 59.8981C24.8949 59.7633 25.1106 59.6632 25.28 59.3513C25.3493 59.2281 25.4148 59.0933 25.4648 58.9624C25.4648 58.9624 25.538 58.8276 25.5342 58.8199C25.5149 58.8007 25.357 59.0163 25.461 58.9123C25.6227 58.7467 25.7575 58.5504 25.9115 58.3732C26.2273 58.0036 26.5584 57.6455 26.8434 57.2527C26.9242 57.141 26.9936 57.0216 27.0629 56.9023C27.0975 56.8445 27.3132 56.4517 27.2015 56.6443C27.1745 56.6789 27.1052 56.8099 27.2015 56.6443C27.2592 56.5673 27.317 56.4941 27.3786 56.4171C27.4633 56.3093 27.5519 56.1976 27.6328 56.0859C28.0101 55.5622 28.1719 55.0963 28.3143 54.4764L28.1102 54.8499L28.5531 54.3531L27.1322 53.4713L27.1514 54.176L27.2554 53.7409C27.0205 54.1837 26.7279 54.5919 26.8126 55.1194C26.8395 55.2773 26.8742 55.4313 26.905 55.5892C26.9165 55.647 26.9781 55.801 26.9589 55.8587C27.0321 55.6316 26.9396 55.6084 26.9319 55.8241C26.9204 56.1706 26.9473 56.5018 26.982 56.8484C27.0167 57.1949 27.0321 57.5453 27.2631 57.838C27.394 57.9997 27.5789 58.1229 27.7406 58.25C27.9023 58.3771 28.0602 58.5273 28.2412 58.6081C28.4491 58.7005 28.6917 58.6928 28.9112 58.7121C29.381 58.7544 29.6967 58.6389 30.1203 58.4425C30.5708 58.2346 30.6478 57.9188 30.8327 57.503C30.9559 57.2296 31.1446 57.0024 31.3256 56.7598L31.0252 57.0524C31.3179 56.8792 31.7414 56.7097 31.9532 56.4363C32.165 56.1629 32.1843 55.7047 32.2497 55.3736L32.0456 55.7471C32.3383 55.4159 32.6194 55.1348 32.7811 54.7189C32.8119 54.6381 32.9236 54.4648 32.912 54.3839C32.8966 54.2761 32.8119 54.4764 32.8273 54.4764C32.8389 54.4764 32.9005 54.3993 32.912 54.3878C33.1007 54.2068 33.3125 54.0104 33.455 53.7909C33.9017 53.1094 34.1905 52.3546 34.4369 51.5845L34.2328 51.958C34.6602 51.623 35.0299 51.4112 35.0992 50.8375C35.1146 50.7104 35.1416 50.5833 35.1454 50.4563C35.157 50.1675 35.0492 50.5795 35.1185 50.4447C35.2186 50.2522 35.2917 50.0442 35.388 49.8479C35.4843 49.6515 35.6691 49.4628 35.7192 49.2625C35.7423 49.1701 35.646 49.3665 35.6422 49.3627C35.6576 49.3665 35.7346 49.2818 35.7538 49.2664C35.8655 49.1778 35.9733 49.0777 36.0811 48.9814C36.5278 48.5733 36.4546 48.0111 36.47 47.4489L36.3661 47.884C36.6934 47.3873 36.9013 46.929 37.1054 46.3745L36.9013 46.7481C37.4404 46.2475 37.9063 45.7507 38.1489 45.0422C38.2606 44.7149 38.3338 44.4338 38.3877 44.095C38.3992 44.0218 38.4493 43.8793 38.43 43.8062C38.4223 43.7792 38.2683 44.0256 38.43 43.8601C38.5571 43.733 38.6495 43.5443 38.7496 43.398C39.3195 42.5739 37.9641 41.2994 37.3056 42.2505C37.1362 42.4931 36.9052 42.7434 36.8359 43.036C36.7743 43.2825 36.782 43.5405 36.7242 43.7869C36.6972 43.9063 36.6472 44.0218 36.6087 44.1373C36.5817 44.2182 36.5548 44.299 36.5278 44.3799C36.4585 44.6032 36.5702 44.3067 36.5509 44.3144C36.4739 44.3414 36.3083 44.6764 36.2698 44.7419C36.239 44.7919 36.2044 44.842 36.1735 44.8882C36.2236 44.8112 36.3622 44.7034 36.2159 44.8035C35.931 44.9999 35.6345 45.3156 35.5151 45.6391C35.465 45.77 35.4188 45.8971 35.3726 46.028C35.3457 46.1011 35.3187 46.1782 35.2917 46.2513C35.2224 46.4439 35.4265 46.1012 35.311 46.1705C35.2147 46.2282 35.0992 46.4862 35.0376 46.5786C34.9144 46.775 34.8451 46.9252 34.8297 47.1716C34.8104 47.4412 34.8143 47.7146 34.8066 47.9841L35.0376 47.3796C34.8412 47.549 34.6179 47.7069 34.4446 47.8994C34.2405 48.1228 34.0903 48.4424 33.9556 48.7081C33.8208 48.9737 33.6475 49.2895 33.5743 49.5822C33.5127 49.8286 33.5089 50.1058 33.4781 50.36L33.6822 49.9865C33.4781 50.1444 33.2316 50.2907 33.0507 50.4755C32.8389 50.695 32.6964 51.2033 32.6386 51.5075C32.6078 51.6692 32.7696 51.2803 32.6771 51.4035C32.6348 51.4574 32.6117 51.5383 32.5809 51.6038C32.5154 51.7385 32.4538 51.8733 32.3845 52.0081C32.3267 52.1197 32.2613 52.2237 32.2035 52.3354C32.1612 52.4085 32.1149 52.4779 32.0803 52.5549C32.0187 52.6858 31.9609 52.6126 32.1419 52.4971C31.9263 52.6396 31.6298 52.9669 31.4988 53.1979C31.4334 53.3135 31.3949 53.4636 31.3487 53.5868C31.3217 53.6562 31.2755 53.737 31.2639 53.8102C31.2331 53.9989 31.4218 53.6793 31.3256 53.7601C31.083 53.9642 30.7518 54.3493 30.6671 54.6496C30.5939 54.8999 30.5631 55.1695 30.5131 55.4236L30.8904 54.9269C30.6902 55.0424 30.49 55.1579 30.2936 55.2773C30.0548 55.4236 29.9047 55.62 29.7391 55.8433C29.4811 56.1938 29.3425 56.5288 29.173 56.9331L29.4734 56.6404L28.7803 56.96L29.1961 56.9023L28.4568 56.8368L28.8611 57.0255L28.2527 56.548L28.6763 57.4221C28.5877 56.5788 28.5839 55.7625 28.4144 54.9269L28.3374 55.6046C28.4761 55.3428 28.6455 55.0809 28.7456 54.7998C28.8611 54.4764 28.7995 54.099 28.7918 53.7601C28.7764 53.1671 27.9485 52.2314 27.3709 52.8783C27.136 53.1402 26.8241 53.4059 26.7202 53.7524C26.6778 53.8988 26.6508 54.0566 26.62 54.203C26.6085 54.2569 26.5661 54.3647 26.57 54.4224C26.5777 54.5495 26.7125 54.2492 26.6046 54.3223C26.5007 54.3916 26.3505 54.692 26.2927 54.8152C26.2196 54.9731 26.4545 54.6188 26.3543 54.7382C26.3081 54.7921 26.2658 54.8499 26.2234 54.9076C26.0232 55.1656 25.8345 55.4121 25.6689 55.6932C25.6112 55.7933 25.3262 56.1937 25.5881 55.878C25.4879 55.9974 25.3917 56.1206 25.2916 56.24C25.1144 56.4556 24.9296 56.6635 24.7486 56.8753C24.3481 57.3413 24.0593 57.7687 23.7936 58.3232L24.094 58.0305C23.836 58.1422 23.5511 58.2346 23.32 58.3925C23.089 58.5504 22.9157 58.7621 22.7232 58.9508L23.1005 58.766L22.3342 58.7968L23.1236 59.1588L22.65 58.4695L22.8772 59.4014L23.012 58.8854C23.0312 58.8045 23.062 58.7236 23.0736 58.6428C23.0197 58.947 22.9812 58.8276 23.062 58.739C23.2931 58.4888 23.4394 58.1383 23.5742 57.8341C23.7089 57.5299 23.8899 57.2719 24.0516 56.9831C24.1479 56.8099 23.9015 57.0756 24.0054 57.0524C24.0709 57.037 24.1749 56.9138 24.2288 56.8715L24.6254 56.5442C25.3031 55.9858 24.3828 54.4109 23.6088 54.9346C23.166 55.2349 22.7424 55.4968 22.2688 55.7394L22.6847 55.6816C22.365 55.6701 21.9954 55.6046 21.6758 55.647C21.3369 55.6932 20.9634 56.0898 20.6977 56.2939L21.0751 56.109C20.8325 56.1206 20.5706 56.1052 20.3357 56.1475C20.0392 56.2015 19.7581 56.394 19.4616 56.4286C19.8275 56.3824 19.4231 56.367 19.2961 56.3632C19.1805 56.3632 19.0573 56.3478 18.9418 56.3555C18.6954 56.3747 18.4451 56.4325 18.2025 56.4748L18.6261 56.5442L17.9098 56.2092L18.5028 56.9639C18.4451 56.7059 18.3873 56.4479 18.3295 56.1938L18.2525 56.8715C18.6145 56.1475 18.8494 55.4044 19.1112 54.6419L18.7339 55.1387C19.0265 54.9423 19.5002 54.7189 19.6734 54.4032C19.8275 54.1259 19.8698 53.814 20.0546 53.5522C20.1548 53.4136 20.2472 53.248 20.3627 53.1248C20.0585 53.4482 20.5668 52.9977 20.6477 52.9245C20.8594 52.7358 21.0635 52.5433 21.2715 52.3546L20.0816 50.8683C19.9199 51.0223 19.7466 51.1725 19.5964 51.3342C19.5117 51.4266 19.4385 51.5306 19.3615 51.6269C19.3153 51.6846 19.2306 51.7655 19.1959 51.8348C19.0881 52.0427 19.1497 51.7154 19.2807 51.8117C19.2152 51.7655 18.6684 52.0081 18.5683 52.0427C18.3411 52.1274 18.1216 52.2276 17.8983 52.32L18.5221 52.3277L17.8867 52.1043L18.4836 53.3289C18.5221 53.1787 18.5683 53.0247 18.5991 52.8745C18.6453 52.6396 18.6261 52.9284 18.5606 52.9438C18.5952 52.9361 18.6684 52.7936 18.6915 52.7628C18.7878 52.6319 18.8763 52.4894 18.9803 52.3623C18.7108 52.6973 19.1151 52.2507 19.1882 52.1737C19.5733 51.7616 20.0546 51.442 20.4821 51.0724C20.6785 50.9029 20.8902 50.7297 21.0597 50.5333C21.1983 50.3715 21.0327 50.591 20.975 50.5795C21.0289 50.5872 21.1598 50.514 21.2098 50.4948C21.36 50.4409 21.5218 50.3985 21.6642 50.333C21.9492 50.1983 22.134 49.9172 22.3496 49.6938C22.5345 49.5051 22.7347 49.3319 22.9272 49.1547L21.7374 47.6684L21.283 48.1536L21.8722 47.9764C21.5372 47.961 21.0866 47.8686 20.7632 47.9649C20.4397 48.0611 20.174 48.4308 19.943 48.6618L20.3203 48.477C20.0701 48.4732 19.789 48.427 19.5425 48.4655C19.3731 48.4886 19.246 48.581 19.1074 48.6695C19.0342 48.7158 18.9534 48.7581 18.884 48.8082C18.8378 48.839 18.6684 48.993 18.8263 48.8736C18.9418 48.7851 18.8609 48.8621 18.7493 48.889C18.6646 48.9083 18.5798 48.9314 18.4951 48.9506C18.3373 48.9892 18.1755 49.02 18.0215 49.0777C17.7905 49.1624 17.571 49.2857 17.3438 49.3781C17.2052 49.4358 17.0588 49.482 16.9202 49.5359C16.8663 49.5552 16.7854 49.5706 16.7392 49.6053C16.7392 49.6053 17.0088 49.5398 16.8047 49.5822C16.5043 49.6438 16.1963 49.7131 15.9113 49.8209C15.661 49.9133 15.4146 50.0057 15.1797 50.1328C15.0719 50.1944 14.8177 50.2753 14.7446 50.3754C14.6984 50.437 14.9179 50.3677 14.8485 50.3484C14.7831 50.3292 14.656 50.3677 14.5867 50.3754C14.2748 50.4062 13.9629 50.4255 13.6471 50.4486C13.5932 50.4524 13.3583 50.4486 13.5663 50.4601C13.7858 50.4755 13.497 50.4409 13.4431 50.4331L12.9502 50.3677L13.5278 50.7258C13.4662 50.6526 13.0849 50.2945 13.1003 50.2214C13.108 50.1906 13.2313 50.5333 13.2043 50.3677C13.1928 50.3099 13.1504 50.2368 13.1311 50.1829L12.9964 49.8517L13.0849 50.5641L13.2043 49.8286L12.8269 50.3253C13.0849 50.1944 13.3776 50.0827 13.6125 49.9056C13.8936 49.69 13.9898 49.2895 14.1208 48.9699L13.8204 49.2625C14.76 48.7812 15.5879 48.2229 16.2771 47.4181L15.8998 47.6029C16.1231 47.549 16.3503 47.4951 16.5698 47.4373C16.8778 47.3565 17.0165 47.2217 17.2244 47.0099C17.2937 46.9406 17.4362 46.8443 17.4708 46.7519C17.5055 46.6595 17.3707 46.8289 17.363 46.8212C17.3784 46.8289 17.4708 46.7712 17.4901 46.7635C17.7057 46.6749 17.9137 46.5671 18.1216 46.4708C19.0881 46.0241 18.2448 44.4184 17.2822 44.738C17.0088 44.8304 16.7392 44.9267 16.4658 45.0114C16.8201 44.8997 16.4389 44.9768 16.2925 44.9883C16.1 45.0076 15.9075 45.0114 15.7226 45.0846C15.2567 45.2694 14.8331 45.5582 14.3749 45.7623C14.2286 45.8278 14.0746 45.8817 13.9282 45.9433C13.8897 45.9587 13.7935 45.9779 13.7665 46.0087C13.8243 45.9433 14.0361 45.9317 13.8127 45.9972C13.7126 46.028 13.3853 46.0626 13.316 46.1435C13.2621 46.2051 13.5124 46.1743 13.4199 46.1589C13.3275 46.1435 13.2351 46.1435 13.1465 46.1358C12.5497 46.0819 11.9913 46.1011 11.4137 46.2706C10.8747 46.4323 10.2547 46.3514 9.68865 46.3784L10.1122 46.4477L9.46146 46.0934L10.0545 46.8482L9.92739 46.1281L9.85038 46.8058C10.1469 46.286 10.3202 45.8316 10.4626 45.2502L10.2585 45.6237L10.5165 45.3734C10.5743 45.3156 10.6436 45.2617 10.6937 45.2001C10.8323 45.0307 10.6667 45.2579 10.6282 45.2348C10.7052 45.2848 11.2713 44.9729 11.3791 44.9305C11.7372 44.7842 11.8335 44.299 11.7565 43.9602C11.6602 43.552 11.356 43.2478 10.9555 43.14C10.5204 43.0245 10.1276 42.9282 9.68095 42.8935C9.64629 42.8935 9.56543 42.8666 9.53077 42.882C9.43836 42.9205 9.66169 42.9398 9.64244 42.9282C9.53462 42.8627 9.37674 42.8281 9.26122 42.7857C9.07254 42.7164 8.88771 42.6394 8.69903 42.5624C8.48339 42.4738 8.2716 42.393 8.04441 42.3352C7.90194 42.2967 7.75561 42.2582 7.60929 42.2274C7.32819 42.1658 7.83263 42.3275 7.59003 42.2197C7.46296 42.1658 7.32819 42.1119 7.19727 42.0656C7.16261 42.0541 7.1087 42.0194 7.07405 42.0156C6.99318 42.0156 7.22037 42.1581 7.17801 42.0811C7.08945 41.9116 6.8122 41.7499 6.66972 41.6228L7.0933 42.4969C7.03554 41.9309 6.97008 41.3687 6.90077 40.8026L6.82375 41.4803L7.23577 40.8758L6.73134 41.2301C7.12795 41.1145 7.52457 41.0221 7.88269 40.818C8.21384 40.6332 8.55655 40.4715 8.89926 40.3059L8.27545 40.2982C8.56425 40.4214 8.88771 40.6178 9.19961 40.6679C9.54617 40.7256 10.0121 40.4753 10.3356 40.3637L9.71175 40.356C10.1353 40.6062 10.4395 40.8065 10.9363 40.8257C11.3675 40.8411 11.795 40.8334 12.2301 40.8142L11.8065 40.7449L12.4919 41.0414C13.366 41.4187 13.8474 40.2096 13.2698 39.6205C13.0965 39.4472 12.9232 39.2701 12.7538 39.0968L12.9771 39.5589C12.8655 39.0005 12.7114 38.5076 12.4996 37.9801L12.6152 38.4653L12.646 37.8261L12.0376 38.6155L12.3379 38.5923C12.4034 38.5885 12.5112 38.5923 12.5728 38.5731C12.7076 38.5307 12.4034 38.5269 12.4611 38.5654C12.5805 38.6501 12.9694 38.5962 13.1234 38.6078C13.2159 38.6155 13.7588 38.7348 13.8089 38.6771C13.7973 38.6886 13.5008 38.5731 13.7357 38.654C13.805 38.6771 13.8782 38.7002 13.9475 38.7271L14.2825 38.8388L13.9128 38.5461C14.167 38.8465 14.425 39.2508 14.7831 39.4318C15.095 39.5897 15.4377 39.7206 15.7766 39.7976C16.0923 39.8708 16.4081 39.9362 16.72 40.0171C16.8047 40.0402 16.8855 40.0672 16.9703 40.0826C17.0627 40.1018 16.72 39.9324 16.9241 40.0941C17.0704 40.2058 17.2629 40.2828 17.4246 40.3714C17.8367 40.6024 18.3257 40.3097 18.4297 39.8823C18.5529 39.3817 18.2602 38.8965 17.8328 38.6578C17.6557 38.5577 17.4824 38.4537 17.3014 38.3613C17.0935 38.2535 17.544 38.523 17.3207 38.3767C17.2167 38.3074 17.1127 38.2419 17.0088 38.1765C16.6545 37.9454 16.3041 37.8299 15.9036 37.7028L16.2733 37.9955C16.1116 37.7645 15.9652 37.5065 15.765 37.3024C15.5648 37.0983 15.3145 36.9558 15.0873 36.7902L15.4839 37.4217C15.3337 36.8827 15.1604 36.3705 14.9564 35.8507L15.0449 36.563L15.2683 35.9546L15.0642 36.3282L15.5725 35.9161L14.9833 36.0933C15.1604 36.1202 15.3414 36.1549 15.5224 36.1741C15.6071 36.1818 15.7727 36.2627 15.6071 36.1741C15.3992 36.0663 15.6418 36.2088 15.6764 36.2242C16.0268 36.4206 16.3234 36.5322 16.7238 36.5669C16.8278 36.5746 16.9472 36.6016 17.055 36.5938C17.286 36.5784 16.9318 36.6747 16.9626 36.5438C16.9549 36.5707 17.4477 36.8364 17.494 36.8634C17.7481 37.0059 18.0138 37.1175 18.2795 37.2408L17.9098 36.9481C18.2371 37.3062 18.5336 37.7298 19.0111 37.8838C19.1305 37.9223 19.2537 37.9724 19.3769 37.9993C19.3692 37.9993 19.531 38.0494 19.531 38.0494C19.5271 38.061 19.2845 37.8761 19.3923 37.9647C19.5733 38.1072 19.7851 38.2111 19.9661 38.3575C20.278 38.6155 20.5552 38.9274 20.8633 39.1931C21.2676 39.5396 21.7451 39.6397 22.2495 39.7861L21.8452 39.5974C22.0493 39.8015 22.2572 40.0055 22.4613 40.2096L23.2623 38.7387C22.7848 38.4037 22.3227 38.1149 21.7952 37.8607L22.1648 38.1534C21.9145 37.8492 21.6681 37.5565 21.387 37.2793C21.31 37.2023 21.2291 37.1252 21.1521 37.0444C20.9865 36.8826 21.3523 37.2677 21.1983 37.0829C21.0674 36.9289 20.9249 36.7864 20.7901 36.6362L21.0135 37.0983C20.921 36.6324 20.844 36.1741 20.7786 35.7043L20.7016 36.3821L20.9056 36.0817C20.9442 36.0278 21.1752 35.6889 21.0443 35.8661C20.9133 36.0432 21.1713 35.7197 21.2176 35.662L21.4524 35.3732L21.0751 35.558L21.8452 35.5696L21.4216 35.5003C21.7374 35.6389 22.0878 35.8545 22.4344 35.8776C22.727 35.893 23.0312 35.8391 23.32 35.8122L22.7039 35.6196C23.3431 36.0394 23.9477 36.4129 24.6832 36.6362C25.0182 36.7363 25.2954 36.7902 25.642 36.8249C25.7074 36.8326 25.8191 36.8672 25.8846 36.8518C25.7267 36.8865 25.6343 36.7556 25.8653 36.8634C26.0309 36.9404 26.2042 37.0097 26.3697 37.0829L26.0001 36.7902C26.2311 37.0328 26.4583 37.3255 26.7202 37.5334C26.9666 37.7259 27.3324 37.8222 27.6212 37.9262C27.7868 37.9839 27.9601 38.0533 28.1334 38.0956L28.2643 38.138C28.3644 38.1765 28.322 38.1418 28.1334 38.0417C28.1719 38.0417 28.245 38.1264 28.2758 38.1495C28.6185 38.4268 28.9266 38.6155 29.354 38.7425C29.458 38.7733 29.5581 38.8041 29.6621 38.8311L29.7968 38.8696C29.8662 38.8888 29.8507 38.885 29.7468 38.8542C29.6428 38.8195 29.6274 38.8157 29.6929 38.8426L29.8161 38.9004C29.9085 38.9466 30.0086 38.9851 30.101 39.0313C30.1203 39.039 30.3013 39.1083 30.3013 39.1237C30.3013 39.1507 30.0279 38.9004 30.2358 39.116C30.3629 39.247 30.5092 39.3856 30.6555 39.4973C30.8827 39.6744 31.1484 39.8438 31.4026 39.9824C31.7299 40.1596 32.1303 40.1673 32.4962 40.2173L32.0918 40.0286C32.6386 40.4253 33.1277 40.9605 33.7476 41.2224C34.3676 41.4842 34.9105 41.7075 35.4766 42.0079L35.1069 41.7152C35.3341 41.9925 35.5651 42.3699 35.8732 42.5547C36.1812 42.7395 36.6125 42.7549 36.9629 42.8165L36.3853 42.4584C36.7897 42.8666 37.1824 43.2401 37.6406 43.5867C37.9988 43.8601 38.5263 43.8524 38.765 43.4249C39.0038 42.9975 38.819 42.4007 38.4454 42.1157L38.4493 42.1042Z" fill="black"/>
<path d="M31.9415 9.42356L31.2214 9.25414L30.4359 9.01539L29.6889 9.38506L29.4116 10.1821L28.7762 10.7058L28.7262 11.5222L28.3103 12.0651L28.4374 11.4567L28.5876 10.7058L28.6068 9.93955L28.576 9.17327L28.8494 8.40699L28.6068 7.65226L28.5337 6.88983L28.472 6.08504L27.8059 5.59985L27.2206 5.22249L26.5121 4.86437L25.7766 5.16473L25.2182 5.71537L24.8794 6.42389L24.8948 7.22483L24.5482 7.94491L24.606 8.70349L24.4096 7.97571L24.4982 7.23253L24.6137 6.47395L24.3595 5.75388L24.1554 5.03765L23.9013 4.34453L23.6934 3.63986L23.2929 3.02375L22.8347 2.38454L22.0414 2.4192L21.2713 2.31523L20.7784 2.90438L20.3433 3.48583L20.2047 4.20206L19.9698 4.87593L19.835 5.5806L19.6887 6.28527L19.6733 7.00534L19.6348 7.75237L19.6117 6.94759L19.577 6.1659L19.4923 5.37266L19.0341 4.7065L18.391 4.25597L17.6863 4.24442L17.4591 4.92983L17.1742 5.46508L17.1472 6.02728L16.8854 5.3149L16.8122 4.55247V3.74768L16.4811 3.0122L15.7533 2.65409L15.0871 2.46156L14.5403 2.74651L14.213 3.38572L14.1283 4.11349L13.9897 4.84897L14.0551 5.58445L14.0898 6.31993L14.2785 7.03615L14.4479 7.75237L14.5095 8.484L14.5904 9.21178L14.729 9.93185L14.9716 10.6827L14.8445 9.90105L14.5018 9.23873L14.3478 8.52251L13.8934 7.9064L13.6816 7.20943L13.5661 6.4701L13.285 5.79238L13.0886 5.07616L12.7575 4.4177L12.176 3.90171L11.7678 3.31255L11.5484 2.53472L10.8167 2.24207L10.0427 2.4192L9.62302 3.06611L9.45359 3.63216L9.30727 3.12002L8.94916 2.52702L8.67576 1.89936L8.37926 1.264L7.89792 0.717204L7.15089 0.767262L6.42697 0.559326L6.0034 1.18699L5.49896 1.62981L5.16395 2.23822L5.34493 2.90823L5.74925 3.43963L6.14202 3.97487L6.63876 4.43695L7.16245 4.87978L7.7516 5.28795L7.02382 5.46508L6.30375 5.66916L5.97259 6.36228L6.09581 7.12087L6.49628 7.75237L7.14704 8.14514L7.75545 8.53791L8.15977 9.15787L8.74122 9.58529L9.33037 9.99731L9.96188 10.3477L10.5472 10.7674L11.1017 11.2295L11.6138 11.7686L12.3801 11.8957L12.7844 12.3039L12.3724 11.9188L11.687 11.7263L11.0054 11.5337L10.4201 11.114L9.79245 10.779L9.03002 10.8137L8.37926 10.5557L7.7439 10.1975L7.03537 10.1128L6.32685 10.2091L5.61833 10.2207L5.27562 10.8098L5.35263 11.5222L5.4797 12.3231L6.09196 12.8391L6.8775 13.0085L7.60142 13.2203L8.29839 13.6208L7.43584 13.3898L6.78123 13.9442L6.28834 14.595L6.50013 15.3805L7.2048 15.7348L7.7824 16.2739L8.54484 16.4279L9.24181 16.6628L8.57179 16.632L7.88637 16.5858L7.20865 16.401L6.52324 16.478L5.81086 16.297L5.10619 16.4279L4.5979 16.9632L4.09346 17.3713L3.73535 17.9682L3.7469 18.7075L4.21283 19.2813L4.51319 19.9667L5.12929 20.3672L5.73385 20.783L6.49628 20.86L7.12779 21.2259L7.80551 21.4877L8.53328 21.557L9.1802 21.9151L8.44472 21.8997L7.69384 21.661L6.95451 21.8843L6.17282 21.9421L5.7223 22.5813L5.4412 23.1974L5.11389 23.9483L5.36804 24.7107L5.99569 25.1882L6.70037 25.4346L7.36653 25.6926L7.97494 26.2317L8.71427 26.355L9.47285 26.3126L10.216 26.2895L10.9477 26.4281L11.7832 26.5667L10.94 26.7477L10.1313 26.6861L9.44589 27.0712L8.72582 27.4139L8.42547 28.1532L8.35615 28.8848L8.12126 29.6819L8.6411 30.2326L8.84519 30.9796L9.56141 31.2068L10.2391 31.3608L10.8475 31.7767L11.5407 31.9423L12.2569 31.8537L12.9539 32.1079L13.6662 32.0732L14.3709 31.9153L15.064 31.7382L15.7648 31.7074L16.4695 31.6766L17.2589 31.511L17.0086 32.2696L16.5273 32.8664L16.6505 33.6905L17.436 33.6751L18.1484 33.7521L18.83 33.5865L19.4884 33.3362L20.1392 33.0744L20.8323 32.9627L21.4831 32.6893L22.1839 32.6007L22.9117 32.7201L23.6048 32.6816L24.3133 32.6585H25.0372L25.765 32.7201L26.4004 33.0936L27.1243 33.2207L27.6981 33.6982L28.4258 33.833L28.9534 34.372L29.6735 34.5453L30.305 34.8919L30.8903 35.3078L31.3986 35.843L32.1494 36.0086L32.5422 36.694L33.2238 36.9712L33.8707 37.3024L34.3559 37.9262L34.0863 37.1753L33.8052 36.4899L33.578 35.7891L33.1198 35.1691L32.7963 34.4953L32.6038 33.7752L32.3535 33.0744L32.0917 32.3774L31.98 31.6342L31.6835 30.9372L31.8298 30.1479L31.4217 29.4624L31.6719 28.6808L31.5564 27.953L31.3947 27.2175L31.2522 26.4589L31.5526 25.7427L31.6219 24.9957L31.8452 24.2794L32.161 23.6364L32.4113 22.9664L32.6654 22.3002L33.0274 21.6802L33.3585 21.0526L33.5896 20.3787L33.9862 19.7588L33.8553 19.0579L33.3547 18.8192L32.6385 18.6536L32.0763 18.8153L32.2727 18.2454L32.265 17.4753L32.7155 16.8477L32.7424 16.0968L32.8271 15.369L33.1891 14.699L33.4394 13.9905L33.4317 13.2434L33.2469 12.5041L33.2931 11.7802L33.1005 11.0794L33.0274 10.34L32.4382 9.8895L31.9415 9.42356Z" fill="#626D2F"/>
<path d="M31.3101 8.8729C30.8288 8.76123 30.3397 8.5687 29.8546 8.48013C29.612 8.43393 29.4502 8.561 29.2269 8.67267C28.9458 8.81514 28.9034 8.81514 28.7995 9.10779C28.7302 9.30803 28.6878 9.52752 28.553 9.68539C28.4067 9.85482 28.0794 9.97034 27.9831 10.1706C27.8753 10.3901 28.0178 10.7328 27.9331 10.9638C27.8599 11.1563 27.6443 11.3527 27.5211 11.5183L29.1037 12.6158C29.1961 12.1691 29.327 11.707 29.3809 11.2565C29.4348 10.7674 29.3424 10.2707 29.3732 9.78551C29.3809 9.65844 29.4772 9.42355 29.5504 9.21176C29.6505 8.92681 29.6274 8.8575 29.535 8.56485C29.4002 8.14128 29.3578 7.74466 29.3232 7.30183C29.3039 7.08619 29.3463 6.78199 29.2693 6.5779C29.1306 6.21209 28.5992 5.95024 28.2912 5.72306C27.8368 5.3919 27.3709 5.05689 26.8741 4.79504C26.6547 4.67952 26.4313 4.57171 26.2118 4.46004C25.8152 4.26365 25.6958 4.33296 25.3185 4.48699C24.9411 4.64102 24.6022 4.90671 24.3866 5.26868C24.2672 5.46891 24.1286 5.72691 24.094 5.9541C24.0747 6.08887 24.1017 6.2506 24.1017 6.38537C24.1017 6.46238 24.1171 6.5548 24.1055 6.63181C24.1055 6.65492 24.0824 6.77044 24.1055 6.69342C24.04 6.93987 23.8129 7.15165 23.7628 7.3981C23.7127 7.64454 23.8013 7.97185 23.8206 8.21829L25.3993 9.19636C25.3493 9.00383 25.2106 8.60336 25.2068 8.51479C25.1914 8.2799 25.2646 8.00265 25.2992 7.77161C25.3339 7.54057 25.4186 7.26717 25.4109 7.02843C25.4032 6.77044 25.2338 6.50089 25.1567 6.25445C25.0066 5.78467 24.8564 5.31874 24.7024 4.8528C24.6292 4.63332 24.5907 4.39843 24.5021 4.18664C24.3982 3.93635 24.2172 3.6976 24.0632 3.47427C23.9399 3.28943 23.809 3.1123 23.6781 2.93517C23.3431 2.48849 22.7655 1.9571 22.2071 1.84158C21.953 1.78767 21.6757 1.85313 21.4177 1.85313C21.1597 1.85313 20.8979 1.75302 20.6438 1.76842C20.2779 1.79152 19.9429 2.42688 19.7157 2.72724C19.4346 3.1046 19.4231 3.63599 19.2691 4.08267C18.9187 5.0954 18.8994 6.15433 18.8455 7.21326L20.4243 8.25294C20.4089 7.78316 20.3973 7.31338 20.3742 6.8436C20.3511 6.44313 20.3742 5.99645 20.147 5.66144C19.9968 5.43811 19.8544 5.19551 19.6695 4.99913C19.3961 4.71033 19.038 4.49469 18.7146 4.26365C18.3911 4.03261 18.0484 3.75151 17.6518 3.6976C17.4284 3.6668 17.182 3.6899 16.9587 3.6899L16.9009 3.70916C16.8085 3.99411 16.7315 4.27906 16.5929 4.54475C16.408 4.90286 16.3811 5.07999 16.3657 5.49202L17.9444 6.5317C17.7558 6.02341 17.6364 5.61909 17.6094 5.07229C17.6094 5.1416 17.6094 4.88746 17.6094 4.8528C17.6094 4.71033 17.6171 4.564 17.6094 4.42153C17.5979 4.17509 17.4901 3.99026 17.3899 3.75921C17.0395 2.97368 16.1847 2.60787 15.4454 2.2536C15.2182 2.14578 14.9948 2.07647 14.7561 2.00716C14.4596 1.9186 14.3518 1.89934 14.0745 2.04567C13.8242 2.17659 13.7626 2.2074 13.6394 2.44999C13.5162 2.69258 13.4353 2.84661 13.4045 3.12385C13.3583 3.55128 13.212 4.00181 13.2158 4.42538C13.2197 4.84895 13.2466 5.4073 13.3121 5.83858C13.3852 6.31606 13.5932 6.77814 13.6663 7.25562C13.7395 7.7331 13.7318 8.23754 13.8088 8.72658C13.8897 9.23872 14.0322 9.7085 14.19 10.2014C14.294 10.5325 14.8138 10.8136 15.0872 10.9831C15.1643 11.0331 15.8035 11.3989 15.7688 11.1795C15.6918 10.7058 15.6302 10.3708 15.4107 9.94724C15.222 9.58913 15.2567 9.1617 15.0218 8.83054C14.9371 8.70732 14.8447 8.58795 14.7561 8.47243C14.6906 8.38387 14.6483 8.2799 14.6829 8.37232C14.6021 8.16438 14.5289 7.92564 14.4788 7.70615C14.3787 7.25562 14.3325 6.89751 14.1592 6.46623C14.0129 6.10427 13.9628 5.71535 13.7857 5.36494C13.5239 4.8528 13.2004 4.49469 12.7576 4.12888C12.5265 3.93635 12.9848 4.47929 12.877 4.2444C12.8231 4.12888 12.7191 4.01721 12.6459 3.90939C12.6036 3.84778 12.5111 3.64755 12.5651 3.80157C12.515 3.6668 12.4842 3.51662 12.4457 3.378C12.2262 2.60016 11.4676 2.20355 10.7514 1.9186C10.5165 1.82618 10.2662 1.6837 10.0159 1.69911C9.83493 1.71066 9.41521 1.77227 9.26118 1.88009C9.11871 1.98406 8.94928 2.33062 8.86841 2.48849C8.77215 2.67333 8.73364 2.89667 8.67588 3.0969L10.2547 4.13658C10.193 3.92479 10.1468 3.71301 10.0467 3.52047C9.98126 3.39725 9.90039 3.27788 9.82723 3.15851C9.79258 3.1046 9.75792 3.05069 9.72711 2.99293C9.65395 2.85816 9.78487 3.11615 9.72711 2.97753C9.53458 2.5347 9.369 1.99946 9.0725 1.61824C8.62582 1.04064 7.90575 0.235853 7.15872 0.162691C7.0432 0.151139 6.91613 0.178093 6.80061 0.185795C6.75825 0.185795 6.32312 0.205048 6.51951 0.228152C6.28462 0.201197 6.03432 0.0856774 5.81098 0.020216C5.75322 -0.00673867 5.69931 -0.00673867 5.64926 0.020216C5.49908 0.243555 5.36431 0.493848 5.17947 0.690232C4.97924 0.902019 4.75975 1.02139 4.62113 1.27938C4.4363 1.61054 4.36698 1.69526 4.46325 2.05337C4.55952 2.41148 4.65963 2.57706 4.87912 2.86201C5.26804 3.3703 5.64155 3.83238 6.11904 4.26365C6.59652 4.69493 7.12021 5.08384 7.6593 5.45351L7.03165 4.73343C6.7929 4.79119 6.55031 4.8451 6.31157 4.91056C6.09978 4.96832 5.78403 4.99528 5.5992 5.1108C5.43362 5.21477 5.29499 5.55748 5.23723 5.75001C5.16792 5.97335 5.25264 6.21979 5.28729 6.45083C5.39511 7.13625 6.09208 7.72925 6.63503 8.06811C7.04705 8.32996 7.46677 8.58025 7.87879 8.8421L7.0355 8.15283C7.23573 8.46088 7.41286 8.78049 7.69011 9.02693C7.98276 9.28877 8.32547 9.51211 8.64508 9.74315C8.87612 9.91258 9.11101 10.082 9.34975 10.236C9.52688 10.3516 9.71171 10.4517 9.89654 10.5518C9.98511 10.6019 10.0737 10.6481 10.1622 10.6981C10.3933 10.8213 10.3009 10.8984 9.89269 10.521C10.0159 10.6365 10.1738 10.7289 10.3124 10.8252C10.7244 11.1178 9.88114 10.4632 10.1661 10.7097C10.3009 10.8252 10.4433 10.9715 10.5935 11.0678C10.7244 11.1486 10.4433 10.8868 10.5281 11.0062C10.5897 11.087 10.6744 11.1602 10.7475 11.2334C11.1711 11.6762 11.664 12.1614 12.2686 12.3347C12.5458 12.4155 12.8539 12.4348 13.1388 12.481L11.7718 11.63L12.18 12.0382L13.3044 12.4656C12.7845 11.9804 12.2532 11.5145 11.5523 11.3219C11.1673 11.2141 10.786 11.1063 10.4048 10.9946L11.1403 11.3951C10.7244 11.0986 10.3163 10.8136 9.86574 10.5749C9.63085 10.4478 9.3536 10.2514 9.0879 10.2245C8.94158 10.2091 8.50645 10.1821 8.38323 10.2553C8.32932 10.2899 8.71054 10.3939 8.41789 10.2707C8.29467 10.2206 8.16759 10.1629 8.04052 10.1205C7.77097 10.032 8.22535 10.2437 7.99816 10.1051C7.87879 10.032 7.75172 9.96649 7.6285 9.89718C7.23188 9.67769 6.78905 9.55447 6.33082 9.55832C5.93421 9.55832 5.53759 9.65844 5.13712 9.66229C4.89838 9.66229 4.87142 9.65844 4.75205 9.86252C4.64808 10.0435 4.52871 10.186 4.51716 10.3862C4.49791 10.7713 4.60187 11.2911 4.68659 11.6646C4.79056 12.1229 5.27189 12.404 5.61845 12.6966C6.00737 13.0201 6.42709 13.3243 6.92383 13.4398C7.14332 13.4899 7.36665 13.5284 7.58614 13.5861C7.72092 13.6208 7.85184 13.6631 7.98276 13.7016C8.05207 13.7209 8.12909 13.7556 8.20225 13.7671C8.40248 13.7941 7.81718 13.5438 7.97891 13.667C8.17529 13.8133 8.41789 13.9211 8.62967 14.0444L7.69396 13.0855C7.37436 13.0008 6.88532 12.7467 6.59267 12.92C6.20375 13.151 5.92265 13.5284 5.65696 13.8788C5.52218 14.0559 5.51448 14.0829 5.56839 14.2985C5.6223 14.5141 5.65311 14.7644 5.76093 14.9531C6.09208 15.5461 6.94693 15.8619 7.53993 16.1584L6.74285 15.6039C7.27039 16.0968 7.82103 16.6859 8.54111 16.863C9.00704 16.9747 9.43831 17.0787 9.89654 17.2327L8.53341 16.1122C8.15219 16.0929 7.76712 16.066 7.38591 16.0467C7.332 16.0467 7.27424 16.0428 7.21648 16.0351C7.12406 16.0236 7.37051 16.0698 7.22418 16.0351C7.11636 16.012 7.00854 15.9774 6.90072 15.9466C6.70049 15.8927 6.54646 15.8542 6.33853 15.8657C6.21145 15.8734 6.06898 15.885 5.94191 15.9081C5.78403 15.9389 5.9265 15.935 5.86874 15.9273C5.64926 15.9004 5.43747 15.7887 5.21798 15.7617C4.90993 15.7271 4.47095 15.7926 4.23991 16.0043C4.09744 16.1353 3.98192 16.297 3.83559 16.4279C3.68156 16.5665 3.47748 16.6705 3.34271 16.8245C3.09241 17.1133 2.97304 17.4021 2.98074 17.7679C2.98074 17.9682 2.95764 18.153 3.0462 18.3301C3.14247 18.5227 3.34271 18.6806 3.46978 18.8538C3.51214 18.9154 3.43127 18.7576 3.49673 18.9116C3.54679 19.031 3.60455 19.1503 3.65461 19.2697C3.82404 19.6471 4.09359 19.8897 4.4363 20.1284C4.67504 20.294 4.92533 20.448 5.17177 20.6097C5.41822 20.7715 4.91378 20.4288 5.14867 20.5982C5.26419 20.6791 5.38356 20.7599 5.50293 20.8408C5.82254 21.0603 6.14599 21.3029 6.53491 21.3722C6.77365 21.4145 7.02009 21.4222 7.25884 21.4453L6.63503 21.1681C7.07785 21.4261 7.50528 21.6841 7.97891 21.8689C8.42559 22.0422 8.81836 22.0999 9.29584 22.1423L8.86841 21.9806L9.51533 22.3387L8.4718 21.3606L8.01357 21.3529C7.9327 21.3529 7.85184 21.3529 7.77097 21.3491C7.81718 21.3529 7.82103 21.3645 7.70551 21.3221C7.40516 21.2143 7.12791 21.0872 6.81986 21.1565C6.53106 21.2181 6.28462 21.326 5.98811 21.3491C5.84564 21.3606 5.6069 21.3298 5.47598 21.3876C5.36046 21.4415 5.3104 21.5455 5.23338 21.6571C5.04085 21.9305 4.90223 22.1731 4.7636 22.4812C4.64038 22.7546 4.4517 23.0511 4.38239 23.3437C4.32078 23.5979 4.47865 23.956 4.59032 24.1947C4.75975 24.5644 5.18718 24.8108 5.50293 25.0534C5.98812 25.4231 6.4733 25.7003 7.04705 25.9006C7.13947 25.9314 7.23188 25.966 7.3243 25.9968C7.28579 25.9814 7.16257 25.9352 7.35125 26.0084C7.52838 26.0777 7.70551 26.1432 7.88264 26.2125L6.90842 25.5694C7.45137 26.0507 8.02127 26.6591 8.74904 26.8286C9.22653 26.9364 9.63855 26.9364 10.1199 26.9133C10.3124 26.9017 10.5088 26.8979 10.7013 26.894C10.7591 26.894 11.0671 26.8825 10.89 26.8709C11.0055 26.8786 11.1249 26.9171 11.2404 26.9364C11.6756 27.0211 12.1107 27.0904 12.5458 27.1636L11.0787 26.0238C10.8015 26.0815 10.5049 26.1894 10.22 26.2048C9.93505 26.2202 9.6193 26.0892 9.34205 26.1817C9.0648 26.2741 8.83761 26.4743 8.58732 26.5975C8.42174 26.6784 8.20995 26.7362 8.05977 26.8478C7.93655 26.9402 7.92885 26.9749 7.86339 27.1366C7.6208 27.7335 7.58229 28.3573 7.41286 28.9772C7.3551 29.1929 7.3551 29.2391 7.51683 29.4239C7.64005 29.5625 7.77097 29.7012 7.9019 29.8321C7.92885 29.859 7.95196 29.886 7.97506 29.913C8.06748 29.9977 8.02512 29.9014 7.95196 29.8744C7.82873 29.8282 7.89035 29.7512 7.92115 29.9361C7.95196 30.1016 8.00201 30.3288 8.07133 30.4829C8.35243 31.1182 9.23038 31.4686 9.85804 31.6689C10.2007 31.7767 10.5435 31.8575 10.8977 31.9384L10.1622 31.5379C10.813 31.9808 11.5292 32.5353 12.3533 32.5353C12.5574 32.5353 12.7614 32.4659 12.9655 32.4582C13.0541 32.4544 12.8385 32.412 13.0233 32.4737C13.1311 32.5122 13.2389 32.5545 13.3506 32.593C13.6818 32.7162 13.9628 32.7124 14.3171 32.6777C14.8986 32.62 15.4531 32.3543 16.0345 32.3273C16.7161 32.2965 17.3476 32.2503 18.0176 32.1078L16.4927 30.9873C16.3503 31.4224 16.2617 31.7305 15.9767 32.0809C15.8343 32.258 15.7688 32.3004 15.7804 32.5122C15.7958 32.7509 15.8497 32.9896 15.8843 33.2245C15.919 33.4594 16.408 33.7559 16.5697 33.8676C16.7892 34.0216 17.1281 34.2912 17.4092 34.2873C17.6903 34.2835 17.9714 34.2604 18.2525 34.2796C18.5798 34.2989 18.8416 34.3643 19.1612 34.2873C19.7543 34.141 20.4204 33.7944 20.921 33.6712C21.2137 33.598 21.5063 33.598 21.7874 33.4825C22.184 33.3208 22.3226 33.2784 22.7385 33.2245C23.0581 33.1822 23.3431 33.2938 23.6665 33.3131C23.9245 33.3285 24.1941 33.2861 24.4559 33.2746C25.1567 33.2476 25.8383 33.2553 26.5353 33.3169L25.9115 33.0397C26.2388 33.2322 26.5738 33.4748 26.9242 33.6173C27.2245 33.7405 27.5788 33.7598 27.8946 33.8175L26.6701 33.1013C27.0513 33.4171 27.4209 33.7598 27.8445 34.0178C28.2681 34.2758 28.63 34.3258 29.096 34.4105L27.833 33.5788C28.3682 34.1256 28.9188 34.7417 29.6774 34.965C29.8084 35.0035 29.9431 35.0305 30.074 35.0613C30.3782 35.1345 30.3551 35.2115 30.0548 34.9997C30.1549 35.069 30.2743 35.1229 30.3782 35.1807C30.6401 35.327 30.8018 35.5619 30.2512 35.0844C30.4206 35.2307 30.6285 35.3617 30.8172 35.4849C30.0201 34.9727 30.2473 35.0035 30.5207 35.2962C30.6093 35.3886 30.694 35.481 30.7826 35.5734C31.391 36.1857 32.0225 36.4206 32.8234 36.5939L31.4025 35.5542C31.5257 35.766 31.6374 35.9855 31.7683 36.1972C32.0571 36.6632 32.5885 37.0097 33.0814 37.2331C33.1892 37.2831 33.3009 37.3216 33.4087 37.3678C33.4973 37.4025 33.9401 37.5873 33.5859 37.4256C33.8015 37.5219 34.0094 37.6412 34.2212 37.7491L33.1777 36.9443C33.3394 37.1522 33.5011 37.3601 33.6629 37.5681C33.9055 37.88 34.2713 38.1226 34.6063 38.3151C34.664 38.3498 35.257 38.6463 35.1877 38.4537C34.9913 37.9146 34.7565 37.3833 34.5793 36.8365C34.4715 36.5091 34.3868 36.2666 34.1827 35.9932C34.1095 35.8969 34.0402 35.8006 33.9671 35.7044C33.9247 35.6466 33.8862 35.5811 33.944 35.6851C33.8515 35.5195 33.7707 35.3385 33.6937 35.1653C33.4703 34.6647 33.3625 34.0909 33.17 33.5711C33.066 33.2861 32.9351 33.0127 32.8927 32.7124C32.8427 32.3774 32.7965 32.1232 32.6617 31.8152C32.5693 31.5957 32.5192 31.5495 32.5385 31.3839C32.5616 31.1875 32.6655 30.9642 32.654 30.7678C32.6386 30.479 32.3459 30.1478 32.1958 29.9014L32.2497 30.0516C32.3228 29.8167 32.4461 29.5625 32.4846 29.32C32.5192 29.1082 32.4499 28.881 32.4152 28.6692C32.3459 28.2302 32.2343 27.8028 32.1496 27.3677C32.0879 27.0519 32.0687 27.0712 32.1765 26.8132C32.2728 26.5821 32.3729 26.3857 32.396 26.1393C32.4384 25.6811 32.5115 25.269 32.6848 24.8378C32.8581 24.4065 33.066 24.006 33.2316 23.5709C33.3972 23.1358 33.5666 22.77 33.7938 22.3695C34.0056 21.996 34.1866 21.6302 34.3252 21.222C34.4638 20.8138 34.8412 20.525 34.7757 20.1092C34.6948 19.6163 34.6255 19.4314 34.1981 19.1003C33.813 18.7999 33.3664 18.5612 32.9197 18.3725C32.6655 18.2647 32.369 18.1954 32.0956 18.1569C31.8415 18.1184 31.6259 18.2146 31.3794 18.2878L32.9043 19.4083C33.0237 19.0541 33.0968 18.8076 33.093 18.438C33.093 18.2762 33.1007 18.0683 33.1199 18.0298C33.2162 17.8411 33.4126 17.6986 33.4973 17.5023C33.609 17.2481 33.5512 16.917 33.5782 16.6359C33.6167 16.193 33.6744 15.9273 33.8824 15.5423C34.202 14.9416 34.3637 14.3409 34.2328 13.6593C34.1943 13.4552 34.1057 13.255 34.0826 13.0509C34.0903 13.1317 34.0903 12.9238 34.0903 12.9084C34.098 12.7775 34.1095 12.6504 34.1134 12.5195C34.1326 12.196 33.9863 11.9265 33.9286 11.6107C33.8901 11.3951 33.9132 11.1679 33.8631 10.9561C33.7938 10.6673 33.5127 10.4902 33.2855 10.3092C33.1815 10.2283 33.0814 10.1513 32.9774 10.0705C32.9389 10.0397 32.9004 10.0088 32.8581 9.97804C32.7041 9.86252 32.9389 10.0589 32.9582 10.0628C32.835 10.0512 32.5693 9.7008 32.473 9.60838C32.2189 9.36964 31.7183 8.92681 31.3525 8.91141C30.9867 8.89601 31.3602 9.19251 31.4911 9.31573C31.8993 9.69309 32.3151 10.0397 32.7541 10.3785L32.2766 9.88948C32.3036 10.1513 32.3113 10.4247 32.3652 10.6827C32.4422 11.0485 32.5462 11.2295 32.5269 11.5414C32.4884 12.1498 32.6809 12.6928 32.6886 13.305C32.6964 13.8364 32.2535 14.3139 32.0802 14.8684C31.9185 15.3844 32.1573 16.0737 31.8415 16.5126C31.7491 16.6436 31.572 16.8053 31.5257 16.9555C31.4872 17.071 31.5219 17.2481 31.5219 17.3675C31.5219 17.7679 31.468 17.9066 31.3332 18.307C31.2331 18.6074 32.5885 19.5046 32.8581 19.4276C33.0044 19.3852 33.1546 19.3544 33.2971 19.3005C33.4588 19.2389 33.3086 19.2582 33.3664 19.2582C33.4511 19.2582 33.5435 19.3005 33.6282 19.3198C33.7245 19.3429 33.8207 19.3737 33.917 19.3852C34.1211 19.4122 33.8824 19.3583 33.9247 19.3737C34.0826 19.4391 34.2328 19.52 34.3868 19.5932L33.1122 18.6074C33.1469 18.7922 33.2431 19.0425 33.2277 19.2274C33.22 19.3082 33.0506 19.5431 32.9505 19.7048C32.7618 20.0052 32.7041 20.3556 32.55 20.6675C32.3652 21.0372 32.1303 21.3876 31.9455 21.7572C31.7914 22.0691 31.6875 22.4196 31.5643 22.7469C31.2678 23.5285 30.9135 24.187 30.8326 25.0342C30.798 25.3846 30.5246 25.6811 30.513 26.0199C30.4976 26.4127 30.6902 26.921 30.7749 27.3061C30.8788 27.7797 30.952 28.107 30.8211 28.5113C30.7402 28.7616 30.6439 28.9079 30.7633 29.1428C30.875 29.3623 31.0213 29.5702 31.1484 29.782L31.0945 29.6319C31.0483 29.8744 30.9327 30.1787 30.9443 30.4212C30.9597 30.6831 31.1715 30.9295 31.2446 31.1837C31.3178 31.4378 31.2947 31.7035 31.364 31.95C31.4333 32.1964 31.5527 32.4505 31.6413 32.697C31.83 33.2207 31.9378 33.7906 32.1765 34.2912C32.3036 34.5607 32.4268 34.7956 32.6039 35.0343C32.6925 35.1537 32.808 35.2769 32.8812 35.4079C32.7965 35.2538 32.8735 35.4348 32.8812 35.4733C32.9081 35.5734 32.9466 35.6697 32.9774 35.766C33.1661 36.3397 33.4087 36.8981 33.6128 37.4641L35.1377 38.3498C34.664 37.7375 34.2174 37.2408 33.5088 36.8673C33.0506 36.6247 32.5847 36.4206 32.1033 36.2242L33.3779 37.21C33.093 36.7132 32.885 36.3089 32.4037 35.9585C31.88 35.5773 31.4218 35.4502 30.8134 35.3193L32.0764 36.151C31.5489 35.5927 30.9905 35.1152 30.3474 34.6955C29.7044 34.2758 29.0998 34.0178 28.3682 33.8445L29.6312 34.6762C29.2616 34.2989 28.915 33.9254 28.4683 33.6327C28.0216 33.34 27.625 33.263 27.1129 33.1706L28.2334 33.8676C27.8253 33.5249 27.4248 33.1591 26.9589 32.8934C26.5622 32.6662 26.1541 32.6238 25.7112 32.5507L26.335 32.8279C25.9461 32.6007 25.511 32.258 25.0682 32.1733C24.7601 32.1155 24.429 32.1117 24.1171 32.1117C23.4778 32.1117 22.8001 32.2195 22.1686 32.1656C21.7527 32.1309 21.4639 32.0578 21.0481 32.1117C20.7054 32.1579 20.4435 32.3273 20.1124 32.4236C19.9237 32.4775 19.4809 32.516 19.1921 32.6277C18.8416 32.7663 18.4912 32.9203 18.137 33.0358C17.8751 33.1206 17.4593 33.2053 17.1011 33.1668C16.7161 33.1244 16.3426 33.136 15.9575 33.1437L17.4824 34.2026C17.4516 33.9908 17.4169 33.7752 17.3899 33.5634C17.363 33.3516 17.4554 33.3246 17.6325 33.1013C17.8867 32.7856 17.9637 32.4659 18.0908 32.0809C18.1909 31.769 16.847 30.9026 16.5659 30.9603C16.0114 31.0759 15.5108 31.1375 14.9448 31.1606C14.3787 31.1837 13.8743 31.3184 13.3275 31.4455C13.0541 31.5071 12.8115 31.5341 12.5304 31.5456C12.4611 31.5456 12.3879 31.5572 12.3148 31.5572C12.23 31.5572 12.4418 31.6034 12.257 31.5379C12.0953 31.4802 11.9412 31.4109 11.7795 31.3608C11.51 31.2761 11.2366 31.33 10.9593 31.3801C10.7783 31.4147 10.9786 31.4109 10.9016 31.3993C10.8323 31.3916 10.7591 31.3647 10.6936 31.3493L10.2624 31.2453L10.9978 31.6458C10.5242 31.3223 10.0544 30.9372 9.49222 30.7948C9.07635 30.6908 8.67203 30.5791 8.26001 30.4482L9.68091 31.4879C9.61159 31.2337 9.57694 30.9257 9.44987 30.6946C9.29969 30.4289 9.01089 30.2018 8.80295 29.9823L8.96083 30.2518C9.03399 30.0015 9.13026 29.7474 9.18802 29.4894C9.23423 29.266 9.21497 29.0312 9.25733 28.8117C9.29969 28.5922 9.40366 28.3688 9.49607 28.1532C9.59619 27.926 9.73481 27.9029 9.96586 27.7951C10.1507 27.7065 10.3317 27.618 10.5126 27.5178C10.7668 27.3754 10.8785 27.2637 11.098 27.2945C11.6293 27.3677 12.0452 27.2714 12.5651 27.1597C12.8038 27.1097 12.1954 26.6283 12.1415 26.5898C11.8411 26.3588 11.4792 26.0854 11.0941 26.0199L10.5858 25.9352C10.4895 25.9198 10.3971 25.9044 10.3009 25.889C10.2239 25.8775 10.4356 25.916 10.247 25.8775C9.9081 25.812 9.59234 25.7388 9.24578 25.7504C8.89922 25.7619 8.56421 25.7773 8.2215 25.7966C7.90575 25.8158 7.59769 25.7388 7.28579 25.6849L8.5103 26.4011C7.97891 25.9275 7.46292 25.4346 6.78905 25.1651C6.33468 24.9802 5.87259 24.8224 5.41051 24.6606L6.35008 25.2113L5.72627 24.7338L6.20375 25.2228C6.13829 25.0303 5.94191 24.6298 5.95346 24.4874C5.96501 24.3333 6.1922 23.9637 6.27692 23.7673C6.36933 23.5594 6.4502 23.336 6.56572 23.1396C6.65043 22.9895 6.94308 22.5505 6.98159 22.5312C7.18182 22.4311 7.52068 22.5158 7.74402 22.4696C7.87879 22.4427 8.01357 22.3887 8.14449 22.3502C8.20225 22.331 8.57961 22.2424 8.37938 22.2347C8.62197 22.2424 8.87612 22.4234 9.11871 22.4735C9.38826 22.5274 9.68091 22.5004 9.95815 22.5081C10.1507 22.5081 9.80028 22.1654 9.78487 22.15C9.52688 21.9036 9.22653 21.6995 8.91462 21.5262C8.57961 21.3414 8.20995 21.0757 7.82873 21.0064C7.64005 20.9717 7.42056 20.9447 7.22803 20.9486C6.98544 20.9486 7.38591 21.0295 7.31274 20.991C7.21263 20.937 7.08941 20.9062 6.98159 20.8639C6.91228 20.8369 6.78905 20.7599 6.71589 20.7599C6.71589 20.7599 7.23188 21.0564 6.92768 20.8754C6.76595 20.7792 6.60037 20.6829 6.43479 20.5866C5.96116 20.3094 5.57224 20.2824 5.04085 20.2285L5.8803 20.6482C5.40666 20.3209 4.92918 20.0052 4.44785 19.6894L5.34505 20.4711C5.23338 20.217 5.14097 19.932 4.98694 19.6971C4.91378 19.5816 4.81366 19.4815 4.72895 19.3737C4.67889 19.3082 4.59802 19.2389 4.55952 19.1657C4.52101 19.0926 4.58262 19.2736 4.57877 19.1311C4.57107 18.9578 4.54797 18.7614 4.57107 18.5881C4.58647 18.4688 4.60573 18.4688 4.69814 18.3147C4.87912 18.0144 5.00234 17.8758 5.27574 17.6524C5.49138 17.4791 5.65696 17.2635 5.85719 17.0787C5.94961 16.994 5.9188 17.0094 6.10364 16.9747L6.36163 16.9285C6.38858 16.9247 6.62348 16.8784 6.53106 16.8784C6.44634 16.8784 6.58882 16.8938 6.62733 16.9015C6.72744 16.9285 6.82371 16.9516 6.92383 16.9747C7.0432 17.0055 7.17797 17.0556 7.30504 17.0594C7.45522 17.0671 7.6285 17.0286 7.77868 17.0094C7.84029 17.0017 7.90575 16.9901 7.97121 16.9901C7.82103 16.9901 8.01742 17.0055 8.08673 17.0248C8.72594 17.2019 9.35745 17.2173 10.0198 17.252C10.2431 17.2635 9.69246 16.7591 9.68476 16.7552C9.38055 16.5049 9.03014 16.2585 8.65278 16.1314C8.16374 15.9658 7.70166 15.8426 7.19722 15.7386L8.31777 16.4356C8.00587 16.1468 7.70551 15.8426 7.3551 15.6C7.00469 15.3574 6.61577 15.1803 6.23456 14.9916L7.332 15.8888C7.27424 15.6732 7.17027 15.4344 7.15102 15.2111C7.13561 15.0686 7.12021 15.2034 7.17027 15.0994C7.22803 14.9839 7.3474 14.8645 7.42441 14.7644C7.66701 14.4448 7.96351 14.2176 8.27156 13.9596H8.10983C8.39863 14.0366 8.68358 14.1175 8.97238 14.1945C9.26118 14.2715 9.0725 14.0289 8.97623 13.925C8.71439 13.64 8.36783 13.4282 8.03667 13.2357C7.6131 12.9893 7.22033 12.7467 6.7467 12.6119C6.33853 12.4925 5.9265 12.4001 5.51063 12.3115L6.63118 13.0085L6.01507 12.4925L6.31542 12.8352C6.26151 12.4925 6.1999 12.1537 6.16525 11.8071C6.15369 11.6877 6.11904 11.553 6.12289 11.4336C6.12674 11.3142 6.11904 11.3989 6.14214 11.3296C6.17295 11.2411 6.42709 10.8059 6.41169 10.8136C6.54646 10.7405 6.87377 10.8136 7.0278 10.8059C7.18182 10.7982 7.3166 10.7751 7.46292 10.7559C7.83644 10.7058 8.14834 10.7482 8.52571 10.7944L8.09828 10.6327C8.4872 10.8521 8.86456 11.0601 9.28044 11.2218C9.47297 11.2988 9.66165 11.3912 9.86959 11.4066C10.1006 11.422 10.3432 11.3835 10.5743 11.3758L10.1468 11.2141L10.5011 11.4028C10.5781 11.4451 10.6513 11.4875 10.7283 11.526C10.9516 11.6338 10.2046 11.1679 10.4048 11.3258C10.7244 11.5761 11.0864 11.8418 11.4484 12.015C11.9412 12.2499 12.5227 12.3539 13.0502 12.5002L11.9297 11.8033L12.3456 12.1883C12.619 12.4425 13.0233 12.7582 13.393 12.8583C13.6625 12.9315 13.6856 12.8314 13.47 12.6158C13.0156 12.1614 12.5535 11.68 11.9451 11.4297C11.6332 11.3027 11.2597 11.2834 10.9324 11.2295L12.2994 12.0805C11.637 11.3874 10.9247 10.7828 10.1314 10.2322C9.89269 10.0666 9.6424 9.93184 9.38825 9.79321C9.3536 9.77396 9.11871 9.61223 9.08405 9.62763C9.08405 9.62763 9.55768 9.94724 9.44216 9.84712C9.39981 9.80862 9.3459 9.77781 9.29969 9.747C8.96853 9.51211 8.64508 9.27722 8.31777 9.03848L8.94928 9.58913C8.82221 9.39659 8.70669 9.19636 8.57191 9.01153C8.31392 8.66112 7.9327 8.42622 7.57074 8.19518C7.20878 7.96414 6.81986 7.72155 6.44249 7.49436L7.28579 8.18363L7.0355 7.79086C6.99314 7.72155 6.91998 7.64454 6.89302 7.56753C6.95463 7.73696 6.92383 7.55982 6.91998 7.52902C6.90457 7.34034 6.81601 7.1324 6.82756 6.94372C6.83141 6.88211 6.82756 6.95912 6.86992 6.83975C6.90457 6.74348 6.95848 6.65107 7.00469 6.55865C7.07785 6.40847 7.11251 6.2891 7.17412 6.2506C7.3243 6.16588 7.55919 6.13893 7.72862 6.09272C7.99816 6.01956 8.26771 5.95795 8.54111 5.89249C8.7837 5.83473 7.95581 5.19936 7.91345 5.17241L7.61695 4.96832C7.54764 4.92212 7.48217 4.87206 7.41286 4.8297C7.13176 4.65257 7.70551 5.05689 7.69396 5.05304C7.51298 4.99913 7.28964 4.71033 7.14332 4.57556C7.02009 4.46389 6.90457 4.34837 6.78135 4.24055C6.55801 4.04802 7.07785 4.62176 6.81986 4.24825C6.66968 4.02876 6.5041 3.82083 6.34238 3.60904C6.29232 3.54358 6.24226 3.48197 6.19605 3.41651C6.11134 3.29713 6.1999 3.43961 6.1845 3.4011C6.13059 3.25478 6.08823 3.0815 6.05743 2.93132C6.01892 2.74264 6.1614 2.48079 6.33082 2.2536C6.46945 2.06877 6.69279 1.95325 6.84681 1.77997C7.01239 1.59514 7.13946 1.35255 7.27809 1.14461H7.11636C7.36665 1.21777 7.63235 1.33329 7.8942 1.36795C8.15604 1.40261 8.43329 1.34485 8.69128 1.32559L7.3243 0.474595L7.62465 0.813454C7.67086 0.867363 7.71707 0.932824 7.77097 0.979032C7.89035 1.08685 7.66316 0.705635 7.67471 0.867363C7.69396 1.1061 7.94811 1.44496 8.04822 1.676C8.16759 1.95325 8.29852 2.20354 8.45639 2.46154C8.50645 2.5424 8.56421 2.62327 8.60657 2.70798C8.66048 2.8235 8.56036 2.58861 8.60272 2.73109C8.64508 2.87356 8.68743 3.02759 8.72979 3.17776C8.80295 3.43191 10.2547 4.39843 10.3086 4.21744C10.3663 4.01721 10.4087 3.79772 10.5011 3.60904C10.5743 3.47041 10.84 3.03529 10.8708 3.01604C10.967 2.95443 11.1596 2.95057 11.2712 2.92362C11.329 2.91207 11.4599 2.90052 11.51 2.86971C11.6756 2.76959 11.5831 3.06609 11.3791 2.77729C11.4753 2.91207 11.9335 3.00063 12.0991 3.06224L10.8246 2.07647C10.9555 2.53855 11.0556 2.88511 11.329 3.28173C11.6024 3.67835 11.9682 3.98255 12.334 4.30601L12.0337 3.9633C12.153 4.19434 12.2955 4.42538 12.3841 4.67182C12.4726 4.91827 12.515 5.19166 12.6113 5.44196C12.7229 5.73846 12.8423 5.98105 12.8885 6.29295C12.9347 6.60486 12.9925 6.85515 13.0772 7.14395C13.1735 7.46356 13.3121 7.65609 13.5085 7.92564C13.5508 7.9834 13.6086 8.04501 13.6471 8.11047C13.6895 8.18748 13.6201 7.99495 13.6471 8.17593C13.6779 8.34921 13.7049 8.53404 13.7588 8.69962C13.8396 8.95762 14.0283 9.17325 14.113 9.4274C14.1977 9.68154 14.2054 9.96649 14.2439 10.2206L15.8227 11.1987C15.6571 10.6827 15.507 10.186 15.4338 9.64689C15.3529 9.05003 15.3452 8.45318 15.2066 7.86788C15.1412 7.58678 15.0641 7.30568 14.991 7.02458C14.9178 6.74348 14.9294 6.45083 14.9101 6.15818C14.9024 6.06191 14.8947 5.96565 14.887 5.86938C14.8755 5.75001 14.8447 5.42655 14.8447 5.415C14.8639 5.14546 14.9563 4.87976 14.9948 4.61021C15.0487 4.23285 15.0603 3.98255 15.2297 3.64755C15.2952 3.51662 15.3414 3.3857 15.4492 3.29713C15.584 3.18932 15.7842 3.12 15.9382 3.03914H15.7765C15.9036 3.07765 16.0307 3.11615 16.1577 3.15081C16.2848 3.18547 16.5312 3.28943 16.331 3.19317C16.5659 3.30484 16.7969 3.42421 17.028 3.53588L15.7534 2.55011C15.8458 2.76189 16.0422 3.0892 16.0807 3.25478C16.1192 3.42036 16.073 3.79002 16.0807 4.02876C16.1038 4.59866 16.2232 5.02994 16.4196 5.56133C16.5274 5.85783 16.9664 6.11582 17.2128 6.2737C17.2706 6.31221 17.9983 6.71268 18.0022 6.60101C18.0099 6.40847 17.9868 6.18514 18.0446 6.00415C18.1062 5.81162 18.2525 5.64219 18.3295 5.45351C18.3719 5.34569 18.5028 4.8374 18.4951 4.84125C18.6106 4.76424 19.0419 4.84895 19.1882 4.84895L18.3488 4.42923L18.988 4.87976L18.3565 4.32911L18.5875 4.66412C18.6414 4.74499 18.7069 4.822 18.7569 4.90671C18.7916 4.96832 18.7954 5.04534 18.7646 4.91827C18.8224 5.16471 18.8262 5.45351 18.8455 5.70765C18.884 6.23134 18.8879 6.76274 18.9033 7.28643C18.911 7.53287 19.5348 7.89098 19.6965 7.9988C19.7543 8.03731 20.4782 8.43778 20.4859 8.32611C20.5167 7.72155 20.4897 7.09774 20.613 6.50859C20.6784 6.19284 20.7285 5.87323 20.8016 5.56133C20.8632 5.29178 20.9865 5.03764 21.0558 4.76809C21.1328 4.47929 21.1212 4.18664 21.283 3.93635C21.4678 3.6591 21.6911 3.4011 21.9068 3.14311C22.0493 2.97368 22.0531 2.92747 22.1725 2.91977C22.3612 2.90437 22.5729 2.98523 22.7616 3.00063C23.0466 3.01989 23.3392 2.98908 23.628 2.97753L22.1571 2.01101C22.3149 2.22665 22.4767 2.44229 22.6269 2.66177C22.7193 2.79655 22.804 2.93517 22.8887 3.06995C22.9272 3.12771 22.9773 3.18932 23.0081 3.25478C22.9272 3.0815 22.9888 3.26633 22.9927 3.28558C23.1351 3.84778 23.3662 4.37532 23.5241 4.92982C23.6011 5.20322 23.6896 5.46891 23.7859 5.73846C23.9014 6.06191 23.8321 6.2506 23.7744 6.65107C23.7397 6.90521 23.6704 7.18246 23.6781 7.4366C23.6858 7.69075 23.8013 7.97955 23.8706 8.23754C23.9592 8.561 24.506 8.8575 24.7678 9.01923C24.8525 9.07314 25.4648 9.4428 25.4494 9.21561C25.434 8.98842 25.3801 8.75738 25.3993 8.54174C25.407 8.45318 25.5418 8.20674 25.6265 8.03346C25.7112 7.86018 25.742 7.77931 25.7382 7.59063C25.7382 7.45971 25.7343 7.32878 25.7305 7.19786C25.7305 7.1324 25.7459 6.93217 25.7305 6.98222C25.8383 6.60101 26.0693 6.2814 26.3427 6.01186C26.6546 5.7038 26.9512 5.59983 27.3593 5.43426L26.878 5.29178L27.3901 5.54978C27.7174 5.71535 27.3978 5.58443 27.4017 5.54207C27.4017 5.56903 27.6674 5.71535 27.6828 5.72306C27.7713 5.78082 27.8561 5.83858 27.9446 5.89249C28.0447 5.9541 27.6751 5.6884 27.806 5.80392C27.8407 5.83472 27.8792 5.85783 27.9138 5.88093C28.0832 6.00801 28.2565 6.13123 28.4298 6.2583L27.7444 5.61524C27.7829 6.11582 27.7752 6.67032 27.8753 7.16321C27.9254 7.40195 28.0832 7.64454 28.1025 7.88713C28.1141 8.0142 28.1141 7.79472 28.1025 7.92564C28.0948 7.98725 28.0486 8.07196 28.0293 8.12972C27.9754 8.2799 27.8984 8.43778 27.8638 8.5918C27.7521 9.12705 27.9061 9.57757 27.8599 10.1167C27.8176 10.5864 27.6789 11.0678 27.5827 11.5337C27.5211 11.8418 28.9997 12.8468 29.1653 12.6312C29.3848 12.3462 29.5735 12.1768 29.5966 11.8187C29.6043 11.6762 29.5658 11.3951 29.6312 11.268C29.6967 11.1409 29.947 11.0062 30.0548 10.9176C30.1703 10.8213 30.2319 10.7751 30.2974 10.6519C30.3975 10.4671 30.4014 10.2206 30.513 10.0435C30.6593 9.80476 31.0367 9.70465 31.2909 9.57757H31.1291C31.6297 9.7316 32.1226 9.87023 32.6347 9.9896C33.016 10.0782 32.577 9.65459 32.4961 9.58528C32.1996 9.32343 31.776 8.98072 31.3756 8.88831L31.3101 8.8729Z" fill="black"/>
<path d="M38.1107 42.8358L37.7641 42.1581L37.5485 41.4495L37.3213 40.7449L37.3483 39.9632L36.9593 39.3086L36.8323 38.5769L36.7514 37.8299L36.5589 37.1175L36.2277 36.4437L36.0852 35.7159L35.8465 35.0151L35.6386 34.3065L35.5885 33.5557L35.0802 32.9203L35.2188 32.1232L34.9608 31.4224L34.6297 30.737L34.6104 29.9822L34.3139 29.2853L34.4333 28.5113L34.0752 27.8182L34.0713 27.0673L34.0405 26.3241L33.7594 25.604L33.7363 24.8532L33.7941 24.0946L34.0867 23.3822L34.6682 23.0125L35.319 22.9856L35.9659 23.0356L36.5127 23.3937L36.9824 23.8481L37.3983 24.3795L37.8142 24.9417L37.8065 25.6618L38.1415 26.4127L37.6525 25.6964L37.6563 24.9186L37.2982 24.2871L36.89 23.6748L36.6128 23.0087L36.5319 22.2771L36.2046 21.6224L36.1237 20.8947L35.8619 20.2169L35.6809 19.5161V18.7845L35.6655 18.0683L35.8234 17.3906L36.1468 16.7629L36.8515 16.8707L37.3714 17.2789L38.0914 17.5985L38.411 18.2608L38.7653 18.8962L39.0348 19.57L39.1042 20.3094L39.4084 21.0063L39.1812 20.2747L38.8385 19.6085L38.8077 18.8692L38.8731 18.1145L38.5882 17.4291L38.5535 16.7013L38.3841 15.9889L38.4881 15.2727L38.7306 14.7182L39.3891 14.5642L39.8627 15.0994L40.502 15.4383L40.8062 15.8888L40.8832 15.3189L40.7561 14.5873L40.7445 13.8518L40.9409 13.1317L41.1527 12.427L41.0256 11.6531L41.4646 11.0254L41.7111 10.34L42.2078 9.80859L42.874 9.50824L43.621 9.51979L44.2217 9.99727L44.2987 10.7636L44.78 11.3604L44.73 12.0997L44.9649 12.8006L45.0034 13.5206L45.038 14.2446L44.884 14.8607L45.2344 14.3678L45.9584 14.2099L46.5514 13.9673L47.1906 13.5668L47.7258 14.0751L48.184 14.6643L47.7836 15.3651V16.1314L47.4986 16.8207L47.2868 17.5369L47.0673 18.2531L46.5167 18.8269L46.3742 19.5816L46.0007 20.2285L45.4963 20.8061L45.4193 21.607L45.0611 22.1076L45.4693 21.7033L45.8775 21.1257L46.3665 20.6174L46.8479 20.1014L47.1752 19.4276L47.8452 19.0964L48.3034 18.5419L48.8502 18.0683L49.5318 17.8218H50.221L50.841 17.9258L51.1221 18.6074L51.0951 19.366L50.8294 20.0668L50.5753 20.7637L50.1017 21.3644L50.0093 22.1346L49.4394 22.6775L49.2276 23.4015L48.8155 24.0214L48.5614 24.7299L48.134 25.3383L47.7412 25.966L47.2945 26.559L46.9249 27.2021L46.5475 27.7797L47.0481 27.2598L47.6257 26.7515L48.2379 26.2779L48.6885 25.6425L49.2661 25.1381L49.9284 24.7376L50.3289 23.9983L51.0489 23.671L51.6535 23.8635L51.9192 24.5528L51.5303 25.2305L50.8949 25.681L50.3443 26.1855L49.8783 26.8979L50.3481 26.2471L50.9488 25.8659L51.5842 25.5424L52.1849 25.1689L52.8626 24.9494L53.4903 24.6452L54.1564 24.495L54.838 24.4103L55.4425 24.7723L55.6081 25.5078L55.5042 26.2432L55.3001 26.9556L55.1268 27.6949L54.6455 28.2918L54.3913 29.008L53.9292 29.6049L53.6982 30.3558L53.2092 30.7639L53.7367 30.5021L54.3644 30.1632L55.0575 29.9976L55.7198 29.8244L56.4668 29.6588L57.0521 30.221L56.6286 30.9064L56.2204 31.5071L55.5735 31.8845L54.9535 32.3042L54.2719 32.6238L53.6443 33.0474L53.0089 33.4748L52.3004 33.7443L51.5611 33.9407L50.8371 34.1602L50.352 34.5568L50.8911 34.7956L51.6265 34.5645L52.3197 34.7571L52.9743 35.042L53.6481 35.2808L54.1256 35.9046L53.9677 36.6901L53.4672 37.2947L52.8241 37.6913L52.1695 38.0378L51.4956 38.3536L50.764 38.523L50.0901 38.8349L49.37 39.0236L48.6692 39.2662L48.0454 39.7244L47.3908 40.0941L46.6207 40.1326L45.9275 40.3945L45.2267 40.6409L44.5452 40.9489L43.8328 41.153L43.0973 41.2955L42.3387 41.3417L41.7149 41.8385L40.9255 41.7999L40.2247 42.0464L39.547 42.3698L38.8577 42.674L38.1107 42.8358Z" fill="#626D2F"/>
<path d="M38.6379 42.5354C38.5455 42.3544 38.4569 42.1734 38.3645 41.9963C38.2297 41.7345 38.3992 42.0348 38.3915 42.0541C38.4107 41.9925 38.3106 41.7961 38.2913 41.7345C38.1951 41.4264 38.1373 40.9489 37.9602 40.6909C38.1412 40.9566 38.0141 41.2839 38.0372 40.9451C38.0449 40.818 38.0449 40.6871 38.0487 40.5562C38.0603 40.2289 38.0256 39.9478 37.8639 39.6474C37.7638 39.4626 37.656 39.2469 37.5251 39.0814C37.371 38.885 37.6444 39.632 37.6367 39.3856C37.6329 39.2623 37.5944 39.1314 37.5751 39.012C37.4403 38.2227 37.3903 37.441 37.036 36.7094C36.9783 36.59 36.9205 36.4745 36.8627 36.3551C36.8127 36.2511 36.6779 35.92 36.8435 36.3705C37.0091 36.821 36.9051 36.4937 36.882 36.3705C36.855 36.2319 36.8319 36.0932 36.8011 35.9585C36.7241 35.6004 36.5855 35.2576 36.4738 34.9111C36.4546 34.8495 36.262 34.2565 36.2774 34.2488C36.3198 34.2295 36.3198 34.8033 36.3468 34.6261C36.3583 34.5568 36.3352 34.4683 36.3314 34.399C36.3236 34.2719 36.3159 34.1448 36.3082 34.0177C36.2659 33.3285 35.8693 32.9126 35.4611 32.4043L35.7576 33.4863C35.8616 32.8972 35.9848 32.4082 35.773 31.8306C35.5959 31.3492 35.3802 30.8948 35.1569 30.4366L35.3417 31.1143C35.3302 30.7293 35.3725 30.2787 35.2455 29.9129C35.2031 29.7936 35.1453 29.678 35.0991 29.5664C35.0606 29.4739 35.0298 29.3546 34.9721 29.2699C34.8527 29.0773 34.9528 29.8205 35.0337 29.6164C35.3263 28.8578 34.9413 28.1763 34.6063 27.5178L34.7911 28.1955C34.7872 27.8066 34.7834 27.4177 34.768 27.0288C34.7564 26.7554 34.7564 26.4897 34.6679 26.2278C34.6063 26.0469 34.5369 25.7234 34.4137 25.5809C34.3791 25.5424 34.4599 26.2047 34.4676 25.8235C34.4676 25.6887 34.4599 25.5578 34.4561 25.423C34.4522 25.2613 34.4561 25.1073 34.4715 24.9456C34.4792 24.8185 34.5177 24.6568 34.5023 24.5297C34.4984 24.4873 34.4176 24.7569 34.5292 24.5374C34.6217 24.3487 34.691 24.1446 34.768 23.9521L34.5677 24.2178C34.7449 24.1061 34.9336 24.006 35.0991 23.8789C35.1877 23.8135 35.0414 23.8943 35.0067 23.8982C35.0529 23.8982 35.103 23.8905 35.1492 23.8943C35.2724 23.8943 35.4033 23.8943 35.5227 23.8789C35.7614 23.8558 35.3725 23.8558 35.5535 23.8674C35.6767 23.8751 35.7961 23.8943 35.9193 23.8943C35.9501 23.8943 36.031 23.9174 36.058 23.9059C36.1504 23.8558 35.9347 23.8289 35.9617 23.8597C36.0271 23.9328 36.1619 23.9906 36.2428 24.0407C36.3159 24.0869 36.3968 24.1331 36.4661 24.187C36.1504 23.9405 36.4045 24.1754 36.47 24.2409C36.5547 24.3256 36.6394 24.4103 36.728 24.4912C36.7588 24.522 36.5354 24.2601 36.701 24.4912C36.9359 24.8185 37.1939 25.1304 37.4326 25.4538L37.1015 24.5643C37.0976 24.9071 37.0476 25.2883 37.1361 25.6194C37.217 25.9198 37.3749 26.2009 37.502 26.4858L38.6649 26.1162L38.172 25.3999L38.3568 26.0777C38.3568 25.6887 38.4184 25.2267 38.2875 24.8531C38.1758 24.5374 37.9679 24.2293 37.7908 23.9444C37.6945 23.7865 37.5944 23.6132 37.475 23.4708C37.3094 23.2744 37.5289 23.6479 37.4981 23.5593C37.4634 23.4631 37.4211 23.3706 37.3787 23.2744C37.3441 23.1897 37.3171 23.0972 37.2709 23.0164C37.1785 22.8585 37.2786 23.2128 37.294 23.1165C37.3248 22.9394 37.2517 22.6698 37.2247 22.4927C37.2132 22.4272 36.8589 21.3375 36.728 21.3375C36.8127 21.3375 36.8858 22.0152 36.8743 21.6378C36.8743 21.5377 36.8512 21.4337 36.8396 21.3336C36.8165 21.1411 36.7934 20.9678 36.728 20.7791C36.6702 20.6059 36.6047 20.421 36.5277 20.2593C36.4161 20.0244 36.5624 20.4403 36.5354 20.3325C36.5085 20.2323 36.4854 20.1322 36.4584 20.0321C36.4353 19.9474 36.4276 19.8396 36.3891 19.7626C36.3082 19.6008 36.3699 19.9435 36.3814 19.8434C36.4045 19.6432 36.3814 19.4237 36.3814 19.2196C36.3814 19.0656 36.3776 18.9154 36.3737 18.7614C36.3737 18.6767 36.393 18.5612 36.366 18.4803C36.3391 18.384 36.3121 18.7075 36.3429 18.5997C36.3583 18.5457 36.3699 18.488 36.3814 18.4341C36.4084 18.3186 36.4507 18.1992 36.4623 18.0837C36.4854 17.868 36.4084 18.1376 36.443 18.0606C36.5277 17.8642 36.6394 17.6755 36.7357 17.4868L36.2813 17.6331L36.9898 17.741L36.6279 17.5484C37.0899 17.9142 37.5058 18.1607 38.0449 18.3994L37.552 17.895C37.6752 18.1491 37.7946 18.4071 37.9294 18.6574C38.0141 18.8153 38.095 19.0001 38.2028 19.1465C38.299 19.2774 38.068 18.796 38.1643 19.0656C38.1951 19.158 38.2374 19.2504 38.2721 19.339C38.3029 19.416 38.326 19.5161 38.3684 19.5854C38.43 19.674 38.3453 19.2658 38.3375 19.52C38.3298 19.7009 38.3645 19.9089 38.3915 20.0899C38.4454 20.4364 38.6225 20.7522 38.7611 21.0679C38.9151 21.4222 39.254 21.9497 39.7161 21.8843C40.1782 21.8188 40.132 21.2489 40.0318 20.9293C39.8509 20.3517 39.6275 19.8396 39.3541 19.3005L39.539 19.9782C39.5197 19.52 39.5313 19.0964 39.5621 18.642C39.5813 18.3455 39.5236 18.0914 39.408 17.8218C39.3618 17.714 39.3156 17.4868 39.2348 17.406C39.0961 17.2712 39.3811 17.791 39.2887 17.7872C39.2887 17.7872 39.281 17.6062 39.281 17.6139C39.2771 17.3636 39.281 17.0902 39.2386 16.8438C39.2194 16.709 39.1731 16.2469 39.073 16.1583C39.1885 16.2585 39.0422 16.4356 39.1 16.2469C39.1154 16.1968 39.1154 16.1391 39.1231 16.089C39.1423 15.9542 39.15 15.8079 39.1808 15.6732C39.1924 15.6346 39.0923 15.858 39.1808 15.7733C39.2194 15.7348 39.2386 15.6462 39.2579 15.5961L39.4003 15.2804L39.0422 15.5961L39.7007 15.4383L38.9999 15.0647C39.2039 15.2958 39.4003 15.573 39.6391 15.7694C39.8778 15.9658 40.1859 16.089 40.4554 16.2315L39.9625 15.7271L40.2667 16.1776C40.5825 16.6474 41.3834 17.121 41.5028 16.2546C41.5644 15.7925 41.5606 15.4267 41.4797 14.9685C41.4412 14.7451 41.4874 14.722 41.4527 14.9377C41.4681 14.8414 41.4527 14.7297 41.4489 14.6296C41.4489 14.5372 41.4835 14.3524 41.445 14.2715C41.4065 14.1906 41.4335 14.3447 41.4181 14.3947C41.4335 14.3524 41.4412 14.3023 41.4527 14.26C41.5683 13.8749 41.6799 13.4821 41.7839 13.0971C41.8994 12.6658 41.78 12.2345 41.7107 11.8032L41.6145 12.3654C41.8032 12.0959 42.0265 11.834 42.1497 11.5298C42.219 11.3604 42.2922 11.1794 42.3384 11.0023C42.3846 10.8252 42.3692 10.983 42.3076 11.0408C42.3692 10.9792 42.427 10.9137 42.4847 10.8521C42.554 10.7789 42.6233 10.7058 42.6927 10.6326C42.7889 10.5248 42.8505 10.5556 42.685 10.6249C42.8467 10.5556 43.0046 10.4824 43.1624 10.4093C43.3088 10.34 43.3781 10.3862 43.1932 10.3823C43.251 10.3823 43.3126 10.3785 43.3742 10.3823C43.5552 10.4054 43.7477 10.3862 43.9287 10.39L43.3935 10.1859L43.9903 10.6673L43.509 9.82398C43.5475 10.1936 43.5437 10.5941 43.7015 10.9368C43.8594 11.2795 44.1482 11.5683 44.3831 11.861L44.0519 10.9715C44.025 11.3797 43.9634 11.7724 44.0827 12.1729C44.1328 12.3423 44.1906 12.5118 44.2522 12.6773C44.437 13.1702 44.2368 12.092 44.2483 12.6003C44.256 12.8968 44.2791 13.1972 44.2945 13.4975C44.2945 13.5668 44.2753 13.744 44.3099 13.8056C44.3677 13.9018 44.3869 13.6053 44.3292 13.7324C44.256 13.898 44.2368 14.1098 44.1906 14.2831C44.0866 14.6989 44.2753 15.1572 44.5718 15.4498C44.7913 15.6616 45.2302 15.9157 45.469 15.5769L45.8194 15.084L45.5383 15.2457C46.3354 15.0724 46.9592 14.826 47.6485 14.3947L46.9553 14.2407L47.221 14.4948C47.2749 14.5449 47.325 14.595 47.3789 14.645C47.5252 14.7798 47.4482 14.6604 47.4059 14.6681C47.3404 14.6797 47.3096 14.5449 47.3943 14.6758C47.4405 14.7451 47.5021 14.8106 47.5522 14.8799L47.7832 15.1726L47.5637 13.9326C47.3828 14.2523 47.0863 14.6258 47.0555 14.9993C47.0401 15.1957 47.0324 15.4344 47.0555 15.6269C47.0824 15.8426 47.1094 15.5692 47.067 15.6077C47.0247 15.6423 47.0016 15.7617 46.9823 15.8156C46.8398 16.1583 46.732 16.4933 46.6242 16.8515C46.5857 16.9785 46.5472 17.1056 46.5087 17.2327C46.474 17.3405 46.4278 17.456 46.4047 17.5677C46.37 17.7602 46.4008 17.5638 46.4278 17.5484C46.166 17.7102 45.881 18.0798 45.8001 18.3725C45.7462 18.5727 45.7154 18.7883 45.6808 18.9963C45.7116 18.7883 45.7385 18.8885 45.6577 19.0232C45.6038 19.1156 45.5537 19.2042 45.4998 19.2966C45.3342 19.5854 45.057 19.7895 44.8837 20.0668C44.6912 20.3787 44.722 20.8677 44.6912 21.2258L44.799 20.8793L44.4409 21.3798C44.0019 21.9959 44.98 23.49 45.6423 22.8315C46.0774 22.4003 46.4047 21.9035 46.8283 21.4646C47.0208 21.2682 47.2441 21.0679 47.402 20.8484C47.5792 20.5982 47.6947 20.2708 47.8294 19.9936L47.6292 20.2593C47.9565 20.0976 48.2761 19.982 48.5187 19.7048C48.6034 19.6085 48.6843 19.5084 48.7652 19.4083C48.8383 19.3159 48.923 19.2081 48.7729 19.3659C48.9076 19.2273 49.0809 19.0656 49.2426 18.9578C49.3582 18.8808 49.4737 18.8422 49.6046 18.7922C49.7047 18.7537 49.8087 18.719 49.9088 18.6805C50.0243 18.6382 49.7509 18.669 49.955 18.7036C50.0667 18.7229 50.1976 18.7036 50.3093 18.7036C50.444 18.7036 50.575 18.7344 50.3593 18.6959C50.5596 18.7344 50.7637 18.7652 50.9639 18.7999L50.1822 17.9951C50.2592 18.1838 50.3208 18.3917 50.4209 18.5689C50.5827 18.8692 50.4209 18.0298 50.3863 18.3147C50.3709 18.4418 50.3786 18.5727 50.3747 18.6998C50.3747 18.7652 50.3362 19.0656 50.3747 18.8885C50.4209 18.6998 50.3131 19.004 50.2939 19.0579C50.2323 19.2196 50.1668 19.3813 50.109 19.5469C50.032 19.751 49.955 19.9551 49.8857 20.1592C49.9435 19.9897 49.9358 20.0668 49.8279 20.19C49.7394 20.2901 49.6547 20.4018 49.5776 20.5096C49.3197 20.8639 49.3274 21.3259 49.2773 21.7534L49.3851 21.4068C49.1656 21.6147 48.8614 21.8227 48.7421 22.1038C48.6881 22.2308 48.6612 22.3772 48.6227 22.5119C48.5957 22.6005 48.5649 22.6852 48.5457 22.7776C48.5187 22.9163 48.6573 22.6082 48.5765 22.7199C48.3955 22.974 48.203 23.2397 48.0874 23.5324C48.022 23.6979 47.9488 23.8751 47.9026 24.0484C47.8487 24.2486 47.9219 24.0291 47.9219 24.033C47.868 24.0907 47.8256 24.1677 47.7832 24.2332C47.1363 25.1573 46.5433 26.1085 45.9272 27.0519C45.5229 27.6718 46.474 29.1813 47.1286 28.5036L47.4405 28.1801C47.4906 28.1262 47.5445 28.08 47.5907 28.0222C47.6831 27.9144 47.4367 28.157 47.5406 28.0608C47.7255 27.8952 47.9142 27.7257 48.1067 27.564C48.3377 27.3753 48.615 27.2175 48.8152 27.0018C48.8999 26.9094 48.9692 26.7862 49.0386 26.6861C49.0848 26.6244 49.3582 26.2163 49.1502 26.4666C49.3043 26.2817 49.5468 26.0931 49.7432 25.9544C49.9781 25.785 50.3131 25.6849 50.5018 25.4615C50.6712 25.2575 50.7598 24.961 50.8984 24.7338C50.7945 24.9032 50.7598 24.8146 50.8792 24.7877C50.9446 24.7723 51.0409 24.7145 51.1025 24.6876L51.503 24.5027L51.1718 24.5412L51.7764 24.7338L50.9947 23.929L51.2604 24.6183L51.295 23.825L51.0794 24.2024C51.0293 24.2871 50.7906 24.6221 51.0216 24.3988C50.8022 24.6106 50.5018 24.7453 50.2746 24.9494C49.8472 25.3306 49.5738 25.6849 49.2619 26.1662C48.846 26.8054 49.9396 28.3496 50.4633 27.6179C50.6058 27.4177 50.8022 27.2136 50.91 26.9941C50.91 26.9864 50.7328 27.0827 50.8753 27.0326C50.9292 27.0134 50.9831 26.9633 51.0332 26.9325C51.1526 26.8555 51.2719 26.7746 51.3952 26.7015C51.7802 26.482 52.2654 26.3241 52.5966 26.0237C52.6967 25.9352 52.4002 26.0854 52.535 26.0314C52.5889 26.0083 52.6466 25.9968 52.7005 25.9775C52.8392 25.9352 52.9778 25.889 53.1126 25.8466C53.3744 25.7619 53.6594 25.6502 53.8904 25.5001C54.0098 25.4269 53.7325 25.5347 53.8249 25.5155C53.8942 25.5001 53.9636 25.4847 54.0329 25.4692C54.1676 25.4384 54.3063 25.3999 54.441 25.3768C54.6682 25.3345 54.9031 25.3191 55.1342 25.2883L54.7799 25.2074L55.3845 25.5694L54.7221 24.6028L54.8069 24.9725C54.8261 25.0534 54.8377 25.1458 54.8646 25.2267C54.9416 25.4461 54.7838 25.1727 54.8762 25.1381C54.8377 25.1535 54.8184 25.527 54.8107 25.5809C54.7992 25.6541 54.7876 25.7272 54.7799 25.8043C54.7645 25.9506 54.8685 25.5925 54.7876 25.7195C54.6759 25.8967 54.6451 26.2086 54.5912 26.4127C54.5527 26.5667 54.5181 26.7246 54.4796 26.8824C54.4641 26.9479 54.441 27.0172 54.4333 27.0827C54.4333 27.1019 54.572 26.921 54.4487 27.0288C54.2562 27.1982 54.0444 27.4909 53.9405 27.7296C53.8788 27.8682 53.8365 28.0184 53.7864 28.1647C53.7595 28.2379 53.7325 28.3072 53.7094 28.3804C53.6671 28.5151 53.8288 28.2225 53.7325 28.3226C53.3166 28.7577 53.1665 29.2198 52.997 29.782L53.1973 29.5163L52.7082 29.9245C52.0921 30.4405 52.9008 31.9807 53.6632 31.5957C53.8942 31.4801 54.1253 31.3646 54.3525 31.2453C54.5027 31.1644 54.6528 31.0835 54.8069 31.0027C54.6028 31.1143 54.7029 31.0335 54.8069 31.0104C54.9031 30.9911 54.9994 30.9642 55.0957 30.941C55.654 30.8063 56.2085 30.6638 56.7707 30.5406L56.2355 30.3365L56.8208 30.9025L56.4318 29.4932C56.2932 29.7204 56.1546 29.9476 56.0121 30.1709C55.9544 30.2633 55.8927 30.3519 55.8311 30.4405C55.7772 30.5175 55.7079 30.5983 55.6656 30.6831C55.5924 30.8332 55.6656 30.6985 55.6964 30.6831C55.2266 30.9025 54.8377 31.2568 54.3794 31.4955C53.8904 31.7535 53.4437 32.0077 52.9855 32.3157C52.7545 32.4698 52.5504 32.6199 52.2885 32.7162C52.1383 32.774 51.9882 32.8279 51.838 32.8895C51.8033 32.9049 52.0421 32.8394 51.8765 32.8741C51.7802 32.8933 51.6878 32.9241 51.5915 32.9472C51.2758 33.032 50.9639 33.1244 50.6481 33.2206C50.3324 33.3169 50.1206 33.4979 49.8549 33.7135C49.3389 34.1333 49.7702 35.119 50.2977 35.3539C50.6212 35.4964 50.9562 35.712 51.3104 35.6389C51.476 35.6042 51.7263 35.5464 51.8726 35.4617C51.9381 35.4271 51.6724 35.3809 51.8611 35.4617C51.9497 35.5002 52.0498 35.5156 52.1422 35.5387C52.2192 35.5619 52.3155 35.6081 52.3963 35.6081C52.5234 35.6119 52.146 35.4925 52.3694 35.5965C52.535 35.6774 52.7044 35.7467 52.8738 35.816C53.1703 35.9392 53.4784 36.0393 53.7787 36.1472L53.2512 35.7852L53.7287 36.4051L53.4322 35.3231L53.3436 35.7621C53.3282 35.8391 53.2974 35.9238 53.2935 36.0047C53.282 36.1934 53.3475 35.97 53.3166 35.9931C53.1819 36.0971 53.0664 36.2896 52.9624 36.4206C52.9393 36.4514 52.7891 36.6054 52.9085 36.5014C53.0278 36.3974 52.8007 36.5515 52.766 36.5746C52.2385 36.9019 51.6878 37.1599 51.1372 37.4448C51.0062 37.5141 50.987 37.5064 51.1372 37.4641C51.064 37.4833 50.9908 37.4987 50.9177 37.5141C50.7521 37.5526 50.5788 37.5835 50.4171 37.6297C50.2554 37.6759 50.1167 37.749 49.9666 37.8183C49.878 37.8607 49.7817 37.8954 49.6932 37.9454C49.5045 38.0494 49.7894 37.9339 49.6932 37.957C49.1233 38.0917 48.4417 38.2265 47.9642 38.5769C47.7178 38.7579 47.4829 38.9196 47.2172 39.0698C47.1402 39.1122 47.0362 39.1545 46.9669 39.2123C46.8398 39.3124 47.0786 39.2123 46.99 39.2084C46.7936 39.1969 46.5626 39.2161 46.3662 39.2431C45.8386 39.3086 45.2148 39.6089 44.7181 39.8091C44.5641 39.8707 44.4139 39.9478 44.2599 40.0171C44.1906 40.0479 44.1213 40.0748 44.0558 40.1095C44.2291 40.0209 44.1521 40.0787 44.0134 40.1172C43.7131 40.2019 43.4243 40.2789 43.1162 40.3405C42.8082 40.4021 42.5078 40.4252 42.1844 40.4484C41.8301 40.4715 41.6068 40.6601 41.3488 40.895C41.2024 41.0298 41.2101 40.9412 41.3488 40.9566C41.2679 40.9489 41.1832 40.9489 41.1023 40.9451C40.9368 40.9374 40.7365 40.8989 40.5748 40.922C40.259 40.9643 39.9009 41.1376 39.6083 41.2685C39.2887 41.411 38.9729 41.5689 38.6495 41.7114C38.5609 41.7499 38.4685 41.7845 38.3799 41.8307C38.4762 41.7807 38.5147 41.7961 38.3491 41.8307C38.1527 41.8692 37.9525 41.9155 37.7561 41.9617C36.8666 42.158 37.6406 43.8985 38.3992 43.733C38.7996 43.6444 39.1847 43.5712 39.5621 43.4057C39.9394 43.2401 40.286 43.0514 40.6557 42.9012C40.8174 42.8358 40.983 42.7857 41.1485 42.7279C41.1947 42.7125 41.2448 42.6933 41.291 42.6779C41.4258 42.6317 41.3064 42.7202 41.2294 42.701C41.3295 42.7241 41.4604 42.7125 41.5644 42.7164C41.7569 42.7241 41.9803 42.7742 42.1613 42.6856C42.3422 42.597 42.5348 42.4122 42.6734 42.2813C42.7042 42.2505 42.7427 42.2274 42.7735 42.2004C42.7581 42.2158 42.5656 42.2389 42.685 42.2389C42.7928 42.2389 42.9006 42.2235 43.0084 42.2197C43.1894 42.2081 43.3627 42.1966 43.5398 42.1657C43.9441 42.0964 44.3292 41.9963 44.7258 41.8808C45.0762 41.7768 45.3881 41.6035 45.727 41.4726C46.112 41.3225 46.5048 41.1992 46.8899 41.0529C47.0362 40.999 47.1017 41.0298 46.9284 41.0337C47.0362 41.0337 47.144 41.0221 47.2518 41.0182C47.479 41.0067 47.6831 41.0144 47.8911 40.9181C48.2453 40.7526 48.5649 40.5254 48.8807 40.2943C49.0039 40.2058 49.0963 40.1364 49.2311 40.0787C49.3505 40.0286 49.4775 39.994 49.6008 39.9516C49.7355 39.9054 49.8973 39.8746 49.7009 39.917C50.1129 39.8284 50.5018 39.7052 50.8792 39.528C50.9793 39.4818 51.0871 39.4433 51.1834 39.3856C51.0679 39.451 51.0794 39.4125 51.2488 39.3779C51.4799 39.3317 51.7302 39.2854 51.9497 39.2046C52.2924 39.0737 52.6235 38.885 52.9508 38.7155C53.5862 38.3805 54.4179 37.9416 54.6374 37.1984C54.7029 36.975 54.7375 36.7286 54.7799 36.4976C54.8723 35.997 54.6451 35.6158 54.3525 35.2345C54.1753 34.9997 54.0021 34.7186 53.7518 34.5568C53.5207 34.4028 53.2088 34.3258 52.947 34.2372C52.6582 34.1371 53.0664 34.3027 52.9123 34.2257C52.793 34.1641 52.6659 34.1179 52.5427 34.0639C52.3424 33.9754 52.146 33.8984 51.9343 33.8406C51.7225 33.7828 51.476 33.675 51.2527 33.7058C51.0294 33.7366 50.7791 33.856 50.5557 33.9292L50.91 34.01L50.367 33.7713L50.8099 35.4117L51.1256 35.1537C51.1564 35.1306 51.3413 34.9457 51.218 35.042C51.1256 35.1152 51.2527 35.0305 51.3259 35.0074C51.58 34.9265 51.838 34.8495 52.096 34.7802C52.6697 34.63 53.2473 34.4721 53.7441 34.141C54.6567 33.5287 55.6116 33.0204 56.5435 32.439C57.0325 32.1348 57.3329 31.4493 57.6332 30.9642C57.9336 30.479 57.5947 29.8937 57.2443 29.5548C56.8939 29.216 56.5512 28.7346 56.0391 28.8078C55.6155 28.8694 55.1881 29.008 54.7722 29.112C54.4372 29.1967 54.0791 29.2468 53.7672 29.3969C53.4129 29.5702 53.0664 29.7666 52.7121 29.9437L53.6671 31.6149C53.8519 31.4609 54.1368 31.2915 54.2793 31.0951C54.4218 30.8987 54.5142 30.5252 54.5566 30.2903C54.5912 30.0939 54.4218 30.4289 54.6066 30.221C54.7106 30.1055 54.8107 29.9707 54.9031 29.8436C55.0533 29.628 55.1226 29.3931 55.2112 29.1466C55.2651 29.0003 55.3883 28.827 55.2381 29.0196C55.3344 28.8963 55.4307 28.777 55.5269 28.6576C55.7002 28.442 55.7888 28.2687 55.8504 27.9991C55.9621 27.5255 56.1276 27.0596 56.2008 26.5782C56.2355 26.3549 56.2932 26.1239 56.2971 25.9005C56.3048 25.5925 56.1892 25.2575 56.1199 24.961C55.9544 24.2832 55.1303 23.4977 54.3717 23.5516C53.9019 23.5863 53.3706 23.6633 52.9354 23.8481C52.8045 23.902 52.6774 23.9752 52.5504 24.0368C52.5042 24.0599 52.4387 24.0792 52.3963 24.1138C52.3078 24.1793 52.6043 24.0445 52.4695 24.0984C52.2115 24.1947 51.9266 24.237 51.6763 24.3526C51.4645 24.4527 51.2758 24.6144 51.0717 24.7299C50.8676 24.8454 50.6404 24.934 50.4363 25.0534C50.1976 25.1882 49.9165 25.3383 49.724 25.5386C49.5468 25.7272 49.4082 25.9775 49.258 26.1893L50.4594 27.641C50.6597 27.3368 50.8291 27.0172 51.0987 26.7708C51.1949 26.6822 51.2912 26.5936 51.3875 26.5051C51.5684 26.3395 51.2527 26.5705 51.4144 26.4897C51.6031 26.3973 51.8187 26.2278 51.9766 26.0931C52.3501 25.7735 52.6774 25.088 52.5619 24.6183C52.4079 23.9983 52.0998 23.2205 51.4683 23.001C51.2873 22.9394 51.0794 22.8469 50.8907 22.8161C50.6212 22.7738 50.3863 22.9278 50.1475 23.0356C49.9666 23.1165 49.801 23.1666 49.6816 23.3321C49.5853 23.4669 49.3543 23.8019 49.3351 23.9636C49.3235 24.0638 49.5006 23.8982 49.3351 23.9713C49.2234 24.0175 49.1194 24.1023 49.0193 24.1639C48.8691 24.2524 48.7421 24.3372 48.615 24.4488C48.2646 24.753 47.9642 25.0303 47.7139 25.4269C47.6908 25.4615 47.6446 25.5039 47.6292 25.5463C47.61 25.5925 47.8102 25.4192 47.6716 25.5078C47.5637 25.5809 47.4598 25.6695 47.3558 25.7503C47.2095 25.8659 47.067 25.9775 46.9284 26.1008C46.5741 26.4127 46.243 26.7323 45.9157 27.0711L47.1171 28.5228C47.479 27.9683 47.7948 27.3946 48.1953 26.8632C48.3801 26.6168 48.5303 26.3511 48.6997 26.0931C48.8691 25.8351 49.0963 25.5809 49.2234 25.2844C49.3004 25.1034 49.3774 24.9071 49.4275 24.7184C49.4891 24.4835 49.3505 24.8108 49.4198 24.7184C49.4814 24.6337 49.5353 24.5412 49.593 24.4565C49.8087 24.1331 49.9435 23.8366 50.032 23.4554C50.0744 23.2782 50.1591 23.2821 50.0205 23.413C50.0782 23.3552 50.1398 23.3013 50.1976 23.2436C50.3131 23.1319 50.4749 23.0202 50.5673 22.8893C50.7637 22.6121 50.7405 22.0922 50.7791 21.7611L50.6712 22.1076C50.9716 21.7225 51.1949 21.4183 51.3644 20.9601C51.5068 20.5751 51.734 20.1669 51.7764 19.7549C51.8303 19.2119 51.7956 18.7229 51.5877 18.2184C51.4452 17.8757 51.322 17.5099 51.0255 17.2635C50.7714 17.0517 50.4248 17.017 50.109 16.9747C49.6816 16.9169 49.2542 16.9208 48.8499 17.0671C48.4032 17.2288 48.1683 17.3944 47.8102 17.714C47.6408 17.8642 47.506 18.0375 47.3635 18.2107C47.2595 18.3378 47.1325 18.384 47.3289 18.2839C47.2095 18.3455 47.0863 18.4033 46.9669 18.461C46.7205 18.5843 46.5857 18.6382 46.4586 18.9039C46.4085 19.004 46.3585 19.1079 46.3084 19.2081C46.2776 19.2735 46.243 19.339 46.2122 19.4044C46.1814 19.4661 46.0851 19.57 46.1814 19.4661C46.2969 19.339 46.0235 19.6047 45.9811 19.6509C45.9041 19.7356 45.8271 19.8165 45.7501 19.9012C45.5884 20.0706 45.4112 20.2285 45.261 20.4056C44.9761 20.7445 44.7566 21.0833 44.437 21.3991L45.6384 22.8508C45.8309 22.5812 46.062 22.3348 46.1082 21.9959C46.1429 21.7341 46.1583 21.4646 46.1814 21.2027L46.0735 21.5493C46.4317 21.1411 46.8514 20.6983 47.0324 20.1669C47.0709 20.0514 47.0824 19.9089 47.1055 19.7895C47.1209 19.7125 47.1556 19.6085 47.1556 19.5315C47.1556 19.4083 47.248 19.3967 47.1094 19.5585C47.2904 19.3428 47.5522 19.1657 47.687 18.9193C47.9296 18.4726 47.9912 17.8873 48.1606 17.406C48.2415 17.1749 48.3762 16.9516 48.4456 16.7167C48.5303 16.4202 48.4764 16.0659 48.4764 15.7617L48.3685 16.1083L48.7652 15.4036C48.9962 14.9954 48.8152 14.5102 48.5457 14.1637C48.1837 13.7016 47.8102 13.3011 47.3828 12.8968C47.221 12.7428 46.9053 12.608 46.6896 12.7428C46.474 12.8776 46.2815 13.0239 46.062 13.1356C45.9619 13.1856 45.8541 13.2241 45.7539 13.2665C45.6885 13.2934 45.6153 13.3165 45.5537 13.3512C45.3843 13.4321 45.6153 13.3396 45.5807 13.3473C45.3342 13.3936 45.0454 13.4244 44.8144 13.5206C44.5602 13.6284 44.4178 13.9288 44.2599 14.1483L45.5383 15.4421C45.6577 14.9685 45.7231 14.5873 45.6962 14.0982C45.6731 13.6477 45.6962 13.1625 45.5691 12.7274C45.5152 12.5426 45.4651 12.2499 45.3573 12.092C45.2996 12.0073 45.4112 12.4617 45.4189 12.4501C45.4382 12.4232 45.4228 12.3308 45.4305 12.2923C45.4497 12.1652 45.4497 12.0266 45.4574 11.8995C45.4882 11.2025 45.0647 10.7635 44.6565 10.2591L44.9722 10.933C44.9299 10.521 44.9376 10.0743 44.7258 9.70461C44.5256 9.35805 44.1444 9.08851 43.8248 8.85362C43.251 8.43004 42.3153 8.60332 41.7415 8.96528C41.5143 9.10776 41.2525 9.38886 41.0985 9.60835C41.0099 9.73157 40.9676 9.8933 40.9175 10.0319C40.8867 10.1166 40.8559 10.1975 40.8289 10.2822C40.8174 10.313 40.7173 10.5441 40.802 10.3823C40.8867 10.2206 40.7481 10.4439 40.7288 10.467C40.6749 10.5402 40.621 10.6211 40.5671 10.6981C40.4362 10.8829 40.3052 11.0408 40.2937 11.2834C40.2744 11.6068 40.3823 11.9573 40.4323 12.273L40.4516 11.8648C40.2783 12.4463 40.028 13.0624 40.0164 13.6708C40.0126 14.0212 40.0241 14.3639 40.0858 14.7066C40.105 14.8183 40.1204 14.9377 40.1474 15.0493C40.1974 15.2573 40.1204 15.0262 40.1474 14.9685C40.0781 15.1148 40.0935 15.3612 40.0703 15.5191L41.3064 15.5961C40.9984 15.1418 40.725 14.7567 40.2282 14.4948C40.1358 14.4448 40.0395 14.3793 39.9433 14.3447C39.6737 14.2407 40.3553 14.7798 40.1435 14.5141C40.0164 14.3562 39.8778 14.2137 39.743 14.0636C39.589 13.8903 39.3041 13.6284 39.0422 13.6901C38.6263 13.7902 38.1951 13.7979 37.9987 14.2214C37.8331 14.5796 37.7522 14.8799 37.6945 15.265C37.6367 15.65 37.6598 16.0505 37.8023 16.4433C37.8678 16.6204 37.8254 16.4433 37.8139 16.3509C37.8254 16.4356 37.8216 16.5241 37.8254 16.6089C37.8331 16.8283 37.8254 17.0632 37.8601 17.2789C37.8947 17.5061 38.0102 17.7256 38.1027 17.9373C38.1296 18.0028 38.1527 18.1068 38.1989 18.1645C38.1989 18.1645 38.1912 17.5561 38.1258 17.868C38.0526 18.2223 38.0757 18.6074 38.0911 18.9655C38.1104 19.4815 38.2644 19.8819 38.4993 20.3402C38.5339 20.4056 38.6071 20.5019 38.6225 20.5789C38.557 20.1784 38.5455 20.4133 38.5801 20.5481C38.6302 20.7291 38.6918 20.9101 38.7496 21.0872L40.0203 20.9486L39.8509 20.5596C39.8201 20.4865 39.7931 20.3671 39.7392 20.3055C39.6468 20.1938 39.7392 20.5712 39.7738 20.4287C39.8278 20.19 39.7238 19.7318 39.6429 19.5007C39.4542 18.9462 39.1693 18.4572 38.8997 17.9373C38.7188 17.5869 38.5917 17.1865 38.2798 16.9246C38.1797 16.8399 37.502 16.4394 37.4095 16.4972C37.398 16.5049 37.6329 16.6743 37.4904 16.5511C37.4172 16.4895 37.3402 16.4317 37.2671 16.374C37.14 16.2739 37.0052 16.1468 36.8627 16.0736C36.6009 15.9388 36.2582 15.9388 35.9732 15.8965C35.8308 15.8734 35.5997 15.8888 35.5189 16.0428C35.2031 16.6628 34.922 17.2558 34.9336 17.9681C34.949 18.6382 34.9336 19.262 35.103 19.9166C35.1839 20.2323 35.2686 20.6405 35.4418 20.9178C35.515 21.0333 35.4187 20.6213 35.411 20.8215C35.4072 20.9139 35.4341 21.0102 35.4418 21.1026C35.4688 21.3567 35.4958 21.5724 35.5997 21.8111C35.669 21.9767 35.7576 22.1346 35.8385 22.2924C35.877 22.3656 35.9078 22.4619 35.9578 22.5312C36.0117 22.6044 35.8423 21.9228 35.8269 22.2308C35.8077 22.562 35.9078 22.9471 36.031 23.2513C36.3082 23.9559 36.7357 24.5643 37.1092 25.219L36.9244 24.5412C36.9244 24.9302 36.8627 25.3961 36.9937 25.7658C37.1169 26.1123 37.3903 26.4165 37.5944 26.7169C37.7985 27.0172 38.1219 27.41 38.5224 27.2752C38.8843 27.152 38.892 26.6437 38.7573 26.3472C38.661 26.1316 38.5801 25.9044 38.4646 25.7003C38.299 25.3999 38.4531 26.2432 38.4954 25.9621C38.5185 25.8197 38.5031 25.6541 38.5031 25.5116C38.5031 24.8262 38.145 24.3757 37.7484 23.8597C37.217 23.1666 36.4507 22.2193 35.5227 22.1461C35.1145 22.1153 34.5523 22.0152 34.1673 22.1846C33.9863 22.2655 33.7553 22.4118 33.6051 22.5427C33.3971 22.7199 33.3278 22.9663 33.2277 23.2166C32.8773 24.0753 32.9312 25.2344 33.2662 26.0777C33.2893 26.1393 33.3124 26.2047 33.3394 26.2663C33.451 26.5128 33.2624 26.3857 33.3163 25.966C33.3009 26.0777 33.324 26.2086 33.3278 26.3241C33.3355 26.5436 33.3432 26.7592 33.3432 26.9787C33.3471 27.3984 33.3432 27.745 33.5358 28.1378C33.6474 28.365 33.7668 28.5921 33.8862 28.8193L33.7013 28.1416C33.6359 28.5613 33.5204 28.9657 33.6628 29.3777C33.7283 29.5664 33.8092 29.7781 33.9054 29.9514C34.0787 30.2556 33.8939 29.4662 33.8785 29.6703C33.8708 29.7743 33.8823 29.886 33.8862 29.9899C33.8939 30.2633 33.8785 30.5521 33.9709 30.814C34.0518 31.0373 34.1827 31.2607 34.2866 31.4724C34.3252 31.5495 34.3752 31.6342 34.406 31.715C34.252 31.2645 34.3406 31.5803 34.3714 31.6765C34.4291 31.8498 34.4984 32.0231 34.56 32.1964L34.5177 31.5572C34.4445 31.973 34.2866 32.4659 34.3906 32.8779C34.5061 33.3323 34.8989 33.7135 35.1877 34.0716L34.8565 33.1821C34.8796 33.5788 34.8719 33.9985 34.9798 34.3797C35.0529 34.6338 35.1261 34.888 35.207 35.1383C35.2647 35.3193 35.3225 35.5041 35.3918 35.6774C35.4688 35.8699 35.4264 35.6427 35.3725 35.5696C35.411 35.6196 35.411 35.7698 35.4226 35.8275C35.4996 36.2319 35.6036 36.5861 35.7846 36.9596C35.8577 37.106 35.954 37.2523 36.004 37.4063C35.8346 36.9134 35.9886 37.5026 36.0194 37.6335C36.0425 37.7182 36.058 37.8068 36.0888 37.8877C36.058 37.8029 36.0426 37.5835 36.0426 37.7875C36.0426 37.9724 36.0811 38.1765 36.108 38.3613C36.1427 38.6231 36.1812 38.8927 36.2389 39.1507C36.3275 39.5588 36.5855 39.9131 36.7973 40.2674L36.6124 39.5897C36.6047 39.8476 36.5816 40.1133 36.5855 40.3713C36.5932 40.7564 36.7665 41.1453 36.882 41.5073C37.063 42.0849 37.2825 42.6009 37.5597 43.14C37.7214 43.4557 38.1835 43.8831 38.5647 43.6752C38.9652 43.4557 38.765 42.8358 38.6148 42.5393L38.6379 42.5354Z" fill="black"/>
<path d="M18.9228 18.5419C19.4273 19.1157 19.9856 19.6702 20.4477 20.2786C20.9098 20.887 21.264 21.5493 21.6838 22.1731C22.4886 23.363 23.4628 24.4643 24.3831 25.5656C24.8298 26.1047 25.1956 26.6977 25.5845 27.2791C25.9734 27.8606 26.4278 28.392 26.8976 28.9349C27.8063 29.9861 28.7921 30.9758 29.5237 32.1618C29.9126 32.7894 30.2438 33.3555 30.7521 33.883C31.2604 34.4106 31.761 34.8649 32.1576 35.4464C32.5542 36.0278 32.9239 36.6901 33.4091 37.2215C33.8942 37.7529 34.4603 38.2766 34.8839 38.8658C35.3074 39.4549 35.6809 40.1403 36.143 40.7295C36.6051 41.3187 37.1981 41.8616 37.6679 42.4777C38.1377 43.0938 38.4727 43.7792 38.9271 44.3915C39.3814 45.0037 39.9436 45.4966 40.4365 46.0473C40.9294 46.5979 41.2683 47.2333 41.6649 47.8224C42.0615 48.4116 42.4389 49.0354 42.8239 49.6438C43.209 50.2522 43.7288 50.722 44.241 51.238C44.7531 51.754 45.1459 52.2584 45.5733 52.8206C45.7813 53.094 45.9892 53.3674 46.1971 53.6369C46.5706 54.1221 47.7489 53.2942 47.3831 52.8167C46.9172 52.2083 46.4782 51.5614 45.9776 50.98C45.477 50.3985 44.884 49.9249 44.3796 49.3627C43.906 48.8352 43.5748 48.1266 43.1975 47.5259C42.8201 46.9252 42.3965 46.3245 41.9922 45.7238C41.5879 45.1231 41.1027 44.6533 40.6252 44.1373C40.1477 43.6214 39.7704 43.0438 39.3699 42.4392C38.5998 41.2724 37.5947 40.3098 36.8169 39.1546C36.4126 38.5577 36.0391 37.9878 35.5539 37.4564C35.0687 36.925 34.5797 36.4476 34.1869 35.8661C33.7941 35.2847 33.4283 34.6108 32.9316 34.0948C32.4348 33.5788 31.8226 33.0744 31.4144 32.4814C31.0062 31.8884 30.6789 31.1606 30.2284 30.5676C29.7779 29.9746 29.2041 29.4047 28.6997 28.8271C28.1952 28.2495 27.6716 27.695 27.2018 27.0943C26.732 26.4936 26.37 25.8505 25.9503 25.2383C25.5306 24.626 25.0416 24.1177 24.5833 23.5709C24.1251 23.0241 23.6977 22.4465 23.2587 21.8805C22.8197 21.3144 22.4501 20.7176 22.0611 20.1207C21.6722 19.5239 21.2525 19.0348 20.7827 18.5034C20.5555 18.2454 20.3283 17.9875 20.1011 17.7295C19.693 17.2635 18.5262 18.1107 18.9151 18.5496L18.9228 18.5419Z" fill="black"/>
<path d="M39.3888 42.8704C39.5698 42.0156 39.7161 41.1453 39.9394 40.2982C40.1782 39.3779 40.4323 38.4614 40.6287 37.5296C40.8366 36.5476 41.0484 35.5657 41.2602 34.5799C41.472 33.5942 41.7531 32.6508 42.0573 31.6804C42.3615 30.71 42.5155 29.7435 42.7158 28.7654C42.8467 28.1185 41.4219 27.9067 41.2872 28.569C41.1139 29.4239 40.9984 30.3134 40.7365 31.1451C40.4516 32.0578 40.1397 32.955 39.9394 33.8868C39.5197 35.8507 39.1077 37.8107 38.6032 39.7514C38.353 40.7141 38.1681 41.6921 37.964 42.6663C37.8293 43.3094 39.2579 43.525 39.3926 42.8627L39.3888 42.8704Z" fill="black"/>
<path d="M38.3722 41.9963C36.4738 42.0964 34.5793 42.2736 32.6848 42.3544C32.111 42.3775 31.5219 42.3621 30.952 42.4276C30.5053 42.4815 30.0548 42.6009 29.6119 42.6894C29.2192 42.7664 28.8033 42.8974 28.4028 42.9089C27.806 42.9282 27.186 42.8242 26.5892 42.7857C25.5533 42.7164 24.5214 42.8743 23.4894 42.9667C22.8463 43.0244 23.3585 44.3606 23.9206 44.3106C24.7947 44.2336 25.7228 44.041 26.6007 44.1026C27.5826 44.1681 28.5453 44.3298 29.5118 44.1411C30.101 44.0256 30.694 43.8716 31.2908 43.7907C31.7067 43.733 32.1341 43.7445 32.5538 43.7253C33.5974 43.6791 34.6332 43.6059 35.6767 43.5212C36.7203 43.4365 37.7599 43.3941 38.7996 43.3402C39.4388 43.3055 38.9344 41.9655 38.3684 41.9963H38.3722Z" fill="black"/>
</g>
<g clip-path="url(#clip1_65_2424)">
<path d="M65.1615 57.6883C64.2264 55.7588 63.7549 53.1102 63.7549 49.7346C63.7549 43.7928 65.0122 36.8569 67.5306 28.9306C70.0452 21.0044 73.2866 14.2178 77.2471 8.56682C81.2075 2.92374 85.2504 0.0982666 89.3719 0.0982666C92.1026 0.0982666 94.4168 1.5169 96.3184 4.35416C98.22 7.19141 99.6227 10.9129 100.534 15.5185C101.446 20.1241 101.898 25.0756 101.898 30.3768C101.898 35.678 101.481 40.2954 100.652 44.8735C99.8231 49.4516 98.6051 53.1456 96.9981 55.9593C95.3912 58.769 93.517 60.1759 91.3757 60.1759C88.2718 60.1759 86.048 58.8908 84.7121 56.3208C83.3724 53.7508 82.7319 49.601 82.783 43.8714C81.3921 48.5832 79.6516 52.5483 77.5614 55.7588C75.4711 58.9694 72.7955 60.5767 69.5305 60.5767C67.5503 60.5767 66.0887 59.6139 65.1536 57.6844L65.1615 57.6883ZM75.9623 56.0025C77.7303 53.6997 79.0662 51.2515 79.9777 48.6539C80.8892 46.0564 81.8243 42.9401 82.7869 39.2972C82.893 38.975 83.0816 38.8139 83.3488 38.8139C83.832 38.8139 84.0717 39.0811 84.0717 39.6155C83.9617 41.9734 83.9106 43.5806 83.9106 44.4334C83.9106 49.6835 84.4843 53.4285 85.6355 55.6803C86.7867 57.9281 88.7001 59.052 91.3757 59.052C93.2499 59.052 94.8961 57.7001 96.3145 54.9965C97.7328 52.2928 98.8172 48.7325 99.5677 44.3116C100.318 39.8946 100.691 35.2221 100.691 30.2942C100.691 25.3664 100.275 20.4542 99.4459 16.0372C98.6169 11.6202 97.3596 8.04416 95.6701 5.31301C93.9846 2.58185 91.8826 1.21824 89.368 1.21824C85.5137 1.21824 81.6829 4.04371 77.8836 9.69072C74.0803 15.3417 70.9646 22.0733 68.5286 29.8934C66.0926 37.7136 64.8746 44.4334 64.8746 50.0529C64.8746 53.0002 65.2479 55.303 65.9983 56.9613C66.7488 58.6197 67.9275 59.4528 69.5305 59.4528C72.0451 59.4528 74.1864 58.3014 75.9544 55.9986L75.9623 56.0025ZM87.4467 11.7067C87.5528 11.5731 87.6864 11.5062 87.8475 11.5062C88.0086 11.5062 88.1422 11.5731 88.2482 11.7067C88.3543 11.8403 88.4093 12.0171 88.4093 12.2293C88.4093 14.6933 88.1147 17.4912 87.5253 20.6232C86.936 23.7552 86.1069 26.6632 85.0343 29.3393C84.8732 29.6616 84.6611 29.8227 84.3939 29.8227C83.9656 29.8227 83.832 29.4494 83.9931 28.6988C86.1894 21.1498 87.2856 15.66 87.2856 12.2332C87.2856 12.021 87.3367 11.8442 87.4467 11.7106V11.7067Z" fill="black" stroke="black" stroke-width="0.186131" stroke-miterlimit="10"/>
</g>
<defs>
<clipPath id="clip0_65_2424">
<rect width="60.6788" height="60.6788" fill="white"/>
</clipPath>
<clipPath id="clip1_65_2424">
<rect width="38.3431" height="60.6788" fill="white" transform="translate(63.6567)"/>
</clipPath>
</defs>
</svg>
