<svg width="314" height="49" viewBox="0 0 314 49" fill="none" xmlns="http://www.w3.org/2000/svg">
	<path
		d="M0.484 48V1.1H19.512C29.964 1.1 34.721 5.723 34.721 12.825C34.721 17.917 32.376 20.798 27.954 22.205C34.922 24.081 37.937 28.436 37.937 34.265C37.937 41.836 32.711 48 20.316 48H0.484ZM10.534 20.128H19.11C22.125 20.128 24.671 18.52 24.671 14.701C24.671 10.882 22.125 9.542 19.11 9.542H10.534V20.128ZM10.534 39.558H19.981C25.609 39.558 27.552 36.543 27.552 33.126C27.552 29.575 25.609 26.493 19.981 26.493H10.534V39.558ZM77.8486 48H67.9326L59.0216 32.389H50.5796V48H40.5296V1.1H59.4906C71.9526 1.1 77.3796 7.599 77.3796 16.778C77.3796 23.478 74.4986 28.704 67.9996 31.049L77.8486 48ZM50.5796 9.81V23.679H59.1556C64.6496 23.679 67.0616 20.932 67.0616 16.778C67.0616 12.557 64.6496 9.81 59.1556 9.81H50.5796ZM114.086 48L111.071 39.223H91.3062L88.2912 48H77.7722L94.7232 1.1H107.654L124.605 48H114.086ZM93.8522 31.786H108.525L101.49 11.351H100.887L93.8522 31.786ZM126.575 48V1.1H137.027L155.921 31.92H156.122V1.1H166.172V48H155.318L136.826 17.783H136.625V48H126.575ZM170.808 48V1.1H188.563C203.169 1.1 210.74 9.475 210.74 24.55C210.74 39.625 203.169 48 188.563 48H170.808ZM180.858 39.29H187.558C197.139 39.29 200.489 34.868 200.489 24.55C200.489 14.232 197.139 9.81 187.558 9.81H180.858V39.29ZM213.994 48V1.1H224.044V48H213.994ZM228.653 48V1.1H239.105L257.999 31.92H258.2V1.1H268.25V48H257.396L238.904 17.783H238.703V48H228.653ZM293.932 48.67C279.795 48.67 271.554 39.759 271.554 24.684C271.554 9.408 280.532 0.496997 293.664 0.496997C303.379 0.496997 311.486 5.254 313.094 15.974H303.178C301.57 10.48 297.215 9.14 293.597 9.14C285.624 9.14 281.872 15.706 281.872 24.416C281.872 33.193 285.49 40.027 293.664 40.027C298.689 40.027 303.982 37.548 303.982 30.245H294.937V22.205H313.965V26.024C313.965 41.434 306.863 48.67 293.932 48.67Z"
		fill="black" />
</svg>