<svg width="143" height="55" viewBox="0 0 143 55" fill="none" xmlns="http://www.w3.org/2000/svg">
	<path
		d="M35.3553 11.4638C36.9048 12.0881 37.9021 13.2874 38.4014 14.7744C38.7514 15.9523 38.8361 17.3159 38.6044 18.7488C38.5574 19.1161 38.4741 19.5271 38.3871 19.8981C38.0934 21.0947 37.5561 22.2733 36.9351 23.4193L35.3019 22.7623C35.8175 21.7873 36.2495 20.7797 36.4778 19.7504C36.5758 19.4995 36.6302 19.2121 36.6845 18.9248C36.7422 18.2338 36.6835 17.5939 36.4758 17.0886C36.1662 16.3506 35.5876 15.7583 34.6673 15.399C34.038 15.134 33.2197 15.0073 32.2887 14.9716C28.1212 14.8293 23.1925 17.8221 18.7047 22.1056C13.5519 27.055 9.07672 33.6767 6.98279 39.4347C6.02482 42.1846 5.75749 44.5485 7.01376 46.813C7.78938 48.2343 9.21198 49.2333 11.2159 49.5336C11.9505 49.6276 12.7178 49.6379 13.6014 49.5973C16.9649 49.3293 20.7604 48.0537 24.4859 45.5745C28.2514 43.0916 31.34 39.8238 36.6664 33.6888L38.1944 34.5168C32.4029 41.2994 28.7804 45.3422 24.5536 48.5127C20.5884 51.4575 16.5606 53.2788 13.0334 53.5214C12.0298 53.5731 11.1025 53.5774 10.2842 53.4507C7.74936 53.0781 6.02111 51.8248 5.00517 49.9819C3.31193 46.9103 4.03492 41.157 5.44654 37.1958C7.62747 31.0668 12.3896 24.0558 17.804 18.8807C22.7352 14.1533 28.2456 10.9055 33.0167 11.0328C33.9077 11.0722 34.686 11.2025 35.3553 11.4638ZM44.8931 23.6175C44.6318 24.2868 44.1342 25.0181 43.7092 25.6621C43.6475 25.8694 43.5895 26.1167 43.6805 26.2294C43.8079 26.2984 44.0952 26.3527 44.3788 26.367C44.7861 26.4104 45.1535 26.4574 45.4954 26.668C46.0921 27.0167 46.3544 27.6783 45.7264 29.1879C46.0871 30.0422 45.4847 31.8318 42.7349 35.7139C42.0592 36.7036 41.2639 38.1478 40.8539 39.3954C40.8649 39.5154 40.8759 39.6354 40.8869 39.7554C40.9853 39.9481 41.0763 40.0607 41.3236 40.1187C41.6472 40.1294 42.1999 39.9981 42.9778 39.6847C44.3301 39.0365 45.653 38.0682 46.8377 36.9109C48.2476 35.5716 49.4392 34.0507 50.2419 32.6864L50.2819 32.6828L50.3145 32.5991L51.9114 33.2998L51.8788 33.3834C50.8618 35.0497 49.2999 37.3709 47.5013 39.3105C46.106 40.8097 44.6124 42.1163 43.0638 42.8229C41.8605 43.3366 40.9516 43.5409 40.3006 43.4796C39.446 43.3966 38.9183 42.9206 38.7287 42.1716C38.5137 41.5863 38.5677 40.8553 38.778 40.0697C38.8034 39.9061 38.8687 39.7387 38.8904 39.5351C38.9374 39.1678 38.9844 38.8004 39.0677 38.3895C39.4227 36.5419 40.5446 34.261 41.5073 32.8821C42.2919 31.7614 42.8585 30.9028 43.2872 30.2989C42.7962 30.2229 42.3052 30.1469 41.9049 29.7399C41.7703 29.5909 41.6319 29.4019 41.5736 29.2056C41.036 29.9405 40.324 30.9738 39.6447 31.9234C38.7147 33.2187 37.0621 35.8709 36.7751 36.2602L36.7351 36.2639L35.3525 35.2613L35.3489 35.2213L35.3889 35.2176C35.5342 35.0429 36.1008 34.1843 37.6408 31.6231C38.5814 30.0042 39.9727 28.0213 40.939 26.6823C41.7236 25.5617 42.5516 24.0338 43.3072 23.0369L44.8931 23.6175ZM65.2445 26.8342C64.3155 29.4604 61.4773 31.9389 58.2931 33.7232C56.1085 34.9721 53.7747 35.912 51.7604 36.379C51.9721 37.368 52.409 38.1749 53.064 38.7199C53.6753 39.2285 54.4646 39.4789 55.3009 39.3619C57.1371 39.1532 59.3254 37.9443 61.3316 36.51C63.7885 34.7118 65.8488 32.5466 66.5314 31.1933L68.2337 31.723C67.4204 33.4109 65.7891 35.4158 63.8595 37.2463C62.0753 38.9023 60 40.4638 57.9498 41.4181C57.6408 41.5674 57.3318 41.7168 57.0591 41.8224C55.0742 42.6094 53.427 42.6797 52.1794 42.2697C50.8881 41.8234 50.0291 40.8131 49.6645 39.4752C49.6098 39.3189 49.5952 39.1589 49.5842 39.0389C49.4382 38.3262 49.4448 37.5189 49.5752 36.7406L49.3352 36.7626C48.9715 36.7556 48.6079 36.7486 48.2406 36.7016L48.9482 34.7411C49.1519 34.7627 49.3555 34.7844 49.5955 34.7624C49.6755 34.7551 49.7555 34.7477 49.8355 34.7404C50.0528 33.5911 50.4702 32.4235 51.0875 31.2376C52.0824 29.3313 53.561 27.4211 55.1926 25.8598C56.8206 24.2586 58.6378 22.9627 60.3137 22.325C61.637 21.8004 62.8733 21.6467 63.9136 21.9951C64.4992 22.2237 64.9759 22.5834 65.2672 23.1213C65.5622 23.6993 65.6615 25.2229 65.4875 25.9649C65.4368 26.2922 65.3825 26.5795 65.2445 26.8342ZM52.2461 34.1968C53.893 33.6828 55.7069 32.7905 57.4588 31.6619C60.243 29.9143 62.6596 27.6761 63.3962 25.5919C63.4689 25.5046 63.4979 25.3809 63.5306 25.2972C63.3923 25.1082 63.2176 24.9629 62.9666 24.8649C62.4246 24.6726 61.7083 24.7786 60.9304 25.0919C59.5308 25.6639 57.9425 26.8178 56.4672 28.3244C54.952 29.8347 53.546 31.6576 52.6237 33.4765C52.4857 33.7311 52.3877 33.9821 52.2461 34.1968ZM87.3551 29.4459L89.1917 29.6809C88.4477 31.6851 86.1331 34.156 84.5305 35.5936C82.55 37.3078 80.3764 38.6768 78.8128 38.7798C78.3328 38.8238 77.9182 38.7004 77.6162 38.4861C76.9249 37.9848 76.8296 36.9448 77.1522 35.6246L77.1849 35.5409C76.4109 36.3379 75.5533 37.1022 74.692 37.8265C72.5514 39.5554 70.2032 40.779 68.134 40.646C66.752 40.5306 65.8171 40.0113 65.3328 39.128C64.8048 38.2084 64.7348 37.0048 65.0901 35.6008C65.0751 34.9972 65.1365 34.3462 65.3141 33.6443C65.6404 32.364 66.3158 30.9307 67.2747 29.5118C69.7483 25.6953 77.4956 18.2494 81.8907 21.3153C82.6694 21.8892 83.27 22.7215 83.6016 23.6995C84.0376 23.1755 84.6189 22.4769 85.1422 22.0256L86.1179 23.4285C84.4716 24.8298 81.2757 30.4468 80.3244 32.3894C79.8161 33.4443 79.4205 34.4083 79.1701 35.1976C79.1811 35.3176 79.1848 35.3576 79.2285 35.3939C79.2721 35.4303 79.3121 35.4266 79.4321 35.4156C80.5957 35.3493 82.366 34.4206 83.9869 33.183C85.1209 32.3531 86.8725 30.7808 87.3551 29.4459ZM74.457 34.8229C78.6842 32.0961 79.5221 29.3572 82.2394 25.5587C82.1697 24.7988 81.5911 24.2065 80.8418 23.9525C77.2189 22.7115 70.5182 29.2548 68.644 32.129C67.8993 33.246 67.3547 34.3446 67.0827 35.3375C67.101 35.5375 67.1594 35.7338 67.254 35.8865C67.538 36.3445 68.091 36.6568 68.9419 36.6998C70.6439 36.7858 72.6288 35.9989 74.457 34.8229ZM95.0055 19.1854C94.5842 19.8694 94.2028 20.5497 93.8215 21.23C91.225 25.9048 89.1157 30.6156 88.5431 33.1688C88.5071 33.6561 88.5401 34.0161 88.613 34.3724C88.7954 35.0413 89.0757 35.4593 89.4977 35.6627C89.5813 35.6953 89.705 35.7243 89.7923 35.797C91.1636 36.236 92.7885 35.482 94.3258 34.2117C96.012 32.8068 97.6033 30.8056 98.6203 29.1393C98.8673 28.7537 99.1142 28.368 99.2849 28.0297L99.2812 27.9897L99.3212 27.9861L99.3176 27.9461L99.3576 27.9424L99.3539 27.9024L101.02 28.4757L101.023 28.5157L100.983 28.5194L100.987 28.5594C100.682 29.1923 100.265 29.9163 99.7705 30.6876C98.4993 32.6595 96.741 35.039 94.8877 36.8223C92.8055 38.7475 90.5336 39.9238 88.493 39.2235C88.3694 39.1945 88.242 39.1255 88.1147 39.0565C87.3144 38.6862 86.7758 38.0902 86.4841 37.1086C86.2435 36.2433 86.2535 35.0323 86.5905 33.4284L86.5868 33.3884C86.6518 32.7774 86.7168 32.1665 86.8545 31.4682C87.3798 28.8386 89.4094 24.5788 91.959 20.2714C92.1333 19.9731 92.3113 19.7147 92.4856 19.4164C91.4456 19.5118 90.213 19.7054 89.1914 20.0007L89.0954 18.0735C90.6334 17.6905 92.2696 17.5002 93.7895 17.3609C95.7691 14.3157 97.927 11.4558 99.991 9.3306L100.064 9.24327L101.301 10.4206C99.6803 12.1018 97.922 14.4814 96.2294 17.1372L96.2694 17.1336C98.633 16.9572 101.048 16.8973 103.415 16.7609L103.071 18.7285C100.42 18.8505 97.769 18.9725 95.0455 19.1818L95.0055 19.1854ZM106.186 21.9923C104.112 24.4412 101.896 27.5484 100.291 30.2769C99.7313 31.2155 99.252 32.1468 98.918 32.9035C98.929 33.0234 98.9 33.1471 98.911 33.2671C98.9404 33.5871 99.0824 33.8161 99.2607 34.0014C99.4753 34.1431 99.7263 34.2411 100.006 34.2154C101.21 34.1454 102.588 33.3335 103.816 32.2125C105.12 31.0442 106.57 29.2577 107.151 27.6717L108.951 27.9504C108.145 30.162 106.209 32.7998 104.508 34.4884C102.848 36.1733 100.951 37.4766 99.227 37.5942C98.5034 37.6202 97.8814 37.4352 97.3974 36.9956C96.9571 36.5923 96.6221 36.018 96.5561 35.298C96.4938 34.618 96.6931 33.7124 97.0888 32.7485C97.8608 29.2896 102.366 23.8752 104.84 20.946L106.186 21.9923ZM110.698 14.8834C110.287 15.2437 109.902 15.4403 109.422 15.4843C108.982 15.5246 108.607 15.3977 108.338 15.0997C108.028 14.8053 107.952 14.409 107.991 13.9617C108.071 13.5107 108.274 13.0888 108.645 12.7321C109.012 12.3355 109.437 12.1351 109.877 12.0948C110.357 12.0508 110.732 12.1778 111.005 12.5158C111.274 12.8138 111.391 13.2064 111.351 13.6537C111.272 14.1047 111.068 14.5267 110.698 14.8834ZM109.667 36.6373C108.616 37.0563 107.733 37.0969 107.012 36.7193C106.547 36.4796 106.11 36.1163 105.851 35.4947C105.596 34.913 105.523 34.1131 105.66 32.9711C105.711 32.6438 105.762 32.3165 105.852 31.9855C105.863 31.6618 105.874 31.3382 105.921 30.9709C106.217 28.927 107.277 26.4098 108.745 23.9359C110.281 21.3347 112.301 18.7295 114.303 16.8116L115.428 18.0799C113.763 19.7248 111.987 22.348 110.502 25.0655C109.231 27.4811 108.204 29.9146 107.772 31.8095C107.765 32.1732 107.795 32.4932 107.86 32.7695C107.933 33.1258 108.075 33.3548 108.246 33.4601C108.497 33.5581 108.897 33.5214 109.403 33.3138C110.144 33.0441 111.02 32.4798 112.038 31.7009C113.848 30.3249 115.803 28.3307 117.506 26.2385C117.939 25.6745 118.371 25.1105 118.763 24.5502C118.679 24.0739 118.675 23.5903 118.668 23.0666C118.678 22.2993 118.765 21.4847 118.931 20.6628C120.221 14.4944 124.517 15.1494 123.044 20.2051C122.112 23.235 119.554 27.0188 118.41 28.6161C116.692 30.9919 114.723 33.2698 112.916 34.6857C111.706 35.563 110.641 36.2657 109.667 36.6373ZM121.036 19.8648C120.532 21.4034 120.707 21.5487 121.276 19.8428C121.759 18.5079 121.352 18.9082 121.036 19.8648ZM138.124 20.1539C137.195 22.7801 134.357 25.2586 131.173 27.0429C128.988 28.2918 126.654 29.2318 124.64 29.6987C124.851 30.6877 125.288 31.4946 125.943 32.0396C126.555 32.5483 127.344 32.7986 128.18 32.6816C130.017 32.473 132.205 31.264 134.211 29.8298C136.668 28.0315 138.728 25.8663 139.411 24.513L141.113 25.0427C140.3 26.7306 138.669 28.7355 136.739 30.5661C134.955 32.222 132.879 33.7836 130.829 34.7378C130.52 34.8872 130.211 35.0365 129.939 35.1422C127.954 35.9291 126.306 35.9994 125.059 35.5894C123.768 35.1431 122.909 34.1328 122.544 32.7949C122.489 32.6386 122.475 32.4786 122.464 32.3586C122.318 31.646 122.324 30.8387 122.455 30.0604L122.215 30.0824C121.851 30.0754 121.487 30.0684 121.12 30.0214L121.828 28.0608C122.031 28.0825 122.235 28.1041 122.475 28.0821C122.555 28.0748 122.635 28.0675 122.715 28.0601C122.932 26.9108 123.35 25.7432 123.967 24.5573C124.962 22.6511 126.44 20.7408 128.072 19.1796C129.7 17.5783 131.517 16.2824 133.193 15.6448C134.516 15.1201 135.753 14.9665 136.793 15.3148C137.379 15.5434 137.855 15.9031 138.147 16.4411C138.442 17.019 138.541 18.5426 138.367 19.2846C138.316 19.6119 138.262 19.8992 138.124 20.1539ZM125.125 27.5165C126.772 27.0025 128.586 26.1102 130.338 24.9816C133.122 23.2341 135.539 20.9958 136.276 18.9116C136.348 18.8243 136.377 18.7006 136.41 18.617C136.272 18.428 136.097 18.2826 135.846 18.1846C135.304 17.9923 134.588 18.0983 133.81 18.4116C132.41 18.9836 130.822 20.1375 129.347 21.6441C127.831 23.1544 126.425 24.9773 125.503 26.7962C125.365 27.0509 125.267 27.3018 125.125 27.5165Z"
		fill="black" />
	<path
		d="M120.217 39.5021L100.68 41.7343L80.1527 44.0793L58.6364 46.5369L38.511 48.8362C38.2555 48.8659 38.0165 49.0295 37.8568 49.2863C37.3561 50.0836 37.8347 51.2269 38.6295 51.1353L57.0802 49.0263L78.6371 46.563L98.134 44.3365L118.661 41.9916L139.808 39.5774C140.068 39.5479 140.307 39.3803 140.471 39.1157C140.96 38.3137 140.48 37.1865 139.694 37.2785L120.217 39.5021Z"
		fill="black" />
</svg>