<svg width="51" height="51" viewBox="0 0 51 51" fill="none" xmlns="http://www.w3.org/2000/svg">
	<path
		d="M25.9913 1.53613L27.2215 2.76631L25.0578 7.31304L29.6107 5.15559L30.8409 6.38577L26.1057 11.121L25.1289 10.1443L28.1117 7.16159L28.0807 7.13068L24.0409 9.05941L23.3115 8.32995L25.2464 4.29941L25.2124 4.26541L22.2297 7.24813L21.2529 6.27141L25.9882 1.53613H25.9913Z"
		fill="black" />
	<path fill-rule="evenodd" clip-rule="evenodd"
		d="M25.8963 1.44427C25.9207 1.41993 25.9537 1.40625 25.9881 1.40625H25.9912C26.0257 1.40625 26.0587 1.41993 26.083 1.44427L27.3132 2.67445C27.3521 2.71331 27.3622 2.77242 27.3386 2.82203L25.3317 7.03954L29.5551 5.03821C29.6047 5.01471 29.6637 5.02493 29.7025 5.06373L30.9327 6.29391C30.9834 6.34461 30.9834 6.4268 30.9327 6.4775L26.1974 11.2128C26.173 11.2371 26.14 11.2508 26.1056 11.2508C26.0712 11.2508 26.0381 11.2371 26.0138 11.2128L25.0371 10.236C24.9864 10.1853 24.9864 10.1032 25.0371 10.0525L27.5724 7.51715L24.0968 9.17649C24.0472 9.20019 23.988 9.19003 23.9491 9.15114L23.2196 8.42168C23.1806 8.38271 23.1705 8.32339 23.1944 8.2737L24.8626 4.79862L22.3214 7.33986C22.297 7.36421 22.264 7.37789 22.2296 7.37789C22.1952 7.37789 22.1621 7.36421 22.1378 7.33986L21.1611 6.36314C21.1104 6.31244 21.1104 6.23024 21.1611 6.17955L25.8963 1.44427ZM25.9897 1.71811L21.4365 6.27134L22.2296 7.06448L25.1205 4.17355C25.1712 4.12285 25.2534 4.12285 25.3041 4.17355L25.3381 4.20755C25.3771 4.24651 25.3872 4.30584 25.3634 4.35552L23.4683 8.30314L24.0678 8.90265L28.0248 7.01346C28.0744 6.98976 28.1336 6.99992 28.1725 7.03882L28.2034 7.06973C28.2541 7.12043 28.2541 7.20262 28.2034 7.25332L25.3125 10.1443L26.1056 10.9374L30.6573 6.3857L29.5836 5.31202L25.1134 7.43029C25.0637 7.4538 25.0047 7.44356 24.9659 7.4047C24.9271 7.36584 24.917 7.30678 24.9406 7.2572L27.0648 2.79323L25.9897 1.71811Z"
		fill="black" />
	<path
		d="M30.6741 13.9214L28.7546 12.002L27.5739 12.5954L26.5508 11.5724L32.9335 8.48145L34.1884 9.73635L31.0975 16.1191L30.0744 15.096L30.6679 13.9153L30.6741 13.9214ZM31.1779 12.9231L32.5595 10.1753L32.5008 10.1165L29.753 11.4982L31.1779 12.9231Z"
		fill="black" />
	<path fill-rule="evenodd" clip-rule="evenodd"
		d="M32.8769 8.36455C32.9266 8.34045 32.9862 8.35051 33.0252 8.38959L34.2801 9.6445C34.3192 9.68358 34.3293 9.74313 34.3052 9.79287L31.2143 16.1756C31.196 16.2134 31.1605 16.24 31.1191 16.247C31.0776 16.254 31.0354 16.2405 31.0057 16.2108L29.9826 15.1877C29.943 15.1481 29.9332 15.0876 29.9584 15.0376L30.5097 13.9407L28.729 12.16L27.6321 12.7114C27.5821 12.7365 27.5216 12.7268 27.482 12.6872L26.4589 11.6641C26.4292 11.6344 26.4157 11.5921 26.4227 11.5507C26.4297 11.5093 26.4563 11.4738 26.4941 11.4555L32.8769 8.36455ZM30.7593 13.8231C30.7594 13.8232 30.7595 13.8233 30.7596 13.8234L30.7658 13.8296C30.8165 13.8803 30.8165 13.9625 30.7658 14.0132C30.7646 14.0144 30.7633 14.0156 30.7621 14.0168L30.2325 15.0704L31.0602 15.8982L34.0313 9.76281L32.9069 8.63846L26.7716 11.6096L27.5993 12.4373L28.6962 11.8859C28.7463 11.8608 28.8067 11.8706 28.8463 11.9101L30.7593 13.8231ZM32.4424 10.0005C32.4924 9.97534 32.5529 9.98509 32.5925 10.0247L32.6512 10.0834C32.6908 10.123 32.7006 10.1835 32.6754 10.2335L31.2938 12.9813C31.2751 13.0186 31.2396 13.0446 31.1985 13.0512C31.1573 13.0578 31.1155 13.0443 31.086 13.0148L29.6611 11.5899C29.6316 11.5604 29.6181 11.5186 29.6247 11.4775C29.6314 11.4363 29.6573 11.4009 29.6946 11.3821L32.4424 10.0005ZM29.9718 11.5334L31.1425 12.7042L32.3266 10.3493L29.9718 11.5334Z"
		fill="black" />
	<path
		d="M36.287 11.8352L38.0118 13.5599C39.4305 14.9787 39.3192 16.5612 37.7985 18.0819C36.2778 19.6027 34.6952 19.7139 33.2765 18.2952L31.5518 16.5705L36.287 11.8352ZM34.0585 17.3185C34.9888 18.2488 35.7616 18.1283 36.8032 17.0867C37.8448 16.045 37.9654 15.2723 37.035 14.3419L36.3828 13.6898L33.4063 16.6663L34.0585 17.3185Z"
		fill="black" />
	<path fill-rule="evenodd" clip-rule="evenodd"
		d="M36.1957 11.7433C36.2464 11.6926 36.3286 11.6926 36.3792 11.7433L38.104 13.4681C38.8319 14.196 39.1805 14.9803 39.1375 15.7895C39.0946 16.5956 38.6645 17.3998 37.8907 18.1737C37.1169 18.9475 36.3126 19.3776 35.5066 19.4204C34.6974 19.4635 33.9131 19.1149 33.1851 18.3869L31.4604 16.6622C31.436 16.6379 31.4224 16.6048 31.4224 16.5704C31.4224 16.536 31.436 16.503 31.4604 16.4786L36.1957 11.7433ZM36.2875 12.0187L31.7358 16.5704L33.3687 18.2033C34.0595 18.8941 34.7758 19.1993 35.4928 19.1612C36.2129 19.1229 36.9602 18.737 37.7071 17.9901C38.454 17.2432 38.8399 16.4958 38.8782 15.7757C38.9163 15.0588 38.6111 14.3424 37.9204 13.6517L36.2875 12.0187ZM36.2915 13.5979C36.3422 13.5472 36.4244 13.5472 36.4751 13.5979L37.1272 14.2501C37.6055 14.7284 37.8378 15.1905 37.7882 15.6854C37.7395 16.1716 37.4214 16.6525 36.8954 17.1784C36.3695 17.7043 35.8887 18.0225 35.4025 18.0712C34.9075 18.1208 34.4454 17.8885 33.9671 17.4102L33.3149 16.758C33.2642 16.7073 33.2642 16.6251 33.3149 16.5744L36.2915 13.5979ZM33.5903 16.6662L34.1507 17.2266C34.6028 17.6787 34.9922 17.8513 35.3766 17.8128C35.7698 17.7734 36.1961 17.5105 36.7118 16.9948C37.2276 16.4791 37.4905 16.0527 37.5299 15.6596C37.5684 15.2752 37.3957 14.8857 36.9437 14.4337L36.3833 13.8733L33.5903 16.6662Z"
		fill="black" />
	<path
		d="M40.7476 16.2922L43.8602 19.4048L42.9793 20.2857L40.8435 18.1499L39.7802 19.2131L41.7213 21.1542L40.93 21.9455L38.9889 20.0044L37.8669 21.1264L40.0676 23.3271L39.1867 24.2081L36.0093 21.0306L40.7446 16.2953L40.7476 16.2922Z"
		fill="black" />
	<path fill-rule="evenodd" clip-rule="evenodd"
		d="M40.7476 16.1624C40.782 16.1623 40.815 16.176 40.8394 16.2004L43.9519 19.3129C44.0026 19.3636 44.0026 19.4458 43.9519 19.4965L43.071 20.3774C43.0467 20.4018 43.0136 20.4154 42.9792 20.4154C42.9448 20.4154 42.9118 20.4018 42.8874 20.3774L40.8434 18.3334L39.9637 19.2131L41.813 21.0624C41.8637 21.1131 41.8637 21.1953 41.813 21.246L41.0217 22.0372C40.971 22.0879 40.8888 22.0879 40.8381 22.0372L38.9888 20.1879L38.0504 21.1264L40.1594 23.2353C40.1837 23.2596 40.1974 23.2927 40.1974 23.3271C40.1974 23.3615 40.1837 23.3945 40.1594 23.4189L39.2785 24.2998C39.2278 24.3505 39.1456 24.3505 39.0949 24.2998L35.9174 21.1223C35.8931 21.098 35.8794 21.065 35.8794 21.0305C35.8794 20.9961 35.8931 20.9631 35.9174 20.9387L40.6557 16.2004C40.6801 16.1761 40.7131 16.1624 40.7476 16.1624ZM40.7476 16.4758L36.1928 21.0305L39.1867 24.0244L39.884 23.3271L37.7751 21.2181C37.7244 21.1675 37.7244 21.0853 37.7751 21.0346L38.8971 19.9126C38.9478 19.8619 39.0299 19.8619 39.0806 19.9126L40.9299 21.7619L41.5376 21.1542L39.6883 19.3049C39.664 19.2805 39.6503 19.2475 39.6503 19.2131C39.6503 19.1787 39.664 19.1456 39.6883 19.1213L40.7516 18.058C40.8023 18.0073 40.8845 18.0073 40.9352 18.058L42.9792 20.102L43.6765 19.4047L40.7476 16.4758Z"
		fill="black" />
	<path d="M41.8631 22.3999L43.8691 24.4059L43.1242 25.1508L41.1182 23.1448L41.8631 22.3999Z" fill="black" />
	<path fill-rule="evenodd" clip-rule="evenodd"
		d="M41.7717 22.308C41.8224 22.2573 41.9046 22.2573 41.9553 22.308L43.9613 24.314C44.012 24.3647 44.012 24.4469 43.9613 24.4976L43.2164 25.2425C43.192 25.2669 43.159 25.2806 43.1246 25.2806C43.0902 25.2806 43.0571 25.2669 43.0328 25.2425L41.0268 23.2365C41.0024 23.2122 40.9888 23.1792 40.9888 23.1447C40.9888 23.1103 41.0024 23.0773 41.0268 23.053L41.7717 22.308ZM41.3022 23.1447L43.1246 24.9672L43.6859 24.4058L41.8635 22.5834L41.3022 23.1447Z"
		fill="black" />
	<path
		d="M19.8682 7.66235L22.8819 10.676L22.001 11.5569L19.9641 9.51999L18.8544 10.6296L20.539 12.3142L19.7199 13.1333L18.0353 11.4487L16.1066 13.3774L15.1299 12.4007L19.8652 7.66544L19.8682 7.66235Z"
		fill="black" />
	<path fill-rule="evenodd" clip-rule="evenodd"
		d="M19.7764 7.57048C19.8271 7.5198 19.9093 7.5198 19.96 7.57049L22.9736 10.5841C23.0243 10.6348 23.0243 10.717 22.9736 10.7677L22.0927 11.6486C22.042 11.6993 21.9598 11.6993 21.9091 11.6486L19.964 9.70352L19.038 10.6296L20.6307 12.2223C20.6814 12.273 20.6814 12.3552 20.6307 12.4059L19.8116 13.225C19.7873 13.2493 19.7542 13.263 19.7198 13.263C19.6854 13.263 19.6524 13.2493 19.628 13.225L18.0353 11.6322L16.1983 13.4692C16.1476 13.5199 16.0654 13.5199 16.0148 13.4692L15.038 12.4924C14.9873 12.4418 14.9873 12.3596 15.038 12.3089L19.7733 7.57358L19.7733 7.57357L19.7764 7.57048ZM19.8682 7.84588L22.6982 10.6759L22.0009 11.3732L20.0558 9.42813C20.0314 9.40378 19.9984 9.39011 19.964 9.39011C19.9296 9.39011 19.8965 9.40378 19.8722 9.42813L18.7626 10.5378C18.7119 10.5885 18.7119 10.6707 18.7626 10.7214L20.3553 12.3141L19.7198 12.9496L18.1271 11.3569C18.0764 11.3062 17.9942 11.3062 17.9435 11.3569L16.1065 13.1938L15.3134 12.4007L19.8682 7.84588Z"
		fill="black" />
	<path
		d="M20.8851 13.4147C22.3409 11.9588 24.1738 11.8445 25.4874 13.1612C26.8011 14.4779 26.6867 16.3108 25.2309 17.7636C23.7751 19.2163 21.936 19.3399 20.6192 18.0263C19.3025 16.7127 19.4323 14.8643 20.882 13.4147H20.8851ZM24.2294 16.759C25.1752 15.8132 25.3638 14.7808 24.6127 14.0297C23.8616 13.2787 22.8323 13.4672 21.8834 14.413C20.9345 15.3588 20.7429 16.4005 21.4909 17.1485C22.2389 17.8965 23.2867 17.6987 24.2263 16.7559L24.2294 16.759Z"
		fill="black" />
	<path fill-rule="evenodd" clip-rule="evenodd"
		d="M23.2474 12.3778C22.481 12.4216 21.6875 12.7962 20.9773 13.5064C20.9717 13.512 20.9656 13.517 20.9592 13.5215C20.2618 14.2247 19.8897 15.0149 19.8432 15.7793C19.7966 16.5472 20.0775 17.302 20.7114 17.9343C21.3455 18.5669 22.0989 18.8486 22.8656 18.8027C23.6342 18.7566 24.4294 18.3803 25.1396 17.6716C25.8497 16.963 26.2243 16.1703 26.2685 15.4039C26.3126 14.6393 26.0288 13.8872 25.396 13.2528C24.7632 12.6186 24.0119 12.3341 23.2474 12.3778ZM23.2326 12.1186C24.0769 12.0703 24.8989 12.387 25.5798 13.0695C26.2605 13.7518 26.5764 14.5745 26.5277 15.4188C26.4792 16.2612 26.0687 17.1112 25.323 17.8554C24.5774 18.5994 23.7252 19.0113 22.8811 19.0618C22.035 19.1125 21.2106 18.7992 20.528 18.1181C19.8451 17.4368 19.5326 16.6107 19.5841 15.7635C19.6354 14.9184 20.048 14.0654 20.7906 13.3228C20.7963 13.3171 20.8025 13.3119 20.8091 13.3074C21.5511 12.5715 22.396 12.1664 23.2326 12.1186ZM23.3031 13.4566C23.8153 13.3787 24.3013 13.5343 24.7049 13.9379C25.1086 14.3416 25.2641 14.8283 25.1862 15.3408C25.1092 15.8473 24.8066 16.3658 24.3217 16.8508C24.3134 16.859 24.3043 16.8659 24.2946 16.8715C23.8193 17.3413 23.3075 17.6364 22.8072 17.7144C22.2927 17.7947 21.8024 17.6431 21.3995 17.2402C20.997 16.8377 20.8434 16.3491 20.9229 15.835C21.0015 15.3268 21.3055 14.8061 21.7922 14.321C22.2786 13.8362 22.7971 13.5336 23.3031 13.4566ZM24.1613 16.6438C24.6078 16.1904 24.8646 15.7284 24.9295 15.3018C24.9945 14.8738 24.8688 14.4689 24.5213 14.1215C24.1739 13.774 23.7697 13.6483 23.3422 13.7133C22.9087 13.7793 22.438 14.0439 21.9755 14.5049C21.5133 14.9656 21.247 15.4386 21.1795 15.8747C21.113 16.305 21.2377 16.7112 21.5831 17.0566C21.9282 17.4017 22.3358 17.5252 22.7672 17.4579C23.2042 17.3897 23.6773 17.1232 24.1348 16.6642C24.1428 16.6562 24.1517 16.6494 24.1613 16.6438Z"
		fill="black" />
	<path
		d="M26.1056 23.3704L26.8165 20.9286L25.9974 20.1095L24.4211 21.6859L23.4443 20.7091L28.1796 15.9739L30.0218 17.8161C31.2334 19.0277 31.1036 20.2115 30.1763 21.1388C29.4994 21.8157 28.6927 22.063 27.8242 21.6673L27.07 24.3348L26.1056 23.3704ZM26.8752 19.2286L27.7098 20.0632C28.2445 20.5979 28.7545 20.5546 29.1749 20.1342C29.5952 19.7139 29.6447 19.1946 29.11 18.663L28.2754 17.8284L26.8752 19.2286Z"
		fill="black" />
	<path fill-rule="evenodd" clip-rule="evenodd"
		d="M28.0882 15.882C28.1389 15.8313 28.2211 15.8313 28.2718 15.882L30.114 17.7242C30.736 18.3462 31.0281 18.9759 31.0314 19.5833C31.0347 20.1907 30.7492 20.7499 30.2686 21.2305C29.9178 21.5812 29.5269 21.8273 29.1035 21.9313C28.7213 22.0251 28.3201 22.0013 27.9096 21.8437L27.1953 24.37C27.1828 24.4144 27.1477 24.4487 27.1031 24.4603C27.0586 24.472 27.0112 24.4591 26.9786 24.4265L26.0142 23.4622C25.9807 23.4287 25.9681 23.3796 25.9814 23.3341L26.6708 20.966L25.9979 20.293L24.5133 21.7776C24.4889 21.802 24.4559 21.8156 24.4215 21.8156C24.3871 21.8156 24.354 21.802 24.3297 21.7776L23.353 20.8009C23.3023 20.7502 23.3023 20.668 23.353 20.6173L28.0882 15.882ZM23.6284 20.7091L24.4215 21.5022L25.9061 20.0177C25.9304 19.9933 25.9634 19.9796 25.9979 19.9796C26.0323 19.9796 26.0653 19.9933 26.0896 20.0177L26.9087 20.8367C26.9422 20.8702 26.9548 20.9193 26.9416 20.9648L26.2522 23.3329L27.0057 24.0864L27.6997 21.6319C27.71 21.5955 27.7356 21.5654 27.77 21.5495C27.8043 21.5336 27.8439 21.5334 27.8784 21.5491C28.288 21.7357 28.677 21.7687 29.0416 21.6791C29.4079 21.5892 29.7588 21.3731 30.085 21.0469C30.5316 20.6003 30.7746 20.104 30.7718 19.5847C30.7689 19.0655 30.5201 18.4975 29.9304 17.9078L28.18 16.1574L23.6284 20.7091ZM28.1841 17.7366C28.2348 17.6859 28.317 17.6859 28.3676 17.7366L29.2019 18.5708C29.202 18.5709 29.202 18.5709 29.202 18.5709C29.4851 18.8525 29.6285 19.146 29.6308 19.4393C29.6331 19.7327 29.4939 19.9992 29.2671 20.226C29.0404 20.4527 28.7759 20.5907 28.4838 20.5866C28.1924 20.5825 27.9008 20.4372 27.6184 20.1549L26.7839 19.3203C26.7595 19.296 26.7459 19.263 26.7459 19.2285C26.7459 19.1941 26.7595 19.1611 26.7839 19.1367L28.1841 17.7366ZM27.0593 19.2285L27.802 19.9713C28.0544 20.2237 28.2852 20.3241 28.4875 20.327C28.6891 20.3298 28.8899 20.236 29.0835 20.0424C29.2771 19.8488 29.3728 19.6455 29.3712 19.4413C29.3696 19.237 29.2704 19.0051 29.0189 18.755L29.0186 18.7547L28.2759 18.0119L27.0593 19.2285Z"
		fill="black" />
	<path d="M29.7439 22.5295L31.7499 24.5355L31.005 25.2805L28.999 23.2745L29.7439 22.5295Z" fill="black" />
	<path fill-rule="evenodd" clip-rule="evenodd"
		d="M29.6521 22.4379C29.7028 22.3872 29.785 22.3872 29.8357 22.4379L31.8417 24.4439C31.8924 24.4946 31.8924 24.5768 31.8417 24.6275L31.0968 25.3724C31.0461 25.4231 30.9639 25.4231 30.9132 25.3724L28.9072 23.3664C28.8565 23.3157 28.8565 23.2335 28.9072 23.1828L29.6521 22.4379ZM29.1825 23.2746L31.005 25.097L31.5663 24.5357L29.7439 22.7133L29.1825 23.2746Z"
		fill="black" />
	<path
		d="M34.0002 29.4935L32.0808 27.574L30.9 28.1675L29.877 27.1444L36.2597 24.0535L37.5146 25.3084L34.4237 31.6911L33.4006 30.668L33.994 29.4873L34.0002 29.4935ZM34.504 28.4951L35.8857 25.7473L35.827 25.6886L33.0791 27.0702L34.504 28.4951Z"
		fill="black" />
	<path fill-rule="evenodd" clip-rule="evenodd"
		d="M36.203 23.9366C36.2528 23.9125 36.3123 23.9225 36.3514 23.9616L37.6063 25.2165C37.6454 25.2556 37.6555 25.3151 37.6314 25.3649L34.5405 31.7476C34.5221 31.7854 34.4867 31.8121 34.4452 31.819C34.4038 31.826 34.3615 31.8125 34.3318 31.7828L33.3087 30.7597C33.2691 30.7202 33.2594 30.6597 33.2845 30.6097L33.8359 29.5127L32.0552 27.7321L30.9583 28.2834C30.9083 28.3085 30.8478 28.2988 30.8082 28.2592L29.7851 27.2361C29.7554 27.2064 29.7419 27.1641 29.7489 27.1227C29.7559 27.0813 29.7825 27.0458 29.8203 27.0275L36.203 23.9366ZM34.0858 29.3954C34.0858 29.3954 34.0858 29.3954 34.0858 29.3954L34.092 29.4016C34.1427 29.4523 34.1427 29.5345 34.092 29.5852C34.0907 29.5864 34.0895 29.5876 34.0882 29.5888L33.5586 30.6425L34.3863 31.4702L37.3574 25.3348L36.2331 24.2105L30.0978 27.1816L30.9255 28.0093L32.0224 27.458C32.0724 27.4328 32.1329 27.4426 32.1725 27.4822L34.0858 29.3954ZM35.7686 25.5725C35.8186 25.5474 35.8791 25.5571 35.9187 25.5967L35.9774 25.6554C36.017 25.695 36.0267 25.7555 36.0016 25.8055L34.62 28.5534C34.6012 28.5906 34.5658 28.6166 34.5246 28.6232C34.4835 28.6298 34.4417 28.6163 34.4122 28.5868L32.9873 27.1619C32.9578 27.1325 32.9443 27.0906 32.9509 27.0495C32.9575 27.0083 32.9835 26.9729 33.0208 26.9542L35.7686 25.5725ZM33.2979 27.1054L34.4687 28.2762L35.6528 25.9214L33.2979 27.1054Z"
		fill="black" />
	<path
		d="M39.6163 27.407L40.593 28.3837L36.7356 32.2412L38.8312 34.3368L37.9503 35.2177L34.8779 32.1453L39.6132 27.4101L39.6163 27.407Z"
		fill="black" />
	<path fill-rule="evenodd" clip-rule="evenodd"
		d="M39.6162 27.2773C39.6506 27.2773 39.6837 27.291 39.708 27.3154L40.6848 28.2921C40.7091 28.3164 40.7228 28.3495 40.7228 28.3839C40.7228 28.4183 40.7091 28.4513 40.6848 28.4757L36.9191 32.2413L38.9229 34.2452C38.9736 34.2959 38.9736 34.3781 38.9229 34.4288L38.042 35.3097C38.0177 35.334 37.9847 35.3477 37.9502 35.3477C37.9158 35.3477 37.8828 35.334 37.8584 35.3097L34.7861 32.2373C34.7617 32.213 34.748 32.18 34.748 32.1455C34.748 32.1111 34.7617 32.0781 34.7861 32.0537L39.5244 27.3154C39.5487 27.291 39.5818 27.2774 39.6162 27.2773ZM39.6162 27.5908L35.0615 32.1455L37.9502 35.0343L38.6475 34.337L36.6437 32.3331C36.6194 32.3088 36.6057 32.2758 36.6057 32.2413C36.6057 32.2069 36.6194 32.1739 36.6437 32.1495L40.4094 28.3839L39.6162 27.5908Z"
		fill="black" />
	<path
		d="M43.2017 30.9924L44.1785 31.9692L40.321 35.8266L42.4166 37.9223L41.5357 38.8032L38.4634 35.7308L43.1986 30.9955L43.2017 30.9924Z"
		fill="black" />
	<path fill-rule="evenodd" clip-rule="evenodd"
		d="M43.1099 30.9008C43.1606 30.8501 43.2428 30.8501 43.2935 30.9008L44.2702 31.8775C44.3209 31.9282 44.3209 32.0104 44.2702 32.0611L40.5045 35.8268L42.5084 37.8306C42.5591 37.8813 42.5591 37.9635 42.5084 38.0142L41.6275 38.8951C41.6031 38.9195 41.5701 38.9332 41.5357 38.9332C41.5012 38.9332 41.4682 38.9195 41.4439 38.8951L38.3715 35.8228C38.3208 35.7721 38.3208 35.6899 38.3715 35.6392L43.1099 30.9008ZM43.2017 31.1762L43.9948 31.9693L40.2292 35.735C40.1785 35.7857 40.1785 35.8679 40.2292 35.9186L42.233 37.9224L41.5357 38.6197L38.6469 35.731L43.2017 31.1762Z"
		fill="black" />
	<path
		d="M12.5056 18.2147L11.1363 18.3476L9.98649 19.4974L9.00977 18.5207L13.745 13.7854L14.7218 14.7621L12.4963 16.9876L16.5392 16.5765L17.6859 17.7232L13.8316 18.091L13.1269 22.6378L12.0079 21.5189L12.5087 18.2178L12.5056 18.2147Z"
		fill="black" />
	<path fill-rule="evenodd" clip-rule="evenodd"
		d="M13.6537 13.6935C13.7044 13.6428 13.7866 13.6428 13.8373 13.6935L14.814 14.6703C14.8647 14.721 14.8647 14.8032 14.814 14.8539L12.8464 16.8215L16.5265 16.4473C16.5653 16.4433 16.6039 16.457 16.6314 16.4846L17.7782 17.6314C17.8137 17.6669 17.8255 17.7198 17.8085 17.7671C17.7915 17.8144 17.7487 17.8476 17.6987 17.8524L13.9448 18.2106L13.2556 22.6576C13.2481 22.7059 13.2141 22.7459 13.1676 22.7611C13.1211 22.7763 13.0701 22.7641 13.0355 22.7295L11.9166 21.6106C11.8874 21.5814 11.8738 21.5401 11.88 21.4993L12.3563 18.3596L11.1956 18.4722L10.0787 19.5891C10.0544 19.6135 10.0213 19.6272 9.98692 19.6272C9.95249 19.6272 9.91947 19.6135 9.89512 19.5891L8.91839 18.6124C8.8677 18.5617 8.8677 18.4795 8.91839 18.4288L13.6537 13.6935ZM9.19378 18.5206L9.98692 19.3137L11.0449 18.2557C11.0662 18.2344 11.0942 18.2212 11.1242 18.2183L12.4935 18.0854C12.5321 18.0817 12.5703 18.0954 12.5978 18.1228L12.6009 18.1259C12.6301 18.1551 12.6436 18.1964 12.6374 18.2372L12.1466 21.4734L13.0382 22.365L13.7037 18.0711C13.7128 18.0124 13.7606 17.9674 13.8197 17.9617L17.3997 17.6201L16.4914 16.7118L12.5099 17.1167C12.4552 17.1222 12.403 17.0928 12.3795 17.0432C12.3559 16.9936 12.3661 16.9346 12.4049 16.8957L14.5386 14.7621L13.7455 13.9689L9.19378 18.5206Z"
		fill="black" />
	<path d="M18.3075 18.3477L19.2843 19.3244L14.549 24.0597L13.5723 23.0829L18.3075 18.3477Z" fill="black" />
	<path fill-rule="evenodd" clip-rule="evenodd"
		d="M18.2157 18.2558C18.2664 18.2051 18.3486 18.2051 18.3993 18.2558L19.376 19.2325C19.4003 19.2569 19.414 19.2899 19.414 19.3243C19.414 19.3587 19.4003 19.3918 19.376 19.4161L14.6407 24.1514C14.59 24.2021 14.5078 24.2021 14.4571 24.1514L13.4804 23.1747C13.4561 23.1503 13.4424 23.1173 13.4424 23.0829C13.4424 23.0484 13.4561 23.0154 13.4804 22.9911L18.2157 18.2558ZM13.7558 23.0829L14.5489 23.876L19.1006 19.3243L18.3075 18.5312L13.7558 23.0829Z"
		fill="black" />
	<path
		d="M19.9919 20.0322L21.0089 21.0491L19.7323 25.9977L19.7509 26.0162L22.8634 22.9037L23.8401 23.8804L19.1049 28.6157L18.0509 27.5617L19.3058 22.712L19.2872 22.6935L16.2365 25.7442L15.2598 24.7675L19.995 20.0322H19.9919Z"
		fill="black" />
	<path fill-rule="evenodd" clip-rule="evenodd"
		d="M19.8848 19.9587C19.9087 19.9239 19.9485 19.9023 19.9919 19.9023H19.995C20.0383 19.9023 20.0781 19.9239 20.102 19.9587L21.1006 20.9573C21.1331 20.9898 21.146 21.037 21.1345 21.0815L19.9639 25.6195L22.7715 22.8118C22.7959 22.7875 22.8289 22.7738 22.8633 22.7738C22.8978 22.7738 22.9308 22.7875 22.9551 22.8118L23.9319 23.7885C23.9826 23.8392 23.9826 23.9214 23.9319 23.9721L19.1966 28.7074C19.1722 28.7318 19.1392 28.7454 19.1048 28.7454C19.0704 28.7454 19.0373 28.7318 19.013 28.7074L17.959 27.6534C17.9265 27.6209 17.9136 27.5736 17.9251 27.5291L19.0737 23.0905L16.3282 25.836C16.3039 25.8603 16.2709 25.874 16.2364 25.874C16.202 25.874 16.169 25.8603 16.1446 25.836L15.1679 24.8592C15.1172 24.8085 15.1172 24.7263 15.1679 24.6756L19.8848 19.9587ZM19.9934 20.2173L15.4433 24.7674L16.2364 25.5606L19.1954 22.6016C19.2197 22.5773 19.2527 22.5636 19.2872 22.5636C19.3216 22.5636 19.3546 22.5773 19.379 22.6016L19.3975 22.6202C19.43 22.6527 19.4429 22.7 19.4314 22.7445L18.1951 27.5223L19.1048 28.432L23.6565 23.8803L22.8633 23.0872L19.8426 26.108C19.7919 26.1587 19.7097 26.1587 19.659 26.108L19.6405 26.0894C19.608 26.0569 19.5951 26.0097 19.6065 25.9652L20.8646 21.0884L19.9934 20.2173Z"
		fill="black" />
	<path
		d="M24.5478 24.5881L26.2725 26.3129C27.6912 27.7316 27.58 29.3141 26.0592 30.8349C24.5385 32.3556 22.956 32.4669 21.5372 31.0481L19.8125 29.3234L24.5478 24.5881ZM22.3192 30.0714C23.2496 31.0018 24.0223 30.8812 25.064 29.8396C26.1056 28.798 26.2261 28.0252 25.2958 27.0949L24.6436 26.4427L21.667 29.4192L22.3192 30.0714Z"
		fill="black" />
	<path fill-rule="evenodd" clip-rule="evenodd"
		d="M24.4564 24.4963C24.5071 24.4456 24.5893 24.4456 24.64 24.4963L26.3647 26.221C27.0927 26.949 27.4412 27.7333 27.3982 28.5424C27.3554 29.3485 26.9253 30.1528 26.1514 30.9266C25.3776 31.7004 24.5733 32.1305 23.7673 32.1734C22.9581 32.2164 22.1738 31.8678 21.4459 31.1399L19.7211 29.4151C19.6968 29.3908 19.6831 29.3578 19.6831 29.3233C19.6831 29.2889 19.6968 29.2559 19.7211 29.2315L24.4564 24.4963ZM24.5482 24.7717L19.9965 29.3233L21.6294 30.9563C22.3202 31.647 23.0365 31.9522 23.7535 31.9141C24.4736 31.8758 25.2209 31.4899 25.9679 30.743C26.7148 29.9961 27.1007 29.2487 27.1389 28.5287C27.1771 27.8117 26.8719 27.0953 26.1811 26.4046L24.5482 24.7717ZM24.644 26.3128C24.6784 26.3128 24.7115 26.3265 24.7358 26.3508L25.388 27.003C25.8663 27.4813 26.0985 27.9434 26.049 28.4384C26.0003 28.9246 25.6821 29.4054 25.1562 29.9313C24.6303 30.4572 24.1494 30.7754 23.6632 30.8241C23.1683 30.8737 22.7061 30.6414 22.2279 30.1631L21.5757 29.511C21.5513 29.4866 21.5377 29.4536 21.5377 29.4192C21.5377 29.3847 21.5513 29.3517 21.5757 29.3274L24.5522 26.3508C24.5766 26.3265 24.6096 26.3128 24.644 26.3128ZM21.8511 29.4192L22.4114 29.9795C22.8635 30.4316 23.253 30.6043 23.6373 30.5658C24.0305 30.5264 24.4569 30.2634 24.9726 29.7477C25.4883 29.232 25.7512 28.8057 25.7906 28.4125C25.8291 28.0281 25.6565 27.6387 25.2044 27.1866L24.644 26.6262L21.8511 29.4192Z"
		fill="black" />
	<path
		d="M25.7226 32.1363L26.7302 33.1439C26.3222 33.589 26.2326 34.201 26.857 34.8285C27.3855 35.357 27.8955 35.4065 28.2788 35.0201C28.6033 34.6956 28.557 34.3246 28.2293 33.8332L27.7008 33.0481C27.1351 32.1826 26.8662 31.2399 27.7255 30.3806C28.6311 29.475 29.7964 29.7161 30.8164 30.7392C31.8364 31.7623 32.1115 33.011 31.144 33.9785L30.1426 32.977C30.5815 32.5628 30.4331 32.0343 29.9911 31.5923C29.4688 31.0699 28.999 31.1534 28.7053 31.4439C28.489 31.6603 28.3684 32.0003 28.7053 32.4856L29.1968 33.2181C30.053 34.4946 30.0375 35.3323 29.3204 36.0494C28.2973 37.0725 27.0455 36.6985 26.01 35.663C24.8448 34.4977 24.6779 33.181 25.7195 32.1394L25.7226 32.1363Z"
		fill="black" />
	<path fill-rule="evenodd" clip-rule="evenodd"
		d="M29.2099 29.9651C28.7211 29.8963 28.2434 30.0463 27.8172 30.4724C27.4124 30.8772 27.2804 31.2917 27.3083 31.7032C27.3366 32.122 27.5314 32.5515 27.8089 32.9763L28.3373 33.7611C28.506 34.0142 28.6141 34.2528 28.6281 34.4812C28.6427 34.7181 28.5553 34.927 28.3707 35.1117C28.3706 35.1117 28.3707 35.1116 28.3707 35.1117L28.2787 35.02L28.3709 35.1115C28.3708 35.1115 28.3707 35.1116 28.3707 35.1117C28.1546 35.3294 27.8927 35.4319 27.6062 35.3961C27.3257 35.3611 27.041 35.1961 26.7651 34.9202L26.7649 34.92C26.4355 34.589 26.2819 34.2487 26.2766 33.9198C26.272 33.6337 26.3799 33.3727 26.5538 33.1511L26.6384 33.2357L26.7302 33.1439L26.6345 33.0561C26.6063 33.0869 26.5793 33.1186 26.5538 33.1511L25.7244 32.3217C25.7523 32.2913 25.7812 32.2611 25.8112 32.2311L25.8143 32.228L25.7225 32.1362L25.6307 32.228L25.7244 32.3217C25.2907 32.7951 25.1165 33.3149 25.1664 33.8426C25.2199 34.4085 25.533 35.0024 26.1018 35.5712C26.6085 36.0779 27.157 36.411 27.6912 36.5C28.2178 36.5878 28.745 36.4411 29.2286 35.9575C29.5676 35.6184 29.731 35.2627 29.7188 34.8473C29.7063 34.4243 29.5113 33.9202 29.0889 33.2904L28.598 32.5587C28.5982 32.559 28.5984 32.5592 28.5986 32.5595L28.7053 32.4855L28.5975 32.5578L28.598 32.5587C28.4179 32.2989 28.3501 32.0631 28.3685 31.8526C28.3869 31.6417 28.4899 31.4757 28.6135 31.3521L28.614 31.3516C28.781 31.1863 29.0052 31.0738 29.2672 31.0835C29.5285 31.0931 29.8059 31.2235 30.0829 31.5004C30.315 31.7325 30.4822 31.9989 30.5254 32.2749C30.5639 32.5206 30.502 32.7618 30.3235 32.9743L30.2343 32.8852L30.1425 32.977L30.2316 33.0714C30.2651 33.0398 30.2957 33.0074 30.3235 32.9743L31.1415 33.7923C31.1131 33.824 31.0834 33.8555 31.0522 33.8866L31.144 33.9784L31.2358 33.8866L31.1415 33.7923C31.5293 33.3598 31.6617 32.8803 31.5968 32.3969C31.5264 31.8725 31.2214 31.3292 30.7244 30.8308C30.2267 30.3315 29.7048 30.0349 29.2099 29.9651ZM29.2461 29.708C29.8153 29.7882 30.3861 30.1237 30.9083 30.6475C31.4313 31.1721 31.7739 31.7648 31.8541 32.3624C31.9351 32.9656 31.7466 33.5594 31.2358 34.0702C31.1851 34.1209 31.1029 34.1209 31.0522 34.0702L30.0507 33.0687C30.0259 33.0439 30.0122 33.0102 30.0127 32.9751C30.0132 32.94 30.0279 32.9066 30.0534 32.8825C30.2436 32.703 30.2994 32.5095 30.2689 32.3151C30.2372 32.1128 30.1092 31.8939 29.8993 31.684C29.6539 31.4386 29.4352 31.3495 29.2576 31.3429C29.0808 31.3364 28.9233 31.4108 28.7968 31.5359C28.7042 31.6286 28.6388 31.7407 28.6271 31.8751C28.6154 32.0097 28.6556 32.1863 28.8119 32.4115L28.8131 32.4132L29.3045 33.1457C29.7383 33.7925 29.9637 34.3455 29.9783 34.8396C29.9931 35.3415 29.7902 35.7631 29.4121 36.1411C28.8727 36.6806 28.2624 36.8585 27.6485 36.7561C27.042 36.6551 26.4469 36.2835 25.9182 35.7547C25.3217 35.1582 24.9688 34.5112 24.9079 33.867C24.8466 33.2184 25.0832 32.5919 25.6276 32.0475L25.6307 32.0444C25.6814 31.9937 25.7636 31.9937 25.8143 32.0444L26.822 33.0521C26.8711 33.1012 26.8728 33.1804 26.8259 33.2316C26.6384 33.4361 26.5322 33.6696 26.5362 33.9157C26.5402 34.1609 26.6539 34.4403 26.9488 34.7367C27.2015 34.9893 27.4359 35.1132 27.6384 35.1385C27.8348 35.163 28.0194 35.0971 28.1866 34.9286L28.1869 34.9282C28.3267 34.7885 28.3784 34.6497 28.369 34.4972C28.3591 34.3362 28.2802 34.1437 28.1214 33.9054C28.1214 33.9053 28.1215 33.9055 28.1214 33.9054L27.592 33.1191C27.3042 32.6786 27.0819 32.2043 27.0492 31.7208C27.016 31.2297 27.1792 30.7432 27.6336 30.2888C28.1132 29.8093 28.6708 29.627 29.2461 29.708Z"
		fill="black" />
	<path d="M30.6678 35.7031L32.6738 37.7091L31.9289 38.454L29.9229 36.448L30.6678 35.7031Z" fill="black" />
	<path fill-rule="evenodd" clip-rule="evenodd"
		d="M30.5764 35.6113C30.6271 35.5606 30.7093 35.5606 30.76 35.6113L32.766 37.6173C32.8167 37.668 32.8167 37.7502 32.766 37.8009L32.0211 38.5458C31.9967 38.5701 31.9637 38.5838 31.9293 38.5838C31.8948 38.5838 31.8618 38.5701 31.8375 38.5458L29.8315 36.5398C29.8071 36.5154 29.7935 36.4824 29.7935 36.448C29.7935 36.4135 29.8071 36.3805 29.8315 36.3562L30.5764 35.6113ZM30.1069 36.448L31.9293 38.2704L32.4906 37.7091L30.6682 35.8867L30.1069 36.448Z"
		fill="black" />
	<path
		d="M33.3045 38.0799C34.7603 36.6241 36.5932 36.5098 37.9069 37.8265C39.2205 39.1432 39.1061 40.9761 37.6503 42.4288C36.1945 43.8816 34.3554 44.0052 33.0387 42.6916C31.722 41.3779 31.8518 39.5296 33.3014 38.0799H33.3045ZM36.6489 41.4243C37.5947 40.4785 37.7832 39.4461 37.0321 38.695C36.281 37.9439 35.2518 38.1325 34.3029 39.0783C33.354 40.0241 33.1623 41.0658 33.9103 41.8138C34.6583 42.5618 35.7061 42.3639 36.6458 41.4212L36.6489 41.4243Z"
		fill="black" />
	<path fill-rule="evenodd" clip-rule="evenodd"
		d="M35.6663 37.0433C34.8999 37.0871 34.1064 37.4618 33.3962 38.1719C33.3906 38.1775 33.3846 38.1826 33.3781 38.187C32.6808 38.8902 32.3086 39.6804 32.2622 40.4448C32.2155 41.2127 32.4965 41.9675 33.1303 42.5999C33.7644 43.2325 34.5179 43.5141 35.2845 43.4682C36.0531 43.4222 36.8484 43.0458 37.5586 42.3371C38.2686 41.6286 38.6433 40.8358 38.6875 40.0694C38.7315 39.3048 38.4478 38.5527 37.8149 37.9184C37.1821 37.2841 36.4308 36.9996 35.6663 37.0433ZM35.6515 36.7841C36.4959 36.7358 37.3179 37.0525 37.9987 37.735C38.6795 38.4174 38.9953 39.2401 38.9467 40.0843C38.8981 40.9267 38.4877 41.7768 37.742 42.5209C36.9963 43.265 36.1441 43.6768 35.3 43.7274C34.454 43.778 33.6296 43.4647 32.9469 42.7837C32.264 42.1023 31.9515 41.2762 32.003 40.4291C32.0544 39.584 32.4669 38.7309 33.2096 37.9883C33.2153 37.9826 33.2215 37.9775 33.2281 37.973C33.97 37.237 34.8149 36.8319 35.6515 36.7841ZM35.7221 38.1222C36.2343 38.0442 36.7203 38.1998 37.1239 38.6034C37.5275 39.0071 37.683 39.4939 37.6051 40.0063C37.5281 40.5128 37.2256 41.0313 36.7406 41.5163C36.7325 41.5244 36.7234 41.5313 36.7136 41.537C36.2383 42.0068 35.7264 42.3019 35.2261 42.38C34.7117 42.4602 34.2213 42.3086 33.8185 41.9057C33.4159 41.5032 33.2624 41.0146 33.3419 40.5006C33.4205 39.9924 33.7245 39.4716 34.2112 38.9865C34.6976 38.5017 35.216 38.1992 35.7221 38.1222ZM36.5802 41.3093C37.0267 40.8559 37.2836 40.3939 37.3484 39.9673C37.4135 39.5394 37.2877 39.1344 36.9403 38.787C36.5928 38.4395 36.1886 38.3138 35.7611 38.3789C35.3276 38.4448 34.8569 38.7094 34.3944 39.1704C33.9322 39.6311 33.6659 40.1042 33.5985 40.5402C33.5319 40.9705 33.6566 41.3767 34.0021 41.7221C34.3472 42.0673 34.7548 42.1907 35.1861 42.1234C35.6232 42.0552 36.0963 41.7888 36.5538 41.3297C36.5617 41.3218 36.5706 41.3149 36.5802 41.3093Z"
		fill="black" />
	<path
		d="M40.5992 40.6392L43.6128 43.6528L42.7319 44.5337L40.695 42.4968L39.5854 43.6064L41.273 45.2941L40.4539 46.1132L38.7663 44.4255L36.8376 46.3543L35.8608 45.3775L40.5961 40.6423L40.5992 40.6392Z"
		fill="black" />
	<path fill-rule="evenodd" clip-rule="evenodd"
		d="M40.5073 40.5475C40.558 40.4968 40.6402 40.4968 40.6909 40.5475L43.7046 43.5612C43.7553 43.6119 43.7553 43.6941 43.7046 43.7448L42.8237 44.6257C42.773 44.6764 42.6908 44.6764 42.6401 44.6257L40.695 42.6806L39.7689 43.6066L41.3648 45.2025C41.4155 45.2531 41.4155 45.3353 41.3648 45.386L40.5457 46.2051C40.5213 46.2295 40.4883 46.2432 40.4539 46.2432C40.4194 46.2432 40.3864 46.2295 40.3621 46.2051L38.7662 44.6093L36.9293 46.4462C36.905 46.4706 36.8719 46.4843 36.8375 46.4843C36.8031 46.4843 36.7701 46.4706 36.7457 46.4462L35.769 45.4695C35.7446 45.4452 35.731 45.4121 35.731 45.3777C35.731 45.3433 35.7446 45.3103 35.769 45.2859L40.5073 40.5475ZM40.5991 40.8229L36.0444 45.3777L36.8375 46.1708L38.6744 44.3339C38.6988 44.3096 38.7318 44.2959 38.7662 44.2959C38.8007 44.2959 38.8337 44.3096 38.858 44.3339L40.4539 45.9298L41.0894 45.2942L39.4935 43.6984C39.4428 43.6477 39.4428 43.5655 39.4935 43.5148L40.6032 42.4052C40.6539 42.3545 40.7361 42.3545 40.7868 42.4052L42.7319 44.3503L43.4292 43.653L40.5991 40.8229Z"
		fill="black" />
	<path
		d="M7.62199 19.9084L9.47036 21.7568C10.4873 22.7737 10.4811 23.701 9.76399 24.4181C9.2509 24.9312 8.73163 24.9961 8.15981 24.7086C8.64817 25.5741 8.49981 26.3066 7.91254 26.897C7.14908 27.6604 6.01781 27.7779 4.81236 26.5724L2.88672 24.6468L7.62199 19.9115V19.9084ZM5.63145 25.6854C6.17854 26.2324 6.66999 26.1181 7.01617 25.7719C7.36236 25.4257 7.49836 24.9126 6.95126 24.3655L6.03326 23.4475L4.71345 24.7674L5.63145 25.6854ZM7.50763 23.6392C7.80126 23.9328 8.20926 24.0163 8.59563 23.6299C8.98199 23.2435 8.87072 22.8603 8.57708 22.5697L7.74254 21.7352L6.67308 22.8046L7.50763 23.6392Z"
		fill="black" />
	<path fill-rule="evenodd" clip-rule="evenodd"
		d="M7.57274 19.7887C7.62125 19.7686 7.67708 19.7797 7.71421 19.8168L9.56257 21.6652C10.0835 22.1861 10.358 22.6994 10.3973 23.1897C10.4369 23.6843 10.2353 24.131 9.85621 24.5101C9.58618 24.7801 9.30477 24.9417 9.00578 24.9918C8.81254 25.0241 8.61866 25.0087 8.42379 24.9527C8.56372 25.2918 8.61024 25.6162 8.5686 25.9236C8.51454 26.3227 8.31388 26.6782 8.005 26.9887L8.00476 26.989C7.60223 27.3915 7.09444 27.6309 6.52227 27.6029C5.95179 27.575 5.33888 27.2823 4.72098 26.6644L2.79535 24.7388C2.74465 24.6881 2.74465 24.6059 2.79535 24.5552L7.5154 19.8351C7.52932 19.8149 7.54901 19.7985 7.57274 19.7887ZM7.62396 20.0938L3.07073 24.647L4.90457 26.4808C5.49213 27.0684 6.04758 27.3197 6.53497 27.3436C7.02065 27.3673 7.46022 27.1663 7.82114 26.8054C8.0994 26.5256 8.26648 26.2198 8.31132 25.8887C8.35616 25.5577 8.28075 25.1865 8.04717 24.7726C8.0191 24.7229 8.02685 24.6606 8.06626 24.6192C8.10568 24.5779 8.1675 24.5672 8.21854 24.5928C8.48667 24.7276 8.73136 24.7745 8.96291 24.7357C9.19479 24.6969 9.42956 24.5695 9.67262 24.3265C10.0106 23.9885 10.1707 23.613 10.1384 23.2104C10.1059 22.8036 9.87495 22.3448 9.37898 21.8488L7.62396 20.0938ZM7.65117 21.6436C7.70186 21.5929 7.78406 21.5929 7.83476 21.6436L8.66881 22.4776C8.66888 22.4777 8.66895 22.4778 8.66901 22.4778C8.82843 22.6356 8.95115 22.8309 8.97108 23.0524C8.99149 23.2794 8.90183 23.5079 8.68785 23.7219C8.47424 23.9355 8.24158 24.0308 8.01085 24.0194C7.7832 24.0081 7.57903 23.8939 7.41626 23.7312L6.58171 22.8966C6.53101 22.8459 6.53101 22.7637 6.58171 22.713L7.65117 21.6436ZM7.74296 21.9189L6.8571 22.8048L7.59985 23.5476C7.73071 23.6784 7.87735 23.7528 8.02371 23.7601C8.16698 23.7672 8.3315 23.711 8.50426 23.5383C8.67663 23.3659 8.72453 23.2096 8.71248 23.0757C8.69996 22.9365 8.62032 22.7949 8.4862 22.6622L8.48571 22.6617L7.74296 21.9189ZM5.94189 23.3559C5.99259 23.3052 6.07479 23.3052 6.12548 23.3559L7.04348 24.2739C7.33563 24.5661 7.4594 24.8643 7.44885 25.149C7.4384 25.4311 7.29706 25.6752 7.10839 25.8639C6.91953 26.0527 6.67973 26.1895 6.4015 26.1936C6.12191 26.1977 5.83037 26.0676 5.54007 25.7773L4.62207 24.8593C4.59773 24.835 4.58405 24.802 4.58405 24.7675C4.58405 24.7331 4.59773 24.7001 4.62207 24.6757L5.94189 23.3559ZM4.89746 24.7675L5.72366 25.5937C5.98046 25.8505 6.20819 25.9368 6.39765 25.934C6.58847 25.9312 6.76748 25.8376 6.9248 25.6803C7.08232 25.5228 7.18206 25.3373 7.18939 25.1394C7.19662 24.9443 7.11484 24.7125 6.85989 24.4575L6.03369 23.6313L4.89746 24.7675Z"
		fill="black" />
	<path
		d="M9.69936 31.4593L10.4103 29.0175L9.59118 28.1984L8.01481 29.7747L7.03809 28.798L11.7734 24.0627L13.6155 25.9049C14.8272 27.1166 14.6974 28.3004 13.7701 29.2277C13.0932 29.9046 12.2864 30.1518 11.4179 29.7562L10.6637 32.4237L9.69936 31.4593ZM10.469 27.3175L11.3035 28.152C11.8383 28.6867 12.3483 28.6435 12.7686 28.2231C13.189 27.8027 13.2384 27.2835 12.7037 26.7518L11.8692 25.9173L10.469 27.3175Z"
		fill="black" />
	<path fill-rule="evenodd" clip-rule="evenodd"
		d="M11.6815 23.9709C11.7322 23.9202 11.8144 23.9202 11.8651 23.9709L13.7073 25.8131C14.3292 26.435 14.6213 27.0648 14.6247 27.6721C14.628 28.2795 14.3424 28.8388 13.8618 29.3194C13.5111 29.6701 13.1201 29.9162 12.6968 30.0201C12.3145 30.114 11.9134 30.0902 11.5029 29.9325L10.7886 32.4589C10.776 32.5032 10.741 32.5376 10.6964 32.5492C10.6518 32.5608 10.6044 32.548 10.5719 32.5154L9.6075 31.551C9.574 31.5175 9.56141 31.4684 9.57465 31.4229L10.2641 29.0549L9.59111 28.3819L8.10654 29.8665C8.0822 29.8908 8.04918 29.9045 8.01475 29.9045C7.98032 29.9045 7.9473 29.8908 7.92295 29.8665L6.94623 28.8897C6.89553 28.839 6.89553 28.7569 6.94623 28.7062L11.6815 23.9709ZM7.22161 28.798L8.01475 29.5911L9.49932 28.1065C9.55001 28.0558 9.63221 28.0558 9.68291 28.1065L10.502 28.9256C10.5355 28.9591 10.5481 29.0082 10.5348 29.0537L9.84541 31.4218L10.599 32.1753L11.2929 29.7208C11.3032 29.6844 11.3289 29.6543 11.3633 29.6383C11.3976 29.6224 11.4372 29.6223 11.4717 29.638C11.8813 29.8246 12.2703 29.8575 12.6348 29.768C13.0012 29.678 13.352 29.462 13.6782 29.1358C14.1249 28.6891 14.3679 28.1928 14.365 27.6736C14.3622 27.1543 14.1134 26.5863 13.5237 25.9967L11.7733 24.2463L7.22161 28.798ZM11.8691 25.7874C11.9035 25.7874 11.9366 25.8011 11.9609 25.8254L12.7952 26.6597C12.7952 26.6597 12.7953 26.6598 12.7953 26.6598C13.0784 26.9413 13.2218 27.2348 13.2241 27.5281C13.2264 27.8216 13.0872 28.088 12.8604 28.3148C12.6336 28.5416 12.3692 28.6796 12.0771 28.6755C11.7856 28.6714 11.494 28.5261 11.2117 28.2437L10.3771 27.4092C10.3264 27.3585 10.3264 27.2763 10.3771 27.2256L11.7773 25.8254C11.8017 25.8011 11.8347 25.7874 11.8691 25.7874ZM10.6525 27.3174L11.3953 28.0602C11.6476 28.3125 11.8784 28.413 12.0807 28.4159C12.2824 28.4187 12.4831 28.3249 12.6768 28.1312C12.8703 27.9377 12.966 27.7343 12.9645 27.5301C12.9629 27.3258 12.8637 27.0939 12.6121 26.8438L12.6119 26.8436L11.8691 26.1008L10.6525 27.3174Z"
		fill="black" />
	<path
		d="M15.0373 35.0262L13.1179 33.1067L11.9372 33.7002L10.9141 32.6771L17.2968 29.5862L18.5517 30.8411L15.4608 37.2238L14.4377 36.2007L15.0312 35.02L15.0373 35.0262ZM15.5412 34.0278L16.9228 31.28L16.8641 31.2213L14.1162 32.6029L15.5412 34.0278Z"
		fill="black" />
	<path fill-rule="evenodd" clip-rule="evenodd"
		d="M17.2401 29.4693C17.2899 29.4452 17.3494 29.4552 17.3885 29.4943L18.6434 30.7492C18.6825 30.7883 18.6926 30.8479 18.6685 30.8976L15.5776 37.2803C15.5593 37.3182 15.5238 37.3448 15.4823 37.3518C15.4409 37.3588 15.3986 37.3453 15.3689 37.3156L14.3458 36.2925C14.3063 36.2529 14.2965 36.1924 14.3216 36.1424L14.873 35.0454L13.0923 33.2648L11.9954 33.8161C11.9454 33.8412 11.8849 33.8315 11.8453 33.7919L10.8222 32.7688C10.7925 32.7391 10.779 32.6969 10.786 32.6554C10.793 32.614 10.8196 32.5785 10.8574 32.5602L17.2401 29.4693ZM15.1291 34.9343C15.1798 34.985 15.1798 35.0672 15.1291 35.1179C15.1278 35.1191 15.1266 35.1203 15.1253 35.1215L14.5957 36.1752L15.4234 37.0029L18.3946 30.8675L17.2702 29.7432L11.1349 32.7143L11.9626 33.542L13.0595 32.9907C13.1095 32.9655 13.17 32.9753 13.2096 33.0149L15.1291 34.9343ZM16.8057 31.1052C16.8557 31.0801 16.9162 31.0898 16.9558 31.1294L17.0145 31.1881C17.0541 31.2277 17.0639 31.2882 17.0387 31.3383L15.6571 34.0861C15.6383 34.1233 15.6029 34.1493 15.5617 34.1559C15.5206 34.1626 15.4788 34.149 15.4493 34.1196L14.0244 32.6946C13.9949 32.6652 13.9814 32.6233 13.988 32.5822C13.9946 32.5411 14.0206 32.5056 14.0579 32.4869L16.8057 31.1052ZM14.335 32.6381L15.5058 33.8089L16.6899 31.4541L14.335 32.6381Z"
		fill="black" />
	<path
		d="M20.6501 32.9368L21.6671 33.9537L20.3905 38.9022L20.4091 38.9208L23.5216 35.8082L24.4983 36.785L19.7631 41.5202L18.7091 40.4662L19.964 35.6166L19.9454 35.598L16.8947 38.6488L15.918 37.672L20.6532 32.9368H20.6501Z"
		fill="black" />
	<path fill-rule="evenodd" clip-rule="evenodd"
		d="M20.5435 32.8633C20.5674 32.8284 20.6072 32.8069 20.6506 32.8069H20.6537C20.697 32.8069 20.7368 32.8284 20.7607 32.8633L21.7593 33.8618C21.7918 33.8943 21.8047 33.9415 21.7932 33.986L20.6225 38.5241L23.4302 35.7164C23.4809 35.6657 23.5631 35.6657 23.6138 35.7164L24.5906 36.6931C24.6149 36.7174 24.6286 36.7505 24.6286 36.7849C24.6286 36.8193 24.6149 36.8523 24.5906 36.8767L19.8553 41.612C19.8309 41.6363 19.7979 41.65 19.7635 41.65C19.7291 41.65 19.696 41.6363 19.6717 41.612L18.6177 40.558C18.5852 40.5254 18.5723 40.4782 18.5838 40.4336L19.7323 35.9951L16.9869 38.7405C16.9626 38.7648 16.9295 38.7785 16.8951 38.7785C16.8607 38.7785 16.8277 38.7648 16.8033 38.7405L15.8266 37.7638C15.7759 37.7131 15.7759 37.6309 15.8266 37.5802L20.5435 32.8633ZM20.6521 33.1218L16.102 37.672L16.8951 38.4651L19.8541 35.5062C19.8784 35.4818 19.9114 35.4682 19.9459 35.4682C19.9803 35.4682 20.0133 35.4818 20.0376 35.5062L20.0562 35.5247C20.0887 35.5572 20.1016 35.6045 20.0901 35.649L18.8538 40.4268L19.7635 41.3366L24.3152 36.7849L23.522 35.9917L20.5013 39.0125C20.4506 39.0632 20.3684 39.0632 20.3177 39.0125L20.2991 38.994C20.2667 38.9615 20.2538 38.9142 20.2652 38.8697L21.5233 33.993L20.6521 33.1218Z"
		fill="black" />
	<path
		d="M25.2065 37.4927L26.9312 39.2174C28.3499 40.6361 28.2417 42.2187 26.7179 43.7394C25.1941 45.2601 23.6146 45.3714 22.1959 43.9527L20.4712 42.2279L25.2065 37.4927ZM22.9779 42.979C23.9083 43.9094 24.681 43.7889 25.7226 42.7472C26.7643 41.7056 26.8848 40.9329 25.9545 40.0025L25.3023 39.3503L22.3257 42.3269L22.9779 42.979Z"
		fill="black" />
	<path fill-rule="evenodd" clip-rule="evenodd"
		d="M25.1146 37.4008C25.1653 37.3501 25.2475 37.3501 25.2982 37.4008L27.0229 39.1255C27.7508 39.8535 28.1002 40.6377 28.0576 41.4469C28.0151 42.253 27.585 43.0574 26.8096 43.8312C26.0343 44.6049 25.23 45.035 24.4243 45.0779C23.6155 45.1209 22.832 44.7723 22.1041 44.0444L20.3793 42.3197C20.3286 42.269 20.3286 42.1868 20.3793 42.1361L25.1146 37.4008ZM20.6547 42.2279L22.2876 43.8608C22.9784 44.5516 23.694 44.8567 24.4105 44.8186C25.1302 44.7804 25.8776 44.3945 26.6262 43.6474C27.3746 42.9006 27.7604 42.1533 27.7983 41.4333C27.8361 40.7163 27.5301 39.9999 26.8393 39.3091L25.2064 37.6762L20.6547 42.2279ZM25.3022 39.2204C25.3366 39.2204 25.3697 39.2341 25.394 39.2585L26.0462 39.9106C26.5245 40.3889 26.7567 40.851 26.7072 41.346C26.6585 41.8322 26.3403 42.313 25.8144 42.839C25.2885 43.3649 24.8076 43.683 24.3214 43.7317C23.8265 43.7813 23.3643 43.5491 22.8861 43.0708L22.2339 42.4186C22.1832 42.3679 22.1832 42.2857 22.2339 42.235L25.2104 39.2585C25.2348 39.2341 25.2678 39.2204 25.3022 39.2204ZM22.5093 42.3268L23.0696 42.8872C23.5217 43.3393 23.9112 43.5119 24.2955 43.4734C24.6887 43.434 25.1151 43.1711 25.6308 42.6554C26.1465 42.1396 26.4094 41.7133 26.4488 41.3201C26.4873 40.9357 26.3147 40.5463 25.8626 40.0942L25.3022 39.5338L22.5093 42.3268Z"
		fill="black" />
	<path
		d="M26.3808 45.0407L27.3884 46.0484C26.9804 46.4935 26.8908 47.1055 27.5152 47.7298C28.0437 48.2584 28.5537 48.3078 28.937 47.9215C29.2615 47.5969 29.2152 47.226 28.8875 46.7346L28.359 45.9495C27.7902 45.084 27.5244 44.1413 28.3837 43.282C29.2893 42.3764 30.4546 42.6175 31.4746 43.6406C32.4946 44.6637 32.7697 45.9124 31.8022 46.8798L30.8008 45.8784C31.2397 45.4642 31.0913 44.9356 30.6493 44.4936C30.1301 43.9744 29.6572 44.0547 29.3635 44.3453C29.1472 44.5616 29.0266 44.9016 29.3635 45.3869L29.855 46.1195C30.7142 47.396 30.6957 48.2336 29.9786 48.9507C28.9555 49.9738 27.7037 49.5998 26.6682 48.5644C25.503 47.3991 25.3361 46.0824 26.3777 45.0407H26.3808Z"
		fill="black" />
	<path fill-rule="evenodd" clip-rule="evenodd"
		d="M29.8681 42.8665C29.3793 42.7976 28.9016 42.9476 28.4754 43.3738C28.0705 43.7787 27.9378 44.1933 27.9653 44.6047C27.9933 45.0234 28.1881 45.4529 28.467 45.8775L28.9955 46.6625C29.1642 46.9156 29.2723 47.1541 29.2863 47.3826C29.3009 47.6195 29.2135 47.8283 29.0289 48.0131C29.0288 48.0131 29.0289 48.013 29.0289 48.0131L28.9369 47.9214L29.0291 48.0128C29.029 48.0129 29.0289 48.013 29.0289 48.0131C28.8128 48.2307 28.5509 48.3333 28.2644 48.2975C27.9839 48.2625 27.6992 48.0974 27.4233 47.8216C27.0938 47.4921 26.9401 47.1525 26.9348 46.8239C26.9302 46.5381 27.0381 46.2772 27.212 46.0556L27.2966 46.1401L27.3884 46.0483L27.2927 45.9606C27.2645 45.9914 27.2375 46.023 27.212 46.0556L26.3812 45.2247C26.4095 45.1938 26.4389 45.163 26.4694 45.1325L26.3807 45.0438V45.0407L26.3792 45.0422L26.3776 45.0407V45.0438L26.2889 45.1325L26.3812 45.2247C25.9485 45.6976 25.7748 46.2169 25.8246 46.7439C25.8781 47.3098 26.1912 47.9038 26.76 48.4725C27.2667 48.9792 27.8152 49.3124 28.3494 49.4014C28.876 49.4892 29.4032 49.3425 29.8868 48.8589C30.226 48.5197 30.39 48.1639 30.3781 47.7486C30.366 47.3257 30.1711 46.8216 29.7472 46.1919L29.2562 45.46C29.2564 45.4603 29.2566 45.4606 29.2568 45.4609L29.3635 45.3869L29.2557 45.4592L29.2562 45.46C29.0761 45.2002 29.0083 44.9645 29.0267 44.7539C29.0451 44.5431 29.1481 44.377 29.2717 44.2534L29.2722 44.253C29.4396 44.0872 29.6647 43.9759 29.9268 43.986C30.1882 43.9961 30.4655 44.1262 30.7411 44.4018C30.9732 44.6339 31.1404 44.9003 31.1836 45.1763C31.2221 45.422 31.1602 45.6631 30.9817 45.8757L30.8925 45.7865L30.8007 45.8783L30.8898 45.9727C30.9233 45.9411 30.9539 45.9088 30.9817 45.8757L31.7997 46.6937C31.7713 46.7254 31.7416 46.7568 31.7104 46.788L31.8022 46.8798L31.894 46.788L31.7997 46.6937C32.1875 46.2611 32.3199 45.7817 32.255 45.2983C32.1846 44.7739 31.8796 44.2306 31.3826 43.7322C30.8849 43.2329 30.363 42.9362 29.8681 42.8665ZM29.9043 42.6094C30.4735 42.6896 31.0443 43.025 31.5665 43.5488C32.0895 44.0735 32.4321 44.6661 32.5123 45.2637C32.5933 45.867 32.4048 46.4608 31.894 46.9716C31.8696 46.9959 31.8366 47.0096 31.8022 47.0096C31.7678 47.0096 31.7347 46.9959 31.7104 46.9716L30.7089 45.9701C30.6841 45.9453 30.6704 45.9115 30.6709 45.8764C30.6714 45.8414 30.6861 45.808 30.7116 45.7839C30.9019 45.6044 30.9576 45.4108 30.9271 45.2165C30.8954 45.0142 30.7674 44.7953 30.5575 44.5854C30.3138 44.3417 30.095 44.2523 29.9167 44.2455C29.7393 44.2386 29.5811 44.3126 29.455 44.4373C29.3624 44.53 29.297 44.642 29.2853 44.7765C29.2736 44.9111 29.3138 45.0877 29.4701 45.3128L29.4713 45.3145L29.9626 46.0469C29.9626 46.0469 29.9626 46.047 29.9626 46.0469C30.3979 46.6937 30.6235 47.2468 30.6376 47.7411C30.652 48.243 30.4483 48.6646 30.0704 49.0425C29.5309 49.582 28.9206 49.7598 28.3067 49.6575C27.7003 49.5564 27.1051 49.1848 26.5764 48.6561C25.9799 48.0596 25.627 47.4125 25.5661 46.7684C25.5048 46.1198 25.7414 45.4933 26.2859 44.9489C26.3102 44.9245 26.3432 44.9109 26.3776 44.9109H26.3807C26.4152 44.9109 26.4482 44.9245 26.4725 44.9489L27.4802 45.9565C27.5293 46.0057 27.531 46.0848 27.4841 46.136C27.2966 46.3406 27.1904 46.5741 27.1944 46.8197C27.1984 47.0645 27.312 47.3431 27.6069 47.638C27.8596 47.8907 28.0941 48.0146 28.2966 48.0399C28.493 48.0644 28.6776 47.9985 28.8448 47.83L28.8451 47.8296C28.9849 47.6898 29.0366 47.551 29.0272 47.3985C29.0173 47.2376 28.9384 47.045 28.7796 46.8067C28.7795 46.8066 28.7796 46.8068 28.7796 46.8067L28.2504 46.0207C27.9609 45.5801 27.7386 45.1057 27.7063 44.622C27.6735 44.1309 27.8375 43.6445 28.2919 43.1902C28.7714 42.7106 29.329 42.5284 29.9043 42.6094Z"
		fill="black" />
</svg>