<svg width="61" height="59" viewBox="0 0 61 59" fill="none" xmlns="http://www.w3.org/2000/svg">
<path d="M50.0799 12.0871L50.6477 12.7227L51.2868 13.2654L51.9367 13.7974L52.5615 14.3616L53.1257 14.9865L53.5935 15.6935L54.1505 16.3183L54.7504 16.9182L55.1395 17.6716L55.6287 18.3536L56.0037 19.1034L56.4143 19.8319L56.9642 20.4889L57.2462 21.2851L57.5997 22.0492L58.0068 22.7884L58.296 23.581L58.4388 24.4166L58.7316 25.2057L59.0173 26.0019L59.0101 26.8625L59.2744 27.6659L59.3922 28.4978L59.3993 29.3405L59.56 30.1653L59.6707 31.0009L59.4993 31.8435L59.5065 32.6791L59.6707 33.5289L59.4708 34.3537L59.4743 35.2L59.3565 36.0319L59.003 36.821L58.8352 37.6387L58.8495 38.5064L58.5352 39.2919L58.1675 40.0525L57.9854 40.8773L57.6283 41.6378L57.2712 42.3984L56.9642 43.1804L56.5999 43.9373L56.1822 44.6658L55.643 45.3192L55.1217 45.9762L54.6611 46.6725L54.2433 47.4044L53.7042 48.0472L53.0936 48.6292L52.6401 49.354L52.0009 49.9003L51.4296 50.5216L50.8155 51.0929L50.1549 51.6178L49.3658 51.9642L48.7945 52.6033L48.0554 53.0104L47.327 53.4246L46.6271 53.8888L45.8666 54.2387L45.131 54.6457L44.4062 55.0814L43.5385 55.1742L42.7565 55.4634L41.9853 55.7919L41.2104 56.1276L40.3749 56.2347L39.5822 56.5453L38.7538 56.6774L37.9004 56.6524L37.0756 56.7774L36.2436 56.8524L35.4153 57.0595L34.5726 56.9702L33.7335 56.9952L32.9051 56.8488L32.066 56.8346L31.2376 56.7167L30.4235 56.5168L29.5808 56.4668L28.7774 56.2418L27.9562 56.0704L27.1099 55.9847L26.3708 55.5384L25.5245 55.4206L24.7818 55.0171L24.007 54.6922L23.2393 54.3565L22.4573 54.0387L21.7825 53.5246L21.0398 53.1246L20.3864 52.5962L19.6794 52.1427L19.0831 51.5464L18.2975 51.1929L17.8262 50.4681L17.0478 50.0932L16.5229 49.4397L16.0087 48.7756L15.3767 48.2328L14.8733 47.5723L14.2627 47.0045L13.6807 46.4047L13.1844 45.7405L12.7452 45.0264L12.031 44.5301L11.649 43.7767L11.0705 43.1697L10.5956 42.4841L10.1564 41.7771L9.65298 41.113L9.26021 40.3738L8.8353 39.6597L8.36397 38.9741L7.86408 38.3064L7.61771 37.4852L7.21779 36.7603L6.70005 36.0926L6.22515 35.4035L6.06804 34.5501L5.66456 33.8217L5.30035 33.0754L4.87544 32.3577L4.5648 31.5864L4.297 30.7938L3.88637 30.0653L3.54002 29.3084L3.38291 28.48L3.13296 27.6873L2.83303 26.9125L2.54381 26.1305L2.35099 25.3199L2.09033 24.5308L1.80468 23.7417L1.68328 22.9169L1.39048 22.1278L1.33693 21.2887L1.17625 20.471L1.15125 19.6355L1.06913 18.8071L0.937012 17.9823L1.0477 17.1467L0.98343 16.3148L1.00485 15.4792L1.1084 14.6544L1.35478 13.851L1.49046 13.0369L1.47261 12.1764L1.86538 11.423L2.08676 10.6196L2.55095 9.91614L2.78661 9.1056L3.27579 8.42718L3.80782 7.78803L4.35056 7.16317L4.82903 6.46689L5.5503 6.02056L6.23586 5.55994L6.85002 4.99221L7.56058 4.55659L8.36397 4.31021L9.08525 3.89602L9.86008 3.59965L10.667 3.40684L11.3955 2.94979L12.2167 2.79626L13.0344 2.63915L13.8628 2.53917L14.6662 2.29279L15.516 2.38563L16.3408 2.31422L17.1585 2.08927L17.9905 2.09641L18.826 2.2428L19.658 2L20.4828 2.21781H21.3147L22.1431 2.28208L22.9787 2.27494L23.8178 2.26066L24.6354 2.4142L25.4531 2.5963L26.2851 2.64629L27.0849 2.91409L27.9133 2.99978L28.7488 3.06763L29.563 3.24616L30.3485 3.55323L31.1626 3.71034L31.9553 3.97457L32.7765 4.12454L33.5478 4.44947L34.3476 4.67442L35.1582 4.87081L35.9723 5.06005L36.79 5.24573L37.5398 5.61707L38.3146 5.92772L39.0966 6.2098L39.8393 6.59186L40.6177 6.88823L41.414 7.14174L42.1459 7.54523L42.9029 7.88801L43.6099 8.33791L44.3383 8.73068L45.1132 9.04133L45.8666 9.40554L46.6271 9.75189L47.2091 10.3946L48.0161 10.6731L48.6053 11.2873L49.3015 11.7372L50.0799 12.0871Z" fill="#F3E7D3"/>
<path d="M49.5586 12.5263C50.4405 13.5153 51.5439 14.2509 52.4294 15.2364C52.483 15.2971 52.5437 15.3542 52.5936 15.4185C52.4937 15.2935 52.5472 15.3685 52.6008 15.4506C52.715 15.6363 52.8364 15.822 52.965 15.9969C53.1614 16.2612 53.397 16.5076 53.622 16.7468C53.722 16.8503 53.8255 16.9503 53.9291 17.0539C54.0076 17.1324 54.0826 17.2181 54.1683 17.2895C54.2933 17.4002 54.1326 17.2003 54.1754 17.3109C54.2897 17.6145 54.4718 17.9215 54.6611 18.1858C55.061 18.7464 55.343 19.3498 55.6823 19.9497C55.8537 20.2532 56.1072 20.4746 56.3036 20.7602C56.4749 21.0101 56.5249 21.3351 56.6392 21.6172C56.8677 22.1885 57.2355 22.6991 57.4533 23.2704C57.5247 23.4596 57.589 23.6524 57.6604 23.8417C57.7282 24.0202 57.6461 23.7167 57.6604 23.8667C57.6711 23.9702 57.6961 24.0773 57.714 24.1809C57.7782 24.5558 57.8782 24.8807 58.0068 25.2378C58.1246 25.5627 58.2424 25.8841 58.3603 26.209C58.4067 26.3376 58.3603 26.3554 58.371 26.2376C58.3674 26.309 58.371 26.3804 58.371 26.4483C58.371 26.6482 58.3353 26.8767 58.3638 27.0767C58.3852 27.2267 58.4638 27.3909 58.5102 27.5337C58.5495 27.648 58.5852 27.7587 58.6245 27.8729C58.6673 28.0015 58.6459 28.0336 58.6352 27.9158C58.6673 28.2336 58.7423 28.5478 58.7495 28.8692C58.7566 29.2084 58.7459 29.5226 58.8102 29.8547C58.8744 30.1867 58.9351 30.5402 58.9815 30.8902C58.9958 30.9866 59.0101 31.0865 59.0208 31.1829C59.028 31.2544 59.0708 31.0116 59.0137 31.1758C58.9423 31.3793 58.9101 31.6293 58.878 31.8435C58.828 32.1649 58.8316 32.5362 58.8601 32.8612C58.8709 32.9897 58.903 33.1147 58.9244 33.2432C58.9458 33.361 58.9601 33.486 58.9923 33.6038C59.028 33.7324 58.9923 33.7752 59.0208 33.6431C58.9566 33.9895 58.8244 34.3144 58.8209 34.6679C58.8209 34.8714 58.8209 35.075 58.8209 35.2785C58.8209 35.4213 58.8066 35.4392 58.8209 35.3178C58.8066 35.407 58.7959 35.4963 58.7816 35.5856C58.7637 35.7034 58.7459 35.8248 58.7316 35.9462C58.7316 35.9748 58.6923 36.2069 58.7316 36.0569C58.7709 35.9069 58.6816 36.1569 58.6638 36.1926L58.5102 36.5354C58.2353 37.1459 58.0675 37.9743 58.196 38.642C58.2353 38.8349 58.2995 38.4314 58.2246 38.5206C58.1781 38.5778 58.1496 38.7063 58.121 38.7742C58.0567 38.9348 57.996 39.0955 57.9282 39.2526C57.7925 39.5597 57.5997 39.8561 57.5104 40.181C57.4604 40.3667 57.4247 40.5631 57.3819 40.7523C57.3747 40.7844 57.3069 41.0415 57.3569 40.8951C57.4033 40.7594 57.3105 40.9808 57.2891 41.0237C57.1355 41.3522 56.982 41.6771 56.8284 42.0056C56.5428 42.609 56.3286 43.2339 56.025 43.8302C55.9715 43.9373 55.9108 44.0409 55.8501 44.1444L55.6894 44.4265C55.6323 44.5265 55.4823 44.6729 55.6608 44.4908C55.4502 44.7086 55.2681 44.9657 55.0753 45.2049C54.6289 45.7619 54.229 46.3332 53.8719 46.9545C53.8184 47.0474 53.7648 47.1366 53.7148 47.2295C53.6648 47.3223 53.5577 47.4151 53.7184 47.2295C53.5827 47.3794 53.4577 47.5437 53.3256 47.6972C53.2864 47.7472 53.2221 47.8008 53.1935 47.8543C53.3042 47.6579 53.2899 47.7579 53.1757 47.865C53.0221 48.0079 52.8686 48.1543 52.715 48.3007C52.5722 48.4399 52.4758 48.597 52.3723 48.7648C52.2866 48.9005 52.0688 49.1326 52.0438 49.2933C52.0616 49.1862 52.3615 48.9648 52.133 49.1433C52.0509 49.2076 51.9724 49.279 51.8938 49.3469C51.751 49.4683 51.6081 49.5861 51.476 49.7254C51.3439 49.8646 51.2154 50.0074 51.0868 50.1467C51.0368 50.2038 50.9761 50.2574 50.9297 50.3181C51.0583 50.1538 51.0154 50.2324 50.8976 50.3395C50.6405 50.5752 50.3905 50.8073 50.1192 51.0251C50.0371 51.0893 49.9514 51.15 49.8728 51.2215C49.6479 51.425 49.9585 51.1536 50.0692 51.1358C49.8835 51.1643 49.6657 51.3107 49.4943 51.3857C49.0408 51.5821 48.773 51.8642 48.4517 52.2248C48.4017 52.2784 48.3339 52.3391 48.2946 52.3998C48.3696 52.2748 48.6909 52.1284 48.4196 52.2641C48.2267 52.3605 48.0375 52.4748 47.8482 52.5783C47.5947 52.7211 47.3341 52.8604 47.0841 53.0139C46.8342 53.1675 46.5914 53.3638 46.3271 53.5031C46.0344 53.6566 45.7237 53.7709 45.4309 53.9316C45.1381 54.0923 44.8489 54.2565 44.5597 54.4279C44.4704 54.4815 44.374 54.5314 44.2883 54.5922C44.0455 54.7528 44.3312 54.535 44.4704 54.5564C44.2776 54.5243 44.0134 54.6064 43.8205 54.6279C43.1671 54.6993 42.5208 55.0421 41.921 55.2991C41.7888 55.3563 41.6567 55.4134 41.5246 55.4705C41.4318 55.5098 41.3354 55.5455 41.2461 55.5919C41.0426 55.6955 41.3532 55.6134 41.2425 55.6098C40.9033 55.5991 40.482 55.6883 40.1642 55.8062C39.9785 55.874 39.7679 55.9347 39.5965 56.0276C39.4394 56.1133 39.6929 56.0418 39.6429 56.0276C39.5608 56.0026 39.3929 56.0668 39.3108 56.0811C39.2073 56.099 39.1037 56.1097 39.0002 56.1311C38.8431 56.1632 38.8502 56.1454 38.9859 56.149C38.7716 56.1418 38.5574 56.1347 38.3467 56.1311C37.9754 56.1204 37.629 56.1918 37.2613 56.2382C36.9613 56.2775 36.6542 56.2775 36.3543 56.3239C36.1829 56.3525 36.0115 56.406 35.8437 56.4489C35.7402 56.4739 35.633 56.4989 35.5259 56.5275C35.1867 56.6203 35.5366 56.4775 35.6473 56.5275C35.3795 56.406 34.8832 56.4382 34.5868 56.4453C34.3869 56.4489 34.1833 56.456 33.9834 56.4632C33.8727 56.4203 33.8156 56.4667 33.9834 56.4632C33.8977 56.431 33.7906 56.431 33.7013 56.4132C33.3407 56.3489 33.0265 56.3168 32.6623 56.3096C32.298 56.3025 31.9874 56.2454 31.6446 56.2097C31.5803 56.2025 31.3732 56.1632 31.6303 56.2168C31.5625 56.2025 31.4946 56.1847 31.4304 56.1668C31.234 56.1168 31.0376 56.0633 30.8376 56.0204C30.6734 55.9847 30.5163 55.9776 30.3485 55.9669C30.2413 55.9597 30.1342 55.9526 30.0271 55.949C29.9021 55.9454 29.7736 55.9204 29.9628 55.9633C29.6236 55.8847 29.2951 55.7669 28.9523 55.6955C28.6346 55.6276 28.3203 55.5527 27.999 55.5205C27.8526 55.5062 27.5276 55.4063 27.3955 55.4598C27.4812 55.4241 27.7419 55.6384 27.4991 55.4741C27.3991 55.4063 27.292 55.3491 27.1884 55.2849C27.0063 55.1742 26.8421 55.0563 26.635 55.0099C26.4565 54.9706 26.2672 54.9599 26.0851 54.9349C25.9994 54.9242 25.9137 54.9135 25.828 54.8992C25.7959 54.8957 25.9601 54.9814 25.853 54.8814C25.703 54.7457 25.446 54.6529 25.2639 54.5636C24.7318 54.2922 24.1569 54.078 23.6071 53.8459C23.4285 53.7709 23.2464 53.6995 23.0643 53.6245C23.0001 53.5995 22.9322 53.5745 22.8715 53.546C23.0858 53.6459 22.8679 53.521 22.8037 53.4745C22.5037 53.246 22.2217 53.0461 21.8896 52.8675C21.786 52.8104 21.6789 52.7568 21.5754 52.6997C21.4932 52.6569 21.404 52.5569 21.5539 52.689C21.4004 52.5533 21.2362 52.4319 21.079 52.3034C20.8255 52.0998 20.5363 51.9534 20.2756 51.7606C20.0293 51.5785 19.8579 51.3072 19.6115 51.125C19.3544 50.9322 18.9938 50.8323 18.701 50.7001L18.9009 50.8644C18.7331 50.6073 18.5796 50.2395 18.3475 50.0396C18.1154 49.8396 17.7298 49.7325 17.4513 49.5968L17.6512 49.7611C17.3084 49.3361 16.9835 48.9005 16.6372 48.4756C16.4586 48.2578 16.2265 48.0721 16.0051 47.8972C15.8088 47.7436 16.0301 47.9793 15.9087 47.8079C15.798 47.6544 15.6802 47.5044 15.5624 47.3544C15.2375 46.9331 14.7983 46.5939 14.4269 46.2083C14.3734 46.1547 14.3234 46.0976 14.2662 46.044C14.1627 45.944 14.2591 46.044 14.2662 46.0476C14.1627 45.9119 14.0591 45.7726 13.9556 45.6334C13.7985 45.4227 13.6592 45.2049 13.5235 44.9799C13.3629 44.7157 13.2307 44.5729 12.9772 44.3944C12.8451 44.3015 12.7166 44.2087 12.5845 44.1194C12.5202 44.0766 12.6559 44.2551 12.6059 44.1373C12.5702 44.0551 12.5238 43.973 12.4809 43.8909C12.3488 43.6338 12.2417 43.4196 12.0417 43.2089C11.9239 43.0875 11.8096 42.9625 11.6918 42.8411C11.6668 42.8161 11.5525 42.684 11.6311 42.784C11.7096 42.884 11.5775 42.6983 11.5561 42.6662C10.9527 41.7949 10.3599 40.9201 9.83862 40.0025C9.56368 39.5204 9.26732 39.0562 8.94239 38.6099C8.84598 38.4742 8.74243 38.3421 8.64246 38.21C8.60675 38.16 8.56747 38.0814 8.51748 38.0422C8.41036 37.9565 8.51034 38.0922 8.49249 38.0564C8.37109 37.7672 8.34252 37.4423 8.21755 37.1531C7.9926 36.6318 7.63553 36.2211 7.30703 35.7712C7.14992 35.5534 7.01424 35.3178 6.84999 35.1071C6.78929 35.0285 6.88569 35.2535 6.8607 35.1535C6.84284 35.0821 6.83213 35.0071 6.82142 34.9357C6.78571 34.7536 6.76429 34.5644 6.71787 34.3858C6.5929 33.8788 6.19656 33.336 5.96089 32.8647C5.72523 32.3934 5.44672 31.9471 5.24319 31.4436C5.03967 30.9401 4.91469 30.4867 4.65403 30.0261C4.52906 29.8047 4.42194 29.5869 4.31482 29.3548C4.25769 29.2334 4.19699 29.112 4.147 28.987C4.19342 29.1048 4.17557 29.087 4.16128 28.987C4.147 28.887 4.12201 28.787 4.10415 28.6871C4.00417 28.155 3.8435 27.6373 3.64711 27.1302C3.54713 26.8732 3.44715 26.6125 3.35075 26.3518C3.29004 26.1805 3.2222 26.0126 3.16507 25.8412C3.12936 25.7341 3.20435 25.9876 3.17935 25.877C3.15793 25.7841 3.13651 25.6948 3.11508 25.602C2.98297 25.0557 2.81158 24.5237 2.62233 23.9952C2.5652 23.8381 2.50807 23.681 2.45094 23.5239C2.43666 23.4203 2.40452 23.3989 2.45094 23.5239C2.4438 23.456 2.42952 23.3882 2.42237 23.3204C2.37953 23.0419 2.35453 22.7669 2.2617 22.5027C2.20456 22.3456 2.14743 22.192 2.08673 22.0349C2.06174 21.9671 2.0296 21.8992 2.01175 21.8314C2.00104 21.785 2.01175 21.9742 2.03317 21.8314C2.06888 21.5957 2.01175 21.2779 1.97961 21.0423C1.94391 20.7781 1.85464 20.5174 1.8225 20.2532C1.79037 19.9889 1.81893 19.7033 1.80108 19.4319C1.76537 18.8927 1.70467 18.325 1.58684 17.8001C1.58684 17.8073 1.56185 17.9608 1.58684 17.8216C1.60112 17.7537 1.60469 17.6823 1.61541 17.6145C1.63683 17.4431 1.66897 17.2717 1.68325 17.1003C1.70824 16.8111 1.65468 16.5147 1.63683 16.2255C1.62255 15.9684 1.63683 15.7149 1.64397 15.4578C1.64397 15.4007 1.64397 15.3435 1.64754 15.2864C1.6404 15.3721 1.62969 15.4328 1.65468 15.3221C1.69396 15.14 1.7011 14.9472 1.7261 14.7615C1.79037 14.2616 1.9939 13.7867 2.07602 13.2868C2.12244 13.0012 2.13315 12.7369 2.12601 12.4441C2.12601 12.3942 2.15458 12.0085 2.1153 11.9835C2.18671 12.0335 1.96533 12.3227 2.10459 12.1656C2.16172 12.0978 2.20099 11.9835 2.24027 11.905C2.37239 11.6515 2.48665 11.4229 2.56163 11.1444C2.60448 10.9838 2.68303 10.7981 2.70089 10.6303C2.72231 10.4303 2.65447 10.7767 2.59734 10.8088C2.64018 10.7874 2.6866 10.6767 2.7116 10.6374C2.88299 10.3767 3.10437 10.1089 3.20078 9.809C3.2472 9.65904 3.28647 9.50907 3.33289 9.36267C3.35432 9.28412 3.39002 9.20199 3.4043 9.11987C3.44715 8.89135 3.23291 9.33054 3.31861 9.27341C3.50785 9.14843 3.64711 8.80208 3.78994 8.61641C3.95776 8.3986 4.147 8.18793 4.32553 7.98083C4.50407 7.77373 4.70045 7.57378 4.8647 7.35597C4.94683 7.24885 5.02181 7.12744 5.0968 7.01675C5.16821 6.90963 5.486 6.549 5.20034 6.78466C4.91469 7.02032 5.33603 6.72753 5.42173 6.67397C5.53956 6.60256 5.66096 6.53114 5.77522 6.45259C6.00731 6.30262 6.23583 6.14551 6.46079 5.99198C6.68574 5.83844 7.03566 5.59206 7.18563 5.3564C7.26775 5.22786 7.01424 5.44209 7.11779 5.39568C7.17492 5.36711 7.23205 5.32783 7.28561 5.29213C7.33917 5.25642 7.76407 5.04932 7.76407 4.99933C7.76407 5.01362 7.53555 5.06718 7.70337 5.03504C7.77122 5.02076 7.83906 4.99576 7.90333 4.97434C8.06758 4.92435 8.23897 4.8815 8.39965 4.8208C8.68173 4.71725 9.0138 4.54229 9.25304 4.36019C9.38515 4.26021 9.09593 4.41017 9.18877 4.38161C9.24947 4.36376 9.31017 4.33519 9.37087 4.3102C9.54226 4.24236 9.71365 4.1638 9.89218 4.11024C10.1493 4.02812 10.4242 3.99955 10.6813 3.91742C10.967 3.82816 11.2562 3.6282 11.4954 3.45324C11.8061 3.23186 11.0598 3.51394 11.4311 3.46038C11.6097 3.43539 11.7882 3.39611 11.9632 3.3604C12.5059 3.26043 13.0415 3.17473 13.5878 3.09617C13.8806 3.05333 14.1555 2.96406 14.4412 2.87836C14.509 2.85694 14.5983 2.84623 14.6626 2.81052C14.8054 2.73197 14.4126 2.83195 14.4233 2.83909C14.5483 2.90336 14.8125 2.88193 14.9482 2.89622C15.5302 2.96049 16.123 2.88908 16.6871 2.73554C16.8407 2.69269 17.0121 2.6677 17.1549 2.607C17.3477 2.52487 16.78 2.59271 16.9299 2.63199C17.0014 2.64984 17.112 2.63199 17.1835 2.63199C17.4405 2.63199 17.6869 2.63199 17.9404 2.67484C18.2654 2.73197 18.5689 2.82123 18.8938 2.73911C19.1687 2.6677 19.4437 2.57843 19.7151 2.49988L19.2473 2.51059C19.5187 2.582 19.79 2.66055 20.065 2.72126C20.3721 2.7891 20.6898 2.74625 21.0041 2.75696C21.5468 2.77482 22.0788 2.82123 22.6251 2.81409C23.1714 2.80695 23.6285 2.81409 24.1569 2.91407C24.2212 2.92478 24.2819 2.93907 24.3462 2.94978C24.3605 2.94978 24.1498 2.90693 24.3141 2.94264C24.4855 2.98191 24.6604 3.01762 24.8318 3.0569C25.1067 3.1176 25.3638 3.14616 25.6423 3.16402C25.728 3.17116 26.1601 3.23543 25.8851 3.16045C26.0315 3.19972 26.1708 3.25685 26.3136 3.30327C26.585 3.39254 26.8242 3.45681 27.1063 3.48538C27.3563 3.51037 27.6098 3.53894 27.8597 3.55679C28.0311 3.57107 28.2168 3.60678 28.3917 3.59964C28.5096 3.59607 28.4346 3.59249 28.3489 3.57821C28.4239 3.58892 28.4989 3.61035 28.5739 3.6282C29.1237 3.7496 29.6272 4.00312 30.1735 4.11024C30.3592 4.14595 30.5449 4.18165 30.7341 4.21736C30.7841 4.22807 30.8341 4.23521 30.8841 4.24593C30.7234 4.20665 30.7877 4.2245 30.8912 4.26378C31.1626 4.36019 31.4411 4.46374 31.7267 4.52087C31.891 4.553 32.0552 4.58157 32.2195 4.61013C32.2873 4.62084 32.3552 4.63513 32.423 4.64584C32.5908 4.6744 32.348 4.61013 32.4052 4.64584C32.6158 4.78152 32.9122 4.87436 33.1514 4.95649C33.6692 5.13502 34.2191 5.24928 34.7511 5.37425C35.2831 5.49923 35.8366 5.57064 36.3436 5.74203C36.8506 5.91342 37.322 6.20621 37.8183 6.39903C38.8181 6.78823 39.775 7.25599 40.8033 7.58449C41.289 7.7416 41.7353 8.04867 42.1995 8.25934C42.278 8.29505 42.353 8.33075 42.4316 8.36646C42.5744 8.42716 42.3423 8.30933 42.4137 8.35218C42.5565 8.44144 42.6958 8.53071 42.8386 8.61998C43.0779 8.76994 43.3207 8.90563 43.5706 9.04131C44.0276 9.28769 44.5097 9.45194 44.9739 9.67689C45.2024 9.78758 45.4273 9.89827 45.6594 10.0018C45.8201 10.0768 45.9808 10.1589 46.145 10.2232C46.2629 10.2696 46.1558 10.2518 46.1165 10.2018C46.1629 10.2553 46.2129 10.3089 46.2593 10.3625C46.4557 10.5803 46.6164 10.8231 46.8913 10.9338C47.0591 11.0016 47.2341 11.0516 47.4055 11.1087C47.4626 11.1266 47.5197 11.1444 47.5769 11.1659C47.6054 11.1766 47.4876 11.0552 47.559 11.1766C47.8197 11.63 48.4588 12.0192 48.9087 12.2478C49.1587 12.3763 49.4229 12.4763 49.6764 12.5905C50.2227 12.8333 51.1904 11.8978 50.4834 11.5836C50.2691 11.4872 50.0585 11.3837 49.8407 11.298C49.8085 11.2837 49.7764 11.2694 49.7407 11.2551C49.6264 11.2051 49.8907 11.348 49.78 11.2801C49.6514 11.198 49.5229 11.1159 49.3979 11.0302C49.0587 10.8124 48.8552 10.4696 48.5374 10.2375C48.3588 10.1089 48.1018 10.0625 47.8982 9.99111C47.809 9.96254 47.7054 9.94112 47.6233 9.89827C47.8447 10.0125 47.584 9.79829 47.5269 9.73402C47.3698 9.56263 47.2305 9.36267 47.0306 9.24841C46.8306 9.13415 46.5949 9.05203 46.3807 8.95205C45.663 8.61998 44.9274 8.32718 44.2312 7.95226C44.1562 7.91299 43.9348 7.77373 44.1241 7.89871C44.0455 7.84872 43.9634 7.79873 43.8848 7.74517C43.6884 7.62019 43.492 7.48451 43.2849 7.37739C42.8815 7.17386 42.4744 7.00247 42.0781 6.78466C41.3996 6.41331 40.607 6.27763 39.9142 5.92056C39.1716 5.5385 38.361 5.32069 37.6112 4.95291C36.9113 4.60656 36.1151 4.50658 35.3581 4.32091C34.9225 4.21379 34.4797 4.11381 34.0512 3.97813C33.6942 3.86387 33.3692 3.66034 33.0015 3.58893C32.7622 3.54251 32.523 3.50323 32.2838 3.45681C32.1481 3.43182 32.4659 3.52822 32.2516 3.43896C32.1124 3.37826 31.9588 3.34255 31.8124 3.29256C31.6303 3.23186 31.4554 3.18544 31.2661 3.14973C31.1269 3.12117 30.9876 3.09617 30.8484 3.07118C30.8019 3.06047 30.7555 3.05333 30.7055 3.04261C30.502 3.00691 30.7948 3.08546 30.7127 3.04261C29.9664 2.61414 29.0202 2.54986 28.1882 2.47131C27.9811 2.45346 27.7705 2.42846 27.5634 2.40704C27.4812 2.3999 27.2277 2.33563 27.4812 2.41418C27.3634 2.37847 27.2491 2.33563 27.1313 2.29635C26.7028 2.15352 26.2601 2.03569 25.803 2.0714C25.6031 2.08568 25.9673 2.11782 25.7745 2.07854C25.6531 2.05354 25.5317 2.02498 25.4103 1.99998C25.2139 1.95714 25.0139 1.91072 24.8175 1.87144C24.3391 1.77503 23.9463 1.73218 23.4607 1.7429C22.6608 1.76075 21.8717 1.68934 21.0755 1.68934C20.9719 1.68934 20.8648 1.6822 20.7613 1.68934C20.9969 1.67863 20.7541 1.68577 20.6399 1.65363C20.3935 1.58936 20.1043 1.4751 19.8436 1.4751C19.5829 1.4751 19.2973 1.60364 19.0581 1.67148C18.9866 1.69291 18.8295 1.70719 18.776 1.75361C19.1616 1.43582 19.1687 1.77146 19.0295 1.70362C18.9688 1.67505 18.8652 1.67505 18.801 1.66434C18.3582 1.58579 17.9654 1.56436 17.5155 1.56436C17.2977 1.56436 17.1013 1.60721 16.8907 1.66434C16.7478 1.70362 16.605 1.7429 16.4622 1.78217C16.4158 1.79646 16.3694 1.8036 16.3229 1.82145C16.2265 1.85716 16.5407 1.82502 16.3801 1.80003C16.1551 1.76075 15.8659 1.85716 15.6374 1.8643C15.8695 1.85359 15.6874 1.85002 15.566 1.8393C15.4053 1.82145 15.2482 1.80003 15.0875 1.78574C14.8697 1.76789 14.6804 1.79289 14.4698 1.85359C14.3412 1.88929 14.2162 1.93214 14.0877 1.96785C14.0199 1.98927 13.952 2.00355 13.8877 2.02855C13.7842 2.06783 13.7771 1.99998 13.9592 2.01784C13.5557 1.9857 13.0486 2.13567 12.6487 2.21422C12.2203 2.29635 11.7525 2.32848 11.3383 2.46774C11.1098 2.54272 10.8991 2.71411 10.6956 2.83909C10.6206 2.88551 10.5135 2.93192 10.4492 2.99263C10.6492 2.81052 10.6313 2.94621 10.5385 2.93907C10.4671 2.93192 10.3599 2.98191 10.2921 2.9962C9.85648 3.09975 9.45656 3.23543 9.04237 3.40682C8.81385 3.50323 8.60318 3.63534 8.38894 3.75674C8.33538 3.78888 8.27825 3.81388 8.22826 3.84958C8.11043 3.92814 8.13899 3.84244 8.30324 3.82459C8.19969 3.8353 8.089 3.88886 7.98903 3.921C7.49628 4.07096 7.1035 4.27449 6.66788 4.55657C6.49292 4.67083 6.3501 4.79938 6.20013 4.9422C6.11086 5.02433 6.00374 5.10288 5.92519 5.19572C5.80378 5.33855 6.13229 5.07075 5.87877 5.24214C5.49314 5.49923 5.10394 5.7456 4.71116 5.99555C4.31839 6.24549 4.13986 6.62041 3.85064 6.99176C3.58284 7.33811 3.27219 7.65947 2.99011 7.99511C2.74373 8.28791 2.49379 8.59855 2.29383 8.92348C2.14386 9.16629 2.08673 9.44837 2.00818 9.72331C1.99033 9.78758 1.9082 9.93755 1.92605 9.99825C1.7868 9.51621 2.12601 9.69117 2.03317 9.76973C1.97604 9.81615 1.93319 9.91969 1.89392 9.98397C1.76894 10.1732 1.60469 10.366 1.50829 10.5731C1.40117 10.7981 1.36189 11.0694 1.29762 11.3051C1.27262 11.4015 1.1655 11.5979 1.28334 11.3872C1.23692 11.4729 1.19407 11.5586 1.15122 11.6408C1.02268 11.8836 0.861999 12.1192 0.844146 12.3977C0.829863 12.6191 0.851287 12.8512 0.858428 13.0726C0.858428 13.1226 0.858428 13.169 0.858428 13.219C0.858428 13.344 0.879852 13.044 0.858428 13.1726C0.833434 13.3225 0.808439 13.4725 0.783444 13.6225C0.719173 14.0081 0.565634 14.3652 0.483509 14.7472C0.315689 15.5328 0.287123 16.4611 0.408526 17.2574C0.440662 17.4788 0.447803 17.1538 0.408526 17.3252C0.383531 17.4466 0.37639 17.5752 0.358536 17.6966C0.329971 17.8965 0.297835 18.0894 0.315689 18.2929C0.362107 18.7356 0.447803 19.1748 0.494221 19.6176C0.529928 19.9782 0.501363 20.346 0.544211 20.7066C0.5942 21.1387 0.708461 21.5386 0.733455 21.9742C0.76202 22.4384 0.944124 22.7848 1.07624 23.2275C1.11194 23.3418 1.04053 23.0633 1.05481 23.1847C1.05838 23.2204 1.0691 23.2561 1.0691 23.2882C1.07981 23.4168 1.10837 23.5489 1.12623 23.6774C1.15479 23.8738 1.19407 24.0416 1.25834 24.2309C1.41545 24.6772 1.57613 25.1235 1.72253 25.577C1.78323 25.7627 1.7011 25.4413 1.73681 25.6449C1.75823 25.777 1.80108 25.9091 1.82965 26.0412C1.87964 26.2447 1.9332 26.4411 2.00461 26.6375C2.16172 27.0731 2.31168 27.523 2.49736 27.9479C2.57948 28.1372 2.46165 27.8194 2.52235 28.0086C2.5652 28.1515 2.61162 28.2943 2.65804 28.4371C2.71517 28.6156 2.75802 28.7799 2.79372 28.962C2.88656 29.4512 3.01867 29.8332 3.22934 30.2867C3.37574 30.5938 3.58284 30.8759 3.71495 31.1865C3.88991 31.5936 4.00418 32.0328 4.172 32.447C4.31482 32.8004 4.52549 33.1075 4.70759 33.4432C4.91469 33.8324 5.0968 34.2323 5.31103 34.6179C5.36102 34.7107 5.41815 34.8 5.46457 34.8929C5.36459 34.6929 5.45743 34.925 5.47171 35.0035C5.51456 35.2428 5.52884 35.5356 5.62882 35.757C5.7895 36.1069 6.10015 36.4425 6.33581 36.746C6.60361 37.0924 6.78929 37.4494 7.01424 37.8279C6.90712 37.6494 7.01424 37.8386 7.0428 37.9279L7.16063 38.3207C7.21776 38.5171 7.27132 38.667 7.3963 38.8277C7.67124 39.1955 7.94618 39.5633 8.19969 39.9489C8.64603 40.6309 8.98881 41.3522 9.47085 42.0092C9.98502 42.709 10.3814 43.4303 10.9848 44.0659C11.0526 44.1373 11.1419 44.3194 11.0562 44.1337C11.0955 44.2194 11.1419 44.3051 11.1848 44.3908C11.2847 44.5872 11.3633 44.83 11.524 44.9835C11.6847 45.1371 11.9167 45.2835 12.1024 45.387C12.1417 45.4084 12.181 45.4406 12.2167 45.4691C12.1596 45.4263 12.1203 45.3513 12.1631 45.412C12.2452 45.5227 12.3095 45.6512 12.3845 45.7691C12.8344 46.501 13.3914 47.1259 14.0199 47.7079C14.1091 47.7901 14.1948 47.8865 14.2912 47.9614C14.4412 48.0757 14.2162 47.8365 14.3234 47.99C14.4626 48.19 14.6126 48.3899 14.7697 48.5756C14.9054 48.7399 15.0768 48.8684 15.2375 49.0076C15.3196 49.0791 15.4017 49.1505 15.4838 49.2183C15.3089 49.0719 15.5302 49.2862 15.5874 49.3611C15.8373 49.6861 16.0944 50.011 16.3515 50.3288C16.6086 50.6466 17.0406 50.8001 17.4227 50.9858L17.2227 50.8215C17.3834 51.0715 17.5262 51.3857 17.7369 51.5964C17.969 51.832 18.3725 51.8927 18.6581 52.0534C18.5939 52.0177 18.5689 51.9677 18.626 52.0606C18.6724 52.1355 18.7724 52.207 18.8331 52.2677C18.9402 52.3748 19.0438 52.4997 19.1616 52.5962C19.3794 52.7711 19.6436 52.8854 19.8686 53.0496C20.0935 53.2139 20.2935 53.421 20.522 53.5781C20.6506 53.6638 20.8005 53.7316 20.9362 53.803L21.1862 53.9387C21.2183 53.9566 21.4254 54.0887 21.3183 54.0101C21.2112 53.9316 21.3504 54.0458 21.379 54.0673C21.4611 54.1351 21.5468 54.1958 21.6325 54.2601C21.7503 54.3493 21.8646 54.4493 21.9931 54.5243C22.2538 54.6743 22.5573 54.76 22.8322 54.8742C23.3428 55.0885 23.8749 55.292 24.3748 55.5348C24.6461 55.6669 24.8996 55.8704 25.1889 55.9526C25.3317 55.9954 25.4924 55.999 25.6423 56.0204C25.7352 56.0347 25.8316 56.049 25.9244 56.0597C26.2672 56.0954 25.878 56.1025 25.8602 55.9954C25.8709 56.0526 26.2101 56.2061 26.2565 56.2347C26.3958 56.3204 26.5493 56.4418 26.7064 56.4989C27.0063 56.6096 27.3741 56.5667 27.6848 56.6131C27.799 56.631 27.9097 56.6596 28.024 56.6846L28.3025 56.7417C28.3346 56.7488 28.5917 56.8095 28.4453 56.7703C28.2989 56.731 28.481 56.7845 28.5167 56.7952C28.6167 56.8238 28.7167 56.8524 28.8202 56.8809C28.9631 56.9202 29.1059 56.9702 29.2558 56.9988C29.4058 57.0273 29.5558 57.0273 29.7057 57.0381C29.7986 57.0452 29.8914 57.0523 29.9843 57.0559C30.0414 57.0559 30.3092 57.0845 30.0342 57.0381C30.352 57.088 30.6627 57.2094 30.9805 57.2666C31.5446 57.3701 32.0874 57.3451 32.6515 57.3987C32.9836 57.4308 33.3014 57.5415 33.637 57.5415C33.762 57.5415 33.8906 57.5344 34.0155 57.5308C34.1084 57.5308 34.2012 57.5272 34.294 57.5237C34.4476 57.5201 34.494 57.5629 34.3297 57.5237C34.619 57.5915 35.0189 57.6451 35.3188 57.6094C35.4831 57.5915 35.658 57.5272 35.8187 57.4844L36.1008 57.413C36.1615 57.3987 36.39 57.3773 36.2329 57.3808C36.0758 57.3844 36.2472 57.388 36.2936 57.388C36.3829 57.3844 36.4721 57.3701 36.565 57.363C36.7042 57.3487 36.8471 57.3416 36.9863 57.3237C37.1363 57.3059 37.2862 57.2809 37.4362 57.2559C37.5219 57.2416 37.6076 57.238 37.6933 57.2166C37.9004 57.1702 37.6576 57.2023 37.6933 57.2059C38.3396 57.2523 39.0359 57.2452 39.6607 57.0559C39.7964 57.0131 39.925 56.9524 40.0571 56.9024C40.1428 56.8702 40.232 56.8417 40.3142 56.8024C40.482 56.7274 40.432 56.7917 40.3106 56.7845C40.5927 56.806 41.0212 56.7274 41.2961 56.6381C41.8246 56.4667 42.3316 56.1775 42.8458 55.974C42.9957 55.9133 43.1528 55.8597 43.3064 55.8062C43.3814 55.7776 43.467 55.7562 43.5385 55.7205C43.7099 55.6384 43.3778 55.7169 43.517 55.7205C43.8527 55.7348 44.3597 55.6705 44.6596 55.517C45.1595 55.2563 45.6202 54.9278 46.1236 54.6743C46.3736 54.5493 46.6414 54.46 46.8842 54.3208C47.127 54.1815 47.3555 53.9994 47.5983 53.8495C48.1446 53.5174 48.8623 53.2674 49.3158 52.814C49.5157 52.6104 49.6978 52.3855 49.8871 52.1748L49.4443 52.4783C49.8657 52.2962 50.3084 52.1427 50.6726 51.8606C51.0011 51.6035 51.3118 51.3393 51.6153 51.0572C51.8974 50.793 52.3044 50.4752 52.4937 50.1431C52.4865 50.1538 52.3401 50.2752 52.5115 50.1431C52.6151 50.061 52.715 49.9717 52.815 49.8825C53.0043 49.7218 53.1614 49.5682 53.2935 49.3576C53.4149 49.1648 53.5684 48.9684 53.6648 48.7648C53.7612 48.5613 53.3506 49.0719 53.5577 48.9077C53.6756 48.8113 53.7791 48.697 53.8898 48.5935C54.1969 48.3042 54.4861 47.9936 54.7396 47.6544C54.8539 47.5008 54.9431 47.3259 55.0395 47.1616C55.1002 47.0545 55.1681 46.9474 55.2288 46.8367C55.3145 46.6724 55.1038 47.0188 55.2681 46.7724C55.4966 46.4261 55.7251 46.0976 55.9858 45.7726C56.4714 45.1656 56.9284 44.5943 57.2748 43.8909C57.6211 43.1875 57.8996 42.4448 58.2388 41.7307C58.3995 41.3879 58.5852 41.0522 58.678 40.6845C58.7316 40.4666 58.7709 40.2488 58.8244 40.031C58.7923 40.1703 58.7852 40.1274 58.8459 40.0096C58.9208 39.8703 58.9851 39.7204 59.053 39.5776C59.2136 39.2455 59.3957 38.8848 59.4886 38.5278C59.5421 38.3135 59.5136 38.0707 59.51 37.8458C59.51 37.7315 59.4993 37.6137 59.5029 37.4959C59.5064 37.378 59.485 37.6423 59.5029 37.5637C59.5171 37.503 59.5279 37.4387 59.5421 37.378L59.6243 36.9853C59.635 36.9424 59.6885 36.6996 59.6457 36.8424C59.6028 36.9853 59.71 36.7103 59.7278 36.671C59.7885 36.5354 59.8528 36.3997 59.9099 36.264C60.0635 35.8998 60.117 35.482 60.1384 35.0892C60.1491 34.8857 60.1384 34.6786 60.1384 34.4751C60.1384 34.3822 60.1277 34.2823 60.1384 34.1894C60.1099 34.4572 60.1884 34.0787 60.2027 34.0216C60.2491 33.8252 60.3277 33.6217 60.3348 33.4182C60.342 33.1896 60.2598 32.9468 60.217 32.7219C60.1884 32.5684 60.1741 32.4398 60.1741 32.2863V31.8828C60.1741 31.7685 60.2098 31.5971 60.1706 31.7757C60.267 31.3508 60.3598 30.9651 60.3027 30.5331C60.2456 30.101 60.167 29.719 60.0956 29.3083C60.0385 28.9727 60.0884 28.6335 60.0599 28.2943C60.0242 27.8765 59.9421 27.4802 59.8099 27.0838C59.7671 26.9589 59.7242 26.8303 59.685 26.7053C59.6743 26.6732 59.6564 26.6375 59.6528 26.6018C59.635 26.484 59.6707 26.7625 59.6814 26.6446C59.6992 26.409 59.71 26.1483 59.6885 25.9162C59.66 25.5699 59.4707 25.2128 59.3529 24.8843C59.2779 24.6736 59.1994 24.4665 59.1244 24.2594C59.1101 24.2166 59.0887 24.1737 59.078 24.1309C59.078 24.1309 59.1208 24.2987 59.1065 24.2023C59.0851 24.0631 59.0565 23.9238 59.0351 23.7845C58.8994 23.0097 58.5495 22.3884 58.2067 21.6921C58.021 21.3172 57.8639 20.9423 57.7247 20.5495C57.6711 20.396 57.6283 20.2532 57.539 20.1211C57.4033 19.9211 57.2141 19.7604 57.0712 19.564C56.6285 18.9535 56.3821 18.225 55.9429 17.6109C55.7215 17.3002 55.6001 16.9396 55.3859 16.6254C55.1717 16.3112 54.8503 16.0862 54.6004 15.8077C54.4575 15.647 54.304 15.4899 54.1683 15.3221C54.0933 15.2293 54.2647 15.4578 54.204 15.3542C54.1862 15.3221 54.1647 15.2971 54.1433 15.265C54.0612 15.1293 53.9648 14.9972 53.8791 14.8651C53.6648 14.5401 53.3899 14.2438 53.1185 13.9688C52.5758 13.4225 51.9474 12.9583 51.3618 12.462C51.0904 12.2299 50.8655 11.9514 50.6298 11.6836C50.2334 11.2373 49.1194 12.0335 49.5872 12.5584L49.5586 12.5263Z" fill="black"/>
<path d="M10.5885 33.7503C10.4671 33.5825 10.3457 33.4183 10.2279 33.2504C10.1886 33.1933 10.1458 33.1397 10.1065 33.0826C10.2815 33.329 10.0779 32.9969 10.0422 32.9148C9.99223 32.8041 9.94581 32.6863 9.88868 32.5791C9.79228 32.4006 9.86726 32.5756 9.86369 32.5577C9.79228 32.3328 9.74586 32.1007 9.68159 31.8722C9.58518 31.5187 9.39236 31.2044 9.23882 30.8724C9.06386 30.4939 8.91747 30.1261 8.6818 29.7798C8.60682 29.6726 8.53898 29.5584 8.46042 29.4513C8.30331 29.2406 8.48899 29.4548 8.48542 29.5727C8.49613 29.3548 8.3533 29.0549 8.29617 28.8407C8.24975 28.6729 8.18548 28.5229 8.11764 28.3622C8.06408 28.2408 8.02123 28.1087 7.95696 27.9909C7.86769 27.8195 7.97124 28.1337 7.93554 27.9409C7.77843 27.1089 7.38923 26.3734 7.20355 25.5485C7.26425 25.8199 7.20355 25.4878 7.19284 25.4378L7.12143 25.0629C7.08572 24.8665 7.03216 24.6916 6.95718 24.5059L6.81435 24.1488C6.78578 24.0774 6.72508 23.8382 6.77507 24.0846C6.72508 23.8525 6.70009 23.6132 6.65367 23.3811C6.58583 23.0241 6.5037 22.6599 6.38587 22.3135C6.31803 22.11 6.25019 21.8958 6.16092 21.7029C6.03952 21.4423 6.18234 21.7494 6.15021 21.7886C6.19663 21.7315 6.1752 21.528 6.18234 21.4494C6.20377 21.2352 6.25376 21.0031 6.21091 20.7888C6.16806 20.5639 6.06808 20.3425 6.00024 20.1283C5.98953 20.0926 5.96453 19.9426 5.93597 19.9319C6.09308 19.9962 5.9324 20.3032 5.97525 20.089C5.98239 20.0462 5.98239 19.9855 5.98239 19.9462C5.99667 19.7069 6.01809 19.4677 6.02166 19.232C6.02524 18.4394 5.99667 17.6431 5.98953 16.8504C5.98953 16.6862 5.94311 16.9682 6.02881 16.7397C6.07522 16.6183 6.10379 16.4862 6.1395 16.3612C6.19306 16.1863 6.23233 16.022 6.2609 15.8399C6.33945 15.3436 6.48585 14.9758 6.65367 14.5045C6.72865 14.2938 6.79293 14.0796 6.8572 13.8654C6.86791 13.8296 6.87862 13.7904 6.8929 13.7547C6.93575 13.6404 6.82506 13.8832 6.88576 13.7868C6.96789 13.6583 7.05001 13.5297 7.13214 13.4047C7.37851 13.0227 7.4535 12.6299 7.56419 12.1907L7.4285 12.3871C7.66059 12.1943 8.00338 12.0015 8.17477 11.7551C8.34616 11.5087 8.42829 11.1302 8.54255 10.8481C8.75322 10.3304 7.55705 9.6627 7.30353 10.2911L6.98217 11.0874L7.11786 10.891C6.80364 11.1517 6.40372 11.3766 6.28589 11.7801C6.22162 12.0015 6.19306 12.2336 6.1145 12.4514C6.18234 12.255 6.07165 12.4835 6.02881 12.5513C5.95382 12.6692 5.87527 12.787 5.80028 12.9048C5.60033 13.2369 5.53248 13.619 5.40037 13.9832C5.24326 14.4117 5.10401 14.7544 5.03259 15.2043C4.97189 15.5864 4.80407 15.947 4.74694 16.3255C4.68981 16.704 4.74694 17.1646 4.75051 17.5681C4.75051 18.0073 4.76479 18.4465 4.77551 18.8893C4.77551 18.9928 4.77551 18.8214 4.77551 18.8178C4.77551 18.8678 4.76836 18.9178 4.76479 18.9714C4.75408 19.1106 4.74694 19.2535 4.7398 19.3927C4.72552 19.6141 4.72909 19.7962 4.79693 20.0104C4.84335 20.1604 4.89691 20.5532 5.0076 20.6603C4.97189 20.6246 5.01831 20.3211 4.96832 20.5818C4.93976 20.7353 4.93619 20.8995 4.9219 21.0566C4.87905 21.5101 5.06116 21.8815 5.21827 22.2992C5.15042 22.1207 5.20756 22.2671 5.23612 22.3814L5.32896 22.7527C5.37538 22.9384 5.40751 23.1169 5.43965 23.3062C5.52177 23.7775 5.64675 24.1953 5.84313 24.6344C5.90026 24.763 5.81814 24.4523 5.85384 24.6916C5.8717 24.813 5.90026 24.9344 5.92169 25.0558C5.96096 25.2629 6.00738 25.4628 6.06451 25.6664C6.18949 26.1056 6.31803 26.5269 6.51084 26.9411C6.61439 27.1625 6.50727 26.8554 6.53584 26.9946C6.56083 27.1053 6.58583 27.2196 6.61082 27.3303C6.65724 27.5445 6.69652 27.7552 6.77864 27.9623C6.86434 28.1837 6.96432 28.4015 7.06073 28.6193C6.95361 28.3836 7.06787 28.6514 7.08929 28.73C7.12857 28.8764 7.16427 29.0263 7.20355 29.1727C7.26782 29.4227 7.37494 29.6048 7.51777 29.819C7.60346 29.944 7.68202 30.0797 7.77486 30.1975C7.89983 30.3546 7.70344 30.0083 7.79985 30.2511C7.98195 30.7046 8.19619 31.1652 8.43186 31.5936C8.34616 31.4401 8.42829 31.5615 8.46042 31.6936C8.4997 31.8472 8.53898 31.9971 8.58182 32.1507C8.63895 32.3685 8.71751 32.5577 8.81035 32.7648C9.01744 33.2183 9.27453 33.5896 9.56375 33.9931C9.74229 34.2431 10.1172 34.4859 10.4386 34.393C10.7599 34.3002 10.7421 33.9717 10.5778 33.7468L10.5885 33.7503Z" fill="#20201F"/>
<path d="M16.2765 42.0378C15.8301 41.3379 15.3838 40.6595 14.8589 40.0132C14.6375 39.7383 14.484 39.4169 14.284 39.1277C14.0484 38.7885 13.7841 38.4635 13.5163 38.1493C13.4271 38.0422 13.3414 37.9065 13.2343 37.8172C13.1736 37.7637 13.2164 37.7887 13.2307 37.8244C13.2164 37.7815 13.2021 37.7387 13.1878 37.6923C13.1093 37.453 13.0343 37.2102 12.9558 36.971C12.8308 36.5818 11.4846 36.8817 11.5882 37.1995C11.7096 37.5709 11.7774 37.9815 12.031 38.2814C12.3273 38.6314 12.6058 38.9813 12.8843 39.3455C13.1022 39.6347 13.2593 39.9632 13.4699 40.256C13.7092 40.5881 13.9877 40.888 14.2198 41.2308C14.4804 41.6164 14.7304 42.0056 14.9803 42.3948C15.1767 42.7055 16.4978 42.3841 16.2765 42.0342V42.0378Z" fill="#20201F"/>
<path d="M45.5524 21.435L46.0666 22.1313L46.6772 22.6919L47.3092 23.2382L47.9305 23.8095L48.4375 24.4772L48.9731 25.1306L49.3195 25.9019L49.8087 26.591L49.9872 27.4301L50.4157 28.1585L50.6728 28.9548L50.9548 29.7475L51.1155 30.5723L51.0584 31.4257L51.3833 32.2326L51.3619 33.0753L51.3762 33.9144L51.2191 34.7428L51.0227 35.5569L50.9548 36.3889L50.7727 37.203L50.6942 38.0528L50.4085 38.8455L49.9622 39.5703L49.5909 40.3202L49.1088 41.0058L48.6839 41.7199L48.1662 42.3733L47.752 43.1089L47.0628 43.6123L46.4737 44.1943L45.8738 44.7728L45.2132 45.2798L44.5705 45.8083L43.9028 46.326L43.0923 46.5795L42.3888 47.0473L41.5819 47.2794L40.7856 47.5258L40.0072 47.8257L39.161 47.8578L38.3754 48.2399L37.5292 48.2149L36.6937 48.1471L35.8581 48.3256L35.0226 48.2506L34.2049 48.0364L33.3979 47.84L32.5731 47.715L31.7911 47.4222L31.0199 47.1187L30.2558 46.8009L29.4952 46.4688L28.6633 46.2368L27.9527 45.7833L27.2743 45.2834L26.7065 44.6514L26.0817 44.0944L25.4568 43.5373L24.8748 42.9303L24.3678 42.259L23.9857 41.5056L23.5215 40.8129L23.0216 40.1274L22.7788 39.3168L22.4396 38.5527L22.2432 37.7386L22.029 36.9352L21.6719 36.1568L21.6326 35.3141L21.5327 34.4857L21.397 33.6502L21.4077 32.8075L21.5826 31.9791L21.6291 31.1436L21.6969 30.3009L22.0825 29.5297L22.2111 28.6977L22.5039 27.9122L22.9181 27.1837L23.2073 26.3946L23.5644 25.6305L24.1714 25.0271L24.6463 24.3451L25.0176 23.5667L25.6782 23.0346L26.2066 22.3741L26.8351 21.8135L27.6171 21.46L28.2955 20.9779L28.8882 20.3459L29.6666 20.021L30.47 19.7675L31.2056 19.3569L32.0125 19.1319L32.8231 18.9284L33.6265 18.6856L34.4513 18.5249L35.2868 18.4392L36.1259 18.5178L36.9543 18.5999L37.7863 18.6249L38.6254 18.6177L39.4466 18.7749L40.2393 19.0462L41.0856 19.1283L41.8497 19.4783L42.6459 19.7496L43.4101 20.0996L44.1349 20.528L44.7241 21.1529L45.5524 21.435Z" fill="#F89A1C"/>
<path d="M45.0381 21.3102C45.2881 21.6495 45.5202 22.0208 45.8308 22.31C46.12 22.5814 46.4164 22.8456 46.7199 23.1063C47.0056 23.3527 47.2734 23.6169 47.559 23.8633C47.7197 23.999 47.4519 23.6919 47.559 23.874C47.6233 23.9775 47.7125 24.0739 47.7875 24.1703C47.8804 24.2953 47.9768 24.4167 48.0732 24.5381C48.2124 24.7095 48.3445 24.8952 48.4945 25.0559C48.6659 25.238 48.3624 24.7416 48.441 24.9773C48.4802 25.0951 48.5445 25.2094 48.5945 25.3237C48.7659 25.7057 48.9658 26.0414 49.2265 26.3734C49.3408 26.5163 49.2408 26.3734 49.2479 26.402C49.2729 26.5127 49.2979 26.627 49.3193 26.7376C49.3622 26.9376 49.3908 27.134 49.48 27.3161C49.5693 27.4982 49.6871 27.6696 49.7907 27.8445C49.8228 27.9017 49.9264 28.1409 49.8478 27.9338C49.8799 28.0231 49.9049 28.1159 49.9371 28.2052C50.062 28.5872 50.1906 28.9622 50.3263 29.3407C50.3727 29.4728 50.4012 29.5906 50.4298 29.7263L50.5012 30.0869C50.5155 30.1548 50.5298 30.4154 50.5334 30.2547C50.5262 30.6261 50.4227 30.9832 50.5476 31.3366C50.6262 31.5509 50.744 31.758 50.8047 31.9758C50.7797 31.883 50.8012 31.9579 50.794 32.0543C50.7833 32.2115 50.7869 32.3721 50.7833 32.5292C50.7762 32.8756 50.819 33.2327 50.7905 33.5754C50.7655 33.8932 50.6762 34.2182 50.6083 34.5288C50.437 35.2786 50.3477 36.0321 50.2084 36.789C50.1834 36.9319 50.1727 37.0711 50.1584 37.2139C50.1477 37.3318 50.1299 37.4532 50.1263 37.5746C50.1263 37.6139 50.1227 37.6603 50.1156 37.696C50.112 37.7281 50.1442 37.6031 50.1156 37.7067C50.0085 38.0852 49.8549 38.4315 49.6514 38.7636C49.4479 39.0957 49.2801 39.4313 49.1015 39.7777C48.948 40.0705 48.7302 40.3204 48.5516 40.5989C48.341 40.9274 48.1696 41.2631 47.9268 41.5666C47.684 41.8701 47.4233 42.1986 47.2698 42.5699C47.2555 42.6056 47.2269 42.6556 47.2019 42.6913C47.2019 42.6913 47.2876 42.6199 47.2269 42.677C47.1519 42.7556 47.0377 42.8163 46.952 42.877C46.802 42.9841 46.6413 43.0877 46.5021 43.2091C46.2164 43.4555 45.9594 43.7482 45.688 44.0125C45.1595 44.5231 44.5632 44.9658 43.9884 45.4229C43.817 45.5586 43.6456 45.6907 43.4742 45.8264C43.4456 45.8478 43.4099 45.8835 43.3778 45.9013C43.3206 45.9335 43.4777 45.8478 43.3813 45.8835C43.2742 45.9228 43.1635 45.9513 43.0564 45.9835C42.9029 46.0299 42.7315 46.0656 42.5887 46.137C42.3816 46.2441 42.2066 46.4084 42.0066 46.5262C41.7317 46.6869 41.3961 46.7369 41.089 46.8297C40.7319 46.9368 40.3784 47.044 40.0285 47.1761C39.9071 47.2225 39.7785 47.2653 39.6607 47.3189C39.5786 47.3546 39.4929 47.3725 39.5929 47.3582C39.3536 47.3939 39.1037 47.3689 38.8609 47.3832C38.7073 47.3939 38.6145 47.4332 38.4753 47.501L38.1325 47.6688C38.0825 47.6938 37.7968 47.8009 37.9789 47.7724C37.654 47.8259 37.2577 47.7545 36.9256 47.726C36.4578 47.6902 36.1258 47.7081 35.6687 47.8045C35.5866 47.8224 35.5009 47.8474 35.4152 47.8581C35.3045 47.8723 35.5402 47.8581 35.4295 47.8474C35.3938 47.8474 35.3581 47.8438 35.3224 47.8366C35.0974 47.8009 34.8689 47.8116 34.6439 47.7759C34.8796 47.8116 34.5904 47.7474 34.544 47.7367L34.2262 47.6545C34.0655 47.6117 33.9048 47.5688 33.7406 47.5296C33.3299 47.4296 32.9336 47.351 32.5194 47.2868C32.4766 47.2796 32.2266 47.2475 32.3766 47.2761C32.5265 47.3046 32.2802 47.2368 32.2445 47.2261C32.0516 47.1546 31.8588 47.0832 31.666 47.0118C30.9198 46.7262 30.1949 46.4012 29.4558 46.0977C29.1166 45.9585 28.7488 45.8799 28.3953 45.7799L28.8416 45.9978C28.531 45.8014 28.2203 45.6086 27.924 45.3907L27.6276 45.1729C27.3455 44.9658 27.5919 45.0408 27.7062 45.2693C27.6062 45.0694 27.3598 44.873 27.2063 44.7087C26.9563 44.4374 26.6707 44.2053 26.3957 43.9625C26.2351 43.8197 26.0744 43.6733 25.9137 43.534C25.803 43.4376 25.7459 43.384 25.8887 43.5233C25.803 43.4376 25.7173 43.3483 25.6352 43.2591C25.5531 43.1698 25.4674 43.0662 25.3745 42.9877C25.2174 42.8591 25.4745 43.1341 25.3495 42.9734C25.2067 42.7877 25.046 42.6021 24.9211 42.4057C24.7461 42.1343 24.6354 41.8237 24.464 41.5487C24.2426 41.1952 23.9963 40.856 23.7499 40.5168C23.6927 40.4347 23.632 40.3561 23.5749 40.274C23.5071 40.1776 23.6285 40.424 23.5928 40.3097C23.5821 40.2776 23.5713 40.2419 23.5606 40.2062C23.5071 39.9848 23.4392 39.7491 23.3571 39.5384C23.2321 39.2064 23.05 38.91 22.9679 38.5636C22.8679 38.1459 22.7679 37.7281 22.6501 37.3175C22.6073 37.164 22.5501 37.0318 22.4823 36.8854C22.4323 36.7748 22.3823 36.6605 22.3288 36.5498C22.3073 36.507 22.2859 36.4641 22.2681 36.4177C22.2252 36.3177 22.2823 36.5427 22.2681 36.4355C22.2074 36.0535 22.2323 35.6464 22.1859 35.2608C22.0967 34.5217 21.9074 33.7897 22.0217 33.0398C22.086 32.6257 22.1824 32.2543 22.2038 31.8365C22.2252 31.4545 22.2109 31.0331 22.2895 30.6582C22.3109 30.5582 22.2609 30.7332 22.2823 30.6689C22.293 30.6332 22.3216 30.5904 22.3395 30.5582C22.4037 30.4404 22.4609 30.3154 22.5216 30.194C22.5966 30.0476 22.6608 29.9227 22.693 29.762C22.743 29.5299 22.7537 29.2871 22.8037 29.055C22.8215 28.9764 22.7929 29.0693 22.7894 29.08C22.8001 29.0371 22.8215 28.9943 22.8358 28.9515C22.8822 28.83 22.9286 28.7051 22.975 28.5801C23.1072 28.223 23.3285 27.9231 23.4892 27.5767C23.6392 27.2554 23.7213 26.9055 23.8713 26.5841C23.9534 26.4056 24.0212 26.1842 24.1319 26.0235C24.2426 25.8628 24.439 25.7164 24.5854 25.5736C24.8318 25.3272 25.0496 25.0273 25.221 24.7238C25.4281 24.3632 25.4924 24.0311 25.8209 23.7669C26.1779 23.4812 26.4064 23.2027 26.7028 22.8528C26.7921 22.7457 26.8921 22.6564 26.9992 22.5635C27.0992 22.4743 27.1991 22.3886 27.2955 22.2993C27.317 22.2779 27.3491 22.2458 27.3741 22.2279C27.4419 22.1815 27.292 22.2779 27.4027 22.2208C27.8061 22.0137 28.1668 21.8673 28.5381 21.603C28.8809 21.3567 29.113 21.0353 29.4308 20.7639C29.4915 20.7104 29.4129 20.7711 29.4058 20.7747C29.4415 20.7532 29.4951 20.7354 29.5343 20.7211C29.6593 20.6782 29.7807 20.6175 29.9021 20.5676C30.0414 20.5104 30.1771 20.4569 30.3163 20.4104C30.7341 20.2748 31.0733 20.1498 31.4554 19.9355C31.791 19.7463 32.1445 19.6642 32.5158 19.5678C33.2585 19.3714 33.9905 19.15 34.7439 19.0036C34.7939 18.9929 35.051 18.95 34.8725 18.975C34.9546 18.9643 35.0367 18.9572 35.1188 18.95C35.3117 18.9286 35.5152 18.8929 35.708 18.8929C36.0793 18.8929 36.4614 18.9608 36.8292 18.9965C37.2541 19.0393 37.6719 19.0643 38.1003 19.0714C38.2574 19.0714 38.4181 19.0714 38.5752 19.0714C38.7002 19.0714 38.8252 19.0714 38.9502 19.0714C39.1323 19.0607 38.8109 19.0286 39.0323 19.075C39.2537 19.1214 39.4822 19.1929 39.7 19.2036C39.8178 19.2107 39.5429 19.15 39.625 19.175C39.6643 19.1857 39.7036 19.2 39.7393 19.2143C39.8892 19.2643 40.0392 19.3178 40.1856 19.3678C40.5677 19.4999 41.0533 19.6106 41.4568 19.5785C41.5674 19.5713 41.2497 19.5428 41.2461 19.5249C41.2461 19.5356 41.3639 19.5785 41.3711 19.5821C41.4746 19.6392 41.5889 19.682 41.696 19.7284C41.846 19.7963 41.9888 19.8606 42.1423 19.9177C42.5387 20.0569 42.91 20.1962 43.2921 20.3712C43.3778 20.4104 43.467 20.4462 43.5527 20.489C43.2564 20.339 43.5384 20.4961 43.5991 20.5318L44.1347 20.8461L43.717 20.514C43.9848 20.7996 44.249 21.146 44.5704 21.3745C44.8917 21.603 45.3309 21.6994 45.7058 21.828C45.9094 21.8958 46.1736 21.9494 46.1307 21.6602C46.095 21.3995 45.638 21.1032 45.4166 21.0282L44.5882 20.7461L45.1595 21.1531C44.8203 20.7925 44.5061 20.4069 44.074 20.1498C43.6991 19.9248 43.3278 19.7177 42.9279 19.5356C42.528 19.3535 42.1459 19.2393 41.7531 19.0822C41.3961 18.9429 41.0604 18.7144 40.6784 18.6573C40.4534 18.6215 40.2177 18.6037 39.9892 18.5894C39.9607 18.5894 39.9142 18.5751 39.8821 18.5787C39.7286 18.5894 40.1856 18.7108 40.0642 18.6251C39.9714 18.5608 39.8107 18.5394 39.7071 18.5037C39.2858 18.3609 38.8752 18.2573 38.436 18.1788C38.0861 18.1181 37.729 18.1574 37.3755 18.1538C36.947 18.1502 36.5257 18.1288 36.1008 18.0859C35.3367 18.011 34.6297 17.9503 33.8691 18.0859C33.1086 18.2216 32.3159 18.4644 31.541 18.668C31.2197 18.7537 30.8733 18.8144 30.5805 18.9715C30.1771 19.1821 29.8521 19.35 29.4165 19.4856C29.0844 19.5892 28.681 19.6999 28.3917 19.8891C28.2203 19.9998 28.0811 20.1998 27.9454 20.3462C27.8811 20.414 27.8204 20.4854 27.7562 20.5497C27.824 20.4854 27.6705 20.6175 27.6062 20.664C27.217 20.9425 26.8456 21.0996 26.4243 21.321C26.1386 21.4709 25.8637 21.7387 25.6459 21.9744C25.3567 22.2815 25.1567 22.5993 24.8282 22.8635C24.7068 22.9599 24.5426 23.0563 24.4533 23.1813C24.314 23.3777 24.2462 23.6419 24.1319 23.8561C23.9713 24.1525 23.7677 24.4596 23.5356 24.7059C23.3785 24.8702 23.1786 25.0166 23.0429 25.1951C22.9286 25.3451 22.8644 25.545 22.7822 25.72C22.6215 26.0592 22.5287 26.427 22.3716 26.7662C22.2145 27.1054 22.0038 27.3732 21.8789 27.7089C21.7253 28.1195 21.6218 28.4694 21.5539 28.905C21.5396 28.9979 21.5361 29.0978 21.5111 29.1871C21.5504 29.0479 21.4468 29.2907 21.4325 29.3228C21.3325 29.5263 21.179 29.7441 21.1254 29.9691C21.0469 30.3012 21.0647 30.6832 21.0433 31.026C21.0183 31.4723 20.9648 31.858 20.8719 32.2936C20.7148 33.0256 20.9148 33.7576 21.0005 34.4824C21.0505 34.9002 21.0576 35.3144 21.0933 35.7357C21.1219 36.0856 21.3575 36.382 21.4754 36.7105C21.6146 37.1068 21.6967 37.5389 21.7967 37.9495C21.8967 38.3601 22.0645 38.6672 22.2074 39.0421C22.3359 39.3813 22.3752 39.7634 22.5751 40.0705C22.7965 40.4097 23.05 40.7275 23.275 41.0667C23.707 41.7094 23.9962 42.3985 24.5211 42.9841C25.0817 43.609 25.728 44.2053 26.3815 44.7337C26.3886 44.7373 26.2351 44.5731 26.3922 44.7516C26.4814 44.8516 26.5707 44.9516 26.66 45.0515C26.8171 45.2265 26.9635 45.3907 27.1563 45.5336C27.4919 45.7907 27.8383 46.0299 28.1953 46.2584C28.6452 46.5476 29.0666 46.7083 29.5772 46.8511C29.6629 46.8761 29.8914 46.9868 29.6629 46.869C29.7557 46.9154 29.8557 46.9547 29.9521 46.994C30.1271 47.0725 30.302 47.1511 30.4806 47.2225C31.234 47.5403 32.0124 47.9081 32.8015 48.1294C33.1693 48.233 33.5585 48.2437 33.9298 48.3365C34.3476 48.4365 34.7582 48.5543 35.176 48.6543C35.5473 48.7436 35.9937 48.8114 36.3721 48.7686C36.565 48.7472 36.7613 48.6865 36.9542 48.6472C37.0006 48.6365 37.2434 48.6008 37.1613 48.6008C37.0791 48.6008 37.3576 48.6258 37.4076 48.6293C37.8397 48.6615 38.2753 48.7043 38.7073 48.6972C38.8645 48.6972 38.9537 48.6579 39.093 48.5865L39.4715 48.4008C39.525 48.3722 39.5822 48.3437 39.6357 48.3187C39.725 48.2794 39.5179 48.333 39.6179 48.3115C40.0463 48.2294 40.4141 48.3115 40.8319 48.1473C41.2497 47.983 41.6389 47.8616 42.0531 47.7367C42.3566 47.6438 42.6993 47.5938 42.9779 47.4403C43.185 47.326 43.3599 47.1475 43.5742 47.044C43.7455 46.9583 43.9491 46.9154 44.1347 46.8583C44.8132 46.6476 45.3666 46.0049 45.9272 45.5764C46.2879 45.2979 46.6092 45.0265 46.9341 44.7087C47.052 44.5945 47.1698 44.4802 47.2841 44.366C47.3805 44.2696 47.4769 44.1767 47.5733 44.0803C47.6875 43.9696 47.5304 44.0982 47.6768 43.9875C47.8589 43.8482 48.0625 43.7304 48.2339 43.5804C48.3874 43.4483 48.4588 43.2805 48.5588 43.102C48.7587 42.7449 49.023 42.4628 49.2586 42.1272C49.7085 41.4844 50.1227 40.7953 50.4798 40.099C50.8369 39.4028 51.2511 38.8564 51.326 38.078C51.3653 37.646 51.4546 37.2532 51.5367 36.8283C51.5974 36.5034 51.5867 36.1677 51.6403 35.8428C51.7081 35.4429 51.8295 35.0537 51.9045 34.6538C51.9795 34.2539 51.9688 33.8647 51.9688 33.4398C51.9688 33.1113 52.0473 32.7363 51.9545 32.4221C51.8866 32.19 51.7688 31.9615 51.6795 31.7401C51.6188 31.5902 51.6545 31.8258 51.6688 31.6616C51.6831 31.4973 51.6903 31.3509 51.701 31.1974C51.7545 30.444 51.4475 29.7441 51.2154 29.0443C51.0761 28.6194 50.9368 28.2623 50.7119 27.8767C50.6583 27.7838 50.5869 27.6839 50.5405 27.5839C50.4941 27.4839 50.5833 27.7124 50.5691 27.6303C50.5619 27.591 50.5476 27.5482 50.5441 27.5089C50.5191 27.2911 50.4727 27.0269 50.3977 26.8233C50.3298 26.6448 50.1799 26.4841 50.0727 26.3306C50.0085 26.2378 49.9442 26.1449 49.8764 26.0521C49.8085 25.9592 49.9442 26.1949 49.8906 26.0914C49.8621 26.0378 49.8407 25.9842 49.8192 25.9271C49.6228 25.4879 49.43 25.1416 49.1265 24.7702C48.873 24.4596 48.6481 24.1204 48.3838 23.8168C48.1446 23.5419 47.8447 23.3062 47.5733 23.0634C47.2591 22.7885 46.9449 22.5136 46.6378 22.2315C46.5699 22.1708 46.4878 22.0601 46.4057 22.0172C46.6235 22.1279 46.6663 22.3315 46.47 22.0637C46.345 21.8923 46.2164 21.7209 46.0915 21.5459C45.9058 21.2924 45.613 21.0353 45.2916 20.9746C45.0524 20.9318 44.8882 21.0603 45.0595 21.2995L45.0381 21.3102Z" fill="black"/>
<path d="M36.108 21.2743C36.3115 21.2457 36.515 21.21 36.7079 21.1493C36.2044 21.31 35.6117 21.1457 36.058 21.3278C36.1223 21.3528 36.1865 21.3707 36.258 21.3814C36.4615 21.4135 36.6936 21.3885 36.9007 21.3671C37.0471 21.3528 37.1935 21.335 37.3399 21.3064C37.397 21.2957 37.4541 21.285 37.5077 21.2743C37.8255 21.21 37.5969 21.2314 36.815 21.3386C37.1292 21.5385 37.5434 21.5599 37.8933 21.6671C38.0861 21.7278 38.2789 21.792 38.4718 21.8599C38.6539 21.9206 38.8431 21.9134 39.0181 21.9706C39.1752 22.0241 39.218 22.1598 39.3323 22.2669C39.4251 22.3562 39.543 22.4097 39.6501 22.4776C39.9929 22.699 40.3285 22.6597 40.7248 22.6168C41.0176 22.5847 40.2749 22.5026 40.4463 22.6633C40.5035 22.7168 40.5892 22.749 40.6534 22.7954C40.807 22.8989 40.8605 22.9561 40.9177 23.1274C41.0391 23.4809 41.2569 23.4095 41.5461 23.5774C41.6104 23.6166 41.8068 23.5952 41.8675 23.5916C42.046 23.5845 42.2245 23.5666 42.3995 23.5416C42.4709 23.5309 42.9494 23.431 42.8708 23.3845C42.753 23.3167 42.628 23.306 42.5066 23.256C42.3602 23.1953 42.3424 23.106 42.2959 22.9739C42.2102 22.7204 42.0103 22.5919 41.771 22.4704C41.4961 22.3312 41.114 22.399 40.8213 22.4347C40.6499 22.4526 40.7713 22.449 41.1783 22.4169L41.0926 22.3669C41.0426 22.3276 40.9855 22.2919 40.9319 22.2598C40.7855 22.1669 40.6963 22.092 40.5892 21.9598C40.3963 21.7242 40.1821 21.7777 39.9107 21.7063C39.5572 21.6171 39.2216 21.46 38.8645 21.3743C38.6789 21.3278 38.4968 21.3028 38.3218 21.2279C38.1825 21.1672 38.0718 21.1172 37.9183 21.1065C37.7041 21.0886 37.4863 21.1065 37.272 21.1315C37.1756 21.1422 37.0828 21.1564 36.9899 21.1707C36.9114 21.1814 36.8328 21.1957 36.7578 21.2136C36.5115 21.2636 36.6686 21.2457 37.2256 21.1672L37.547 21.1814C37.4148 21.1529 37.3113 21.0815 37.1863 21.0386C37.0471 20.9922 36.8935 20.9922 36.7436 20.9958C36.5329 21.0029 36.3222 21.0243 36.1116 21.0565C35.9937 21.0743 35.8759 21.0957 35.7616 21.1243C35.7045 21.1386 35.4581 21.1886 35.7224 21.1493C35.6438 21.16 35.1975 21.2064 35.251 21.3064C35.3046 21.4064 36.0259 21.2814 36.1044 21.2707L36.108 21.2743Z" fill="#20201F"/>
<path d="M31.6948 23.3346C31.8305 23.1954 31.934 23.0597 31.9626 22.8669C31.9697 22.8133 31.9662 22.7562 31.9769 22.6991L31.9519 22.8133C31.959 22.7848 31.9662 22.7633 31.9804 22.7383L31.9126 22.8526C31.9126 22.8526 31.934 22.8205 31.9483 22.8062L31.8448 22.9204C31.8626 22.9026 31.8805 22.8883 31.9019 22.8705L31.7662 22.974C31.8876 22.8812 32.009 22.7848 32.1304 22.6919L31.9947 22.7955C32.0733 22.7348 32.1518 22.6812 32.2411 22.6312L32.0769 22.7205C32.2411 22.6312 32.4089 22.5491 32.5732 22.4598L32.4089 22.5491C32.541 22.4777 32.6839 22.4313 32.816 22.367C32.9624 22.292 33.1195 22.1992 33.2159 22.0635C33.273 21.9814 33.3444 21.835 33.2909 21.7314C33.148 21.4708 32.7089 21.5565 32.4982 21.66C32.4161 21.7029 32.3304 21.735 32.2447 21.7707C32.1126 21.8278 31.9912 21.8992 31.8626 21.9671L32.0269 21.8778C31.8412 21.9778 31.6484 22.0599 31.4734 22.1778C31.3092 22.2884 31.1592 22.417 31.0021 22.5384L31.1378 22.4348C30.9628 22.567 30.7664 22.7169 30.6986 22.9383C30.6664 23.0454 30.6736 23.1347 30.6557 23.2382L30.6807 23.124C30.6736 23.1454 30.6664 23.1633 30.6593 23.1811L30.7271 23.0668C30.7271 23.0668 30.7057 23.0954 30.695 23.1133L30.7986 22.999L30.7843 23.0133C30.6986 23.1025 30.5879 23.2204 30.5879 23.3561C30.5879 23.4703 30.6664 23.5667 30.7736 23.5989C30.9164 23.6453 31.0806 23.6346 31.2235 23.5917C31.3913 23.5417 31.5698 23.4632 31.6948 23.3382V23.3346Z" fill="#20201F"/>
<path d="M31.8553 43.5658C32.2231 43.8372 32.6266 44.0372 32.9908 44.3014C33.2729 44.5049 33.6192 44.6442 33.9477 44.7442C34.2119 44.8263 34.3976 44.8834 34.6476 44.9941C34.9439 45.1262 35.2474 45.2119 35.5438 45.344C35.8402 45.4761 36.1972 45.5761 36.5222 45.5975C36.8471 45.619 37.1649 45.5975 37.4791 45.5975C37.5826 45.5975 37.7719 45.6225 37.8647 45.569C38.0397 45.469 37.6683 45.569 37.6433 45.4726C37.6541 45.5226 37.8433 45.6118 37.879 45.6332C38.1325 45.7761 38.4432 45.8618 38.7288 45.7654C38.8074 45.7368 38.9788 45.6832 39.0288 45.6083C39.1323 45.4583 38.8538 45.6654 38.8395 45.5654C38.8431 45.5975 39.0716 45.6582 39.1145 45.6725C39.7607 45.8511 40.2606 45.4047 40.8534 45.3262C41.1176 45.2905 41.439 45.3119 41.6818 45.1905C41.7925 45.1334 41.8496 45.0584 41.9353 44.9762C42.0745 44.837 42.1852 44.7584 42.3816 44.6834C42.8101 44.5263 43.5528 44.4906 43.7135 43.955C43.7706 43.7694 43.7063 43.8336 43.8527 43.7872C43.992 43.7444 44.1277 43.7515 44.2562 43.6658C44.3669 43.5908 44.4419 43.4873 44.5097 43.3766C44.6097 43.2159 44.7025 43.1195 44.8454 42.991C45.0489 42.8089 45.2917 42.7089 45.4881 42.5196C45.7666 42.2518 45.8666 42.009 46.0522 41.6877C46.3593 41.1592 45.1382 40.5022 44.8239 41.0414C44.6275 41.3806 44.5311 41.652 44.1776 41.8662C43.8242 42.0804 43.5742 42.3197 43.3278 42.6339C43.3135 42.6517 43.2886 42.7517 43.2814 42.7589C43.2314 42.7981 43.0457 42.7767 42.9779 42.791C42.8101 42.8339 42.6565 42.916 42.5673 43.0695C42.4923 43.1981 42.503 43.3445 42.3923 43.4337C42.2531 43.548 42.0317 43.5765 41.8639 43.6123C41.5068 43.6837 41.0855 43.8551 40.8498 44.1407C40.8212 44.1728 40.6784 44.2943 40.7891 44.2478C40.7177 44.2764 40.5999 44.2443 40.5249 44.2478C40.3428 44.2657 40.1499 44.2942 39.9678 44.3192C39.7429 44.3514 39.6215 44.4514 39.4287 44.5478C39.3644 44.5799 39.1502 44.6727 39.1537 44.6727C39.1287 44.6727 39.0216 44.6442 38.9324 44.6192C38.7324 44.5549 38.5217 44.5263 38.3182 44.5835C38.1432 44.6335 38.0076 44.7656 37.829 44.8049L38.2932 44.812C38.4967 44.8548 38.2075 44.737 38.1361 44.6977C38.004 44.6227 37.8683 44.5656 37.7183 44.5371C37.4398 44.4871 37.172 44.5656 36.8935 44.562C36.5971 44.5585 36.2686 44.5906 35.9794 44.5121C35.7116 44.4371 35.476 44.2871 35.2046 44.205C34.9332 44.1229 34.7154 43.9729 34.4512 43.88C34.187 43.7872 33.9049 43.8015 33.6728 43.6551C33.3086 43.4302 32.9265 43.2052 32.5802 42.9517C32.3516 42.7803 31.9303 42.616 31.6768 42.8374C31.4233 43.0588 31.6375 43.4087 31.8446 43.5623L31.8553 43.5658Z" fill="#20201F"/>
</svg>
