<svg width="507" height="144" viewBox="0 0 507 144" fill="none" xmlns="http://www.w3.org/2000/svg">
	<g clip-path="url(#clip0_106_125683)">
		<path
			d="M205.774 69.0687L207.281 62.9132L222.583 68.1304L221.076 73.4851L205.774 69.0687ZM211.42 88.0731L221.205 74.4235L225.091 77.7702L216.313 91.6888L211.42 88.0731ZM222.707 50.7336H228.6L228.1 67.461H223.331L222.707 50.7336ZM226.345 77.7639L230.361 74.4172L240.022 88.0668L235.253 91.6825L226.345 77.7639ZM228.853 68.1304L244.285 62.9132L245.792 69.0687L230.49 73.4851L228.859 68.1304H228.853Z"
			fill="black" />
	</g>
	<path
		d="M11.4973 141.339V2.5784H28.9416L81.869 122.706L134.995 2.5784H152.241V141.339H137.77V29.9341H137.175L88.0141 141.339H75.7238L26.5628 29.9341H26.1663V141.339H11.4973ZM227.007 143.322C191.326 143.322 164.367 118.345 164.367 71.9589C164.367 25.5731 191.326 0.794332 227.007 0.794332C262.49 0.794332 289.45 25.5731 289.45 71.9589C289.45 118.345 262.49 143.322 227.007 143.322ZM227.007 130.635C254.363 130.635 274.583 111.01 274.583 71.9589C274.583 33.1058 254.363 13.481 227.007 13.481C199.453 13.481 179.234 33.1058 179.234 71.9589C179.234 111.01 199.453 130.635 227.007 130.635ZM400.815 141.339H385.947L353.834 87.0244H351.455H316.171V141.339H301.502V2.5784H351.455C383.37 2.5784 399.824 18.635 399.824 44.9996C399.824 66.2102 388.921 80.681 367.71 85.4385L400.815 141.339ZM316.171 15.4633V73.9412H350.861C373.459 73.9412 384.956 63.6332 384.956 44.9996C384.956 25.7713 373.459 15.4633 350.861 15.4633H316.171ZM410.884 141.339V2.5784H498.304V15.4633H425.553V64.0297H492.357V75.9235H425.553V128.454H500.286V141.339H410.884Z"
		fill="black" />
	<defs>
		<clipPath id="clip0_106_125683">
			<rect width="40.0182" height="40.9489" fill="white" transform="translate(205.774 50.7336)" />
		</clipPath>
	</defs>
</svg>