<svg width="143" height="77" viewBox="0 0 143 77" fill="none" xmlns="http://www.w3.org/2000/svg">
<mask id="mask0_66_2439" style="mask-type:luminance" maskUnits="userSpaceOnUse" x="57" y="53" width="19" height="19">
<path d="M75.4967 53.4323H57.5063V71.4226H75.4967V53.4323Z" fill="white"/>
</mask>
<g mask="url(#mask0_66_2439)">
<path d="M57.5063 61.4873L58.184 58.7832L65.0627 61.0754L64.3851 63.428L57.5063 61.4873ZM60.0448 69.8367L64.4437 63.8399L66.1906 65.3105L62.2443 71.4253L60.0448 69.8367ZM65.1186 53.4323H67.7677L67.5431 60.7811H65.399L65.1186 53.4323ZM66.7543 65.3077L68.5593 63.8371L72.9028 69.8339L70.7588 71.4226L66.7543 65.3077ZM67.8817 61.0754L74.819 58.7832L75.4967 61.4873L68.6179 63.428L67.8845 61.0754H67.8817Z" fill="black"/>
</g>
<path d="M29.1763 8.65933C30.5422 9.20965 31.4212 10.2667 31.8614 11.5774C32.1699 12.6157 32.2445 13.8176 32.0403 15.0807C31.9989 15.4045 31.9254 15.7667 31.8487 16.0937C31.5899 17.1485 31.1162 18.1874 30.5689 19.1975L29.1293 18.6184C29.5838 17.759 29.9646 16.8708 30.1658 15.9635C30.2522 15.7423 30.3001 15.4891 30.348 15.2358C30.3988 14.6268 30.3471 14.0627 30.164 13.6172C29.8911 12.9668 29.3811 12.4447 28.5699 12.128C28.0152 11.8944 27.2939 11.7827 26.4734 11.7513C22.7999 11.6258 18.4554 14.2639 14.4997 18.0395C9.95778 22.4021 6.01314 28.2388 4.16748 33.3142C3.32308 35.7381 3.08741 37.8217 4.19478 39.8178C4.87842 41.0706 6.13239 41.9512 7.89871 42.2158C8.54627 42.2987 9.22257 42.3078 10.0015 42.272C12.9662 42.0358 16.3118 40.9114 19.5956 38.7261C22.9147 36.5376 25.6371 33.6572 30.332 28.2495L31.6788 28.9793C26.574 34.9579 23.381 38.5214 19.6552 41.316C16.1601 43.9117 12.6098 45.517 9.50082 45.731C8.61616 45.7762 7.7988 45.7804 7.07753 45.6687C4.84317 45.3403 3.31981 44.2354 2.4243 42.611C0.931796 39.9036 1.56908 34.8323 2.81336 31.3407C4.73574 25.9383 8.9333 19.7585 13.7059 15.197C18.0524 11.03 22.9095 8.16718 27.115 8.27946C27.9004 8.3141 28.5864 8.42901 29.1763 8.65933ZM37.5835 19.3722C37.3532 19.9621 36.9145 20.6067 36.5399 21.1744C36.4855 21.3571 36.4344 21.5751 36.5146 21.6744C36.6269 21.7352 36.8801 21.7831 37.1301 21.7958C37.4892 21.834 37.8129 21.8754 38.1144 22.0611C38.6403 22.3684 38.8715 22.9516 38.318 24.2822C38.6359 25.0352 38.1049 26.6127 35.6811 30.0346C35.0855 30.9069 34.3845 32.1799 34.0231 33.2796C34.0328 33.3854 34.0425 33.4911 34.0522 33.5969C34.1389 33.7667 34.2191 33.866 34.4371 33.9171C34.7224 33.9266 35.2095 33.8108 35.8952 33.5346C37.0872 32.9632 38.2533 32.1097 39.2975 31.0896C40.5403 29.9091 41.5906 28.5685 42.2981 27.366L42.3333 27.3628L42.3621 27.289L43.7698 27.9066L43.741 27.9803C42.8445 29.449 41.4678 31.495 39.8824 33.2047C38.6526 34.5262 37.336 35.6779 35.971 36.3008C34.9104 36.7535 34.1092 36.9336 33.5354 36.8795C32.7821 36.8064 32.317 36.3868 32.1498 35.7266C31.9603 35.2107 32.0079 34.5664 32.1933 33.8739C32.2156 33.7297 32.2732 33.5822 32.2923 33.4027C32.3338 33.0789 32.3752 32.7551 32.4486 32.3929C32.7616 30.7643 33.7505 28.7539 34.599 27.5384C35.2906 26.5507 35.7901 25.7938 36.1679 25.2614C35.7351 25.1945 35.3024 25.1274 34.9495 24.7687C34.8308 24.6374 34.7089 24.4708 34.6575 24.2978C34.1836 24.9456 33.556 25.8564 32.9573 26.6934C32.1375 27.8351 30.6808 30.1729 30.4279 30.516L30.3926 30.5193L29.1739 29.6355L29.1707 29.6003L29.2059 29.5971C29.334 29.4431 29.8335 28.6862 31.1909 26.4287C32.02 25.0017 33.2463 23.2539 34.0981 22.0736C34.7897 21.0859 35.5195 19.7391 36.1856 18.8603L37.5835 19.3722ZM55.5221 22.2075C54.7033 24.5224 52.2017 26.7071 49.3947 28.2798C47.4693 29.3806 45.412 30.2092 43.6366 30.6208C43.8232 31.4925 44.2084 32.2038 44.7855 32.6842C45.3243 33.1325 46.0204 33.3531 46.7575 33.25C48.3757 33.0661 50.3049 32.0005 52.073 30.7363C54.2387 29.1512 56.0548 27.2427 56.6564 26.0498L58.1569 26.5167C57.4401 28.0045 56.0023 29.7718 54.3015 31.3853C52.7285 32.8449 50.8995 34.2214 49.0921 35.0625C48.82 35.1941 48.5473 35.3257 48.307 35.4189C46.5578 36.1125 45.1057 36.1745 44.0059 35.8131C42.8677 35.4197 42.1106 34.5292 41.7892 33.3499C41.741 33.2121 41.7281 33.0711 41.7184 32.9653C41.5897 32.3371 41.5956 31.6255 41.7105 30.9395L41.4989 30.9589C41.1784 30.9528 40.8579 30.9466 40.5341 30.9051L41.1578 29.177C41.3373 29.1961 41.5169 29.2152 41.7284 29.1958C41.7989 29.1893 41.8694 29.1829 41.9399 29.1764C42.1315 28.1634 42.4993 27.1342 43.0435 26.0889C43.9205 24.4086 45.2237 22.7249 46.662 21.3487C48.0967 19.9373 49.6987 18.7949 51.1758 18.2329C52.3424 17.7705 53.4319 17.635 54.349 17.9421C54.8652 18.1436 55.2854 18.4606 55.5423 18.9348C55.8021 19.4443 55.8897 20.7872 55.7366 21.4413C55.6918 21.7298 55.6438 21.9831 55.5221 22.2075ZM44.0647 28.6972C45.5162 28.2442 47.115 27.4577 48.6594 26.4629C51.1135 24.9225 53.2437 22.9496 53.8932 21.1125C53.9569 21.0355 53.9827 20.9265 54.0113 20.8528C53.8895 20.6862 53.7355 20.5581 53.5145 20.4717C53.0366 20.3022 52.4051 20.3956 51.7196 20.6718C50.4857 21.1759 49.0857 22.1931 47.7853 23.521C46.4499 24.8523 45.2104 26.459 44.3976 28.0624C44.2758 28.2868 44.1895 28.5081 44.0647 28.6972ZM75.0116 24.5096L76.6302 24.7168C75.9747 26.4834 73.9345 28.6613 72.522 29.9285C70.776 31.4395 68.8603 32.6461 67.4819 32.7369C67.0589 32.7757 66.6931 32.667 66.427 32.4781C65.8176 32.0362 65.7336 31.1195 66.0183 29.9558L66.0469 29.882C65.3646 30.5845 64.609 31.2582 63.8497 31.8966C61.9631 33.4206 59.8928 34.4991 58.0688 34.3819C56.851 34.2802 56.0267 33.8224 55.6 33.0439C55.1346 32.2333 55.0728 31.1724 55.386 29.9349C55.3731 29.4028 55.427 28.829 55.5834 28.2102C55.8712 27.0817 56.4663 25.8184 57.3119 24.5677C59.4919 21.2037 66.3209 14.6405 70.1948 17.3428C70.8812 17.8488 71.4107 18.5824 71.7032 19.4444C72.0875 18.9826 72.5995 18.3668 73.0608 17.9689L73.9211 19.2056C72.4699 20.4407 69.6528 25.3919 68.8141 27.1042C68.3662 28.034 68.0175 28.8837 67.797 29.5794C67.8067 29.6852 67.8099 29.7205 67.8482 29.7525C67.8869 29.7845 67.922 29.7813 68.0276 29.7716C69.0535 29.7131 70.6136 28.8946 72.0427 27.8037C73.0423 27.0721 74.5863 25.6863 75.0116 24.5096ZM63.6426 29.2492C67.3685 26.8456 68.107 24.4314 70.5025 21.0833C70.4406 20.4134 69.9309 19.8913 69.2704 19.6674C66.0768 18.5736 60.1705 24.3412 58.5186 26.8746C57.8622 27.8592 57.382 28.8275 57.1426 29.7027C57.1587 29.8791 57.2099 30.0521 57.2934 30.1866C57.5439 30.5904 58.031 30.8657 58.7811 30.9035C60.2812 30.9794 62.0309 30.2857 63.6426 29.2492ZM81.7547 15.4655C81.3834 16.0684 81.0476 16.6681 80.7113 17.2677C78.4224 21.3883 76.5634 25.5406 76.0587 27.7911C76.0269 28.2207 76.0559 28.5379 76.1205 28.852C76.281 29.4417 76.5283 29.8101 76.9001 29.9893C76.9739 30.0181 77.0828 30.0437 77.1598 30.1078C78.3684 30.4947 79.8007 29.8301 81.156 28.7104C82.6422 27.4721 84.0446 25.7081 84.9413 24.2394C85.159 23.8994 85.3768 23.5595 85.5271 23.2613L85.5239 23.226L85.559 23.2228L85.5557 23.1876L85.5913 23.1843L85.588 23.1491L87.0563 23.6544L87.0595 23.6897L87.024 23.6929L87.0273 23.7282C86.7588 24.2861 86.3907 24.9242 85.9552 25.6041C84.8343 27.3422 83.2848 29.4397 81.6509 31.0115C79.8159 32.7085 77.813 33.7453 76.0144 33.128C75.9055 33.1025 75.7935 33.0417 75.6809 32.9808C74.9756 32.6544 74.5009 32.1291 74.244 31.2638C74.0318 30.5011 74.0406 29.4338 74.3376 28.02L74.3344 27.9847C74.3916 27.4462 74.4488 26.9077 74.5701 26.2921C75.0333 23.9743 76.8221 20.2195 79.0695 16.4228C79.2231 16.1598 79.38 15.9321 79.5336 15.6691C78.617 15.7531 77.5307 15.9239 76.6302 16.1842L76.5454 14.4854C77.9011 14.1478 79.3435 13.9801 80.6831 13.8573C82.4282 11.1731 84.3301 8.65227 86.1494 6.77902L86.2135 6.70203L87.304 7.73975C85.8754 9.22169 84.3255 11.3191 82.8337 13.6601L82.8692 13.6569C84.9524 13.5015 87.0808 13.4486 89.1672 13.3285L88.8641 15.0628C86.5272 15.1703 84.1908 15.2778 81.7902 15.4623L81.7547 15.4655ZM91.6102 17.9397C89.7816 20.0982 87.8285 22.837 86.4133 25.2421C85.9206 26.0694 85.4981 26.8903 85.2038 27.5572C85.2135 27.663 85.1876 27.772 85.1973 27.8778C85.2232 28.1598 85.3486 28.3617 85.5055 28.525C85.6951 28.6499 85.916 28.7363 86.1628 28.7136C87.2238 28.652 88.4379 27.9363 89.5205 26.9482C90.6705 25.9185 91.9483 24.3437 92.4603 22.9458L94.0472 23.1914C93.3368 25.1408 91.63 27.4659 90.1313 28.9543C88.6676 30.4395 86.9954 31.5882 85.4759 31.6919C84.838 31.7148 84.29 31.5518 83.8633 31.1643C83.4753 30.8087 83.1801 30.3025 83.1215 29.6679C83.0666 29.0686 83.2424 28.2703 83.5911 27.4206C84.2715 24.3718 88.2428 19.5993 90.4237 17.0174L91.6102 17.9397ZM95.5865 11.6735C95.2248 11.9911 94.8849 12.1644 94.4619 12.2032C94.0744 12.2388 93.7441 12.1268 93.5065 11.8641C93.2339 11.6047 93.1661 11.2554 93.2012 10.8611C93.2713 10.4636 93.4507 10.0916 93.7773 9.77727C94.1007 9.42765 94.4757 9.25107 94.8637 9.21551C95.2867 9.17676 95.617 9.28867 95.8577 9.58661C96.0948 9.84927 96.1977 10.1953 96.1627 10.5896C96.0925 10.9871 95.9136 11.3591 95.5865 11.6735ZM94.6782 30.8485C93.752 31.2178 92.9733 31.2536 92.3381 30.9207C91.928 30.7095 91.5428 30.3892 91.315 29.8413C91.0903 29.3286 91.0257 28.6235 91.1466 27.6169C91.1913 27.3284 91.2361 27.0399 91.3159 26.7481C91.3251 26.4628 91.3348 26.1776 91.3763 25.8538C91.6374 24.0522 92.572 21.8334 93.8654 19.6528C95.2193 17.36 96.9999 15.0637 98.7648 13.3731L99.7561 14.491C98.2892 15.9409 96.7231 18.2532 95.414 20.6485C94.294 22.7777 93.3885 24.9228 93.0084 26.593C93.0019 26.9136 93.0277 27.1956 93.0859 27.4391C93.15 27.7532 93.2754 27.9551 93.4258 28.0479C93.6472 28.1343 93.9997 28.102 94.4453 27.9189C95.0989 27.6813 95.8711 27.1839 96.7679 26.4972C98.3635 25.2844 100.086 23.5266 101.588 21.6824C101.969 21.1853 102.35 20.6882 102.696 20.1943C102.622 19.7745 102.619 19.3482 102.612 18.8866C102.621 18.2103 102.697 17.4923 102.844 16.7677C103.982 11.3306 107.767 11.908 106.469 16.3644C105.648 19.035 103.393 22.3702 102.385 23.7781C100.87 25.8723 99.1347 27.8802 97.5424 29.1283C96.4754 29.9015 95.5367 30.5208 94.6782 30.8485ZM104.7 16.0644C104.255 17.4206 104.409 17.5487 104.911 16.045C105.337 14.8683 104.978 15.2211 104.7 16.0644ZM119.761 16.3192C118.943 18.634 116.441 20.8188 113.634 22.3915C111.709 23.4923 109.652 24.3208 107.876 24.7324C108.063 25.6042 108.448 26.3154 109.025 26.7958C109.564 27.2442 110.26 27.4648 110.997 27.3617C112.615 27.1778 114.544 26.1122 116.313 24.8479C118.478 23.2629 120.294 21.3544 120.896 20.1616L122.396 20.6284C121.679 22.1162 120.242 23.8834 118.541 25.497C116.968 26.9566 115.139 28.333 113.331 29.1742C113.059 29.3058 112.787 29.4374 112.547 29.5305C110.797 30.2242 109.345 30.2862 108.245 29.9248C107.107 29.5314 106.35 28.6409 106.029 27.4616C105.98 27.3238 105.967 27.1828 105.958 27.077C105.829 26.4489 105.835 25.7373 105.95 25.0512L105.738 25.0706C105.418 25.0644 105.097 25.0582 104.774 25.0168L105.397 23.2887C105.577 23.3078 105.756 23.3269 105.968 23.3075C106.038 23.3011 106.109 23.2946 106.18 23.2881C106.371 22.2751 106.739 21.2459 107.283 20.2005C108.16 18.5203 109.463 16.8365 110.901 15.4604C112.336 14.049 113.938 12.9067 115.416 12.3446C116.582 11.8822 117.672 11.7467 118.588 12.0538C119.104 12.2553 119.525 12.5723 119.782 13.0465C120.041 13.556 120.129 14.8989 119.976 15.5529C119.931 15.8415 119.883 16.0947 119.761 16.3192ZM108.304 22.8089C109.756 22.3559 111.355 21.5694 112.899 20.5746C115.353 19.0342 117.483 17.0613 118.133 15.2242C118.197 15.1472 118.222 15.0382 118.251 14.9645C118.129 14.7979 117.975 14.6698 117.754 14.5834C117.276 14.4139 116.644 14.5073 115.959 14.7835C114.725 15.2876 113.325 16.3048 112.025 17.6327C110.689 18.964 109.45 20.5708 108.637 22.174C108.516 22.3985 108.429 22.6197 108.304 22.8089Z" fill="black"/>
<mask id="mask1_66_2439" style="mask-type:luminance" maskUnits="userSpaceOnUse" x="31" y="26" width="92" height="24">
<path d="M122.087 31.7685L32.1587 26.6336L31.1728 43.8993L121.101 49.0342L122.087 31.7685Z" fill="white"/>
</mask>
<g mask="url(#mask1_66_2439)">
<path d="M104.006 33.687L86.7846 35.6545L68.6914 37.7215L49.7255 39.8877L31.9862 41.9145C31.761 41.9407 31.5503 42.0849 31.4096 42.3112C30.9682 43.014 31.39 44.0217 32.0906 43.941L48.3541 42.0821L67.3551 39.9108L84.5409 37.9483L102.634 35.8813L121.274 33.7533C121.503 33.7273 121.714 33.5796 121.858 33.3463C122.29 32.6395 121.867 31.6459 121.173 31.727L104.006 33.687Z" fill="black"/>
</g>
<path d="M91.076 50.7148C91.1442 50.7245 91.2028 50.749 91.2522 50.7882C91.3108 50.8177 91.3744 50.8421 91.4427 50.8615C91.5506 50.9206 91.6484 50.9985 91.7365 51.0963C91.8343 51.1844 91.9077 51.2924 91.9566 51.4192C91.9856 51.7227 91.9856 52.0263 91.9566 52.3293C91.9367 52.6329 91.9173 52.9313 91.898 53.2247C91.8781 53.2639 91.8588 53.3077 91.8389 53.3566C91.8196 53.3958 91.7854 53.4254 91.7365 53.4447C91.6286 53.4839 91.5114 53.4987 91.3841 53.489C91.2665 53.4793 91.1687 53.435 91.0907 53.3566C90.9242 53.161 90.8264 52.9359 90.7969 52.6818C90.7185 52.4566 90.616 52.2265 90.4887 51.9917C90.3614 51.7569 90.1658 51.5954 89.9015 51.5073C89.7843 51.4584 89.6519 51.4437 89.5053 51.4635C89.3586 51.4732 89.2363 51.5221 89.1385 51.6102L88.889 51.9331C88.8793 52.0701 88.8548 52.202 88.8156 52.3293C88.7861 52.4566 88.752 52.584 88.7128 52.7108C88.6832 52.8284 88.6542 52.9507 88.6247 53.078C88.6053 53.2053 88.6002 53.3373 88.6099 53.4743C88.6196 53.6897 88.6002 53.895 88.5513 54.0905C88.5024 54.2764 88.4927 54.4674 88.5218 54.663C88.5218 55.0154 88.5172 55.3674 88.5075 55.7198C88.4973 56.0626 88.5121 56.4048 88.5513 56.7471C88.561 57.07 88.5951 57.3786 88.6542 57.672C88.7128 57.9654 88.7764 58.2638 88.8447 58.5674C88.9037 58.7141 89.0015 58.8511 89.1385 58.9784C89.2755 59.1154 89.4222 59.1933 89.5786 59.2132C89.9015 59.2132 90.1561 59.0808 90.342 58.8169C90.4205 58.6112 90.5081 58.4156 90.6064 58.2297C90.7138 58.0535 90.7821 57.8528 90.8116 57.6277C90.8412 57.5594 90.8656 57.4861 90.885 57.4077C90.9145 57.3293 90.9436 57.261 90.9731 57.2024C91.0123 57.1337 91.0612 57.0802 91.1198 57.041C91.1784 56.9921 91.2568 56.9676 91.3546 56.9676C91.4722 56.9676 91.5894 56.9722 91.707 56.9819C91.8343 56.9819 91.927 57.0456 91.9856 57.1729C92.035 57.3394 92.0493 57.5156 92.0299 57.7015C92.0101 57.8874 92.0299 58.0632 92.0885 58.2297C92.0594 58.3667 92.0544 58.5037 92.0737 58.6407C92.0936 58.7874 92.1032 58.9295 92.1032 59.0665C92.1129 59.2035 92.0982 59.3303 92.0594 59.448C92.0202 59.5651 91.927 59.6634 91.7803 59.7413C91.5257 59.9079 91.242 60.0204 90.9293 60.079C90.6257 60.1477 90.3176 60.2109 90.0044 60.27C89.8379 60.2501 89.6718 60.2552 89.5053 60.2847C89.3392 60.3138 89.1727 60.3041 89.0061 60.2552C88.8987 60.1966 88.781 60.1524 88.6542 60.1233C88.5365 60.1035 88.4194 60.079 88.3018 60.0495C88.1846 60.0204 88.067 59.9863 87.9493 59.9471C87.8322 59.9079 87.7247 59.8493 87.6264 59.7709C87.4115 59.6043 87.2057 59.4281 87.0101 59.2422C86.8146 59.0665 86.6628 58.8607 86.5553 58.6259C86.3888 58.4008 86.2716 58.1513 86.2029 57.8773C86.1346 57.6134 86.0613 57.3491 85.9828 57.0848C85.9533 56.6936 85.9044 56.307 85.8362 55.9256C85.7674 55.5436 85.7527 55.1474 85.7919 54.7363C85.8117 54.4822 85.8505 54.2423 85.9095 54.0172C85.9778 53.7824 86.0317 53.5425 86.071 53.298C86.0903 53.2395 86.1148 53.1855 86.1443 53.1366C86.1734 53.0877 86.208 53.0337 86.2472 52.9751C86.2665 52.7699 86.3251 52.5789 86.4229 52.4027C86.5207 52.2168 86.6139 52.036 86.702 51.8597C86.839 51.654 87.0005 51.4732 87.1864 51.3168C87.3723 51.1503 87.5632 50.9985 87.7588 50.8615C87.9249 50.8126 88.0817 50.749 88.2284 50.671C88.3751 50.5829 88.5319 50.5289 88.698 50.5095C88.8645 50.4897 89.0306 50.4606 89.1971 50.4214C89.3733 50.3822 89.5495 50.3822 89.7253 50.4214C89.9606 50.4408 90.1954 50.4606 90.4301 50.48C90.6649 50.4994 90.8799 50.5778 91.076 50.7148ZM96.8093 50.6415C97.0538 50.6807 97.3034 50.7097 97.558 50.7296C97.8122 50.749 98.0521 50.808 98.2772 50.9058C98.5023 51.0525 98.7371 51.2089 98.9815 51.3754C99.2362 51.5318 99.417 51.7523 99.5245 52.036C99.6716 52.3196 99.7644 52.6278 99.8036 52.9604C99.8428 53.293 99.8082 53.6209 99.7007 53.9438C99.6324 54.0809 99.5734 54.2179 99.5245 54.3549C99.4853 54.4919 99.4022 54.6192 99.2749 54.7363C99.1674 54.854 99.0503 54.9615 98.923 55.0592C98.7956 55.157 98.6683 55.2451 98.5415 55.3236C98.4824 55.3628 98.4483 55.4167 98.4386 55.485C98.4677 55.6026 98.512 55.7198 98.5705 55.8374C98.6393 55.9449 98.6979 56.0672 98.7467 56.2042C98.8542 56.3315 98.9179 56.4782 98.9377 56.6447C98.9571 56.8108 99.0258 56.9575 99.143 57.0848C99.2117 57.3002 99.2897 57.5105 99.3778 57.7158C99.4659 57.9312 99.554 58.1416 99.6421 58.3473C99.7399 58.5037 99.8377 58.6504 99.9355 58.7874C100.033 58.9341 100.156 59.0762 100.303 59.2132C100.361 59.3303 100.376 59.4576 100.347 59.5947C100.327 59.7413 100.273 59.8687 100.185 59.9761C100.087 60.0546 99.9798 60.0988 99.8622 60.1085C99.7547 60.1279 99.6421 60.1279 99.5245 60.1085C99.4073 60.0988 99.2851 60.0841 99.1578 60.0642C99.0401 60.0546 98.923 60.0596 98.8053 60.079C98.7564 60.079 98.6928 60.0841 98.6148 60.0938C98.5461 60.1131 98.4824 60.1085 98.4238 60.079C98.2868 60.0301 98.1448 59.9812 97.9981 59.9323C97.8611 59.8834 97.7831 59.7759 97.7633 59.6094C97.7536 59.5407 97.7291 59.4724 97.6899 59.4037C97.6604 59.3451 97.6263 59.2865 97.5871 59.2279C97.5479 59.1689 97.5091 59.1103 97.4699 59.0517C97.4404 58.9931 97.4256 58.9244 97.4256 58.846C97.4062 58.7288 97.362 58.6209 97.2937 58.5231C97.2351 58.435 97.1811 58.3372 97.1322 58.2297C97.0736 58.0143 97.0049 57.8039 96.927 57.5987C96.8485 57.4031 96.7655 57.207 96.6774 57.0114C96.6087 56.8551 96.5501 56.6982 96.5012 56.5418C96.462 56.3855 96.3739 56.2383 96.2369 56.1013C96.188 56.0916 96.1538 56.1211 96.134 56.1894C96.1243 56.2581 96.1243 56.3264 96.134 56.3951C96.1442 56.4634 96.1538 56.5368 96.1635 56.6152C96.0948 56.9478 96.0754 57.2854 96.1049 57.6277C96.1442 57.9801 96.1538 58.3275 96.134 58.6702C96.1442 58.7579 96.1732 58.8266 96.2221 58.8755C96.2812 58.9341 96.3397 58.983 96.3983 59.0222C96.4671 59.0711 96.5303 59.1154 96.5893 59.1546C96.6576 59.2035 96.7115 59.2621 96.7507 59.3303C96.7996 59.4088 96.8241 59.5019 96.8241 59.6094C96.8241 59.7169 96.7996 59.8101 96.7507 59.888C96.6137 60.0449 96.4375 60.0988 96.2221 60.0495C96.1243 60.0204 96.0265 60.0107 95.9287 60.0204C95.8406 60.0301 95.7474 60.0398 95.6497 60.0495C95.5519 60.0693 95.449 60.0841 95.3415 60.0938C95.2437 60.1035 95.1408 60.0988 95.0334 60.079C94.8668 60.0301 94.686 60.0057 94.4904 60.0057C94.3045 60.0057 94.1232 60.0153 93.947 60.0352C93.8788 60.0352 93.8003 60.0398 93.7122 60.0495C93.6343 60.0596 93.5508 60.0642 93.4627 60.0642C93.3847 60.0642 93.3114 60.0495 93.2426 60.0204C93.1744 59.9909 93.1204 59.9374 93.0812 59.859C93.0521 59.7612 93.0374 59.6583 93.0374 59.5508C93.0374 59.453 93.0664 59.3649 93.1255 59.2865C93.2034 59.2081 93.2915 59.1546 93.3893 59.1251C93.4973 59.0955 93.5854 59.037 93.6536 58.9488C93.7122 58.8317 93.7418 58.7044 93.7418 58.5674C93.7514 58.44 93.7367 58.3081 93.6979 58.1711C93.7367 58.0341 93.7468 57.8971 93.727 57.7601C93.7076 57.6231 93.6929 57.4861 93.6832 57.3491C93.7514 57.0654 93.7662 56.7863 93.727 56.5123C93.6979 56.2286 93.6979 55.9449 93.727 55.6612C93.7468 55.4656 93.7468 55.2696 93.727 55.074C93.7076 54.8687 93.7173 54.663 93.7565 54.4577C93.7565 54.2128 93.7418 53.9683 93.7122 53.7238C93.6929 53.4692 93.6979 53.2196 93.727 52.9751C93.7076 52.8086 93.6979 52.6329 93.6979 52.447C93.7076 52.2611 93.7025 52.0849 93.6832 51.9183C93.6536 51.8302 93.6047 51.7619 93.5365 51.7131C93.4677 51.6642 93.3944 51.6199 93.316 51.5807C93.2477 51.5318 93.179 51.4783 93.1107 51.4192C93.0521 51.3606 93.0175 51.2776 93.0078 51.1696C92.9885 51.023 93.0129 50.9058 93.0812 50.8177C93.1887 50.7097 93.3063 50.6562 93.4336 50.6562C93.5609 50.6562 93.6878 50.6562 93.8151 50.6562C93.9618 50.6562 94.1136 50.6562 94.2699 50.6562C94.4268 50.6465 94.5735 50.6415 94.7105 50.6415C95.0527 50.6608 95.4001 50.671 95.7525 50.671C96.1146 50.671 96.4671 50.6608 96.8093 50.6415ZM97.0589 52.036C96.9514 51.8989 96.8287 51.7961 96.6917 51.7278C96.5547 51.6494 96.408 51.6199 96.2516 51.6397C96.2124 51.6591 96.188 51.6886 96.1783 51.7278C96.1686 51.7666 96.1585 51.8108 96.1488 51.8597C96.1585 52.0752 96.1538 52.2901 96.134 52.5055C96.1146 52.7108 96.1146 52.9262 96.134 53.1514C96.0754 53.4157 96.0657 53.6795 96.1049 53.9438C96.1442 54.2082 96.1585 54.4771 96.1488 54.7511L96.193 54.8392C96.2516 54.8881 96.3153 54.9029 96.3836 54.883C96.462 54.854 96.5353 54.8295 96.6041 54.8097C96.7701 54.7608 96.8974 54.6828 96.9855 54.5749C97.0737 54.4577 97.1373 54.3304 97.1761 54.1934C97.2153 54.0467 97.2397 53.895 97.2499 53.7386C97.2596 53.5817 97.2743 53.43 97.2937 53.2833C97.2743 53.0582 97.2545 52.8381 97.2351 52.6227C97.225 52.3981 97.1664 52.202 97.0589 52.036ZM106.501 50.5534C106.609 50.5534 106.711 50.5631 106.809 50.5829C106.907 50.5926 106.985 50.6512 107.044 50.7591L107.088 50.9058C107.088 51.219 107.093 51.5318 107.103 51.845C107.113 52.1485 107.093 52.4567 107.044 52.7699C107.005 52.8478 106.946 52.9018 106.868 52.9313C106.799 52.9604 106.726 52.9751 106.648 52.9751C106.511 52.9751 106.374 52.9701 106.237 52.9604C106.1 52.9507 105.983 52.8921 105.885 52.7842C105.826 52.7062 105.767 52.6181 105.709 52.5203C105.65 52.4124 105.586 52.3146 105.518 52.2265C105.449 52.1287 105.376 52.0456 105.298 51.9769C105.219 51.9086 105.121 51.8597 105.004 51.8302C104.906 51.8012 104.803 51.7716 104.696 51.7421C104.588 51.7034 104.485 51.713 104.387 51.7716L104.329 51.8597C104.339 52.1923 104.329 52.53 104.299 52.8723C104.27 53.215 104.28 53.5425 104.329 53.8557L104.285 54.4577C104.304 54.4771 104.329 54.5016 104.358 54.5311C104.387 54.5601 104.422 54.58 104.461 54.5897C104.598 54.5703 104.725 54.5357 104.843 54.4868C104.97 54.4282 105.072 54.3452 105.151 54.2372C105.19 54.169 105.224 54.0956 105.254 54.0172C105.292 53.9291 105.332 53.8511 105.371 53.7824C105.41 53.704 105.459 53.6357 105.518 53.5771C105.577 53.5181 105.66 53.4839 105.767 53.4743C105.855 53.4743 105.943 53.4839 106.031 53.5038C106.12 53.5135 106.188 53.5721 106.237 53.6795C106.276 53.8461 106.291 54.0024 106.281 54.1496C106.271 54.2963 106.286 54.4527 106.325 54.6192C106.276 54.8245 106.261 55.0302 106.281 55.2355C106.311 55.4412 106.32 55.6465 106.311 55.8517C106.34 55.9791 106.349 56.1013 106.34 56.2189C106.33 56.3264 106.325 56.4487 106.325 56.5857C106.315 56.6641 106.276 56.7277 106.208 56.7766C106.149 56.8158 106.085 56.8449 106.017 56.8647C105.87 56.8841 105.738 56.8795 105.62 56.85C105.503 56.8108 105.405 56.7227 105.327 56.5857C105.278 56.5271 105.244 56.4634 105.224 56.3951C105.205 56.3167 105.185 56.2434 105.166 56.1746C105.146 56.0967 105.112 56.028 105.063 55.9694C105.024 55.9108 104.96 55.8619 104.872 55.8227C104.833 55.813 104.794 55.7982 104.755 55.7784C104.715 55.7493 104.671 55.7295 104.622 55.7198C104.583 55.7004 104.539 55.6954 104.49 55.7051C104.451 55.7051 104.412 55.7295 104.373 55.7784C104.314 55.896 104.28 56.0233 104.27 56.1603C104.261 56.2872 104.255 56.4196 104.255 56.5566C104.265 56.6936 104.27 56.8306 104.27 56.9676C104.28 57.1046 104.265 57.2365 104.226 57.3639C104.255 57.618 104.27 57.8773 104.27 58.1416C104.27 58.4059 104.324 58.6504 104.432 58.8755C104.471 58.9147 104.51 58.9539 104.549 58.9931C104.588 59.042 104.632 59.0711 104.681 59.0808C104.935 59.0808 105.161 58.983 105.356 58.7874C105.552 58.6015 105.689 58.3962 105.767 58.1711C105.826 58.1121 105.87 58.0438 105.9 57.9654C105.929 57.8874 105.953 57.809 105.973 57.7306C106.002 57.6623 106.037 57.5936 106.075 57.5253C106.124 57.4566 106.198 57.4031 106.296 57.3639C106.413 57.2951 106.55 57.2661 106.707 57.2757C106.873 57.2757 107.015 57.3196 107.132 57.4077C107.23 57.4861 107.289 57.5742 107.308 57.672C107.328 57.7795 107.328 57.8874 107.308 57.9949C107.299 58.1121 107.279 58.2246 107.25 58.3326C107.23 58.4497 107.225 58.5623 107.235 58.6702C107.235 58.8363 107.216 59.0028 107.176 59.1689C107.137 59.3354 107.127 59.5162 107.147 59.7123C107.127 59.7709 107.108 59.8294 107.088 59.888C107.068 59.9568 107.025 60.0057 106.956 60.0352C106.79 60.0938 106.609 60.1131 106.413 60.0938C106.227 60.0739 106.051 60.0546 105.885 60.0352C105.63 60.0546 105.376 60.0596 105.121 60.0495C104.867 60.0398 104.613 60.0495 104.358 60.079C104.162 60.0887 103.981 60.0693 103.815 60.0204C103.659 59.9812 103.487 59.9863 103.302 60.0352C103.018 59.9863 102.729 59.9863 102.436 60.0352C102.348 60.0841 102.249 60.1035 102.142 60.0938C102.034 60.0841 101.926 60.079 101.819 60.079C101.702 60.079 101.579 60.079 101.452 60.079C101.325 60.079 101.227 60.0107 101.158 59.8737C101.109 59.7953 101.09 59.6924 101.1 59.5651C101.119 59.448 101.154 59.3502 101.203 59.2718C101.242 59.2132 101.291 59.1643 101.349 59.1251C101.418 59.0859 101.481 59.0466 101.54 59.0074C101.599 58.9784 101.653 58.9392 101.702 58.8903C101.751 58.8511 101.785 58.7925 101.804 58.7141C101.824 58.4889 101.824 58.2689 101.804 58.0535C101.794 57.8385 101.814 57.6231 101.863 57.4077C101.843 57.1826 101.824 56.9625 101.804 56.7471C101.794 56.5321 101.8 56.3117 101.819 56.087C101.819 55.128 101.834 54.1837 101.863 53.2542C101.843 53.078 101.834 52.9018 101.834 52.7256C101.843 52.5494 101.863 52.3736 101.892 52.1974C101.863 52.0798 101.839 51.9575 101.819 51.8302C101.8 51.6932 101.716 51.6005 101.569 51.5516C101.501 51.5221 101.432 51.4829 101.364 51.434C101.306 51.3851 101.256 51.3265 101.217 51.2578C101.188 51.16 101.183 51.0719 101.203 50.9939C101.232 50.9058 101.271 50.8274 101.32 50.7591C101.379 50.7001 101.442 50.6659 101.511 50.6562C101.589 50.6364 101.667 50.6267 101.746 50.6267C101.834 50.617 101.917 50.6119 101.995 50.6119C102.074 50.6023 102.147 50.5829 102.215 50.5534C102.47 50.5631 102.724 50.5631 102.979 50.5534C103.243 50.534 103.502 50.5386 103.756 50.5681C103.981 50.5289 104.207 50.5238 104.432 50.5534C104.666 50.5732 104.896 50.5681 105.121 50.5386C105.356 50.5584 105.586 50.5681 105.811 50.5681C106.037 50.5584 106.266 50.5534 106.501 50.5534ZM111.21 50.6853C111.405 50.6954 111.606 50.6904 111.812 50.671C112.017 50.6512 112.218 50.671 112.413 50.7296C112.502 50.7978 112.565 50.8763 112.604 50.9644C112.653 51.0525 112.692 51.1452 112.722 51.2435C112.751 51.3412 112.776 51.4437 112.795 51.5516C112.824 51.6494 112.864 51.7421 112.913 51.8302C112.952 52.0848 113.01 52.3344 113.089 52.5789C113.167 52.8137 113.216 53.0582 113.235 53.3128C113.294 53.5476 113.353 53.7773 113.412 54.0024C113.47 54.2275 113.539 54.4527 113.617 54.6778C113.695 54.991 113.759 55.3042 113.808 55.6169C113.857 55.9205 113.935 56.2189 114.043 56.5123C114.121 56.6788 114.17 56.8597 114.189 57.0557C114.219 57.2416 114.272 57.4174 114.351 57.5839C114.371 57.7698 114.405 57.9557 114.454 58.1416C114.503 58.3275 114.557 58.5037 114.615 58.6702C114.654 58.768 114.713 58.8561 114.791 58.9341C114.879 59.0125 114.957 59.0909 115.026 59.1689C115.104 59.257 115.163 59.3451 115.202 59.4332C115.241 59.5213 115.241 59.6288 115.202 59.7561C115.183 59.805 115.148 59.859 115.099 59.9176C115.06 59.9761 115.011 60.0153 114.953 60.0352L114.777 60.079C114.61 60.0596 114.444 60.0596 114.277 60.079C114.121 60.0988 113.969 60.0841 113.823 60.0352C113.5 60.1035 113.172 60.1279 112.839 60.1085C112.516 60.0887 112.188 60.079 111.856 60.079C111.787 60.0596 111.724 60.0352 111.665 60.0057C111.616 59.9761 111.572 59.9272 111.533 59.859C111.513 59.7709 111.499 59.668 111.489 59.5508C111.479 59.4429 111.508 59.3502 111.577 59.2718C111.704 59.1546 111.826 59.0273 111.944 58.8903C112.071 58.7533 112.125 58.5867 112.105 58.3911C112.066 58.1365 112.022 57.8773 111.973 57.6134C111.934 57.3588 111.88 57.1143 111.812 56.8795C111.773 56.8403 111.733 56.8158 111.694 56.8062C111.655 56.7863 111.616 56.7669 111.577 56.7471C111.42 56.7374 111.264 56.7425 111.107 56.7619C110.951 56.7716 110.789 56.7669 110.623 56.7471C110.545 56.7573 110.461 56.7716 110.373 56.7914C110.295 56.8011 110.231 56.8597 110.183 56.9676C110.134 57.1143 110.094 57.2661 110.065 57.4224C110.036 57.5691 109.987 57.7158 109.918 57.863C109.869 58.0489 109.845 58.2491 109.845 58.4645C109.855 58.6896 109.938 58.8704 110.094 59.0074C110.378 59.1836 110.5 59.4184 110.461 59.7123C110.491 59.7902 110.461 59.8636 110.373 59.9323C110.236 60.0107 110.085 60.0398 109.918 60.0204C109.752 60.0006 109.595 60.0006 109.449 60.0204C109.312 60.0596 109.165 60.0642 109.008 60.0352C108.861 60.0153 108.715 60.0301 108.568 60.079C108.49 60.0596 108.421 60.0352 108.362 60.0057C108.313 59.9761 108.27 59.9272 108.23 59.859C108.162 59.751 108.142 59.6288 108.172 59.4918C108.211 59.3548 108.27 59.2422 108.348 59.1546C108.416 59.0955 108.485 59.037 108.553 58.9784C108.632 58.9193 108.69 58.8511 108.73 58.7726C108.73 58.5867 108.764 58.4253 108.832 58.2883C108.901 58.1513 108.944 58 108.964 57.8334C109.013 57.6572 109.057 57.481 109.096 57.3048C109.145 57.1291 109.194 56.9432 109.243 56.7471C109.282 56.4833 109.317 56.2189 109.346 55.9546C109.385 55.6806 109.453 55.4167 109.552 55.1621C109.561 54.8687 109.615 54.5947 109.713 54.3401C109.82 54.0859 109.884 53.8119 109.904 53.5181C109.982 53.2639 110.041 53.0144 110.08 52.7699C110.129 52.5249 110.192 52.2804 110.271 52.036C110.3 51.8791 110.339 51.7177 110.388 51.5516C110.437 51.3754 110.432 51.2042 110.373 51.0377C110.393 50.8712 110.452 50.7591 110.549 50.7001C110.657 50.6512 110.765 50.6364 110.872 50.6562C110.99 50.6659 111.102 50.6756 111.21 50.6853ZM111.048 54.1201C111.048 54.0905 111.039 54.0564 111.019 54.0172C111 53.9683 110.97 53.9683 110.931 54.0172C110.872 54.2423 110.814 54.4623 110.755 54.6778C110.706 54.8932 110.657 55.1132 110.608 55.3383C110.608 55.3872 110.608 55.4361 110.608 55.485C110.608 55.5339 110.633 55.5681 110.682 55.5879C110.887 55.6465 111.112 55.6658 111.357 55.6465C111.405 55.6271 111.43 55.5925 111.43 55.5436C111.44 55.4947 111.44 55.4458 111.43 55.3969C111.342 55.1916 111.279 54.9762 111.239 54.7511C111.2 54.526 111.137 54.3156 111.048 54.1201ZM119.241 50.5534C119.418 50.5732 119.604 50.5926 119.799 50.6119C120.004 50.6221 120.2 50.6023 120.386 50.5534C120.445 50.5631 120.509 50.5681 120.577 50.5681C120.646 50.5681 120.709 50.5732 120.768 50.5829C120.836 50.5926 120.895 50.617 120.944 50.6562C121.003 50.6853 121.046 50.7393 121.076 50.8177C121.105 50.8666 121.12 50.9155 121.12 50.9644C121.13 51.0133 121.13 51.0672 121.12 51.1258C121.11 51.1747 121.105 51.2287 121.105 51.2873C121.105 51.3459 121.115 51.3998 121.135 51.4487C121.105 51.5562 121.096 51.6688 121.105 51.7864C121.115 51.9036 121.12 52.0161 121.12 52.1241C121.13 52.2315 121.13 52.339 121.12 52.447C121.11 52.5544 121.071 52.6573 121.003 52.7551C120.856 52.8723 120.68 52.9069 120.474 52.858C120.347 52.8284 120.254 52.7597 120.195 52.6522C120.137 52.5351 120.088 52.4225 120.049 52.3146C120 52.2657 119.955 52.202 119.916 52.1241C119.878 52.0456 119.838 51.9769 119.799 51.9183C119.76 51.8501 119.711 51.8012 119.652 51.7716C119.604 51.7324 119.535 51.7278 119.447 51.7569C119.398 51.7864 119.369 51.8302 119.359 51.8893C119.359 51.9382 119.359 51.9871 119.359 52.036C119.369 52.3589 119.369 52.6767 119.359 52.9899C119.349 53.293 119.354 53.6016 119.373 53.9143C119.393 54.1002 119.383 54.2764 119.344 54.443C119.305 54.5993 119.31 54.7608 119.359 54.9273C119.359 55.1229 119.344 55.3042 119.315 55.4703C119.285 55.6368 119.295 55.8028 119.344 55.9694C119.305 56.0967 119.285 56.2286 119.285 56.3656C119.285 56.5026 119.29 56.6447 119.3 56.7914C119.31 56.9284 119.31 57.0654 119.3 57.2024C119.3 57.3394 119.281 57.4764 119.241 57.6134C119.29 57.7112 119.315 57.8136 119.315 57.9216C119.324 58.0387 119.33 58.1563 119.33 58.2735C119.33 58.3911 119.334 58.5037 119.344 58.6112C119.364 58.7288 119.407 58.8363 119.476 58.9341C119.515 58.983 119.564 59.0222 119.623 59.0517C119.681 59.0808 119.735 59.1103 119.784 59.1398C119.843 59.1689 119.892 59.2035 119.931 59.2422C119.98 59.2814 120.015 59.3405 120.034 59.4184C120.063 59.6828 119.97 59.888 119.755 60.0352C119.598 60.0841 119.422 60.0988 119.227 60.079C119.041 60.0596 118.86 60.0596 118.684 60.079C118.341 60.079 117.994 60.0841 117.642 60.0938C117.299 60.1131 116.957 60.1131 116.614 60.0938C116.418 60.0739 116.286 59.9665 116.218 59.7709C116.198 59.6634 116.198 59.5554 116.218 59.448C116.237 59.3405 116.286 59.2473 116.364 59.1689C116.472 59.12 116.585 59.0517 116.702 58.9636C116.829 58.8852 116.893 58.7726 116.893 58.6259C116.903 58.5088 116.898 58.3861 116.878 58.2592C116.869 58.1319 116.873 58.0143 116.893 57.9068C116.923 57.7795 116.932 57.6572 116.923 57.5401C116.923 57.4128 116.912 57.2905 116.893 57.1729C116.883 57.0456 116.873 56.9233 116.863 56.8062C116.863 56.6788 116.873 56.5515 116.893 56.4242C116.893 56.1991 116.903 55.9745 116.923 55.7493C116.942 55.5145 116.932 55.2844 116.893 55.0592C116.912 54.9615 116.912 54.8637 116.893 54.7659C116.883 54.6681 116.883 54.5749 116.893 54.4868C116.873 54.1639 116.873 53.8511 116.893 53.5476C116.923 53.2344 116.927 52.9166 116.908 52.5937V51.8745C116.898 51.845 116.878 51.8205 116.849 51.8012C116.82 51.7813 116.795 51.7666 116.775 51.7569C116.658 51.7864 116.56 51.8353 116.482 51.9036C116.414 51.9723 116.355 52.0553 116.306 52.1531C116.267 52.2412 116.227 52.3344 116.189 52.4322C116.159 52.53 116.12 52.6227 116.071 52.7108C115.993 52.8188 115.89 52.8824 115.763 52.9018C115.645 52.9212 115.533 52.9115 115.425 52.8723C115.249 52.7943 115.151 52.667 115.132 52.4908C115.112 52.3049 115.102 52.1241 115.102 51.9478C115.112 51.7619 115.107 51.5664 115.088 51.3606C115.068 51.1554 115.087 50.9644 115.147 50.7882C115.205 50.7001 115.273 50.6415 115.352 50.6119C115.43 50.5829 115.518 50.5732 115.616 50.5829C115.714 50.5829 115.807 50.5926 115.895 50.6119C115.993 50.6221 116.086 50.617 116.174 50.5977C116.369 50.5778 116.57 50.5732 116.775 50.5829C116.981 50.5829 117.182 50.5732 117.377 50.5534C117.691 50.534 117.999 50.534 118.302 50.5534C118.615 50.5631 118.928 50.5631 119.241 50.5534ZM125.675 50.8177C125.724 50.9058 125.749 51.0082 125.749 51.1258C125.749 51.2435 125.714 51.3412 125.646 51.4192C125.597 51.4783 125.533 51.5221 125.455 51.5516C125.377 51.5807 125.299 51.6153 125.22 51.654C125.152 51.6932 125.093 51.7421 125.044 51.8012C125.005 51.8501 124.99 51.928 125 52.036C125.049 52.3196 125.054 52.6033 125.015 52.887C124.985 53.161 124.995 53.435 125.044 53.7091C125.064 54.169 125.068 54.6482 125.059 55.1474C125.049 55.6465 125.054 56.1359 125.074 56.6152C125.054 56.9478 125.044 57.2804 125.044 57.6134C125.044 57.946 125.049 58.2786 125.059 58.6112C125.068 58.7482 125.127 58.8607 125.235 58.9488C125.342 59.0466 125.455 59.12 125.573 59.1689C125.651 59.2279 125.695 59.3013 125.705 59.3894C125.724 59.4775 125.729 59.5753 125.719 59.6828C125.71 59.7413 125.695 59.8004 125.675 59.859C125.656 59.9176 125.612 59.9618 125.543 59.9909C125.318 60.0887 125.074 60.1233 124.809 60.0938C124.545 60.0642 124.296 60.0596 124.061 60.079C123.797 60.1182 123.537 60.1182 123.283 60.079C123.029 60.0495 122.769 60.0352 122.505 60.0352C122.427 60.0449 122.339 60.0546 122.241 60.0642C122.143 60.0841 122.06 60.0596 121.991 59.9909C121.913 59.9028 121.869 59.8004 121.859 59.6828C121.85 59.5753 121.864 59.4724 121.903 59.3746C121.933 59.2768 121.981 59.2035 122.05 59.1546C122.128 59.1154 122.202 59.0762 122.27 59.037C122.349 59.0074 122.417 58.9687 122.476 58.9193C122.535 58.8704 122.569 58.7925 122.578 58.6845C122.569 58.2348 122.564 57.7846 122.564 57.3343C122.573 56.8744 122.608 56.4242 122.667 55.9841C122.657 55.8471 122.647 55.7051 122.637 55.5584C122.627 55.4117 122.632 55.265 122.652 55.1183C122.652 54.8341 122.661 54.5458 122.681 54.252C122.71 53.9586 122.715 53.6698 122.696 53.3861C122.647 53.161 122.622 52.9313 122.622 52.6965C122.632 52.4516 122.647 52.2168 122.667 51.9917C122.637 51.8547 122.569 51.7375 122.461 51.6397C122.363 51.5419 122.246 51.4829 122.109 51.4635C122.021 51.3948 121.967 51.3168 121.947 51.2287C121.928 51.1406 121.928 51.0474 121.947 50.9496C121.996 50.8421 122.07 50.7734 122.167 50.7443C122.275 50.7051 122.383 50.6807 122.49 50.671C122.852 50.6904 123.215 50.6853 123.577 50.6562C123.948 50.6267 124.305 50.6318 124.648 50.671C124.726 50.6608 124.814 50.6465 124.912 50.6267C125.01 50.6073 125.103 50.5977 125.191 50.5977C125.289 50.5977 125.377 50.617 125.455 50.6562C125.543 50.6853 125.616 50.7393 125.675 50.8177ZM129.757 50.6562C129.864 50.6562 129.962 50.6756 130.05 50.7148C130.148 50.754 130.227 50.8177 130.285 50.9058C130.315 50.9741 130.334 51.0474 130.344 51.1258C130.364 51.1941 130.349 51.2628 130.3 51.3311C130.27 51.4095 130.222 51.4732 130.153 51.5221C130.085 51.5613 130.016 51.6005 129.948 51.6397C129.879 51.6688 129.811 51.708 129.742 51.7569C129.684 51.7961 129.644 51.8597 129.625 51.9478C129.625 52.1923 129.669 52.4174 129.757 52.6227C129.845 52.8285 129.913 53.0485 129.962 53.2833C130.021 53.4498 130.065 53.6209 130.095 53.7972C130.124 53.9734 130.187 54.1394 130.285 54.2963C130.324 54.5112 130.378 54.717 130.447 54.9126C130.525 55.1081 130.584 55.3185 130.623 55.5436C130.652 55.6027 130.672 55.6709 130.681 55.7493C130.692 55.8176 130.735 55.8619 130.814 55.8813C130.912 55.7738 130.96 55.6515 130.96 55.5145C130.96 55.3674 130.97 55.2161 130.99 55.0592C131.107 54.6681 131.21 54.2764 131.298 53.8853C131.396 53.4839 131.499 53.0928 131.606 52.7108C131.606 52.6329 131.616 52.5448 131.636 52.447C131.665 52.3492 131.68 52.256 131.68 52.1679C131.689 52.0701 131.68 51.982 131.65 51.9036C131.621 51.8256 131.557 51.7619 131.46 51.7131C131.352 51.6738 131.249 51.6153 131.151 51.5368C131.053 51.4584 130.995 51.3606 130.975 51.2435C130.975 51.1355 130.99 51.0326 131.019 50.9349C131.058 50.8371 131.132 50.7637 131.239 50.7148C131.484 50.6659 131.738 50.6364 132.003 50.6267C132.267 50.6073 132.526 50.6023 132.78 50.6119C132.937 50.6318 133.099 50.6415 133.265 50.6415C133.431 50.6415 133.558 50.7199 133.647 50.8763C133.666 51.0133 133.671 51.1554 133.661 51.302C133.651 51.439 133.593 51.5516 133.485 51.6397C133.289 51.7472 133.142 51.8939 133.045 52.0798C132.957 52.256 132.893 52.4419 132.854 52.6375C132.717 52.9115 132.614 53.2053 132.545 53.5181C132.487 53.8216 132.414 54.1251 132.325 54.4282C132.247 54.6238 132.198 54.8392 132.179 55.074C132.159 55.2991 132.096 55.4947 131.988 55.6612C131.939 55.9744 131.846 56.2678 131.709 56.5418C131.582 56.8158 131.489 57.1046 131.43 57.4077C131.381 57.672 131.327 57.9363 131.269 58.2002C131.22 58.4742 131.156 58.7385 131.078 58.9931C131.078 59.1301 131.049 59.2524 130.99 59.3599C130.941 59.4775 130.882 59.5896 130.814 59.6975C130.794 59.7464 130.775 59.7953 130.755 59.8442C130.745 59.8931 130.716 59.9272 130.667 59.9471C130.569 59.996 130.456 60.025 130.329 60.0352C130.212 60.0546 130.095 60.0546 129.977 60.0352C129.87 60.0352 129.762 60.025 129.654 60.0057C129.556 59.9863 129.483 59.9226 129.434 59.8147C129.346 59.6777 129.292 59.5213 129.273 59.3451C129.263 59.179 129.209 59.0222 129.111 58.8755C129.053 58.768 129.008 58.6458 128.979 58.5088C128.959 58.3815 128.911 58.2541 128.832 58.1268C128.822 57.9312 128.779 57.7453 128.7 57.5691C128.622 57.3929 128.578 57.1973 128.568 56.9819C128.5 56.8943 128.451 56.796 128.421 56.6885C128.402 56.581 128.382 56.4731 128.363 56.3656C128.353 56.2485 128.338 56.1359 128.319 56.028C128.309 55.9205 128.274 55.8176 128.216 55.7198C128.137 55.6026 128.089 55.4753 128.069 55.3383C128.059 55.1916 128.015 55.0546 127.937 54.9273C127.927 54.7806 127.903 54.6436 127.863 54.5163C127.834 54.3793 127.795 54.2474 127.746 54.1201C127.707 53.9927 127.663 53.8654 127.614 53.7386C127.575 53.6016 127.54 53.4646 127.511 53.3276C127.452 53.1025 127.384 52.887 127.306 52.6818C127.227 52.4663 127.149 52.2463 127.071 52.0212C127.012 51.9428 126.939 51.8745 126.851 51.8155C126.772 51.7472 126.694 51.6785 126.616 51.6102C126.547 51.5318 126.494 51.4487 126.455 51.3606C126.415 51.2725 126.41 51.165 126.44 51.0377C126.459 50.9593 126.494 50.8813 126.543 50.8029C126.601 50.7245 126.67 50.6756 126.748 50.6562C127.041 50.6267 127.34 50.617 127.643 50.6267C127.957 50.6267 128.255 50.6415 128.539 50.671C128.734 50.6119 128.935 50.6023 129.14 50.6415C129.356 50.671 129.561 50.6756 129.757 50.6562ZM139.717 50.5534C139.825 50.5534 139.928 50.5631 140.026 50.5829C140.124 50.5926 140.202 50.6512 140.261 50.7591L140.304 50.9058C140.304 51.219 140.309 51.5318 140.319 51.845C140.329 52.1485 140.309 52.4567 140.261 52.7699C140.221 52.8478 140.163 52.9018 140.084 52.9313C140.016 52.9604 139.942 52.9751 139.864 52.9751C139.727 52.9751 139.59 52.9701 139.453 52.9604C139.316 52.9507 139.199 52.8921 139.101 52.7842C139.042 52.7062 138.984 52.6181 138.925 52.5203C138.866 52.4124 138.802 52.3146 138.734 52.2265C138.665 52.1287 138.592 52.0456 138.514 51.9769C138.436 51.9086 138.338 51.8597 138.22 51.8302C138.122 51.8012 138.02 51.7716 137.912 51.7421C137.804 51.7034 137.702 51.713 137.604 51.7716L137.545 51.8597C137.555 52.1923 137.545 52.53 137.516 52.8723C137.486 53.215 137.496 53.5425 137.545 53.8557L137.501 54.4577C137.521 54.4771 137.545 54.5016 137.574 54.5311C137.604 54.5601 137.638 54.58 137.677 54.5897C137.814 54.5703 137.941 54.5357 138.059 54.4868C138.186 54.4282 138.289 54.3452 138.367 54.2372C138.406 54.169 138.44 54.0956 138.47 54.0172C138.509 53.9291 138.548 53.8511 138.587 53.7824C138.626 53.704 138.675 53.6357 138.734 53.5771C138.793 53.5181 138.876 53.4839 138.984 53.4743C139.071 53.4743 139.159 53.4839 139.248 53.5038C139.336 53.5135 139.404 53.5721 139.453 53.6795C139.493 53.8461 139.507 54.0024 139.497 54.1496C139.487 54.2963 139.502 54.4527 139.541 54.6192C139.493 54.8245 139.478 55.0302 139.497 55.2355C139.527 55.4412 139.536 55.6465 139.527 55.8517C139.556 55.9791 139.566 56.1013 139.556 56.2189C139.546 56.3264 139.541 56.4487 139.541 56.5857C139.531 56.6641 139.493 56.7277 139.424 56.7766C139.365 56.8158 139.302 56.8449 139.233 56.8647C139.086 56.8841 138.954 56.8795 138.837 56.85C138.719 56.8108 138.622 56.7227 138.543 56.5857C138.494 56.5271 138.46 56.4634 138.44 56.3951C138.421 56.3167 138.401 56.2434 138.382 56.1746C138.362 56.0967 138.328 56.028 138.279 55.9694C138.24 55.9108 138.176 55.8619 138.088 55.8227C138.049 55.813 138.01 55.7982 137.971 55.7784C137.932 55.7493 137.888 55.7295 137.839 55.7198C137.8 55.7004 137.755 55.6954 137.706 55.7051C137.667 55.7051 137.628 55.7295 137.589 55.7784C137.531 55.896 137.496 56.0233 137.486 56.1603C137.477 56.2872 137.472 56.4196 137.472 56.5566C137.481 56.6936 137.486 56.8306 137.486 56.9676C137.496 57.1046 137.481 57.2365 137.443 57.3639C137.472 57.618 137.486 57.8773 137.486 58.1416C137.486 58.4059 137.54 58.6504 137.648 58.8755C137.687 58.9147 137.726 58.9539 137.765 58.9931C137.804 59.042 137.848 59.0711 137.897 59.0808C138.152 59.0808 138.377 58.983 138.573 58.7874C138.768 58.6015 138.905 58.3962 138.984 58.1711C139.042 58.1121 139.086 58.0438 139.116 57.9654C139.145 57.8874 139.17 57.809 139.189 57.7306C139.219 57.6623 139.253 57.5936 139.292 57.5253C139.341 57.4566 139.414 57.4031 139.512 57.3639C139.63 57.2951 139.766 57.2661 139.923 57.2757C140.089 57.2757 140.231 57.3196 140.349 57.4077C140.446 57.4861 140.505 57.5742 140.524 57.672C140.544 57.7795 140.544 57.8874 140.524 57.9949C140.515 58.1121 140.495 58.2246 140.466 58.3326C140.446 58.4497 140.441 58.5623 140.451 58.6702C140.451 58.8363 140.432 59.0028 140.393 59.1689C140.353 59.3354 140.344 59.5162 140.363 59.7123C140.344 59.7709 140.324 59.8294 140.304 59.888C140.285 59.9568 140.241 60.0057 140.172 60.0352C140.006 60.0938 139.825 60.1131 139.63 60.0938C139.443 60.0739 139.267 60.0546 139.101 60.0352C138.847 60.0546 138.592 60.0596 138.338 60.0495C138.083 60.0398 137.829 60.0495 137.574 60.079C137.379 60.0887 137.198 60.0693 137.032 60.0204C136.875 59.9812 136.704 59.9863 136.518 60.0352C136.234 59.9863 135.945 59.9863 135.652 60.0352C135.564 60.0841 135.466 60.1035 135.358 60.0938C135.251 60.0841 135.143 60.079 135.035 60.079C134.918 60.079 134.796 60.079 134.668 60.079C134.541 60.079 134.443 60.0107 134.375 59.8737C134.326 59.7953 134.306 59.6924 134.316 59.5651C134.336 59.448 134.37 59.3502 134.419 59.2718C134.458 59.2132 134.507 59.1643 134.565 59.1251C134.634 59.0859 134.698 59.0466 134.756 59.0074C134.815 58.9784 134.869 58.9392 134.918 58.8903C134.967 58.8511 135.001 58.7925 135.021 58.7141C135.04 58.4889 135.04 58.2689 135.021 58.0535C135.011 57.8385 135.03 57.6231 135.079 57.4077C135.06 57.1826 135.04 56.9625 135.021 56.7471C135.011 56.5321 135.016 56.3117 135.035 56.087C135.035 55.128 135.05 54.1837 135.079 53.2542C135.06 53.078 135.05 52.9018 135.05 52.7256C135.06 52.5494 135.079 52.3736 135.109 52.1974C135.079 52.0798 135.055 51.9575 135.035 51.8302C135.016 51.6932 134.933 51.6005 134.786 51.5516C134.717 51.5221 134.649 51.4829 134.58 51.434C134.522 51.3851 134.473 51.3265 134.434 51.2578C134.404 51.16 134.399 51.0719 134.419 50.9939C134.448 50.9058 134.488 50.8274 134.536 50.7591C134.595 50.7001 134.659 50.6659 134.727 50.6562C134.805 50.6364 134.884 50.6267 134.962 50.6267C135.05 50.617 135.133 50.6119 135.211 50.6119C135.29 50.6023 135.363 50.5829 135.432 50.5534C135.686 50.5631 135.941 50.5631 136.195 50.5534C136.459 50.534 136.718 50.5386 136.973 50.5681C137.198 50.5289 137.423 50.5238 137.648 50.5534C137.883 50.5732 138.113 50.5681 138.338 50.5386C138.573 50.5584 138.802 50.5681 139.028 50.5681C139.253 50.5584 139.482 50.5534 139.717 50.5534ZM88.7275 65.4028C88.8742 65.4124 89.0209 65.4221 89.1676 65.4323C89.3244 65.442 89.4467 65.5204 89.5348 65.6671C89.5638 65.7353 89.5786 65.8188 89.5786 65.9166C89.5883 66.0047 89.5689 66.0781 89.52 66.1367C89.4711 66.1953 89.4172 66.2442 89.3586 66.2834C89.3 66.3129 89.2409 66.347 89.1824 66.3862C89.1238 66.4254 89.0698 66.4693 89.0209 66.5182C88.972 66.5671 88.9425 66.6307 88.9328 66.7091C88.9231 66.9241 88.9037 67.1349 88.8742 67.3402C88.8548 67.5358 88.8595 67.7415 88.889 67.9565C88.9282 68.1133 88.9379 68.2748 88.918 68.4408C88.9084 68.5977 88.9282 68.754 88.9771 68.9109C89.0061 68.9598 89.0407 68.9644 89.0795 68.9252C89.3046 68.6613 89.5006 68.3919 89.6667 68.1179C89.8332 67.8342 90.0238 67.5556 90.2392 67.2816C90.259 67.2327 90.2881 67.1838 90.3273 67.1349C90.3665 67.0759 90.4006 67.0173 90.4301 66.9587C90.4592 66.8996 90.474 66.8411 90.474 66.7825C90.474 66.7137 90.4546 66.6455 90.4154 66.5767C90.3568 66.5182 90.2931 66.4596 90.2244 66.401C90.1658 66.3323 90.1119 66.2686 90.063 66.21C90.0141 66.1417 89.9799 66.0679 89.9606 65.99C89.9407 65.9116 89.9458 65.8285 89.9749 65.7404C89.9947 65.6717 90.0288 65.6131 90.0777 65.5642C90.1363 65.5056 90.205 65.471 90.2835 65.4613C90.5671 65.471 90.8555 65.4761 91.1493 65.4761C91.4427 65.4664 91.7315 65.4466 92.0151 65.4175C92.1033 65.4272 92.1914 65.4272 92.2795 65.4175C92.3773 65.4078 92.47 65.4078 92.5581 65.4175C92.6462 65.4175 92.7246 65.4369 92.7929 65.4761C92.8713 65.5056 92.935 65.5642 92.9838 65.6523C93.0134 65.7307 93.0327 65.8138 93.0424 65.9019C93.0526 65.99 93.0327 66.0679 92.9838 66.1367C92.8372 66.2737 92.666 66.3812 92.47 66.4596C92.2841 66.5278 92.1226 66.6506 91.9856 66.8263C91.8588 67.0224 91.7264 67.2129 91.5894 67.3988C91.4625 67.575 91.3301 67.7609 91.1931 67.9565C91.0953 68.1525 90.968 68.3333 90.8116 68.4999C90.6553 68.6659 90.5524 68.8518 90.5035 69.0576C90.5035 69.2043 90.5376 69.3316 90.6064 69.4391C90.6746 69.5465 90.7332 69.6642 90.7821 69.7915C90.9191 69.9871 91.022 70.2025 91.0907 70.4373C91.1687 70.6624 91.2766 70.8677 91.4136 71.0536C91.433 71.1906 91.4722 71.3225 91.5308 71.4498C91.5894 71.5771 91.653 71.6994 91.7218 71.817C91.7997 71.9342 91.8735 72.0564 91.9418 72.1837C92.0202 72.3014 92.0885 72.4236 92.1471 72.5505C92.2158 72.6875 92.2841 72.8245 92.3528 72.9615C92.4312 73.0985 92.5336 73.2207 92.6609 73.3287C92.7098 73.4361 92.7786 73.5192 92.8667 73.5782C92.9645 73.6368 93.0424 73.7198 93.1015 73.8278C93.1601 73.8767 93.2283 73.9205 93.3068 73.9597C93.3852 73.9989 93.429 74.0626 93.4387 74.1507C93.4585 74.2388 93.4631 74.3264 93.4534 74.4145C93.4438 74.5123 93.3999 74.5907 93.3215 74.6493C93.214 74.7181 93.0964 74.7619 92.9691 74.7817C92.8422 74.8011 92.7149 74.8108 92.5876 74.8108C92.4603 74.8108 92.3284 74.8062 92.1914 74.7965C92.064 74.7965 91.9367 74.8108 91.8099 74.8403C91.7121 74.8209 91.6041 74.8108 91.487 74.8108C91.379 74.8209 91.2665 74.8209 91.1493 74.8108C91.0414 74.8108 90.9436 74.7914 90.8555 74.7522C90.7678 74.713 90.694 74.6396 90.6354 74.5322C90.4984 74.2974 90.3812 74.0575 90.2835 73.813C90.1852 73.5782 90.0828 73.3333 89.9749 73.0791C89.7991 72.8148 89.6423 72.5408 89.5053 72.2571C89.3779 71.9637 89.2216 71.6897 89.0357 71.4351C89.0061 71.3958 88.9817 71.3912 88.9623 71.4203C88.9526 71.4498 88.9425 71.4743 88.9328 71.4941C88.8742 71.7386 88.8595 71.9831 88.889 72.2275C88.9282 72.4725 88.9231 72.7221 88.8742 72.9762C88.8839 73.1132 88.889 73.2553 88.889 73.402C88.889 73.5487 88.9573 73.6663 89.0943 73.7544C89.1335 73.8033 89.1824 73.8421 89.2409 73.8716C89.3097 73.9011 89.3733 73.9352 89.4319 73.9745C89.4905 74.0137 89.5394 74.0575 89.5786 74.1064C89.6275 74.165 89.652 74.2337 89.652 74.3121C89.6815 74.5271 89.6031 74.6885 89.4172 74.7965C89.2802 74.8352 89.1431 74.8551 89.0061 74.8551C88.8691 74.8647 88.7321 74.8647 88.5951 74.8551C88.4581 74.8454 88.3165 74.8352 88.1698 74.8255C88.0328 74.8255 87.8958 74.8306 87.7588 74.8403C87.4848 74.8209 87.2159 74.8209 86.9516 74.8403C86.6872 74.8601 86.4132 74.8601 86.1295 74.8403C86.0806 74.8209 86.0267 74.7965 85.9681 74.767C85.9095 74.7374 85.8652 74.6885 85.8362 74.6203C85.7873 74.5322 85.7725 74.4344 85.7919 74.3264C85.8214 74.2189 85.8606 74.1308 85.9095 74.0626C85.9487 73.9938 86.0022 73.9403 86.071 73.9011C86.1392 73.8619 86.2029 73.8227 86.2615 73.7835C86.3205 73.7544 86.374 73.7152 86.4229 73.6663C86.4718 73.6174 86.5064 73.5538 86.5258 73.4753C86.5258 73.2798 86.5309 73.0791 86.5405 72.8734C86.5599 72.6778 86.5502 72.4822 86.511 72.2866C86.4917 72.0905 86.4866 71.895 86.4963 71.6994C86.5064 71.5038 86.5064 71.2981 86.4963 71.0831C86.5258 70.9263 86.5355 70.7602 86.5258 70.584C86.5258 70.4078 86.5258 70.2366 86.5258 70.0701C86.5064 69.8256 86.4916 69.5857 86.482 69.3509C86.482 69.1065 86.4917 68.8717 86.511 68.6466C86.5309 68.3236 86.5258 68.0104 86.4963 67.7069C86.4769 67.4038 86.4769 67.0957 86.4963 66.7825C86.4769 66.6648 86.428 66.5767 86.3496 66.5182C86.2813 66.4596 86.2029 66.4107 86.1148 66.3715C86.0267 66.3226 85.9487 66.2686 85.88 66.21C85.8117 66.1417 85.7771 66.0486 85.7771 65.9309C85.7674 65.8433 85.7725 65.7598 85.7919 65.6818C85.8214 65.5937 85.8749 65.525 85.9533 65.4761C86.0613 65.4078 86.1784 65.388 86.3058 65.4175C86.4331 65.4369 86.5599 65.4323 86.6872 65.4028C86.8828 65.4124 87.0687 65.4124 87.2449 65.4028C87.4308 65.3834 87.6218 65.388 87.8174 65.4175C87.9544 65.3686 88.1011 65.3539 88.2579 65.3732C88.424 65.3931 88.5808 65.4028 88.7275 65.4028ZM97.8841 65.579C97.933 65.6671 97.9575 65.7695 97.9575 65.8871C97.9575 66.0047 97.9229 66.1025 97.8546 66.1805C97.8057 66.2395 97.7421 66.2834 97.6636 66.3129C97.5857 66.342 97.5073 66.3765 97.4288 66.4153C97.3606 66.4545 97.302 66.5034 97.2526 66.5624C97.2139 66.6113 97.1991 66.6893 97.2088 66.7972C97.2577 67.0809 97.2628 67.3646 97.2236 67.6483C97.1941 67.9223 97.2037 68.1963 97.2526 68.4703C97.2725 68.9303 97.2771 69.4095 97.2674 69.9086C97.2577 70.4078 97.2628 70.8972 97.2822 71.3765C97.2628 71.7091 97.2526 72.0416 97.2526 72.3747C97.2526 72.7073 97.2577 73.0399 97.2674 73.3725C97.2771 73.5095 97.3361 73.622 97.4436 73.7101C97.5511 73.8079 97.6636 73.8813 97.7813 73.9302C97.8597 73.9892 97.9035 74.0626 97.9132 74.1507C97.933 74.2388 97.9376 74.3366 97.928 74.4441C97.9183 74.5026 97.9035 74.5617 97.8841 74.6203C97.8643 74.6789 97.8205 74.7231 97.7517 74.7522C97.5266 74.85 97.2822 74.8846 97.0178 74.8551C96.754 74.8255 96.5044 74.8209 96.2696 74.8403C96.0053 74.8795 95.7461 74.8795 95.4914 74.8403C95.2373 74.8108 94.978 74.7965 94.7137 74.7965C94.6353 74.8062 94.5472 74.8159 94.4494 74.8255C94.3516 74.8454 94.2685 74.8209 94.1998 74.7522C94.1219 74.6641 94.0776 74.5617 94.0679 74.4441C94.0582 74.3366 94.073 74.2337 94.1117 74.1359C94.1412 74.0381 94.1901 73.9648 94.2589 73.9159C94.3368 73.8767 94.4102 73.8375 94.4789 73.7982C94.5573 73.7687 94.6256 73.73 94.6842 73.6806C94.7432 73.6317 94.7773 73.5538 94.787 73.4458C94.7773 72.9961 94.7723 72.5458 94.7723 72.0956C94.782 71.6357 94.8166 71.1855 94.8751 70.7454C94.8655 70.6084 94.8553 70.4663 94.8456 70.3197C94.8359 70.173 94.841 70.0263 94.8604 69.8796C94.8604 69.5954 94.8701 69.3071 94.8899 69.0133C94.919 68.7199 94.924 68.4311 94.9047 68.1474C94.8553 67.9223 94.8309 67.6926 94.8309 67.4578C94.841 67.2129 94.8553 66.9781 94.8751 66.753C94.8456 66.616 94.7774 66.4988 94.6694 66.401C94.5716 66.3032 94.4544 66.2442 94.3174 66.2248C94.2293 66.156 94.1754 66.0781 94.156 65.99C94.1362 65.9019 94.1362 65.8087 94.156 65.7109C94.2049 65.6034 94.2782 65.5347 94.376 65.5056C94.4835 65.4664 94.5914 65.442 94.6989 65.4323C95.061 65.4517 95.4232 65.4466 95.7853 65.4175C96.1571 65.388 96.5141 65.3931 96.8564 65.4323C96.9348 65.4221 97.0229 65.4078 97.1207 65.388C97.2185 65.3686 97.3117 65.3589 97.3998 65.3589C97.4976 65.3589 97.5857 65.3783 97.6636 65.4175C97.7517 65.4466 97.8251 65.5006 97.8841 65.579ZM102.773 65.3147C102.949 65.3345 103.135 65.3539 103.331 65.3732C103.536 65.3834 103.732 65.3636 103.918 65.3147C103.976 65.3243 104.04 65.3294 104.108 65.3294C104.177 65.3294 104.241 65.3345 104.299 65.3442C104.368 65.3539 104.427 65.3783 104.476 65.4175C104.534 65.4466 104.578 65.5006 104.607 65.579C104.637 65.6279 104.652 65.6768 104.652 65.7257C104.661 65.7746 104.661 65.8285 104.652 65.8871C104.642 65.936 104.637 65.99 104.637 66.0486C104.637 66.1072 104.647 66.1611 104.666 66.21C104.637 66.3175 104.627 66.4301 104.637 66.5477C104.647 66.6649 104.652 66.7774 104.652 66.8853C104.661 66.9928 104.661 67.1003 104.652 67.2083C104.642 67.3157 104.602 67.4186 104.534 67.5164C104.387 67.6336 104.211 67.6682 104.006 67.6193C103.879 67.5897 103.785 67.521 103.727 67.4135C103.668 67.2964 103.619 67.1838 103.58 67.0759C103.531 67.027 103.487 66.9633 103.448 66.8853C103.409 66.8069 103.37 66.7382 103.331 66.6796C103.291 66.6113 103.242 66.5624 103.184 66.5329C103.135 66.4937 103.066 66.4891 102.978 66.5182C102.929 66.5477 102.9 66.5915 102.89 66.6506C102.89 66.6994 102.89 66.7483 102.89 66.7972C102.9 67.1201 102.9 67.438 102.89 67.7512C102.88 68.0543 102.885 68.3629 102.905 68.6756C102.925 68.8615 102.915 69.0377 102.876 69.2043C102.837 69.3606 102.841 69.5221 102.89 69.6886C102.89 69.8842 102.876 70.0655 102.846 70.2315C102.817 70.3981 102.826 70.5641 102.876 70.7307C102.837 70.858 102.817 70.9899 102.817 71.1269C102.817 71.2639 102.822 71.406 102.831 71.5527C102.841 71.6897 102.841 71.8267 102.831 71.9637C102.831 72.1007 102.812 72.2377 102.773 72.3747C102.822 72.4725 102.846 72.5749 102.846 72.6828C102.856 72.8 102.861 72.9176 102.861 73.0348C102.861 73.1524 102.866 73.265 102.876 73.3725C102.895 73.4901 102.939 73.5976 103.008 73.6954C103.047 73.7443 103.096 73.7835 103.154 73.813C103.213 73.8421 103.267 73.8716 103.316 73.9011C103.374 73.9302 103.423 73.9648 103.463 74.0035C103.511 74.0427 103.546 74.1018 103.565 74.1797C103.595 74.4441 103.502 74.6493 103.286 74.7965C103.13 74.8454 102.954 74.8601 102.758 74.8403C102.572 74.8209 102.391 74.8209 102.215 74.8403C101.872 74.8403 101.525 74.8454 101.173 74.8551C100.83 74.8744 100.488 74.8744 100.145 74.8551C99.9498 74.8352 99.8179 74.7277 99.7491 74.5322C99.7298 74.4247 99.7298 74.3167 99.7491 74.2093C99.769 74.1018 99.8179 74.0086 99.8958 73.9302C100.004 73.8813 100.116 73.813 100.233 73.7249C100.361 73.6465 100.424 73.5339 100.424 73.3872C100.434 73.2701 100.43 73.1474 100.41 73.0205C100.4 72.8932 100.405 72.7756 100.424 72.6681C100.454 72.5408 100.464 72.4185 100.454 72.3014C100.454 72.174 100.444 72.0518 100.424 71.9342C100.415 71.8069 100.405 71.6846 100.395 71.5674C100.395 71.4401 100.405 71.3128 100.424 71.1855C100.424 70.9604 100.434 70.7357 100.454 70.5106C100.473 70.2758 100.464 70.0456 100.424 69.8205C100.444 69.7227 100.444 69.625 100.424 69.5272C100.415 69.4294 100.415 69.3362 100.424 69.2481C100.405 68.9252 100.405 68.6124 100.424 68.3089C100.454 67.9957 100.459 67.6778 100.439 67.3549V66.6358C100.43 66.6063 100.41 66.5818 100.38 66.5624C100.351 66.5426 100.327 66.5278 100.307 66.5182C100.19 66.5477 100.092 66.5966 100.013 66.6649C99.9452 66.7336 99.8861 66.8166 99.8372 66.9144C99.798 67.0025 99.7588 67.0957 99.7201 67.1935C99.6905 67.2913 99.6513 67.384 99.6024 67.4721C99.524 67.5801 99.4216 67.6437 99.2943 67.6631C99.1767 67.6825 99.0641 67.6728 98.9566 67.6336C98.7804 67.5556 98.6826 67.4283 98.6633 67.2521C98.6434 67.0662 98.6337 66.8853 98.6337 66.7091C98.6434 66.5232 98.6388 66.3277 98.619 66.1219C98.5996 65.9166 98.619 65.7257 98.678 65.5495C98.7366 65.4613 98.8049 65.4028 98.8833 65.3732C98.9617 65.3442 99.0498 65.3345 99.1476 65.3442C99.2454 65.3442 99.3381 65.3539 99.4262 65.3732C99.524 65.3834 99.6172 65.3783 99.7053 65.3589C99.9009 65.3391 100.102 65.3345 100.307 65.3442C100.513 65.3442 100.713 65.3345 100.909 65.3147C101.222 65.2953 101.53 65.2953 101.833 65.3147C102.146 65.3243 102.46 65.3243 102.773 65.3147ZM110.733 65.4761C110.802 65.4858 110.86 65.5102 110.91 65.5495C110.968 65.579 111.032 65.6034 111.1 65.6228C111.208 65.6818 111.306 65.7598 111.394 65.8576C111.492 65.9457 111.565 66.0536 111.614 66.1805C111.643 66.484 111.643 66.7876 111.614 67.0906C111.594 67.3941 111.575 67.6926 111.555 67.986C111.536 68.0252 111.516 68.069 111.496 68.1179C111.477 68.1571 111.443 68.1866 111.394 68.206C111.286 68.2452 111.169 68.26 111.042 68.2503C110.924 68.2406 110.826 68.1963 110.748 68.1179C110.582 67.9223 110.484 67.6972 110.454 67.443C110.376 67.2179 110.273 66.9878 110.146 66.753C110.019 66.5182 109.823 66.3567 109.559 66.2686C109.442 66.2197 109.309 66.2049 109.163 66.2248C109.016 66.2345 108.894 66.2834 108.796 66.3715L108.546 66.6944C108.537 66.8314 108.512 66.9633 108.473 67.0906C108.444 67.2179 108.409 67.3453 108.37 67.4721C108.341 67.5897 108.312 67.712 108.282 67.8393C108.263 67.9666 108.258 68.0985 108.267 68.2355C108.277 68.451 108.258 68.6562 108.209 68.8518C108.16 69.0377 108.15 69.2287 108.179 69.4243C108.179 69.7767 108.175 70.1287 108.165 70.4811C108.155 70.8238 108.17 71.1661 108.209 71.5084C108.218 71.8313 108.253 72.1399 108.312 72.4333C108.37 72.7267 108.434 73.0251 108.502 73.3287C108.561 73.4753 108.659 73.6123 108.796 73.7397C108.933 73.8767 109.08 73.9546 109.236 73.9745C109.559 73.9745 109.814 73.8421 109.999 73.5782C110.078 73.3725 110.166 73.1769 110.264 72.991C110.371 72.8148 110.44 72.6141 110.469 72.389C110.499 72.3207 110.523 72.2474 110.542 72.169C110.572 72.0905 110.601 72.0223 110.631 71.9637C110.67 71.895 110.719 71.8415 110.777 71.8022C110.836 71.7533 110.914 71.7289 111.012 71.7289C111.13 71.7289 111.247 71.7335 111.364 71.7432C111.492 71.7432 111.584 71.8069 111.643 71.9342C111.692 72.1007 111.707 72.2769 111.687 72.4628C111.667 72.6487 111.687 72.8245 111.746 72.991C111.717 73.128 111.712 73.265 111.731 73.402C111.751 73.5487 111.761 73.6908 111.761 73.8278C111.77 73.9648 111.756 74.0916 111.717 74.2093C111.678 74.3264 111.584 74.4247 111.438 74.5026C111.183 74.6692 110.899 74.7817 110.587 74.8403C110.283 74.909 109.975 74.9722 109.662 75.0313C109.495 75.0114 109.329 75.0165 109.163 75.046C108.997 75.0751 108.83 75.0654 108.664 75.0165C108.556 74.9579 108.438 74.9136 108.312 74.8846C108.194 74.8648 108.077 74.8403 107.959 74.8108C107.842 74.7817 107.724 74.7476 107.607 74.7084C107.49 74.6692 107.382 74.6106 107.284 74.5322C107.069 74.3656 106.863 74.1894 106.668 74.0035C106.472 73.8278 106.32 73.622 106.213 73.3872C106.046 73.1621 105.929 72.9126 105.86 72.6386C105.792 72.3747 105.719 72.1104 105.64 71.8461C105.611 71.4549 105.562 71.0683 105.494 70.6868C105.425 70.3049 105.41 69.9086 105.449 69.4976C105.469 69.2435 105.508 69.0036 105.567 68.7785C105.635 68.5437 105.689 68.3038 105.728 68.0593C105.748 68.0007 105.772 67.9468 105.802 67.8979C105.831 67.849 105.865 67.795 105.905 67.7364C105.924 67.5312 105.983 67.3402 106.08 67.164C106.178 66.9781 106.271 66.7972 106.359 66.621C106.496 66.4153 106.658 66.2345 106.844 66.0781C107.03 65.9116 107.221 65.7598 107.416 65.6228C107.582 65.5739 107.739 65.5102 107.886 65.4323C108.033 65.3442 108.189 65.2902 108.355 65.2708C108.522 65.251 108.688 65.2219 108.855 65.1827C109.031 65.1435 109.207 65.1435 109.383 65.1827C109.618 65.2021 109.853 65.2219 110.088 65.2413C110.322 65.2607 110.537 65.3391 110.733 65.4761ZM119.916 65.3732C120.111 65.4028 120.259 65.4858 120.356 65.6228C120.415 65.7206 120.434 65.8285 120.415 65.9457C120.396 66.0536 120.351 66.1514 120.283 66.2395C120.175 66.3175 120.058 66.3959 119.931 66.4743C119.803 66.5523 119.735 66.675 119.725 66.8411C119.705 66.9195 119.701 67.0076 119.711 67.1054C119.72 67.1935 119.725 67.2765 119.725 67.3549C119.696 67.6972 119.696 68.0446 119.725 68.397C119.754 68.7393 119.759 69.082 119.74 69.4243C119.691 69.5124 119.676 69.6056 119.696 69.7034C119.715 69.8012 119.73 69.899 119.74 69.9968C119.75 70.2901 119.74 70.5886 119.711 70.8921C119.681 71.1956 119.691 71.4987 119.74 71.8022C119.73 72.0859 119.715 72.3696 119.696 72.6533C119.686 72.937 119.705 73.2161 119.754 73.4901C119.774 73.5879 119.818 73.6612 119.887 73.7101C119.955 73.7687 120.024 73.8176 120.092 73.8568C120.17 73.9057 120.234 73.9546 120.283 74.0035C120.342 74.0626 120.371 74.1456 120.371 74.2531C120.381 74.3412 120.381 74.4293 120.371 74.5174C120.361 74.6055 120.327 74.6789 120.268 74.7374C120.229 74.7863 120.18 74.8159 120.122 74.8255C120.063 74.8454 119.999 74.8551 119.931 74.8551C119.441 74.8454 118.957 74.8403 118.478 74.8403C118.008 74.8403 117.533 74.8403 117.054 74.8403C116.966 74.8209 116.893 74.7766 116.833 74.7084C116.775 74.6396 116.745 74.5663 116.745 74.4879C116.726 74.361 116.731 74.2434 116.76 74.1359C116.79 74.0381 116.858 73.95 116.966 73.8716C117.171 73.7443 117.298 73.5828 117.347 73.3872C117.328 73.0842 117.304 72.7806 117.274 72.4771C117.255 72.174 117.269 71.8705 117.318 71.5674C117.338 71.5084 117.342 71.4447 117.333 71.3765C117.323 71.298 117.318 71.2298 117.318 71.1712C117.318 71.0633 117.313 70.9604 117.304 70.8626C117.304 70.7551 117.255 70.6767 117.156 70.6278C117.01 70.5789 116.848 70.5595 116.672 70.5692C116.496 70.5789 116.33 70.5692 116.173 70.5397C116.114 70.5498 116.061 70.5595 116.012 70.5692C115.963 70.5692 115.919 70.5937 115.88 70.6426C115.802 70.7699 115.777 70.9069 115.806 71.0536C115.836 71.2003 115.845 71.3469 115.836 71.4941C115.845 71.7972 115.845 72.1007 115.836 72.4038C115.836 72.7073 115.826 73.0154 115.806 73.3287C115.826 73.4657 115.875 73.593 115.953 73.7101C116.041 73.8375 116.149 73.9302 116.276 73.9892C116.403 74.1359 116.452 74.3121 116.422 74.5174C116.403 74.5663 116.379 74.6106 116.349 74.6493C116.32 74.6885 116.286 74.7231 116.247 74.7522C116.022 74.8209 115.787 74.8403 115.542 74.8108C115.297 74.7817 115.063 74.7766 114.837 74.7965C114.554 74.8454 114.27 74.8601 113.986 74.8403C113.712 74.8209 113.429 74.8209 113.135 74.8403C113.057 74.8209 112.978 74.7914 112.9 74.7522C112.832 74.7231 112.788 74.6641 112.768 74.576C112.758 74.4879 112.739 74.4002 112.709 74.3121C112.69 74.2337 112.704 74.1553 112.753 74.0773C112.802 74.0183 112.866 73.9694 112.944 73.9302C113.022 73.9011 113.096 73.8665 113.164 73.8278C113.233 73.7886 113.292 73.7397 113.341 73.6806C113.389 73.622 113.414 73.5436 113.414 73.4458V73.1672C113.424 72.7756 113.419 72.3747 113.399 71.9637C113.389 71.543 113.399 71.132 113.429 70.7307C113.399 70.5056 113.394 70.2804 113.414 70.0553C113.443 69.8302 113.448 69.6056 113.429 69.3805C113.419 69.2435 113.424 69.1065 113.443 68.9695C113.473 68.8325 113.467 68.6955 113.429 68.5584C113.458 68.48 113.467 68.4067 113.458 68.3384C113.448 68.26 113.433 68.1866 113.414 68.1179C113.404 68.0496 113.394 67.9809 113.384 67.9126C113.384 67.8342 113.399 67.7563 113.429 67.6778C113.419 67.4823 113.419 67.2913 113.429 67.1054C113.438 66.9195 113.419 66.7285 113.37 66.5329C113.321 66.4646 113.262 66.4153 113.193 66.3862C113.125 66.347 113.057 66.3129 112.988 66.2834C112.93 66.2538 112.871 66.2197 112.812 66.1805C112.763 66.1316 112.734 66.0583 112.724 65.9605C112.724 65.853 112.734 65.7552 112.753 65.6671C112.783 65.579 112.851 65.5102 112.959 65.4613C113.272 65.3931 113.6 65.3732 113.942 65.4028C114.285 65.4323 114.617 65.4323 114.94 65.4028C115.136 65.4221 115.332 65.4221 115.528 65.4028C115.733 65.3834 115.938 65.388 116.144 65.4175C116.222 65.4369 116.291 65.4812 116.349 65.5495C116.418 65.608 116.457 65.6768 116.467 65.7552C116.476 65.8627 116.462 65.9701 116.422 66.0781C116.393 66.1759 116.325 66.264 116.217 66.3419C116.051 66.4301 115.943 66.5523 115.894 66.7091C115.855 66.8558 115.836 67.0173 115.836 67.1935C115.836 67.3697 115.84 67.5505 115.85 67.7364C115.87 67.9126 115.86 68.0741 115.821 68.2208C115.84 68.4164 115.836 68.6073 115.806 68.7932C115.787 68.9695 115.787 69.1554 115.806 69.3509C115.836 69.4294 115.885 69.4732 115.953 69.4829C116.022 69.4829 116.09 69.4879 116.159 69.4976L117.068 69.4391C117.127 69.4197 117.181 69.3952 117.23 69.3657C117.289 69.3265 117.313 69.2725 117.304 69.2043C117.313 68.9109 117.304 68.6221 117.274 68.3384C117.255 68.0543 117.255 67.766 117.274 67.4721C117.293 67.2964 117.298 67.1054 117.289 66.8997C117.289 66.6847 117.201 66.5232 117.024 66.4153C116.946 66.3664 116.873 66.3129 116.804 66.2538C116.745 66.1856 116.716 66.1072 116.716 66.019C116.707 65.9116 116.711 65.8041 116.731 65.6961C116.75 65.579 116.809 65.4909 116.907 65.4323C116.976 65.3834 117.049 65.3686 117.127 65.388C117.215 65.3977 117.298 65.388 117.377 65.3589C117.817 65.3589 118.243 65.3686 118.654 65.388C119.065 65.4078 119.485 65.4028 119.916 65.3732ZM126.617 65.3147C126.725 65.3147 126.828 65.3243 126.926 65.3442C127.023 65.3539 127.101 65.4124 127.16 65.5204L127.204 65.6671C127.204 65.9803 127.209 66.2931 127.219 66.6063C127.229 66.9098 127.209 67.2179 127.16 67.5312C127.121 67.6091 127.063 67.6631 126.984 67.6926C126.915 67.7217 126.842 67.7364 126.764 67.7364C126.627 67.7364 126.49 67.7314 126.353 67.7217C126.216 67.712 126.099 67.6534 126.001 67.5455C125.942 67.4675 125.884 67.3794 125.824 67.2816C125.766 67.1737 125.702 67.0759 125.634 66.9878C125.565 66.89 125.492 66.8069 125.413 66.7382C125.336 66.6699 125.238 66.621 125.12 66.5915C125.022 66.5624 124.919 66.5329 124.812 66.5034C124.704 66.4647 124.602 66.4743 124.504 66.5329L124.445 66.621C124.455 66.9536 124.445 67.2913 124.416 67.6336C124.386 67.9763 124.396 68.3038 124.445 68.617L124.401 69.219C124.42 69.2384 124.445 69.2628 124.474 69.2924C124.504 69.3214 124.538 69.3413 124.577 69.3509C124.714 69.3316 124.841 69.297 124.959 69.2481C125.086 69.1895 125.188 69.1065 125.267 68.9985C125.306 68.9302 125.34 68.8569 125.37 68.7785C125.409 68.6904 125.448 68.6124 125.487 68.5437C125.526 68.4653 125.575 68.397 125.634 68.3384C125.693 68.2794 125.776 68.2452 125.884 68.2355C125.971 68.2355 126.059 68.2452 126.147 68.2651C126.236 68.2748 126.304 68.3333 126.353 68.4408C126.392 68.6073 126.407 68.7637 126.397 68.9109C126.387 69.0576 126.402 69.2139 126.441 69.3805C126.392 69.5857 126.378 69.7915 126.397 69.9968C126.426 70.2025 126.436 70.4078 126.426 70.613C126.456 70.7403 126.466 70.8626 126.456 70.9802C126.446 71.0877 126.441 71.2099 126.441 71.3469C126.431 71.4254 126.392 71.489 126.324 71.5379C126.265 71.5771 126.201 71.6062 126.133 71.626C125.986 71.6454 125.854 71.6408 125.736 71.6113C125.619 71.5721 125.521 71.484 125.443 71.3469C125.394 71.2884 125.36 71.2247 125.34 71.1564C125.321 71.078 125.301 71.0047 125.282 70.9359C125.262 70.858 125.228 70.7892 125.179 70.7307C125.139 70.6721 125.076 70.6232 124.988 70.584C124.949 70.5743 124.91 70.5595 124.871 70.5397C124.831 70.5106 124.788 70.4908 124.739 70.4811C124.699 70.4617 124.655 70.4567 124.606 70.4663C124.567 70.4663 124.528 70.4908 124.489 70.5397C124.43 70.6573 124.396 70.7846 124.386 70.9216C124.377 71.0485 124.371 71.1809 124.371 71.3179C124.381 71.4549 124.386 71.5919 124.386 71.7289C124.396 71.8659 124.381 71.9978 124.342 72.1251C124.371 72.3793 124.386 72.6386 124.386 72.9029C124.386 73.1672 124.44 73.4117 124.548 73.6368C124.587 73.676 124.626 73.7152 124.665 73.7544C124.704 73.8033 124.748 73.8324 124.797 73.8421C125.052 73.8421 125.276 73.7443 125.473 73.5487C125.668 73.3628 125.805 73.1575 125.884 72.9324C125.942 72.8734 125.986 72.8051 126.015 72.7267C126.045 72.6487 126.069 72.5703 126.089 72.4919C126.118 72.4236 126.152 72.3549 126.192 72.2866C126.241 72.2179 126.314 72.1644 126.412 72.1251C126.529 72.0564 126.666 72.0274 126.823 72.037C126.989 72.037 127.131 72.0809 127.248 72.169C127.346 72.2474 127.405 72.3355 127.424 72.4333C127.444 72.5408 127.444 72.6487 127.424 72.7562C127.415 72.8734 127.395 72.9859 127.366 73.0939C127.346 73.211 127.341 73.3236 127.351 73.4315C127.351 73.5976 127.332 73.7641 127.292 73.9302C127.253 74.0967 127.243 74.2775 127.263 74.4736C127.243 74.5322 127.224 74.5907 127.204 74.6493C127.185 74.7181 127.141 74.767 127.072 74.7965C126.906 74.8551 126.725 74.8744 126.529 74.8551C126.343 74.8352 126.167 74.8158 126.001 74.7965C125.747 74.8158 125.492 74.8209 125.238 74.8108C124.983 74.8011 124.729 74.8108 124.474 74.8403C124.279 74.85 124.097 74.8306 123.931 74.7817C123.775 74.7425 123.603 74.7476 123.417 74.7965C123.134 74.7476 122.845 74.7476 122.552 74.7965C122.464 74.8454 122.366 74.8647 122.258 74.8551C122.15 74.8454 122.043 74.8403 121.935 74.8403C121.818 74.8403 121.695 74.8403 121.568 74.8403C121.441 74.8403 121.343 74.772 121.275 74.635C121.226 74.5566 121.206 74.4537 121.216 74.3264C121.236 74.2093 121.27 74.1115 121.319 74.033C121.358 73.9745 121.407 73.9256 121.465 73.8864C121.534 73.8471 121.598 73.8079 121.656 73.7687C121.715 73.7397 121.769 73.7005 121.818 73.6516C121.867 73.6123 121.901 73.5538 121.921 73.4753C121.94 73.2502 121.94 73.0302 121.921 72.8148C121.91 72.5998 121.93 72.3844 121.979 72.169C121.959 71.9439 121.94 71.7238 121.921 71.5084C121.91 71.2934 121.916 71.0729 121.935 70.8483C121.935 69.8893 121.95 68.945 121.979 68.0155C121.959 67.8393 121.95 67.6631 121.95 67.4869C121.959 67.3107 121.979 67.1349 122.009 66.9587C121.979 66.8411 121.955 66.7188 121.935 66.5915C121.916 66.4545 121.832 66.3618 121.686 66.3129C121.617 66.2834 121.549 66.2442 121.48 66.1953C121.421 66.1464 121.373 66.0878 121.333 66.019C121.304 65.9213 121.299 65.8331 121.319 65.7552C121.348 65.6671 121.387 65.5887 121.436 65.5204C121.495 65.4613 121.558 65.4272 121.627 65.4175C121.705 65.3977 121.784 65.388 121.862 65.388C121.95 65.3783 122.033 65.3732 122.111 65.3732C122.19 65.3636 122.263 65.3442 122.332 65.3147C122.586 65.3243 122.84 65.3243 123.095 65.3147C123.359 65.2953 123.618 65.2999 123.872 65.3294C124.097 65.2902 124.323 65.2851 124.548 65.3147C124.782 65.3345 125.013 65.3294 125.238 65.2999C125.473 65.3197 125.702 65.3294 125.927 65.3294C126.152 65.3197 126.382 65.3147 126.617 65.3147ZM131.106 65.7109C131.155 65.8188 131.228 65.9213 131.326 66.019C131.434 66.1072 131.502 66.2197 131.532 66.3567C131.541 66.4448 131.58 66.5329 131.649 66.621C131.727 66.6995 131.781 66.7825 131.81 66.8706C131.928 67.1349 132.089 67.3697 132.295 67.575C132.363 67.6825 132.417 67.795 132.456 67.9126C132.495 68.0201 132.534 68.1281 132.574 68.2355C132.623 68.343 132.677 68.4459 132.735 68.5437C132.803 68.6415 132.891 68.7347 132.999 68.8228C133.097 69.0087 133.19 69.1895 133.278 69.3657C133.376 69.5419 133.503 69.7034 133.66 69.8501C133.699 69.8598 133.733 69.8404 133.762 69.7915C133.782 69.5175 133.797 69.2435 133.807 68.9695C133.816 68.6858 133.797 68.4118 133.748 68.1474C133.728 68.0007 133.728 67.849 133.748 67.6926C133.767 67.5261 133.772 67.3697 133.762 67.2226C133.762 67.0662 133.733 66.9241 133.674 66.7972C133.625 66.6602 133.518 66.5523 133.351 66.4743C133.244 66.4153 133.131 66.347 133.014 66.2686C132.897 66.1805 132.828 66.0679 132.808 65.9309C132.808 65.8433 132.823 65.7598 132.852 65.6818C132.882 65.5937 132.936 65.5153 133.014 65.4466C133.122 65.4175 133.225 65.4078 133.322 65.4175C133.43 65.4175 133.533 65.4272 133.63 65.4466C133.738 65.4567 133.841 65.4613 133.939 65.4613C134.046 65.4613 134.154 65.4466 134.261 65.4175C134.438 65.4369 134.619 65.442 134.804 65.4323C135 65.4125 135.172 65.442 135.318 65.5204C135.426 65.579 135.489 65.6523 135.509 65.7404C135.538 65.8285 135.543 65.9263 135.524 66.0338C135.495 66.1417 135.441 66.2197 135.362 66.2686C135.294 66.3078 135.221 66.347 135.142 66.3862C135.064 66.4254 134.99 66.4693 134.922 66.5182C134.853 66.5671 134.81 66.6455 134.79 66.753C134.751 66.9292 134.731 67.1054 134.731 67.2816C134.731 67.4578 134.731 67.6386 134.731 67.8245C134.741 68.0007 134.746 68.1816 134.746 68.3675C134.746 68.5437 134.731 68.7199 134.702 68.8961C134.751 69.16 134.756 69.4294 134.716 69.7034C134.687 69.9672 134.682 70.2269 134.702 70.4811L134.746 70.9655C134.726 71.3276 134.726 71.6943 134.746 72.0661C134.765 72.4282 134.756 72.7954 134.716 73.1672C134.736 73.3531 134.731 73.5339 134.702 73.7101C134.682 73.896 134.697 74.0722 134.746 74.2388C134.746 74.3559 134.726 74.4634 134.687 74.5617C134.658 74.6595 134.589 74.7374 134.482 74.7965C134.374 74.8255 134.256 74.8306 134.13 74.8108C134.012 74.8011 133.899 74.7522 133.792 74.6641C133.753 74.5861 133.713 74.5077 133.674 74.4293C133.645 74.3509 133.606 74.2729 133.557 74.1945C133.43 73.9791 133.298 73.7738 133.161 73.5782C133.024 73.3822 132.887 73.1866 132.75 72.991C132.623 72.7364 132.466 72.4919 132.28 72.2571C132.104 72.0223 131.957 71.7676 131.84 71.4941C131.605 71.1906 131.409 70.8677 131.252 70.5254C131.106 70.1826 130.915 69.8597 130.68 69.5567C130.612 69.4584 130.553 69.3606 130.504 69.2628C130.455 69.165 130.392 69.0769 130.313 68.9985C130.235 69.0184 130.201 69.0576 130.21 69.1161C130.22 69.1747 130.216 69.2287 130.196 69.2776C130.235 69.5811 130.25 69.8939 130.24 70.2168C130.23 70.5397 130.21 70.858 130.181 71.1712C130.171 71.5328 130.167 71.9 130.167 72.2718C130.167 72.6436 130.181 73.0104 130.21 73.3725C130.259 73.4804 130.313 73.5879 130.372 73.6954C130.43 73.8033 130.519 73.8665 130.636 73.8864C130.704 73.9057 130.773 73.9256 130.841 73.9449C130.91 73.9745 130.969 74.028 131.018 74.1064C131.057 74.1945 131.081 74.2923 131.091 74.4002C131.111 74.5174 131.081 74.6152 131.003 74.6936C130.925 74.7619 130.832 74.8062 130.724 74.8255C130.627 74.8454 130.524 74.8551 130.416 74.8551C130.308 74.8551 130.201 74.85 130.093 74.8403C129.985 74.8306 129.883 74.8306 129.785 74.8403C129.668 74.8698 129.545 74.8744 129.418 74.8551C129.291 74.8454 129.173 74.8454 129.066 74.8551C128.939 74.8454 128.806 74.8306 128.669 74.8108C128.542 74.7914 128.44 74.7277 128.361 74.6203C128.322 74.5322 128.307 74.4293 128.317 74.3121C128.327 74.2042 128.361 74.1115 128.42 74.033C128.508 73.9546 128.601 73.896 128.699 73.8568C128.806 73.8278 128.89 73.759 128.948 73.6516C129.027 73.5339 129.071 73.402 129.08 73.2553C129.09 73.1086 129.105 72.9615 129.125 72.8148C129.076 72.5703 129.071 72.3207 129.11 72.0661C129.149 71.8022 129.149 71.5476 129.11 71.3031C129.061 70.7357 129.061 70.1827 129.11 69.6443C129.09 69.3902 129.08 69.1406 129.08 68.8961C129.08 68.6512 129.09 68.4067 129.11 68.1622C129.08 68.0155 129.071 67.8734 129.08 67.7364C129.1 67.5994 129.11 67.4527 129.11 67.2964C129.09 67.0712 129.027 66.8752 128.919 66.7091C128.821 66.5329 128.684 66.3664 128.508 66.21C128.488 66.1514 128.459 66.1025 128.42 66.0633C128.381 66.0144 128.357 65.9605 128.346 65.9019C128.366 65.8235 128.391 65.745 128.42 65.6671C128.449 65.579 128.513 65.5153 128.611 65.4761C128.787 65.4175 128.982 65.3931 129.198 65.4028C129.423 65.4124 129.633 65.4272 129.829 65.4466C129.917 65.4466 130.005 65.442 130.093 65.4323C130.191 65.4125 130.289 65.3977 130.387 65.388C130.484 65.3783 130.578 65.3834 130.666 65.4028C130.753 65.4124 130.837 65.4517 130.915 65.5204L131.106 65.7109Z" fill="black"/>
</svg>
