<svg width="310" height="165" viewBox="0 0 310 165" fill="none" xmlns="http://www.w3.org/2000/svg">
	<g clip-path="url(#clip0_0_1)">
		<path
			d="M129 135.462L130.469 129.6L145.381 134.569L143.912 139.669L129 135.462ZM134.503 153.562L144.039 140.562L147.826 143.75L139.271 157.006L134.503 153.562ZM145.502 118H151.245L150.758 133.931H146.11L145.502 118ZM149.048 143.744L152.961 140.556L162.377 153.556L157.729 157L149.048 143.744ZM151.492 134.569L166.531 129.6L168 135.462L153.088 139.669L151.498 134.569H151.492Z"
			fill="black" />
	</g>
	<path
		d="M67.5849 20.9398C70.5459 22.1328 72.4515 24.4244 73.4056 27.2657C74.0744 29.5165 74.2361 32.1221 73.7935 34.8602C73.7037 35.5621 73.5444 36.3474 73.3782 37.0563C72.8171 39.3428 71.7903 41.595 70.6038 43.7847L67.4829 42.5293C68.4682 40.6663 69.2937 38.7409 69.7299 36.7741C69.9172 36.2945 70.021 35.7455 70.1248 35.1965C70.235 33.8762 70.1229 32.6533 69.7261 31.6877C69.1345 30.2776 68.0288 29.1458 66.2703 28.4592C65.0678 27.9529 63.5042 27.7108 61.7253 27.6427C53.7619 27.3707 44.3438 33.0895 35.7684 41.2744C25.9223 50.7319 17.371 63.3848 13.3699 74.3875C11.5394 79.642 11.0285 84.159 13.4291 88.4862C14.9111 91.202 17.6295 93.1109 21.4586 93.6847C22.8624 93.8643 24.3285 93.8841 26.017 93.8064C32.4441 93.2944 39.6967 90.8569 46.8155 86.1196C54.0107 81.3752 59.9124 75.131 70.0903 63.408L73.0099 64.9901C61.9435 77.9506 55.0215 85.6757 46.9447 91.734C39.368 97.3611 31.6715 100.841 24.9317 101.305C23.0139 101.403 21.242 101.412 19.6784 101.17C14.8347 100.458 11.5323 98.0628 9.59099 94.5413C6.35549 88.6721 7.73701 77.6784 10.4344 70.1093C14.6018 58.3978 23.7014 45.0009 34.0475 35.1123C43.47 26.079 53.9995 19.8729 63.1163 20.1163C64.8188 20.1914 66.306 20.4405 67.5849 20.9398ZM85.8102 44.1635C85.3109 45.4424 84.3599 46.8398 83.5479 48.0703C83.43 48.4664 83.3192 48.939 83.4931 49.1543C83.7364 49.2861 84.2854 49.39 84.8274 49.4174C85.6057 49.5002 86.3076 49.59 86.9611 49.9925C88.1011 50.6587 88.6024 51.923 87.4024 54.8076C88.0916 56.44 86.9406 59.8596 81.6861 67.2777C80.395 69.1687 78.8753 71.9284 78.0919 74.3124C78.113 74.5417 78.134 74.771 78.155 75.0002C78.3429 75.3684 78.5168 75.5837 78.9893 75.6945C79.6078 75.7149 80.6638 75.4639 82.1503 74.8652C84.7343 73.6265 87.2622 71.7762 89.5258 69.5649C92.22 67.0058 94.497 64.0995 96.0307 61.4927L96.1071 61.4857L96.1695 61.3258L99.221 62.6646L99.1586 62.8245C97.2153 66.0084 94.2307 70.4438 90.7939 74.15C88.1278 77.0149 85.2738 79.5115 82.3146 80.8618C80.0154 81.8433 78.2785 82.2337 77.0346 82.1165C75.4016 81.9579 74.3933 81.0484 74.0309 79.6172C73.6201 78.4988 73.7233 77.102 74.1252 75.6008C74.1736 75.2881 74.2985 74.9684 74.3399 74.5792C74.4297 73.8774 74.5195 73.1755 74.6787 72.3902C75.3571 68.8597 77.5009 64.5014 79.3403 61.8665C80.8396 59.7252 81.9224 58.0845 82.7415 56.9304C81.8033 56.7852 80.8651 56.6399 80.1002 55.8623C79.8429 55.5776 79.5786 55.2164 79.4671 54.8413C78.4398 56.2457 77.0793 58.2201 75.7813 60.0347C74.0043 62.5097 70.8464 67.5776 70.298 68.3215L70.2216 68.3285L67.5797 66.4127L67.5727 66.3363L67.6491 66.3293C67.9268 65.9955 69.0096 64.3548 71.9522 59.4608C73.7495 56.3673 76.408 52.5783 78.2545 50.0198C79.7538 47.8785 81.3359 44.9589 82.7798 43.0539L85.8102 44.1635ZM124.698 50.31C122.923 55.3282 117.5 60.0643 111.415 63.4736C107.241 65.8601 102.781 67.6562 98.9324 68.5485C99.3368 70.4382 100.172 71.9802 101.423 73.0216C102.591 73.9935 104.1 74.4718 105.698 74.2483C109.206 73.8496 113.388 71.5395 117.221 68.7989C121.916 65.3628 125.853 61.2254 127.157 58.6395L130.41 59.6516C128.856 62.8769 125.739 66.708 122.052 70.2059C118.642 73.37 114.677 76.354 110.759 78.1774C110.169 78.4628 109.578 78.7481 109.057 78.95C105.265 80.4537 102.117 80.5881 99.7329 79.8047C97.2655 78.9519 95.6242 77.0214 94.9274 74.4648C94.823 74.1661 94.795 73.8604 94.774 73.6311C94.495 72.2693 94.5077 70.7267 94.7568 69.2395L94.2982 69.2816C93.6033 69.2682 92.9085 69.2548 92.2066 69.165L93.5588 65.4187C93.9479 65.4601 94.3371 65.5015 94.7956 65.4595C94.9485 65.4454 95.1014 65.4314 95.2542 65.4174C95.6695 63.2213 96.4669 60.9902 97.6465 58.7241C99.5477 55.0816 102.373 51.4315 105.491 48.4482C108.601 45.3885 112.074 42.9121 115.276 41.6937C117.805 40.6913 120.167 40.3976 122.155 41.0632C123.274 41.5002 124.185 42.1874 124.742 43.2154C125.305 44.3198 125.495 47.2311 125.163 48.6489C125.066 49.2743 124.962 49.8234 124.698 50.31ZM99.8604 64.3786C103.007 63.3965 106.473 61.6915 109.821 59.535C115.141 56.1956 119.759 51.9188 121.167 47.9362C121.305 47.7693 121.361 47.533 121.423 47.3731C121.159 47.012 120.825 46.7343 120.346 46.5471C119.31 46.1795 117.941 46.3821 116.455 46.9808C113.78 48.0737 110.745 50.2787 107.926 53.1575C105.031 56.0434 102.344 59.5266 100.582 63.0023C100.318 63.4889 100.131 63.9685 99.8604 64.3786ZM166.948 55.3005L170.457 55.7496C169.036 59.5793 164.613 64.3008 161.551 67.0478C157.766 70.3234 153.613 72.9392 150.625 73.136C149.708 73.22 148.915 72.9844 148.338 72.5748C147.017 71.6169 146.835 69.6297 147.452 67.1069L147.514 66.9471C146.035 68.4699 144.397 69.9303 142.751 71.3144C138.661 74.618 134.173 76.9561 130.219 76.702C127.579 76.4816 125.792 75.4892 124.867 73.8014C123.858 72.0442 123.724 69.7443 124.403 67.0616C124.375 65.9081 124.492 64.6642 124.831 63.3229C125.455 60.8765 126.745 58.1378 128.578 55.4265C133.304 48.1338 148.108 33.9059 156.506 39.7642C157.994 40.861 159.142 42.4514 159.776 44.3201C160.609 43.3189 161.719 41.9839 162.719 41.1215L164.584 43.8023C161.438 46.4799 155.331 57.2131 153.513 60.9251C152.542 62.9409 151.786 64.7828 151.308 66.2911C151.329 66.5203 151.336 66.5968 151.419 66.6662C151.503 66.7356 151.579 66.7286 151.808 66.7076C154.032 66.5809 157.414 64.8064 160.512 62.4416C162.679 60.8557 166.026 57.8514 166.948 55.3005ZM142.302 65.5751C150.379 60.3646 151.98 55.131 157.173 47.8728C157.039 46.4206 155.934 45.2888 154.502 44.8035C147.579 42.4322 134.775 54.9354 131.194 60.4275C129.771 62.5618 128.73 64.6611 128.211 66.5584C128.246 66.9406 128.357 67.3157 128.538 67.6074C129.081 68.4826 130.137 69.0794 131.763 69.1615C135.015 69.3259 138.808 67.8221 142.302 65.5751ZM181.566 35.6945C180.761 37.0015 180.033 38.3014 179.304 39.6014C174.342 48.5341 170.312 57.5355 169.218 62.4143C169.149 63.3455 169.212 64.0333 169.352 64.7142C169.7 65.9925 170.236 66.7912 171.042 67.1797C171.202 67.2421 171.438 67.2975 171.605 67.4364C174.225 68.2752 177.33 66.8345 180.268 64.4072C183.49 61.7227 186.53 57.8987 188.474 54.7147C188.946 53.9778 189.418 53.2409 189.744 52.5944L189.737 52.518L189.813 52.511L189.806 52.4346L189.883 52.4276L189.876 52.3511L193.059 53.4467L193.066 53.5231L192.989 53.5301L192.996 53.6065C192.414 54.816 191.616 56.1994 190.672 57.6732C188.242 61.4412 184.883 65.9881 181.341 69.3956C177.363 73.0744 173.021 75.322 169.122 73.9838C168.886 73.9284 168.643 73.7966 168.399 73.6647C166.87 72.9571 165.841 71.8183 165.284 69.9426C164.824 68.2892 164.843 65.9753 165.487 62.9104L165.48 62.834C165.604 61.6665 165.728 60.4991 165.991 59.1647C166.995 54.1401 170.873 46.0004 175.745 37.7696C176.078 37.1995 176.418 36.7059 176.751 36.1359C174.764 36.318 172.409 36.6881 170.457 37.2524L170.273 33.5697C173.212 32.8379 176.339 32.4743 179.243 32.2081C183.026 26.3892 187.149 20.9245 191.093 16.8636L191.232 16.6967L193.596 18.9463C190.499 22.1589 187.139 26.7058 183.905 31.7807L183.982 31.7737C188.498 31.4368 193.112 31.3222 197.635 31.0617L196.978 34.8214C191.912 35.0545 186.847 35.2876 181.643 35.6875L181.566 35.6945ZM202.931 41.058C198.967 45.7374 194.733 51.6747 191.665 56.8885C190.597 58.682 189.681 60.4615 189.043 61.9073C189.064 62.1366 189.008 62.3729 189.029 62.6022C189.085 63.2136 189.357 63.6512 189.697 64.0053C190.108 64.276 190.587 64.4633 191.122 64.4142C193.422 64.2805 196.054 62.729 198.401 60.5871C200.894 58.3547 203.664 54.9408 204.774 51.9104L208.214 52.4429C206.674 56.6688 202.974 61.7093 199.725 64.9359C196.552 68.1555 192.927 70.6458 189.633 70.8706C188.25 70.9203 187.062 70.5668 186.137 69.7267C185.296 68.956 184.656 67.8586 184.529 66.4829C184.41 65.1836 184.791 63.4531 185.547 61.6112C187.022 55.0019 195.631 44.6559 200.359 39.0587L202.931 41.058ZM211.551 27.474C210.767 28.1625 210.03 28.5382 209.113 28.6223C208.273 28.6994 207.557 28.4567 207.042 27.8873C206.451 27.3249 206.304 26.5676 206.38 25.7129C206.532 24.8511 206.921 24.0448 207.629 23.3633C208.33 22.6054 209.143 22.2226 209.984 22.1455C210.901 22.0615 211.617 22.3041 212.139 22.95C212.653 23.5194 212.876 24.2696 212.8 25.1244C212.648 25.9861 212.26 26.7925 211.551 27.474ZM209.582 69.0421C207.574 69.8427 205.886 69.9204 204.509 69.1987C203.62 68.7408 202.785 68.0466 202.291 66.8587C201.804 65.7473 201.664 64.2187 201.926 62.0366C202.023 61.4112 202.12 60.7857 202.293 60.1533C202.313 59.5348 202.334 58.9164 202.424 58.2145C202.99 54.309 205.016 49.499 207.82 44.7718C210.755 39.8014 214.615 34.8233 218.441 31.1585L220.59 33.5819C217.41 36.7251 214.015 41.7376 211.177 46.9303C208.749 51.5461 206.786 56.1962 205.962 59.817C205.948 60.5119 206.004 61.1233 206.13 61.6513C206.269 62.3322 206.541 62.7697 206.867 62.971C207.347 63.1583 208.111 63.0882 209.077 62.6914C210.494 62.1762 212.168 61.0979 214.112 59.6094C217.571 56.9802 221.306 53.1696 224.562 49.1717C225.388 48.0941 226.214 47.0164 226.964 45.9457C226.803 45.0356 226.796 44.1114 226.781 43.1108C226.801 41.6447 226.966 40.0881 227.285 38.5174C229.75 26.7307 237.957 27.9823 235.143 37.643C233.362 43.4325 228.475 50.6627 226.289 53.7148C223.005 58.2547 219.243 62.6074 215.791 65.313C213.478 66.9893 211.443 68.3319 209.582 69.0421ZM231.307 36.9927C230.343 39.9327 230.677 40.2104 231.766 36.9506C232.688 34.3998 231.91 35.1647 231.307 36.9927ZM263.958 37.5451C262.183 42.5633 256.76 47.2994 250.676 50.7088C246.501 53.0953 242.042 54.8913 238.193 55.7836C238.597 57.6734 239.432 59.2153 240.684 60.2567C241.852 61.2286 243.36 61.707 244.958 61.4834C248.467 61.0847 252.648 58.7746 256.482 56.034C261.176 52.5979 265.113 48.4605 266.418 45.8747L269.67 46.8867C268.116 50.112 264.999 53.9431 261.312 57.441C257.903 60.6052 253.937 63.5891 250.019 65.4126C249.429 65.6979 248.839 65.9832 248.318 66.1851C244.525 67.6889 241.377 67.8232 238.993 67.0398C236.526 66.187 234.885 64.2565 234.188 61.6999C234.083 61.4012 234.055 61.0955 234.034 60.8662C233.755 59.5045 233.768 57.9619 234.017 56.4747L233.558 56.5167C232.864 56.5033 232.169 56.4899 231.467 56.4001L232.819 52.6538C233.208 52.6952 233.597 52.7366 234.056 52.6946C234.209 52.6806 234.362 52.6666 234.515 52.6525C234.93 50.4565 235.727 48.2254 236.907 45.9592C238.808 42.3167 241.633 38.6666 244.751 35.6833C247.862 32.6236 251.334 30.1473 254.537 28.9289C257.065 27.9264 259.428 27.6328 261.415 28.2984C262.534 28.7353 263.445 29.4225 264.002 30.4505C264.565 31.5549 264.755 34.4662 264.423 35.884C264.326 36.5095 264.222 37.0585 263.958 37.5451ZM239.121 51.6138C242.268 50.6317 245.734 48.9266 249.081 46.7701C254.402 43.4308 259.019 39.1539 260.427 35.1713C260.566 35.0044 260.621 34.7681 260.683 34.6083C260.419 34.2471 260.085 33.9694 259.606 33.7822C258.57 33.4147 257.201 33.6172 255.715 34.2159C253.041 35.3088 250.006 37.5138 247.187 40.3926C244.291 43.2785 241.605 46.7618 239.842 50.2374C239.579 50.724 239.391 51.2036 239.121 51.6138Z"
		fill="black" />
	<g clip-path="url(#clip1_0_1)">
		<path
			d="M229.803 75.1956L192.47 79.4609L153.247 83.9417L112.132 88.6377L73.6762 93.0314C73.1879 93.0882 72.7313 93.4008 72.4262 93.8915C71.4693 95.415 72.3838 97.5995 73.9026 97.4245L109.159 93.3947L150.35 88.6877L187.606 84.4333L226.829 79.9525L267.238 75.3393C267.734 75.283 268.191 74.9627 268.504 74.4571C269.439 72.9247 268.523 70.7708 267.019 70.9467L229.803 75.1956Z"
			fill="black" />
	</g>
	<path
		d="M201.773 112.109C201.921 112.13 202.048 112.183 202.155 112.268C202.282 112.332 202.42 112.385 202.568 112.427C202.802 112.555 203.014 112.724 203.205 112.936C203.417 113.127 203.576 113.361 203.682 113.636C203.745 114.294 203.745 114.952 203.682 115.609C203.639 116.267 203.597 116.914 203.555 117.55C203.512 117.635 203.47 117.73 203.427 117.836C203.385 117.921 203.311 117.985 203.205 118.027C202.971 118.112 202.717 118.144 202.441 118.123C202.186 118.102 201.974 118.006 201.805 117.836C201.444 117.412 201.232 116.924 201.168 116.373C200.998 115.885 200.776 115.386 200.5 114.877C200.224 114.368 199.8 114.018 199.227 113.827C198.973 113.721 198.686 113.689 198.368 113.732C198.05 113.753 197.785 113.859 197.573 114.05L197.032 114.75C197.011 115.047 196.958 115.333 196.873 115.609C196.809 115.885 196.735 116.161 196.65 116.436C196.586 116.691 196.523 116.956 196.459 117.232C196.417 117.508 196.406 117.794 196.427 118.091C196.448 118.558 196.406 119.003 196.3 119.427C196.194 119.83 196.173 120.244 196.236 120.668C196.236 121.432 196.226 122.195 196.205 122.959C196.183 123.702 196.215 124.444 196.3 125.186C196.321 125.886 196.395 126.555 196.523 127.191C196.65 127.827 196.788 128.474 196.936 129.132C197.064 129.45 197.276 129.747 197.573 130.023C197.87 130.32 198.188 130.489 198.527 130.532C199.227 130.532 199.779 130.245 200.182 129.673C200.352 129.227 200.542 128.803 200.755 128.4C200.988 128.018 201.136 127.583 201.2 127.095C201.264 126.947 201.317 126.788 201.359 126.618C201.423 126.448 201.486 126.3 201.55 126.173C201.635 126.024 201.741 125.908 201.868 125.823C201.995 125.717 202.165 125.664 202.377 125.664C202.632 125.664 202.886 125.674 203.141 125.695C203.417 125.695 203.618 125.833 203.745 126.109C203.852 126.47 203.883 126.852 203.841 127.255C203.798 127.658 203.841 128.039 203.968 128.4C203.905 128.697 203.894 128.994 203.936 129.291C203.979 129.609 204 129.917 204 130.214C204.021 130.511 203.989 130.786 203.905 131.041C203.82 131.295 203.618 131.508 203.3 131.677C202.748 132.038 202.133 132.282 201.455 132.409C200.797 132.558 200.129 132.695 199.45 132.823C199.089 132.78 198.729 132.791 198.368 132.855C198.008 132.918 197.647 132.897 197.286 132.791C197.053 132.664 196.798 132.568 196.523 132.505C196.268 132.462 196.014 132.409 195.759 132.345C195.505 132.282 195.25 132.208 194.995 132.123C194.741 132.038 194.508 131.911 194.295 131.741C193.829 131.38 193.383 130.998 192.959 130.595C192.535 130.214 192.206 129.768 191.973 129.259C191.612 128.771 191.358 128.23 191.209 127.636C191.061 127.064 190.902 126.491 190.732 125.918C190.668 125.07 190.562 124.232 190.414 123.405C190.265 122.577 190.233 121.718 190.318 120.827C190.361 120.276 190.445 119.756 190.573 119.268C190.721 118.759 190.838 118.239 190.923 117.709C190.965 117.582 191.018 117.465 191.082 117.359C191.145 117.253 191.22 117.136 191.305 117.009C191.347 116.564 191.474 116.15 191.686 115.768C191.898 115.365 192.1 114.973 192.291 114.591C192.588 114.145 192.938 113.753 193.341 113.414C193.744 113.053 194.158 112.724 194.582 112.427C194.942 112.321 195.282 112.183 195.6 112.014C195.918 111.823 196.258 111.706 196.618 111.664C196.979 111.621 197.339 111.558 197.7 111.473C198.082 111.388 198.464 111.388 198.845 111.473C199.355 111.515 199.864 111.558 200.373 111.6C200.882 111.642 201.348 111.812 201.773 112.109ZM214.202 111.95C214.732 112.035 215.273 112.098 215.825 112.141C216.376 112.183 216.896 112.311 217.384 112.523C217.872 112.841 218.381 113.18 218.911 113.541C219.463 113.88 219.855 114.358 220.088 114.973C220.407 115.588 220.608 116.256 220.693 116.977C220.778 117.698 220.703 118.409 220.47 119.109C220.322 119.406 220.194 119.703 220.088 120C220.003 120.297 219.823 120.573 219.547 120.827C219.314 121.082 219.06 121.315 218.784 121.527C218.508 121.739 218.232 121.93 217.957 122.1C217.829 122.185 217.755 122.302 217.734 122.45C217.797 122.705 217.893 122.959 218.02 123.214C218.169 123.447 218.296 123.712 218.402 124.009C218.635 124.285 218.773 124.603 218.816 124.964C218.858 125.324 219.007 125.642 219.261 125.918C219.41 126.385 219.579 126.841 219.77 127.286C219.961 127.753 220.152 128.209 220.343 128.655C220.555 128.994 220.767 129.312 220.979 129.609C221.191 129.927 221.457 130.235 221.775 130.532C221.902 130.786 221.934 131.062 221.87 131.359C221.828 131.677 221.711 131.953 221.52 132.186C221.308 132.356 221.075 132.452 220.82 132.473C220.587 132.515 220.343 132.515 220.088 132.473C219.834 132.452 219.569 132.42 219.293 132.377C219.038 132.356 218.784 132.367 218.529 132.409C218.423 132.409 218.285 132.42 218.116 132.441C217.967 132.483 217.829 132.473 217.702 132.409C217.405 132.303 217.097 132.197 216.779 132.091C216.482 131.985 216.313 131.752 216.27 131.391C216.249 131.242 216.196 131.094 216.111 130.945C216.047 130.818 215.973 130.691 215.888 130.564C215.803 130.436 215.719 130.309 215.634 130.182C215.57 130.055 215.538 129.906 215.538 129.736C215.496 129.482 215.4 129.248 215.252 129.036C215.125 128.845 215.008 128.633 214.902 128.4C214.775 127.933 214.626 127.477 214.457 127.032C214.287 126.608 214.107 126.183 213.916 125.759C213.767 125.42 213.64 125.08 213.534 124.741C213.449 124.402 213.258 124.083 212.961 123.786C212.855 123.765 212.781 123.829 212.738 123.977C212.717 124.126 212.717 124.274 212.738 124.423C212.76 124.571 212.781 124.73 212.802 124.9C212.653 125.621 212.611 126.353 212.675 127.095C212.76 127.859 212.781 128.612 212.738 129.355C212.76 129.545 212.823 129.694 212.929 129.8C213.057 129.927 213.184 130.033 213.311 130.118C213.46 130.224 213.597 130.32 213.725 130.405C213.873 130.511 213.99 130.638 214.075 130.786C214.181 130.956 214.234 131.158 214.234 131.391C214.234 131.624 214.181 131.826 214.075 131.995C213.778 132.335 213.396 132.452 212.929 132.345C212.717 132.282 212.505 132.261 212.293 132.282C212.102 132.303 211.9 132.324 211.688 132.345C211.476 132.388 211.253 132.42 211.02 132.441C210.808 132.462 210.585 132.452 210.352 132.409C209.991 132.303 209.599 132.25 209.175 132.25C208.772 132.25 208.379 132.271 207.997 132.314C207.849 132.314 207.679 132.324 207.488 132.345C207.319 132.367 207.138 132.377 206.947 132.377C206.778 132.377 206.619 132.345 206.47 132.282C206.322 132.218 206.205 132.102 206.12 131.932C206.057 131.72 206.025 131.497 206.025 131.264C206.025 131.052 206.088 130.861 206.216 130.691C206.385 130.521 206.576 130.405 206.788 130.341C207.022 130.277 207.213 130.15 207.361 129.959C207.488 129.705 207.552 129.429 207.552 129.132C207.573 128.856 207.541 128.57 207.457 128.273C207.541 127.976 207.563 127.679 207.52 127.382C207.478 127.085 207.446 126.788 207.425 126.491C207.573 125.876 207.605 125.271 207.52 124.677C207.457 124.062 207.457 123.447 207.52 122.832C207.563 122.408 207.563 121.983 207.52 121.559C207.478 121.114 207.499 120.668 207.584 120.223C207.584 119.692 207.552 119.162 207.488 118.632C207.446 118.08 207.457 117.539 207.52 117.009C207.478 116.648 207.457 116.267 207.457 115.864C207.478 115.461 207.467 115.079 207.425 114.718C207.361 114.527 207.255 114.379 207.107 114.273C206.958 114.167 206.799 114.071 206.629 113.986C206.481 113.88 206.332 113.764 206.184 113.636C206.057 113.509 205.982 113.329 205.961 113.095C205.919 112.777 205.972 112.523 206.12 112.332C206.353 112.098 206.608 111.982 206.884 111.982C207.16 111.982 207.435 111.982 207.711 111.982C208.029 111.982 208.358 111.982 208.697 111.982C209.037 111.961 209.355 111.95 209.652 111.95C210.394 111.992 211.147 112.014 211.911 112.014C212.696 112.014 213.46 111.992 214.202 111.95ZM214.743 114.973C214.51 114.676 214.244 114.453 213.947 114.305C213.65 114.135 213.332 114.071 212.993 114.114C212.908 114.156 212.855 114.22 212.834 114.305C212.813 114.389 212.791 114.485 212.77 114.591C212.791 115.058 212.781 115.524 212.738 115.991C212.696 116.436 212.696 116.903 212.738 117.391C212.611 117.964 212.59 118.536 212.675 119.109C212.76 119.682 212.791 120.265 212.77 120.859L212.866 121.05C212.993 121.156 213.131 121.188 213.279 121.145C213.449 121.082 213.608 121.029 213.757 120.986C214.117 120.88 214.393 120.711 214.584 120.477C214.775 120.223 214.913 119.947 214.997 119.65C215.082 119.332 215.135 119.003 215.157 118.664C215.178 118.324 215.21 117.995 215.252 117.677C215.21 117.189 215.167 116.712 215.125 116.245C215.103 115.758 214.976 115.333 214.743 114.973ZM235.212 111.759C235.445 111.759 235.668 111.78 235.88 111.823C236.092 111.844 236.262 111.971 236.389 112.205L236.485 112.523C236.485 113.202 236.495 113.88 236.517 114.559C236.538 115.217 236.495 115.885 236.389 116.564C236.305 116.733 236.177 116.85 236.008 116.914C235.859 116.977 235.7 117.009 235.53 117.009C235.233 117.009 234.936 116.998 234.639 116.977C234.342 116.956 234.088 116.829 233.876 116.595C233.749 116.426 233.621 116.235 233.494 116.023C233.367 115.789 233.229 115.577 233.08 115.386C232.932 115.174 232.773 114.994 232.603 114.845C232.433 114.697 232.221 114.591 231.967 114.527C231.755 114.464 231.532 114.4 231.299 114.336C231.065 114.252 230.842 114.273 230.63 114.4L230.503 114.591C230.524 115.312 230.503 116.044 230.439 116.786C230.376 117.529 230.397 118.239 230.503 118.918L230.408 120.223C230.45 120.265 230.503 120.318 230.567 120.382C230.63 120.445 230.705 120.488 230.789 120.509C231.086 120.467 231.362 120.392 231.617 120.286C231.892 120.159 232.115 119.979 232.285 119.745C232.37 119.597 232.444 119.438 232.508 119.268C232.592 119.077 232.677 118.908 232.762 118.759C232.847 118.589 232.953 118.441 233.08 118.314C233.208 118.186 233.388 118.112 233.621 118.091C233.812 118.091 234.003 118.112 234.194 118.155C234.385 118.176 234.533 118.303 234.639 118.536C234.724 118.897 234.756 119.236 234.735 119.555C234.714 119.873 234.745 120.212 234.83 120.573C234.724 121.018 234.692 121.464 234.735 121.909C234.799 122.355 234.82 122.8 234.799 123.245C234.862 123.521 234.883 123.786 234.862 124.041C234.841 124.274 234.83 124.539 234.83 124.836C234.809 125.006 234.724 125.144 234.576 125.25C234.449 125.335 234.311 125.398 234.162 125.441C233.844 125.483 233.558 125.473 233.303 125.409C233.049 125.324 232.836 125.133 232.667 124.836C232.561 124.709 232.486 124.571 232.444 124.423C232.402 124.253 232.359 124.094 232.317 123.945C232.274 123.776 232.2 123.627 232.094 123.5C232.009 123.373 231.871 123.267 231.68 123.182C231.595 123.161 231.511 123.129 231.426 123.086C231.341 123.023 231.245 122.98 231.139 122.959C231.055 122.917 230.959 122.906 230.853 122.927C230.768 122.927 230.683 122.98 230.599 123.086C230.471 123.341 230.397 123.617 230.376 123.914C230.355 124.189 230.344 124.476 230.344 124.773C230.365 125.07 230.376 125.367 230.376 125.664C230.397 125.961 230.365 126.247 230.28 126.523C230.344 127.074 230.376 127.636 230.376 128.209C230.376 128.782 230.492 129.312 230.726 129.8C230.811 129.885 230.895 129.97 230.98 130.055C231.065 130.161 231.161 130.224 231.267 130.245C231.818 130.245 232.306 130.033 232.73 129.609C233.155 129.206 233.452 128.761 233.621 128.273C233.749 128.145 233.844 127.997 233.908 127.827C233.971 127.658 234.024 127.488 234.067 127.318C234.13 127.17 234.205 127.021 234.289 126.873C234.395 126.724 234.555 126.608 234.767 126.523C235.021 126.374 235.318 126.311 235.658 126.332C236.018 126.332 236.326 126.427 236.58 126.618C236.792 126.788 236.92 126.979 236.962 127.191C237.005 127.424 237.005 127.658 236.962 127.891C236.941 128.145 236.899 128.389 236.835 128.623C236.792 128.877 236.782 129.121 236.803 129.355C236.803 129.715 236.761 130.076 236.676 130.436C236.591 130.797 236.57 131.189 236.612 131.614C236.57 131.741 236.527 131.868 236.485 131.995C236.442 132.144 236.347 132.25 236.199 132.314C235.838 132.441 235.445 132.483 235.021 132.441C234.618 132.398 234.236 132.356 233.876 132.314C233.324 132.356 232.773 132.367 232.221 132.345C231.67 132.324 231.118 132.345 230.567 132.409C230.142 132.43 229.75 132.388 229.389 132.282C229.05 132.197 228.679 132.208 228.276 132.314C227.661 132.208 227.035 132.208 226.399 132.314C226.208 132.42 225.995 132.462 225.762 132.441C225.529 132.42 225.295 132.409 225.062 132.409C224.808 132.409 224.542 132.409 224.267 132.409C223.991 132.409 223.779 132.261 223.63 131.964C223.524 131.794 223.482 131.571 223.503 131.295C223.545 131.041 223.62 130.829 223.726 130.659C223.811 130.532 223.917 130.426 224.044 130.341C224.192 130.256 224.33 130.171 224.458 130.086C224.585 130.023 224.702 129.938 224.808 129.832C224.914 129.747 224.988 129.62 225.03 129.45C225.073 128.962 225.073 128.485 225.03 128.018C225.009 127.552 225.052 127.085 225.158 126.618C225.115 126.13 225.073 125.653 225.03 125.186C225.009 124.72 225.02 124.242 225.062 123.755C225.062 121.676 225.094 119.629 225.158 117.614C225.115 117.232 225.094 116.85 225.094 116.468C225.115 116.086 225.158 115.705 225.221 115.323C225.158 115.068 225.105 114.803 225.062 114.527C225.02 114.23 224.839 114.029 224.521 113.923C224.373 113.859 224.224 113.774 224.076 113.668C223.949 113.562 223.842 113.435 223.758 113.286C223.694 113.074 223.683 112.883 223.726 112.714C223.789 112.523 223.874 112.353 223.98 112.205C224.108 112.077 224.245 112.003 224.394 111.982C224.564 111.939 224.733 111.918 224.903 111.918C225.094 111.897 225.274 111.886 225.444 111.886C225.614 111.865 225.773 111.823 225.921 111.759C226.473 111.78 227.024 111.78 227.576 111.759C228.149 111.717 228.711 111.727 229.262 111.791C229.75 111.706 230.238 111.695 230.726 111.759C231.235 111.802 231.733 111.791 232.221 111.727C232.73 111.77 233.229 111.791 233.717 111.791C234.205 111.77 234.703 111.759 235.212 111.759ZM245.42 112.045C245.844 112.067 246.279 112.056 246.725 112.014C247.17 111.971 247.605 112.014 248.029 112.141C248.22 112.289 248.358 112.459 248.443 112.65C248.549 112.841 248.634 113.042 248.697 113.255C248.761 113.467 248.814 113.689 248.856 113.923C248.92 114.135 249.005 114.336 249.111 114.527C249.196 115.079 249.323 115.62 249.493 116.15C249.662 116.659 249.769 117.189 249.811 117.741C249.938 118.25 250.066 118.748 250.193 119.236C250.32 119.724 250.469 120.212 250.638 120.7C250.808 121.379 250.946 122.058 251.052 122.736C251.158 123.394 251.328 124.041 251.561 124.677C251.731 125.038 251.837 125.43 251.879 125.855C251.943 126.258 252.059 126.639 252.229 127C252.272 127.403 252.346 127.806 252.452 128.209C252.558 128.612 252.675 128.994 252.802 129.355C252.887 129.567 253.014 129.758 253.184 129.927C253.375 130.097 253.544 130.267 253.693 130.436C253.862 130.627 253.99 130.818 254.075 131.009C254.159 131.2 254.159 131.433 254.075 131.709C254.032 131.815 253.958 131.932 253.852 132.059C253.767 132.186 253.661 132.271 253.534 132.314L253.152 132.409C252.791 132.367 252.431 132.367 252.07 132.409C251.731 132.452 251.402 132.42 251.084 132.314C250.384 132.462 249.673 132.515 248.952 132.473C248.252 132.43 247.541 132.409 246.82 132.409C246.672 132.367 246.534 132.314 246.406 132.25C246.3 132.186 246.205 132.08 246.12 131.932C246.078 131.741 246.046 131.518 246.025 131.264C246.003 131.03 246.067 130.829 246.216 130.659C246.491 130.405 246.756 130.129 247.011 129.832C247.287 129.535 247.403 129.174 247.361 128.75C247.276 128.198 247.181 127.636 247.075 127.064C246.99 126.512 246.873 125.982 246.725 125.473C246.64 125.388 246.555 125.335 246.47 125.314C246.385 125.271 246.3 125.229 246.216 125.186C245.876 125.165 245.537 125.176 245.197 125.218C244.858 125.239 244.508 125.229 244.147 125.186C243.978 125.208 243.797 125.239 243.606 125.282C243.437 125.303 243.299 125.43 243.193 125.664C243.087 125.982 243.002 126.311 242.938 126.65C242.875 126.968 242.769 127.286 242.62 127.605C242.514 128.008 242.461 128.442 242.461 128.909C242.482 129.397 242.662 129.789 243.002 130.086C243.617 130.468 243.882 130.977 243.797 131.614C243.861 131.783 243.797 131.942 243.606 132.091C243.309 132.261 242.981 132.324 242.62 132.282C242.259 132.239 241.92 132.239 241.602 132.282C241.305 132.367 240.987 132.377 240.647 132.314C240.329 132.271 240.011 132.303 239.693 132.409C239.523 132.367 239.375 132.314 239.247 132.25C239.141 132.186 239.046 132.08 238.961 131.932C238.812 131.698 238.77 131.433 238.834 131.136C238.919 130.839 239.046 130.595 239.216 130.405C239.364 130.277 239.512 130.15 239.661 130.023C239.831 129.895 239.958 129.747 240.043 129.577C240.043 129.174 240.117 128.824 240.266 128.527C240.414 128.23 240.509 127.902 240.552 127.541C240.658 127.159 240.753 126.777 240.838 126.395C240.944 126.014 241.05 125.611 241.156 125.186C241.241 124.614 241.316 124.041 241.379 123.468C241.464 122.874 241.612 122.302 241.825 121.75C241.846 121.114 241.962 120.52 242.175 119.968C242.408 119.417 242.546 118.823 242.588 118.186C242.758 117.635 242.885 117.094 242.97 116.564C243.076 116.033 243.214 115.503 243.384 114.973C243.447 114.633 243.532 114.283 243.638 113.923C243.744 113.541 243.734 113.17 243.606 112.809C243.649 112.448 243.776 112.205 243.988 112.077C244.222 111.971 244.455 111.939 244.688 111.982C244.943 112.003 245.187 112.024 245.42 112.045ZM245.07 119.491C245.07 119.427 245.049 119.353 245.006 119.268C244.964 119.162 244.9 119.162 244.816 119.268C244.688 119.756 244.561 120.233 244.434 120.7C244.328 121.167 244.222 121.644 244.116 122.132C244.116 122.238 244.116 122.344 244.116 122.45C244.116 122.556 244.169 122.63 244.275 122.673C244.72 122.8 245.208 122.842 245.738 122.8C245.844 122.758 245.897 122.683 245.897 122.577C245.919 122.471 245.919 122.365 245.897 122.259C245.706 121.814 245.569 121.347 245.484 120.859C245.399 120.371 245.261 119.915 245.07 119.491ZM262.831 111.759C263.213 111.802 263.616 111.844 264.04 111.886C264.485 111.908 264.91 111.865 265.313 111.759C265.44 111.78 265.578 111.791 265.726 111.791C265.875 111.791 266.013 111.802 266.14 111.823C266.288 111.844 266.416 111.897 266.522 111.982C266.649 112.045 266.744 112.162 266.808 112.332C266.872 112.438 266.904 112.544 266.904 112.65C266.925 112.756 266.925 112.873 266.904 113C266.882 113.106 266.872 113.223 266.872 113.35C266.872 113.477 266.893 113.594 266.935 113.7C266.872 113.933 266.851 114.177 266.872 114.432C266.893 114.686 266.904 114.93 266.904 115.164C266.925 115.397 266.925 115.63 266.904 115.864C266.882 116.097 266.797 116.32 266.649 116.532C266.331 116.786 265.949 116.861 265.504 116.755C265.228 116.691 265.026 116.542 264.899 116.309C264.772 116.055 264.666 115.811 264.581 115.577C264.475 115.471 264.379 115.333 264.294 115.164C264.21 114.994 264.125 114.845 264.04 114.718C263.955 114.57 263.849 114.464 263.722 114.4C263.616 114.315 263.467 114.305 263.276 114.368C263.17 114.432 263.107 114.527 263.085 114.655C263.085 114.761 263.085 114.867 263.085 114.973C263.107 115.673 263.107 116.362 263.085 117.041C263.064 117.698 263.075 118.367 263.117 119.045C263.16 119.448 263.138 119.83 263.054 120.191C262.969 120.53 262.979 120.88 263.085 121.241C263.085 121.665 263.054 122.058 262.99 122.418C262.926 122.779 262.947 123.139 263.054 123.5C262.969 123.776 262.926 124.062 262.926 124.359C262.926 124.656 262.937 124.964 262.958 125.282C262.979 125.579 262.979 125.876 262.958 126.173C262.958 126.47 262.916 126.767 262.831 127.064C262.937 127.276 262.99 127.498 262.99 127.732C263.011 127.986 263.022 128.241 263.022 128.495C263.022 128.75 263.032 128.994 263.054 129.227C263.096 129.482 263.191 129.715 263.34 129.927C263.425 130.033 263.531 130.118 263.658 130.182C263.785 130.245 263.902 130.309 264.008 130.373C264.135 130.436 264.241 130.511 264.326 130.595C264.432 130.68 264.507 130.808 264.549 130.977C264.613 131.55 264.411 131.995 263.944 132.314C263.605 132.42 263.223 132.452 262.799 132.409C262.396 132.367 262.004 132.367 261.622 132.409C260.879 132.409 260.126 132.42 259.363 132.441C258.62 132.483 257.878 132.483 257.135 132.441C256.711 132.398 256.425 132.165 256.276 131.741C256.234 131.508 256.234 131.274 256.276 131.041C256.319 130.808 256.425 130.606 256.594 130.436C256.828 130.33 257.072 130.182 257.326 129.991C257.602 129.821 257.74 129.577 257.74 129.259C257.761 129.005 257.751 128.739 257.708 128.464C257.687 128.188 257.697 127.933 257.74 127.7C257.804 127.424 257.825 127.159 257.804 126.905C257.804 126.629 257.782 126.364 257.74 126.109C257.719 125.833 257.697 125.568 257.676 125.314C257.676 125.038 257.697 124.762 257.74 124.486C257.74 123.998 257.761 123.511 257.804 123.023C257.846 122.514 257.825 122.015 257.74 121.527C257.782 121.315 257.782 121.103 257.74 120.891C257.719 120.679 257.719 120.477 257.74 120.286C257.697 119.586 257.697 118.908 257.74 118.25C257.804 117.571 257.814 116.882 257.772 116.182V114.623C257.751 114.559 257.708 114.506 257.644 114.464C257.581 114.421 257.528 114.389 257.485 114.368C257.231 114.432 257.019 114.538 256.849 114.686C256.701 114.835 256.573 115.015 256.467 115.227C256.382 115.418 256.297 115.62 256.213 115.832C256.149 116.044 256.064 116.245 255.958 116.436C255.788 116.67 255.566 116.808 255.29 116.85C255.035 116.892 254.791 116.871 254.558 116.786C254.176 116.617 253.964 116.341 253.922 115.959C253.879 115.556 253.858 115.164 253.858 114.782C253.879 114.379 253.869 113.955 253.826 113.509C253.784 113.064 253.826 112.65 253.954 112.268C254.081 112.077 254.229 111.95 254.399 111.886C254.569 111.823 254.76 111.802 254.972 111.823C255.184 111.823 255.385 111.844 255.576 111.886C255.788 111.908 255.99 111.897 256.181 111.855C256.605 111.812 257.04 111.802 257.485 111.823C257.931 111.823 258.366 111.802 258.79 111.759C259.469 111.717 260.137 111.717 260.794 111.759C261.473 111.78 262.152 111.78 262.831 111.759ZM276.779 112.332C276.885 112.523 276.938 112.745 276.938 113C276.938 113.255 276.863 113.467 276.715 113.636C276.609 113.764 276.471 113.859 276.301 113.923C276.132 113.986 275.962 114.061 275.792 114.145C275.644 114.23 275.517 114.336 275.41 114.464C275.326 114.57 275.294 114.739 275.315 114.973C275.421 115.588 275.432 116.203 275.347 116.818C275.283 117.412 275.304 118.006 275.41 118.6C275.453 119.597 275.463 120.636 275.442 121.718C275.421 122.8 275.432 123.861 275.474 124.9C275.432 125.621 275.41 126.342 275.41 127.064C275.41 127.785 275.421 128.506 275.442 129.227C275.463 129.524 275.591 129.768 275.824 129.959C276.057 130.171 276.301 130.33 276.556 130.436C276.726 130.564 276.821 130.723 276.842 130.914C276.885 131.105 276.895 131.317 276.874 131.55C276.853 131.677 276.821 131.805 276.779 131.932C276.736 132.059 276.641 132.155 276.492 132.218C276.004 132.43 275.474 132.505 274.901 132.441C274.329 132.377 273.788 132.367 273.279 132.409C272.706 132.494 272.144 132.494 271.592 132.409C271.041 132.345 270.479 132.314 269.906 132.314C269.736 132.335 269.545 132.356 269.333 132.377C269.121 132.42 268.941 132.367 268.792 132.218C268.623 132.027 268.527 131.805 268.506 131.55C268.485 131.317 268.517 131.094 268.601 130.882C268.665 130.67 268.771 130.511 268.92 130.405C269.089 130.32 269.248 130.235 269.397 130.15C269.567 130.086 269.715 130.002 269.842 129.895C269.97 129.789 270.044 129.62 270.065 129.386C270.044 128.411 270.033 127.435 270.033 126.459C270.054 125.462 270.129 124.486 270.256 123.532C270.235 123.235 270.213 122.927 270.192 122.609C270.171 122.291 270.182 121.973 270.224 121.655C270.224 121.039 270.245 120.414 270.288 119.777C270.351 119.141 270.362 118.515 270.32 117.9C270.213 117.412 270.16 116.914 270.16 116.405C270.182 115.874 270.213 115.365 270.256 114.877C270.192 114.58 270.044 114.326 269.81 114.114C269.598 113.902 269.344 113.774 269.047 113.732C268.856 113.583 268.739 113.414 268.697 113.223C268.654 113.032 268.654 112.83 268.697 112.618C268.803 112.385 268.962 112.236 269.174 112.173C269.407 112.088 269.641 112.035 269.874 112.014C270.659 112.056 271.444 112.045 272.229 111.982C273.035 111.918 273.809 111.929 274.551 112.014C274.721 111.992 274.912 111.961 275.124 111.918C275.336 111.876 275.538 111.855 275.729 111.855C275.941 111.855 276.132 111.897 276.301 111.982C276.492 112.045 276.651 112.162 276.779 112.332ZM285.627 111.982C285.86 111.982 286.072 112.024 286.263 112.109C286.475 112.194 286.645 112.332 286.772 112.523C286.836 112.671 286.878 112.83 286.9 113C286.942 113.148 286.91 113.297 286.804 113.445C286.74 113.615 286.634 113.753 286.486 113.859C286.337 113.944 286.189 114.029 286.04 114.114C285.892 114.177 285.743 114.262 285.595 114.368C285.468 114.453 285.383 114.591 285.34 114.782C285.34 115.312 285.436 115.8 285.627 116.245C285.818 116.691 285.966 117.168 286.072 117.677C286.2 118.038 286.295 118.409 286.359 118.791C286.422 119.173 286.56 119.533 286.772 119.873C286.857 120.339 286.974 120.785 287.122 121.209C287.292 121.633 287.419 122.089 287.504 122.577C287.568 122.705 287.61 122.853 287.631 123.023C287.653 123.171 287.748 123.267 287.918 123.309C288.13 123.076 288.236 122.811 288.236 122.514C288.236 122.195 288.257 121.867 288.3 121.527C288.554 120.679 288.777 119.83 288.968 118.982C289.18 118.112 289.403 117.264 289.636 116.436C289.636 116.267 289.657 116.076 289.7 115.864C289.763 115.652 289.795 115.45 289.795 115.259C289.816 115.047 289.795 114.856 289.731 114.686C289.668 114.517 289.53 114.379 289.318 114.273C289.084 114.188 288.862 114.061 288.65 113.891C288.437 113.721 288.31 113.509 288.268 113.255C288.268 113.021 288.3 112.798 288.363 112.586C288.448 112.374 288.607 112.215 288.84 112.109C289.371 112.003 289.922 111.939 290.495 111.918C291.068 111.876 291.63 111.865 292.181 111.886C292.521 111.929 292.871 111.95 293.231 111.95C293.592 111.95 293.868 112.12 294.059 112.459C294.101 112.756 294.112 113.064 294.09 113.382C294.069 113.679 293.942 113.923 293.709 114.114C293.284 114.347 292.966 114.665 292.754 115.068C292.563 115.45 292.425 115.853 292.34 116.277C292.043 116.871 291.821 117.508 291.672 118.186C291.545 118.844 291.386 119.502 291.195 120.159C291.025 120.583 290.919 121.05 290.877 121.559C290.834 122.047 290.697 122.471 290.463 122.832C290.357 123.511 290.156 124.147 289.859 124.741C289.583 125.335 289.381 125.961 289.254 126.618C289.148 127.191 289.031 127.764 288.904 128.336C288.798 128.93 288.66 129.503 288.49 130.055C288.49 130.352 288.427 130.617 288.3 130.85C288.193 131.105 288.066 131.348 287.918 131.582C287.875 131.688 287.833 131.794 287.79 131.9C287.769 132.006 287.706 132.08 287.6 132.123C287.387 132.229 287.143 132.292 286.868 132.314C286.613 132.356 286.359 132.356 286.104 132.314C285.871 132.314 285.637 132.292 285.404 132.25C285.192 132.208 285.033 132.07 284.927 131.836C284.736 131.539 284.619 131.2 284.577 130.818C284.556 130.458 284.439 130.118 284.227 129.8C284.1 129.567 284.004 129.302 283.94 129.005C283.898 128.729 283.792 128.453 283.622 128.177C283.601 127.753 283.506 127.35 283.336 126.968C283.166 126.586 283.071 126.162 283.05 125.695C282.901 125.505 282.795 125.292 282.731 125.059C282.689 124.826 282.647 124.592 282.604 124.359C282.583 124.105 282.551 123.861 282.509 123.627C282.487 123.394 282.413 123.171 282.286 122.959C282.116 122.705 282.01 122.429 281.968 122.132C281.947 121.814 281.851 121.517 281.681 121.241C281.66 120.923 281.607 120.626 281.522 120.35C281.459 120.053 281.374 119.767 281.268 119.491C281.183 119.215 281.087 118.939 280.981 118.664C280.897 118.367 280.822 118.07 280.759 117.773C280.631 117.285 280.483 116.818 280.313 116.373C280.143 115.906 279.974 115.429 279.804 114.941C279.677 114.771 279.518 114.623 279.327 114.495C279.157 114.347 278.987 114.198 278.818 114.05C278.669 113.88 278.553 113.7 278.468 113.509C278.383 113.318 278.372 113.085 278.436 112.809C278.478 112.639 278.553 112.47 278.659 112.3C278.786 112.13 278.934 112.024 279.104 111.982C279.74 111.918 280.387 111.897 281.045 111.918C281.724 111.918 282.371 111.95 282.986 112.014C283.41 111.886 283.845 111.865 284.29 111.95C284.757 112.014 285.203 112.024 285.627 111.982ZM307.219 111.759C307.453 111.759 307.675 111.78 307.888 111.823C308.1 111.844 308.269 111.971 308.397 112.205L308.492 112.523C308.492 113.202 308.503 113.88 308.524 114.559C308.545 115.217 308.503 115.885 308.397 116.564C308.312 116.733 308.185 116.85 308.015 116.914C307.866 116.977 307.707 117.009 307.538 117.009C307.241 117.009 306.944 116.998 306.647 116.977C306.35 116.956 306.095 116.829 305.883 116.595C305.756 116.426 305.629 116.235 305.501 116.023C305.374 115.789 305.236 115.577 305.088 115.386C304.939 115.174 304.78 114.994 304.61 114.845C304.441 114.697 304.229 114.591 303.974 114.527C303.762 114.464 303.539 114.4 303.306 114.336C303.072 114.252 302.85 114.273 302.638 114.4L302.51 114.591C302.532 115.312 302.51 116.044 302.447 116.786C302.383 117.529 302.404 118.239 302.51 118.918L302.415 120.223C302.457 120.265 302.51 120.318 302.574 120.382C302.638 120.445 302.712 120.488 302.797 120.509C303.094 120.467 303.369 120.392 303.624 120.286C303.9 120.159 304.122 119.979 304.292 119.745C304.377 119.597 304.451 119.438 304.515 119.268C304.6 119.077 304.685 118.908 304.769 118.759C304.854 118.589 304.96 118.441 305.088 118.314C305.215 118.186 305.395 118.112 305.629 118.091C305.819 118.091 306.01 118.112 306.201 118.155C306.392 118.176 306.541 118.303 306.647 118.536C306.732 118.897 306.763 119.236 306.742 119.555C306.721 119.873 306.753 120.212 306.838 120.573C306.732 121.018 306.7 121.464 306.742 121.909C306.806 122.355 306.827 122.8 306.806 123.245C306.869 123.521 306.891 123.786 306.869 124.041C306.848 124.274 306.838 124.539 306.838 124.836C306.816 125.006 306.732 125.144 306.583 125.25C306.456 125.335 306.318 125.398 306.169 125.441C305.851 125.483 305.565 125.473 305.31 125.409C305.056 125.324 304.844 125.133 304.674 124.836C304.568 124.709 304.494 124.571 304.451 124.423C304.409 124.253 304.366 124.094 304.324 123.945C304.282 123.776 304.207 123.627 304.101 123.5C304.016 123.373 303.879 123.267 303.688 123.182C303.603 123.161 303.518 123.129 303.433 123.086C303.348 123.023 303.253 122.98 303.147 122.959C303.062 122.917 302.966 122.906 302.86 122.927C302.775 122.927 302.691 122.98 302.606 123.086C302.479 123.341 302.404 123.617 302.383 123.914C302.362 124.189 302.351 124.476 302.351 124.773C302.372 125.07 302.383 125.367 302.383 125.664C302.404 125.961 302.372 126.247 302.288 126.523C302.351 127.074 302.383 127.636 302.383 128.209C302.383 128.782 302.5 129.312 302.733 129.8C302.818 129.885 302.903 129.97 302.988 130.055C303.072 130.161 303.168 130.224 303.274 130.245C303.825 130.245 304.313 130.033 304.738 129.609C305.162 129.206 305.459 128.761 305.629 128.273C305.756 128.145 305.851 127.997 305.915 127.827C305.979 127.658 306.032 127.488 306.074 127.318C306.138 127.17 306.212 127.021 306.297 126.873C306.403 126.724 306.562 126.608 306.774 126.523C307.029 126.374 307.325 126.311 307.665 126.332C308.025 126.332 308.333 126.427 308.588 126.618C308.8 126.788 308.927 126.979 308.969 127.191C309.012 127.424 309.012 127.658 308.969 127.891C308.948 128.145 308.906 128.389 308.842 128.623C308.8 128.877 308.789 129.121 308.81 129.355C308.81 129.715 308.768 130.076 308.683 130.436C308.598 130.797 308.577 131.189 308.619 131.614C308.577 131.741 308.535 131.868 308.492 131.995C308.45 132.144 308.354 132.25 308.206 132.314C307.845 132.441 307.453 132.483 307.029 132.441C306.625 132.398 306.244 132.356 305.883 132.314C305.332 132.356 304.78 132.367 304.229 132.345C303.677 132.324 303.125 132.345 302.574 132.409C302.15 132.43 301.757 132.388 301.397 132.282C301.057 132.197 300.686 132.208 300.283 132.314C299.668 132.208 299.042 132.208 298.406 132.314C298.215 132.42 298.003 132.462 297.769 132.441C297.536 132.42 297.303 132.409 297.069 132.409C296.815 132.409 296.55 132.409 296.274 132.409C295.998 132.409 295.786 132.261 295.638 131.964C295.532 131.794 295.489 131.571 295.51 131.295C295.553 131.041 295.627 130.829 295.733 130.659C295.818 130.532 295.924 130.426 296.051 130.341C296.2 130.256 296.338 130.171 296.465 130.086C296.592 130.023 296.709 129.938 296.815 129.832C296.921 129.747 296.995 129.62 297.038 129.45C297.08 128.962 297.08 128.485 297.038 128.018C297.016 127.552 297.059 127.085 297.165 126.618C297.122 126.13 297.08 125.653 297.038 125.186C297.016 124.72 297.027 124.242 297.069 123.755C297.069 121.676 297.101 119.629 297.165 117.614C297.122 117.232 297.101 116.85 297.101 116.468C297.122 116.086 297.165 115.705 297.229 115.323C297.165 115.068 297.112 114.803 297.069 114.527C297.027 114.23 296.847 114.029 296.529 113.923C296.38 113.859 296.232 113.774 296.083 113.668C295.956 113.562 295.85 113.435 295.765 113.286C295.701 113.074 295.691 112.883 295.733 112.714C295.797 112.523 295.882 112.353 295.988 112.205C296.115 112.077 296.253 112.003 296.401 111.982C296.571 111.939 296.741 111.918 296.91 111.918C297.101 111.897 297.282 111.886 297.451 111.886C297.621 111.865 297.78 111.823 297.929 111.759C298.48 111.78 299.032 111.78 299.583 111.759C300.156 111.717 300.718 111.727 301.269 111.791C301.757 111.706 302.245 111.695 302.733 111.759C303.242 111.802 303.741 111.791 304.229 111.727C304.738 111.77 305.236 111.791 305.724 111.791C306.212 111.77 306.71 111.759 307.219 111.759ZM196.682 143.95C197 143.971 197.318 143.992 197.636 144.014C197.976 144.035 198.241 144.205 198.432 144.523C198.495 144.671 198.527 144.852 198.527 145.064C198.548 145.255 198.506 145.414 198.4 145.541C198.294 145.668 198.177 145.774 198.05 145.859C197.923 145.923 197.795 145.997 197.668 146.082C197.541 146.167 197.424 146.262 197.318 146.368C197.212 146.474 197.148 146.612 197.127 146.782C197.106 147.248 197.064 147.705 197 148.15C196.958 148.574 196.968 149.02 197.032 149.486C197.117 149.826 197.138 150.176 197.095 150.536C197.074 150.876 197.117 151.215 197.223 151.555C197.286 151.661 197.361 151.671 197.445 151.586C197.933 151.014 198.358 150.43 198.718 149.836C199.079 149.221 199.492 148.617 199.959 148.023C200.002 147.917 200.065 147.811 200.15 147.705C200.235 147.577 200.309 147.45 200.373 147.323C200.436 147.195 200.468 147.068 200.468 146.941C200.468 146.792 200.426 146.644 200.341 146.495C200.214 146.368 200.076 146.241 199.927 146.114C199.8 145.965 199.683 145.827 199.577 145.7C199.471 145.552 199.397 145.392 199.355 145.223C199.312 145.053 199.323 144.873 199.386 144.682C199.429 144.533 199.503 144.406 199.609 144.3C199.736 144.173 199.885 144.098 200.055 144.077C200.67 144.098 201.295 144.109 201.932 144.109C202.568 144.088 203.194 144.045 203.809 143.982C204 144.003 204.191 144.003 204.382 143.982C204.594 143.961 204.795 143.961 204.986 143.982C205.177 143.982 205.347 144.024 205.495 144.109C205.665 144.173 205.803 144.3 205.909 144.491C205.973 144.661 206.015 144.841 206.036 145.032C206.058 145.223 206.015 145.392 205.909 145.541C205.591 145.838 205.22 146.071 204.795 146.241C204.392 146.389 204.042 146.655 203.745 147.036C203.47 147.461 203.183 147.874 202.886 148.277C202.611 148.659 202.324 149.062 202.027 149.486C201.815 149.911 201.539 150.303 201.2 150.664C200.861 151.024 200.638 151.427 200.532 151.873C200.532 152.191 200.606 152.467 200.755 152.7C200.903 152.933 201.03 153.188 201.136 153.464C201.433 153.888 201.656 154.355 201.805 154.864C201.974 155.352 202.208 155.797 202.505 156.2C202.547 156.497 202.632 156.783 202.759 157.059C202.886 157.335 203.024 157.6 203.173 157.855C203.342 158.109 203.502 158.374 203.65 158.65C203.82 158.905 203.968 159.17 204.095 159.445C204.244 159.742 204.392 160.039 204.541 160.336C204.711 160.633 204.933 160.898 205.209 161.132C205.315 161.365 205.464 161.545 205.655 161.673C205.867 161.8 206.036 161.98 206.164 162.214C206.291 162.32 206.439 162.415 206.609 162.5C206.779 162.585 206.874 162.723 206.895 162.914C206.938 163.105 206.948 163.295 206.927 163.486C206.906 163.698 206.811 163.868 206.641 163.995C206.408 164.144 206.153 164.239 205.877 164.282C205.602 164.324 205.326 164.345 205.05 164.345C204.774 164.345 204.488 164.335 204.191 164.314C203.915 164.314 203.639 164.345 203.364 164.409C203.152 164.367 202.918 164.345 202.664 164.345C202.43 164.367 202.186 164.367 201.932 164.345C201.698 164.345 201.486 164.303 201.295 164.218C201.105 164.133 200.945 163.974 200.818 163.741C200.521 163.232 200.267 162.712 200.055 162.182C199.842 161.673 199.62 161.142 199.386 160.591C199.005 160.018 198.665 159.424 198.368 158.809C198.092 158.173 197.753 157.579 197.35 157.027C197.286 156.942 197.233 156.932 197.191 156.995C197.17 157.059 197.148 157.112 197.127 157.155C197 157.685 196.968 158.215 197.032 158.745C197.117 159.276 197.106 159.817 197 160.368C197.021 160.665 197.032 160.973 197.032 161.291C197.032 161.609 197.18 161.864 197.477 162.055C197.562 162.161 197.668 162.245 197.795 162.309C197.944 162.373 198.082 162.447 198.209 162.532C198.336 162.617 198.442 162.712 198.527 162.818C198.633 162.945 198.686 163.094 198.686 163.264C198.75 163.73 198.58 164.08 198.177 164.314C197.88 164.398 197.583 164.441 197.286 164.441C196.989 164.462 196.692 164.462 196.395 164.441C196.098 164.42 195.791 164.398 195.473 164.377C195.176 164.377 194.879 164.388 194.582 164.409C193.988 164.367 193.405 164.367 192.832 164.409C192.259 164.452 191.665 164.452 191.05 164.409C190.944 164.367 190.827 164.314 190.7 164.25C190.573 164.186 190.477 164.08 190.414 163.932C190.308 163.741 190.276 163.529 190.318 163.295C190.382 163.062 190.467 162.871 190.573 162.723C190.658 162.574 190.774 162.458 190.923 162.373C191.071 162.288 191.209 162.203 191.336 162.118C191.464 162.055 191.58 161.97 191.686 161.864C191.792 161.758 191.867 161.62 191.909 161.45C191.909 161.026 191.92 160.591 191.941 160.145C191.983 159.721 191.962 159.297 191.877 158.873C191.835 158.448 191.824 158.024 191.845 157.6C191.867 157.176 191.867 156.73 191.845 156.264C191.909 155.924 191.93 155.564 191.909 155.182C191.909 154.8 191.909 154.429 191.909 154.068C191.867 153.538 191.835 153.018 191.814 152.509C191.814 151.979 191.835 151.47 191.877 150.982C191.92 150.282 191.909 149.603 191.845 148.945C191.803 148.288 191.803 147.62 191.845 146.941C191.803 146.686 191.697 146.495 191.527 146.368C191.379 146.241 191.209 146.135 191.018 146.05C190.827 145.944 190.658 145.827 190.509 145.7C190.361 145.552 190.286 145.35 190.286 145.095C190.265 144.905 190.276 144.724 190.318 144.555C190.382 144.364 190.498 144.215 190.668 144.109C190.902 143.961 191.156 143.918 191.432 143.982C191.708 144.024 191.983 144.014 192.259 143.95C192.683 143.971 193.086 143.971 193.468 143.95C193.871 143.908 194.285 143.918 194.709 143.982C195.006 143.876 195.324 143.844 195.664 143.886C196.024 143.929 196.364 143.95 196.682 143.95ZM216.532 144.332C216.638 144.523 216.691 144.745 216.691 145C216.691 145.255 216.616 145.467 216.468 145.636C216.362 145.764 216.224 145.859 216.054 145.923C215.885 145.986 215.715 146.061 215.545 146.145C215.397 146.23 215.27 146.336 215.163 146.464C215.079 146.57 215.047 146.739 215.068 146.973C215.174 147.588 215.185 148.203 215.1 148.818C215.036 149.412 215.057 150.006 215.163 150.6C215.206 151.597 215.216 152.636 215.195 153.718C215.174 154.8 215.185 155.861 215.227 156.9C215.185 157.621 215.163 158.342 215.163 159.064C215.163 159.785 215.174 160.506 215.195 161.227C215.216 161.524 215.344 161.768 215.577 161.959C215.81 162.171 216.054 162.33 216.309 162.436C216.479 162.564 216.574 162.723 216.595 162.914C216.638 163.105 216.648 163.317 216.627 163.55C216.606 163.677 216.574 163.805 216.532 163.932C216.489 164.059 216.394 164.155 216.245 164.218C215.757 164.43 215.227 164.505 214.654 164.441C214.082 164.377 213.541 164.367 213.032 164.409C212.459 164.494 211.897 164.494 211.345 164.409C210.794 164.345 210.232 164.314 209.659 164.314C209.489 164.335 209.298 164.356 209.086 164.377C208.874 164.42 208.694 164.367 208.545 164.218C208.376 164.027 208.28 163.805 208.259 163.55C208.238 163.317 208.27 163.094 208.354 162.882C208.418 162.67 208.524 162.511 208.673 162.405C208.842 162.32 209.001 162.235 209.15 162.15C209.32 162.086 209.468 162.002 209.595 161.895C209.723 161.789 209.797 161.62 209.818 161.386C209.797 160.411 209.786 159.435 209.786 158.459C209.807 157.462 209.882 156.486 210.009 155.532C209.988 155.235 209.966 154.927 209.945 154.609C209.924 154.291 209.935 153.973 209.977 153.655C209.977 153.039 209.998 152.414 210.041 151.777C210.104 151.141 210.115 150.515 210.073 149.9C209.966 149.412 209.913 148.914 209.913 148.405C209.935 147.874 209.966 147.365 210.009 146.877C209.945 146.58 209.797 146.326 209.563 146.114C209.351 145.902 209.097 145.774 208.8 145.732C208.609 145.583 208.492 145.414 208.45 145.223C208.407 145.032 208.407 144.83 208.45 144.618C208.556 144.385 208.715 144.236 208.927 144.173C209.16 144.088 209.394 144.035 209.627 144.014C210.412 144.056 211.197 144.045 211.982 143.982C212.788 143.918 213.562 143.929 214.304 144.014C214.474 143.992 214.665 143.961 214.877 143.918C215.089 143.876 215.291 143.855 215.482 143.855C215.694 143.855 215.885 143.897 216.054 143.982C216.245 144.045 216.404 144.162 216.532 144.332ZM227.13 143.759C227.512 143.802 227.915 143.844 228.339 143.886C228.784 143.908 229.209 143.865 229.612 143.759C229.739 143.78 229.877 143.791 230.025 143.791C230.174 143.791 230.312 143.802 230.439 143.823C230.587 143.844 230.715 143.897 230.821 143.982C230.948 144.045 231.043 144.162 231.107 144.332C231.171 144.438 231.203 144.544 231.203 144.65C231.224 144.756 231.224 144.873 231.203 145C231.181 145.106 231.171 145.223 231.171 145.35C231.171 145.477 231.192 145.594 231.234 145.7C231.171 145.933 231.15 146.177 231.171 146.432C231.192 146.686 231.203 146.93 231.203 147.164C231.224 147.397 231.224 147.63 231.203 147.864C231.181 148.097 231.096 148.32 230.948 148.532C230.63 148.786 230.248 148.861 229.803 148.755C229.527 148.691 229.325 148.542 229.198 148.309C229.071 148.055 228.965 147.811 228.88 147.577C228.774 147.471 228.678 147.333 228.593 147.164C228.509 146.994 228.424 146.845 228.339 146.718C228.254 146.57 228.148 146.464 228.021 146.4C227.915 146.315 227.766 146.305 227.575 146.368C227.469 146.432 227.406 146.527 227.384 146.655C227.384 146.761 227.384 146.867 227.384 146.973C227.406 147.673 227.406 148.362 227.384 149.041C227.363 149.698 227.374 150.367 227.416 151.045C227.459 151.448 227.437 151.83 227.353 152.191C227.268 152.53 227.278 152.88 227.384 153.241C227.384 153.665 227.353 154.058 227.289 154.418C227.225 154.779 227.246 155.139 227.353 155.5C227.268 155.776 227.225 156.062 227.225 156.359C227.225 156.656 227.236 156.964 227.257 157.282C227.278 157.579 227.278 157.876 227.257 158.173C227.257 158.47 227.215 158.767 227.13 159.064C227.236 159.276 227.289 159.498 227.289 159.732C227.31 159.986 227.321 160.241 227.321 160.495C227.321 160.75 227.331 160.994 227.353 161.227C227.395 161.482 227.49 161.715 227.639 161.927C227.724 162.033 227.83 162.118 227.957 162.182C228.084 162.245 228.201 162.309 228.307 162.373C228.434 162.436 228.54 162.511 228.625 162.595C228.731 162.68 228.806 162.808 228.848 162.977C228.912 163.55 228.71 163.995 228.243 164.314C227.904 164.42 227.522 164.452 227.098 164.409C226.695 164.367 226.303 164.367 225.921 164.409C225.178 164.409 224.425 164.42 223.662 164.441C222.919 164.483 222.177 164.483 221.434 164.441C221.01 164.398 220.724 164.165 220.575 163.741C220.533 163.508 220.533 163.274 220.575 163.041C220.618 162.808 220.724 162.606 220.893 162.436C221.127 162.33 221.371 162.182 221.625 161.991C221.901 161.821 222.039 161.577 222.039 161.259C222.06 161.005 222.05 160.739 222.007 160.464C221.986 160.188 221.996 159.933 222.039 159.7C222.103 159.424 222.124 159.159 222.103 158.905C222.103 158.629 222.081 158.364 222.039 158.109C222.018 157.833 221.996 157.568 221.975 157.314C221.975 157.038 221.996 156.762 222.039 156.486C222.039 155.998 222.06 155.511 222.103 155.023C222.145 154.514 222.124 154.015 222.039 153.527C222.081 153.315 222.081 153.103 222.039 152.891C222.018 152.679 222.018 152.477 222.039 152.286C221.996 151.586 221.996 150.908 222.039 150.25C222.103 149.571 222.113 148.882 222.071 148.182V146.623C222.05 146.559 222.007 146.506 221.943 146.464C221.88 146.421 221.827 146.389 221.784 146.368C221.53 146.432 221.318 146.538 221.148 146.686C221 146.835 220.872 147.015 220.766 147.227C220.681 147.418 220.596 147.62 220.512 147.832C220.448 148.044 220.363 148.245 220.257 148.436C220.087 148.67 219.865 148.808 219.589 148.85C219.334 148.892 219.09 148.871 218.857 148.786C218.475 148.617 218.263 148.341 218.221 147.959C218.178 147.556 218.157 147.164 218.157 146.782C218.178 146.379 218.168 145.955 218.125 145.509C218.083 145.064 218.125 144.65 218.253 144.268C218.38 144.077 218.528 143.95 218.698 143.886C218.868 143.823 219.059 143.802 219.271 143.823C219.483 143.823 219.684 143.844 219.875 143.886C220.087 143.908 220.289 143.897 220.48 143.855C220.904 143.812 221.339 143.802 221.784 143.823C222.23 143.823 222.665 143.802 223.089 143.759C223.768 143.717 224.436 143.717 225.093 143.759C225.772 143.78 226.451 143.78 227.13 143.759ZM244.387 144.109C244.535 144.13 244.662 144.183 244.769 144.268C244.896 144.332 245.034 144.385 245.182 144.427C245.416 144.555 245.628 144.724 245.819 144.936C246.031 145.127 246.19 145.361 246.296 145.636C246.359 146.294 246.359 146.952 246.296 147.609C246.253 148.267 246.211 148.914 246.169 149.55C246.126 149.635 246.084 149.73 246.041 149.836C245.999 149.921 245.925 149.985 245.819 150.027C245.585 150.112 245.331 150.144 245.055 150.123C244.8 150.102 244.588 150.006 244.419 149.836C244.058 149.412 243.846 148.924 243.782 148.373C243.612 147.885 243.39 147.386 243.114 146.877C242.838 146.368 242.414 146.018 241.841 145.827C241.587 145.721 241.3 145.689 240.982 145.732C240.664 145.753 240.399 145.859 240.187 146.05L239.646 146.75C239.625 147.047 239.572 147.333 239.487 147.609C239.423 147.885 239.349 148.161 239.264 148.436C239.2 148.691 239.137 148.956 239.073 149.232C239.031 149.508 239.02 149.794 239.041 150.091C239.062 150.558 239.02 151.003 238.914 151.427C238.808 151.83 238.787 152.244 238.85 152.668C238.85 153.432 238.84 154.195 238.819 154.959C238.797 155.702 238.829 156.444 238.914 157.186C238.935 157.886 239.009 158.555 239.137 159.191C239.264 159.827 239.402 160.474 239.55 161.132C239.678 161.45 239.89 161.747 240.187 162.023C240.484 162.32 240.802 162.489 241.141 162.532C241.841 162.532 242.393 162.245 242.796 161.673C242.966 161.227 243.156 160.803 243.369 160.4C243.602 160.018 243.75 159.583 243.814 159.095C243.878 158.947 243.931 158.788 243.973 158.618C244.037 158.448 244.1 158.3 244.164 158.173C244.249 158.024 244.355 157.908 244.482 157.823C244.609 157.717 244.779 157.664 244.991 157.664C245.246 157.664 245.5 157.674 245.755 157.695C246.031 157.695 246.232 157.833 246.359 158.109C246.466 158.47 246.497 158.852 246.455 159.255C246.412 159.658 246.455 160.039 246.582 160.4C246.519 160.697 246.508 160.994 246.55 161.291C246.593 161.609 246.614 161.917 246.614 162.214C246.635 162.511 246.603 162.786 246.519 163.041C246.434 163.295 246.232 163.508 245.914 163.677C245.362 164.038 244.747 164.282 244.069 164.409C243.411 164.558 242.743 164.695 242.064 164.823C241.703 164.78 241.343 164.791 240.982 164.855C240.622 164.918 240.261 164.897 239.9 164.791C239.667 164.664 239.412 164.568 239.137 164.505C238.882 164.462 238.628 164.409 238.373 164.345C238.119 164.282 237.864 164.208 237.609 164.123C237.355 164.038 237.122 163.911 236.909 163.741C236.443 163.38 235.997 162.998 235.573 162.595C235.149 162.214 234.82 161.768 234.587 161.259C234.226 160.771 233.972 160.23 233.823 159.636C233.675 159.064 233.516 158.491 233.346 157.918C233.282 157.07 233.176 156.232 233.028 155.405C232.879 154.577 232.847 153.718 232.932 152.827C232.975 152.276 233.059 151.756 233.187 151.268C233.335 150.759 233.452 150.239 233.537 149.709C233.579 149.582 233.632 149.465 233.696 149.359C233.759 149.253 233.834 149.136 233.919 149.009C233.961 148.564 234.088 148.15 234.3 147.768C234.512 147.365 234.714 146.973 234.905 146.591C235.202 146.145 235.552 145.753 235.955 145.414C236.358 145.053 236.772 144.724 237.196 144.427C237.556 144.321 237.896 144.183 238.214 144.014C238.532 143.823 238.872 143.706 239.232 143.664C239.593 143.621 239.953 143.558 240.314 143.473C240.696 143.388 241.078 143.388 241.459 143.473C241.969 143.515 242.478 143.558 242.987 143.6C243.496 143.642 243.962 143.812 244.387 144.109ZM264.293 143.886C264.717 143.95 265.036 144.13 265.248 144.427C265.375 144.639 265.417 144.873 265.375 145.127C265.333 145.361 265.237 145.573 265.089 145.764C264.855 145.933 264.601 146.103 264.325 146.273C264.049 146.442 263.901 146.708 263.88 147.068C263.837 147.238 263.827 147.429 263.848 147.641C263.869 147.832 263.88 148.012 263.88 148.182C263.816 148.924 263.816 149.677 263.88 150.441C263.943 151.183 263.954 151.926 263.911 152.668C263.805 152.859 263.774 153.061 263.816 153.273C263.858 153.485 263.89 153.697 263.911 153.909C263.933 154.545 263.911 155.192 263.848 155.85C263.784 156.508 263.805 157.165 263.911 157.823C263.89 158.438 263.858 159.053 263.816 159.668C263.795 160.283 263.837 160.888 263.943 161.482C263.986 161.694 264.081 161.853 264.23 161.959C264.378 162.086 264.527 162.192 264.675 162.277C264.845 162.383 264.983 162.489 265.089 162.595C265.216 162.723 265.28 162.903 265.28 163.136C265.301 163.327 265.301 163.518 265.28 163.709C265.258 163.9 265.184 164.059 265.057 164.186C264.972 164.292 264.866 164.356 264.739 164.377C264.611 164.42 264.474 164.441 264.325 164.441C263.264 164.42 262.214 164.409 261.175 164.409C260.157 164.409 259.128 164.409 258.089 164.409C257.898 164.367 257.739 164.271 257.611 164.123C257.484 163.974 257.42 163.815 257.42 163.645C257.378 163.37 257.389 163.115 257.452 162.882C257.516 162.67 257.664 162.479 257.898 162.309C258.343 162.033 258.619 161.683 258.725 161.259C258.683 160.602 258.63 159.944 258.566 159.286C258.524 158.629 258.555 157.971 258.661 157.314C258.704 157.186 258.714 157.048 258.693 156.9C258.672 156.73 258.661 156.582 258.661 156.455C258.661 156.221 258.651 155.998 258.63 155.786C258.63 155.553 258.524 155.383 258.311 155.277C257.993 155.171 257.643 155.129 257.261 155.15C256.88 155.171 256.519 155.15 256.18 155.086C256.052 155.108 255.936 155.129 255.83 155.15C255.724 155.15 255.628 155.203 255.543 155.309C255.374 155.585 255.32 155.882 255.384 156.2C255.448 156.518 255.469 156.836 255.448 157.155C255.469 157.812 255.469 158.47 255.448 159.127C255.448 159.785 255.427 160.453 255.384 161.132C255.427 161.429 255.533 161.705 255.702 161.959C255.893 162.235 256.127 162.436 256.402 162.564C256.678 162.882 256.784 163.264 256.72 163.709C256.678 163.815 256.625 163.911 256.561 163.995C256.498 164.08 256.424 164.155 256.339 164.218C255.851 164.367 255.342 164.409 254.811 164.345C254.281 164.282 253.772 164.271 253.284 164.314C252.669 164.42 252.054 164.452 251.439 164.409C250.845 164.367 250.23 164.367 249.593 164.409C249.424 164.367 249.254 164.303 249.084 164.218C248.936 164.155 248.84 164.027 248.798 163.836C248.777 163.645 248.734 163.455 248.67 163.264C248.628 163.094 248.66 162.924 248.766 162.755C248.872 162.627 249.01 162.521 249.18 162.436C249.349 162.373 249.508 162.298 249.657 162.214C249.805 162.129 249.933 162.023 250.039 161.895C250.145 161.768 250.198 161.598 250.198 161.386V160.782C250.219 159.933 250.208 159.064 250.166 158.173C250.145 157.261 250.166 156.37 250.23 155.5C250.166 155.012 250.155 154.524 250.198 154.036C250.261 153.548 250.272 153.061 250.23 152.573C250.208 152.276 250.219 151.979 250.261 151.682C250.325 151.385 250.314 151.088 250.23 150.791C250.293 150.621 250.314 150.462 250.293 150.314C250.272 150.144 250.24 149.985 250.198 149.836C250.177 149.688 250.155 149.539 250.134 149.391C250.134 149.221 250.166 149.052 250.23 148.882C250.208 148.458 250.208 148.044 250.23 147.641C250.251 147.238 250.208 146.824 250.102 146.4C249.996 146.252 249.869 146.145 249.72 146.082C249.572 145.997 249.424 145.923 249.275 145.859C249.148 145.795 249.02 145.721 248.893 145.636C248.787 145.53 248.724 145.371 248.702 145.159C248.702 144.926 248.724 144.714 248.766 144.523C248.83 144.332 248.978 144.183 249.211 144.077C249.89 143.929 250.601 143.886 251.343 143.95C252.086 144.014 252.807 144.014 253.507 143.95C253.931 143.992 254.355 143.992 254.78 143.95C255.225 143.908 255.67 143.918 256.116 143.982C256.286 144.024 256.434 144.12 256.561 144.268C256.71 144.395 256.795 144.544 256.816 144.714C256.837 144.947 256.805 145.18 256.72 145.414C256.657 145.626 256.508 145.817 256.275 145.986C255.914 146.177 255.681 146.442 255.575 146.782C255.49 147.1 255.448 147.45 255.448 147.832C255.448 148.214 255.458 148.606 255.48 149.009C255.522 149.391 255.501 149.741 255.416 150.059C255.458 150.483 255.448 150.897 255.384 151.3C255.342 151.682 255.342 152.085 255.384 152.509C255.448 152.679 255.554 152.774 255.702 152.795C255.851 152.795 255.999 152.806 256.148 152.827L258.12 152.7C258.248 152.658 258.364 152.605 258.47 152.541C258.598 152.456 258.651 152.339 258.63 152.191C258.651 151.555 258.63 150.929 258.566 150.314C258.524 149.698 258.524 149.073 258.566 148.436C258.608 148.055 258.619 147.641 258.598 147.195C258.598 146.729 258.407 146.379 258.025 146.145C257.855 146.039 257.696 145.923 257.548 145.795C257.42 145.647 257.357 145.477 257.357 145.286C257.336 145.053 257.346 144.82 257.389 144.586C257.431 144.332 257.558 144.141 257.77 144.014C257.919 143.908 258.078 143.876 258.248 143.918C258.439 143.939 258.619 143.918 258.789 143.855C259.743 143.855 260.666 143.876 261.557 143.918C262.448 143.961 263.36 143.95 264.293 143.886ZM278.82 143.759C279.054 143.759 279.277 143.78 279.489 143.823C279.701 143.844 279.87 143.971 279.998 144.205L280.093 144.523C280.093 145.202 280.104 145.88 280.125 146.559C280.146 147.217 280.104 147.885 279.998 148.564C279.913 148.733 279.786 148.85 279.616 148.914C279.467 148.977 279.308 149.009 279.139 149.009C278.842 149.009 278.545 148.998 278.248 148.977C277.951 148.956 277.696 148.829 277.484 148.595C277.357 148.426 277.23 148.235 277.102 148.023C276.975 147.789 276.837 147.577 276.689 147.386C276.54 147.174 276.381 146.994 276.211 146.845C276.042 146.697 275.83 146.591 275.575 146.527C275.363 146.464 275.14 146.4 274.907 146.336C274.673 146.252 274.451 146.273 274.239 146.4L274.111 146.591C274.133 147.312 274.111 148.044 274.048 148.786C273.984 149.529 274.005 150.239 274.111 150.918L274.016 152.223C274.058 152.265 274.111 152.318 274.175 152.382C274.239 152.445 274.313 152.488 274.398 152.509C274.695 152.467 274.97 152.392 275.225 152.286C275.501 152.159 275.723 151.979 275.893 151.745C275.978 151.597 276.052 151.438 276.116 151.268C276.201 151.077 276.286 150.908 276.37 150.759C276.455 150.589 276.561 150.441 276.689 150.314C276.816 150.186 276.996 150.112 277.23 150.091C277.42 150.091 277.611 150.112 277.802 150.155C277.993 150.176 278.142 150.303 278.248 150.536C278.333 150.897 278.364 151.236 278.343 151.555C278.322 151.873 278.354 152.212 278.439 152.573C278.333 153.018 278.301 153.464 278.343 153.909C278.407 154.355 278.428 154.8 278.407 155.245C278.47 155.521 278.492 155.786 278.47 156.041C278.449 156.274 278.439 156.539 278.439 156.836C278.417 157.006 278.333 157.144 278.184 157.25C278.057 157.335 277.919 157.398 277.77 157.441C277.452 157.483 277.166 157.473 276.911 157.409C276.657 157.324 276.445 157.133 276.275 156.836C276.169 156.709 276.095 156.571 276.052 156.423C276.01 156.253 275.967 156.094 275.925 155.945C275.883 155.776 275.808 155.627 275.702 155.5C275.617 155.373 275.48 155.267 275.289 155.182C275.204 155.161 275.119 155.129 275.034 155.086C274.949 155.023 274.854 154.98 274.748 154.959C274.663 154.917 274.567 154.906 274.461 154.927C274.377 154.927 274.292 154.98 274.207 155.086C274.08 155.341 274.005 155.617 273.984 155.914C273.963 156.189 273.952 156.476 273.952 156.773C273.973 157.07 273.984 157.367 273.984 157.664C274.005 157.961 273.973 158.247 273.889 158.523C273.952 159.074 273.984 159.636 273.984 160.209C273.984 160.782 274.101 161.312 274.334 161.8C274.419 161.885 274.504 161.97 274.589 162.055C274.673 162.161 274.769 162.224 274.875 162.245C275.427 162.245 275.914 162.033 276.339 161.609C276.763 161.206 277.06 160.761 277.23 160.273C277.357 160.145 277.452 159.997 277.516 159.827C277.58 159.658 277.633 159.488 277.675 159.318C277.739 159.17 277.813 159.021 277.898 158.873C278.004 158.724 278.163 158.608 278.375 158.523C278.63 158.374 278.927 158.311 279.266 158.332C279.627 158.332 279.934 158.427 280.189 158.618C280.401 158.788 280.528 158.979 280.57 159.191C280.613 159.424 280.613 159.658 280.57 159.891C280.549 160.145 280.507 160.389 280.443 160.623C280.401 160.877 280.39 161.121 280.411 161.355C280.411 161.715 280.369 162.076 280.284 162.436C280.199 162.797 280.178 163.189 280.22 163.614C280.178 163.741 280.136 163.868 280.093 163.995C280.051 164.144 279.955 164.25 279.807 164.314C279.446 164.441 279.054 164.483 278.63 164.441C278.227 164.398 277.845 164.356 277.484 164.314C276.933 164.356 276.381 164.367 275.83 164.345C275.278 164.324 274.727 164.345 274.175 164.409C273.751 164.43 273.358 164.388 272.998 164.282C272.658 164.197 272.287 164.208 271.884 164.314C271.269 164.208 270.643 164.208 270.007 164.314C269.816 164.42 269.604 164.462 269.37 164.441C269.137 164.42 268.904 164.409 268.67 164.409C268.416 164.409 268.151 164.409 267.875 164.409C267.599 164.409 267.387 164.261 267.239 163.964C267.133 163.794 267.09 163.571 267.111 163.295C267.154 163.041 267.228 162.829 267.334 162.659C267.419 162.532 267.525 162.426 267.652 162.341C267.801 162.256 267.939 162.171 268.066 162.086C268.193 162.023 268.31 161.938 268.416 161.832C268.522 161.747 268.596 161.62 268.639 161.45C268.681 160.962 268.681 160.485 268.639 160.018C268.617 159.552 268.66 159.085 268.766 158.618C268.723 158.13 268.681 157.653 268.639 157.186C268.617 156.72 268.628 156.242 268.67 155.755C268.67 153.676 268.702 151.629 268.766 149.614C268.723 149.232 268.702 148.85 268.702 148.468C268.723 148.086 268.766 147.705 268.83 147.323C268.766 147.068 268.713 146.803 268.67 146.527C268.628 146.23 268.448 146.029 268.13 145.923C267.981 145.859 267.833 145.774 267.684 145.668C267.557 145.562 267.451 145.435 267.366 145.286C267.302 145.074 267.292 144.883 267.334 144.714C267.398 144.523 267.483 144.353 267.589 144.205C267.716 144.077 267.854 144.003 268.002 143.982C268.172 143.939 268.342 143.918 268.511 143.918C268.702 143.897 268.883 143.886 269.052 143.886C269.222 143.865 269.381 143.823 269.53 143.759C270.081 143.78 270.633 143.78 271.184 143.759C271.757 143.717 272.319 143.727 272.87 143.791C273.358 143.706 273.846 143.695 274.334 143.759C274.843 143.802 275.342 143.791 275.83 143.727C276.339 143.77 276.837 143.791 277.325 143.791C277.813 143.77 278.311 143.759 278.82 143.759ZM288.551 144.618C288.657 144.852 288.816 145.074 289.028 145.286C289.262 145.477 289.41 145.721 289.474 146.018C289.495 146.209 289.58 146.4 289.728 146.591C289.898 146.761 290.015 146.941 290.078 147.132C290.333 147.705 290.683 148.214 291.128 148.659C291.277 148.892 291.394 149.136 291.478 149.391C291.563 149.624 291.648 149.858 291.733 150.091C291.839 150.324 291.956 150.547 292.083 150.759C292.231 150.971 292.422 151.173 292.656 151.364C292.868 151.767 293.069 152.159 293.26 152.541C293.472 152.923 293.748 153.273 294.087 153.591C294.172 153.612 294.247 153.57 294.31 153.464C294.353 152.87 294.384 152.276 294.406 151.682C294.427 151.067 294.384 150.473 294.278 149.9C294.236 149.582 294.236 149.253 294.278 148.914C294.321 148.553 294.331 148.214 294.31 147.895C294.31 147.556 294.247 147.248 294.119 146.973C294.013 146.676 293.78 146.442 293.419 146.273C293.186 146.145 292.942 145.997 292.687 145.827C292.433 145.636 292.284 145.392 292.242 145.095C292.242 144.905 292.274 144.724 292.337 144.555C292.401 144.364 292.518 144.194 292.687 144.045C292.921 143.982 293.144 143.961 293.356 143.982C293.589 143.982 293.812 144.003 294.024 144.045C294.257 144.067 294.48 144.077 294.692 144.077C294.925 144.077 295.159 144.045 295.392 143.982C295.774 144.024 296.166 144.035 296.569 144.014C296.994 143.971 297.365 144.035 297.683 144.205C297.916 144.332 298.054 144.491 298.097 144.682C298.16 144.873 298.171 145.085 298.128 145.318C298.065 145.552 297.948 145.721 297.778 145.827C297.63 145.912 297.471 145.997 297.301 146.082C297.131 146.167 296.972 146.262 296.824 146.368C296.675 146.474 296.58 146.644 296.537 146.877C296.453 147.259 296.41 147.641 296.41 148.023C296.41 148.405 296.41 148.797 296.41 149.2C296.431 149.582 296.442 149.974 296.442 150.377C296.442 150.759 296.41 151.141 296.347 151.523C296.453 152.095 296.463 152.679 296.378 153.273C296.315 153.845 296.304 154.408 296.347 154.959L296.442 156.009C296.4 156.794 296.4 157.589 296.442 158.395C296.484 159.18 296.463 159.976 296.378 160.782C296.421 161.185 296.41 161.577 296.347 161.959C296.304 162.362 296.336 162.744 296.442 163.105C296.442 163.359 296.4 163.592 296.315 163.805C296.251 164.017 296.103 164.186 295.869 164.314C295.636 164.377 295.381 164.388 295.106 164.345C294.851 164.324 294.607 164.218 294.374 164.027C294.289 163.858 294.204 163.688 294.119 163.518C294.056 163.348 293.971 163.179 293.865 163.009C293.589 162.542 293.303 162.097 293.006 161.673C292.709 161.248 292.412 160.824 292.115 160.4C291.839 159.848 291.5 159.318 291.097 158.809C290.715 158.3 290.397 157.748 290.142 157.155C289.633 156.497 289.209 155.797 288.869 155.055C288.551 154.312 288.137 153.612 287.628 152.955C287.48 152.742 287.353 152.53 287.247 152.318C287.141 152.106 287.003 151.915 286.833 151.745C286.663 151.788 286.589 151.873 286.61 152C286.631 152.127 286.621 152.244 286.578 152.35C286.663 153.008 286.695 153.686 286.674 154.386C286.653 155.086 286.61 155.776 286.547 156.455C286.525 157.239 286.515 158.035 286.515 158.841C286.515 159.647 286.547 160.442 286.61 161.227C286.716 161.461 286.833 161.694 286.96 161.927C287.087 162.161 287.278 162.298 287.533 162.341C287.681 162.383 287.83 162.426 287.978 162.468C288.127 162.532 288.254 162.648 288.36 162.818C288.445 163.009 288.498 163.221 288.519 163.455C288.562 163.709 288.498 163.921 288.328 164.091C288.159 164.239 287.957 164.335 287.724 164.377C287.512 164.42 287.289 164.441 287.056 164.441C286.822 164.441 286.589 164.43 286.356 164.409C286.122 164.388 285.9 164.388 285.687 164.409C285.433 164.473 285.168 164.483 284.892 164.441C284.616 164.42 284.362 164.42 284.128 164.441C283.853 164.42 283.566 164.388 283.269 164.345C282.994 164.303 282.771 164.165 282.601 163.932C282.516 163.741 282.484 163.518 282.506 163.264C282.527 163.03 282.601 162.829 282.728 162.659C282.919 162.489 283.121 162.362 283.333 162.277C283.566 162.214 283.747 162.065 283.874 161.832C284.044 161.577 284.139 161.291 284.16 160.973C284.181 160.655 284.213 160.336 284.256 160.018C284.15 159.488 284.139 158.947 284.224 158.395C284.309 157.823 284.309 157.271 284.224 156.741C284.118 155.511 284.118 154.312 284.224 153.145C284.181 152.594 284.16 152.053 284.16 151.523C284.16 150.992 284.181 150.462 284.224 149.932C284.16 149.614 284.139 149.306 284.16 149.009C284.203 148.712 284.224 148.394 284.224 148.055C284.181 147.567 284.044 147.142 283.81 146.782C283.598 146.4 283.301 146.039 282.919 145.7C282.877 145.573 282.813 145.467 282.728 145.382C282.644 145.276 282.591 145.159 282.569 145.032C282.612 144.862 282.665 144.692 282.728 144.523C282.792 144.332 282.93 144.194 283.142 144.109C283.524 143.982 283.948 143.929 284.415 143.95C284.903 143.971 285.359 144.003 285.783 144.045C285.974 144.045 286.165 144.035 286.356 144.014C286.568 143.971 286.78 143.939 286.992 143.918C287.204 143.897 287.406 143.908 287.597 143.95C287.787 143.971 287.968 144.056 288.137 144.205L288.551 144.618Z"
		fill="black" />
	<defs>
		<clipPath id="clip0_0_1">
			<rect width="39" height="39" fill="white" transform="translate(129 118)" />
		</clipPath>
		<clipPath id="clip1_0_1">
			<rect width="195.266" height="37.49" fill="white" transform="translate(74.0508 59.905) rotate(3.26807)" />
		</clipPath>
	</defs>
</svg>