<svg width="154" height="49" viewBox="0 0 154 49" fill="none" xmlns="http://www.w3.org/2000/svg">
	<path
		d="M16.894 48.67C6.174 48.67 0.278 41.836 2.154 30.312H4.968C3.427 40.295 8.251 46.057 17.296 46.057C26.207 46.057 32.237 40.362 33.845 30.245L38.468 1.1H41.349L36.726 30.312C34.85 41.769 27.614 48.67 16.894 48.67ZM56.6732 48.67C45.8862 48.67 40.3252 41.769 42.1342 30.312L46.7572 1.1H49.5712L44.9482 30.245C43.4072 40.362 48.0972 46.057 57.1422 46.057C66.1872 46.057 72.1502 40.362 73.7582 30.245L78.3812 1.1H81.2622L76.6392 30.312C74.8302 41.769 67.4602 48.67 56.6732 48.67ZM95.1809 48.67C83.9249 48.67 79.0339 42.64 80.1729 35.337H82.9199C82.3169 41.367 86.2029 46.057 95.5829 46.057C104.829 46.057 110.591 41.3 110.591 34.332C110.591 28.503 106.571 26.694 101.211 25.488L95.6499 24.282C88.2799 22.674 85.0639 18.922 85.0639 13.562C85.0639 5.522 91.9649 0.496997 101.814 0.496997C111.596 0.496997 116.554 5.455 115.616 11.82H112.936C113.204 7.331 109.988 3.11 101.546 3.11C93.2379 3.11 88.0119 7.197 88.0119 13.495C88.0119 17.984 90.8259 20.597 96.9899 21.937L102.551 23.143C108.715 24.483 113.606 27.029 113.606 34.064C113.606 43.042 106.035 48.67 95.1809 48.67ZM127.513 48L134.481 3.713H119.004L119.473 1.1H153.308L152.906 3.713H137.362L130.394 48H127.513Z"
		fill="black" />
</svg>