<svg width="167" height="49" viewBox="0 0 167 49" fill="none" xmlns="http://www.w3.org/2000/svg">
	<path
		d="M0.886 48V1.1H6.782L24.671 41.702L42.627 1.1H48.456V48H43.565V10.346H43.364L26.748 48H22.594L5.978 10.346H5.844V48H0.886ZM73.7265 48.67C61.6665 48.67 52.5545 40.228 52.5545 24.55C52.5545 8.872 61.6665 0.496997 73.7265 0.496997C85.7195 0.496997 94.8315 8.872 94.8315 24.55C94.8315 40.228 85.7195 48.67 73.7265 48.67ZM73.7265 44.382C82.9725 44.382 89.8065 37.749 89.8065 24.55C89.8065 11.418 82.9725 4.785 73.7265 4.785C64.4135 4.785 57.5795 11.418 57.5795 24.55C57.5795 37.749 64.4135 44.382 73.7265 44.382ZM132.472 48H127.447L116.593 29.642H115.789H103.863V48H98.9049V1.1H115.789C126.576 1.1 132.137 6.527 132.137 15.438C132.137 22.607 128.452 27.498 121.283 29.106L132.472 48ZM103.863 5.455V25.22H115.588C123.226 25.22 127.112 21.736 127.112 15.438C127.112 8.939 123.226 5.455 115.588 5.455H103.863ZM135.875 48V1.1H165.422V5.455H140.833V21.87H163.412V25.89H140.833V43.645H166.092V48H135.875Z"
		fill="black" />
</svg>