<svg width="210" height="49" viewBox="0 0 210 49" fill="none" xmlns="http://www.w3.org/2000/svg">
	<path
		d="M18.904 48.67C7.179 48.67 0.881 42.707 0.881 34.332H6.442C6.777 39.692 10.462 43.913 18.971 43.913C26.609 43.913 30.428 40.362 30.428 35.136C30.428 29.843 26.609 27.699 21.182 26.627L15.018 25.421C6.777 23.746 2.221 19.793 2.221 13.026C2.221 5.522 7.916 0.496997 18.301 0.496997C28.485 0.496997 34.783 5.388 34.783 12.959H29.289C29.088 8.537 25.403 5.187 18.301 5.187C10.864 5.187 7.983 8.872 7.983 13.093C7.983 16.912 10.328 19.86 16.425 21.066L22.455 22.272C30.964 23.947 36.19 27.364 36.19 35.002C36.19 43.712 29.557 48.67 18.904 48.67ZM51.0645 48V5.991H36.2575V1.1H71.3655V5.991H56.5585V48H51.0645ZM92.4758 48.67C81.4208 48.67 74.4528 42.104 74.4528 30.245V1.1H80.0138V29.91C80.0138 38.888 84.6368 43.779 92.4758 43.779C100.315 43.779 104.938 38.888 104.938 29.91V1.1H110.499V30.245C110.499 42.104 103.464 48.67 92.4758 48.67ZM115.611 48V1.1H130.753C145.627 1.1 152.93 9.542 152.93 24.55C152.93 39.491 145.627 48 130.753 48H115.611ZM121.105 43.109H130.284C142.143 43.109 147.369 37.079 147.369 24.55C147.369 12.021 142.143 5.991 130.284 5.991H121.105V43.109ZM157.03 48V1.1H162.524V48H157.03ZM187.866 48.67C175.672 48.67 166.627 40.094 166.627 24.55C166.627 9.006 175.672 0.496997 187.866 0.496997C200.06 0.496997 209.172 9.006 209.172 24.55C209.172 40.094 200.06 48.67 187.866 48.67ZM187.866 43.846C196.978 43.846 203.544 37.28 203.544 24.55C203.544 11.82 196.978 5.321 187.866 5.321C178.821 5.321 172.255 11.82 172.255 24.55C172.255 37.28 178.821 43.846 187.866 43.846Z"
		fill="black" />
</svg>