<svg width="163" height="47" viewBox="0 0 163 47" fill="none" xmlns="http://www.w3.org/2000/svg">
	<path
		d="M15.147 47V6.197H0.742V0.0999968H36.52V6.197H22.115V47H15.147ZM69.0108 0.0999968H75.9118V47H69.0108V26.766H46.2978V47H39.3298V0.0999968H46.2978V21.004H69.0108V0.0999968ZM115.053 47L111.1 36.213H89.6604L85.7074 47H78.4044L96.0254 0.0999968H104.735L122.356 47H115.053ZM91.6034 30.92H109.157L100.581 7.403H100.179L91.6034 30.92ZM124.852 47V0.0999968H132.356L155.27 36.079H155.471V0.0999968H162.439V47H154.667L131.954 11.356H131.82V47H124.852Z"
		fill="black" />
</svg>