<svg width="47" height="41" viewBox="0 0 47 41" fill="none" xmlns="http://www.w3.org/2000/svg">
	<path
		d="M4.896 17L0.528 0.199999H4.224L6.912 11.936H7.08L10.32 0.199999H14.016L17.256 11.936H17.424L20.112 0.199999H23.808L19.44 17H15.696L12.168 4.736L8.64 17H4.896ZM26.0561 17V0.199999H37.5281V3.32H29.6561V7.088H36.8081V9.896H29.6561V13.88H37.7681V17H26.0561ZM13.416 41L12.336 37.856H5.256L4.176 41H0.408L6.48 24.2H11.112L17.184 41H13.416ZM6.168 35.192H11.424L8.904 27.872H8.688L6.168 35.192ZM32.6976 41H29.1456L25.9536 35.408H22.9296V41H19.3296V24.2H26.1216C30.5856 24.2 32.5296 26.528 32.5296 29.816C32.5296 32.216 31.4976 34.088 29.1696 34.928L32.6976 41ZM22.9296 27.32V32.288H26.0016C27.9696 32.288 28.8336 31.304 28.8336 29.816C28.8336 28.304 27.9696 27.32 26.0016 27.32H22.9296ZM35.0674 41V24.2H46.5394V27.32H38.6674V31.088H45.8194V33.896H38.6674V37.88H46.7794V41H35.0674Z"
		fill="black" />
</svg>