<svg width="479" height="150" viewBox="0 0 479 150" fill="none" xmlns="http://www.w3.org/2000/svg">
	<path
		d="M28.138 150L50.929 6.43799H0.661001L1.726 0.89999H107.8L106.948 6.43799H56.68L34.102 150H28.138ZM219.097 0.89999H225.061L201.418 150H195.454L206.53 80.562H112.597L101.521 150H95.5575L119.2 0.89999H125.164L113.449 75.45H207.382L219.097 0.89999ZM330.303 150L319.866 105.057H243.186L218.265 150H211.875L294.945 0.89999H300.696L336.48 150H330.303ZM246.168 99.732H318.588L297.288 8.78099H296.649L246.168 99.732ZM346.848 150L370.491 0.89999H379.011L450.153 142.971H450.579L472.944 0.89999H478.908L455.265 150H446.745L375.603 7.50299H375.39L352.812 150H346.848Z"
		fill="black" />
</svg>