<svg width="183" height="146" viewBox="0 0 183 146" fill="none" xmlns="http://www.w3.org/2000/svg">
	<path
		d="M10.2 35L1.1 -2.38419e-06H8.8L14.4 24.45H14.75L21.5 -2.38419e-06H29.2L35.95 24.45H36.3L41.9 -2.38419e-06H49.6L40.5 35H32.7L25.35 9.45L18 35H10.2ZM54.2836 35V-2.38419e-06H78.1836V6.5H61.7836V14.35H76.6836V20.2H61.7836V28.5H78.6836V35H54.2836ZM27.95 85L25.7 78.45H10.95L8.7 85H0.85L13.5 50H23.15L35.8 85H27.95ZM12.85 72.9H23.8L18.55 57.65H18.1L12.85 72.9ZM68.1199 85H60.7199L54.0699 73.35H47.7699V85H40.2699V50H54.4199C63.7199 50 67.7699 54.85 67.7699 61.7C67.7699 66.7 65.6199 70.6 60.7699 72.35L68.1199 85ZM47.7699 56.5V66.85H54.1699C58.2699 66.85 60.0699 64.8 60.0699 61.7C60.0699 58.55 58.2699 56.5 54.1699 56.5H47.7699ZM73.057 85V50H96.957V56.5H80.557V64.35H95.457V70.2H80.557V78.5H97.457V85H73.057Z"
		fill="black" />
	<path fill-rule="evenodd" clip-rule="evenodd"
		d="M143.647 89.4426C145.154 87.8816 147.231 87 149.401 87H155.579C157.74 87 159.808 87.8738 161.314 89.4226C162.821 90.9714 163.636 93.0636 163.576 95.2231L163.375 102.421L169.872 100.253C171.974 99.5518 174.274 99.7542 176.222 100.812C178.17 101.87 179.592 103.689 180.148 105.835L181.844 112.377C182.939 116.602 180.445 120.925 176.24 122.093L170.252 123.755L174.395 129.426C176.965 132.944 176.248 137.871 172.782 140.51L167.816 144.293C166.054 145.634 163.815 146.186 161.632 145.816C159.449 145.446 157.517 144.188 156.296 142.341L152.59 136.738L148.966 142.289C147.76 144.136 145.844 145.403 143.672 145.791C141.5 146.178 139.265 145.651 137.494 144.335L132.755 140.812C130.561 139.355 129.18 136.872 129.18 134.146V134.132C129.18 132.279 129.82 130.523 130.938 129.128L134.861 123.758L128.862 122.093C124.656 120.925 122.163 116.602 123.258 112.377L124.954 105.835C125.509 103.692 126.928 101.875 128.872 100.816C130.816 99.7577 133.111 99.5519 135.213 100.248L141.654 102.381L141.406 95.2789C141.33 93.1101 142.139 91.0036 143.647 89.4426Z"
		fill="black" />
</svg>