<svg width="140" height="28" viewBox="0 0 140 28" fill="none" xmlns="http://www.w3.org/2000/svg">
	<path
		d="M116.35 1H13.535C6.61211 1 1 6.61211 1 13.535C1 20.4579 6.61211 26.07 13.535 26.07H116.35C123.273 26.07 128.885 20.4579 128.885 13.535C128.885 6.61211 123.273 1 116.35 1Z"
		stroke="black" stroke-width="2" />
	<path
		d="M20.0733 18.048H18.1865V9.17758H23.9817L24.0062 10.6723H20.0733V13.0737H23.6386V14.5439H20.0733V18.048ZM32.0571 18.048H26.1149V9.17758H28.0017V16.492H32.0571V18.048ZM39.4832 9.17758V10.5498H37.6087V16.6757H39.4832V18.048H33.8228V16.6757H35.7219V10.5498H33.8228V9.17758H39.4832ZM43.4052 18.048H41.5184V9.17758H44.9367C45.6963 9.17758 46.2885 9.31235 46.7132 9.5819C47.1461 9.84327 47.4484 10.1822 47.6199 10.5988C47.7996 11.0154 47.8894 11.4605 47.8894 11.9343C47.8894 12.9961 47.6076 13.7925 47.044 14.3234C46.4805 14.8461 45.6637 15.1075 44.5937 15.1075H43.4052V18.048ZM43.4052 10.6233V13.674H44.4712C44.708 13.674 44.9408 13.6332 45.1695 13.5515C45.3982 13.4617 45.5861 13.3024 45.7331 13.0737C45.8801 12.845 45.9536 12.5101 45.9536 12.069C45.9536 11.6606 45.8801 11.3543 45.7331 11.1501C45.5861 10.9378 45.3941 10.7989 45.1573 10.7336C44.9204 10.6601 44.659 10.6233 44.3731 10.6233H43.4052ZM56.7749 18.048V9.17758H58.8577L60.2054 13.1472H60.2667L61.4429 9.17758H63.587V18.048H62.0187L62.0922 11.4932L62.031 11.4809L60.7078 15.5363H59.6664L58.3064 11.4809H58.2451L58.3187 18.048H56.7749ZM65.2424 9.17758H70.7558V10.6723H67.1292V12.8777H70.5107V14.3479H67.1292V16.5532H70.9763V18.048H65.2424V9.17758ZM80.4131 13.6495C80.4131 12.9879 80.4662 12.3794 80.5724 11.824C80.6786 11.2604 80.8583 10.7703 81.1115 10.3538C81.3729 9.92903 81.72 9.60232 82.1529 9.37361C82.594 9.13674 83.1453 9.01831 83.8069 9.01831C84.4848 9.01831 85.0321 9.13674 85.4486 9.37361C85.8734 9.60232 86.2001 9.92086 86.4288 10.3293C86.6575 10.7377 86.8127 11.2114 86.8944 11.7505C86.976 12.2896 87.0169 12.8654 87.0169 13.478C87.0169 14.4336 86.9189 15.2668 86.7228 15.9774C86.535 16.6798 86.2001 17.2271 85.7182 17.6191C85.2363 18.003 84.5624 18.195 83.6966 18.195C83.0187 18.195 82.4633 18.0847 82.0304 17.8642C81.6056 17.6355 81.2748 17.321 81.038 16.9208C80.8011 16.5124 80.6377 16.0305 80.5479 15.4751C80.458 14.9196 80.4131 14.3111 80.4131 13.6495ZM82.3734 13.6128C82.3734 14.356 82.4061 14.9564 82.4714 15.4138C82.5449 15.863 82.6756 16.1897 82.8635 16.3939C83.0595 16.5981 83.3454 16.7002 83.7211 16.7002C84.0887 16.7002 84.3705 16.5981 84.5665 16.3939C84.7625 16.1897 84.8932 15.8589 84.9586 15.4015C85.0321 14.9441 85.0688 14.3397 85.0688 13.5883C85.0688 12.8777 85.0362 12.2977 84.9708 11.8485C84.9055 11.3993 84.7789 11.0685 84.591 10.8561C84.4113 10.6356 84.1377 10.5253 83.7701 10.5253C83.3862 10.5253 83.0922 10.6356 82.888 10.8561C82.6838 11.0766 82.5449 11.4156 82.4714 11.873C82.4061 12.3222 82.3734 12.9022 82.3734 13.6128ZM90.0323 9.17758L91.5883 16.4307H91.6863L93.2055 9.17758H95.1291L92.9237 18.048H90.3386L87.9862 9.17758H90.0323ZM96.613 9.17758H102.126V10.6723H98.4998V12.8777H101.881V14.3479H98.4998V16.5532H102.347V18.048H96.613V9.17758ZM106.134 18.048H104.259V9.17758H107.506C108.062 9.17758 108.523 9.25926 108.891 9.42262C109.258 9.57781 109.548 9.78609 109.761 10.0475C109.973 10.3088 110.12 10.5988 110.202 10.9174C110.291 11.2359 110.336 11.5585 110.336 11.8853C110.336 12.5305 110.218 13.0941 109.981 13.576C109.744 14.0579 109.368 14.4173 108.854 14.6542L110.765 18.048H108.719L107.163 14.985H106.134V18.048ZM106.134 10.6233V13.5638H107.077C107.298 13.5638 107.506 13.5229 107.702 13.4412C107.906 13.3596 108.07 13.2085 108.192 12.9879C108.323 12.7592 108.388 12.4366 108.388 12.02C108.388 11.6198 108.323 11.3217 108.192 11.1256C108.07 10.9296 107.902 10.7989 107.69 10.7336C107.478 10.6601 107.241 10.6233 106.979 10.6233H106.134Z"
		fill="black" />
</svg>