<svg width="510" height="83" viewBox="0 0 510 83" fill="none" xmlns="http://www.w3.org/2000/svg">
	<g clip-path="url(#clip0_106_28347)">
		<path d="M16.1602 0V78.85" stroke="black" stroke-width="4" stroke-miterlimit="10" />
		<path d="M1.16992 67.77L17.4899 79.47L31.5799 66.46" stroke="black" stroke-width="4" stroke-miterlimit="10" />
	</g>
	<path
		d="M65.8 77V7H91C107.1 7 115.4 15.1 115.4 28.4C115.4 41.5 107.1 49.6 91 49.6H73.2V77H65.8ZM73.2 43H90.7C102.1 43 107.9 37.8 107.9 28.4C107.9 18.7 102.1 13.5 90.7 13.5H73.2V43ZM120.491 77V7H164.591V13.5H127.891V38H161.591V44H127.891V70.5H165.591V77H120.491ZM170.691 77V7H214.791V13.5H178.091V38H211.791V44H178.091V70.5H215.791V77H170.691ZM266.69 77L239.09 44.5L228.29 56.4V77H220.89V7H228.29V46.7L264.09 7H272.89L243.69 39.4L275.39 77H266.69ZM344.134 7H351.434V77H344.134V45.9H305.934V77H298.534V7H305.934V39.7H344.134V7ZM359.476 77V7H403.576V13.5H366.876V38H400.576V44H366.876V70.5H404.576V77H359.476ZM459.775 77H452.275L436.075 49.6H434.875H417.075V77H409.675V7H434.875C450.975 7 459.275 15.1 459.275 28.4C459.275 39.1 453.775 46.4 443.075 48.8L459.775 77ZM417.075 13.5V43H434.575C445.975 43 451.775 37.8 451.775 28.4C451.775 18.7 445.975 13.5 434.575 13.5H417.075ZM464.855 77V7H508.955V13.5H472.255V38H505.955V44H472.255V70.5H509.955V77H464.855Z"
		fill="black" />
	<defs>
		<clipPath id="clip0_106_28347">
			<rect width="32.93" height="82.05" fill="white" />
		</clipPath>
	</defs>
</svg>