<svg width="57" height="15" viewBox="0 0 57 15" fill="none" xmlns="http://www.w3.org/2000/svg">
	<rect x="1" y="1" width="52.4991" height="12.5248" rx="6.26238" stroke="black" stroke-width="2" />
	<path
		d="M9.80375 9.12891H9.07018V5.68013H11.3233L11.3328 6.26128H9.80375V7.19492H11.1899V7.76654H9.80375V9.12891ZM14.463 9.12891H12.1527V5.68013H12.8863V8.52394H14.463V9.12891ZM17.3503 5.68013V6.21364L16.6214 6.21364V8.59539H17.3503V9.12891H15.1495V8.59539H15.8879V6.21364H15.1495V5.68013L17.3503 5.68013ZM18.8751 9.12891H18.1416V5.68013H19.4706C19.7659 5.68013 19.9961 5.73253 20.1613 5.83733C20.3296 5.93895 20.4471 6.07074 20.5138 6.2327C20.5836 6.39466 20.6186 6.56773 20.6186 6.75192C20.6186 7.16476 20.509 7.47438 20.2899 7.6808C20.0708 7.88404 19.7532 7.98567 19.3372 7.98567H18.8751V9.12891ZM18.8751 6.24222V7.42834H19.2896C19.3817 7.42834 19.4722 7.41246 19.5611 7.3807C19.65 7.34577 19.723 7.28384 19.7802 7.19492C19.8374 7.10601 19.8659 6.9758 19.8659 6.80432C19.8659 6.64553 19.8374 6.52645 19.7802 6.44705C19.723 6.36449 19.6484 6.3105 19.5563 6.2851C19.4642 6.25651 19.3626 6.24222 19.2515 6.24222H18.8751ZM24.0732 9.12891V5.68013H24.883L25.407 7.22351H25.4308L25.8881 5.68013H26.7217V9.12891H26.112L26.1406 6.58043L26.1168 6.57567L25.6023 8.15239H25.1974L24.6687 6.57567H24.6449L24.6734 9.12891H24.0732ZM27.3654 5.68013L29.5089 5.68013V6.26128L28.099 6.26128V7.11871L29.4137 7.11871V7.69033H28.099V8.54776H29.5947V9.12891H27.3654V5.68013ZM33.2637 7.41881C33.2637 7.16158 33.2843 6.92499 33.3256 6.70905C33.3669 6.48993 33.4368 6.29939 33.5352 6.13743C33.6368 5.97229 33.7718 5.84527 33.9401 5.75635C34.1116 5.66425 34.326 5.6182 34.5832 5.6182C34.8468 5.6182 35.0595 5.66425 35.2215 5.75635C35.3866 5.84527 35.5137 5.96912 35.6026 6.1279C35.6915 6.28668 35.7518 6.47087 35.7836 6.68047C35.8154 6.89006 35.8312 7.11394 35.8312 7.35212C35.8312 7.72367 35.7931 8.04759 35.7169 8.32387C35.6439 8.59698 35.5137 8.80975 35.3263 8.96218C35.1389 9.11144 34.8769 9.18607 34.5403 9.18607C34.2767 9.18607 34.0608 9.1432 33.8925 9.05745C33.7274 8.96854 33.5987 8.84627 33.5066 8.69066C33.4145 8.53188 33.351 8.34452 33.3161 8.12857C33.2812 7.91263 33.2637 7.67604 33.2637 7.41881ZM34.0259 7.40452C34.0259 7.6935 34.0386 7.92692 34.064 8.10475C34.0926 8.27941 34.1434 8.40644 34.2164 8.48583C34.2926 8.56523 34.4038 8.60492 34.5499 8.60492C34.6928 8.60492 34.8023 8.56523 34.8785 8.48583C34.9547 8.40644 35.0056 8.27783 35.031 8.09999C35.0595 7.92215 35.0738 7.68715 35.0738 7.39499C35.0738 7.11871 35.0611 6.89324 35.0357 6.71857C35.0103 6.54391 34.9611 6.4153 34.8881 6.33273C34.8182 6.24699 34.7118 6.20412 34.5689 6.20412C34.4196 6.20412 34.3053 6.24699 34.2259 6.33273C34.1465 6.41847 34.0926 6.55026 34.064 6.7281C34.0386 6.90276 34.0259 7.12824 34.0259 7.40452ZM37.0036 5.68013L37.6086 8.50012H37.6467L38.2374 5.68013H38.9852L38.1278 9.12891H37.1227L36.2081 5.68013H37.0036ZM39.5622 5.68013L41.7057 5.68013V6.26128L40.2957 6.26128V7.11871L41.6105 7.11871V7.69033H40.2957V8.54776H41.7915V9.12891L39.5622 9.12891V5.68013ZM43.264 9.12891H42.5352V5.68013H43.7975C44.0134 5.68013 44.1929 5.71189 44.3358 5.7754C44.4787 5.83574 44.5914 5.91672 44.674 6.01834C44.7565 6.11996 44.8137 6.2327 44.8455 6.35655C44.8804 6.4804 44.8979 6.60584 44.8979 6.73286C44.8979 6.98374 44.8518 7.20286 44.7597 7.39023C44.6676 7.57759 44.5215 7.71732 44.3215 7.80942L45.0646 9.12891H44.2691L43.6641 7.93803H43.264V9.12891ZM43.264 6.24222V7.38546H43.6308C43.7165 7.38546 43.7975 7.36959 43.8737 7.33783C43.9531 7.30607 44.0166 7.24732 44.0642 7.16158C44.115 7.07266 44.1405 6.94722 44.1405 6.78526C44.1405 6.62966 44.115 6.51374 44.0642 6.43753C44.0166 6.36131 43.9515 6.3105 43.8689 6.2851C43.7864 6.25651 43.6943 6.24222 43.5927 6.24222H43.264Z"
		fill="black" />
</svg>