<svg width="34" height="63" viewBox="0 0 34 63" fill="none" xmlns="http://www.w3.org/2000/svg">
	<path
		d="M19.6282 61.9932C19.2333 61.2421 18.504 60.6952 17.6383 60.5677L17.6383 60.5389L17.2495 60.5389C16.216 60.5389 15.3236 61.1316 14.8709 61.9928C14.6742 62.3669 14.285 62.596 13.8669 62.596L2.34916 62.596C1.72779 62.596 1.20817 62.0773 1.20817 61.4176L1.20817 1.56721C1.20817 0.907458 1.72779 0.388796 2.34916 0.388796L13.8099 0.388796C14.2392 0.388796 14.6358 0.632803 14.8231 1.02497L15.1693 0.859608L14.8231 1.02497C15.259 1.93744 16.178 2.57394 17.2495 2.57394C18.321 2.57394 19.2401 1.93744 19.6759 1.02497L19.33 0.859709L19.6759 1.02497C19.8632 0.632852 20.2602 0.388797 20.6892 0.388797L32.1499 0.388797C32.7713 0.388797 33.2909 0.90746 33.2909 1.56721L33.2909 61.418C33.2909 62.0777 32.7713 62.5964 32.1499 62.5964L20.6322 62.5964C20.2136 62.5964 19.8249 62.3676 19.6283 61.9933L19.6282 61.9932Z"
		fill="black" stroke="#F3E7D3" stroke-width="0.777595" />
</svg>