<svg width="177" height="78" viewBox="0 0 177 78" fill="none" xmlns="http://www.w3.org/2000/svg">
	<g clip-path="url(#clip0_106_28345)">
		<path d="M164.12 12V71.1375" stroke="black" stroke-width="3" stroke-miterlimit="10" />
		<path d="M152.877 62.8275L165.117 71.6025L175.685 61.845" stroke="black" stroke-width="3" stroke-miterlimit="10" />
	</g>
	<path
		d="M16.207 34.4753C6.93803 34.4753 0.853792 28.2485 0.853792 17.3634C0.853792 6.52586 6.93803 0.299016 16.207 0.299016C23.4796 0.299016 29.1835 3.91153 29.9441 11.802H23.8598C22.7666 7.57158 20.0096 5.71779 16.207 5.71779C10.1703 5.71779 7.27076 10.4236 7.27076 17.3634C7.27076 24.3032 10.0752 29.0566 16.207 29.0566C19.9146 29.0566 22.7666 27.2028 23.8598 22.9248H29.9441C29.1835 30.8628 23.4796 34.4753 16.207 34.4753ZM33.4455 34V0.726814H39.6724V28.5337H55.4534V34H33.4455ZM58.8721 34V0.726814H65.0989V34H58.8721ZM84.3632 34.4753C75.0942 34.4753 69.01 28.2485 69.01 17.3634C69.01 6.52586 75.0942 0.299016 84.3632 0.299016C91.6357 0.299016 97.3397 3.91153 98.1002 11.802H92.016C90.9227 7.57158 88.1658 5.71779 84.3632 5.71779C78.3265 5.71779 75.4269 10.4236 75.4269 17.3634C75.4269 24.3032 78.2314 29.0566 84.3632 29.0566C88.0708 29.0566 90.9227 27.2028 92.016 22.9248H98.1002C97.3397 30.8628 91.6357 34.4753 84.3632 34.4753ZM123.419 34L112.534 20.1203L107.829 25.5866V34H101.602V0.726814H107.829V17.1733L121.993 0.726814H129.361L116.385 15.6997L130.644 34H123.419ZM16.4922 77.4753C7.1757 77.4753 0.853792 70.7732 0.853792 60.3634C0.853792 49.9061 7.1757 43.299 16.4922 43.299C25.8087 43.299 32.1781 49.9061 32.1781 60.3634C32.1781 70.7732 25.8087 77.4753 16.4922 77.4753ZM16.4922 72.0566C22.1962 72.0566 25.7136 67.636 25.7136 60.3634C25.7136 53.0433 22.1962 48.7178 16.4922 48.7178C10.7882 48.7178 7.27076 53.0433 7.27076 60.3634C7.27076 67.636 10.7882 72.0566 16.4922 72.0566ZM36.0914 77V43.7268H42.651L57.1961 67.0656H57.3387V43.7268H63.6131V77H56.7683L42.4609 54.0415H42.3183V77H36.0914ZM68.4344 77V43.7268H90.7274V49.1931H74.6612V57.654H89.3014V62.5499H74.6612V71.5337H91.2027V77H68.4344Z"
		fill="black" />
	<defs>
		<clipPath id="clip0_106_28345">
			<rect width="24.6975" height="61.5375" fill="white" transform="translate(152 12)" />
		</clipPath>
	</defs>
</svg>