<svg width="139" height="34" viewBox="0 0 139 34" fill="none" xmlns="http://www.w3.org/2000/svg">
	<path
		d="M0.566789 34V0.726814H22.2894V6.19312H6.79363V14.9868H19.58V20.0728H6.79363V34H0.566789ZM25.8076 34V0.726814H32.0345V34H25.8076ZM36.8906 34V0.726814H43.1175V28.5337H58.8985V34H36.8906ZM66.9717 34V6.19312H57.0848V0.726814H83.0854V6.19312H73.1985V34H66.9717ZM86.3047 34V0.726814H108.598V6.19312H92.5315V14.654H107.172V19.5499H92.5315V28.5337H109.073V34H86.3047ZM138.284 34H132.058L125.403 22.4495H118.701V34H112.474V0.726814H125.545C134.101 0.726814 137.999 5.14739 137.999 11.6119C137.999 16.4603 135.813 20.1203 131.059 21.6889L138.284 34ZM118.701 6.19312V16.9831H125.308C129.586 16.9831 131.535 14.9392 131.535 11.6119C131.535 8.23705 129.586 6.19312 125.308 6.19312H118.701Z"
		fill="#F3E7D3" />
</svg>