<svg width="418" height="62" viewBox="0 0 418 62" fill="none" xmlns="http://www.w3.org/2000/svg">
	<g clip-path="url(#clip0_698_2)">
		<path d="M405.12 0V59.1375" stroke="black" stroke-width="3" stroke-miterlimit="10" />
		<path d="M393.877 50.8275L406.117 59.6025L416.685 49.845" stroke="black" stroke-width="3" stroke-miterlimit="10" />
	</g>
	<path
		d="M4.53441 57V2.27437H24.4702C37.2916 2.27437 43.7805 8.68509 43.7805 19.1611C43.7805 29.4808 37.2916 35.8915 24.4702 35.8915H10.9451V57H4.53441ZM10.9451 30.1844H24.2356C32.8354 30.1844 37.2134 26.2755 37.2134 19.1611C37.2134 11.8904 32.8354 7.98147 24.2356 7.98147H10.9451V30.1844ZM50.019 57V2.27437H84.8088V7.98147H56.4297V26.2755H82.4635V31.5135H56.4297V51.2929H85.5906V57H50.019ZM91.8389 57V2.27437H126.629V7.98147H98.2496V26.2755H124.283V31.5135H98.2496V51.2929H127.411V57H91.8389ZM169.465 57L148.435 31.9826L140.069 41.2859V57H133.659V2.27437H140.069V32.6862L167.354 2.27437H175.094L152.5 27.4482L177.048 57H169.465ZM234.998 2.27437H241.487V57H234.998V32.8425H206.149V57H199.739V2.27437H206.149V27.4482H234.998V2.27437ZM250.11 57V2.27437H284.899V7.98147H256.52V26.2755H282.554V31.5135H256.52V51.2929H285.681V57H250.11ZM331.566 57H325.078L312.647 35.8915H311.865H298.34V57H291.929V2.27437H311.865C324.687 2.27437 331.176 8.68509 331.176 19.1611C331.176 27.4482 326.954 33.2334 318.667 35.1879L331.566 57ZM298.34 7.98147V30.1844H311.631C320.23 30.1844 324.608 26.2755 324.608 19.1611C324.608 11.8904 320.23 7.98147 311.631 7.98147H298.34ZM337.872 57V2.27437H372.662V7.98147H344.283V26.2755H370.317V31.5135H344.283V51.2929H373.444V57H337.872Z"
		fill="black" />
	<defs>
		<clipPath id="clip0_698_2">
			<rect width="24.6975" height="61.5375" fill="white" transform="translate(393)" />
		</clipPath>
	</defs>
</svg>