<svg width="231" height="57" viewBox="0 0 231 57" fill="none" xmlns="http://www.w3.org/2000/svg">
	<path
		d="M0.534409 56V1.27437H20.4702C33.2916 1.27437 39.7805 7.68509 39.7805 18.1611C39.7805 28.4808 33.2916 34.8915 20.4702 34.8915H6.94513V56H0.534409ZM6.94513 29.1844H20.2356C28.8354 29.1844 33.2134 25.2755 33.2134 18.1611C33.2134 10.8904 28.8354 6.98147 20.2356 6.98147H6.94513V29.1844ZM78.9325 1.27437H85.4214V56H78.9325V31.8425H50.0843V56H43.6736V1.27437H50.0843V26.4482H78.9325V1.27437ZM114.927 56.7818C100.699 56.7818 90.1446 46.7748 90.1446 28.6372C90.1446 10.4995 100.699 0.570754 114.927 0.570754C129.156 0.570754 139.789 10.4995 139.789 28.6372C139.789 46.7748 129.156 56.7818 114.927 56.7818ZM114.927 51.1529C125.56 51.1529 133.221 43.4913 133.221 28.6372C133.221 13.7831 125.56 6.19968 114.927 6.19968C104.373 6.19968 96.7116 13.7831 96.7116 28.6372C96.7116 43.4913 104.373 51.1529 114.927 51.1529ZM157.023 56V6.98147H139.746V1.27437H180.712V6.98147H163.434V56H157.023ZM205.558 56.7818C191.329 56.7818 180.775 46.7748 180.775 28.6372C180.775 10.4995 191.329 0.570754 205.558 0.570754C219.786 0.570754 230.419 10.4995 230.419 28.6372C230.419 46.7748 219.786 56.7818 205.558 56.7818ZM205.558 51.1529C216.19 51.1529 223.852 43.4913 223.852 28.6372C223.852 13.7831 216.19 6.19968 205.558 6.19968C195.003 6.19968 187.342 13.7831 187.342 28.6372C187.342 43.4913 195.003 51.1529 205.558 51.1529Z"
		fill="black" />
</svg>