<svg width="368" height="57" viewBox="0 0 368 57" fill="none" xmlns="http://www.w3.org/2000/svg">
	<path
		d="M0.534409 56V1.27437H20.4702C33.2916 1.27437 39.7805 7.68509 39.7805 18.1611C39.7805 28.4808 33.2916 34.8915 20.4702 34.8915H6.94513V56H0.534409ZM6.94513 29.1844H20.2356C28.8354 29.1844 33.2134 25.2755 33.2134 18.1611C33.2134 10.8904 28.8354 6.98147 20.2356 6.98147H6.94513V29.1844ZM67.2838 56.7818C53.0551 56.7818 42.5009 46.7748 42.5009 28.6372C42.5009 10.4995 53.0551 0.570754 67.2838 0.570754C81.5125 0.570754 92.1449 10.4995 92.1449 28.6372C92.1449 46.7748 81.5125 56.7818 67.2838 56.7818ZM67.2838 51.1529C77.9162 51.1529 85.5778 43.4913 85.5778 28.6372C85.5778 13.7831 77.9162 6.19968 67.2838 6.19968C56.7296 6.19968 49.068 13.7831 49.068 28.6372C49.068 43.4913 56.7296 51.1529 67.2838 51.1529ZM136.451 56H129.962L117.532 34.8915H116.75H103.225V56H96.8143V1.27437H116.75C129.571 1.27437 136.06 7.68509 136.06 18.1611C136.06 26.4482 131.839 32.2334 123.552 34.1879L136.451 56ZM103.225 6.98147V29.1844H116.515C125.115 29.1844 129.493 25.2755 129.493 18.1611C129.493 10.8904 125.115 6.98147 116.515 6.98147H103.225ZM153.817 56V6.98147H136.539V1.27437H177.505V6.98147H160.228V56H153.817ZM220.745 56H214.256L201.825 34.8915H201.043H187.518V56H181.108V1.27437H201.043C213.865 1.27437 220.354 7.68509 220.354 18.1611C220.354 26.4482 216.132 32.2334 207.845 34.1879L220.745 56ZM187.518 6.98147V29.1844H200.809C209.409 29.1844 213.787 25.2755 213.787 18.1611C213.787 10.8904 209.409 6.98147 200.809 6.98147H187.518ZM264.507 56L259.426 42.3186H233.47L228.388 56H221.587L242.461 1.27437H250.435L271.309 56H264.507ZM235.346 37.3151H257.549L246.682 8.23235H246.213L235.346 37.3151ZM274.486 56V1.27437H280.897V56H274.486ZM301.79 56V6.98147H284.512V1.27437H325.478V6.98147H308.201V56H301.79ZM347.411 56.7818C333.73 56.7818 326.381 49.8238 326.381 40.0514H332.87C333.261 46.3057 337.561 51.2311 347.489 51.2311C356.402 51.2311 360.858 47.0875 360.858 40.9895C360.858 34.8134 356.402 32.3116 350.069 31.0607L342.877 29.6535C333.261 27.699 327.945 23.0864 327.945 15.1903C327.945 6.43422 334.59 0.570754 346.708 0.570754C358.591 0.570754 365.94 6.27786 365.94 15.1121H359.529C359.294 9.95229 354.995 6.04332 346.708 6.04332C338.03 6.04332 334.668 10.3432 334.668 15.2685C334.668 19.7247 337.404 23.1646 344.519 24.5719L351.555 25.9791C361.483 27.9336 367.581 31.9207 367.581 40.8332C367.581 50.9965 359.842 56.7818 347.411 56.7818Z"
		fill="black" />
</svg>