<svg width="178" height="57" viewBox="0 0 178 57" fill="none" xmlns="http://www.w3.org/2000/svg">
	<path
		d="M0.534409 56V1.27437H20.4702C33.2916 1.27437 39.7805 7.68509 39.7805 18.1611C39.7805 28.4808 33.2916 34.8915 20.4702 34.8915H6.94513V56H0.534409ZM6.94513 29.1844H20.2356C28.8354 29.1844 33.2134 25.2755 33.2134 18.1611C33.2134 10.8904 28.8354 6.98147 20.2356 6.98147H6.94513V29.1844ZM67.2838 56.7818C53.0551 56.7818 42.5009 46.7748 42.5009 28.6372C42.5009 10.4995 53.0551 0.570754 67.2838 0.570754C81.5125 0.570754 92.1449 10.4995 92.1449 28.6372C92.1449 46.7748 81.5125 56.7818 67.2838 56.7818ZM67.2838 51.1529C77.9162 51.1529 85.5778 43.4913 85.5778 28.6372C85.5778 13.7831 77.9162 6.19968 67.2838 6.19968C56.7296 6.19968 49.068 13.7831 49.068 28.6372C49.068 43.4913 56.7296 51.1529 67.2838 51.1529ZM116.672 56.7818C102.99 56.7818 95.6416 49.8238 95.6416 40.0514H102.13C102.521 46.3057 106.821 51.2311 116.75 51.2311C125.662 51.2311 130.119 47.0875 130.119 40.9895C130.119 34.8134 125.662 32.3116 119.33 31.0607L112.137 29.6535C102.521 27.699 97.2052 23.0864 97.2052 15.1903C97.2052 6.43422 103.85 0.570754 115.968 0.570754C127.852 0.570754 135.2 6.27786 135.2 15.1121H128.79C128.555 9.95229 124.255 6.04332 115.968 6.04332C107.29 6.04332 103.929 10.3432 103.929 15.2685C103.929 19.7247 106.665 23.1646 113.779 24.5719L120.815 25.9791C130.744 27.9336 136.842 31.9207 136.842 40.8332C136.842 50.9965 129.102 56.7818 116.672 56.7818ZM154.199 56V6.98147H136.921V1.27437H177.887V6.98147H160.609V56H154.199Z"
		fill="black" />
</svg>