<svg width="380" height="57" viewBox="0 0 380 57" fill="none" xmlns="http://www.w3.org/2000/svg">
	<path
		d="M0.221691 56V1.27437H21.721C35.7933 1.27437 42.2041 8.54506 42.2041 19.1775C42.2041 29.7317 35.7933 37.0024 21.721 37.0024H10.4632V56H0.221691ZM10.4632 28.0118H21.3301C28.3663 28.0118 31.5717 24.65 31.5717 19.1775C31.5717 13.6267 28.3663 10.265 21.3301 10.265H10.4632V28.0118ZM87.95 56H77.7085L66.7634 37.0024H55.7401V56H45.4986V1.27437H66.998C81.0703 1.27437 87.481 8.54506 87.481 19.1775C87.481 27.1518 83.8847 33.1716 76.0668 35.7515L87.95 56ZM55.7401 10.265V28.0118H66.6071C73.6432 28.0118 76.8486 24.65 76.8486 19.1775C76.8486 13.6267 73.6432 10.265 66.6071 10.265H55.7401ZM115.858 56.7818C100.535 56.7818 90.1372 45.7585 90.1372 28.6372C90.1372 11.4377 100.535 0.570754 115.858 0.570754C131.181 0.570754 141.658 11.4377 141.658 28.6372C141.658 45.7585 131.181 56.7818 115.858 56.7818ZM115.858 47.8693C125.24 47.8693 131.025 40.5986 131.025 28.6372C131.025 16.5975 125.24 9.48322 115.858 9.48322C106.477 9.48322 100.691 16.5975 100.691 28.6372C100.691 40.5986 106.477 47.8693 115.858 47.8693ZM145.748 56V1.27437H165.606C182.727 1.27437 191.483 11.125 191.483 28.6372C191.483 46.1494 182.727 56 165.606 56H145.748ZM155.99 47.0094H164.59C176.551 47.0094 181.007 41.3804 181.007 28.6372C181.007 15.8939 176.551 10.265 164.59 10.265H155.99V47.0094ZM217.731 56.7818C204.441 56.7818 195.606 49.5893 195.606 35.2824V1.27437H205.926V34.5006C205.926 43.2567 210.304 47.7912 217.731 47.7912C225.158 47.7912 229.458 43.2567 229.458 34.5006V1.27437H239.856V35.2824C239.856 49.5893 230.865 56.7818 217.731 56.7818ZM269.238 56.7818C253.993 56.7818 243.986 46.5403 243.986 28.6372C243.986 10.8123 253.993 0.570754 269.238 0.570754C281.199 0.570754 290.581 6.5124 291.832 19.4902H281.825C280.027 12.5322 275.492 9.48322 269.238 9.48322C259.309 9.48322 254.54 17.223 254.54 28.6372C254.54 40.0514 259.153 47.8693 269.238 47.8693C275.336 47.8693 280.027 44.8203 281.825 37.7842H291.832C290.581 50.8402 281.199 56.7818 269.238 56.7818ZM308.398 56V10.265H292.137V1.27437H334.901V10.265H318.639V56H308.398ZM357.51 56.7818C343.594 56.7818 335.15 50.0584 335.15 38.6442H345.705C346.017 43.9604 349.457 48.1821 357.588 48.1821C364.624 48.1821 368.299 45.2112 368.299 40.2077C368.299 35.8297 365.25 33.797 359.933 32.7807L352.272 31.2953C343.359 29.5753 336.636 25.4318 336.636 16.0503C336.636 6.04332 344.61 0.570754 356.806 0.570754C369.159 0.570754 377.68 6.27786 377.68 16.7539H367.126C367.126 11.8286 363.061 9.1705 356.963 9.1705C350.005 9.1705 347.425 12.6104 347.425 16.363C347.425 19.412 349.145 22.3046 354.617 23.321L361.888 24.7282C373.927 26.9954 379.166 31.6862 379.166 40.2077C379.166 51.4656 369.94 56.7818 357.51 56.7818Z"
		fill="#F3E7D3" />
</svg>