<svg width="1920" height="4199" viewBox="0 0 1920 4199" fill="none" xmlns="http://www.w3.org/2000/svg">
	<rect x="-8" y="-18" width="1964" height="4217" fill="#F3E7D3" />
	<path
		d="M544.222 781V726.274H565.721C579.793 726.274 586.204 733.545 586.204 744.177C586.204 754.732 579.793 762.002 565.721 762.002H554.463V781H544.222ZM554.463 753.012H565.33C572.366 753.012 575.572 749.65 575.572 744.177C575.572 738.627 572.366 735.265 565.33 735.265H554.463V753.012ZM631.95 781H621.709L610.763 762.002H599.74V781H589.499V726.274H610.998C625.07 726.274 631.481 733.545 631.481 744.177C631.481 752.152 627.885 758.172 620.067 760.752L631.95 781ZM599.74 735.265V753.012H610.607C617.643 753.012 620.849 749.65 620.849 744.177C620.849 738.627 617.643 735.265 610.607 735.265H599.74ZM659.858 781.782C644.535 781.782 634.137 770.758 634.137 753.637C634.137 736.438 644.535 725.571 659.858 725.571C675.181 725.571 685.658 736.438 685.658 753.637C685.658 770.758 675.181 781.782 659.858 781.782ZM659.858 772.869C669.24 772.869 675.025 765.599 675.025 753.637C675.025 741.598 669.24 734.483 659.858 734.483C650.477 734.483 644.691 741.598 644.691 753.637C644.691 765.599 650.477 772.869 659.858 772.869ZM689.748 781V726.274H709.606C726.727 726.274 735.483 736.125 735.483 753.637C735.483 771.149 726.727 781 709.606 781H689.748ZM699.99 772.009H708.59C720.551 772.009 725.007 766.38 725.007 753.637C725.007 740.894 720.551 735.265 708.59 735.265H699.99V772.009ZM761.731 781.782C748.441 781.782 739.606 774.589 739.606 760.282V726.274H749.926V759.501C749.926 768.257 754.304 772.791 761.731 772.791C769.158 772.791 773.458 768.257 773.458 759.501V726.274H783.856V760.282C783.856 774.589 774.865 781.782 761.731 781.782ZM813.238 781.782C797.993 781.782 787.986 771.54 787.986 753.637C787.986 735.812 797.993 725.571 813.238 725.571C825.199 725.571 834.581 731.512 835.832 744.49H825.825C824.027 737.532 819.492 734.483 813.238 734.483C803.309 734.483 798.54 742.223 798.54 753.637C798.54 765.051 803.153 772.869 813.238 772.869C819.336 772.869 824.027 769.82 825.825 762.784H835.832C834.581 775.84 825.199 781.782 813.238 781.782ZM852.398 781V735.265H836.137V726.274H878.901V735.265H862.639V781H852.398ZM901.51 781.782C887.594 781.782 879.15 775.058 879.15 763.644H889.705C890.017 768.96 893.457 773.182 901.588 773.182C908.624 773.182 912.299 770.211 912.299 765.208C912.299 760.83 909.25 758.797 903.933 757.781L896.272 756.295C887.359 754.575 880.636 750.432 880.636 741.05C880.636 731.043 888.61 725.571 900.806 725.571C913.159 725.571 921.68 731.278 921.68 741.754H911.126C911.126 736.829 907.061 734.17 900.963 734.17C894.005 734.17 891.425 737.61 891.425 741.363C891.425 744.412 893.145 747.305 898.617 748.321L905.888 749.728C917.927 751.995 923.166 756.686 923.166 765.208C923.166 776.466 913.94 781.782 901.51 781.782Z"
		fill="#F3E7D3" />
</svg>