<svg width="393" height="57" viewBox="0 0 393 57" fill="none" xmlns="http://www.w3.org/2000/svg">
	<path
		d="M21.392 56.7818C7.71059 56.7818 0.361717 49.8238 0.361717 40.0514H6.85061C7.24151 46.3057 11.5414 51.2311 21.4702 51.2311C30.3826 51.2311 34.8389 47.0875 34.8389 40.9895C34.8389 34.8134 30.3826 32.3116 24.0501 31.0607L16.8576 29.6535C7.24151 27.699 1.92531 23.0864 1.92531 15.1903C1.92531 6.43422 8.57056 0.570754 20.6884 0.570754C32.5717 0.570754 39.9205 6.27786 39.9205 15.1121H33.5098C33.2753 9.95229 28.9754 6.04332 20.6884 6.04332C12.0105 6.04332 8.64874 10.3432 8.64874 15.2685C8.64874 19.7247 11.385 23.1646 18.4994 24.5719L25.5355 25.9791C35.4643 27.9336 41.5623 31.9207 41.5623 40.8332C41.5623 50.9965 33.8225 56.7818 21.392 56.7818ZM48.6986 56V1.27437H55.1093V56H48.6986ZM63.797 56V1.27437H71.5368L91.7071 47.6348L111.799 1.27437H119.617V56H113.128V13.1576H112.894L94.3652 56H89.049L70.4423 13.1576H70.2077V56H63.797ZM128.216 56V1.27437H135.955L156.126 47.6348L176.218 1.27437H184.036V56H177.547V13.1576H177.312L158.784 56H153.468L134.861 13.1576H134.626V56H128.216ZM192.634 56V1.27437H227.424V6.98147H199.045V25.2755H225.079V30.5135H199.045V50.2929H228.206V56H192.634ZM274.091 56H267.602L255.172 34.8915H254.39H240.865V56H234.454V1.27437H254.39C267.211 1.27437 273.7 7.68509 273.7 18.1611C273.7 26.4482 269.479 32.2334 261.192 34.1879L274.091 56ZM240.865 6.98147V29.1844H254.155C262.755 29.1844 267.133 25.2755 267.133 18.1611C267.133 10.8904 262.755 6.98147 254.155 6.98147H240.865ZM280.397 56V1.27437H286.808V56H280.397ZM295.495 56V1.27437H302.688L331.614 46.0712H331.771V1.27437H338.259V56H330.832L302.141 11.3595H301.906V56H295.495ZM370.556 56.7818C355.468 56.7818 345.304 47.0875 345.304 28.6372C345.304 10.265 355.624 0.570754 370.243 0.570754C380.798 0.570754 388.616 5.57424 390.883 15.3467H384.472C382.361 9.32686 377.358 6.19968 370.243 6.19968C358.986 6.19968 351.871 14.0958 351.871 28.559C351.871 43.1786 359.064 51.1529 370.4 51.1529C380.094 51.1529 386.427 45.3676 386.427 33.2498H372.667V27.9336H392.759V31.2953C392.759 48.1821 384.863 56.7818 370.556 56.7818Z"
		fill="black" />
</svg>