<svg width="207" height="35" viewBox="0 0 207 35" fill="none" xmlns="http://www.w3.org/2000/svg">
	<path
		d="M14.8015 32.4134C7.15267 32.4134 1.77783 27.2867 1.77783 17.5293C1.77783 7.77188 7.15267 2.68646 14.8015 2.68646C20.7138 2.68646 25.1791 5.62195 26.13 11.4929H22.781C21.7474 7.68919 18.8533 5.66329 14.8015 5.66329C8.97185 5.66329 5.2508 9.83913 5.2508 17.5293C5.2508 25.2194 8.97185 29.4366 14.8015 29.4366C18.8533 29.4366 21.7474 27.4107 22.781 23.5243H26.13C25.1791 29.478 20.7138 32.4134 14.8015 32.4134ZM28.1191 32V3.05856H31.5093V28.9818H46.3522V32H28.1191ZM48.4297 32V3.05856H51.82V32H48.4297ZM67.3757 32.4134C59.7269 32.4134 54.3521 27.2867 54.3521 17.5293C54.3521 7.77188 59.7269 2.68646 67.3757 2.68646C73.2881 2.68646 77.7533 5.62195 78.7042 11.4929H75.3553C74.3217 7.68919 71.4275 5.66329 67.3757 5.66329C61.5461 5.66329 57.8251 9.83913 57.8251 17.5293C57.8251 25.2194 61.5461 29.4366 67.3757 29.4366C71.4275 29.4366 74.3217 27.4107 75.3553 23.5243H78.7042C77.7533 29.478 73.2881 32.4134 67.3757 32.4134ZM99.6293 32L88.5075 18.7696L84.0836 23.6897V32H80.6933V3.05856H84.0836V19.1417L98.513 3.05856H102.606L90.6574 16.3716L103.64 32H99.6293ZM125.645 32.4134C118.12 32.4134 112.539 27.1213 112.539 17.5293C112.539 7.93726 118.12 2.68646 125.645 2.68646C133.17 2.68646 138.793 7.93726 138.793 17.5293C138.793 27.1213 133.17 32.4134 125.645 32.4134ZM125.645 29.4366C131.268 29.4366 135.32 25.3848 135.32 17.5293C135.32 9.67375 131.268 5.66329 125.645 5.66329C120.063 5.66329 116.012 9.67375 116.012 17.5293C116.012 25.3848 120.063 29.4366 125.645 29.4366ZM141.262 32V3.05856H145.066L160.363 26.7492H160.446V3.05856H163.878V32H159.95L144.776 8.39205H144.652V32H141.262ZM167.185 32V3.05856H185.583V6.07674H170.575V15.7515H184.343V18.5216H170.575V28.9818H185.997V32H167.185Z"
		fill="black" />
	<g clip-path="url(#clip0_692_2)">
		<path d="M199.818 0.000244141V33.2651" stroke="black" stroke-width="2" stroke-miterlimit="10" />
		<path d="M193.494 28.5907L200.379 33.5267L206.323 28.0381" stroke="black" stroke-width="2" stroke-miterlimit="10" />
	</g>
	<defs>
		<clipPath id="clip0_692_2">
			<rect width="13.8923" height="34.6148" fill="white" transform="translate(193)" />
		</clipPath>
	</defs>
</svg>