<svg width="9" height="38" viewBox="0 0 9 38" fill="none" xmlns="http://www.w3.org/2000/svg">
	<path
		d="M9 37.3863L0.739071 37.3863L0.739071 31.9223L2.27324 31.9223L2.27324 35.6161L4.20866 35.6161L4.20866 32.5596L5.63662 32.5596L5.63662 35.6161L9 35.6161L9 37.3863ZM9 30.7195L0.739071 30.7195L0.739071 28.9493L9 28.9493L9 30.7195ZM9 27.4294L0.739071 27.4294L0.739071 25.6592L7.46583 25.6592L7.46583 21.8592L9 21.8592L9 27.4294ZM9 19.5968L2.27324 19.5968L2.27324 21.9925L0.739071 21.9925L0.73907 15.431L2.27324 15.431L2.27324 17.8266L9 17.8266L9 19.5968ZM9 14.3263L0.73907 14.3263L0.73907 8.68523L2.27324 8.68523L2.27324 12.5561L4.12605 12.5561L4.12605 9.03927L5.50681 9.03927L5.50681 12.5561L7.46583 12.5561L7.46583 8.56722L9 8.56722L9 14.3263ZM9 0.821029L9 2.56763L6.25029 4.1372L6.25029 5.62417L9 5.62417L9 7.39437L0.73907 7.39437L0.73907 4.05459C0.73907 1.85955 1.8838 0.903639 3.50058 0.903639C4.68071 0.903639 5.60122 1.4111 6.01426 2.55582L9 0.821029ZM2.27324 5.62417L4.71612 5.62417L4.71612 4.1136C4.71612 3.14589 4.23226 2.72104 3.50058 2.72104C2.7571 2.72104 2.27324 3.14589 2.27324 4.1136L2.27324 5.62417Z"
		fill="black" />
</svg>