<svg width="194" height="31" viewBox="0 0 194 31" fill="none" xmlns="http://www.w3.org/2000/svg">
	<path
		d="M0.398005 30V1.05856H10.941C17.7215 1.05856 21.1531 4.44884 21.1531 9.98906C21.1531 15.4466 17.7215 18.8369 10.941 18.8369H3.78829V30H0.398005ZM3.78829 15.8187H10.8169C15.3649 15.8187 17.6802 13.7515 17.6802 9.98906C17.6802 6.14399 15.3649 4.07674 10.8169 4.07674H3.78829V15.8187ZM44.1739 30H40.7422L34.1684 18.8369H33.7549H26.6023V30H23.212V1.05856H33.7549C40.5355 1.05856 43.9671 4.44884 43.9671 9.98906C43.9671 14.3716 41.7345 17.4311 37.352 18.4648L44.1739 30ZM26.6023 4.07674V15.8187H33.6309C38.1789 15.8187 40.4942 13.7515 40.4942 9.98906C40.4942 6.14399 38.1789 4.07674 33.6309 4.07674H26.6023ZM58.7544 30.4134C51.2296 30.4134 45.6481 25.1213 45.6481 15.5293C45.6481 5.93726 51.2296 0.686457 58.7544 0.686457C66.2792 0.686457 71.9021 5.93726 71.9021 15.5293C71.9021 25.1213 66.2792 30.4134 58.7544 30.4134ZM58.7544 27.4366C64.3773 27.4366 68.4291 23.3848 68.4291 15.5293C68.4291 7.67375 64.3773 3.66329 58.7544 3.66329C53.1728 3.66329 49.121 7.67375 49.121 15.5293C49.121 23.3848 53.1728 27.4366 58.7544 27.4366ZM74.3715 30V1.05856H83.7154C92.894 1.05856 97.4006 6.26802 97.4006 15.5293C97.4006 24.7492 92.894 30 83.7154 30H74.3715ZM77.7618 26.9818H83.426C90.7441 26.9818 93.969 23.2608 93.969 15.5293C93.969 7.79778 90.7441 4.07674 83.426 4.07674H77.7618V26.9818ZM111.053 30.4134C104.231 30.4134 99.931 26.3616 99.931 19.0436V1.05856H103.363V18.8369C103.363 24.3771 106.215 27.3953 111.053 27.3953C115.89 27.3953 118.743 24.3771 118.743 18.8369V1.05856H122.175V19.0436C122.175 26.3616 117.833 30.4134 111.053 30.4134ZM137.733 30.4134C130.084 30.4134 124.709 25.2867 124.709 15.5293C124.709 5.77188 130.084 0.686457 137.733 0.686457C143.645 0.686457 148.11 3.62195 149.061 9.49292H145.712C144.678 5.68919 141.784 3.66329 137.733 3.66329C131.903 3.66329 128.182 7.83913 128.182 15.5293C128.182 23.2194 131.903 27.4366 137.733 27.4366C141.784 27.4366 144.678 25.4107 145.712 21.5243H149.061C148.11 27.478 143.645 30.4134 137.733 30.4134ZM158.543 30V4.07674H149.406V1.05856H171.071V4.07674H161.934V30H158.543ZM182.67 30.4134C175.435 30.4134 171.548 26.7338 171.548 21.5656H174.98C175.187 24.8732 177.46 27.478 182.711 27.478C187.425 27.478 189.781 25.2867 189.781 22.0618C189.781 18.7955 187.425 17.4725 184.076 16.811L180.272 16.0668C175.187 15.0331 172.375 12.5938 172.375 8.41796C172.375 3.78733 175.889 0.686457 182.298 0.686457C188.582 0.686457 192.469 3.70464 192.469 8.37661H189.078C188.954 5.64785 186.68 3.5806 182.298 3.5806C177.709 3.5806 175.931 5.85457 175.931 8.4593C175.931 10.816 177.378 12.6351 181.14 13.3793L184.861 14.1236C190.112 15.1572 193.337 17.2658 193.337 21.9791C193.337 27.3539 189.244 30.4134 182.67 30.4134Z"
		fill="black" />
</svg>