<svg width="195" height="31" viewBox="0 0 195 31" fill="none" xmlns="http://www.w3.org/2000/svg">
	<path
		d="M0.398005 30V1.05856H10.941C17.7215 1.05856 21.1531 4.44884 21.1531 9.98906C21.1531 15.4466 17.7215 18.8369 10.941 18.8369H3.78829V30H0.398005ZM3.78829 15.8187H10.8169C15.3649 15.8187 17.6802 13.7515 17.6802 9.98906C17.6802 6.14399 15.3649 4.07674 10.8169 4.07674H3.78829V15.8187ZM35.6982 30.4134C28.1734 30.4134 22.5918 25.1213 22.5918 15.5293C22.5918 5.93726 28.1734 0.686457 35.6982 0.686457C43.2229 0.686457 48.8458 5.93726 48.8458 15.5293C48.8458 25.1213 43.2229 30.4134 35.6982 30.4134ZM35.6982 27.4366C41.3211 27.4366 45.3729 23.3848 45.3729 15.5293C45.3729 7.67375 41.3211 3.66329 35.6982 3.66329C30.1166 3.66329 26.0648 7.67375 26.0648 15.5293C26.0648 23.3848 30.1166 27.4366 35.6982 27.4366ZM72.2771 30H68.8455L62.2716 18.8369H61.8582H54.7055V30H51.3152V1.05856H61.8582C68.6387 1.05856 72.0704 4.44884 72.0704 9.98906C72.0704 14.3716 69.8378 17.4311 65.4552 18.4648L72.2771 30ZM54.7055 4.07674V15.8187H61.7341C66.2821 15.8187 68.5974 13.7515 68.5974 9.98906C68.5974 6.14399 66.2821 4.07674 61.7341 4.07674H54.7055ZM81.4608 30V4.07674H72.3236V1.05856H93.9883V4.07674H84.8511V30H81.4608ZM116.855 30H113.424L106.85 18.8369H106.436H99.2837V30H95.8934V1.05856H106.436C113.217 1.05856 116.649 4.44884 116.649 9.98906C116.649 14.3716 114.416 17.4311 110.033 18.4648L116.855 30ZM99.2837 4.07674V15.8187H106.312C110.86 15.8187 113.176 13.7515 113.176 9.98906C113.176 6.14399 110.86 4.07674 106.312 4.07674H99.2837ZM139.999 30L137.312 22.7646H123.585L120.898 30H117.301L128.34 1.05856H132.557L143.596 30H139.999ZM124.577 20.1186H136.319L130.572 4.73826H130.324L124.577 20.1186ZM145.276 30V1.05856H148.667V30H145.276ZM159.716 30V4.07674H150.579V1.05856H172.243V4.07674H163.106V30H159.716ZM183.842 30.4134C176.607 30.4134 172.721 26.7338 172.721 21.5656H176.152C176.359 24.8732 178.633 27.478 183.884 27.478C188.597 27.478 190.954 25.2867 190.954 22.0618C190.954 18.7955 188.597 17.4725 185.248 16.811L181.444 16.0668C176.359 15.0331 173.548 12.5938 173.548 8.41796C173.548 3.78733 177.062 0.686457 183.47 0.686457C189.755 0.686457 193.641 3.70464 193.641 8.37661H190.251C190.127 5.64785 187.853 3.5806 183.47 3.5806C178.881 3.5806 177.103 5.85457 177.103 8.4593C177.103 10.816 178.55 12.6351 182.313 13.3793L186.034 14.1236C191.285 15.1572 194.509 17.2658 194.509 21.9791C194.509 27.3539 190.416 30.4134 183.842 30.4134Z"
		fill="black" />
</svg>