<svg width="122" height="31" viewBox="0 0 122 31" fill="none" xmlns="http://www.w3.org/2000/svg">
	<path
		d="M0.398005 30V1.05856H10.941C17.7215 1.05856 21.1531 4.44884 21.1531 9.98906C21.1531 15.4466 17.7215 18.8369 10.941 18.8369H3.78829V30H0.398005ZM3.78829 15.8187H10.8169C15.3649 15.8187 17.6802 13.7515 17.6802 9.98906C17.6802 6.14399 15.3649 4.07674 10.8169 4.07674H3.78829V15.8187ZM41.8586 1.05856H45.2902V30H41.8586V17.2244H26.6023V30H23.212V1.05856H26.6023V14.3716H41.8586V1.05856ZM60.8943 30.4134C53.3696 30.4134 47.788 25.1213 47.788 15.5293C47.788 5.93726 53.3696 0.686457 60.8943 0.686457C68.4191 0.686457 74.042 5.93726 74.042 15.5293C74.042 25.1213 68.4191 30.4134 60.8943 30.4134ZM60.8943 27.4366C66.5172 27.4366 70.569 23.3848 70.569 15.5293C70.569 7.67375 66.5172 3.66329 60.8943 3.66329C55.3128 3.66329 51.261 7.67375 51.261 15.5293C51.261 23.3848 55.3128 27.4366 60.8943 27.4366ZM83.1566 30V4.07674H74.0194V1.05856H95.6841V4.07674H86.5469V30H83.1566ZM108.824 30.4134C101.299 30.4134 95.7174 25.1213 95.7174 15.5293C95.7174 5.93726 101.299 0.686457 108.824 0.686457C116.349 0.686457 121.971 5.93726 121.971 15.5293C121.971 25.1213 116.349 30.4134 108.824 30.4134ZM108.824 27.4366C114.447 27.4366 118.498 23.3848 118.498 15.5293C118.498 7.67375 114.447 3.66329 108.824 3.66329C103.242 3.66329 99.1904 7.67375 99.1904 15.5293C99.1904 23.3848 103.242 27.4366 108.824 27.4366Z"
		fill="black" />
</svg>