<svg width="32" height="69" viewBox="0 0 32 69" fill="none" xmlns="http://www.w3.org/2000/svg">
	<path
		d="M13.1751 63.2233C13.1751 66.3567 11.6871 68.3523 8.99135 68.3523L8.99135 65.639C10.0942 65.5865 11.0044 64.8863 11.0044 63.2058C11.0044 61.7879 10.4093 61.0352 9.41147 61.0352C8.57123 61.0352 8.15111 61.5954 7.94105 62.6982L7.60845 64.4662C7.22334 66.3918 6.34809 68.0197 4.12495 68.0197C1.77928 68.0197 0.588936 66.1292 0.588936 63.3809C0.588935 60.5801 1.8493 58.5845 4.35252 58.5845L4.35252 61.2803C3.2497 61.2453 2.75956 62.1555 2.75956 63.3459C2.75956 64.7463 3.47727 65.2714 4.22998 65.2714C4.79014 65.2714 5.38531 64.9738 5.57787 63.871L5.89296 62.2256C6.43561 59.3547 7.53843 58.2519 9.39396 58.2519C12.0372 58.2519 13.175 60.44 13.1751 63.2233ZM13 56.3374L0.746481 56.3374L0.74648 53.7117L13 53.7117L13 56.3374ZM13 51.4572L0.74648 51.4572L0.74648 48.1488L9.42897 44.9454L0.74648 41.7244L0.74648 38.416L13 38.416L13 41.0417L5.28028 41.0417L5.28028 41.1293L13 43.9651L13 45.9256L5.28028 48.7439L5.28028 48.8315L13 48.8315L13 51.4572ZM13 36.1663L0.74648 36.1663L0.746479 32.8579L9.42897 29.6544L0.746479 26.4335L0.746479 23.1251L13 23.1251L13 25.7508L5.28028 25.7508L5.28028 25.8383L13 28.6742L13 30.6347L5.28028 33.453L5.28028 33.5406L13 33.5406L13 36.1663ZM13 20.8754L0.746479 20.8754L0.746479 12.508L3.02213 12.508L3.02213 18.2496L5.77042 18.2496L5.77042 13.0332L7.81851 13.0332L7.81851 18.2496L10.7243 18.2496L10.7243 12.3329L13 12.3329L13 20.8754ZM13 0.842948L13 3.43369L8.92133 5.76186L8.92133 7.96749L13 7.96749L13 10.5932L0.746479 10.5932L0.746478 5.63933C0.746478 2.38339 2.44447 0.965483 4.84265 0.965483C6.59316 0.965483 7.95855 1.7182 8.57123 3.41619L13 0.842948ZM3.02213 7.96749L6.64567 7.96749L6.64567 5.72685C6.64567 4.29144 5.92797 3.66126 4.84265 3.66126C3.73984 3.66126 3.02213 4.29144 3.02213 5.72685L3.02213 7.96749ZM31.1751 63.2233C31.1751 66.3567 29.6871 68.3523 26.9913 68.3523L26.9913 65.639C28.0942 65.5865 29.0044 64.8863 29.0044 63.2058C29.0044 61.7879 28.4093 61.0352 27.4115 61.0352C26.5712 61.0352 26.1511 61.5954 25.941 62.6982L25.6085 64.4662C25.2233 66.3917 24.3481 68.0197 22.125 68.0197C19.7793 68.0197 18.5889 66.1292 18.5889 63.3809C18.5889 60.5801 19.8493 58.5845 22.3525 58.5845L22.3525 61.2803C21.2497 61.2453 20.7596 62.1555 20.7596 63.3459C20.7596 64.7463 21.4773 65.2714 22.23 65.2714C22.7901 65.2714 23.3853 64.9738 23.5779 63.871L23.893 62.2256C24.4356 59.3547 25.5384 58.2519 27.394 58.2519C30.0372 58.2519 31.175 60.44 31.1751 63.2233ZM31 56.3374L18.7465 56.3374L18.7465 53.6067L26.7988 48.6702L26.7988 48.6177L18.7465 48.6177L18.7465 45.992L31 45.992L31 48.8278L23.1052 53.6592L23.1052 53.7117L31 53.7117L31 56.3374ZM31 34.9408L28.7068 35.7286L28.7068 40.8925L31 41.6803L31 44.4285L18.7465 39.9998L18.7465 36.6213L31 32.1925L31 34.9408ZM26.7638 40.2273L26.7638 36.3937L21.4247 38.2318L21.4247 38.3893L26.7638 40.2273ZM31 30.6276L18.7465 30.6276L18.7465 25.6737C18.7465 22.4178 20.4445 20.9998 22.8427 20.9998C25.2233 20.9998 26.9213 22.4178 26.9213 25.6737L26.9213 28.0019L31 28.0019L31 30.6276ZM24.6457 28.0019L24.6457 25.7612C24.6457 24.3258 23.928 23.6956 22.8427 23.6956C21.7398 23.6956 21.0221 24.3258 21.0221 25.7612L21.0221 28.0019L24.6457 28.0019Z"
		fill="black" />
</svg>