<svg width="260" height="69" viewBox="0 0 260 69" fill="none" xmlns="http://www.w3.org/2000/svg">
	<path
		d="M24.5962 68.0893C21.8124 68.0893 19.0588 67.817 16.3355 67.2723C13.6122 66.7277 11.1309 65.7594 8.89178 64.3675C6.71313 62.915 4.89759 60.8574 3.44516 58.1946C1.99273 55.4713 1.11522 51.9915 0.812631 47.7553L12.9767 45.9398C13.3398 48.2394 13.8542 50.297 14.5199 52.1126C15.2462 53.8676 16.396 55.2595 17.9695 56.2883C19.6035 57.2566 21.9334 57.7408 24.9593 57.7408C27.8036 57.7408 30.1941 57.1356 32.1307 55.9252C34.1278 54.6543 35.1263 52.4454 35.1263 49.2985C35.1263 47.1804 34.5514 45.5161 33.4015 44.3058C32.2517 43.0954 30.7085 42.1271 28.7719 41.4009C26.8959 40.6747 24.8383 40.009 22.5991 39.4038C20.3599 38.7986 18.0905 38.1027 15.7908 37.3159C13.4911 36.5292 11.373 35.4702 9.43644 34.1388C7.56038 32.7468 6.01717 30.901 4.80682 28.6014C3.65697 26.3017 3.08205 23.3666 3.08205 19.796C3.08205 15.5597 4.05034 11.9892 5.98692 9.08433C7.98401 6.11895 10.6771 3.87978 14.0661 2.36683C17.4551 0.853884 21.3282 0.0974082 25.6855 0.0974082C29.4981 0.0974082 33.0082 0.611811 36.2156 1.64062C39.4231 2.66942 42.0556 4.54548 44.1132 7.26878C46.2314 9.99209 47.4417 13.9258 47.7443 19.0698L35.4894 20.5222C35.3079 18.3436 34.9145 16.528 34.3093 15.0756C33.7647 13.5627 32.8266 12.4128 31.4952 11.6261C30.1638 10.8393 28.197 10.446 25.5947 10.446C22.3873 10.446 19.9968 11.1117 18.4234 12.4431C16.9104 13.7745 16.1539 15.59 16.1539 17.8897C16.1539 19.9473 16.7289 21.5813 17.8787 22.7916C19.089 23.9415 20.6625 24.8795 22.5991 25.6057C24.5357 26.3319 26.6235 27.0279 28.8627 27.6936C31.1019 28.3593 33.3713 29.1158 35.671 29.963C37.9707 30.8103 40.0585 31.9298 41.9346 33.3218C43.8711 34.7137 45.4144 36.5595 46.5642 38.8592C47.7746 41.0983 48.3797 43.9427 48.3797 47.3922C48.3797 52.2941 47.2602 56.2883 45.021 59.3747C42.8423 62.4006 39.9375 64.6095 36.3064 66.0015C32.7358 67.3934 28.8324 68.0893 24.5962 68.0893ZM66.2734 67H54.5632V1.27751H70.0861L88.9677 46.7567H89.4215V1.27751H101.041V67H86.3351L66.7273 20.5222H66.2734V67ZM120.478 1.27751H138.906L156.879 67H141.629L137.907 50.7509H122.021L118.572 67H104.138L120.478 1.27751ZM135.728 39.8577L129.737 13.1693H129.465L123.837 39.8577H135.728ZM175.045 67H161.066V1.27751H186.393C192.021 1.27751 196.408 2.27605 199.555 4.27315C202.763 6.20972 205.002 8.72122 206.273 11.8076C207.604 14.894 208.27 18.1923 208.27 21.7023C208.27 29.5696 206.182 35.4701 202.006 39.4038C197.83 43.277 191.779 45.2135 183.851 45.2135H175.045V67ZM175.045 11.9892V34.5926H182.943C184.698 34.5926 186.423 34.29 188.117 33.6849C189.812 33.0192 191.204 31.8391 192.293 30.1446C193.382 28.4501 193.927 25.9688 193.927 22.7009C193.927 19.675 193.382 17.4055 192.293 15.8926C191.204 14.3191 189.782 13.2903 188.027 12.8062C186.272 12.2615 184.335 11.9892 182.217 11.9892H175.045ZM235.241 68.0893C232.457 68.0893 229.704 67.817 226.98 67.2723C224.257 66.7277 221.776 65.7594 219.537 64.3675C217.358 62.915 215.543 60.8574 214.09 58.1946C212.638 55.4713 211.76 51.9915 211.458 47.7553L223.622 45.9398C223.985 48.2394 224.499 50.297 225.165 52.1126C225.891 53.8676 227.041 55.2595 228.614 56.2883C230.248 57.2566 232.578 57.7408 235.604 57.7408C238.449 57.7408 240.839 57.1356 242.776 55.9252C244.773 54.6543 245.771 52.4454 245.771 49.2985C245.771 47.1804 245.196 45.5161 244.047 44.3058C242.897 43.0954 241.354 42.1271 239.417 41.4009C237.541 40.6747 235.483 40.009 233.244 39.4038C231.005 38.7986 228.736 38.1027 226.436 37.3159C224.136 36.5292 222.018 35.4702 220.081 34.1388C218.205 32.7468 216.662 30.901 215.452 28.6014C214.302 26.3017 213.727 23.3666 213.727 19.796C213.727 15.5597 214.695 11.9892 216.632 9.08433C218.629 6.11895 221.322 3.87978 224.711 2.36683C228.1 0.853884 231.973 0.0974082 236.331 0.0974082C240.143 0.0974082 243.653 0.611811 246.861 1.64062C250.068 2.66942 252.701 4.54548 254.758 7.26878C256.876 9.99209 258.087 13.9258 258.389 19.0698L246.134 20.5222C245.953 18.3436 245.559 16.528 244.954 15.0756C244.41 13.5627 243.472 12.4128 242.14 11.6261C240.809 10.8393 238.842 10.446 236.24 10.446C233.032 10.446 230.642 11.1117 229.068 12.4431C227.555 13.7745 226.799 15.59 226.799 17.8897C226.799 19.9473 227.374 21.5813 228.524 22.7916C229.734 23.9415 231.308 24.8795 233.244 25.6057C235.181 26.3319 237.269 27.0279 239.508 27.6936C241.747 28.3593 244.016 29.1158 246.316 29.963C248.616 30.8103 250.704 31.9298 252.58 33.3218C254.516 34.7137 256.059 36.5595 257.209 38.8592C258.42 41.0983 259.025 43.9427 259.025 47.3922C259.025 52.2941 257.905 56.2883 255.666 59.3747C253.487 62.4006 250.582 64.6095 246.951 66.0015C243.381 67.3934 239.477 68.0893 235.241 68.0893Z"
		fill="black" />
</svg>