<svg width="108" height="31" viewBox="0 0 108 31" fill="none" xmlns="http://www.w3.org/2000/svg">
	<path
		d="M11.1967 30L0.157658 1.05856H3.75466L13.1813 26.3203H13.4294L22.856 1.05856H26.453L15.4139 30H11.1967ZM28.3707 30V1.05856H31.761V30H28.3707ZM35.1151 30V1.05856H44.4591C53.6376 1.05856 58.1442 6.26802 58.1442 15.5293C58.1442 24.7492 53.6376 30 44.4591 30H35.1151ZM38.5054 26.9818H44.1696C51.4877 26.9818 54.7126 23.2608 54.7126 15.5293C54.7126 7.79778 51.4877 4.07674 44.1696 4.07674H38.5054V26.9818ZM60.6747 30V1.05856H79.0731V4.07674H64.0649V13.7515H77.8328V16.5216H64.0649V26.9818H79.4866V30H60.6747ZM94.0368 30.4134C86.512 30.4134 80.9304 25.1213 80.9304 15.5293C80.9304 5.93726 86.512 0.686457 94.0368 0.686457C101.562 0.686457 107.184 5.93726 107.184 15.5293C107.184 25.1213 101.562 30.4134 94.0368 30.4134ZM94.0368 27.4366C99.6597 27.4366 103.711 23.3848 103.711 15.5293C103.711 7.67375 99.6597 3.66329 94.0368 3.66329C88.4552 3.66329 84.4034 7.67375 84.4034 15.5293C84.4034 23.3848 88.4552 27.4366 94.0368 27.4366Z"
		fill="black" />
</svg>