<svg width="570" height="151" viewBox="0 0 570 151" fill="none" xmlns="http://www.w3.org/2000/svg">
	<path
		d="M53.2414 150.4C47.1081 150.4 41.0414 149.8 35.0414 148.6C29.0414 147.4 23.5747 145.267 18.6414 142.2C13.8414 139 9.84141 134.467 6.64141 128.6C3.44141 122.6 1.50807 114.933 0.841407 105.6L27.6414 101.6C28.4414 106.667 29.5747 111.2 31.0414 115.2C32.6414 119.067 35.1747 122.133 38.6414 124.4C42.2414 126.533 47.3747 127.6 54.0414 127.6C60.3081 127.6 65.5747 126.267 69.8414 123.6C74.2414 120.8 76.4414 115.933 76.4414 109C76.4414 104.333 75.1747 100.667 72.6414 98C70.1081 95.3333 66.7081 93.2 62.4414 91.6C58.3081 90 53.7747 88.5333 48.8414 87.2C43.9081 85.8667 38.9081 84.3333 33.8414 82.6C28.7747 80.8667 24.1081 78.5333 19.8414 75.6C15.7081 72.5333 12.3081 68.4667 9.64141 63.4C7.10807 58.3333 5.84141 51.8667 5.84141 44C5.84141 34.6667 7.97474 26.8 12.2414 20.4C16.6414 13.8667 22.5747 8.93333 30.0414 5.6C37.5081 2.26666 46.0414 0.59999 55.6414 0.59999C64.0414 0.59999 71.7747 1.73333 78.8414 3.99999C85.9081 6.26666 91.7081 10.4 96.2414 16.4C100.908 22.4 103.575 31.0667 104.241 42.4L77.2414 45.6C76.8414 40.8 75.9747 36.8 74.6414 33.6C73.4414 30.2667 71.3747 27.7333 68.4414 26C65.5081 24.2667 61.1747 23.4 55.4414 23.4C48.3747 23.4 43.1081 24.8667 39.6414 27.8C36.3081 30.7333 34.6414 34.7333 34.6414 39.8C34.6414 44.3333 35.9081 47.9333 38.4414 50.6C41.1081 53.1333 44.5747 55.2 48.8414 56.8C53.1081 58.4 57.7081 59.9333 62.6414 61.4C67.5747 62.8667 72.5747 64.5333 77.6414 66.4C82.7081 68.2667 87.3081 70.7333 91.4414 73.8C95.7081 76.8667 99.1081 80.9333 101.641 86C104.308 90.9333 105.641 97.2 105.641 104.8C105.641 115.6 103.175 124.4 98.2414 131.2C93.4414 137.867 87.0414 142.733 79.0414 145.8C71.1747 148.867 62.5747 150.4 53.2414 150.4ZM145.065 148H119.265V3.19999H153.465L195.065 103.4H196.065V3.19999H221.665V148H189.265L146.065 45.6H145.065V148ZM264.488 3.19999H305.088L344.688 148H311.088L302.888 112.2H267.888L260.288 148H228.488L264.488 3.19999ZM298.088 88.2L284.888 29.4H284.288L271.888 88.2H298.088ZM384.712 148H353.912V3.19999H409.712C422.112 3.19999 431.778 5.39999 438.712 9.79999C445.778 14.0667 450.712 19.6 453.512 26.4C456.445 33.2 457.912 40.4667 457.912 48.2C457.912 65.5333 453.312 78.5333 444.112 87.2C434.912 95.7333 421.578 100 404.112 100H384.712V148ZM384.712 26.8V76.6H402.112C405.978 76.6 409.778 75.9333 413.512 74.6C417.245 73.1333 420.312 70.5333 422.712 66.8C425.112 63.0667 426.312 57.6 426.312 50.4C426.312 43.7333 425.112 38.7333 422.712 35.4C420.312 31.9333 417.178 29.6667 413.312 28.6C409.445 27.4 405.178 26.8 400.512 26.8H384.712ZM517.335 150.4C511.202 150.4 505.135 149.8 499.135 148.6C493.135 147.4 487.668 145.267 482.735 142.2C477.935 139 473.935 134.467 470.735 128.6C467.535 122.6 465.602 114.933 464.935 105.6L491.735 101.6C492.535 106.667 493.668 111.2 495.135 115.2C496.735 119.067 499.268 122.133 502.735 124.4C506.335 126.533 511.468 127.6 518.135 127.6C524.402 127.6 529.668 126.267 533.935 123.6C538.335 120.8 540.535 115.933 540.535 109C540.535 104.333 539.268 100.667 536.735 98C534.202 95.3333 530.802 93.2 526.535 91.6C522.402 90 517.868 88.5333 512.935 87.2C508.002 85.8667 503.002 84.3333 497.935 82.6C492.868 80.8667 488.202 78.5333 483.935 75.6C479.802 72.5333 476.402 68.4667 473.735 63.4C471.202 58.3333 469.935 51.8667 469.935 44C469.935 34.6667 472.068 26.8 476.335 20.4C480.735 13.8667 486.668 8.93333 494.135 5.6C501.602 2.26666 510.135 0.59999 519.735 0.59999C528.135 0.59999 535.868 1.73333 542.935 3.99999C550.002 6.26666 555.802 10.4 560.335 16.4C565.002 22.4 567.668 31.0667 568.335 42.4L541.335 45.6C540.935 40.8 540.068 36.8 538.735 33.6C537.535 30.2667 535.468 27.7333 532.535 26C529.602 24.2667 525.268 23.4 519.535 23.4C512.468 23.4 507.202 24.8667 503.735 27.8C500.402 30.7333 498.735 34.7333 498.735 39.8C498.735 44.3333 500.002 47.9333 502.535 50.6C505.202 53.1333 508.668 55.2 512.935 56.8C517.202 58.4 521.802 59.9333 526.735 61.4C531.668 62.8667 536.668 64.5333 541.735 66.4C546.802 68.2667 551.402 70.7333 555.535 73.8C559.802 76.8667 563.202 80.9333 565.735 86C568.402 90.9333 569.735 97.2 569.735 104.8C569.735 115.6 567.268 124.4 562.335 131.2C557.535 137.867 551.135 142.733 543.135 145.8C535.268 148.867 526.668 150.4 517.335 150.4Z"
		fill="black" />
</svg>