<svg width="203" height="57" viewBox="0 0 203 57" fill="none" xmlns="http://www.w3.org/2000/svg">
	<path
		d="M21.0629 56L0.189025 1.27437H6.99064L24.8156 49.042H25.2846L43.1096 1.27437H49.9112L29.0372 56H21.0629ZM53.5374 56V1.27437H59.9481V56H53.5374ZM66.2904 56V1.27437H83.9589C101.315 1.27437 109.836 11.125 109.836 28.6372C109.836 46.0712 101.315 56 83.9589 56H66.2904ZM72.7011 50.2929H83.4117C97.2494 50.2929 103.347 43.2567 103.347 28.6372C103.347 14.0176 97.2494 6.98147 83.4117 6.98147H72.7011V50.2929ZM114.621 56V1.27437H149.411V6.98147H121.032V25.2755H147.066V30.5135H121.032V50.2929H150.193V56H114.621ZM177.706 56.7818C163.477 56.7818 152.923 46.7748 152.923 28.6372C152.923 10.4995 163.477 0.570754 177.706 0.570754C191.935 0.570754 202.567 10.4995 202.567 28.6372C202.567 46.7748 191.935 56.7818 177.706 56.7818ZM177.706 51.1529C188.338 51.1529 196 43.4913 196 28.6372C196 13.7831 188.338 6.19968 177.706 6.19968C167.152 6.19968 159.49 13.7831 159.49 28.6372C159.49 43.4913 167.152 51.1529 177.706 51.1529Z"
		fill="black" />
</svg>