<svg width="902" height="132" viewBox="0 0 902 132" fill="none" xmlns="http://www.w3.org/2000/svg">
	<path
		d="M526.219 129H503.786V3.10034H533.522L569.692 90.2215H570.562V3.10034H592.82V129H564.649L527.088 39.966H526.219V129Z"
		fill="black" />
	<path
		d="M487.594 3.10034V22.5765H460.988V109.524H487.594V129H407.255V109.524H434.208V22.5765H407.255V3.10034H487.594Z"
		fill="black" />
	<path
		d="M198.888 67.963C198.888 58.3409 199.642 49.4722 201.149 41.3572C202.656 33.1261 205.206 25.9965 208.8 19.9681C212.394 13.9398 217.263 9.24463 223.407 5.88267C229.667 2.5207 237.551 0.839722 247.057 0.839722C260.157 0.839722 270.243 4.25965 277.315 11.0995C284.386 17.9394 288.502 28.9527 289.661 44.1395L264.794 46.574C263.867 38.1111 262.07 31.9668 259.403 28.1412C256.853 24.1996 252.506 22.2288 246.361 22.2288C240.101 22.2288 235.58 24.1996 232.798 28.1412C230.015 31.9668 228.276 37.1837 227.581 43.7917C226.885 50.3997 226.537 57.8192 226.537 66.0502C226.537 76.1361 227.001 84.425 227.928 90.9171C228.972 97.4092 230.885 102.22 233.667 105.35C236.565 108.365 240.739 109.872 246.187 109.872C252.332 109.872 257.027 107.727 260.273 103.438C263.519 99.1481 265.142 93.1198 265.142 85.3525V81.8746H244.275V63.4418H291.226V129H272.445L269.663 113.871C266.997 119.552 263.345 123.841 258.708 126.739C254.071 129.638 248.158 131.087 240.971 131.087C230.421 131.087 222.074 128.42 215.93 123.088C209.785 117.639 205.38 110.161 202.714 100.655C200.163 91.149 198.888 80.2516 198.888 67.963Z"
		fill="black" />
	<path d="M184.956 3.10034V22.5765H158.35V109.524H184.956V129H104.617V109.524H131.571V22.5765H104.617V3.10034H184.956Z"
		fill="black" />
	<path
		d="M36.2559 129H0.607544V3.10034H39.2121C51.2688 3.10034 61.0649 5.59283 68.6003 10.5778C76.1357 15.4469 81.6424 22.4606 85.1203 31.6191C88.7141 40.7775 90.511 51.6169 90.511 64.1373C90.511 77.0055 88.5982 88.3087 84.7725 98.0468C80.9468 107.785 75.0344 115.378 67.0353 120.827C59.0361 126.276 48.7763 129 36.2559 129ZM27.5612 23.6199V108.48H35.2126C42.2843 108.48 47.8489 106.741 51.9064 103.264C55.964 99.7857 58.8043 94.8587 60.4273 88.4826C62.1662 82.1064 63.0357 74.513 63.0357 65.7024C63.0357 55.0368 62.0503 46.6319 60.0795 40.4877C58.2246 34.3434 55.3264 29.996 51.3848 27.4456C47.5591 24.8951 42.748 23.6199 36.9515 23.6199H27.5612Z"
		fill="black" />
	<path
		d="M312.372 47.2504C313.469 44.7826 315.662 43.96 317.582 45.8794L347.196 69.1868L344.454 28.3303C344.179 25.5883 345.55 23.6688 348.018 23.6688C350.212 23.6688 351.857 25.5883 351.583 28.3303L348.841 69.1868L378.181 45.8794C380.374 43.96 382.294 44.7826 383.665 47.2504C385.036 49.7183 384.213 52.1861 381.745 53.2829L349.389 70.832L381.745 88.3811C384.213 89.4779 385.036 91.9458 383.665 94.4136C382.294 96.8815 380.374 97.7041 378.181 95.7846L348.841 72.4772L351.583 113.334C351.857 116.076 350.486 117.995 348.018 117.995C345.276 117.995 344.179 116.076 344.454 113.334L346.921 72.4772L317.582 95.7846C315.662 97.7041 313.469 96.6073 312.372 94.4136C311.001 91.9458 311.549 89.4779 314.017 88.3811L346.373 70.832L314.017 53.2829C311.549 52.1861 311.001 49.7183 312.372 47.2504Z"
		fill="#F3E7D3" />
	<path fill-rule="evenodd" clip-rule="evenodd" d="M635.046 122.242V5H639.046V122.242H635.046Z" fill="#F3E7D3" />
	<path fill-rule="evenodd" clip-rule="evenodd"
		d="M661.347 105.289L639.185 125.738L613.576 107.393L615.906 104.141L638.866 120.589L658.635 102.349L661.347 105.289Z"
		fill="#F3E7D3" />
	<path d="M888.107 58V39.1H901.013V42.61H892.157V46.849H900.203V50.008H892.157V54.49H901.283V58H888.107Z"
		fill="#F3E7D3" />
	<path
		d="M885.441 58H881.445L877.854 51.709H874.452V58H870.402V39.1H878.043C883.065 39.1 885.252 41.719 885.252 45.418C885.252 48.118 884.091 50.224 881.472 51.169L885.441 58ZM874.452 42.61V48.199H877.908C880.122 48.199 881.094 47.092 881.094 45.418C881.094 43.717 880.122 42.61 877.908 42.61H874.452Z"
		fill="#F3E7D3" />
	<path d="M862.874 58V39.1H866.924V58H862.874Z" fill="#F3E7D3" />
	<path
		d="M856.222 58L855.007 54.463H847.042L845.827 58H841.588L848.419 39.1H853.63L860.461 58H856.222ZM848.068 51.466H853.981L851.146 43.231H850.903L848.068 51.466Z"
		fill="#F3E7D3" />
	<path d="M823.219 58V39.1H827.431L835.045 51.52H835.126V39.1H839.176V58H834.802L827.35 45.823H827.269V58H823.219Z"
		fill="#F3E7D3" />
	<path d="M803.774 58V39.1H807.986L815.6 51.52H815.681V39.1H819.731V58H815.357L807.905 45.823H807.824V58H803.774Z"
		fill="#F3E7D3" />
	<path
		d="M791.808 58.2701C786.354 58.2701 782.79 54.3281 782.79 48.5501C782.79 42.7451 786.354 38.8571 791.808 38.8571C797.262 38.8571 800.826 42.7451 800.826 48.5501C800.826 54.3281 797.262 58.2701 791.808 58.2701ZM791.808 54.7871C794.913 54.7871 796.668 52.3031 796.668 48.5501C796.668 44.7701 794.913 42.3401 791.808 42.3401C788.703 42.3401 786.948 44.7701 786.948 48.5501C786.948 52.3031 788.703 54.7871 791.808 54.7871Z"
		fill="#F3E7D3" />
	<path d="M775.799 58V39.1H779.849V58H775.799Z" fill="#F3E7D3" />
	<path d="M763.741 58V42.61H758.26V39.1H773.272V42.61H767.791V58H763.741Z" fill="#F3E7D3" />
	<path
		d="M749.266 58.2701C744.433 58.2701 741.355 55.9751 741.355 51.8171H745.54C745.621 53.5181 746.701 54.9221 749.293 54.9221C751.48 54.9221 752.641 54.0041 752.641 52.4651C752.641 51.1691 751.777 50.5211 750.076 50.1971L747.349 49.6841C744.379 49.0901 741.868 47.7401 741.868 44.3111C741.868 40.6931 744.784 38.8571 749.023 38.8571C753.343 38.8571 756.421 40.8011 756.421 44.6621H752.263C752.317 42.9611 750.913 42.2051 749.077 42.2051C746.917 42.2051 746.107 43.3121 746.107 44.4731C746.107 45.3371 746.566 46.2551 748.267 46.5521L750.805 47.0381C755.233 47.8751 756.934 49.5761 756.934 52.4381C756.934 56.5151 753.559 58.2701 749.266 58.2701Z"
		fill="#F3E7D3" />
	<path d="M725.901 58V39.1H738.807V42.61H729.951V46.849H737.997V50.008H729.951V54.49H739.077V58H725.901Z"
		fill="#F3E7D3" />
	<path
		d="M714.786 58.27C710.142 58.27 706.983 55.867 706.983 50.818V39.1H711.06V50.521C711.06 53.329 712.464 54.76 714.786 54.76C717.108 54.76 718.485 53.329 718.485 50.521V39.1H722.562V50.818C722.562 55.867 719.376 58.27 714.786 58.27Z"
		fill="#F3E7D3" />
	<path
		d="M704.035 48.5501C704.035 50.9531 703.414 53.0321 702.307 54.6521L703.954 56.2991L701.524 58.6211L699.877 56.9741C698.527 57.8111 696.88 58.2701 695.017 58.2701C689.563 58.2701 685.999 54.3281 685.999 48.5501C685.999 42.7451 689.563 38.8571 695.017 38.8571C700.471 38.8571 704.035 42.7451 704.035 48.5501ZM695.017 54.7871C695.854 54.7871 696.583 54.5981 697.231 54.2741L694.666 51.6821L697.096 49.3601L699.364 51.6551C699.715 50.7641 699.877 49.7381 699.877 48.5501C699.877 44.7701 698.122 42.3401 695.017 42.3401C691.912 42.3401 690.157 44.7701 690.157 48.5501C690.157 52.3031 691.912 54.7871 695.017 54.7871Z"
		fill="#F3E7D3" />
	<path
		d="M761.522 31V12.1L768.677 12.1C774.563 12.1 777.614 15.475 777.614 21.55C777.614 27.625 774.563 31 768.677 31H761.522ZM765.572 27.49H768.272C772.133 27.49 773.483 25.708 773.483 21.55C773.483 17.392 772.133 15.61 768.272 15.61H765.572V27.49Z"
		fill="#F3E7D3" />
	<path d="M742.077 31V12.1H746.289L753.903 24.52H753.984V12.1H758.034V31H753.66L746.208 18.823H746.127V31H742.077Z"
		fill="#F3E7D3" />
	<path
		d="M735.424 31L734.209 27.463H726.244L725.029 31H720.79L727.621 12.1H732.832L739.663 31H735.424ZM727.27 24.466H733.183L730.348 16.231H730.105L727.27 24.466Z"
		fill="#F3E7D3" />
	<path
		d="M719.201 31L715.205 31L711.614 24.709H708.212V31H704.162V12.1L711.803 12.1C716.825 12.1 719.012 14.719 719.012 18.418C719.012 21.118 717.851 23.224 715.232 24.169L719.201 31ZM708.212 15.61V21.199H711.668C713.882 21.199 714.854 20.092 714.854 18.418C714.854 16.717 713.882 15.61 711.668 15.61L708.212 15.61Z"
		fill="#F3E7D3" />
	<path
		d="M686.404 31V12.1L694.072 12.1C698.284 12.1 700.201 13.963 700.201 16.825C700.201 18.877 699.256 20.038 697.474 20.605C700.282 21.361 701.497 23.116 701.497 25.465C701.497 28.516 699.391 31 694.396 31H686.404ZM690.454 19.768H693.91C695.125 19.768 696.151 19.12 696.151 17.581C696.151 16.042 695.125 15.502 693.91 15.502L690.454 15.502V19.768ZM690.454 27.598H694.261C696.529 27.598 697.312 26.383 697.312 25.006C697.312 23.575 696.529 22.333 694.261 22.333H690.454V27.598Z"
		fill="#F3E7D3" />
</svg>