<svg xmlns="http://www.w3.org/2000/svg" width="101" height="228" fill="none"><path stroke="#1F1D1A" stroke-width="2" d="M48.5 0v228"/><circle cx="50.5" cy="114" r="49" fill="#F3E7D3" stroke="#000" stroke-width="2"/><path fill="#000" d="M42.846 147.437q-3.952 0-7.726-.988-3.773-.898-6.828-2.964-2.964-2.156-4.761-5.48-1.797-3.414-1.797-8.176 0-5.839 3.773-10.331 3.864-4.491 10.332-7.277-2.337-3.054-3.863-5.659-1.528-2.695-2.246-5.301a21.2 21.2 0 0 1-.72-5.48q.09-6.468 4.762-10.241 4.672-3.863 11.859-3.863 4.582 0 7.905 1.707 3.414 1.617 5.21 4.492 1.888 2.784 1.887 6.378 0 3.324-1.437 6.378t-4.671 5.93q-3.235 2.784-8.625 5.57a642 642 0 0 1 5.3 5.569 556 556 0 0 0 5.93 6.019 2056 2056 0 0 0 5.39 5.211q.45-1.617.629-3.054.27-1.528.27-2.696 0-2.066-.63-4.042-.539-2.067-2.066-3.414-1.437-1.437-4.132-1.527v-2.965h15.721v3.683l-7.456-.359q1.437 1.168 2.066 3.055.63 1.886.719 4.402.09 1.707-.36 4.402-.36 2.604-1.437 5.48a60 60 0 0 1 2.066 1.976q1.168.989 2.426 2.066 4.042 3.594 6.917 5.39 2.965 1.707 4.402 1.707V146H73.3q-.808 0-3.683-1.617-2.785-1.707-7.456-5.839-2.875 3.683-7.636 6.288-4.672 2.605-11.68 2.605m1.078-4.491q5.66.179 9.343-1.797 3.773-2.067 6.019-5.121-.63-.628-1.258-1.168-.63-.629-1.347-1.257a6627 6627 0 0 0-10.691-10.511q-4.582-4.582-7.816-8.265-2.874 1.707-4.492 4.222t-2.335 5.031q-.63 2.515-.63 4.402 0 4.941 1.887 8.085 1.977 3.144 4.941 4.672a16.1 16.1 0 0 0 6.379 1.707m0-32.971q5.031-3.324 7.456-7.366 2.426-4.132 2.426-8.085 0-4.312-2.246-7.097-2.245-2.875-6.379-2.875-3.682 0-6.198 2.785-2.426 2.695-2.426 7.726 0 3.862 2.066 7.636 2.157 3.773 5.3 7.276"/></svg>