<svg xmlns="http://www.w3.org/2000/svg" width="997" height="154" fill="none"><path fill="#000" d="M.076 151.5V2.4h60.492c33.228 0 48.351 14.697 48.351 37.275 0 16.188-7.455 25.347-21.513 29.82 22.152 5.964 31.737 19.809 31.737 38.34 0 24.069-16.614 43.665-56.019 43.665zm31.95-88.608H59.29c9.585 0 17.679-5.112 17.679-17.253S68.875 29.238 59.29 29.238H32.026zm0 61.77h30.033c17.892 0 24.069-9.585 24.069-20.448 0-11.289-6.177-21.087-24.069-21.087H32.026zm214 26.838h-31.524l-28.329-49.629h-26.838V151.5h-31.95V2.4h60.279c39.618 0 56.871 20.661 56.871 49.842 0 21.3-9.159 37.914-29.82 45.369zM159.335 30.09v44.091h27.264c17.466 0 25.134-8.733 25.134-21.939 0-13.419-7.668-22.152-25.134-22.152zM361.229 151.5l-9.585-27.903h-62.835l-9.585 27.903h-33.441L299.672 2.4h41.109l53.889 149.1zm-64.326-51.546h46.647l-22.365-64.965h-1.917zM400.932 151.5V2.4h33.228l60.066 97.98h.639V2.4h31.95v149.1h-34.506l-58.788-96.063h-.639V151.5zm140.622 0V2.4h56.445c46.434 0 70.503 26.625 70.503 74.55s-24.069 74.55-70.503 74.55zm31.95-27.69h21.3c30.459 0 41.109-14.058 41.109-46.86s-10.65-46.86-41.109-46.86h-21.3zm105.343 27.69V2.4h31.95v149.1zm46.602 0V2.4h33.228l60.066 97.98h.639V2.4h31.95v149.1h-34.506l-58.788-96.063h-.639V151.5zm207.529 2.13c-44.943 0-71.142-28.329-71.142-76.254 0-48.564 28.542-76.893 70.29-76.893 30.885 0 56.658 15.123 61.77 49.203h-31.524C957.26 32.22 943.415 27.96 931.913 27.96c-25.347 0-37.275 20.874-37.275 48.564 0 27.903 11.502 49.629 37.488 49.629 15.975 0 32.802-7.881 32.802-31.098h-28.755v-25.56h60.492v12.141c0 48.99-22.578 71.994-63.687 71.994"/></svg>