<svg xmlns="http://www.w3.org/2000/svg" width="337" height="134" fill="none"><path fill="#000" d="M83.1 26.018c3.66 1.474 6.015 4.307 7.194 7.819.827 2.781 1.027 6.002.48 9.386a28 28 0 0 1-.514 2.714c-.693 2.826-1.962 5.61-3.429 8.316l-3.857-1.551c1.218-2.303 2.238-4.682 2.777-7.113.232-.593.36-1.272.488-1.95.136-1.632-.002-3.144-.493-4.337-.73-1.743-2.097-3.142-4.27-3.99-1.487-.626-3.42-.925-5.618-1.01-9.843-.336-21.483 6.733-32.082 16.849-12.17 11.689-22.738 27.327-27.683 40.926-2.263 6.494-2.894 12.077.073 17.425 1.832 3.357 5.191 5.716 9.924 6.426 1.735.222 3.547.246 5.634.15 7.943-.633 16.907-3.646 25.706-9.501 8.893-5.863 16.187-13.581 28.767-28.07l3.608 1.955C76.127 96.481 67.572 106.03 57.59 113.516c-9.365 6.955-18.877 11.257-27.208 11.83-2.37.122-4.56.132-6.492-.167-5.987-.88-10.068-3.84-12.468-8.193-3.999-7.254-2.291-20.842 1.042-30.197 5.151-14.475 16.398-31.032 29.185-43.254C53.295 32.37 66.31 24.699 77.577 25c2.104.093 3.942.4 5.523 1.018m22.526 28.704c-.618 1.58-1.793 3.307-2.796 4.828-.146.49-.283 1.074-.068 1.34.301.163.979.291 1.649.325.962.102 1.829.213 2.637.71 1.409.824 2.029 2.387.546 5.952.851 2.018-.571 6.244-7.066 15.413-1.595 2.337-3.474 5.748-4.442 8.694l.078.85c.232.455.447.721 1.031.858.765.026 2.07-.285 3.907-1.024 3.194-1.532 6.318-3.818 9.116-6.552 3.33-3.162 6.144-6.754 8.04-9.976l.094-.01.077-.197 3.772 1.655-.077.198c-2.402 3.935-6.091 9.417-10.339 13.998-3.295 3.54-6.822 6.626-10.48 8.295-2.842 1.213-4.988 1.696-6.526 1.551-2.018-.196-3.264-1.32-3.712-3.09-.508-1.382-.38-3.108.117-4.963.06-.387.214-.782.265-1.263.11-.867.222-1.735.419-2.706.838-4.363 3.488-9.75 5.761-13.006 1.853-2.647 3.192-4.675 4.204-6.101-1.16-.18-2.32-.36-3.265-1.32-.318-.352-.644-.799-.782-1.262-1.27 1.736-2.951 4.176-4.556 6.419-2.196 3.059-6.099 9.322-6.777 10.242l-.094.008-3.265-2.367-.01-.095.095-.009c.344-.412 1.682-2.44 5.319-8.489 2.221-3.823 5.507-8.506 7.79-11.668 1.852-2.647 3.808-6.255 5.592-8.61zm48.063 7.596c-2.193 6.203-8.897 12.056-16.417 16.27-5.159 2.95-10.671 5.17-15.428 6.272.5 2.336 1.532 4.242 3.079 5.529 1.443 1.201 3.308 1.792 5.283 1.516 4.336-.493 9.504-3.348 14.242-6.735 5.803-4.247 10.669-9.36 12.281-12.557l4.02 1.251c-1.921 3.986-5.773 8.721-10.33 13.045-4.214 3.91-9.115 7.598-13.958 9.852-.729.353-1.459.706-2.103.955-4.688 1.859-8.578 2.025-11.524 1.056-3.05-1.054-5.079-3.44-5.94-6.6-.129-.369-.164-.746-.19-1.03-.344-1.683-.329-3.59-.021-5.428l-.567.052c-.858-.016-1.717-.033-2.585-.144l1.672-4.63c.48.051.961.102 1.528.05l.567-.052q.77-4.07 2.957-8.272c2.35-4.502 5.842-9.014 9.695-12.7 3.845-3.782 8.136-6.843 12.094-8.349 3.126-1.239 6.045-1.602 8.502-.78 1.383.54 2.509 1.39 3.197 2.66.697 1.366.931 4.964.52 6.716-.119.773-.248 1.452-.574 2.053m-30.698 17.389c3.89-1.214 8.174-3.322 12.311-5.987 6.576-4.127 12.283-9.413 14.022-14.336.172-.206.241-.498.318-.696a2.9 2.9 0 0 0-1.332-1.02c-1.28-.455-2.972-.204-4.809.535-3.306 1.351-7.057 4.077-10.541 7.635-3.578 3.567-6.899 7.872-9.077 12.167-.326.602-.557 1.195-.892 1.702m82.917-11.22 4.338.554c-1.757 4.734-7.224 10.57-11.009 13.964-4.677 4.049-9.81 7.282-13.503 7.525-1.134.104-2.113-.187-2.826-.693-1.633-1.184-1.858-3.64-1.096-6.758l.077-.198c-1.828 1.882-3.853 3.687-5.887 5.398-5.056 4.083-10.602 6.973-15.488 6.659-3.264-.273-5.472-1.5-6.616-3.585-1.247-2.172-1.412-5.015-.573-8.33a17 17 0 0 1 .529-4.621c.771-3.024 2.365-6.409 4.63-9.76 5.842-9.013 24.139-26.598 34.519-19.358 1.839 1.356 3.257 3.321 4.041 5.631 1.029-1.237 2.402-2.887 3.638-3.953l2.304 3.313c-3.888 3.31-11.436 16.575-13.682 21.163-1.201 2.492-2.135 4.768-2.726 6.632.026.284.034.378.137.464s.198.077.481.051c2.749-.157 6.929-2.35 10.757-5.273 2.679-1.96 6.815-5.673 7.955-8.826m-30.461 12.698c9.983-6.44 11.962-12.908 18.379-21.879-.164-1.795-1.531-3.194-3.3-3.793-8.556-2.931-24.382 12.522-28.808 19.31-1.759 2.638-3.045 5.233-3.687 7.578.043.472.181.936.404 1.296.671 1.082 1.977 1.82 3.987 1.921 4.019.203 8.707-1.655 13.025-4.433m48.529-36.93c-.995 1.615-1.896 3.221-2.796 4.828-6.132 11.04-11.114 22.166-12.466 28.196-.085 1.15-.007 2 .165 2.842.431 1.58 1.093 2.567 2.089 3.047.198.078.49.146.696.318 3.239 1.036 7.076-.744 10.707-3.744 3.982-3.318 7.74-8.044 10.142-11.98.583-.91 1.167-1.821 1.57-2.62l-.009-.095.095-.008-.009-.095.094-.008-.008-.095 3.934 1.354.009.095-.095.008.009.095c-.72 1.495-1.707 3.204-2.873 5.026-3.003 4.657-7.155 10.277-11.532 14.488-4.918 4.547-10.283 7.325-15.102 5.671-.292-.068-.593-.231-.894-.394-1.89-.875-3.162-2.282-3.851-4.6-.568-2.044-.545-4.904.251-8.692l-.008-.095c.153-1.442.307-2.885.632-4.535 1.24-6.21 6.034-16.27 12.055-26.443.412-.705.832-1.315 1.244-2.02-2.456.226-5.367.683-7.78 1.38l-.227-4.55c3.632-.905 7.497-1.355 11.086-1.684C225.78 32.753 230.876 26 235.75 20.98l.172-.206 2.922 2.78c-3.827 3.97-7.98 9.59-11.977 15.863l.094-.009c5.582-.416 11.285-.558 16.875-.88l-.812 4.647c-6.261.288-12.521.576-18.953 1.07zm26.406 6.628c-4.899 5.784-10.133 13.122-13.924 19.566-1.321 2.217-2.453 4.416-3.242 6.203.026.284-.042.576-.016.859.069.756.404 1.296.826 1.734.507.335 1.099.566 1.761.505 2.842-.165 6.096-2.082 8.996-4.73 3.082-2.759 6.505-6.978 7.876-10.724l4.252.658c-1.903 5.224-6.476 11.453-10.492 15.441-3.922 3.98-8.402 7.058-12.473 7.335-1.709.062-3.178-.375-4.321-1.413a6.14 6.14 0 0 1-1.987-4.01c-.147-1.606.324-3.744 1.258-6.021 1.823-8.169 12.463-20.956 18.307-27.874zm10.654-16.789c-.97.85-1.88 1.315-3.013 1.42-1.039.094-1.924-.205-2.56-.91-.731-.694-.912-1.63-.818-2.687a5.2 5.2 0 0 1 1.544-2.904c.866-.936 1.871-1.41 2.91-1.505 1.133-.104 2.018.196 2.663.995.636.703.911 1.63.818 2.687a5.2 5.2 0 0 1-1.544 2.904m-2.434 51.376c-2.481.99-4.568 1.086-6.269.194-1.1-.566-2.131-1.424-2.742-2.892-.602-1.374-.776-3.263-.451-5.96.119-.773.239-1.546.453-2.328.025-.764.051-1.529.162-2.396.7-4.827 3.203-10.772 6.669-16.615 3.628-6.143 8.398-12.296 13.127-16.825l2.656 2.995c-3.93 3.885-8.125 10.08-11.633 16.498-3.002 5.705-5.428 11.452-6.447 15.928q-.024 1.287.208 2.267c.173.841.508 1.382.912 1.63.593.232 1.537.146 2.731-.345 1.751-.637 3.82-1.97 6.223-3.809 4.275-3.25 8.892-7.96 12.916-12.9 1.021-1.332 2.042-2.664 2.968-3.988-.198-1.125-.208-2.267-.226-3.504.025-1.812.229-3.736.623-5.677 3.047-14.568 13.19-13.02 9.713-1.08-2.202 7.155-8.242 16.091-10.944 19.864-4.058 5.61-8.709 10.99-12.975 14.334-2.858 2.072-5.373 3.732-7.674 4.61m26.851-39.611c-1.191 3.633-.778 3.977.567-.052 1.14-3.153.179-2.208-.567.052m40.356.682c-2.194 6.203-8.897 12.056-16.417 16.27-5.159 2.95-10.671 5.17-15.428 6.273.499 2.335 1.531 4.24 3.078 5.528 1.444 1.201 3.308 1.792 5.283 1.516 4.337-.493 9.505-3.348 14.243-6.735 5.802-4.247 10.668-9.36 12.28-12.557l4.02 1.251c-1.92 3.987-5.773 8.722-10.33 13.045-4.214 3.91-9.115 7.599-13.957 9.852-.73.353-1.46.706-2.103.955-4.688 1.859-8.579 2.025-11.525 1.057-3.05-1.054-5.078-3.44-5.939-6.6-.129-.37-.164-.747-.19-1.03-.345-1.684-.329-3.59-.021-5.428l-.567.052c-.859-.017-1.718-.034-2.585-.145l1.671-4.63c.481.051.962.102 1.529.05l.567-.051q.77-4.072 2.956-8.273c2.35-4.502 5.842-9.013 9.695-12.7 3.845-3.782 8.137-6.843 12.095-8.349 3.125-1.239 6.045-1.602 8.502-.78 1.383.54 2.508 1.39 3.197 2.66.696 1.366.931 4.964.52 6.716-.12.773-.248 1.452-.574 2.053M295.111 63.93c3.889-1.214 8.173-3.321 12.311-5.987 6.575-4.127 12.282-9.413 14.022-14.335.172-.207.24-.499.317-.696a2.9 2.9 0 0 0-1.332-1.021c-1.28-.455-2.971-.204-4.809.536-3.305 1.35-7.056 4.076-10.54 7.634-3.579 3.567-6.899 7.872-9.078 12.168-.325.601-.557 1.194-.891 1.7"/><g clip-path="url(#a)"><path fill="#000" d="m283.554 92.639-46.142 5.272-48.478 5.538-50.815 5.804-47.53 5.43c-.604.07-1.168.457-1.545 1.063-1.183 1.883-.053 4.583 1.825 4.367l43.575-4.981 50.911-5.817 46.045-5.259 48.479-5.538 49.943-5.701c.613-.07 1.178-.466 1.566-1.09 1.155-1.895.022-4.557-1.836-4.34z"/></g><defs><clipPath id="a"><path fill="#fff" d="M91.052 73.74 332 87.5l-2.642 46.26L88.41 120.002z"/></clipPath></defs></svg>