<svg xmlns="http://www.w3.org/2000/svg" width="143" height="143" fill="none"><path fill="#000" d="m72.878 4.307 3.45 3.45-6.067 12.748 12.766-6.049 3.449 3.45-13.277 13.277-2.739-2.739 8.363-8.363-.086-.087-11.328 5.408-2.045-2.045 5.425-11.302-.095-.095-8.363 8.363-2.739-2.738L72.869 4.307z"/><path fill="#000" fill-rule="evenodd" d="M72.612 4.05a.36.36 0 0 1 .257-.107h.009c.097 0 .19.039.257.107l3.45 3.45a.36.36 0 0 1 .071.413L71.029 19.74l11.842-5.612a.36.36 0 0 1 .413.072l3.45 3.449a.364.364 0 0 1 0 .515L73.455 31.44a.364.364 0 0 1-.515 0l-2.738-2.739a.364.364 0 0 1 0-.514l7.108-7.11-9.745 4.653a.36.36 0 0 1-.414-.07l-2.045-2.046a.36.36 0 0 1-.071-.415l4.677-9.744-7.125 7.126a.364.364 0 0 1-.515 0l-2.738-2.739a.364.364 0 0 1 0-.515zm.262.768L60.107 17.585l2.224 2.224 8.106-8.106a.364.364 0 0 1 .514 0l.096.095c.109.11.137.276.07.415l-5.313 11.069 1.68 1.68 11.096-5.296a.36.36 0 0 1 .414.07l.087.087a.364.364 0 0 1 0 .515l-8.106 8.106 2.224 2.224L85.96 17.905l-3.01-3.01-12.534 5.94a.364.364 0 0 1-.485-.486l5.956-12.517z" clip-rule="evenodd"/><path fill="#000" d="m86.008 39.035-5.382-5.382-3.31 1.664-2.87-2.87 17.897-8.666 3.52 3.519-8.668 17.897-2.868-2.87 1.664-3.31zm1.413-2.8 3.874-7.704-.165-.165-7.705 3.874z"/><path fill="#000" fill-rule="evenodd" d="M92.185 23.454a.36.36 0 0 1 .416.07l3.519 3.518c.11.11.137.277.07.417l-8.667 17.896a.364.364 0 0 1-.585.099l-2.869-2.869a.36.36 0 0 1-.068-.42l1.546-3.076-4.992-4.993-3.076 1.546a.36.36 0 0 1-.421-.068l-2.869-2.869a.364.364 0 0 1 .1-.585zm-5.938 15.305h.001l.017.018a.364.364 0 0 1 0 .515l-.01.01-1.485 2.955 2.32 2.32 8.332-17.203-3.153-3.152-17.203 8.33 2.32 2.321 3.077-1.546c.14-.07.31-.043.42.068zm4.72-10.718c.14-.07.31-.044.42.067l.165.165c.111.111.138.28.068.421L87.746 36.4a.364.364 0 0 1-.583.094l-3.995-3.996a.364.364 0 0 1 .094-.582zm-6.928 4.298 3.283 3.283 3.32-6.603z" clip-rule="evenodd"/><path fill="#000" d="m101.747 33.185 4.836 4.836c3.978 3.978 3.666 8.415-.598 12.679s-8.702 4.576-12.68.598l-4.836-4.836zm-6.25 15.374c2.61 2.609 4.776 2.27 7.697-.65s3.259-5.087.65-7.696l-1.829-1.828-8.346 8.346z"/><path fill="#000" fill-rule="evenodd" d="M101.489 32.927a.364.364 0 0 1 .515 0l4.836 4.836c2.041 2.041 3.019 4.24 2.898 6.51-.12 2.26-1.326 4.515-3.496 6.684s-4.425 3.376-6.685 3.496c-2.269.12-4.468-.857-6.509-2.898l-4.836-4.836a.364.364 0 0 1 0-.514zm.258.772L88.984 46.462l4.579 4.578c1.937 1.937 3.945 2.793 5.956 2.686 2.019-.107 4.114-1.19 6.208-3.283 2.095-2.095 3.177-4.19 3.284-6.21.107-2.01-.749-4.018-2.686-5.955zm.011 4.428a.364.364 0 0 1 .515 0l1.829 1.829c1.341 1.34 1.992 2.637 1.853 4.024-.137 1.364-1.029 2.712-2.503 4.187-1.475 1.474-2.823 2.366-4.187 2.503-1.388.139-2.683-.512-4.024-1.853l-1.829-1.83a.364.364 0 0 1 0-.514zm-7.574 8.604 1.572 1.57c1.267 1.268 2.36 1.752 3.437 1.645 1.102-.11 2.298-.848 3.744-2.294s2.183-2.642 2.293-3.744c.108-1.078-.376-2.17-1.643-3.437l-1.572-1.572z" clip-rule="evenodd"/><path fill="#000" d="m114.253 45.682 8.727 8.727-2.47 2.47-5.989-5.988-2.981 2.98 5.443 5.444-2.219 2.218-5.443-5.442-3.146 3.146 6.171 6.17-2.47 2.47-8.909-8.91 13.277-13.276z"/><path fill="#000" fill-rule="evenodd" d="M114.252 45.318c.097 0 .19.038.258.107l8.727 8.727a.364.364 0 0 1 0 .515l-2.47 2.47a.363.363 0 0 1-.515 0l-5.731-5.731-2.466 2.466 5.185 5.185a.364.364 0 0 1 0 .515l-2.219 2.219a.364.364 0 0 1-.515 0l-5.185-5.185-2.631 2.63 5.913 5.914a.36.36 0 0 1 0 .515l-2.47 2.47a.364.364 0 0 1-.515 0l-8.909-8.91a.365.365 0 0 1 0-.514l13.286-13.286a.36.36 0 0 1 .257-.107m.001.879-12.772 12.771 8.395 8.395 1.955-1.956-5.913-5.913a.364.364 0 0 1 0-.515l3.146-3.146a.364.364 0 0 1 .515 0l5.185 5.186 1.704-1.704-5.186-5.185a.365.365 0 0 1 0-.515l2.982-2.982a.364.364 0 0 1 .515 0l5.731 5.732 1.955-1.956z" clip-rule="evenodd"/><path fill="#000" d="m117.381 62.807 5.625 5.625-2.089 2.089-5.625-5.625z"/><path fill="#000" fill-rule="evenodd" d="M117.124 62.55a.364.364 0 0 1 .515 0l5.624 5.625a.363.363 0 0 1 0 .514l-2.088 2.09a.364.364 0 0 1-.515 0l-5.625-5.626a.365.365 0 0 1 0-.514zm-1.317 2.346 5.11 5.11 1.574-1.574-5.11-5.11z" clip-rule="evenodd"/><path fill="#000" d="m55.71 21.485 8.45 8.45-2.47 2.47-5.712-5.712-3.111 3.112 4.723 4.723-2.297 2.297L50.57 32.1l-5.408 5.408-2.739-2.738 13.278-13.278z"/><path fill="#000" fill-rule="evenodd" d="M55.452 21.227a.364.364 0 0 1 .515 0l8.45 8.45a.364.364 0 0 1 0 .515l-2.47 2.47a.364.364 0 0 1-.515 0l-5.454-5.454-2.597 2.597 4.466 4.466a.364.364 0 0 1 0 .514l-2.296 2.297a.364.364 0 0 1-.515 0l-4.466-4.466-5.15 5.15a.364.364 0 0 1-.515 0l-2.74-2.738a.364.364 0 0 1 0-.515l13.278-13.277zm.257.772 7.936 7.936-1.956 1.955-5.454-5.454a.364.364 0 0 0-.514 0l-3.112 3.111a.364.364 0 0 0 0 .515l4.466 4.466-1.782 1.782-4.466-4.466a.364.364 0 0 0-.514 0l-5.151 5.15-2.224-2.223z" clip-rule="evenodd"/><path fill="#000" d="M58.56 37.613c4.083-4.082 9.222-4.402 12.905-.71 3.684 3.692 3.363 8.83-.719 12.904s-9.239 4.42-12.93.737c-3.693-3.683-3.329-8.866.736-12.93zm9.378 9.378c2.652-2.652 3.18-5.547 1.075-7.653s-4.992-1.577-7.653 1.075-3.198 5.572-1.1 7.67 5.035 1.542 7.67-1.101z"/><path fill="#000" fill-rule="evenodd" d="M65.183 34.706c-2.149.123-4.374 1.173-6.365 3.165a.4.4 0 0 1-.05.042c-1.956 1.972-3 4.187-3.13 6.33-.13 2.154.657 4.27 2.434 6.043s3.891 2.564 6.04 2.435c2.156-.13 4.386-1.184 6.377-3.171s3.041-4.21 3.165-6.359c.124-2.144-.672-4.253-2.446-6.031-1.775-1.779-3.881-2.576-6.025-2.454m-.041-.727c2.367-.135 4.672.753 6.581 2.666 1.909 1.914 2.794 4.22 2.658 6.588-.136 2.362-1.287 4.745-3.378 6.832-2.09 2.086-4.48 3.24-6.847 3.383-2.372.142-4.684-.737-6.598-2.646-1.915-1.91-2.79-4.227-2.647-6.602.145-2.37 1.301-4.762 3.384-6.844a.4.4 0 0 1 .051-.043c2.08-2.064 4.45-3.2 6.796-3.334m.198 3.752c1.436-.218 2.798.218 3.93 1.35 1.132 1.131 1.568 2.496 1.35 3.933-.217 1.42-1.065 2.874-2.425 4.234a.4.4 0 0 1-.075.058c-1.333 1.317-2.768 2.145-4.171 2.364-1.443.225-2.817-.2-3.947-1.33-1.129-1.129-1.56-2.499-1.336-3.94.22-1.425 1.072-2.885 2.437-4.245s2.817-2.208 4.236-2.424m2.406 8.937c1.252-1.272 1.972-2.567 2.154-3.763.182-1.2-.17-2.336-1.145-3.31-.974-.974-2.107-1.326-3.306-1.144-1.216.185-2.535.927-3.832 2.22-1.296 1.291-2.043 2.617-2.232 3.84-.186 1.207.163 2.346 1.132 3.314.967.968 2.11 1.314 3.32 1.125 1.225-.19 2.552-.938 3.834-2.225a.4.4 0 0 1 .075-.057" clip-rule="evenodd"/><path fill="#000" d="m73.199 65.529 1.993-6.847-2.297-2.297-4.42 4.42-2.738-2.738 13.277-13.278 5.165 5.166c3.398 3.397 3.034 6.716.434 9.316-1.898 1.898-4.16 2.592-6.596 1.482l-2.114 7.48zm2.158-11.614 2.34 2.34c1.499 1.5 2.929 1.378 4.108.2 1.178-1.179 1.317-2.635-.182-4.126l-2.34-2.34z"/><path fill="#000" fill-rule="evenodd" d="M78.757 44.532a.364.364 0 0 1 .514 0l5.166 5.165c1.743 1.744 2.563 3.51 2.572 5.213.01 1.703-.791 3.271-2.14 4.619-.982.983-2.079 1.673-3.266 1.964-1.072.264-2.196.197-3.347-.245l-2.003 7.084a.364.364 0 0 1-.608.158l-2.704-2.704a.36.36 0 0 1-.092-.36l1.933-6.639-1.887-1.887-4.162 4.163a.364.364 0 0 1-.515 0l-2.739-2.739a.364.364 0 0 1 0-.515zM66.25 58.067l2.224 2.224 4.163-4.163a.364.364 0 0 1 .515 0l2.296 2.297c.094.094.13.231.092.359l-1.933 6.64 2.113 2.112 1.946-6.882a.364.364 0 0 1 .501-.232c1.149.523 2.24.616 3.262.364 1.027-.252 2.01-.858 2.925-1.772 1.253-1.253 1.934-2.644 1.926-4.1s-.706-3.049-2.36-4.702l-4.907-4.908zm12.774-8.335a.364.364 0 0 1 .515 0l2.34 2.34c.793.789 1.195 1.612 1.202 2.434s-.384 1.57-1.02 2.206-1.377 1.023-2.196 1.011c-.817-.011-1.635-.419-2.427-1.21l-2.34-2.34a.364.364 0 0 1 0-.515zm-3.154 4.183 2.083 2.083c.708.708 1.355.99 1.922.997.565.008 1.128-.255 1.671-.798s.811-1.113.807-1.685-.283-1.223-.988-1.925l-2.083-2.083z" clip-rule="evenodd"/><path fill="#000" d="m83.4 63.171 5.624 5.625-2.089 2.089-5.624-5.625z"/><path fill="#000" fill-rule="evenodd" d="M83.142 62.914a.364.364 0 0 1 .515 0l5.624 5.625a.364.364 0 0 1 0 .514l-2.088 2.09a.364.364 0 0 1-.515 0l-5.625-5.626a.364.364 0 0 1 0-.514zm-1.316 2.346 5.11 5.11 1.573-1.574-5.11-5.11z" clip-rule="evenodd"/><path fill="#000" d="m95.333 82.697-5.382-5.382-3.31 1.664-2.869-2.868 17.897-8.667 3.518 3.519-8.666 17.896-2.869-2.868 1.664-3.31zm1.413-2.799 3.874-7.705-.165-.164-7.704 3.874z"/><path fill="#000" fill-rule="evenodd" d="M101.51 67.117a.36.36 0 0 1 .416.07l3.519 3.518c.109.11.137.277.07.416l-8.667 17.897a.364.364 0 0 1-.585.099l-2.868-2.869a.36.36 0 0 1-.068-.42l1.546-3.076-4.993-4.993-3.076 1.546a.36.36 0 0 1-.42-.068l-2.87-2.869a.364.364 0 0 1 .1-.585zm-5.937 15.306.018.017a.364.364 0 0 1 0 .515l-.01.01-1.486 2.954 2.321 2.321 8.331-17.203-3.153-3.153-17.203 8.331 2.321 2.321 3.076-1.546c.14-.07.31-.043.42.068zm4.719-10.72c.14-.07.31-.043.421.068l.164.165c.111.111.139.28.068.42l-3.874 7.706a.364.364 0 0 1-.582.094l-3.996-3.996a.364.364 0 0 1 .094-.582zm-6.928 4.299 3.283 3.282 3.32-6.602z" clip-rule="evenodd"/><path fill="#000" d="m111.08 76.847 2.739 2.74-10.816 10.815 5.876 5.876-2.47 2.47-8.615-8.615 13.278-13.277z"/><path fill="#000" fill-rule="evenodd" d="M111.081 76.483c.096 0 .189.039.257.107l2.739 2.739a.364.364 0 0 1 0 .515l-10.559 10.558 5.619 5.619a.364.364 0 0 1 0 .514l-2.47 2.47a.366.366 0 0 1-.515 0l-8.615-8.614a.364.364 0 0 1 0-.515l13.286-13.286a.36.36 0 0 1 .258-.107m0 .88-12.772 12.77 8.1 8.1 1.956-1.955-5.619-5.619a.365.365 0 0 1 0-.514l10.559-10.559z" clip-rule="evenodd"/><path fill="#000" d="m121.134 86.9 2.739 2.74-10.816 10.815 5.876 5.876-2.47 2.47-8.615-8.614 13.277-13.278z"/><path fill="#000" fill-rule="evenodd" d="M120.877 86.643a.363.363 0 0 1 .514 0l2.739 2.739a.364.364 0 0 1 0 .515l-10.559 10.558 5.619 5.619a.365.365 0 0 1 0 .515l-2.47 2.47a.364.364 0 0 1-.515 0l-8.615-8.615a.364.364 0 0 1 0-.515zm.257.772 2.224 2.224-10.559 10.559a.365.365 0 0 0 0 .515l5.619 5.618-1.955 1.956-8.1-8.1z" clip-rule="evenodd"/><path fill="#000" d="m35.065 51.073-3.839.372-3.224 3.224-2.739-2.738 13.278-13.278 2.738 2.739-6.24 6.24 11.336-1.153 3.216 3.216-10.808 1.031-1.976 12.749-3.137-3.138 1.404-9.256z"/><path fill="#000" fill-rule="evenodd" d="M38.283 38.396a.364.364 0 0 1 .515 0l2.739 2.739a.364.364 0 0 1 0 .514l-5.517 5.517 10.319-1.049a.36.36 0 0 1 .294.105l3.215 3.215a.364.364 0 0 1-.223.62L39.1 51.061l-1.933 12.47a.364.364 0 0 1-.617.201l-3.137-3.137a.36.36 0 0 1-.103-.312l1.336-8.804-3.255.316-3.131 3.132a.364.364 0 0 1-.515 0l-2.739-2.739a.364.364 0 0 1 0-.515zM25.778 51.93l2.224 2.224 2.967-2.967a.36.36 0 0 1 .222-.105l3.84-.373a.36.36 0 0 1 .292.105l.008.009c.082.082.12.198.103.312l-1.376 9.074 2.5 2.5 1.866-12.04a.364.364 0 0 1 .325-.306l10.038-.958-2.547-2.547-11.164 1.135a.364.364 0 0 1-.294-.62l5.983-5.982-2.224-2.224z" clip-rule="evenodd"/><path fill="#000" d="m51.333 51.445 2.738 2.739-13.277 13.277-2.739-2.738z"/><path fill="#000" fill-rule="evenodd" d="M51.075 51.188a.364.364 0 0 1 .515 0l2.739 2.739a.364.364 0 0 1 0 .514L41.05 67.72a.364.364 0 0 1-.514 0l-2.739-2.739a.364.364 0 0 1 0-.515zM38.57 64.723l2.224 2.224 12.763-12.763-2.224-2.224z" clip-rule="evenodd"/><path fill="#000" d="m56.056 56.169 2.851 2.851-3.579 13.875.052.052 8.727-8.727 2.739 2.739-13.277 13.277-2.956-2.955 3.519-13.598-.052-.052-8.554 8.554-2.739-2.739 13.278-13.277z"/><path fill="#000" fill-rule="evenodd" d="M55.756 55.963a.36.36 0 0 1 .3-.158h.009c.121 0 .233.06.3.158l2.8 2.8a.36.36 0 0 1 .095.348l-3.283 12.724 7.873-7.872a.364.364 0 0 1 .515 0l2.738 2.738a.364.364 0 0 1 0 .515L53.826 80.493a.364.364 0 0 1-.515 0l-2.955-2.955a.36.36 0 0 1-.095-.349l3.22-12.445-7.698 7.698a.364.364 0 0 1-.514 0l-2.739-2.739a.364.364 0 0 1 0-.514zm.304.725L43.302 69.446l2.224 2.224 8.297-8.297a.364.364 0 0 1 .514 0l.052.052a.36.36 0 0 1 .095.349L51.018 77.17l2.55 2.551L66.332 66.96l-2.224-2.224-8.47 8.47a.364.364 0 0 1-.514 0l-.052-.052a.36.36 0 0 1-.096-.349l3.528-13.674z" clip-rule="evenodd"/><path fill="#000" d="m68.83 68.943 4.837 4.836c3.978 3.978 3.666 8.416-.598 12.68s-8.702 4.576-12.68.598l-4.836-4.836zm-6.248 15.375c2.609 2.609 4.775 2.27 7.696-.65s3.259-5.087.65-7.696l-1.829-1.829-8.346 8.346z"/><path fill="#000" fill-rule="evenodd" d="M68.573 68.686a.364.364 0 0 1 .515 0l4.836 4.836c2.041 2.041 3.019 4.24 2.898 6.51-.12 2.26-1.326 4.514-3.496 6.684s-4.425 3.376-6.685 3.496c-2.269.12-4.468-.857-6.509-2.898l-4.836-4.836a.364.364 0 0 1 0-.515zm.258.772L56.068 82.221l4.579 4.578c1.937 1.937 3.945 2.793 5.956 2.686 2.019-.107 4.114-1.19 6.208-3.284s3.177-4.19 3.284-6.209c.107-2.01-.749-4.018-2.686-5.955zm.269 4.321c.096 0 .189.039.257.107l1.829 1.829c1.34 1.34 1.992 2.636 1.853 4.024-.137 1.364-1.029 2.712-2.504 4.186-1.474 1.475-2.822 2.367-4.186 2.504-1.388.139-2.683-.513-4.024-1.854l-1.829-1.828a.364.364 0 0 1 0-.515l8.346-8.346a.36.36 0 0 1 .258-.107m-7.832 8.71 1.572 1.572c1.267 1.267 2.359 1.751 3.437 1.643 1.102-.11 2.298-.847 3.744-2.293s2.183-2.642 2.293-3.744c.108-1.078-.376-2.17-1.643-3.438l-1.572-1.57z" clip-rule="evenodd"/><path fill="#000" d="m72.124 90.107 2.825 2.826c-1.144 1.248-1.395 2.964.356 4.723 1.482 1.482 2.912 1.62 3.986.537.91-.91.78-1.95-.138-3.328l-1.482-2.201c-1.586-2.427-2.34-5.07.069-7.48 2.54-2.539 5.807-1.863 8.667 1.006s3.63 6.37.918 9.083l-2.808-2.808c1.23-1.162.815-2.644-.424-3.883-1.465-1.465-2.782-1.23-3.606-.416-.606.607-.944 1.56 0 2.92l1.378 2.055c2.4 3.579 2.358 5.928.347 7.938-2.869 2.869-6.379 1.82-9.282-1.083-3.267-3.267-3.735-6.96-.815-9.88z"/><path fill="#000" fill-rule="evenodd" d="M81.902 84.02c-1.37-.193-2.71.227-3.905 1.422-1.135 1.135-1.505 2.297-1.427 3.451.08 1.174.626 2.379 1.404 3.57l1.481 2.2c.474.71.777 1.379.816 2.02.04.664-.204 1.25-.722 1.767l-.258-.257.259.257c-.607.61-1.341.898-2.144.798-.787-.098-1.585-.561-2.359-1.335-.924-.928-1.355-1.882-1.37-2.804-.013-.803.29-1.535.778-2.156l.237.237.257-.257-.268-.246q-.12.13-.226.266l-2.326-2.326q.118-.128.244-.254l.008-.008-.257-.258-.257.258.262.263c-1.216 1.327-1.704 2.784-1.565 4.264.15 1.587 1.029 3.252 2.623 4.847 1.421 1.42 2.96 2.355 4.457 2.604 1.476.246 2.955-.165 4.31-1.521.951-.95 1.41-1.948 1.375-3.113-.035-1.186-.582-2.6-1.766-4.365l-1.376-2.052.001.002.3-.207-.303.203.002.002c-.506-.729-.696-1.39-.644-1.98s.34-1.057.687-1.403l.001-.002c.469-.463 1.097-.779 1.832-.751.733.027 1.51.392 2.287 1.169.65.65 1.12 1.397 1.24 2.171.109.69-.065 1.365-.565 1.961l-.25-.25-.258.258.25.264q.141-.132.258-.272l2.293 2.294q-.12.133-.25.264l.257.258.258-.258-.265-.264c1.088-1.213 1.459-2.557 1.277-3.913-.198-1.47-1.053-2.993-2.446-4.391-1.396-1.4-2.86-2.232-4.247-2.427m.102-.721c1.596.225 3.196 1.165 4.66 2.634 1.467 1.471 2.427 3.133 2.653 4.808.227 1.692-.302 3.357-1.734 4.79a.364.364 0 0 1-.515 0l-2.808-2.809a.364.364 0 0 1 .007-.522c.534-.503.69-1.046.605-1.591-.09-.567-.448-1.181-1.037-1.77-.688-.688-1.301-.937-1.799-.956-.496-.018-.937.19-1.292.541-.26.26-.443.574-.476.951-.033.378.08.873.518 1.504l.004.005 1.377 2.054c1.217 1.813 1.849 3.364 1.89 4.75.041 1.407-.528 2.589-1.588 3.649-1.512 1.512-3.223 2.011-4.945 1.724-1.7-.283-3.369-1.325-4.851-2.808C71 98.581 70.01 96.767 69.84 94.96c-.172-1.818.491-3.575 2.018-5.101l.009-.009a.364.364 0 0 1 .514 0l2.826 2.825c.138.138.142.36.01.504-.525.573-.823 1.228-.812 1.918.011.687.33 1.47 1.157 2.302.709.708 1.366 1.056 1.934 1.126.55.07 1.068-.115 1.537-.588v-.001c.393-.392.538-.781.511-1.209-.027-.451-.248-.99-.694-1.659l-1.484-2.205c-.807-1.235-1.43-2.565-1.522-3.92-.093-1.377.364-2.742 1.639-4.016 1.344-1.344 2.908-1.855 4.52-1.628" clip-rule="evenodd"/><path fill="#000" d="m85.99 100.109 5.625 5.624-2.088 2.089-5.625-5.625z"/><path fill="#000" fill-rule="evenodd" d="M85.733 99.851a.364.364 0 0 1 .515 0l5.625 5.625a.364.364 0 0 1 0 .515l-2.089 2.088a.36.36 0 0 1-.515 0l-5.624-5.624a.366.366 0 0 1 0-.515zm-1.316 2.346 5.11 5.11 1.574-1.574-5.11-5.11z" clip-rule="evenodd"/><path fill="#000" d="M93.383 106.773c4.082-4.082 9.222-4.402 12.905-.71s3.363 8.831-.719 12.904-9.239 4.42-12.93.737c-3.693-3.683-3.329-8.866.736-12.931zm9.378 9.378c2.652-2.652 3.18-5.547 1.074-7.653s-4.992-1.577-7.652 1.075-3.198 5.572-1.1 7.67c2.096 2.097 5.034 1.542 7.669-1.101z"/><path fill="#000" fill-rule="evenodd" d="M100.006 103.866c-2.15.123-4.374 1.174-6.365 3.165a.4.4 0 0 1-.051.042c-1.956 1.972-2.999 4.187-3.13 6.331-.13 2.153.658 4.269 2.435 6.042 1.778 1.774 3.89 2.564 6.04 2.435 2.155-.129 4.385-1.184 6.376-3.171s3.042-4.21 3.166-6.359c.123-2.144-.672-4.253-2.447-6.031-1.774-1.779-3.881-2.576-6.024-2.454m-.042-.727c2.368-.135 4.672.753 6.581 2.667s2.795 4.22 2.659 6.587c-.137 2.362-1.287 4.746-3.378 6.832s-4.481 3.241-6.847 3.383c-2.373.142-4.684-.737-6.598-2.646-1.915-1.911-2.791-4.227-2.647-6.602.144-2.37 1.3-4.762 3.383-6.844a.4.4 0 0 1 .052-.043c2.08-2.064 4.45-3.2 6.795-3.334m.198 3.752c1.436-.218 2.799.218 3.931 1.35 1.131 1.132 1.567 2.496 1.349 3.933-.216 1.421-1.064 2.874-2.424 4.234a.4.4 0 0 1-.076.058c-1.333 1.317-2.768 2.145-4.17 2.364-1.443.225-2.818-.2-3.948-1.33-1.128-1.129-1.559-2.499-1.336-3.94.22-1.425 1.073-2.885 2.438-4.245 1.363-1.36 2.817-2.208 4.236-2.424m2.406 8.937c1.252-1.271 1.972-2.567 2.154-3.763.183-1.2-.17-2.335-1.144-3.31-.975-.974-2.108-1.326-3.306-1.144-1.216.185-2.536.927-3.833 2.22-1.296 1.291-2.042 2.618-2.231 3.84-.187 1.207.163 2.346 1.131 3.314s2.11 1.314 3.32 1.125c1.226-.191 2.552-.938 3.835-2.225a.3.3 0 0 1 .074-.057" clip-rule="evenodd"/><path fill="#000" d="m113.837 113.949 8.45 8.45-2.47 2.47-5.712-5.711-3.111 3.111 4.732 4.732-2.297 2.297-4.732-4.732-5.408 5.408-2.738-2.739 13.277-13.277z"/><path fill="#000" fill-rule="evenodd" d="M113.579 113.692a.365.365 0 0 1 .515 0l8.45 8.45a.365.365 0 0 1 0 .515l-2.47 2.47a.365.365 0 0 1-.515 0l-5.454-5.454-2.596 2.596 4.474 4.475a.365.365 0 0 1 0 .515l-2.296 2.297a.366.366 0 0 1-.515 0l-4.475-4.475-5.15 5.151a.366.366 0 0 1-.515 0l-2.739-2.739a.365.365 0 0 1 0-.515zm.258.772-12.772 12.771 2.224 2.224 5.151-5.15a.36.36 0 0 1 .515 0l4.474 4.474 1.782-1.782-4.475-4.474a.365.365 0 0 1 0-.515l3.112-3.111a.365.365 0 0 1 .515 0l5.454 5.454 1.955-1.956z" clip-rule="evenodd"/><path fill="#000" d="m21.372 55.822 5.183 5.183c2.851 2.851 2.834 5.451.823 7.462-1.439 1.438-2.895 1.62-4.498.814 1.37 2.427.953 4.481-.693 6.136-2.14 2.141-5.313 2.47-8.693-.91l-5.4-5.399 13.278-13.277zM15.791 72.02c1.534 1.534 2.912 1.213 3.882.243s1.352-2.41-.182-3.944l-2.574-2.574-3.7 3.701zm5.26-5.737c.824.823 1.968 1.057 3.051-.026 1.083-1.084.771-2.158-.052-2.973l-2.34-2.34-2.999 2.999z"/><path fill="#000" fill-rule="evenodd" d="M21.233 55.486a.36.36 0 0 1 .396.079l5.183 5.182c1.46 1.461 2.23 2.9 2.34 4.275.112 1.387-.454 2.64-1.517 3.702-.757.757-1.546 1.21-2.384 1.35a3.66 3.66 0 0 1-1.632-.109c.392.951.523 1.86.406 2.722-.151 1.12-.714 2.116-1.58 2.987-1.13 1.13-2.553 1.8-4.158 1.722-1.6-.078-3.318-.899-5.05-2.631l-5.4-5.4a.364.364 0 0 1 0-.514l13.235-13.235a.36.36 0 0 1 .16-.13m.143.855L8.61 69.108l5.142 5.142c1.648 1.647 3.205 2.352 4.572 2.419 1.362.067 2.594-.497 3.606-1.509.78-.784 1.249-1.642 1.375-2.57s-.086-1.97-.741-3.13a.364.364 0 0 1 .48-.504c.752.378 1.438.51 2.088.4.65-.108 1.308-.465 1.99-1.147.947-.947 1.396-2 1.306-3.129-.092-1.14-.739-2.427-2.13-3.818zm.077 4.346a.364.364 0 0 1 .514 0l2.34 2.338c.447.443.79.99.847 1.612.057.636-.195 1.277-.795 1.877-.599.599-1.25.866-1.898.834-.638-.031-1.21-.352-1.667-.808l-2.34-2.34a.364.364 0 0 1 0-.515zm.257.772-2.484 2.484 2.083 2.082c.367.367.778.576 1.188.596.402.02.863-.137 1.348-.622.483-.483.617-.921.584-1.297-.036-.39-.259-.787-.635-1.16h-.001zm-5.05 4.029a.364.364 0 0 1 .515 0l2.574 2.574c.819.82 1.166 1.655 1.136 2.454-.029.79-.425 1.475-.954 2.004-.53.53-1.202.913-1.982.925-.784.011-1.602-.354-2.416-1.168l-2.574-2.574a.364.364 0 0 1 0-.514zm-2.928 3.958 2.316 2.317c.72.72 1.359.962 1.89.954.535-.008 1.037-.27 1.478-.712s.721-.962.742-1.516c.02-.547-.21-1.197-.924-1.912l-2.317-2.317z" clip-rule="evenodd"/><path fill="#000" d="m27.196 88.21 1.993-6.847-2.296-2.297-4.42 4.42-2.74-2.739L33.012 67.47l5.166 5.165c3.397 3.398 3.033 6.717.433 9.317-1.898 1.898-4.16 2.591-6.595 1.482l-2.115 7.48zm2.158-11.614 2.34 2.34c1.5 1.5 2.93 1.378 4.108.2 1.179-1.18 1.317-2.635-.182-4.126l-2.34-2.34z"/><path fill="#000" fill-rule="evenodd" d="M32.754 67.213a.364.364 0 0 1 .515 0l5.165 5.165c1.744 1.744 2.563 3.51 2.572 5.213.01 1.703-.79 3.27-2.139 4.618-.983.984-2.08 1.674-3.266 1.965-1.072.263-2.197.197-3.348-.245l-2.003 7.083a.364.364 0 0 1-.607.159l-2.704-2.704a.36.36 0 0 1-.092-.36l1.933-6.64-1.887-1.886-4.163 4.162a.364.364 0 0 1-.515 0l-2.738-2.738a.364.364 0 0 1 0-.515zM20.25 80.747l2.224 2.224 4.162-4.162a.364.364 0 0 1 .515 0l2.297 2.296c.094.094.13.232.092.36l-1.933 6.64 2.113 2.112 1.945-6.882a.364.364 0 0 1 .502-.232c1.148.523 2.239.615 3.261.364 1.027-.252 2.011-.858 2.926-1.772 1.252-1.253 1.933-2.644 1.925-4.1s-.705-3.049-2.359-4.702l-4.907-4.908zm13.031-8.441c.097 0 .19.038.258.107l2.339 2.339c.794.79 1.196 1.612 1.202 2.435s-.384 1.57-1.02 2.206c-.635.635-1.377 1.022-2.196 1.01-.817-.01-1.635-.418-2.426-1.21l-2.34-2.34a.364.364 0 0 1 0-.514l3.926-3.926a.36.36 0 0 1 .257-.107m-3.411 4.29 2.082 2.083c.708.707 1.355.989 1.922.997.566.008 1.129-.255 1.672-.798s.81-1.113.806-1.686c-.004-.572-.282-1.223-.987-1.924h-.001l-2.083-2.083z" clip-rule="evenodd"/><path fill="#000" d="m42.163 98.21-5.382-5.381-3.31 1.664-2.869-2.87L48.5 82.958l3.518 3.519-8.666 17.897-2.869-2.869 1.664-3.31zm1.413-2.799 3.874-7.704-.165-.165-7.704 3.874z"/><path fill="#000" fill-rule="evenodd" d="M48.34 82.63a.36.36 0 0 1 .416.07l3.519 3.519c.11.11.138.276.07.416l-8.667 17.896a.37.37 0 0 1-.267.201.37.37 0 0 1-.318-.102l-2.868-2.869a.36.36 0 0 1-.068-.421l1.546-3.075-4.993-4.993-3.076 1.546a.36.36 0 0 1-.42-.068l-2.87-2.869a.364.364 0 0 1 .1-.585zm-5.92 15.323a.364.364 0 0 1 0 .515l-.01.01-1.485 2.954 2.321 2.321 8.33-17.203-3.152-3.152-17.203 8.33 2.321 2.321 3.076-1.546c.14-.07.31-.043.42.068zm4.702-10.736c.14-.07.31-.043.42.067l.165.165c.111.111.139.28.068.421l-3.874 7.705a.364.364 0 0 1-.582.094l-3.996-3.996a.364.364 0 0 1 .094-.582zm-6.928 4.298 3.283 3.283 3.32-6.603z" clip-rule="evenodd"/><path fill="#000" d="m57.902 92.352 2.851 2.851-3.579 13.876.052.052 8.727-8.728 2.739 2.739-13.277 13.277-2.956-2.955 3.519-13.598-.052-.052-8.554 8.554-2.739-2.739 13.278-13.277z"/><path fill="#000" fill-rule="evenodd" d="M57.602 92.146a.36.36 0 0 1 .3-.158h.009c.121 0 .233.06.3.158l2.8 2.8a.36.36 0 0 1 .095.348l-3.283 12.725 7.873-7.873a.364.364 0 0 1 .515 0l2.738 2.739a.364.364 0 0 1 0 .514l-13.277 13.278a.365.365 0 0 1-.515 0l-2.955-2.956a.36.36 0 0 1-.095-.348l3.22-12.446-7.698 7.698a.36.36 0 0 1-.514 0l-2.74-2.738a.364.364 0 0 1 0-.515zm.304.725L45.148 105.63l2.224 2.224 8.297-8.296a.364.364 0 0 1 .514 0l.052.052a.36.36 0 0 1 .095.348l-3.466 13.397 2.55 2.551 12.763-12.763-2.224-2.224-8.47 8.47a.364.364 0 0 1-.514 0l-.052-.052a.36.36 0 0 1-.096-.348l3.528-13.674z" clip-rule="evenodd"/><path fill="#000" d="m70.677 105.127 4.836 4.836c3.978 3.978 3.674 8.415-.598 12.679s-8.702 4.576-12.68.598l-4.836-4.836zm-6.249 15.383c2.609 2.609 4.775 2.271 7.696-.65s3.259-5.087.65-7.696l-1.829-1.829-8.346 8.346z"/><path fill="#000" fill-rule="evenodd" d="M70.42 104.869a.364.364 0 0 1 .514 0l4.836 4.836c2.041 2.041 3.02 4.24 2.901 6.509-.119 2.261-1.325 4.516-3.5 6.686-2.173 2.169-4.428 3.375-6.687 3.495-2.268.121-4.465-.857-6.506-2.898l-4.836-4.836a.363.363 0 0 1 0-.514zm-12.506 13.535 4.579 4.579c1.937 1.937 3.943 2.792 5.952 2.685 2.018-.107 4.114-1.189 6.213-3.284 2.098-2.094 3.18-4.189 3.286-6.208.106-2.01-.752-4.019-2.689-5.956l-4.578-4.579zm13.031-8.433c.097 0 .19.039.258.107l1.828 1.829c1.341 1.341 1.993 2.636 1.854 4.024-.137 1.364-1.029 2.712-2.504 4.186-1.474 1.475-2.822 2.367-4.186 2.504-1.387.139-2.683-.513-4.024-1.854l-1.829-1.828a.364.364 0 0 1 0-.515l8.346-8.346a.37.37 0 0 1 .257-.107m-7.83 8.71 1.57 1.572c1.268 1.267 2.36 1.751 3.438 1.643 1.102-.11 2.298-.847 3.744-2.293s2.183-2.642 2.293-3.744c.108-1.078-.376-2.17-1.643-3.438l-1.572-1.571z" clip-rule="evenodd"/><path fill="#000" d="m73.97 126.291 2.826 2.825c-1.145 1.248-1.396 2.964.355 4.715 1.482 1.482 2.912 1.62 3.987.537.91-.91.78-1.95-.14-3.328l-1.481-2.201c-1.595-2.427-2.34-5.07.07-7.48 2.538-2.539 5.806-1.863 8.666 1.006s3.631 6.37.918 9.082l-2.808-2.808c1.231-1.161.815-2.643-.424-3.882-1.456-1.456-2.782-1.231-3.605-.416-.607.606-.945 1.56 0 2.92l1.377 2.054c2.41 3.58 2.358 5.928.347 7.939-2.869 2.869-6.379 1.82-9.282-1.083-3.267-3.268-3.735-6.96-.815-9.88z"/><path fill="#000" fill-rule="evenodd" d="M83.748 120.194c-1.37-.193-2.71.228-3.905 1.423-1.135 1.135-1.507 2.297-1.43 3.451.078 1.174.624 2.378 1.407 3.569l1.481 2.201c.474.71.777 1.379.816 2.019.04.664-.204 1.25-.722 1.768l-.258-.257.259.256-.001.001c-.606.61-1.34.898-2.143.797-.787-.098-1.585-.561-2.359-1.334-.924-.924-1.355-1.876-1.37-2.797-.013-.802.29-1.533.778-2.155l.237.237.257-.257-.268-.246q-.12.13-.226.266l-2.33-2.329a8 8 0 0 1 .248-.259l-.25-.249v-.008l-.003.004-.005-.004v.008l-.248.249.258.259c-1.213 1.326-1.7 2.782-1.56 4.259.15 1.587 1.028 3.252 2.622 4.847 1.421 1.421 2.96 2.355 4.457 2.605 1.476.246 2.955-.165 4.31-1.521.952-.952 1.412-1.949 1.378-3.114-.034-1.186-.58-2.599-1.769-4.364l-1.377-2.053.002.003.3-.208-.303.203.001.002c-.505-.728-.695-1.389-.643-1.979.051-.592.34-1.057.687-1.404l.001-.001c.47-.465 1.1-.777 1.836-.749.733.029 1.51.394 2.283 1.166.65.651 1.12 1.398 1.24 2.172.109.689-.065 1.365-.565 1.961l-.25-.25-.258.257.25.265q.141-.133.258-.272l2.293 2.294q-.12.133-.25.264l.257.257.258-.257-.265-.264c1.088-1.213 1.459-2.558 1.277-3.913-.198-1.471-1.053-2.994-2.446-4.391-1.396-1.4-2.86-2.232-4.247-2.428m.102-.72c1.596.224 3.196 1.165 4.66 2.634 1.467 1.471 2.427 3.132 2.652 4.808.228 1.691-.301 3.356-1.733 4.789a.365.365 0 0 1-.515 0l-2.808-2.808a.366.366 0 0 1 .007-.522c.534-.504.69-1.046.605-1.591-.09-.568-.448-1.181-1.037-1.77-.683-.683-1.297-.934-1.796-.953-.498-.019-.941.188-1.295.538-.26.26-.443.574-.476.951s.08.872.518 1.504l.003.004 1.378 2.054c1.22 1.814 1.853 3.365 1.893 4.75.04 1.408-.531 2.59-1.59 3.649-1.513 1.513-3.225 2.012-4.946 1.725-1.7-.284-3.369-1.325-4.852-2.808-1.672-1.673-2.662-3.487-2.832-5.293-.172-1.819.491-3.575 2.018-5.102a.37.37 0 0 1 .257-.106h.009c.096 0 .189.038.257.106l2.826 2.826a.364.364 0 0 1 .01.503c-.525.573-.823 1.228-.812 1.917.011.686.33 1.467 1.157 2.294.709.709 1.366 1.056 1.934 1.127.55.069 1.068-.116 1.537-.588v-.001c.393-.392.538-.782.511-1.209-.027-.452-.249-.991-.694-1.66l-1.484-2.203c-.812-1.236-1.435-2.566-1.526-3.922-.091-1.377.369-2.741 1.642-4.015 1.345-1.345 2.909-1.856 4.522-1.628" clip-rule="evenodd"/></svg>