<svg xmlns="http://www.w3.org/2000/svg" width="163" height="160" fill="none"><path fill="#F3E7D3" d="m135.098 32.778 1.54 1.724 1.733 1.472 1.762 1.442 1.695 1.53 1.53 1.695 1.268 1.917 1.511 1.695 1.627 1.627 1.055 2.043 1.327 1.85 1.016 2.032 1.114 1.976 1.491 1.782.765 2.159.959 2.072 1.104 2.005.784 2.15.387 2.265.794 2.14.775 2.16-.019 2.333.716 2.179.32 2.256.019 2.285.436 2.237.3 2.266-.465 2.285.02 2.266.445 2.304-.542 2.237.009 2.295-.319 2.256-.959 2.14-.455 2.218.039 2.353-.852 2.13-.998 2.062-.494 2.237-.968 2.063-.968 2.062-.833 2.121-.988 2.053-1.132 1.975-1.463 1.772-1.413 1.782-1.25 1.888-1.132 1.985-1.463 1.743-1.655 1.578-1.23 1.966-1.733 1.482-1.55 1.684-1.665 1.55-1.792 1.423-2.14.939-1.549 1.734-2.004 1.104-1.976 1.123-1.898 1.259-2.062.949-1.995 1.103-1.965 1.182-2.353.252-2.121.784-2.092.891-2.101.91-2.266.29-2.149.843-2.247.358-2.314-.068-2.237.339-2.256.204-2.247.561-2.285-.242-2.275.068-2.247-.397-2.275-.039-2.247-.319-2.208-.543-2.285-.135-2.178-.61-2.228-.465-2.295-.232-2.004-1.211-2.295-.319-2.014-1.095-2.101-.881-2.082-.91-2.12-.862-1.83-1.394-2.015-1.085-1.772-1.433-1.917-1.229-1.617-1.618-2.13-.958-1.279-1.966-2.11-1.017-1.424-1.772-1.394-1.801-1.714-1.471-1.366-1.792-1.655-1.539-1.579-1.627-1.346-1.801-1.19-1.937-1.937-1.346-1.037-2.043-1.568-1.646-1.288-1.859-1.191-1.918-1.365-1.801-1.065-2.004-1.153-1.937-1.278-1.859-1.356-1.811-.668-2.227-1.084-1.965-1.404-1.811-1.288-1.869-.426-2.314-1.094-1.976-.988-2.023-1.152-1.947-.843-2.091-.726-2.15-1.114-1.975-.939-2.053-.426-2.247-.678-2.15-.813-2.1-.784-2.121-.523-2.198-.707-2.14-.775-2.14-.33-2.237-.793-2.14-.145-2.275-.436-2.218-.068-2.266-.223-2.246-.358-2.237.3-2.266-.174-2.256.058-2.266.28-2.237.669-2.178.368-2.208-.048-2.334 1.065-2.043.6-2.179 1.259-1.907.639-2.198 1.327-1.84 1.442-1.733 1.472-1.695 1.298-1.888 1.956-1.21 1.859-1.25 1.665-1.54 1.927-1.18 2.179-.669 1.956-1.123 2.101-.804 2.189-.523L30.19 8l2.227-.416 2.218-.426 2.246-.272 2.179-.668 2.304.252 2.237-.194 2.218-.61 2.256.02 2.266.397 2.256-.659 2.237.591h2.256l2.246.174 2.266-.02 2.276-.038 2.217.417 2.218.493 2.256.136 2.169.726 2.246.233 2.266.184 2.208.484 2.13.832 2.208.427 2.15.716 2.227.407 2.091.881 2.17.61 2.197.533 2.208.513 2.217.503 2.034 1.007 2.101.843 2.121.765 2.014 1.036 2.111.803 2.159.688 1.985 1.094 2.053.93 1.917 1.22 1.976 1.065 2.101.843 2.043.987 2.062.94 1.579 1.742 2.188.756 1.598 1.665 1.888 1.22z"/><mask id="a" width="161" height="150" x="1" y="5" maskUnits="userSpaceOnUse" style="mask-type:luminance"><path fill="#fff" d="m135.098 32.778 1.54 1.724 1.733 1.472 1.762 1.442 1.695 1.53 1.53 1.695 1.268 1.917 1.511 1.695 1.627 1.627 1.055 2.043 1.327 1.85 1.016 2.032 1.114 1.976 1.491 1.782.765 2.159.959 2.072 1.104 2.005.784 2.15.387 2.265.794 2.14.775 2.16-.019 2.333.716 2.179.32 2.256.019 2.285.436 2.237.3 2.266-.465 2.285.02 2.266.445 2.304-.542 2.237.009 2.295-.319 2.256-.959 2.14-.455 2.218.039 2.353-.852 2.13-.998 2.062-.494 2.237-.968 2.063-.968 2.062-.833 2.121-.988 2.053-1.132 1.975-1.463 1.772-1.413 1.782-1.25 1.888-1.132 1.985-1.463 1.743-1.655 1.578-1.23 1.966-1.733 1.482-1.55 1.684-1.665 1.55-1.792 1.423-2.14.939-1.549 1.734-2.004 1.104-1.976 1.123-1.898 1.259-2.062.949-1.995 1.103-1.965 1.182-2.353.252-2.121.784-2.092.891-2.101.91-2.266.29-2.149.843-2.247.358-2.314-.068-2.237.339-2.256.204-2.247.561-2.285-.242-2.275.068-2.247-.397-2.275-.039-2.247-.319-2.208-.543-2.285-.135-2.178-.61-2.228-.465-2.295-.232-2.004-1.211-2.295-.319-2.014-1.095-2.101-.881-2.082-.91-2.12-.862-1.83-1.394-2.015-1.085-1.772-1.433-1.917-1.229-1.617-1.618-2.13-.958-1.279-1.966-2.11-1.017-1.424-1.772-1.394-1.801-1.714-1.471-1.366-1.792-1.655-1.539-1.579-1.627-1.346-1.801-1.19-1.937-1.937-1.346-1.037-2.043-1.568-1.646-1.288-1.859-1.191-1.918-1.365-1.801-1.065-2.004-1.153-1.937-1.278-1.859-1.356-1.811-.668-2.227-1.084-1.965-1.404-1.811-1.288-1.869-.426-2.314-1.094-1.976-.988-2.023-1.152-1.947-.843-2.091-.726-2.15-1.114-1.975-.939-2.053-.426-2.247-.678-2.15-.813-2.1-.784-2.121-.523-2.198-.707-2.14-.775-2.14-.33-2.237-.793-2.14-.145-2.275-.436-2.218-.068-2.266-.223-2.246-.358-2.237.3-2.266-.174-2.256.058-2.266.28-2.237.669-2.178.368-2.208-.048-2.334 1.065-2.043.6-2.179 1.259-1.907.639-2.198 1.327-1.84 1.442-1.733 1.472-1.695 1.298-1.888 1.956-1.21 1.859-1.25 1.665-1.54 1.927-1.18 2.179-.669 1.956-1.123 2.101-.804 2.189-.523L30.19 8l2.227-.416 2.218-.426 2.246-.272 2.179-.668 2.304.252 2.237-.194 2.218-.61 2.256.02 2.266.397 2.256-.659 2.237.591h2.256l2.246.174 2.266-.02 2.276-.038 2.217.417 2.218.493 2.256.136 2.169.726 2.246.233 2.266.184 2.208.484 2.13.832 2.208.427 2.15.716 2.227.407 2.091.881 2.17.61 2.197.533 2.208.513 2.217.503 2.034 1.007 2.101.843 2.121.765 2.014 1.036 2.111.803 2.159.688 1.985 1.094 2.053.93 1.917 1.22 1.976 1.065 2.101.843 2.043.987 2.062.94 1.579 1.742 2.188.756 1.598 1.665 1.888 1.22z"/></mask><g fill="#000" stroke="#20201F" stroke-miterlimit="10" stroke-width=".97" mask="url(#a)"><path d="M163.382 153.876c-.803-.455-1.801-.165-2.275.668-.407.707-.117 1.752.6 2.178.765.456 1.84.175 2.266-.58.445-.785.165-1.821-.6-2.257zM159.248 151.59c-.804-.445-1.782-.155-2.228.668-.368.669-.019 1.753.669 2.111.745.388 1.772.078 2.169-.648.377-.688.067-1.763-.61-2.131ZM157.505 157.836c.435-.775.164-1.801-.591-2.208-.784-.426-1.743-.126-2.179.678-.377.697-.058 1.723.649 2.111.707.387 1.733.106 2.121-.581ZM162.191 149.586c.388-.775.068-1.762-.678-2.13-.832-.407-1.743-.107-2.159.707-.358.716-.029 1.723.688 2.091.736.378 1.781.049 2.149-.668ZM162.366 146.11c.755.416 1.704.164 2.121-.572.416-.736.164-1.743-.533-2.149a1.604 1.604 0 0 0-2.237.619c-.407.726-.106 1.675.649 2.092zM151.279 155.977c.765.435 1.607.222 2.033-.533.436-.755.242-1.607-.455-2.014-.862-.504-1.636-.291-2.14.591-.387.677-.136 1.549.562 1.946zM155.394 145.771c-.436.746-.233 1.578.494 1.995.803.474 1.588.29 2.043-.465s.261-1.646-.455-2.063c-.785-.464-1.618-.251-2.082.533ZM162.027 137.065c-.785-.445-1.569-.203-2.044.62-.397.688-.125 1.578.601 1.985s1.569.174 1.985-.542c.465-.804.252-1.607-.542-2.063ZM155.626 151.348c.417-.775.194-1.607-.561-2.024-.804-.435-1.608-.174-2.073.688-.377.687-.087 1.53.678 1.946.746.407 1.54.155 1.956-.61ZM159.741 141.123c-.784-.446-1.588-.204-2.052.61-.388.697-.136 1.568.581 1.985.745.426 1.588.184 2.014-.572.435-.774.213-1.588-.552-2.023zM144.413 155.812a1.406 1.406 0 0 0 .484 1.927c.649.397 1.588.155 1.995-.504.407-.658.184-1.578-.494-1.985-.716-.435-1.53-.203-1.985.552zM160.681 127.15c-.397.717-.155 1.578.542 1.946s1.588.107 1.966-.571c.368-.668.106-1.588-.562-1.966-.697-.387-1.53-.135-1.937.591zM146.737 151.697c-.387.707-.145 1.607.533 1.965.697.368 1.597.107 1.975-.571a1.48 1.48 0 0 0-.591-2.004c-.648-.349-1.539-.068-1.907.61zM156.004 135.351a1.44 1.44 0 0 0 .484 1.937c.668.407 1.588.184 1.994-.484.407-.668.155-1.637-.522-2.024-.669-.387-1.559-.126-1.956.571ZM153.68 139.467a1.4 1.4 0 0 0 .571 1.898c.717.388 1.588.136 1.956-.561s.116-1.588-.562-1.966c-.716-.407-1.539-.136-1.965.629ZM149.022 147.668a1.42 1.42 0 0 0 .552 1.908c.717.387 1.598.155 1.975-.523a1.48 1.48 0 0 0-.581-2.014c-.677-.368-1.559-.087-1.946.629ZM158.308 131.304c-.348.639-.106 1.511.523 1.869.707.407 1.627.165 2.014-.533.378-.677.087-1.636-.62-2.004-.687-.358-1.52-.078-1.927.658zM153.903 144.87c.348-.707.058-1.598-.639-1.946-.736-.358-1.55-.068-1.956.707-.33.619-.02 1.549.61 1.868.745.378 1.626.097 1.985-.619zM156.623 124.787a1.41 1.41 0 0 0 .465 1.889c.629.377 1.511.164 1.888-.465.397-.659.175-1.54-.474-1.927-.63-.378-1.501-.145-1.879.503ZM161.233 116.644c-.359.61-.116 1.52.503 1.878.591.339 1.511.126 1.859-.445.397-.649.194-1.559-.445-1.937-.649-.387-1.54-.155-1.927.504zM149.642 137.095c-.368.639-.136 1.51.494 1.888.6.358 1.53.116 1.898-.504.387-.658.145-1.549-.523-1.917a1.39 1.39 0 0 0-1.869.533ZM147.376 146.681c.368-.648.107-1.559-.552-1.907-.639-.339-1.52-.078-1.859.552-.348.648-.097 1.51.533 1.878.59.349 1.53.078 1.878-.532zM145.062 150.748c.377-.697.135-1.559-.533-1.917s-1.53-.087-1.888.61c-.339.649-.058 1.51.6 1.849.639.33 1.492.068 1.821-.532zM159.461 122.647c.658.349 1.53.088 1.859-.552.339-.648.077-1.539-.533-1.878-.658-.358-1.539-.087-1.898.581-.358.649-.096 1.501.572 1.849ZM156.12 128.38c-.639-.349-1.481-.097-1.859.552-.368.648-.097 1.559.571 1.897.63.32 1.511.059 1.83-.542.368-.678.117-1.549-.542-1.917zM140.356 153.459a1.39 1.39 0 0 0 .475 1.879c.639.387 1.52.174 1.888-.456.387-.648.155-1.578-.494-1.936a1.4 1.4 0 0 0-1.879.513zM147.308 141.2c-.358.629-.106 1.549.514 1.898.61.348 1.559.068 1.888-.542a1.4 1.4 0 0 0-.533-1.879c-.639-.378-1.501-.135-1.869.523ZM154.348 134.383c.358-.658.106-1.53-.542-1.869-.649-.348-1.54-.096-1.869.543-.349.668-.097 1.549.532 1.878.669.349 1.53.097 1.879-.542zM136.289 151.203c-.349.61-.126 1.453.475 1.772.61.33 1.452.116 1.791-.465.368-.619.116-1.52-.523-1.868-.6-.33-1.375-.088-1.743.552zM145.555 134.867c-.309.572-.058 1.404.523 1.714.63.329 1.453.116 1.792-.465.358-.619.106-1.529-.533-1.868-.62-.33-1.423-.049-1.791.619zM152.547 122.56c-.339.601-.107 1.434.503 1.763.601.319 1.462.087 1.792-.494.348-.6.096-1.482-.514-1.83-.629-.358-1.413-.116-1.791.552zM159.509 110.292c-.32.581-.097 1.404.474 1.733.581.339 1.511.087 1.831-.494.348-.619.096-1.472-.533-1.82-.62-.349-1.404-.097-1.782.581zM143.726 140.678c.61.358 1.452.145 1.801-.436.368-.62.145-1.462-.484-1.83-.64-.368-1.395-.145-1.792.542-.348.591-.126 1.375.475 1.724ZM161.823 106.205c-.319.601-.067 1.385.543 1.714.648.349 1.491.087 1.81-.552.31-.629.049-1.413-.581-1.762-.639-.349-1.413-.087-1.772.6ZM134.478 157.081c.62.348 1.453.116 1.772-.494.349-.659.107-1.433-.571-1.801-.649-.359-1.336-.136-1.733.552-.368.639-.146 1.365.523 1.743zM158.899 113.826c-.629-.349-1.375-.087-1.753.62-.319.6-.077 1.336.552 1.694.61.349 1.443.126 1.782-.474.368-.659.116-1.453-.581-1.84ZM148.364 132.514c.61.349 1.442.155 1.801-.435.377-.61.126-1.511-.514-1.869-.639-.349-1.394-.107-1.781.581-.329.59-.107 1.375.494 1.723ZM156.633 117.97c-.648-.377-1.384-.155-1.781.523a1.29 1.29 0 0 0 .493 1.753c.62.339 1.434.126 1.792-.465.368-.62.135-1.443-.504-1.811ZM138.603 147.117c-.358.619-.126 1.375.523 1.743.61.338 1.433.116 1.782-.485.358-.619.116-1.433-.523-1.801s-1.385-.145-1.772.543zM150.717 128.409c.61.339 1.452.116 1.801-.475.348-.61.097-1.462-.542-1.82-.63-.349-1.385-.116-1.753.523a1.28 1.28 0 0 0 .494 1.762zM142.661 142.507c-.668-.368-1.356-.145-1.763.581-.339.601-.106 1.356.514 1.705.639.358 1.5.116 1.82-.494.339-.649.097-1.424-.571-1.792ZM134.585 144.889c-.281.504-.087 1.269.397 1.55.687.406 1.443.232 1.81-.417.33-.591.097-1.414-.493-1.723-.63-.33-1.337-.088-1.714.59ZM136.899 140.794c-.31.542-.116 1.287.416 1.597.678.397 1.414.223 1.772-.416a1.27 1.27 0 0 0-.484-1.724c-.6-.339-1.336-.106-1.704.533zM146.205 124.429c-.301.542-.107 1.278.426 1.588.658.378 1.442.184 1.772-.436.339-.649.106-1.385-.562-1.743-.562-.3-1.288-.039-1.636.591ZM153.167 112.151c-.301.542-.088 1.307.435 1.588.697.378 1.424.194 1.763-.445a1.29 1.29 0 0 0-.523-1.714c-.591-.33-1.317-.078-1.675.571ZM129.917 153.11c-.28.514-.077 1.288.407 1.559.697.397 1.472.213 1.811-.445.329-.62.087-1.356-.552-1.704-.61-.339-1.298-.097-1.675.59zM155.529 107.997c-.31.513-.145 1.297.349 1.598.658.406 1.423.242 1.782-.368.348-.601.184-1.337-.388-1.695-.639-.397-1.336-.213-1.743.465ZM148.577 120.246c-.339.552-.165 1.317.377 1.646.64.387 1.366.232 1.734-.368.377-.61.203-1.365-.397-1.733s-1.327-.175-1.714.455ZM141.556 132.602c-.309.552-.077 1.297.485 1.607.639.349 1.365.155 1.704-.445.358-.639.135-1.385-.523-1.743-.581-.32-1.307-.058-1.666.581ZM160.129 99.873c-.3.542-.107 1.269.436 1.569.687.387 1.394.222 1.762-.407a1.25 1.25 0 0 0-.475-1.714c-.619-.358-1.336-.126-1.714.552zM132.29 148.947c-.32.523-.146 1.288.358 1.598.697.416 1.404.271 1.782-.359a1.257 1.257 0 0 0-.446-1.733c-.62-.368-1.288-.174-1.694.494ZM143.88 128.496c-.319.542-.145 1.278.388 1.598.668.397 1.423.242 1.781-.378.339-.591.136-1.365-.464-1.733-.562-.349-1.337-.116-1.705.503zM157.844 103.901c-.301.532-.107 1.297.406 1.598.678.397 1.385.232 1.772-.407.349-.581.116-1.395-.484-1.724-.61-.339-1.326-.116-1.694.533ZM150.852 116.227c-.319.562-.126 1.317.436 1.637.658.368 1.346.203 1.723-.416.359-.581.146-1.366-.464-1.724s-1.317-.145-1.695.503ZM139.252 136.688a1.2 1.2 0 0 0 .436 1.627c.639.358 1.394.174 1.733-.426a1.25 1.25 0 0 0-.465-1.724c-.6-.349-1.317-.136-1.694.523zM151.491 105.702c-.3.523-.125 1.249.378 1.559.513.31 1.346.097 1.656-.426.329-.552.135-1.21-.446-1.559-.619-.377-1.21-.213-1.588.436zM155.355 101.131c-.61-.339-1.21-.135-1.569.523-.271.504-.038 1.259.475 1.52.552.281 1.317.049 1.636-.503.291-.513.049-1.22-.542-1.549zM125.114 154.408c-.59-.329-1.181-.145-1.539.484-.3.514-.107 1.24.406 1.54.543.32 1.375.078 1.685-.484.291-.533.039-1.211-.552-1.54ZM128.261 146.632c-.309.533-.116 1.317.397 1.598.514.281 1.317.068 1.618-.426.338-.571.145-1.239-.465-1.607-.581-.349-1.191-.175-1.54.435zM132.125 142.062c-.581-.329-1.23-.106-1.578.533-.271.494-.039 1.259.474 1.52.552.291 1.327.058 1.637-.494.29-.523.058-1.23-.523-1.559zM137.558 130.259a1.176 1.176 0 0 0 .426 1.578c.542.31 1.307.077 1.626-.484.301-.513.058-1.23-.513-1.559s-1.191-.136-1.549.465zM150.717 109.343c-.562-.329-1.182-.155-1.55.455-.319.533-.126 1.288.417 1.588.513.281 1.307.078 1.617-.416.329-.523.106-1.278-.484-1.617zM132.861 138.518c-.281.504-.078 1.249.426 1.54.523.3 1.346.077 1.656-.446.3-.522.048-1.297-.533-1.607-.571-.3-1.21-.097-1.549.513ZM148.335 113.458c-.581-.32-1.182-.136-1.53.494-.291.513-.097 1.239.426 1.539.552.32 1.365.078 1.675-.503.281-.533.029-1.211-.562-1.54zM156.1 97.568c-.28.494-.077 1.259.427 1.54.513.29 1.355.058 1.655-.456.291-.493.058-1.249-.494-1.578-.571-.349-1.229-.145-1.597.484zM135.204 134.393c-.3.542-.106 1.23.436 1.53.552.31 1.336.097 1.637-.455s.087-1.239-.485-1.569c-.6-.348-1.229-.145-1.588.484zM141.421 125.746c-.571-.339-1.191-.165-1.559.436-.319.522-.126 1.287.407 1.588.523.3 1.336.077 1.646-.455.3-.514.078-1.23-.494-1.569ZM142.176 122.105c-.309.562-.106 1.278.455 1.569.552.29 1.346.048 1.627-.504.281-.532.039-1.22-.542-1.549-.581-.319-1.201-.126-1.54.475zM125.899 150.787c-.291.513-.088 1.259.435 1.549.533.3 1.356.068 1.656-.455.291-.523.068-1.249-.494-1.578-.571-.339-1.239-.136-1.597.484ZM158.88 94.973c.552.31 1.346.097 1.636-.445.291-.552.078-1.24-.494-1.569-.571-.339-1.23-.126-1.588.494-.29.513-.087 1.23.446 1.52ZM144.52 117.98c-.33.562-.136 1.239.435 1.559.523.3 1.279.097 1.598-.426.329-.533.126-1.22-.455-1.569-.62-.377-1.21-.213-1.588.436zM160.778 89.328c-.3.513-.107 1.24.397 1.54.561.32 1.365.096 1.675-.475.29-.532.058-1.22-.533-1.55-.571-.319-1.181-.135-1.539.485ZM132.629 131.614c-.552-.378-1.172-.087-1.52.494-.291.494-.058 1.171.474 1.462.504.281 1.23.087 1.501-.387.3-.523.087-1.269-.455-1.569ZM139.591 119.336c-.571-.32-1.162-.136-1.491.445-.3.533-.087 1.22.465 1.501.542.291 1.258.078 1.52-.445.271-.513.039-1.22-.504-1.511zM134.952 127.489c-.561-.31-1.142-.116-1.471.504-.31.571-.146 1.104.445 1.442.523.301 1.259.107 1.53-.416.271-.503.029-1.23-.504-1.53ZM160.981 84.031c.281-.523.039-1.259-.504-1.559-.493-.27-1.181-.058-1.471.465-.32.562-.136 1.191.445 1.51.552.31 1.249.117 1.53-.406zM126.519 140.232c-.329.581-.155 1.152.445 1.491.513.291 1.201.116 1.491-.387.281-.494.039-1.317-.474-1.588s-1.152-.058-1.462.484ZM119.915 154.03c.542.32 1.249.146 1.549-.377.281-.484.068-1.259-.436-1.55-.513-.3-1.162-.126-1.481.407-.349.581-.194 1.181.377 1.52zM155.82 90.654c-.504-.358-1.162-.067-1.463.504-.28.523-.067 1.19.465 1.472.513.261 1.23.067 1.501-.417.3-.532.068-1.249-.503-1.559ZM151.704 100.357c.272-.484.049-1.25-.455-1.54-.513-.3-1.171-.106-1.481.426-.339.581-.184 1.172.397 1.511.532.31 1.239.135 1.539-.397ZM144.239 111.163c-.523-.3-1.172-.106-1.472.436-.329.581-.165 1.181.416 1.52.523.3 1.249.107 1.54-.416.271-.504.048-1.23-.475-1.53zM145.526 108.985c.523.29 1.221.106 1.501-.378.291-.523.058-1.269-.494-1.569-.522-.29-1.152-.097-1.462.446-.319.571-.135 1.181.455 1.501ZM148.877 102.932c-.562-.319-1.143-.126-1.472.484-.3.552-.126 1.153.436 1.463.503.29 1.23.106 1.51-.378.31-.533.088-1.259-.464-1.569zM162.85 78.405c-.581-.338-1.143-.184-1.501.407-.329.542-.126 1.172.465 1.5.513.291 1.21.108 1.491-.377.29-.513.087-1.22-.455-1.53ZM136.269 125.407c.543.271 1.221.058 1.482-.455s0-1.297-.542-1.569c-.504-.251-1.191 0-1.453.533-.29.6-.087 1.191.513 1.481zM158.182 86.539c-.523-.31-1.123-.126-1.452.445-.329.581-.194 1.133.358 1.472.533.32 1.249.165 1.559-.339.31-.503.087-1.249-.465-1.578ZM124.204 144.318c-.329.562-.184 1.162.359 1.482.542.319 1.268.155 1.559-.349.3-.532.087-1.259-.475-1.578-.542-.31-1.104-.136-1.443.445ZM153.496 94.75c-.514-.28-1.153-.087-1.462.465-.31.542-.107 1.191.464 1.501.513.28 1.211.097 1.501-.397.291-.494.039-1.268-.503-1.569ZM130.256 135.71c-.503-.281-1.162-.077-1.472.445-.309.543-.116 1.172.475 1.492.523.29 1.22.116 1.511-.388.3-.513.058-1.249-.514-1.559zM140.472 115.647c-.339.59-.184 1.171.397 1.51.523.3 1.259.097 1.54-.416.271-.504.048-1.23-.484-1.53-.533-.31-1.133-.126-1.462.436zM123.304 147.998c-.533-.291-1.143-.097-1.452.445-.33.591-.155 1.181.445 1.491.533.281 1.21.107 1.501-.377.3-.523.068-1.249-.494-1.559ZM156.44 80.235c-.504-.3-1.192-.116-1.492.407-.261.455-.087 1.114.378 1.404.474.29 1.162.136 1.452-.339.291-.465.117-1.19-.338-1.462zM158.744 76.12c-.533-.3-1.162-.116-1.462.426-.252.455-.068 1.133.387 1.395.475.27 1.191.087 1.453-.378.29-.533.126-1.162-.368-1.443zM152.14 89.85c.3-.542.126-1.21-.397-1.48-.532-.282-1.162-.078-1.462.474-.242.445-.029 1.103.445 1.375.465.261 1.153.077 1.404-.368zM129.434 125.649a1.02 1.02 0 0 0 .358 1.385c.503.3 1.191.116 1.472-.397a1.03 1.03 0 0 0-.417-1.414c-.513-.281-1.113-.097-1.413.426ZM124.776 133.851c-.3.513-.136 1.133.377 1.423.465.271 1.153.107 1.414-.329.291-.484.136-1.181-.329-1.462-.533-.32-1.152-.165-1.462.368ZM115.47 150.244c-.29.494-.135 1.123.339 1.404.523.31 1.182.146 1.491-.368.272-.455.107-1.123-.339-1.404a1.05 1.05 0 0 0-1.481.368zM159.606 72.46c-.261.494-.077 1.084.436 1.365.503.28 1.162.087 1.423-.407.281-.523.107-1.152-.407-1.433-.532-.29-1.152-.097-1.452.475ZM139.145 110.737a1.056 1.056 0 0 0 1.414-.455c.242-.475.039-1.162-.397-1.404a1.08 1.08 0 0 0-1.472.455c-.271.523-.067 1.133.465 1.404zM114.627 153.933c-.552-.329-1.142-.174-1.462.378-.271.475-.116 1.114.339 1.404.465.291 1.162.116 1.462-.339.252-.387.204-1.2-.339-1.443ZM147.996 92.92a1.02 1.02 0 0 0 .406 1.414c.504.271 1.104.116 1.395-.378.31-.532.164-1.142-.349-1.433-.542-.32-1.142-.155-1.462.388zM142.873 106.225c.281-.475.087-1.162-.397-1.433a1.03 1.03 0 0 0-1.423.387 1.064 1.064 0 0 0 .368 1.443c.465.261 1.191.068 1.452-.397ZM133.151 121.176a1.06 1.06 0 0 0-1.433.397c-.281.484-.087 1.143.407 1.433.474.271 1.172.077 1.433-.397.271-.484.077-1.152-.416-1.433zM128.494 129.329c-.523-.281-1.162-.068-1.443.493-.242.475-.029 1.124.465 1.375.465.243 1.152.049 1.394-.406.3-.552.126-1.172-.416-1.462ZM122.481 137.898a1.04 1.04 0 0 0 .368 1.443c.465.281 1.123.126 1.404-.339.32-.503.184-1.172-.29-1.452-.552-.33-1.153-.184-1.482.348ZM117.794 146.148a1.03 1.03 0 0 0 .397 1.424c.484.271 1.182.067 1.453-.417s.077-1.152-.426-1.423a1.044 1.044 0 0 0-1.424.416ZM145.701 96.948c-.291.504-.126 1.153.378 1.433.484.271 1.142.097 1.442-.397.281-.465.088-1.171-.387-1.433a1.04 1.04 0 0 0-1.433.397ZM134.488 118.9c.474.242 1.171.049 1.404-.387.3-.552.116-1.191-.417-1.462-.522-.271-1.132-.078-1.423.435a1.054 1.054 0 0 0 .436 1.414ZM152.663 84.71c-.281.493-.116 1.084.388 1.374.513.29 1.152.136 1.433-.358.29-.513.135-1.152-.359-1.433-.532-.31-1.152-.136-1.462.416ZM143.377 101.073a1.03 1.03 0 0 0 .397 1.424 1.06 1.06 0 0 0 1.404-.358 1.043 1.043 0 0 0-.378-1.472c-.523-.281-1.113-.107-1.413.416zM136.395 113.361c-.29.523-.116 1.133.417 1.414a1.06 1.06 0 0 0 1.423-.416 1.07 1.07 0 0 0-.416-1.424c-.523-.28-1.123-.106-1.414.426zM121.59 141.646c-.552-.32-1.143-.165-1.462.387a1.035 1.035 0 0 0 .368 1.385c.484.3 1.142.135 1.442-.349a1.05 1.05 0 0 0-.348-1.433zM131.38 114.814c-.465-.252-1.065-.058-1.327.416-.222.407 0 1.143.407 1.346.416.213 1.055-.029 1.317-.494.252-.445.077-1.016-.388-1.268zM143.406 95.554c.232-.484.048-1.036-.426-1.26-.484-.232-1.104 0-1.317.475-.203.446.01 1.056.455 1.288.455.233 1.046.01 1.288-.494zM111.461 147.998c-.251.445-.058 1.084.407 1.336.426.232 1.017.029 1.278-.426a.93.93 0 0 0-.387-1.317c-.446-.232-1.036-.039-1.298.407ZM115.131 143.495c-.455-.271-1.026-.116-1.326.378-.252.406-.068 1.103.368 1.346.435.242 1.026.048 1.317-.436.271-.455.116-.998-.349-1.288zM123.091 127.499c-.242.416-.029 1.113.416 1.346.416.222 1.017 0 1.278-.446.281-.474.136-.997-.348-1.297-.436-.262-1.075-.078-1.346.397ZM126.751 123.006c-.465-.262-1.065-.087-1.336.387-.242.436-.029 1.094.426 1.336.436.233.987.03 1.268-.455.271-.474.126-.987-.368-1.268zM152.644 79.296c.271-.465.135-1.036-.32-1.307-.436-.252-1.094-.078-1.356.368-.251.416-.048 1.104.378 1.355.407.233 1.026.04 1.298-.416ZM150 82.046c-.455-.261-1.074-.087-1.346.387-.251.436-.048 1.114.407 1.346.426.223 1.007.02 1.278-.445.281-.475.136-1.017-.348-1.288zM139.368 98.817c-.242.417-.038 1.104.397 1.346.397.223 1.007 0 1.278-.445.281-.465.136-.998-.338-1.288-.446-.271-1.056-.097-1.337.378zM147.676 86.171c-.455-.28-1.055-.126-1.345.349-.252.416-.059 1.075.397 1.346.435.251.978.087 1.278-.407.3-.484.174-.978-.33-1.288ZM145.323 90.257c-.445-.252-1.094-.058-1.336.407-.223.426-.039 1.055.377 1.307.446.271 1.017.078 1.317-.436.271-.474.126-1.007-.358-1.278ZM122.103 131.236c-.475-.271-1.085-.116-1.346.359-.242.435-.039 1.084.416 1.336.446.242.988.058 1.279-.426.28-.465.135-.988-.349-1.269ZM135.989 106.632c-.465-.233-1.104-.02-1.327.455-.203.426.02 1.084.436 1.297.455.233 1.046.01 1.307-.484a.92.92 0 0 0-.416-1.268ZM134.11 111.948a.924.924 0 0 0-.426-1.269c-.455-.213-1.055-.019-1.288.436-.232.445-.019 1.123.417 1.346.445.223 1.036-.01 1.297-.513ZM129.414 120.227c.262-.465.087-1.085-.378-1.327-.435-.223-1.084-.01-1.326.436-.223.416 0 1.104.426 1.326.426.223 1.017.01 1.278-.445zM161.988 62.835c.232-.436.048-.969-.407-1.22a.97.97 0 0 0-1.326.387c-.242.455-.039 1.075.435 1.326.426.223 1.046 0 1.308-.493zM157.95 66.06c-.223.425 0 1.113.446 1.335.435.213 1.007 0 1.268-.474a.95.95 0 0 0-.378-1.288c-.435-.242-1.094-.029-1.336.436zM117.804 140.677c.281-.484.145-.997-.339-1.278a.984.984 0 0 0-1.346.378c-.242.416-.029 1.104.416 1.346.426.232.988.039 1.269-.446ZM118.482 135.623a.997.997 0 0 0 .339 1.346c.416.252 1.016.087 1.297-.368.31-.494.174-1.036-.329-1.317-.446-.252-1.046-.107-1.307.339ZM157.33 71.017a.933.933 0 0 0-.387-1.278c-.445-.233-1.046-.049-1.297.397-.252.436-.059 1.114.377 1.346s1.046.02 1.317-.465zM110.871 152.907a.93.93 0 0 0-.417-1.268c-.455-.223-1.055-.029-1.297.406-.233.436-.039 1.104.406 1.346.427.233 1.046 0 1.298-.494zM137.025 102.933c-.252.435-.048 1.084.416 1.336.436.232.998.048 1.279-.426.271-.455.125-.998-.359-1.288-.455-.271-1.055-.097-1.336.378ZM154.6 73.854c-.455-.242-1.085-.038-1.327.436-.203.397 0 1.075.407 1.307.426.242 1.056.02 1.317-.474.252-.465.077-1.007-.397-1.269ZM111.277 142.421c.242-.446.126-.969-.271-1.201-.436-.252-.958-.087-1.22.378-.252.445-.135.958.281 1.2.426.252.959.087 1.22-.377zM150.475 71.598c-.426-.242-.91-.097-1.172.348-.271.465-.155.988.281 1.24.416.232.93.077 1.181-.359.271-.484.155-.968-.29-1.23ZM142.322 84.235c-.262.445-.146.949.271 1.2.416.262.929.136 1.191-.3.28-.474.184-.988-.233-1.249-.426-.261-.958-.116-1.22.339zM140.298 89.56c.445.252.9.116 1.162-.349.271-.484.145-.997-.3-1.23-.456-.241-.93-.077-1.201.407-.242.446-.107.92.339 1.172ZM116.729 129.328c-.242.446-.106.949.32 1.191.426.252.939.078 1.2-.406.242-.436.097-.978-.31-1.201-.426-.232-.968-.048-1.22.416zM160.061 56.424c.281-.493.165-.958-.3-1.22-.436-.242-.91-.106-1.172.349-.261.445-.126.997.3 1.24.427.232.911.087 1.162-.369zM148.16 75.713c-.435-.261-.949-.097-1.22.388-.242.435-.126.91.281 1.152.465.28.939.155 1.22-.34.262-.444.146-.948-.281-1.2ZM115.654 132.989c-.416-.242-.929-.087-1.191.358-.281.465-.145.998.3 1.24.426.232.901.077 1.172-.388.261-.445.135-.968-.281-1.21ZM133.026 100.618c-.252.417-.136.969.251 1.22.397.252.978.078 1.23-.358.262-.455.126-.997-.31-1.239-.397-.223-.929-.049-1.181.377zM106.639 150.573c.262-.464.116-.987-.339-1.22-.426-.213-.91-.048-1.162.407-.251.446-.135.93.3 1.181.446.262.93.117 1.201-.368ZM122.897 121.921c.262-.445.145-.959-.271-1.21-.416-.252-.978-.078-1.23.387-.242.445-.106.949.339 1.191.455.252.891.116 1.162-.368ZM124.892 116.643c-.416-.232-.91-.067-1.172.388-.261.445-.135.939.301 1.191.455.261.949.106 1.21-.378.232-.436.087-.958-.339-1.191zM129.878 109.614c.252-.465.136-.92-.3-1.181-.445-.252-.939-.097-1.2.377-.242.446-.117.94.309 1.182.436.251.93.096 1.201-.388zM131.893 104.385c-.446-.252-.949-.097-1.211.378-.251.445-.126.939.301 1.191.435.252.929.106 1.21-.368.252-.436.126-.949-.291-1.191zM136.841 97.345c.261-.494.155-.93-.3-1.181-.475-.262-.949-.107-1.211.397-.232.445-.077.978.339 1.19.446.224.92.059 1.172-.406ZM146.137 80.962c.251-.446.125-.94-.301-1.191s-.9-.117-1.181.348c-.281.455-.145.978.32 1.23.435.242.89.087 1.162-.387ZM153.089 68.703c.262-.455.155-.959-.242-1.201-.445-.271-.987-.106-1.249.387-.232.436-.087.959.329 1.182.446.232.911.087 1.162-.368ZM155.471 64.53a.873.873 0 0 0-.368-1.182c-.436-.223-.958-.02-1.191.465-.213.435-.058.9.368 1.133.455.242.949.067 1.201-.417zM162.424 52.28c.251-.445.116-.949-.31-1.19-.446-.253-.949-.088-1.211.396-.242.455-.116.95.31 1.181.446.243.949.088 1.201-.387zM113.621 138.276c.251-.474.116-.949-.33-1.181-.465-.242-.958-.068-1.21.426-.223.436-.087.91.329 1.143.475.261.949.106 1.211-.388ZM104.005 153.508c-.435-.252-.91-.107-1.181.348-.271.446-.155.969.262 1.201a.856.856 0 0 0 1.2-.32c.281-.474.165-.978-.281-1.239zM137.693 92.407c-.271.455-.165.93.271 1.19.455.272.939.127 1.22-.358.252-.435.116-.968-.31-1.2-.435-.242-.91-.097-1.181.368ZM157.727 60.559c.281-.465.155-1.007-.28-1.25-.407-.222-.93-.067-1.191.369-.262.436-.146.949.271 1.2.416.252.939.107 1.191-.319zM107.443 145.693c-.252.446-.136.94.29 1.191.436.262.939.126 1.211-.348.251-.436.135-.959-.272-1.201-.416-.252-.968-.087-1.229.358ZM127.225 112.548c-.435-.242-.91-.097-1.171.368-.262.455-.146.959.281 1.201.435.251.939.106 1.191-.33.28-.493.164-.978-.301-1.239ZM120.205 124.797c-.455-.213-.949 0-1.172.494-.184.416 0 .949.388 1.142.445.213.939.039 1.171-.426.252-.494.097-.978-.387-1.21ZM157.204 50.256c.446.252.804.146 1.046-.32.223-.416.107-.842-.31-1.074-.426-.242-.861-.116-1.075.29-.251.475-.145.833.339 1.104ZM106.048 140.387c.417.242.833.116 1.066-.31.222-.407.106-.901-.271-1.114a.83.83 0 0 0-1.133.349c-.223.416-.097.823.338 1.075ZM139.378 81.668c-.455-.271-.823-.174-1.114.281-.251.407-.145.813.281 1.075.407.242.804.155 1.046-.223.281-.455.203-.89-.223-1.133zM148.635 65.256c-.436-.233-.823-.126-1.065.31-.252.455-.136.842.339 1.094.445.232.794.116 1.036-.349.242-.455.126-.813-.32-1.055zM114.085 127.789c.223-.416.107-.862-.29-1.084-.426-.242-.91-.107-1.133.319-.203.388-.048.872.339 1.094.407.233.852.097 1.075-.329zM125.405 106.206c-.455-.252-.852-.126-1.094.348-.233.446-.116.775.368 1.046.455.252.774.155 1.036-.339.252-.465.155-.804-.3-1.055zM127.681 102.129c-.407-.213-.833-.087-1.036.29-.262.485-.136.882.358 1.143.436.232.794.097 1.036-.378.213-.426.077-.832-.358-1.055ZM154.919 54.4c.397.204.775.068.998-.367.252-.485.126-.862-.349-1.095-.445-.222-.803-.087-1.046.378-.232.445-.087.842.397 1.085ZM99.832 151.261c-.446-.242-.872-.106-1.114.349-.213.426-.087.803.378 1.055.406.233.803.116 1.026-.281.242-.435.126-.89-.29-1.123ZM103.734 144.483c.446.252.785.155 1.046-.319.233-.426.116-.843-.3-1.075-.416-.233-.852-.107-1.084.3-.252.455-.146.823.338 1.094ZM137.306 86.868c.242-.445.126-.9-.301-1.123-.406-.213-.852-.087-1.084.32-.242.425-.097.87.349 1.113.387.213.813.078 1.026-.31zM115.373 124.003c.407.223.785.116 1.017-.29.261-.475.155-.872-.291-1.114s-.852-.116-1.094.349c-.213.397-.068.813.378 1.055zM117.697 119.869c.485.271.736.203 1.007-.271.272-.485.184-.882-.251-1.124-.446-.242-.862-.116-1.114.349-.242.445-.126.775.358 1.046ZM123.362 111.425c.242-.436.126-.92-.281-1.143-.426-.223-.881-.077-1.114.378-.213.406-.067.823.378 1.065.416.222.794.116 1.026-.3zM140.937 78.938c.445.251.784.135 1.046-.34.232-.425.106-.842-.31-1.064-.426-.233-.843-.107-1.075.32-.262.474-.155.813.339 1.093zM132.387 93.937c-.455-.262-.843-.146-1.104.329-.223.416-.107.803.339 1.055.407.233.794.136 1.017-.261.271-.484.184-.862-.262-1.114zM119.983 115.811c.416.242.784.155 1.026-.251.271-.446.165-.901-.252-1.133-.436-.242-.852-.146-1.094.261-.261.436-.136.862.32 1.114zM102.456 148.24c.252-.436.155-.842-.252-1.085-.435-.261-.871-.145-1.113.31-.242.446-.145.785.319 1.056.465.271.785.184 1.046-.281ZM143.203 74.852c.445.261.813.164 1.065-.272.242-.426.145-.852-.252-1.084-.455-.271-.861-.165-1.123.29-.232.417-.116.814.31 1.066ZM97.518 155.376c-.417-.232-.872-.116-1.094.281-.243.426-.117.881.31 1.133.396.232.832.097 1.065-.329.232-.417.116-.862-.291-1.085zM150.223 62.525c.445.252.804.145 1.055-.3.233-.417.117-.852-.29-1.085-.417-.242-.862-.126-1.094.271-.252.446-.136.852.329 1.114ZM160.536 45.909c.232-.426.135-.862-.262-1.094-.436-.262-.881-.146-1.123.3-.233.426-.116.823.31 1.075.426.251.832.145 1.065-.281zM133.936 91.177c.455.271.794.184 1.055-.261.242-.416.146-.852-.251-1.085-.426-.251-.862-.155-1.095.242-.271.456-.174.843.281 1.114zM145.546 70.736c.416.242.804.155 1.036-.232.252-.426.155-.92-.242-1.153-.407-.242-.881-.106-1.123.33-.233.406-.116.803.329 1.065zM111.49 130.762c-.416-.242-.842-.126-1.074.29-.262.456-.155.843.3 1.104.426.242.803.136 1.055-.3.223-.397.107-.862-.281-1.084zM108.411 136.272c.407.222.794.116 1.017-.291.261-.474.155-.862-.3-1.113-.465-.252-.833-.136-1.085.358-.213.416-.077.813.368 1.046ZM129.317 99.447c.407.222.784.106 1.017-.31.223-.407.116-.891-.252-1.114-.397-.232-.891-.097-1.133.31s-.097.852.368 1.104zM152.518 58.468c.426.242.794.154 1.036-.243.261-.426.135-.92-.271-1.142-.417-.223-.852-.097-1.085.32-.242.425-.126.813.32 1.065ZM161.843 42.074c.416.233.794.136 1.017-.271.251-.455.145-.881-.281-1.123-.446-.242-.833-.126-1.094.348q-.35.64.348 1.046zM128.552 92.727c.203-.34.068-.843-.29-1.056-.349-.203-.756-.068-.969.32-.213.387-.126.736.252.939.368.194.746.223 1.007-.213zM153.767 46.567c-.358-.135-.678-.02-.901.34a.69.69 0 0 0 .252.996c.387.204.813.097 1.007-.251.203-.359.058-.852-.358-1.075zM144.859 63.977c.164-.329 0-.842-.368-1.007-.33-.155-.785.03-.969.397-.193.407-.058.726.33.92.397.194.745.136 1.007-.3zM112.023 120.343c-.31-.194-.775-.058-.997.291a.674.674 0 0 0 .222.958c.378.233.814.145 1.017-.193a.786.786 0 0 0-.242-1.066zM100.665 141.868a.75.75 0 0 0-.339-1.026c-.416-.203-.716-.019-.93.329-.232.378-.116.775.272.968.387.194.803.088.997-.271ZM142.196 67.115c-.339-.194-.765-.068-.978.31-.213.387-.107.716.251.939.339.213.823.106 1.007-.213a.784.784 0 0 0-.28-1.046zM151.511 50.721c-.329-.203-.765-.077-.978.31-.213.378-.145.707.232.94.368.222.814.135 1.007-.194a.8.8 0 0 0-.271-1.056zM158.754 39.489a.764.764 0 0 0-.291-1.046c-.348-.203-.755-.068-.978.33-.223.396-.097.716.262.938.368.233.813.126 1.007-.222ZM97.982 144.851c-.339-.136-.765.068-.93.465-.174.426 0 .716.378.891.388.193.794.038.959-.339.165-.359-.039-.862-.407-1.017ZM102.969 137.792c.213-.359.097-.843-.252-1.046a.687.687 0 0 0-.978.3c-.193.378-.135.717.243.949.368.232.794.145.997-.203zM118.985 108.065c-.329-.194-.765-.068-.987.3-.233.387-.126.707.242.939.348.233.823.136 1.007-.184.203-.339.067-.862-.262-1.065zM120.302 104.298c-.184.329-.097.658.252.901.339.232.813.135 1.007-.194.232-.378.097-.862-.3-1.085-.31-.174-.736-.029-.969.368zM123.507 99.854c-.349-.126-.668-.01-.891.348-.213.358-.087.833.271.988.388.174.756.164.998-.262.203-.368.048-.842-.388-1.075zM130.895 88.572a.736.736 0 0 0-.348-1.016c-.407-.184-.717-.039-.93.329-.223.387-.106.804.281.968.397.175.755.146.988-.28zM149.177 54.836c-.358-.203-.784-.077-.978.31-.193.378-.126.717.242.959.359.223.804.126 1.007-.213.213-.349.097-.843-.261-1.046zM107.636 129.561a.77.77 0 0 0-.271-1.055c-.348-.194-.765-.058-.978.329-.222.387-.145.707.242.939.378.233.804.136 1.007-.213ZM108.653 124.826c-.174.358-.077.678.291.901.348.213.823.106 1.007-.223.193-.339.048-.862-.291-1.046-.329-.184-.774-.039-1.007.368ZM115.635 112.499c-.145.339-.145.678.232.93.349.232.804.145 1.017-.174a.76.76 0 0 0-.232-1.056c-.339-.223-.765-.106-1.017.3ZM133.2 84.525c.194-.349.029-.843-.329-1.036-.339-.175-.794-.01-.978.358-.204.407-.039.717.31.93.339.213.813.067.997-.262zM139.881 71.25a.7.7 0 0 0-.997.28c-.194.378-.136.726.222.969.32.222.824.106 1.017-.204a.754.754 0 0 0-.242-1.046ZM92.667 154.389c.406.213.755.203 1.007-.213.213-.339.077-.852-.281-1.046-.33-.184-.814-.039-.988.329-.184.378-.135.717.252.93zM125.947 95.796c-.348-.213-.774-.087-.978.29-.213.378-.145.717.223.95.339.222.813.116 1.007-.194a.764.764 0 0 0-.242-1.046zM147.144 59.94a.763.763 0 0 0-.281-1.046c-.397-.223-.716-.058-.959.271-.242.33-.116.804.223.997.378.213.804.126 1.007-.222zM96.017 150.061c.193-.339.048-.872-.291-1.066-.33-.184-.794-.038-.988.339-.203.388-.106.717.272.949.358.223.813.116 1.006-.222ZM135.253 79.393c-.329-.194-.775-.068-.988.3-.213.378-.145.707.233.949.387.242.804.155 1.007-.184.213-.358.097-.852-.252-1.055zM156.13 42.558c-.368-.194-.814-.039-1.007.378-.184.387-.03.678.29.89.349.223.813.107.997-.222a.77.77 0 0 0-.29-1.046zM105.303 133.686c.223-.368.097-.823-.271-1.046-.436-.261-.736-.038-.978.301-.223.309-.097.755.242.949.387.222.804.135 1.007-.194zM114.289 116.208c-.339-.174-.756 0-.959.387-.184.359-.058.765.31.92.387.155.755.165.987-.281a.764.764 0 0 0-.338-1.026ZM160.797 34.327c-.339-.203-.746-.077-.978.32-.223.387-.155.697.242.92.417.232.784.164.998-.194a.746.746 0 0 0-.272-1.046zM137.548 75.278c-.359-.184-.775-.04-.969.358-.203.407-.077.716.31.92.416.222.784.106.978-.281.174-.368.039-.813-.319-.997ZM159.122 28.014c-.456-.271-.775-.155-.988.184-.223.358-.126.678.232.89.388.243.678.069.881-.27.204-.34.117-.64-.125-.804ZM149.845 44.408c-.581-.271-.891-.107-1.055.242-.175.378-.049.726.368.9.426.184.707-.077.803-.406.068-.252-.087-.562-.116-.727zM155.781 32.323c-.174.339-.048.784.3.94.368.154.649.009.823-.32.194-.358.155-.678-.232-.881-.378-.194-.668-.088-.891.261ZM133.684 73.893c.184-.32.136-.62-.193-.852a.65.65 0 0 0-.949.222c-.194.368-.078.688.251.9.368.233.659.078.891-.28zM101.052 130.433c-.465-.272-.784-.184-1.026.184-.242.367-.097.687.232.89.329.213.639.117.852-.213.203-.329.223-.658-.058-.861ZM89.277 150.874c-.358-.204-.726-.097-.92.29-.203.397 0 .707.3.881.33.194.659.03.843-.29.203-.349.155-.668-.223-.881ZM91.844 147.649c.154-.358.154-.678-.243-.901-.387-.213-.697-.077-.89.272-.184.329-.107.668.222.871.358.223.668.097.91-.232zM87.022 154.941c-.388-.223-.785-.097-.969.271-.203.397-.029.677.31.871.358.203.63.058.833-.271.222-.368.126-.658-.174-.871ZM152.062 40.312c-.416-.213-.736-.126-.939.232-.203.368-.097.707.252.9.368.204.678.068.881-.3.194-.358.097-.639-.194-.832ZM142.835 56.686c-.474-.3-.775-.126-.978.194-.232.358-.068.697.262.9.338.213.658.068.852-.252.222-.348.155-.668-.136-.842ZM107.801 118.028c-.29-.203-.61-.029-.823.31-.213.349-.068.698.262.901.329.194.648.087.842-.252.184-.329.232-.658-.291-.959zM131.351 77.989c.184-.388.106-.668-.271-.872-.407-.222-.688-.029-.882.281-.213.368-.038.697.281.891.368.213.659.02.872-.3ZM112.488 109.904c-.387-.222-.688-.048-.881.281-.223.378-.049.697.29.891.358.203.659.039.843-.281.203-.358.135-.678-.252-.891ZM128.727 81.213c-.301-.164-.62-.068-.823.271-.213.349-.136.668.222.891.368.223.668.116.881-.232.213-.359.165-.659-.271-.93zM117.407 102.564c.222-.377.116-.668-.242-.871-.368-.203-.678-.107-.882.252-.213.377-.077.697.252.891.349.203.668.106.872-.272ZM119.721 98.507c.155-.377.107-.668-.242-.871-.339-.194-.784-.068-.929.29-.146.368-.049.678.31.881.416.233.639-.048.852-.3zM93.974 142.653c-.388-.194-.698-.155-.91.223-.194.348-.088.765.27.929.35.155.64.058.843-.281.223-.377.126-.658-.194-.871zM123.217 89.725c-.174.348-.019.668.3.852.32.184.639.077.843-.271s.193-.668-.194-.891-.697-.107-.949.3zM125.88 86.462c.416.232.668-.01.852-.33.193-.339.106-.639-.242-.832-.368-.213-.678-.088-.901.232-.213.31-.058.736.3.93zM110.445 114.852c.213-.387.125-.697-.233-.9-.368-.204-.697-.078-.891.271-.203.358-.077.687.262.9.368.223.658.058.862-.261zM95.63 139.738c.406.233.668 0 .852-.3.203-.329.116-.639-.223-.842-.32-.203-.794-.068-.93.261-.145.359-.087.688.3.881ZM161.504 24.935c.174-.533.213-.862-.194-1.065-.377-.184-.687-.058-.9.271-.194.31-.049.823.319.91.262.058.572-.077.775-.116ZM137.461 66.01c.387.194.668.03.852-.319.174-.33.145-.658-.213-.852-.378-.194-.736-.126-.93.271-.184.358-.068.678.291.891zM139.523 60.976c-.213.358-.116.677.223.89.348.223.668.136.881-.232.213-.358.155-.678-.213-.89-.358-.214-.668-.127-.901.231zM154.484 37.242c.29-.542.232-.852-.136-1.065-.378-.213-.678-.058-.9.252-.204.271-.039.852.3.93.261.057.571-.078.736-.107zM147.608 49.54c.175-.513.184-.823-.203-1.056-.378-.222-.746-.135-.939.243-.194.377-.058.745.28.89.233.097.572-.038.862-.067zM103.502 127.092c.145-.339.106-.62-.242-.833-.368-.213-.669-.116-.901.213-.213.31-.077.756.262.94.397.213.648-.01.881-.33zM104.654 122.435c-.194.387-.116.687.261.9.397.223.678.058.872-.29.194-.339.116-.649-.232-.843-.378-.213-.669-.087-.891.233zM98.593 134.48c-.388-.242-.688-.106-.9.232-.214.359-.098.698.25.901.379.223.688.048.882-.3.194-.339.097-.63-.232-.843zM114.792 105.779c-.406-.184-.706-.019-.871.339-.174.378-.019.697.348.872.368.164.669 0 .824-.33.164-.358.096-.687-.301-.871zM121.784 93.53c-.378-.242-.678-.077-.872.262-.203.368-.077.707.271.89.378.204.678.03.872-.32.184-.348.106-.638-.271-.822zM145.304 53.423c.136-.359.097-.64-.271-.843-.407-.232-.697-.058-.881.262-.204.348-.087.697.271.89.387.213.668 0 .881-.31ZM135.776 68.974c-.397-.233-.707-.107-.91.232-.213.358-.107.688.242.891.339.203.658.097.852-.232.203-.349.145-.668-.184-.9zM98.94 123.858c-.164.077-.474.145-.619.339-.203.261-.194.658.165.774.232.078.63-.009.794-.184.261-.271.145-.61-.34-.929ZM92.25 136.397c-.513-.29-.775-.174-.949.146-.155.28-.155.59.165.774.329.184.697.165.842-.203.087-.232-.029-.542-.048-.707zM149.254 34.202c.117.242.184.551.368.706.291.242.601.117.785-.213.174-.32.106-.658-.223-.784-.223-.087-.533.03-.804.058-.038.078-.087.155-.126.233ZM126.025 75.132c.116.242.165.562.349.717.28.242.658.135.765-.204.067-.232-.02-.639-.194-.784-.155-.126-.523.02-.794.048-.048.078-.087.146-.136.223zM121.396 83.295c.107.252.155.581.339.726.271.223.6.126.804-.193.193-.32.125-.649-.213-.785-.233-.087-.533 0-.794.02zM110.619 103.368c-.242.126-.552.194-.707.387-.203.262-.155.601.194.785.339.184.658.097.784-.233.087-.232-.019-.542-.039-.813-.077-.039-.155-.087-.232-.126ZM103.318 116.915c.145-.078.465-.145.62-.339.261-.329.058-.649-.252-.823-.31-.184-.572 0-.736.271-.184.32-.136.6.368.891ZM158.551 17.828c.125.242.193.551.387.706.29.223.6.078.784-.242.184-.329.078-.658-.252-.774-.232-.078-.532.048-.794.087l-.116.232zM142.225 46.257c.184.426.232.736.416.9.271.243.6.146.794-.173.213-.35.097-.688-.232-.824-.213-.087-.514.04-.978.097ZM86.72 145.509c.514.184.776.058.96-.251.203-.33.058-.62-.233-.804-.33-.213-.649-.049-.775.261-.087.223.02.533.049.794ZM157.311 21.7c-.523-.3-.784-.145-.939.165-.174.31-.116.61.242.785.339.164.658.087.775-.252.077-.233-.049-.533-.068-.688zM105.128 111.976c.117.242.175.562.359.717.271.223.6.126.784-.194.174-.319.136-.658-.213-.784-.232-.087-.533.019-.804.039-.038.077-.087.145-.126.222ZM153.932 25.952c.106.242.155.561.339.716.271.233.6.136.803-.174.204-.32.126-.649-.203-.794-.223-.097-.523 0-.794.01l-.145.232zM152.411 29.622c-.232.135-.532.222-.677.426-.194.28-.117.6.242.765.348.164.658.058.765-.271.077-.233-.058-.533-.097-.804zM116.729 91.545c.116.242.174.552.368.707.281.223.6.116.784-.203.194-.33.087-.659-.222-.785-.223-.087-.523.03-.794.058-.039.078-.088.155-.126.233zM133.82 62.409c-.233.135-.533.222-.678.426-.203.28-.116.61.232.774.339.165.669.068.775-.27.077-.243-.058-.533-.087-.804-.078-.04-.155-.078-.242-.117zM145.71 43.023c.272-.523.136-.784-.164-.959-.339-.193-.61-.067-.775.252-.164.31-.135.659.233.765.242.068.542-.039.706-.058ZM84.194 148.889c.116.242.174.571.368.707.27.203.6.116.784-.223.174-.329.097-.659-.233-.784-.222-.088-.532.038-.793.067a2 2 0 0 1-.126.223zM93.5 132.476c.106.242.154.561.338.726.271.242.6.116.794-.184.203-.32.116-.659-.194-.794-.213-.097-.522.01-.794.029a6 6 0 0 0-.135.223zM101.575 120.023c-.513-.329-.765-.203-.959.107s-.155.61.175.804c.319.184.658.116.794-.213.097-.233 0-.543-.02-.698zM81.88 152.956c.125.242.193.561.386.707.281.213.61.077.785-.242.184-.33.068-.659-.252-.775-.232-.078-.533.039-.804.077l-.116.223zM115.248 95.205c-.233.107-.543.165-.688.34-.223.28-.203.638.184.832.329.165.668.107.785-.232.077-.233-.039-.543-.068-.814-.078-.038-.146-.087-.223-.126zM119.469 88.282c.242-.116.562-.174.717-.358.251-.31.106-.687-.233-.804-.203-.068-.581.058-.726.223-.213.252-.155.59.242.94ZM123.701 79.228c.106.252.155.562.339.727.261.232.6.154.794-.165.194-.32.135-.659-.194-.794-.223-.097-.532 0-.794 0a5 5 0 0 1-.145.223zM128.359 71.036c.116.242.184.543.377.707.291.252.601.107.785-.203.184-.32.106-.659-.223-.785-.233-.087-.533.03-.794.049-.049.077-.087.155-.136.232zM136.183 58.313c-.243.126-.543.193-.698.387-.213.28-.135.59.204.784.339.184.658.097.774-.232.087-.232-.029-.533-.048-.804-.078-.048-.155-.087-.232-.135ZM138.749 54.43c-.523-.3-.775-.145-.949.155-.184.32-.107.6.232.784.339.174.659.087.775-.252.077-.232-.039-.532-.058-.687ZM107.433 107.919c.116.243.175.543.359.707.28.252.6.116.784-.193.184-.31.135-.649-.213-.785-.223-.087-.523.02-.794.029l-.145.233zM96.908 128.167c-.523-.301-.784-.136-.95.164-.173.32-.096.591.253.775.348.184.658.068.765-.252.077-.232-.049-.533-.068-.687ZM146.931 38.307c.116.242.184.552.368.707.28.233.6.107.784-.203.184-.32.106-.659-.223-.785-.222-.087-.532.03-.803.059-.039.077-.088.154-.126.232zM131.506 66.534c-.233.126-.533.203-.688.397-.223.28-.135.59.213.765.339.184.649.097.765-.233.078-.232-.029-.532-.058-.803-.077-.04-.155-.088-.232-.126ZM112.091 99.698c.116.242.184.542.368.707.28.242.59.126.784-.194.184-.32.126-.648-.213-.774-.233-.087-.533.01-.794.029-.049.077-.087.155-.136.232zM88.851 140.668c.126.232.204.532.397.687.29.242.6.097.775-.223.184-.329.097-.658-.242-.774-.233-.078-.533.038-.804.068l-.126.232zM140.84 50.16c-.242.115-.552.174-.707.358-.223.26-.174.58.174.774.33.184.649.136.785-.194.097-.222 0-.532-.02-.803zM160.884 13.712c.126.232.203.533.397.688.291.232.6.096.775-.223.184-.33.067-.659-.252-.775-.232-.077-.533.039-.794.078l-.116.232zM132.416 56.85c-.088-.222-.126-.503-.281-.639-.262-.222-.571-.077-.678.204-.068.184 0 .542.136.649.145.116.445.019.677.019.049-.078.097-.145.146-.223zM109.196 97.742c-.107-.203-.175-.542-.32-.59-.193-.058-.571.058-.658.213s.029.542.193.668c.126.097.446-.039.678-.068a6 6 0 0 1 .116-.223zM159.916 6.953c-.204.107-.523.165-.581.32-.068.194 0 .552.155.687.222.194.552.126.649-.213.058-.213 0-.455-.02-.687-.068-.03-.135-.068-.203-.097zM157.979 11.786c-.097-.223-.135-.562-.29-.62-.184-.068-.542.039-.659.194-.087.116 0 .522.136.629.145.106.445.02.678 0l.135-.223zM153.322 19.997c-.097-.213-.146-.494-.31-.63-.252-.213-.572-.087-.659.203-.058.184.01.543.155.64.155.106.455.01.688 0 .048-.078.087-.146.135-.223zM95.252 122.328c-.107-.213-.165-.533-.33-.601-.164-.067-.522.068-.629.223-.087.126.02.523.155.61.165.097.455 0 .688-.019.038-.078.077-.145.125-.223zM113.824 89.59c-.107-.204-.165-.514-.33-.591-.154-.078-.561.038-.61.164-.077.194-.009.552.136.688.116.106.445 0 .678-.03.048-.077.087-.154.135-.232zM121.919 72.692c.184.378.232.64.387.765.242.184.513.126.688-.184.174-.3.097-.581-.194-.678-.194-.068-.465.049-.881.097ZM144.026 36.351c-.107-.213-.184-.551-.339-.59-.194-.058-.542.077-.659.242-.087.116.039.523.194.62s.445-.02.678-.04c.039-.077.087-.154.126-.222zM127.739 65.081c-.087-.222-.126-.562-.281-.62-.174-.077-.542.03-.659.184-.096.117-.009.523.126.64.146.116.446.019.678.019.049-.068.097-.145.136-.213zM120.399 76.565c-.204.107-.523.175-.572.34-.067.193.02.551.175.677.222.184.561.106.649-.223.058-.213-.03-.465-.049-.707zM99.842 114.029c-.058-.106-.126-.416-.29-.493-.156-.068-.524.058-.62.213-.088.145-.02.523.116.639.251.213.552.155.794-.359ZM87.05 134.17c.184.368.242.649.417.765.242.165.513.078.668-.242.155-.329.02-.571-.242-.668-.184-.068-.436.068-.843.145ZM83.622 142.827c-.106-.213-.164-.523-.329-.6-.165-.078-.542.038-.63.184-.087.145 0 .532.136.639.145.116.455.009.688 0 .048-.078.097-.155.135-.233zM85.472 138.024c-.107.059-.359.126-.484.291-.184.242-.146.542.164.697.28.145.523.078.678-.232.165-.31.097-.523-.368-.746zM155.665 15.852c-.106-.203-.165-.513-.339-.59-.155-.078-.503.028-.629.164-.194.213-.204.552.135.678.204.077.465 0 .698-.02.048-.077.087-.155.135-.232ZM91.815 126.056c.096.213.135.523.3.61.145.078.494-.01.639-.145.242-.223.164-.562-.097-.697-.184-.097-.465 0-.707.019-.048.068-.087.136-.136.203zM76.254 154.35c-.204.126-.494.213-.582.397-.067.155.04.503.184.62.243.203.562.106.669-.204.067-.203-.02-.465-.04-.707-.077-.038-.144-.077-.222-.106zM150.62 23.27c-.203.125-.504.213-.581.396-.068.165.097.427.165.65.232-.078.552-.088.658-.252.107-.146 0-.456-.019-.688-.078-.039-.146-.068-.223-.107ZM102.33 110.146c-.222-.358-.3-.61-.464-.726-.281-.184-.533-.029-.659.262-.126.29-.077.59.252.658.213.048.465-.087.871-.184zM147.502 27.636c.174.368.223.717.378.775.174.068.561-.078.648-.242.078-.145-.048-.523-.213-.649-.116-.097-.426.049-.823.116zM106.862 101.867c-.116-.213-.175-.522-.349-.6-.155-.068-.532.058-.62.213-.087.145 0 .533.146.639.155.107.455 0 .687-.009.039-.078.087-.155.126-.233zM145.226 31.733c.117.348.126.63.271.755.252.223.543.145.727-.165s.067-.57-.184-.687c-.175-.078-.446.039-.814.097ZM140.521 39.953c.193.368.251.64.416.746.29.184.61.048.668-.29.029-.194-.087-.543-.232-.61-.175-.078-.455.067-.852.154ZM118.559 81.562c-.184-.388-.242-.697-.407-.784-.145-.078-.561.048-.6.174-.068.203 0 .532.155.687.097.097.426-.029.862-.077zM137.063 48.61c-.116-.203-.193-.513-.367-.571-.165-.058-.533.077-.61.232-.078.155.019.542.164.64.155.096.455-.03.697-.05.039-.076.078-.154.126-.241zM125.453 69.08c-.106-.213-.174-.513-.348-.6-.145-.068-.552.058-.601.194-.077.193 0 .561.146.678.126.106.455-.03.687-.059.039-.077.078-.145.116-.222zM134.382 51.97c-.204.097-.465.155-.591.32-.194.242-.155.581.164.678.184.058.523-.049.63-.194.106-.155.019-.455.019-.687-.068-.04-.145-.078-.213-.117zM129.685 60.182c-.203.116-.523.193-.562.348-.058.194.116.455.184.697.213-.077.533-.096.62-.251.097-.165-.01-.456-.029-.697-.068-.03-.145-.068-.213-.097ZM114.918 85.038c.233.359.31.62.485.727.28.164.59.038.639-.291.029-.194-.097-.542-.242-.61-.175-.078-.455.078-.882.174ZM111.103 92.96c-.193.106-.494.174-.571.338-.077.174-.019.533.126.659.213.184.561.164.678-.184.067-.213 0-.475-.02-.707zM104.518 105.983c-.116-.204-.184-.523-.348-.591-.155-.068-.533.058-.62.203-.087.155 0 .533.145.64.146.106.446 0 .688-.01.048-.078.087-.155.135-.242ZM97.547 118.27c-.107-.213-.165-.523-.33-.6-.154-.078-.532.039-.619.194-.087.145 0 .532.136.639.145.106.455.009.687 0 .048-.078.087-.155.136-.223zM90.672 130.724c-.194-.388-.252-.698-.426-.785-.145-.068-.562.068-.61.204-.068.193.029.532.184.668.106.096.426-.039.852-.087ZM139.387 44.553c-.097-.213-.155-.484-.31-.63-.271-.242-.561-.077-.658.204-.068.184 0 .532.145.639.155.106.455.02.688.01.048-.078.087-.146.135-.223ZM78.994 150.99c-.107-.204-.174-.513-.339-.591-.155-.077-.494.029-.63.174-.183.204-.213.552.136.668.204.068.465-.009.697-.029.039-.077.087-.154.126-.222zM81.289 146.913c-.116-.203-.194-.513-.368-.59-.155-.068-.523.077-.6.232-.078.155.019.533.164.63.155.096.455-.02.688-.039zM116.516 74.26c-.349.194-.61.252-.698.407-.067.117.078.359.126.552.204-.058.475-.067.601-.203.087-.097 0-.368-.02-.746zM84.184 132.456c-.155-.31-.223-.6-.34-.629-.183-.039-.454.058-.58.203-.068.078.039.455.155.513.164.078.407-.029.765-.087ZM150.533 13.064c.116.329.174.522.242.706.223-.077.465-.106.639-.242.058-.048-.019-.445-.116-.494-.175-.077-.417 0-.765.03ZM146.756 20.984c-.348.174-.61.223-.697.368-.077.126.058.368.097.562.203-.058.474-.049.591-.184.096-.107.009-.368 0-.746zM127.942 53.849c-.174.106-.436.184-.503.339-.059.135.087.367.145.551.203-.077.455-.106.581-.242.087-.096-.01-.358-.029-.542-.068-.039-.136-.068-.204-.106zM104.761 94.799c-.184.087-.455.135-.523.29-.068.146.068.388.116.581.194-.067.455-.077.571-.203.097-.107.01-.358.01-.552-.058-.039-.116-.077-.184-.116zM114.386 79.219c-.116-.32-.155-.63-.271-.659-.175-.058-.465.02-.591.145-.077.078-.01.465.097.533.155.087.407 0 .765-.01zM71.48 152.365c.155.3.222.591.339.61a.7.7 0 0 0 .58-.194c.068-.077-.038-.465-.154-.523-.155-.077-.407.039-.775.107zM74.724 147.95c-.34.164-.62.213-.698.368-.067.145.068.397.117.6.203-.077.464-.097.58-.242.097-.116 0-.368 0-.726ZM156.004 4.64c-.349.193-.61.25-.688.396-.067.126.078.368.126.552.204-.058.465-.068.591-.203.087-.097 0-.368-.02-.746zM78.452 140.067c.155.32.213.61.329.64.174.038.445-.059.58-.194.069-.068-.028-.455-.144-.513-.155-.078-.397.019-.765.058zM81.512 135.729c-.184.107-.436.165-.523.32-.068.126.067.358.116.542.203-.058.465-.058.58-.193.098-.107.02-.368.02-.562-.058-.039-.126-.078-.184-.116zM90.09 119.558c.156.32.204.601.32.63.184.039.456-.039.581-.174.068-.078-.019-.465-.135-.523-.155-.078-.397.019-.765.067ZM133.006 46.432c-.164-.31-.232-.591-.348-.61a.69.69 0 0 0-.572.193c-.067.078.039.465.155.514.165.067.407-.04.775-.097zM95.63 111.125c-.359.164-.62.213-.707.358-.078.135.058.377.096.571.204-.058.475-.058.61-.184.097-.087.01-.358 0-.745ZM100.277 102.942c-.358.174-.62.223-.706.368-.078.116.058.368.097.552.203-.048.464-.048.6-.174.097-.097.019-.368.019-.746zM102.785 99.689c-.145-.32-.203-.62-.319-.65-.184-.038-.455.05-.591.185-.068.077.019.465.136.523.155.077.406-.02.765-.058zM111.878 82.424c-.349.194-.61.261-.697.416-.068.126.077.368.125.562.204-.068.465-.087.591-.233.087-.106 0-.367-.019-.745ZM109.554 86.568c-.358.174-.62.223-.707.368-.068.126.068.358.107.552.203-.058.464-.058.59-.184.087-.087.01-.358 0-.736zM107.191 90.654c-.339.194-.6.262-.678.417-.068.126.078.368.136.552.203-.068.465-.088.581-.223.087-.107 0-.368-.039-.746ZM120.312 66.291c.136.33.165.62.281.659.174.048.465-.01.59-.145.078-.078 0-.465-.106-.543-.145-.087-.407 0-.765.03ZM97.063 107.28c.145.32.193.61.31.639.174.039.464-.048.58-.193.078-.097 0-.485-.116-.533-.164-.068-.416.029-.774.077zM129.617 49.898c.126.32.155.62.271.659.174.058.465-.01.591-.136.077-.077.009-.465-.097-.532-.145-.088-.407 0-.765.019zM134.227 41.774c.145.32.193.63.309.649.184.038.475-.068.581-.204.078-.097-.019-.484-.125-.532-.165-.078-.417.038-.765.096zM136.58 37.62c.135.339.174.63.29.658a.69.69 0 0 0 .591-.155c.077-.077 0-.455-.116-.532-.146-.087-.397 0-.765.02zM139.968 34.134c-.164-.3-.232-.59-.358-.62-.184-.029-.455.078-.581.213-.068.088.049.475.165.523.164.068.406-.048.765-.126zM77 143.882c-.35.194-.61.252-.688.407-.068.136.077.368.126.562.203-.068.464-.078.59-.213.087-.097 0-.359-.029-.746zM144.617 25.952c-.146-.32-.204-.61-.32-.64-.174-.048-.455.05-.581.185-.068.077.02.455.136.523.155.077.397-.02.765-.058zM88.677 123.402c-.358.165-.63.213-.717.359-.077.126.049.377.088.571.203-.058.474-.048.6-.184.097-.097.03-.368.039-.746zM149.051 16.937c-.358.184-.61.242-.707.387-.067.116.078.358.126.542.204-.058.455-.067.581-.193.087-.097 0-.359 0-.736ZM85.404 127.808c.164.31.232.601.348.62a.7.7 0 0 0 .581-.184c.068-.077-.038-.465-.154-.523-.156-.077-.407.039-.775.087ZM153.738 8.696c-.358.175-.62.233-.707.378-.067.126.058.368.107.562.203-.059.465-.059.591-.184.096-.097.009-.368 0-.746zM142.051 29.196c-.339.203-.601.261-.678.426-.058.126.097.358.155.552.203-.078.455-.097.581-.233.087-.096-.02-.358-.058-.735zM93.276 115.221c-.339.174-.6.232-.687.387-.068.116.077.358.126.552.203-.058.464-.068.59-.203.087-.107 0-.368-.02-.736zM126.015 58.739c-.145-.32-.203-.61-.319-.64-.175-.038-.455.049-.581.175-.068.068.019.455.126.513.155.078.406-.01.765-.048zM123.527 62.002c-.368.165-.63.203-.727.348-.077.117.049.378.087.572.204-.049.465-.039.601-.174.097-.097.029-.368.048-.746zM118.879 70.184c-.359.155-.63.194-.727.339-.077.126.049.378.088.571.213-.048.474-.048.61-.174.096-.087.019-.358.029-.736ZM100.733 92.504c-.252.116-.475.145-.543.261-.067.117.02.33.029.494.184-.029.446 0 .543-.116.087-.106 0-.358-.029-.649zM144.772 14.71c-.223.155-.426.222-.465.339-.039.126.087.3.145.455.174-.068.397-.097.484-.223.058-.077-.087-.3-.174-.571zM147.192 10.594c-.261.126-.474.165-.542.29-.058.117.029.32.048.485.184-.03.436 0 .523-.116.087-.107 0-.349-.029-.65zM130.886 39.266c-.242.145-.465.193-.533.329-.048.097.087.3.136.455.174-.058.397-.068.494-.184.067-.087-.039-.31-.097-.6ZM123.294 51.777c.077.232.106.484.194.513.155.048.348-.058.532-.097-.048-.174-.058-.397-.164-.523-.059-.068-.31.048-.552.097zM114.831 68.664c-.097-.252-.126-.504-.232-.543-.136-.058-.387.01-.494.117-.068.077 0 .406.087.455.145.067.358 0 .63-.03zM98.37 96.639c-.242.106-.455.135-.523.251-.058.117.039.31.068.475.184-.039.406-.03.522-.145.068-.068-.028-.32-.077-.591zM135.408 31.161c-.146.078-.368.136-.417.252-.048.126.068.31.116.475.175-.059.417-.068.514-.184.097-.117.048-.349.058-.533h-.281zM133.2 35.17c-.223.126-.436.174-.494.3-.048.107.058.416.126.426.165.02.397-.039.494-.155.068-.087-.058-.32-.126-.58zM121.571 55.67c-.233.125-.446.183-.494.3-.049.116.068.31.116.464.174-.058.407-.067.503-.193.068-.078-.058-.31-.125-.581zM82.354 125.969c-.165-.271-.223-.485-.358-.562-.097-.048-.368.068-.426.184s.019.407.116.445c.145.059.348-.029.668-.067ZM103.008 88.446c-.252.126-.484.175-.523.281-.048.136.029.378.136.465.077.058.397-.02.435-.116.058-.145-.019-.349-.058-.64zM86.13 117.283c.078.232.107.494.204.513.154.048.348-.058.532-.107-.058-.174-.068-.406-.184-.513-.077-.068-.31.049-.552.097zM96.017 100.764c-.223.097-.446.135-.504.242-.058.116.048.31.087.474.175-.038.407-.038.513-.145.068-.068-.048-.31-.096-.571ZM91.417 108.907c-.252.116-.494.145-.532.252-.049.145.058.339.106.513.165-.039.416-.039.465-.135.068-.136-.02-.349-.049-.63zM89.268 113.72c-.117-.271-.165-.543-.262-.562-.155-.029-.368.068-.484.184-.058.048.03.378.107.407.154.058.358-.01.639-.039zM107.666 80.245c-.242.107-.465.136-.523.252-.058.106.048.31.087.474.174-.038.407-.038.513-.145.068-.077-.029-.32-.077-.58ZM112.343 72.072c-.262.107-.504.136-.543.242-.058.136.049.34.088.514.164-.04.416-.02.474-.117.078-.126 0-.348-.01-.639zM116.942 63.851c-.233.117-.455.155-.504.272-.048.125.068.31.107.474.174-.048.397-.058.503-.174.068-.068-.058-.31-.116-.572zM66.009 154.67c-.088-.242-.117-.504-.213-.543-.146-.048-.388.029-.494.146-.058.058.029.377.135.445.117.068.32-.019.572-.048ZM142.505 18.776c-.232.126-.445.175-.503.3-.049.107.068.3.116.456.174-.058.407-.058.504-.175.067-.087-.049-.32-.107-.58zM77.435 133.425c-.242.155-.456.222-.514.368-.048.106.088.3.136.445.174-.068.407-.087.504-.213.067-.077-.059-.31-.126-.61zM126.257 47.477c-.232.097-.455.126-.513.242-.058.117.048.32.077.484.175-.038.407-.038.514-.145.067-.068-.039-.31-.088-.58zM140.23 22.892c-.252.106-.494.145-.533.252-.048.135.058.339.097.513.165-.039.416-.03.465-.126.077-.136 0-.349-.029-.63zM75.334 138.315c-.107-.271-.136-.523-.243-.562-.145-.048-.358.029-.503.126-.049.029.01.368.097.407.145.068.348.019.648.029ZM137.809 26.959c-.232.174-.436.261-.494.397-.039.106.116.406.184.406.165 0 .388-.087.475-.222.058-.087-.078-.3-.165-.581ZM70.725 146.449c-.146-.281-.194-.494-.32-.571-.087-.059-.378.048-.436.154-.058.107 0 .407.097.456.136.067.349 0 .659-.03zM72.787 141.704c-.223.106-.446.135-.504.251-.058.117.049.32.078.485.184-.049.406-.049.522-.165.068-.068-.048-.31-.096-.571ZM79.982 130.181c-.126-.31-.165-.523-.281-.639-.058-.058-.359.01-.407.097-.068.116-.068.397.02.455.125.087.348.048.668.087ZM68.187 149.877c-.251.106-.464.126-.522.232-.059.116.019.32.038.484.184-.038.407-.029.533-.126.068-.058-.02-.309-.049-.59ZM119.479 60.443c-.126-.232-.174-.474-.281-.503-.136-.04-.32.096-.484.164.058.145.087.378.194.426.116.058.319-.039.571-.087ZM149.458 6.518c-.223.116-.436.164-.484.27-.049.127.068.31.106.465.175-.048.397-.058.504-.174.058-.068-.058-.3-.126-.561ZM110.009 76.11c-.252.136-.465.174-.523.3-.058.107.019.388.106.436.117.058.427.01.456-.068.067-.145-.01-.358-.039-.658zM105.351 84.37c-.232.097-.455.126-.513.242s.029.32.058.484c.184-.039.407-.02.523-.126.077-.068-.029-.32-.068-.59zM83.777 121.37c.097.251.126.503.223.532.145.049.349-.048.523-.087-.048-.165-.048-.387-.155-.465-.097-.077-.31 0-.581.02zM93.915 105.499c-.097-.243-.116-.465-.222-.533-.117-.068-.32.029-.484.058.038.174.019.407.125.513.078.078.32-.009.581-.038ZM127.913 43.594c.107.242.136.484.232.514.146.048.339-.058.514-.097-.049-.165-.058-.388-.165-.465-.097-.068-.31.02-.581.048Z"/></g><path fill="#000" d="M133.684 33.97c2.392 2.682 5.384 4.676 7.786 7.349.145.164.309.32.445.494-.271-.34-.126-.136.019.087.31.503.64 1.007.988 1.481.533.717 1.172 1.385 1.782 2.034.271.28.552.552.833.833.213.213.416.445.648.639.339.3-.097-.242.02.058.31.823.803 1.655 1.317 2.372 1.084 1.52 1.849 3.157 2.769 4.783.465.824 1.152 1.424 1.685 2.199.465.677.6 1.559.91 2.324.62 1.549 1.617 2.934 2.208 4.483.193.513.368 1.036.561 1.55.184.483-.038-.34 0 .067.029.28.097.571.146.852.174 1.017.445 1.898.794 2.866.319.881.639 1.753.958 2.634.126.349 0 .397.029.078-.009.193 0 .387 0 .57 0 .543-.096 1.163-.019 1.705.058.407.271.852.397 1.24.107.31.203.61.31.92.116.348.058.435.029.116.087.861.29 1.714.31 2.585.019.92-.01 1.772.164 2.672s.339 1.86.465 2.809c.039.261.078.532.107.794.019.193.135-.465-.02-.02-.193.552-.28 1.23-.368 1.811-.135.871-.126 1.879-.048 2.76.029.348.116.687.174 1.036.058.32.097.658.184.978.097.348 0 .465.078.106-.175.94-.533 1.82-.543 2.78v1.655c0 .388-.038.436 0 .107-.038.242-.067.484-.106.726-.049.32-.097.649-.136.978 0 .077-.106.707 0 .3.107-.407-.135.271-.184.368l-.416.93c-.746 1.655-1.201 3.902-.852 5.713.106.523.281-.572.077-.33-.126.155-.203.504-.28.688-.175.436-.339.871-.523 1.298-.368.832-.891 1.636-1.133 2.517-.136.504-.233 1.036-.349 1.549-.019.088-.203.785-.068.388.126-.368-.126.232-.184.348-.416.891-.832 1.772-1.249 2.663-.774 1.637-1.355 3.331-2.178 4.948-.146.291-.31.572-.475.852l-.436.765c-.155.272-.561.669-.077.175-.571.59-1.065 1.288-1.588 1.936a37 37 0 0 0-3.263 4.745c-.146.252-.291.494-.426.746-.136.251-.427.503.009 0-.368.406-.707.852-1.065 1.268-.106.136-.281.281-.358.426.3-.532.261-.261-.049.029-.416.388-.832.785-1.249 1.182-.387.377-.648.803-.929 1.258-.233.368-.823.998-.891 1.433.048-.29.862-.89.242-.406-.223.174-.436.368-.649.552-.387.329-.774.649-1.133 1.026-.358.378-.707.765-1.055 1.143-.136.155-.3.3-.426.465.348-.446.232-.233-.087.058-.698.639-1.375 1.268-2.111 1.859-.223.174-.455.339-.669.532-.61.552.233-.184.533-.232-.503.077-1.094.474-1.559.678-1.23.532-1.956 1.297-2.827 2.275-.136.146-.32.31-.426.475.203-.339 1.074-.736.338-.368-.522.261-1.036.571-1.549.852-.687.387-1.394.765-2.072 1.181s-1.336.949-2.053 1.327c-.794.416-1.636.726-2.43 1.162s-1.579.881-2.363 1.346c-.242.145-.504.281-.736.445-.658.436.116-.155.494-.097-.523-.087-1.24.136-1.762.194-1.772.194-3.525 1.123-5.152 1.821l-1.075.464c-.251.107-.513.204-.755.33-.552.28.291.058-.01.048-.92-.029-2.062.213-2.924.533-.503.184-1.075.348-1.54.6-.426.232.262.039.126 0-.222-.068-.677.106-.9.145-.281.049-.562.078-.843.136-.426.087-.406.038-.038.048-.581-.019-1.162-.039-1.734-.048-1.007-.029-1.946.164-2.943.29-.814.107-1.646.107-2.46.233-.465.077-.93.222-1.385.338-.28.068-.57.136-.861.214-.92.251.029-.136.329 0-.726-.33-2.072-.243-2.876-.223-.542.009-1.094.029-1.636.048-.456.01-.3-.116 0 0-.233-.087-.523-.087-.765-.135a17 17 0 0 0-2.818-.281c-.988-.02-1.83-.174-2.76-.271-.174-.02-.736-.126-.039.019a9 9 0 0 1-.542-.135c-.532-.136-1.065-.281-1.607-.397-.446-.097-.872-.117-1.327-.146-.29-.019-.58-.038-.871-.048-.34-.01-.688-.078-.175.039-.92-.213-1.81-.533-2.74-.727-.862-.184-1.714-.387-2.585-.474-.397-.039-1.279-.31-1.637-.165.233-.097.94.484.281.039-.271-.184-.562-.339-.842-.513-.494-.3-.94-.62-1.501-.746-.485-.106-.998-.135-1.492-.203-.232-.029-.464-.058-.697-.097-.087-.01.359.223.068-.048-.407-.368-1.104-.62-1.598-.862-1.442-.736-3.001-1.317-4.493-1.947-.484-.203-.978-.397-1.471-.6-.175-.068-.359-.135-.523-.213.58.271-.01-.068-.184-.194-.814-.619-1.579-1.162-2.48-1.646-.28-.155-.57-.3-.851-.455-.223-.116-.465-.387-.058-.029-.417-.368-.862-.697-1.288-1.046-.688-.552-1.472-.949-2.179-1.471-.668-.494-1.133-1.23-1.801-1.724-.697-.523-1.675-.794-2.47-1.152l.543.445c-.455-.697-.872-1.694-1.5-2.237-.63-.542-1.676-.832-2.431-1.2l.542.445c-.93-1.152-1.81-2.334-2.75-3.486-.484-.591-1.114-1.094-1.714-1.569-.533-.416.068.223-.261-.242-.3-.416-.62-.823-.94-1.229-.88-1.143-2.072-2.063-3.079-3.109-.145-.145-.28-.3-.436-.445-.28-.271-.02 0 0 .01-.28-.368-.561-.746-.842-1.124a22 22 0 0 1-1.172-1.772c-.436-.716-.794-1.104-1.481-1.588-.359-.252-.707-.503-1.065-.745-.175-.117.193.368.058.048-.097-.223-.223-.445-.34-.668-.358-.697-.648-1.278-1.19-1.85-.32-.329-.63-.668-.95-.997-.067-.068-.377-.426-.164-.155s-.145-.232-.203-.319c-1.637-2.363-3.244-4.735-4.658-7.224a40 40 0 0 0-2.43-3.776c-.262-.368-.543-.727-.814-1.085-.097-.136-.203-.349-.338-.455-.291-.232-.02.136-.068.039-.33-.785-.407-1.666-.746-2.45-.61-1.414-1.578-2.528-2.47-3.748-.425-.59-.793-1.23-1.239-1.8-.164-.214.097.396.03.125-.049-.193-.078-.397-.107-.59-.097-.494-.155-1.007-.28-1.492-.34-1.375-1.415-2.846-2.054-4.125s-1.394-2.488-1.946-3.853-.89-2.596-1.598-3.845c-.339-.6-.63-1.19-.92-1.82-.155-.33-.32-.659-.455-.997.126.32.078.27.039 0-.039-.272-.107-.543-.155-.814-.271-1.443-.707-2.847-1.24-4.222a136 136 0 0 1-.803-2.11c-.165-.465-.349-.92-.504-1.385-.096-.29.107.397.04.096-.059-.251-.117-.493-.175-.745-.358-1.482-.823-2.924-1.336-4.358l-.465-1.278c-.126-.339-.039-.28 0 0-.02-.184-.058-.368-.078-.552-.116-.755-.184-1.5-.435-2.217-.155-.426-.31-.843-.475-1.269-.068-.184-.155-.367-.203-.552-.03-.125 0 .388.058 0 .097-.639-.058-1.5-.145-2.14-.097-.716-.34-1.423-.426-2.14-.088-.716-.01-1.49-.058-2.227-.097-1.462-.262-3.001-.581-4.425 0 .02-.068.436 0 .058.038-.184.048-.377.077-.561.058-.465.145-.93.184-1.395.068-.784-.078-1.588-.126-2.372-.039-.697 0-1.385.02-2.082 0-.155 0-.31.01-.465-.02.233-.05.397.018.097.107-.494.126-1.017.194-1.52.174-1.356.726-2.644.95-4a12 12 0 0 0 .135-2.284c0-.136.077-1.182-.03-1.25.194.136-.406.92-.028.494.154-.184.261-.493.368-.707.358-.687.668-1.307.871-2.062.116-.436.33-.94.378-1.395.058-.542-.126.398-.281.485.116-.058.242-.359.31-.465.464-.707 1.065-1.433 1.326-2.247.126-.406.233-.813.359-1.21.058-.213.154-.436.193-.658.116-.62-.465.57-.232.416.513-.339.89-1.278 1.278-1.782.455-.59.968-1.162 1.452-1.723.485-.562 1.017-1.104 1.463-1.695.222-.29.426-.62.629-.92.194-.29 1.056-1.268.28-.63-.774.64.369-.154.601-.3.32-.193.649-.387.959-.6.63-.406 1.249-.832 1.859-1.249.61-.416 1.559-1.084 1.966-1.723.222-.349-.465.232-.184.106.155-.077.31-.184.455-.28.145-.098 1.297-.66 1.297-.795 0 .039-.62.184-.164.097.184-.039.368-.106.542-.165.445-.135.91-.251 1.346-.416.765-.28 1.665-.755 2.314-1.249.358-.271-.426.136-.174.058.165-.048.33-.126.494-.194.465-.184.93-.397 1.413-.542.698-.223 1.443-.3 2.14-.523.775-.242 1.56-.784 2.208-1.259.843-.6-1.181.165-.174.02.484-.068.968-.174 1.443-.271 1.471-.271 2.924-.504 4.405-.717.794-.116 1.54-.358 2.315-.59.184-.059.426-.088.6-.185.387-.213-.678.059-.649.078.34.174 1.056.116 1.424.155 1.578.174 3.185-.02 4.715-.436.417-.116.882-.184 1.269-.348.523-.223-1.017-.04-.61.067.194.049.494 0 .687 0 .698 0 1.366 0 2.053.117.881.154 1.705.397 2.586.174.745-.194 1.49-.436 2.227-.649l-1.269.03c.736.193 1.472.406 2.218.57.833.184 1.694.068 2.546.097 1.472.049 2.915.175 4.397.155 1.481-.02 2.72 0 4.154.271.174.03.338.068.513.097.038 0-.533-.116-.087-.02.464.107.939.204 1.404.31.745.165 1.442.243 2.198.291.232.02 1.404.194.658-.01.397.107.775.262 1.162.388.736.242 1.385.416 2.15.494.678.067 1.365.145 2.043.193.465.039.968.136 1.443.116.32-.01.116-.019-.116-.058.203.03.406.088.61.136 1.49.33 2.856 1.017 4.338 1.307q.752.146 1.52.29c.135.03.271.05.407.078-.436-.106-.262-.058.019.049.736.261 1.491.542 2.266.697.445.087.89.164 1.336.242.184.029.368.068.552.097.455.077-.203-.097-.048 0 .57.368 1.375.62 2.023.842 1.404.484 2.896.794 4.338 1.133s2.944.533 4.32.997c1.374.465 2.652 1.26 3.998 1.782 2.712 1.055 5.307 2.324 8.095 3.215 1.317.426 2.528 1.259 3.786 1.83.213.097.417.194.63.29.387.165-.242-.154-.049-.038.388.242.765.484 1.153.726.648.407 1.307.775 1.985 1.143 1.239.668 2.546 1.113 3.805 1.723.62.3 1.23.6 1.859.881.436.204.872.426 1.317.6.32.127.029.078-.077-.057.126.145.261.29.387.435.533.591.968 1.25 1.714 1.55.455.184.93.32 1.394.474.155.049.31.097.465.155.078.03-.242-.3-.048.03.707 1.229 2.44 2.284 3.66 2.904.678.349 1.394.62 2.082.93 1.481.658 4.106-1.879 2.188-2.731-.581-.262-1.152-.542-1.743-.775-.087-.038-.174-.077-.271-.116-.31-.135.407.252.107.068a38 38 0 0 1-1.036-.678c-.92-.59-1.472-1.52-2.334-2.15-.484-.348-1.181-.474-1.733-.668-.242-.077-.523-.135-.746-.252.6.31-.106-.27-.261-.445-.426-.465-.804-1.007-1.346-1.317-.543-.31-1.182-.532-1.763-.803-1.946-.901-3.941-1.695-5.829-2.712-.203-.106-.804-.484-.29-.145-.213-.136-.436-.271-.649-.416-.533-.34-1.065-.707-1.627-.998-1.094-.552-2.198-1.017-3.273-1.607-1.84-1.007-3.989-1.375-5.868-2.344-2.014-1.036-4.212-1.626-6.245-2.624-1.898-.939-4.058-1.21-6.11-1.713-1.182-.291-2.382-.562-3.544-.93-.969-.31-1.85-.862-2.847-1.056-.65-.125-1.298-.232-1.947-.358-.368-.068.494.194-.087-.048-.377-.165-.794-.262-1.19-.397-.495-.165-.97-.29-1.482-.388-.378-.077-.756-.145-1.133-.213-.126-.029-.252-.048-.388-.077-.552-.097.242.116.02 0-2.024-1.162-4.59-1.336-6.846-1.55-.562-.048-1.133-.116-1.695-.174-.222-.02-.91-.193-.222.02-.32-.097-.63-.213-.95-.32-1.161-.387-2.362-.707-3.602-.61-.542.039.446.126-.077.02-.33-.068-.658-.146-.988-.214-.532-.116-1.075-.242-1.607-.348-1.298-.262-2.363-.378-3.68-.349-2.169.049-4.309-.145-6.468-.145-.28 0-.571-.02-.852 0 .639-.03-.02-.01-.33-.097C54.594 4.31 53.809 4 53.102 4s-1.481.349-2.13.533c-.194.058-.62.096-.765.222 1.046-.862 1.065.049.688-.135-.165-.078-.446-.078-.62-.107-1.2-.213-2.266-.27-3.486-.27-.59 0-1.123.115-1.695.27l-1.162.32c-.125.038-.251.058-.377.106-.262.097.59.01.155-.058-.61-.106-1.395.155-2.014.174.629-.029.135-.038-.194-.067-.436-.049-.862-.107-1.298-.146a4.5 4.5 0 0 0-1.675.184c-.348.097-.687.213-1.036.31-.184.058-.368.097-.542.165-.28.106-.3-.078.194-.03-1.095-.086-2.47.32-3.554.533-1.162.223-2.43.31-3.554.688-.62.203-1.19.668-1.743 1.007-.203.126-.494.252-.668.416.542-.494.494-.126.242-.145-.194-.02-.484.116-.668.155a22 22 0 0 0-3.39 1.114c-.619.261-1.19.62-1.771.948-.145.088-.3.155-.436.252-.32.213-.242-.02.203-.068-.28.03-.58.175-.852.262-1.336.407-2.401.959-3.582 1.724-.475.31-.862.658-1.269 1.045-.242.223-.533.436-.745.688-.33.387.561-.34-.126.126-1.046.697-2.102 1.365-3.167 2.043s-1.55 1.694-2.333 2.701c-.727.94-1.57 1.811-2.334 2.721-.668.794-1.346 1.637-1.888 2.518-.407.659-.562 1.423-.775 2.169-.048.174-.271.581-.223.746-.377-1.308.543-.833.29-.62-.154.126-.27.407-.377.58-.339.514-.784 1.037-1.046 1.599-.29.61-.397 1.346-.57 1.985-.069.261-.36.794-.04.222-.125.233-.242.465-.358.688-.348.658-.784 1.297-.833 2.053-.038.6.02 1.23.04 1.83v.397c0 .339.057-.475 0-.126l-.204 1.22c-.174 1.046-.59 2.014-.814 3.05C.144 42.122.067 44.64.396 46.8c.087.6.107-.28 0 .184-.068.33-.087.678-.135 1.008-.078.542-.165 1.065-.117 1.617.126 1.2.359 2.391.484 3.592.097.978.02 1.975.136 2.953.136 1.172.445 2.257.513 3.438.078 1.259.572 2.198.93 3.399.097.31-.097-.446-.058-.117.01.097.038.194.038.281.03.349.107.707.155 1.056.078.532.184.987.359 1.5.426 1.211.861 2.421 1.258 3.651.165.504-.058-.368.04.184.057.358.174.717.251 1.075.136.552.28 1.084.474 1.617.426 1.181.833 2.401 1.337 3.554.222.513-.097-.349.067.164.117.388.243.775.368 1.162.155.484.272.93.368 1.424.252 1.326.61 2.362 1.182 3.592.397.833.958 1.598 1.317 2.44.474 1.104.784 2.295 1.24 3.419.386.958.958 1.79 1.452 2.701.561 1.056 1.055 2.14 1.636 3.186.136.252.29.494.416.745-.27-.542-.019.088.02.3.116.65.155 1.443.426 2.044.436.949 1.278 1.859 1.917 2.682.726.939 1.23 1.908 1.84 2.934-.29-.484 0 .029.077.271l.32 1.065c.155.533.3.939.639 1.375.746.998 1.491 1.995 2.179 3.041 1.21 1.849 2.14 3.805 3.447 5.587 1.394 1.898 2.47 3.854 4.105 5.577.184.194.427.688.194.184.107.233.233.465.349.698.27.532.484 1.191.92 1.607.435.416 1.065.813 1.568 1.094.107.058.213.145.31.223-.155-.116-.261-.32-.145-.155.223.3.397.649.6.968 1.22 1.985 2.73 3.68 4.435 5.258.242.223.475.484.736.688.407.31-.203-.339.087.077.378.542.785 1.085 1.21 1.588.369.446.833.794 1.27 1.172.222.194.445.387.667.571-.474-.397.126.184.281.387a135 135 0 0 0 2.072 2.625c.697.861 1.87 1.278 2.905 1.781l-.542-.445c.436.678.823 1.53 1.394 2.101.63.639 1.724.804 2.499 1.24-.175-.097-.242-.233-.088.019.126.203.397.397.562.562.29.29.571.629.89.89.592.475 1.308.785 1.918 1.23.61.446 1.152 1.007 1.772 1.433.349.233.755.417 1.123.61l.678.368c.087.049.649.407.358.194-.29-.213.088.097.165.155.223.184.455.348.688.523.32.242.629.513.978.716.707.407 1.53.639 2.275.949 1.385.581 2.828 1.133 4.183 1.792.736.358 1.424.91 2.208 1.133.387.116.823.125 1.23.184.252.038.513.077.765.106.93.097-.126.116-.175-.174.03.155.95.571 1.075.649.378.232.794.561 1.22.716.814.3 1.811.184 2.653.31.31.048.61.126.92.194l.756.155c.087.019.784.183.387.077-.397-.107.097.039.194.068q.403.116.823.232c.387.107.774.242 1.181.32.407.077.813.077 1.22.106q.378.032.755.049c.155 0 .882.077.136-.049.862.136 1.704.465 2.566.62 1.53.281 3.002.213 4.532.358.9.087 1.762.388 2.672.388.34 0 .688-.02 1.027-.03q.377-.002.755-.019c.416-.01.542.107.097 0 .784.184 1.869.329 2.682.233.445-.049.92-.223 1.356-.339l.765-.194c.164-.039.784-.097.358-.087-.426.009.039.019.165.019.242-.01.484-.048.736-.068.377-.038.764-.058 1.142-.106.407-.049.813-.116 1.22-.184.233-.039.465-.049.697-.107.562-.126-.096-.038 0-.029 1.753.126 3.641.107 5.336-.406.368-.117.716-.281 1.075-.417.232-.087.474-.164.697-.271.455-.203.319-.029-.01-.048.765.058 1.927-.155 2.673-.397 1.433-.465 2.808-1.249 4.202-1.801.407-.165.833-.31 1.249-.455.204-.078.436-.136.63-.233.464-.223-.436-.01-.058 0 .91.039 2.285-.135 3.098-.552 1.356-.707 2.605-1.598 3.97-2.285.678-.339 1.404-.581 2.063-.959.658-.377 1.278-.871 1.936-1.278 1.482-.9 3.428-1.578 4.658-2.808.542-.552 1.036-1.162 1.549-1.733l-1.2.823c1.142-.494 2.343-.91 3.331-1.675a40 40 0 0 0 2.556-2.179c.765-.717 1.869-1.578 2.382-2.479-.019.029-.416.358.048 0 .281-.223.552-.465.823-.707.514-.436.94-.852 1.298-1.423.329-.523.746-1.056 1.007-1.608s-.852.833-.291.388c.32-.262.601-.572.901-.852a20 20 0 0 0 2.305-2.547c.309-.416.552-.891.813-1.336.165-.291.349-.581.513-.881.233-.446-.339.493.107-.175a35 35 0 0 1 1.946-2.711c1.317-1.646 2.556-3.196 3.496-5.103.939-1.908 1.694-3.922 2.614-5.858.436-.93.939-1.84 1.191-2.838.145-.59.252-1.181.397-1.772-.087.378-.106.262.058-.058.204-.377.378-.784.562-1.171.436-.901.929-1.879 1.181-2.847.145-.581.068-1.24.058-1.85 0-.309-.029-.629-.019-.949s-.049.397 0 .184c.039-.164.068-.339.106-.503l.223-1.065c.029-.116.174-.775.058-.388-.116.388.175-.358.223-.464.165-.368.339-.736.494-1.104.416-.988.561-2.12.62-3.186.029-.552 0-1.114 0-1.665 0-.252-.03-.523 0-.775-.078.726.135-.3.174-.455.126-.533.339-1.085.358-1.637.019-.62-.203-1.278-.319-1.888a6 6 0 0 1-.117-1.181v-1.094c0-.31.097-.775-.009-.29.261-1.153.513-2.199.358-3.37s-.368-2.208-.562-3.322c-.155-.91-.019-1.83-.097-2.75a14 14 0 0 0-.677-3.283 37 37 0 0 1-.339-1.026c-.029-.087-.078-.184-.087-.28-.049-.32.048.435.077.115.048-.639.078-1.346.019-1.975-.077-.94-.59-1.907-.91-2.798-.203-.572-.416-1.133-.62-1.695-.038-.116-.096-.232-.125-.349 0 0 .116.456.077.194-.058-.377-.135-.755-.194-1.133-.368-2.101-1.317-3.786-2.246-5.674a28 28 0 0 1-1.307-3.099c-.146-.416-.262-.803-.504-1.162-.368-.542-.881-.978-1.268-1.51-1.201-1.656-1.869-3.631-3.06-5.297-.601-.842-.93-1.82-1.511-2.672s-1.452-1.463-2.13-2.218c-.387-.436-.804-.862-1.172-1.317-.203-.252.262.368.097.087-.048-.087-.106-.155-.164-.242-.223-.368-.485-.726-.717-1.084-.581-.881-1.327-1.685-2.063-2.43-1.471-1.482-3.176-2.741-4.764-4.087-.736-.63-1.346-1.385-1.985-2.11-1.075-1.211-4.096.948-2.827 2.371z"/><path fill="#20201F" d="M28.003 91.526c-.33-.455-.659-.9-.978-1.356-.107-.155-.223-.3-.33-.455.475.668-.077-.232-.174-.455-.135-.3-.261-.62-.416-.91-.262-.484-.058-.01-.068-.058-.194-.61-.32-1.24-.494-1.86-.261-.958-.784-1.81-1.2-2.71-.475-1.027-.872-2.025-1.511-2.964-.204-.29-.387-.6-.6-.89-.427-.572.077.009.067.329.03-.591-.358-1.405-.513-1.986-.126-.455-.3-.861-.484-1.297-.145-.33-.261-.688-.436-1.007-.242-.465.039.387-.058-.136-.426-2.256-1.481-4.25-1.985-6.487.165.735 0-.165-.029-.3l-.194-1.017a7.5 7.5 0 0 0-.445-1.51l-.387-.97c-.078-.193-.242-.842-.107-.173-.136-.63-.203-1.279-.33-1.908-.183-.968-.406-1.956-.725-2.895-.184-.552-.368-1.133-.61-1.656-.33-.707.058.126-.03.232.126-.155.068-.707.088-.92.058-.58.193-1.21.077-1.791-.116-.61-.387-1.21-.571-1.791-.03-.097-.097-.504-.175-.533.427.174-.01 1.007.107.426.02-.116.02-.28.02-.387.038-.649.096-1.298.106-1.937.01-2.15-.068-4.309-.087-6.459 0-.445-.126.32.106-.3.126-.329.204-.687.3-1.026.146-.475.252-.92.33-1.414.213-1.346.61-2.343 1.065-3.621.203-.572.377-1.153.552-1.734.029-.096.058-.203.097-.3.116-.31-.184.349-.02.087.223-.348.446-.697.668-1.036.668-1.036.872-2.101 1.172-3.292l-.368.533c.63-.523 1.559-1.046 2.024-1.714.465-.669.687-1.695.997-2.46.572-1.404-2.672-3.215-3.36-1.51l-.871 2.159.368-.533c-.853.707-1.937 1.317-2.257 2.411-.174.6-.251 1.23-.464 1.82.184-.532-.116.088-.233.272-.203.32-.416.64-.62.959-.542.9-.726 1.936-1.084 2.924-.426 1.162-.804 2.091-.997 3.312-.165 1.036-.62 2.014-.775 3.04s0 2.276.01 3.37c0 1.19.038 2.382.068 3.583v-.194c0 .135-.02.271-.03.416-.029.378-.048.765-.067 1.143-.04.6-.03 1.094.155 1.675.125.407.27 1.472.57 1.762-.096-.096.03-.92-.106-.213-.077.417-.087.862-.125 1.288-.117 1.23.377 2.237.803 3.37-.184-.484-.029-.087.049.223l.251 1.007c.126.503.213.987.3 1.5a14.7 14.7 0 0 0 1.095 3.603c.155.348-.068-.494.029.155.048.329.126.658.184.987.106.562.232 1.104.387 1.656.339 1.191.688 2.334 1.21 3.457.281.6-.01-.232.068.145l.204.91c.125.582.232 1.153.455 1.714.232.6.503 1.191.765 1.782-.29-.639.02.087.077.3.107.397.203.804.31 1.201.174.678.465 1.172.852 1.753.232.339.446.707.697 1.026.34.426-.193-.513.068.145a34 34 0 0 0 1.714 3.641c-.232-.416-.01-.087.078.271.106.417.213.823.329 1.24.155.59.368 1.104.62 1.665.561 1.23 1.258 2.237 2.043 3.331.484.678 1.5 1.337 2.372 1.085s.823-1.143.378-1.753zM43.428 114c-1.21-1.897-2.421-3.737-3.845-5.49-.6-.746-1.016-1.617-1.559-2.401-.639-.92-1.355-1.801-2.081-2.654-.243-.29-.475-.658-.765-.9-.165-.145-.049-.078-.01.019a15 15 0 0 1-.116-.358c-.213-.649-.417-1.307-.63-1.956-.339-1.055-3.99-.242-3.708.62.329 1.007.513 2.12 1.2 2.934a74 74 0 0 1 2.315 2.885c.59.785 1.016 1.675 1.588 2.47.648.9 1.404 1.713 2.033 2.643a159 159 0 0 1 2.063 3.157c.532.842 4.115-.029 3.515-.978z"/><path fill="#F89A1C" d="m122.82 58.129 1.394 1.888 1.656 1.52 1.714 1.482 1.685 1.549 1.375 1.81 1.452 1.773.939 2.091 1.327 1.869.484 2.275 1.162 1.976.697 2.16.765 2.149.436 2.237-.155 2.314.881 2.188-.058 2.286.039 2.275-.426 2.247-.533 2.207-.184 2.257-.494 2.207-.213 2.305-.774 2.149-1.211 1.966-1.007 2.034-1.307 1.859-1.152 1.936-1.404 1.772-1.124 1.995-1.868 1.365-1.598 1.579-1.627 1.568-1.791 1.376-1.743 1.433-1.811 1.404-2.198.687-1.908 1.269-2.188.629-2.159.668-2.111.814-2.295.087-2.13 1.036-2.295-.068-2.266-.184-2.266.484-2.266-.203-2.217-.581-2.189-.533-2.237-.339-2.12-.794-2.092-.823-2.072-.861-2.062-.901-2.257-.629-1.927-1.23-1.84-1.356-1.539-1.714-1.695-1.51-1.694-1.511-1.578-1.646-1.375-1.82-1.037-2.044-1.258-1.878-1.356-1.859-.658-2.198-.92-2.073-.533-2.207-.58-2.179-.97-2.11-.106-2.286-.27-2.247-.369-2.266.03-2.285.474-2.246.126-2.266.184-2.285 1.045-2.092.349-2.256.794-2.13 1.123-1.976.785-2.14.968-2.072 1.646-1.636 1.288-1.85 1.007-2.11 1.791-1.443 1.433-1.792 1.705-1.52 2.12-.959 1.84-1.307 1.607-1.714 2.111-.881 2.18-.687 1.994-1.114 2.188-.61 2.198-.552 2.179-.659 2.237-.435 2.266-.233 2.275.213 2.247.223 2.256.068 2.275-.02 2.227.427 2.15.736 2.295.222 2.072.95 2.16.735 2.072.95 1.965 1.161 1.598 1.695z"/><path fill="#000" d="M121.425 57.79c.678.92 1.308 1.927 2.15 2.711a73 73 0 0 0 2.411 2.16c.775.668 1.501 1.384 2.276 2.052.435.368-.291-.464 0 .03.174.28.416.542.619.803.252.34.514.668.775.998.378.464.736.968 1.143 1.404.464.494-.359-.852-.146-.213.107.32.281.629.417.939a13.3 13.3 0 0 0 1.714 2.847c.31.387.038 0 .058.077.068.3.135.61.193.91.117.543.194 1.075.436 1.569s.562.959.843 1.433c.087.155.368.804.155.242.087.242.155.494.242.736.339 1.036.687 2.053 1.055 3.08.126.358.203.677.281 1.045l.194.978c.038.184.077.891.087.455-.02 1.007-.3 1.976.038 2.934.213.581.533 1.143.698 1.733-.068-.251-.01-.048-.029.214-.029.426-.02.861-.029 1.287-.02.94.096 1.908.019 2.838-.068.861-.31 1.742-.494 2.585-.465 2.033-.707 4.077-1.084 6.13-.068.387-.097.764-.136 1.152-.029.319-.077.648-.087.978 0 .106-.01.232-.029.329-.01.087.077-.252 0 .029a11.3 11.3 0 0 1-1.259 2.866c-.552.901-1.007 1.811-1.491 2.75-.417.794-1.007 1.472-1.491 2.227-.572.891-1.036 1.801-1.695 2.624-.658.823-1.365 1.714-1.782 2.721a2 2 0 0 1-.184.33s.233-.194.068-.039c-.203.213-.513.378-.745.542-.407.291-.843.571-1.221.901-.774.668-1.471 1.462-2.207 2.178-1.433 1.385-3.05 2.586-4.609 3.825-.465.368-.93.726-1.395 1.094-.077.058-.174.155-.261.204-.155.087.271-.146.009-.049-.29.107-.59.184-.881.271-.416.126-.881.223-1.268.417-.562.29-1.036.736-1.579 1.055-.745.436-1.655.572-2.488.823-.968.291-1.927.581-2.876.94-.329.126-.678.242-.997.387-.223.097-.456.145-.184.106-.649.097-1.327.03-1.985.068-.417.029-.669.136-1.046.32l-.93.455c-.135.068-.91.358-.416.281-.881.145-1.956-.049-2.857-.126-1.268-.097-2.169-.049-3.408.213-.223.048-.455.116-.688.145-.3.039.34 0 .04-.029q-.147 0-.291-.029c-.61-.097-1.23-.068-1.84-.165.639.097-.145-.077-.271-.106l-.862-.223c-.436-.116-.872-.232-1.317-.339a39 39 0 0 0-3.312-.658c-.116-.02-.794-.107-.387-.029.407.077-.261-.107-.358-.136l-1.569-.581c-2.024-.774-3.99-1.656-5.994-2.479-.92-.377-1.917-.59-2.876-.861l1.21.59c-.842-.532-1.684-1.055-2.488-1.646l-.804-.591c-.764-.561-.096-.358.214.262-.272-.542-.94-1.075-1.356-1.52-.678-.736-1.453-1.366-2.198-2.024-.436-.388-.872-.785-1.308-1.162-.3-.262-.455-.407-.067-.029a25 25 0 0 1-.688-.717c-.222-.242-.455-.523-.707-.736-.426-.348.272.397-.067-.038-.388-.504-.823-1.007-1.162-1.54-.475-.736-.775-1.578-1.24-2.324-.6-.959-1.268-1.879-1.936-2.798-.155-.223-.32-.436-.475-.659-.184-.261.145.407.049.097a10 10 0 0 1-.088-.281 15 15 0 0 0-.552-1.811c-.338-.9-.832-1.704-1.055-2.643-.271-1.133-.542-2.266-.862-3.38a7.5 7.5 0 0 0-.455-1.171c-.136-.3-.271-.61-.416-.91-.058-.117-.117-.233-.165-.359-.116-.27.039.34 0 .049-.165-1.036-.097-2.14-.223-3.186-.242-2.004-.755-3.99-.445-6.023.174-1.123.436-2.13.494-3.263.058-1.036.02-2.179.232-3.195.058-.272-.077.203-.02.028.03-.096.107-.212.156-.3.174-.32.329-.658.494-.987.203-.397.377-.736.464-1.172.136-.63.165-1.288.3-1.917.049-.213-.029.038-.038.067.029-.116.087-.232.126-.348q.188-.497.377-1.007c.359-.968.959-1.782 1.395-2.721.406-.872.63-1.82 1.036-2.692.222-.484.406-1.085.707-1.52s.832-.833 1.23-1.22a10.9 10.9 0 0 0 1.723-2.305c.562-.978.736-1.878 1.627-2.595.968-.775 1.588-1.53 2.391-2.479.243-.29.514-.532.804-.784.271-.242.543-.475.804-.717.058-.058.145-.145.213-.193.184-.126-.223.135.077-.02 1.095-.561 2.073-.958 3.08-1.675.93-.668 1.559-1.54 2.42-2.276.165-.145-.048.02-.067.03.096-.059.242-.107.348-.146.34-.116.668-.28.998-.416.377-.155.745-.3 1.123-.426 1.133-.368 2.053-.707 3.089-1.288.91-.513 1.869-.736 2.876-.997 2.014-.533 3.999-1.133 6.042-1.53.135-.03.833-.145.349-.078.222-.029.445-.048.668-.068.523-.058 1.075-.155 1.597-.155 1.007 0 2.043.184 3.04.281 1.153.117 2.286.184 3.448.204h2.305c.493-.03-.378-.117.222.01.601.125 1.22.319 1.811.348.32.02-.426-.145-.203-.078.106.03.213.068.31.107.406.136.813.28 1.21.416 1.036.359 2.353.659 3.447.572.3-.02-.561-.097-.571-.145 0 .029.319.145.339.154.281.155.59.271.881.397.407.184.794.359 1.21.514 1.075.377 2.082.755 3.118 1.23.233.106.475.203.707.319-.803-.407-.039.02.126.116l1.453.852-1.133-.9c.726.774 1.442 1.714 2.314 2.333.871.62 2.062.882 3.079 1.23.552.184 1.269.33 1.152-.455-.096-.707-1.336-1.51-1.936-1.714l-2.247-.765 1.55 1.104c-.92-.978-1.772-2.024-2.944-2.721-1.017-.61-2.024-1.172-3.108-1.666-1.085-.493-2.121-.803-3.186-1.23-.968-.377-1.879-.997-2.915-1.151a20 20 0 0 0-1.869-.184c-.077 0-.203-.04-.29-.03-.416.03.823.359.494.126-.252-.174-.688-.232-.969-.329a23.4 23.4 0 0 0-3.447-.881c-.949-.165-1.917-.058-2.876-.068a37 37 0 0 1-3.456-.184c-2.073-.203-3.99-.368-6.052 0-2.063.368-4.213 1.027-6.314 1.578-.871.233-1.81.398-2.605.824-1.094.57-1.975 1.026-3.156 1.394-.9.28-1.995.58-2.78 1.094-.464.3-.842.843-1.21 1.24-.174.183-.339.377-.513.551.184-.174-.232.184-.407.31-1.055.756-2.062 1.182-3.205 1.782-.774.407-1.52 1.133-2.11 1.772-.785.833-1.327 1.695-2.218 2.411-.33.262-.775.523-1.017.862-.377.533-.562 1.25-.871 1.83-.436.804-.988 1.636-1.617 2.305-.426.445-.969.842-1.337 1.326-.31.407-.484.95-.707 1.424-.435.92-.687 1.917-1.113 2.837s-.998 1.646-1.336 2.556c-.417 1.114-.698 2.063-.882 3.244-.038.252-.048.523-.116.765.107-.378-.174.28-.213.368-.27.552-.687 1.143-.832 1.753-.214.9-.165 1.936-.223 2.866a21.6 21.6 0 0 1-.465 3.437c-.426 1.985.116 3.97.349 5.936.135 1.133.155 2.256.251 3.399.078.949.717 1.752 1.036 2.643.378 1.075.6 2.247.872 3.36.271 1.114.726 1.947 1.113 2.963.349.92.456 1.956.998 2.789.6.92 1.288 1.782 1.898 2.702 1.171 1.743 1.956 3.612 3.38 5.2 1.52 1.694 3.272 3.311 5.044 4.744.02.01-.397-.435.03.049l.725.813c.426.475.823.92 1.346 1.307.91.698 1.85 1.346 2.818 1.966 1.22.784 2.363 1.22 3.747 1.607.233.068.853.368.233.049.252.126.523.232.784.339.475.213.95.426 1.433.619 2.043.862 4.154 1.86 6.294 2.46.998.281 2.053.31 3.06.562 1.133.271 2.247.59 3.38.861 1.007.243 2.217.426 3.243.31.523-.058 1.056-.222 1.579-.329.126-.029.784-.126.561-.126s.533.068.669.078c1.171.087 2.353.203 3.524.184.426 0 .668-.107 1.046-.301l1.026-.503c.146-.078.301-.155.446-.223.242-.106-.32.039-.049-.019 1.162-.223 2.16 0 3.293-.446 1.133-.445 2.188-.774 3.311-1.113.823-.252 1.753-.387 2.508-.804.562-.31 1.036-.794 1.617-1.075.465-.232 1.017-.348 1.521-.503 1.839-.571 3.34-2.314 4.861-3.476a31 31 0 0 0 2.73-2.353c.32-.31.639-.62.949-.93.262-.261.523-.513.784-.775.31-.3-.116.049.281-.251.494-.378 1.046-.698 1.511-1.104.416-.359.61-.814.881-1.298.542-.968 1.259-1.733 1.898-2.643a47 47 0 0 0 3.311-5.5c.969-1.889 2.092-3.37 2.295-5.481.107-1.172.349-2.237.572-3.39.164-.88.135-1.79.281-2.672.183-1.084.513-2.14.716-3.224s.174-2.14.174-3.292c0-.891.213-1.908-.038-2.76-.184-.63-.504-1.25-.746-1.85-.165-.406-.068.233-.029-.213.039-.445.058-.842.087-1.258.145-2.043-.687-3.941-1.317-5.84-.377-1.152-.755-2.12-1.365-3.166-.145-.251-.339-.523-.465-.794-.126-.27.116.349.078.126-.02-.106-.059-.223-.068-.33-.068-.59-.194-1.306-.397-1.858-.184-.484-.591-.92-.881-1.337-.175-.251-.349-.503-.533-.755s.184.388.039.107a4 4 0 0 1-.194-.446c-.532-1.19-1.055-2.13-1.878-3.137-.688-.843-1.298-1.762-2.015-2.585-.648-.746-1.462-1.385-2.198-2.044a142 142 0 0 1-2.537-2.256c-.184-.164-.406-.464-.629-.58.591.3.707.851.174.125-.339-.465-.687-.93-1.026-1.404-.504-.687-1.298-1.385-2.169-1.55-.649-.115-1.094.233-.63.882z"/><path fill="#20201F" d="M97.208 57.693c.552-.078 1.104-.174 1.627-.339-1.366.436-2.973-.01-1.763.484.175.068.349.116.543.145.552.088 1.18.02 1.743-.038.396-.04.794-.087 1.191-.165.154-.029.309-.058.455-.087.861-.174.242-.116-1.879.174.852.542 1.975.6 2.924.891a50 50 0 0 1 1.569.523c.494.165 1.007.145 1.482.3.426.145.542.513.852.804.251.242.571.387.862.571.929.6 1.839.494 2.914.378.794-.087-1.22-.31-.755.126.155.145.387.232.561.358.417.28.562.436.717.9.329.959.92.765 1.704 1.22.175.107.707.049.872.04.484-.02.968-.069 1.443-.136.193-.03 1.491-.3 1.278-.426-.32-.184-.659-.213-.988-.349-.397-.165-.445-.407-.571-.765-.233-.687-.775-1.036-1.424-1.365-.745-.378-1.781-.194-2.575-.097-.465.048-.136.039.968-.049l-.233-.135a4 4 0 0 0-.435-.29 3.4 3.4 0 0 1-.93-.814c-.523-.64-1.104-.494-1.84-.687-.958-.242-1.868-.669-2.837-.901-.503-.126-.997-.194-1.472-.397-.377-.165-.677-.3-1.094-.33-.581-.048-1.171 0-1.752.069-.262.029-.514.067-.765.106a7 7 0 0 0-.63.116c-.668.136-.242.087 1.269-.126l.871.04c-.358-.078-.639-.272-.978-.388-.378-.126-.794-.126-1.2-.116-.572.019-1.143.077-1.715.164-.319.049-.639.107-.948.184-.155.039-.824.175-.107.068-.213.029-1.423.155-1.278.426s2.101-.068 2.314-.097zM85.24 63.28c.368-.378.649-.746.726-1.269.02-.145.01-.3.039-.455l-.068.31a.7.7 0 0 1 .078-.203l-.184.31s.058-.087.096-.126l-.28.31c.048-.049.096-.087.154-.136l-.368.28c.33-.25.659-.512.988-.764l-.368.28c.213-.164.426-.31.668-.445l-.445.242c.445-.242.9-.464 1.346-.706l-.446.242c.359-.194.746-.32 1.104-.494.397-.204.823-.455 1.085-.823.155-.223.348-.62.203-.9-.387-.708-1.578-.475-2.15-.194-.222.116-.455.203-.687.3-.358.155-.687.348-1.036.532l.445-.242c-.503.271-1.026.494-1.5.814-.446.3-.853.648-1.279.978l.368-.281c-.474.358-1.007.765-1.19 1.365-.088.29-.069.533-.117.814l.068-.31c-.02.058-.039.106-.058.154l.184-.31s-.058.078-.088.127l.281-.31-.038.038c-.233.242-.533.562-.533.93 0 .31.213.571.504.658.387.126.832.097 1.22-.019.455-.135.939-.348 1.278-.687zM85.675 118.145c.998.735 2.092 1.278 3.08 1.994.764.552 1.704.93 2.595 1.201.716.223 1.22.378 1.897.678.804.358 1.627.59 2.43.949.804.358 1.773.629 2.654.687s1.743 0 2.595 0c.281 0 .794.068 1.046-.077.474-.271-.533 0-.6-.262.029.136.542.378.639.436.687.387 1.53.62 2.304.358.213-.077.678-.222.814-.426.28-.406-.475.155-.514-.116.01.087.63.252.746.291 1.753.484 3.108-.727 4.716-.94.716-.097 1.588-.038 2.246-.368.3-.155.455-.358.688-.581.377-.377.677-.59 1.21-.794 1.162-.426 3.176-.523 3.612-1.975.155-.504-.02-.329.377-.455.378-.116.746-.097 1.095-.329.3-.204.503-.484.687-.785.271-.435.523-.697.91-1.045.552-.494 1.211-.765 1.743-1.279.756-.726 1.027-1.384 1.53-2.256.833-1.433-2.479-3.215-3.331-1.752-.532.919-.794 1.655-1.752 2.236-.959.581-1.637 1.23-2.305 2.082-.039.049-.106.32-.126.339-.135.107-.639.049-.823.087-.455.117-.871.339-1.113.756-.204.348-.175.745-.475.987-.378.31-.978.388-1.433.484-.968.194-2.111.659-2.75 1.434-.078.087-.465.416-.165.29-.193.077-.513-.01-.716 0-.494.048-1.017.126-1.511.194-.61.087-.939.358-1.462.619-.174.088-.755.339-.746.339-.067 0-.358-.077-.6-.145-.542-.174-1.113-.252-1.665-.097-.475.136-.843.494-1.327.601l1.259.019c.552.116-.233-.203-.426-.31a3.7 3.7 0 0 0-1.133-.436c-.755-.135-1.482.078-2.237.068-.804-.01-1.694.078-2.479-.135-.726-.204-1.365-.61-2.101-.833s-1.327-.63-2.043-.881c-.717-.252-1.482-.213-2.111-.61-.988-.61-2.024-1.22-2.963-1.908-.62-.465-1.763-.91-2.45-.31s-.106 1.549.455 1.966z"/></svg>