<svg xmlns="http://www.w3.org/2000/svg" width="507" height="144" fill="none"><g clip-path="url(#a)"><path fill="#000" d="m205.774 69.069 1.507-6.156 15.302 5.217-1.507 5.355zm5.646 19.004 9.785-13.65 3.886 3.347-8.778 13.919zm11.287-37.34h5.893l-.5 16.728h-4.769zm3.638 27.03 4.016-3.346 9.661 13.65-4.769 3.616zm2.508-9.633 15.432-5.217 1.507 6.156-15.302 4.416-1.631-5.355z"/></g><path fill="#000" d="M11.497 141.339V2.579h17.445l52.927 120.127L134.995 2.578h17.246V141.34H137.77V29.934h-.595L88.015 141.34H75.723L26.563 29.934h-.397V141.34zm215.51 1.983c-35.681 0-62.64-24.977-62.64-71.363S191.326.794 227.007.794c35.483 0 62.443 24.78 62.443 71.165s-26.96 71.363-62.443 71.363m0-12.687c27.356 0 47.576-19.625 47.576-58.676 0-38.853-20.22-58.478-47.576-58.478-27.554 0-47.773 19.625-47.773 58.478 0 39.051 20.219 58.676 47.773 58.676m173.808 10.704h-14.868l-32.113-54.315h-37.663v54.315h-14.669V2.579h49.953c31.915 0 48.369 16.056 48.369 42.42 0 21.211-10.903 35.682-32.114 40.44zM316.171 15.463v58.478h34.69c22.598 0 34.095-10.308 34.095-28.941 0-19.229-11.497-29.537-34.095-29.537zm94.713 125.876V2.579h87.42v12.884h-72.751V64.03h66.804v11.894h-66.804v52.53h74.733v12.885z"/><defs><clipPath id="a"><path fill="#fff" d="M205.774 50.734h40.018v40.949h-40.018z"/></clipPath></defs></svg>