<svg xmlns="http://www.w3.org/2000/svg" width="95" height="120" fill="none"><path fill="#000" d="M9.927.786q.446.064.668.319.223.222.319.572.127.319.159.7.063.35.159.668.159.35.223.7.063.351.095.732.064.351.127.732.064.35.223.668a3 3 0 0 1 .223.764q.095.413.286.764.255 1.177.541 2.322.318 1.114.51 2.323.444 1.05.54 2.26.128 1.176.573 2.226 0 .446.095.86.096.412.223.795l.318.764q.159.382.255.795.19.35.318.668.16.35.509.637.382.286.445.7.096.446.16.89a.76.76 0 0 1-.287.382q-.191.159-.445.223a3 3 0 0 1-.51.096q-.254.03-.477.063-.54.127-1.113.064a8 8 0 0 0-1.21.032 15 15 0 0 0-1.94 0 8.5 8.5 0 0 1-1.941-.096.68.68 0 0 1-.414-.318 1.4 1.4 0 0 1-.223-.477 1.1 1.1 0 0 1 .064-.891 1.96 1.96 0 0 1 .573-.668q.413-.255.572-.637.16-.381.16-.827.03-.414-.032-.891a4 4 0 0 1-.032-.86q-.16-.54-.35-1.05-.159-.507-.223-1.05-.191-.253-.445-.286a.41.41 0 0 0-.318 0 2 2 0 0 1-.35.032q-.668-.03-1.337-.063-.667-.031-1.368.063a1 1 0 0 0-.477.828q-.032.509-.128.922-.254.446-.318.923-.031.478-.095 1.018a1.94 1.94 0 0 0 .063.987q.192.508.637.795.35.16.54.445.225.32.287.637.095.54-.127.954a.81.81 0 0 1-.668.319 8 8 0 0 0-.764.095 3.5 3.5 0 0 0-1.177-.127q-.637.064-1.241.127a3 3 0 0 0-.796-.095.8.8 0 0 1-.7-.382A1.45 1.45 0 0 1 .16 22.2q.032-.382.191-.7.223-.318.573-.573a.86.86 0 0 0 .413-.604q.351-1.02.573-2.068.255-1.02.51-2.069.158-.35.222-.732.096-.381.127-.763.064-.383.127-.732.096-.382.287-.732.35-2.004.859-3.913.54-1.91.859-3.914.318-.637.414-1.305.095-.7.286-1.336 0-.222-.064-.509a21 21 0 0 0-.127-.54 1.8 1.8 0 0 1 0-.478q.065-.223.35-.382A5.5 5.5 0 0 1 7.255.723 39 39 0 0 0 8.59.755zm-2.959 7.51q-.095-.128-.19-.096-.065 0-.128.127a3 3 0 0 0-.064.223q0 .127-.031.16 0 .349-.128.635-.095.286-.095.637a5 5 0 0 1-.287 1.24q-.19.574-.19 1.274a.3.3 0 0 0 .127.159q.127.063.223.095.222 0 .413.064.223.03.446.063.222 0 .413-.032.192-.063.382-.222a.21.21 0 0 0 .096-.191.65.65 0 0 0 0-.287q-.287-.922-.51-1.877a67 67 0 0 0-.477-1.973M28.35.69q.796.223 1.527.573.765.318 1.591.572.415.191.7.51.286.285.51.636.222.35.413.7.223.35.54.636.16.255.16.541.032.255.095.541.223.445.16.955-.033.508.127 1.018a4.8 4.8 0 0 1-.668 2.227 6.7 6.7 0 0 1-1.56 1.845q-.254.192-.636.414a.59.59 0 0 0-.286.636q.19.446.477.86.286.381.35.89.35.479.445 1.05.128.573.446 1.082.096.54.286 1.018.224.446.318.955.287.51.446 1.05.19.573.668.986.16.192.35.35.223.191.414.35.19.192.286.414a.82.82 0 0 1 .096.51q.063.54-.191.826-.287.319-.668.414a2.2 2.2 0 0 1-.764.127q-.382 0-.796-.063a4.6 4.6 0 0 0-.763 0 3.2 3.2 0 0 1-1.273.063 6.5 6.5 0 0 1-1.145-.286 1.45 1.45 0 0 1-.478-.541l-.318-.636a4.4 4.4 0 0 1-.477-1.369 2.9 2.9 0 0 0-.573-1.272q-.159-.54-.318-1.114a6.4 6.4 0 0 0-.414-1.05q-.064-.541-.381-.986a1.85 1.85 0 0 1-.35-.987 5 5 0 0 1-.319-.795 2.2 2.2 0 0 0-.413-.764q-.255-.03-.414.255a32 32 0 0 0-.032 2.482q.032 1.24.032 2.513-.159.636 0 1.177.16.573.668.955.318.096.637.287.318.222.445.572.032.382 0 .796 0 .446-.35.668-.54.19-1.177.095a13 13 0 0 0-1.241-.063q-.669.063-1.336.032-.669 0-1.369.063h-2.832a5 5 0 0 1-.35-.159.73.73 0 0 1-.254-.255q-.16-.35-.127-.859.03-.477.35-.763a.94.94 0 0 1 .318-.255q.222-.095.413-.223.192-.127.319-.286a.56.56 0 0 0 .159-.414q.064-.604.127-1.177.063-.54.032-1.177a.77.77 0 0 0 .127-.51 4 4 0 0 0-.095-.54q.159-.732.095-1.495a37 37 0 0 0-.095-1.528q-.033-.573.095-1.145a2.1 2.1 0 0 0 0-1.146q0-.477.032-.954a3.8 3.8 0 0 0 0-.987 4.9 4.9 0 0 1-.255-1.622l.064-1.687a8 8 0 0 0 0-1.018 20 20 0 0 1-.032-1.114.9.9 0 0 0-.19-.54 1.9 1.9 0 0 0-.446-.478 1.37 1.37 0 0 1-.668-.35q-.318-.318-.382-.668 0-.381.063-.7.096-.35.478-.54l.318-.096a27 27 0 0 1 2.609 0q1.272 0 2.514-.064a26 26 0 0 1 2.545 0zm-.636 2.927a2.6 2.6 0 0 0-.86-.445 4 4 0 0 0-.859-.223q-.19.032-.318.286a27 27 0 0 0 0 2.641 7 7 0 0 1 0 1.623q-.095.765.064 1.59 0 .225-.032.51-.032.255-.032.51 0 .253.064.508a.58.58 0 0 0 .286.35q.891.095 1.496-.604.382-.35.54-.796.16-.477.223-.954.064-.51.064-1.019.032-.54.127-1.018a18 18 0 0 0-.19-1.559 3.4 3.4 0 0 0-.573-1.4M44.266.786q.445.064.922.064.478-.031.923.032a2.43 2.43 0 0 1 1.178.032q.572.127 1.209-.032.54 0 1.05-.032.54-.063 1.081 0 .35 0 .446.286.128.287.254.541.065.637 0 1.273a6 6 0 0 0 0 1.24q-.063.255-.031.574.063.285.063.572.032.255-.063.51-.065.222-.35.381-.51.159-1.146.223a1.48 1.48 0 0 1-1.114-.318.9.9 0 0 1-.381-.51 2.8 2.8 0 0 0-.191-.636 4.1 4.1 0 0 0-1.4-1.368q-.828-.54-1.846-.382-.254.127-.318.478a6.8 6.8 0 0 0 .032 1.463q.096.732-.127 1.432a5.2 5.2 0 0 1 .032 1.718 5.4 5.4 0 0 0 .063 1.655q0 .223.255.286.604 0 1.081-.413a3.2 3.2 0 0 0 .732-.891q.096-.191.128-.446.063-.255.127-.445a.9.9 0 0 1 .254-.35q.191-.16.51-.16.222 0 .477-.031.285-.032.509-.032.255 0 .477.095.223.095.35.35a.9.9 0 0 1 .064.382q.032.223 0 .382a14.4 14.4 0 0 0-.032 2.864q.127 1.4.032 2.832a1.8 1.8 0 0 1 0 .668q-.064.317-.414.477a3 3 0 0 1-.923.127 1.6 1.6 0 0 1-.859-.286 1.05 1.05 0 0 1-.35-.414l-.127-.509a3 3 0 0 0-.159-.477 1.1 1.1 0 0 0-.318-.445 1.88 1.88 0 0 0-1.241-.828.35.35 0 0 0-.35.064q-.159.127-.318.286-.16.637-.064 1.305.127.636.064 1.336.095 1.05 0 2.132-.065 1.05.19 2.1 0 .285.096.509.127.255.382.35a.9.9 0 0 0 .477.223q.255.063.477 0a1.9 1.9 0 0 0 .478-.191q.255-.128.445-.255.636-.54 1.082-1.177a3.5 3.5 0 0 0 .604-1.336q.16-.16.255-.35.127-.224.255-.414.159-.191.318-.286a.7.7 0 0 1 .477-.096h.827q.445 0 .7.414a.52.52 0 0 1 .096.382q0 .19-.064.382a2.5 2.5 0 0 1-.095.381 1.6 1.6 0 0 0 0 .446 2 2 0 0 0-.128.7q0 .35.032.732.032.381.032.763.031.383-.032.764a2.5 2.5 0 0 0-.032.413q.033.223 0 .414a.75.75 0 0 1-.159.35.66.66 0 0 1-.318.255 6.8 6.8 0 0 1-1.75.095 9 9 0 0 0-1.718.096 17 17 0 0 0-2.736-.096q-1.369.064-2.705-.095a3 3 0 0 1-.986.032 1.8 1.8 0 0 0-.891.095q-.255 0-.477-.064a1.3 1.3 0 0 0-.414-.063h-.732a1.3 1.3 0 0 1-.7-.128 1.26 1.26 0 0 1-.382-.445q-.127-.223-.032-.541a.92.92 0 0 1 .223-.51q.19-.222.414-.413.255-.19.445-.413.224-.192.318-.478.128-.445.064-.922a7.5 7.5 0 0 1-.064-.987q.033-.667 0-1.336 0-.7.096-1.4a37 37 0 0 1-.064-2.164q0-1.08.127-2.1a15 15 0 0 1-.095-1.686q.032-.86.032-1.686 0-.923-.032-1.91a62 62 0 0 1-.032-2.004.9.9 0 0 0-.159-.541 1.6 1.6 0 0 0-.382-.382 9 9 0 0 0-.477-.318 2.3 2.3 0 0 1-.414-.382q-.063-.254-.159-.573a1.1 1.1 0 0 1 .064-.636q.35-.54.89-.54a6 6 0 0 1 1.083.031 31 31 0 0 1 2.068-.127q1.113-.063 2.132.095zm26.064.637q.032.446-.064.89-.063.446-.509.7-.285.16-.668.382a.8.8 0 0 0-.413.669 83 83 0 0 1-.16 2.29 28 28 0 0 0-.031 2.323 78 78 0 0 0-.032 2.228q.032 1.113.095 2.195a61 61 0 0 0-.095 2.005q0 1.017-.096 2.004.255.668.16 1.432a18 18 0 0 0-.064 1.495 9 9 0 0 1-.032 1.337q-.064.637-.064 1.336 0 .16-.159.287a1 1 0 0 1-.318.222 1.8 1.8 0 0 1-.827.128 1.17 1.17 0 0 1-.764-.35 84 84 0 0 1-1.75-2.769 64 64 0 0 0-1.686-2.736 27 27 0 0 0-1.56-2.768 37 37 0 0 1-1.59-2.8 9.4 9.4 0 0 1-.923-1.527 6 6 0 0 0-1.018-1.528q-.064-.159-.16 0a1.8 1.8 0 0 0-.158.764q0 .381-.064.732.064.509.064.986l.063.986q0 .765-.031 1.496 0 .7-.032 1.432-.127.412-.096.795.065.35.096.732 0 .477-.032.986-.031.51 0 .987.031.509.159.954.127.477.382.86.222.19.509.317.286.128.54.255.255.16.446.35.191.223.255.54 0 .415-.096.765-.095.381-.509.54a.67.67 0 0 1-.572.064 1.3 1.3 0 0 0-.573 0 6 6 0 0 0-1.082-.095l-1.082.063q-.54.031-1.082 0a2.7 2.7 0 0 1-.986-.254.77.77 0 0 1-.318-.541 2.4 2.4 0 0 1 .032-.668.9.9 0 0 1 .19-.51q.192-.19.414-.318.255-.127.477-.254.255-.128.414-.35.287-.383.287-.891 0-.477.127-.923a22 22 0 0 1-.16-2.1q-.03-1.114.128-2.164a1.5 1.5 0 0 1-.064-.858 1.23 1.23 0 0 0-.031-.828q.157-.668 0-1.273a3.5 3.5 0 0 1-.032-1.24 29.5 29.5 0 0 0 0-4.328 7 7 0 0 1-.032-1.145 1.16 1.16 0 0 0-.382-1.018 1.4 1.4 0 0 0-.414-.382l-.445-.382a3 3 0 0 1-.382-.382 1.1 1.1 0 0 1-.127-.54 1.8 1.8 0 0 1 0-.669.77.77 0 0 1 .413-.477q.479-.16.987-.127h1.082q.445-.064.922-.032h.955q.51 0 1.05.063.54.032.89.478.51.636.828 1.368.35.7.891 1.336.223.54.573 1.082.381.54.636 1.082.159.573.573.986t.573.891q.54.828.986 1.686l.954 1.719q.16.159.319.127a.92.92 0 0 0 .222-.51q.064-.285.032-.572a1.9 1.9 0 0 0-.095-.604 6 6 0 0 1-.096-.541q0-.192.032-.319.032-.126.064-.286a8 8 0 0 1 0-2.259 1.9 1.9 0 0 1-.032-.605q.032-.318.032-.636a3 3 0 0 0-.064-.636 1.1 1.1 0 0 0-.223-.541 1.07 1.07 0 0 0-.413-.573 2.7 2.7 0 0 0-.573-.382 8 8 0 0 1-.573-.35q-.255-.19-.381-.572V1.55a1 1 0 0 1 .254-.54q.382-.225.795-.287.414-.064.86-.064.477 0 .922.032.478.031.923-.032a8.6 8.6 0 0 1 1.814 0q.255.032.477.286a.95.95 0 0 1 .318.478m7.179.318q.573.954.732 2.164.159 1.209-.191 2.322a5.2 5.2 0 0 1-.541 1.528q-.35.667-.764 1.336a7.3 7.3 0 0 1-1.686 1.464 4.46 4.46 0 0 1-1.973.668.95.95 0 0 1-.477-.128 1.4 1.4 0 0 1-.318-.381 1.5 1.5 0 0 1-.16-.828q.065-.477.255-.827.19-.223.414-.382.255-.159.477-.286.255-.159.477-.318.255-.16.414-.446.159-.285.318-.668a.88.88 0 0 0 0-.732q-.255-.16-.54-.19a5 5 0 0 1-.51-.16 3 3 0 0 1-1.05-.827 2.17 2.17 0 0 1-.509-1.177 5.2 5.2 0 0 1 .064-1.623A2.4 2.4 0 0 1 72.8.882q.477-.477 1.082-.637.637-.191 1.336-.127.7.16 1.304.541.605.382.987 1.082m17.067-.51q.096.256.032.478a1.4 1.4 0 0 0-.064.446 22 22 0 0 1 0 1.654 21 21 0 0 0 0 1.655 6 6 0 0 0-.127.35.39.39 0 0 1-.223.254 2.05 2.05 0 0 1-.922.255q-.541 0-.891-.287a2 2 0 0 1-.319-.413l-.19-.51a3 3 0 0 0-.16-.477 1.6 1.6 0 0 0-.286-.477 3 3 0 0 1-.477-.54q-.224-.32-.573-.192-.255.351-.223.828.064.445-.032.89.096.732-.031 1.464-.096.7.095 1.4.064.414 0 .796-.063.35-.127.731l-.127.7q-.033.351.095.732 0 .445-.032.955 0 .477.064.922-.032.255-.032.51.031.254-.032.477a20 20 0 0 0 0 2.736q.159.54.096 1.114-.033.573.095 1.114-.096.54-.032 1.113.095.573.446.986.318.192.668.414.35.223.414.605a4 4 0 0 1 0 .7q0 .35-.35.509a8.5 8.5 0 0 1-2.641.35q-1.368-.032-2.705-.032a1.45 1.45 0 0 0-.732-.127 2.3 2.3 0 0 1-.763 0 2 2 0 0 1-.605-.16 1.07 1.07 0 0 0-.636-.063.57.57 0 0 1-.318-.382 3.4 3.4 0 0 1-.032-.477q0-.191.032-.382a.5.5 0 0 1 .19-.286q.255-.255.605-.35.35-.096.477-.51.16-.35.16-.763.03-.414.095-.764a8 8 0 0 1-.064-1.431q.064-.732.032-1.464.064-.732.064-1.4V13.45a4 4 0 0 0-.096-1.145 2.1 2.1 0 0 1 .064-1.146 4.2 4.2 0 0 1-.064-1.623 5 5 0 0 0 .064-1.59 6.4 6.4 0 0 0-.032-1.432L84.3 5.05V3.555q-.191-.255-.446-.16a5.6 5.6 0 0 0-.89.987q-.382.51-.414 1.209-.096.285-.382.509-.285.222-.605.255-.445 0-.922-.064-.446-.096-.668-.541a5.6 5.6 0 0 1-.16-.986q0-.51.032-1.019t.032-1.018q.032-.51 0-1.05.031-.255.16-.445.158-.19.35-.35.285-.16.636-.127.35.03.7.031.922.065 1.845 0a11.5 11.5 0 0 1 1.91.032 34 34 0 0 1 2.1-.063q1.08-.033 2.1.095.445-.127.826-.064.382.064.828-.031.381.03.763 0 .414-.032.796-.032.381-.031.731.032a1.6 1.6 0 0 1 .7.222zM8.877 33.074q.159.285.223.668a.98.98 0 0 1-.064.7.87.87 0 0 1-.222.382q-.16.127-.35.286-.16.127-.287.286a.8.8 0 0 0-.159.414q0 .732.223 1.368.222.605.414 1.241.35.86.572 1.718.223.86.51 1.718a.2.2 0 0 1 .095.096q.063.031.127-.032.224-.285.318-.604.128-.35.223-.669a28 28 0 0 1 .19-.668 2.3 2.3 0 0 1 .287-.604q.223-.732.477-1.4.255-.668.446-1.337a.73.73 0 0 0-.032-.477 6 6 0 0 0-.127-.445 4 4 0 0 0-.414-.414 7 7 0 0 1-.413-.382 2 2 0 0 1-.319-.413q-.095-.255-.063-.573-.095-.7.445-1.146.51-.285 1.05-.127.573.127 1.178.064.604.031 1.24.032.67 0 1.241.031.16.128.319.191.19.032.286.255.255.732-.032 1.4-.286.636-.859 1.082-.413.54-.668 1.177-.255.604-.541 1.177l-.255.891q-.095.445-.318.795a2.9 2.9 0 0 1-.254.637 1.7 1.7 0 0 0-.223.573l-.191.509q-.095.255-.255.509a7 7 0 0 0-.254.89q-.096.414-.318.764-.223.955-.573 1.814t-.286 1.94q0 1.02-.064 2.07-.032 1.05.064 2.13.03.352.127.7a.86.86 0 0 0 .445.542q.383.16.732.509.382.35.446.795.063.286 0 .573a.94.94 0 0 1-.319.51l-.318.127a.8.8 0 0 1-.35.063q-1.113.127-2.259.064a40 40 0 0 0-2.259-.064 8.5 8.5 0 0 1-1.464.064l-1.463-.064a.85.85 0 0 1-.51-.19.68.68 0 0 1-.317-.415 2.7 2.7 0 0 1 0-.827q.095-.413.35-.7.286-.255.636-.413a.86.86 0 0 0 .509-.541q.16-.51.16-1.019a9 9 0 0 0 0-1.05l-.065-1.018q-.031-.508.064-1.05a7 7 0 0 1 0-.954q.064-.477-.095-.923l-.319-1.082a5.5 5.5 0 0 0-.381-1.081 10.4 10.4 0 0 1-.573-1.464q-.223-.765-.477-1.591a15 15 0 0 0-.7-1.91 14 14 0 0 1-.637-1.908 10.6 10.6 0 0 0-.668-1.4q-.35-.7-1.082-1.21a3.8 3.8 0 0 1-.254-.827q-.065-.508.19-.859.224-.222.51-.286.318-.064.636-.032.35 0 .668.064.35.03.637-.032a16 16 0 0 1 2.259.032q1.144.063 2.259-.127.382.095.795.095.445-.032.7.382M26.5 32.34q.7.16 1.369.35.699.19 1.272.573.828.159 1.464.827.636.636 1.05 1.336.668.637.923 1.4.255.764.572 1.496.064.541.319.986.285.414.254.955a2 2 0 0 0-.032.604q.065.255.096.541.063.287.095.573.064.286 0 .604.223 1.05.191 2.196 0 1.146-.223 2.227a6 6 0 0 0-.222 1.018q-.033.51-.223.987a2.9 2.9 0 0 0-.16.763q0 .413-.19.764a8.3 8.3 0 0 1-1.114 1.814 35 35 0 0 1-1.4 1.686 10 10 0 0 1-1.495 1.082q-.732.477-1.655.573a8 8 0 0 1-1.75.127 5.5 5.5 0 0 1-1.686-.255q-.795.032-1.4-.35a9 9 0 0 0-1.273-.668 5.5 5.5 0 0 1-.923-.795 6 6 0 0 0-.827-.796q-.35-.54-.732-1.05a3.1 3.1 0 0 1-.477-1.114.9.9 0 0 1-.318-.604q0-.318-.16-.668-.381-1.05-.572-2.291a3.1 3.1 0 0 0 0-.891q-.032-.51-.095-.923a9.5 9.5 0 0 1-.064-2.195q.095-1.114.255-2.164.063-.286-.032-.477a.55.55 0 0 1 .032-.477.94.94 0 0 0 .254-.446q.096-.255.127-.509.064-.286.096-.54.064-.288.19-.542.255-.764.669-1.527.413-.764.986-1.432.573-.7 1.241-1.24.7-.574 1.496-.923.604-.319 1.24-.414l1.337-.255zm.7 3.627a3 3 0 0 1-.382-.54 2.1 2.1 0 0 0-.445-.542 1.12 1.12 0 0 0-.636-.19q-.35 0-.669.063-.54.35-.827.827-.286.478-.445 1.05-.128.541-.223 1.114a21 21 0 0 1-.159 1.145 2.8 2.8 0 0 1-.16.669q-.126.318.033.7a3.3 3.3 0 0 0-.096 1.209q.096.604.032 1.177.096.51.095 1.05 0 .51-.031 1.05l.031 2.323q.16.636.096 1.368-.063.7.095 1.4.16.573.191 1.145.032.605.35 1.082.191.573.7.923.51.35 1.082.445a1.1 1.1 0 0 0 .637-.286q.318-.223.445-.573.255-.732.51-1.495.285-.732.317-1.591.16-.636.128-1.368 0-.765.19-1.4a2.1 2.1 0 0 0-.063-.891 2.5 2.5 0 0 1-.032-.891q.223-.732.032-1.464a7.3 7.3 0 0 1-.16-1.495q0-.255.032-.446.064-.222.032-.477a3.7 3.7 0 0 1-.254-1.368q0-.765-.064-1.495 0-1.21-.382-2.228m24.587-2.832q.159.318.159.668t-.16.637q-.158.255-.381.382a2.4 2.4 0 0 1-.414.159 2.3 2.3 0 0 0-.413.19.74.74 0 0 0-.319.35 1.7 1.7 0 0 0-.318.733 4.6 4.6 0 0 0 0 .763l.064.828q.063.412.032.795a35 35 0 0 1 0 3.627q.03 1.177 0 2.386-.033 1.178 0 2.323a1.84 1.84 0 0 0-.096.891q.064.446 0 .891a5 5 0 0 1 0 1.591q-.127.795-.19 1.623-.255.7-.542 1.336-.255.668-.986 1.146a1.44 1.44 0 0 1-.827.509 5 5 0 0 0-.891.35 7.4 7.4 0 0 1-1.368.254l-1.4.128q-.446.063-.923.095-.477.063-.955-.095-.381.063-.7-.096a2.8 2.8 0 0 0-.636-.19q-.54-.287-1.082-.478-.54-.192-1.018-.637a16 16 0 0 1-1.018-1.75q-.446-.89-.35-2.004a1.4 1.4 0 0 1-.128-.573l.064-.604q.064-.318.096-.605.03-.318-.032-.605.063-.35.063-.763 0-.446-.031-.827.127-.51.127-1.05 0-.542-.032-1.082l-.064-1.114q0-.54.128-1.05a2.6 2.6 0 0 1-.064-.986 2.9 2.9 0 0 0-.032-.955 7.3 7.3 0 0 0 0-2.354q0-.383.032-.732.064-.35.064-.732a2.8 2.8 0 0 1-.319-.859 1.07 1.07 0 0 0-.54-.764l-.51-.127a.69.69 0 0 1-.381-.35 9 9 0 0 1-.191-.573.83.83 0 0 1 .095-.604q.223-.318.541-.414.35-.127.732-.127t.764.032q.381.03.763-.032a2.45 2.45 0 0 1 1.178.032q.604.127 1.24.032.383-.064.764-.032.414 0 .827-.064.255.064.541.032t.573-.032q.285 0 .509.096.222.094.35.381.128.255.19.573.097.286-.063.605a1 1 0 0 1-.382.445 3.6 3.6 0 0 1-.477.286 2.3 2.3 0 0 0-.477.319q-.223.158-.286.509 0 1.4-.096 2.768a24 24 0 0 0-.032 2.736q.096.255 0 .51-.063.255 0 .572a9.6 9.6 0 0 1 .223 2.355q0 1.209-.095 2.418-.064.381.031.827.096.446-.063.827-.064.541-.032 1.05l.064 1.05q-.065.573.222.987.318.413.669.795.318.287.7.35.413.064.859.16.255-.129.54-.192a2.2 2.2 0 0 0 .541-.127q.287-.095.51-.255.222-.126.381-.445a2.84 2.84 0 0 0 .478-1.495q.03-.795.19-1.56 0-.54-.095-1.113a2.8 2.8 0 0 1 .096-1.114 87 87 0 0 1-.032-2.354q0-1.209-.064-2.418a15 15 0 0 1 0-1.973q.096-1.019 0-2.036.096-.7.16-1.432.095-.764-.16-1.4a.9.9 0 0 0-.382-.319 3 3 0 0 0-.477-.159 1.5 1.5 0 0 1-.414-.19q-.19-.128-.286-.446a1.15 1.15 0 0 1 0-.986q.255-.414.636-.414.414-.032.796-.127h.795q.383 0 .732.063.35.033.732-.032.381-.063.732-.095.381-.032.7.064.318.095.54.413M7.477 64.786q.446.064.923.064a4.4 4.4 0 0 1 .923.032 2.44 2.44 0 0 1 1.177.032q.573.127 1.21-.032.54 0 1.05-.032.54-.063 1.08 0 .351 0 .446.286.127.287.255.541.063.637 0 1.273a6 6 0 0 0 0 1.24q-.064.255-.032.574.064.286.064.572.031.255-.064.51-.063.222-.35.381-.51.159-1.145.223a1.48 1.48 0 0 1-1.114-.318.9.9 0 0 1-.382-.51 2.8 2.8 0 0 0-.19-.636 4.1 4.1 0 0 0-1.4-1.368q-.828-.54-1.846-.382-.255.127-.318.478-.064.7.031 1.463.096.732-.127 1.432.16.859.032 1.718a5.4 5.4 0 0 0 .064 1.655q0 .222.254.286.605 0 1.082-.413.477-.414.732-.891a1.4 1.4 0 0 0 .127-.446q.064-.255.127-.445a.9.9 0 0 1 .255-.35q.19-.16.509-.16.223 0 .477-.031.286-.032.51-.032.254 0 .477.096.222.095.35.35.063.127.063.381.032.223 0 .382a14.4 14.4 0 0 0-.032 2.864q.128 1.4.032 2.832a1.8 1.8 0 0 1 0 .668q-.063.317-.413.477a3 3 0 0 1-.923.127 1.6 1.6 0 0 1-.86-.286 1.05 1.05 0 0 1-.35-.414l-.126-.509a3 3 0 0 0-.16-.477 1.1 1.1 0 0 0-.318-.445 1.88 1.88 0 0 0-1.24-.828.35.35 0 0 0-.35.064q-.16.127-.319.286-.159.637-.063 1.305.127.636.063 1.336.096 1.05 0 2.132-.064 1.05.191 2.1 0 .285.096.509.127.255.381.35a.9.9 0 0 0 .478.223q.254.063.477 0a1.9 1.9 0 0 0 .477-.191q.255-.127.446-.255.636-.54 1.082-1.177.444-.605.604-1.336a1.3 1.3 0 0 0 .255-.35q.127-.224.254-.414.159-.191.318-.286a.7.7 0 0 1 .477-.096h.828q.445 0 .7.414a.52.52 0 0 1 .095.382 1.2 1.2 0 0 1-.063.382 2.5 2.5 0 0 1-.096.381 1.6 1.6 0 0 0 0 .446 2 2 0 0 0-.127.7q0 .35.032.731.03.383.031.764.033.383-.031.764a2.5 2.5 0 0 0-.032.413 1.4 1.4 0 0 1 0 .414.75.75 0 0 1-.16.35.66.66 0 0 1-.317.255 6.8 6.8 0 0 1-1.75.095 9 9 0 0 0-1.719.095 17 17 0 0 0-2.736-.095q-1.368.063-2.704-.095a3 3 0 0 1-.987.032 1.8 1.8 0 0 0-.89.095q-.255 0-.478-.064a1.3 1.3 0 0 0-.414-.063h-.731a1.3 1.3 0 0 1-.7-.128 1.26 1.26 0 0 1-.382-.445Q.445 86.518.54 86.2a.92.92 0 0 1 .223-.51 4 4 0 0 1 .413-.413q.255-.19.446-.413.222-.192.318-.478.127-.445.064-.922a7.5 7.5 0 0 1-.064-.987q.032-.667 0-1.336 0-.7.095-1.4a37 37 0 0 1-.063-2.164q0-1.08.127-2.1a15 15 0 0 1-.095-1.686q.03-.86.031-1.686 0-.923-.031-1.91a62 62 0 0 1-.032-2.004.9.9 0 0 0-.16-.541 1.6 1.6 0 0 0-.381-.382 9 9 0 0 0-.477-.318 2.3 2.3 0 0 1-.414-.382q-.064-.255-.16-.572a1.1 1.1 0 0 1 .064-.637q.35-.54.891-.54.542-.032 1.082.031a31 31 0 0 1 2.068-.127q1.114-.064 2.132.095zm20.75-.063q1.719.35 2.928 1.495.16.446.127.986 0 .51.096.955.032.54.032 1.082 0 .51-.128.986.033.254 0 .573 0 .285-.159.51-.35.349-.89.38-.542.032-.987-.094a.96.96 0 0 1-.382-.319 4 4 0 0 1-.159-.445 3 3 0 0 0-.095-.477 1.5 1.5 0 0 0-.191-.414 2.7 2.7 0 0 1-.032-.732.74.74 0 0 0-.286-.668 3.3 3.3 0 0 1-.414-.51 4 4 0 0 0-.414-.572 2.5 2.5 0 0 0-.477-.477 1.4 1.4 0 0 0-.604-.255q-.287 0-.573-.063a.72.72 0 0 0-.51.063q-.444.224-.922.573a1.57 1.57 0 0 0-.605.86 8 8 0 0 0-.381 2.226 25 25 0 0 1-.16 2.228q.064.54-.031 1.05a4.5 4.5 0 0 0-.064 1.082.73.73 0 0 0-.032.477.62.62 0 0 1 0 .477q0 1.113.032 2.195a37 37 0 0 0 .127 2.164 8 8 0 0 1 0 .987q0 .508.128 1.018.03.763.381 1.4.382.668.7 1.304.319.35.764.478.446.159.86.095a.3.3 0 0 0 .19-.127l.16-.16a44 44 0 0 0 .127-4.74v-.128a8 8 0 0 1-.128-1.05 1.18 1.18 0 0 0-.477-.89 1.6 1.6 0 0 0-.382-.16 2.6 2.6 0 0 1-.413-.222 1.4 1.4 0 0 1-.319-.287.8.8 0 0 1-.127-.445 3.6 3.6 0 0 1 .032-.828q.095-.412.509-.636a3.2 3.2 0 0 1 1.273-.064q.636.065 1.272-.063.7.222 1.4.159a7 7 0 0 1 1.496-.032q.381.096.827.096.477-.033.86 0 .412.03.7.222.318.192.413.732.063.383-.064.764-.095.382-.509.54-.636.35-.827 1.019a3.5 3.5 0 0 0-.064 1.336q-.159.54 0 1.05.16.478.032 1.018a1.6 1.6 0 0 0-.095.7q.031.383.095.764a7 7 0 0 1-.127.923 2.4 2.4 0 0 0 0 .954q0 .446-.223.637a1.6 1.6 0 0 1-.54.35q-.288.127-.637.223-.35.095-.605.318a9.5 9.5 0 0 0-1.909.318 6.1 6.1 0 0 1-2.004.254 1.84 1.84 0 0 0-.891-.095 1.25 1.25 0 0 1-.828-.096 11.6 11.6 0 0 1-2.704-.89q-1.273-.606-2.26-1.846a20 20 0 0 1-1.272-2.036 5.7 5.7 0 0 1-.636-2.26 8.7 8.7 0 0 1-.382-1.59l-.255-1.718a7 7 0 0 1 0-1.337q.096-.667.032-1.336.19-.669.191-1.368.032-.7.19-1.368l.32-.637q.158-.318.158-.7.445-.637.573-1.336.128-.732.573-1.337a8.7 8.7 0 0 1 1.463-1.59 5.9 5.9 0 0 1 1.846-1.082 3.23 3.23 0 0 1 1.782-.668q.986-.096 1.94-.192.669-.063 1.273.096.637.128 1.273.223m18.162 0q1.719.35 2.927 1.495.16.446.128.986 0 .51.095.955.032.54.032 1.082 0 .51-.127.986.03.254 0 .573 0 .285-.16.51-.35.349-.89.38t-.987-.094a.96.96 0 0 1-.381-.319 4 4 0 0 1-.16-.445 3 3 0 0 0-.095-.477 1.5 1.5 0 0 0-.19-.414 2.7 2.7 0 0 1-.033-.732.74.74 0 0 0-.286-.668 3.3 3.3 0 0 1-.414-.51 4 4 0 0 0-.413-.572 2.5 2.5 0 0 0-.478-.477 1.4 1.4 0 0 0-.604-.255q-.286 0-.573-.063a.72.72 0 0 0-.509.063q-.446.224-.923.573a1.57 1.57 0 0 0-.604.86 8 8 0 0 0-.382 2.226 25 25 0 0 1-.16 2.228q.065.54-.031 1.05a4.5 4.5 0 0 0-.064 1.082.73.73 0 0 0-.032.477.62.62 0 0 1 0 .477q0 1.113.032 2.195a37 37 0 0 0 .128 2.164 8 8 0 0 1 0 .987q0 .508.127 1.018.031.763.382 1.4.381.668.7 1.304.318.35.763.478.446.159.86.095a.3.3 0 0 0 .19-.127l.16-.16a44 44 0 0 0 .127-4.74v-.128a8 8 0 0 1-.128-1.05 1.18 1.18 0 0 0-.477-.89 1.6 1.6 0 0 0-.382-.16 2.6 2.6 0 0 1-.413-.222 1.4 1.4 0 0 1-.319-.287.8.8 0 0 1-.127-.445 3.6 3.6 0 0 1 .032-.828q.095-.412.51-.636a3.2 3.2 0 0 1 1.272-.064q.636.065 1.273-.063.7.222 1.4.159a7 7 0 0 1 1.495-.032q.382.096.827.096.478-.033.86 0 .413.03.7.222.318.192.413.732.064.383-.064.764-.095.382-.509.54-.636.35-.827 1.019a3.5 3.5 0 0 0-.064 1.336q-.159.54 0 1.05.16.478.032 1.018a1.6 1.6 0 0 0-.095.7q.032.383.095.764a7 7 0 0 1-.127.923 2.4 2.4 0 0 0 0 .954q0 .446-.223.637a1.6 1.6 0 0 1-.54.35 4.5 4.5 0 0 1-.637.223q-.35.095-.605.318a9.5 9.5 0 0 0-1.909.318 6.1 6.1 0 0 1-2.004.254 1.84 1.84 0 0 0-.891-.095 1.25 1.25 0 0 1-.827-.096 11.6 11.6 0 0 1-2.705-.89q-1.272-.606-2.259-1.846a20 20 0 0 1-1.273-2.036 5.7 5.7 0 0 1-.636-2.26 8.7 8.7 0 0 1-.382-1.59l-.255-1.718a7 7 0 0 1 0-1.337q.096-.667.032-1.336.192-.669.191-1.368.032-.7.191-1.368l.318-.637q.16-.318.16-.7.444-.637.572-1.336.128-.732.573-1.337a8.7 8.7 0 0 1 1.464-1.59 5.9 5.9 0 0 1 1.845-1.082 3.23 3.23 0 0 1 1.782-.668l1.94-.192q.669-.063 1.273.096.637.128 1.273.223M63.15 77.927a.72.72 0 0 1 .16.477q0 .287-.064.573 0 .636.063 1.368.095.7-.19 1.273-.255.382-.573.446a1.4 1.4 0 0 1-.668.032 10 10 0 0 1-.732-.096 1.4 1.4 0 0 0-.732.064q-.605 0-1.145-.032a6.6 6.6 0 0 0-1.114.032 6.4 6.4 0 0 0-1.432.032 7.6 7.6 0 0 1-1.4.063 13 13 0 0 0-.954-.032 1.9 1.9 0 0 1-.86-.127q-.509-.285-.572-.86.032-.73.032-1.43 0-.733.031-1.496.064-.16.128-.287a.73.73 0 0 1 .254-.254q.637-.16 1.368-.191a8 8 0 0 1 1.432.064q.636-.065 1.337 0 .7.063 1.336-.096.795 0 1.559.032.764 0 1.527-.032.35 0 .7.064.35.063.51.413M12.505 96.818q.636.19 1.145.605.51.381.986.827a.7.7 0 0 1 .223.51q.032.254 0 .54 0 .286-.032.573-.031.254.096.509.031.477-.096.891a7.2 7.2 0 0 1-.127 1.909 1 1 0 0 0-.127.159.4.4 0 0 1-.191.095 2.3 2.3 0 0 0-.668-.031 8 8 0 0 1-.668-.032.72.72 0 0 1-.414-.318 3.3 3.3 0 0 1-.223-.478l-.19-.509a1.4 1.4 0 0 0-.192-.477 1.25 1.25 0 0 1-.19-.477 1.04 1.04 0 0 0-.191-.478 4.2 4.2 0 0 0-.669-1.05 1.93 1.93 0 0 0-.986-.7 3.5 3.5 0 0 0-.827-.031q-.446 0-.764.254-.668.54-.986 1.241-.286.7-.637 1.4.064.35.032.7a7 7 0 0 1-.095.636l-.064.669q-.031.318.032.636a6 6 0 0 0-.064.891q0 .445-.063.891l-.128 2.672q-.031 1.305-.032 2.641 0 .924.255 1.75.255.796.35 1.687.286.508.445 1.05.16.54.732.859.351.35.828.413.508.096.954-.095a4.5 4.5 0 0 0 1.177-.955q.573-.605.605-1.368.286-.54.445-1.145.159-.636.414-1.177.317-.51.86-.51.57-.031 1.05.096.254.064.444.286a.95.95 0 0 1 .255.446q.064 1.209 0 2.418a97 97 0 0 1-.095 2.482 1.43 1.43 0 0 1-.446.636q-.255.255-.604.414a8 8 0 0 1-.732.286q-.35.127-.668.255a3.4 3.4 0 0 1-1.21.286 9 9 0 0 0-1.272.223 5 5 0 0 0-1.146 0q-.572.064-1.113-.128a18 18 0 0 1-.923-.222 67 67 0 0 0-.986-.191 12.7 12.7 0 0 1-1.782-1.05 9.8 9.8 0 0 1-1.56-1.432 12 12 0 0 1-1.113-1.814 7 7 0 0 1-.668-1.972 4 4 0 0 0-.223-.859 1.9 1.9 0 0 1-.095-.923 1.7 1.7 0 0 1-.191-.827 2.2 2.2 0 0 0-.127-.923 7.4 7.4 0 0 0 0-1.368 10 10 0 0 1-.032-1.369 9 9 0 0 0 .127-1.081q.031-.573.064-1.114l.381-1.336q.192-.669.446-1.305.254-.668.573-1.273.35-.604.859-1.145a22 22 0 0 0 1.177-1.273 4.8 4.8 0 0 1 1.368-1.05q.827-.286 1.655-.54a7.8 7.8 0 0 1 1.75-.382 6.2 6.2 0 0 1 2.004.127q.955.19 1.877.445m10.437-.127q.35.063.764.032a6 6 0 0 1 .86-.064q.413-.032.73.127.32.127.478.573.096.35.064.732a.93.93 0 0 1-.223.636q-.159.159-.382.255a5 5 0 0 0-.413.159.9.9 0 0 0-.35.223q-.127.126-.16.382-.159 1.049-.19 2.131v2.132a4 4 0 0 1 0 1.018 15 15 0 0 1-.096.955q-.063.477-.095.986 0 .477.095.955-.032 1.304.096 2.577a24 24 0 0 1 0 3.023q-.096 1.495.095 2.959.128.255.35.413.255.16.477.319.223.159.382.35a.77.77 0 0 1 .223.477q.032.414-.064.732-.063.35-.413.541a1.94 1.94 0 0 1-.987.063 4.3 4.3 0 0 0-1.05-.063q-.604 0-1.24.063a4.8 4.8 0 0 1-1.242.032q-.7 0-1.336-.064a5.2 5.2 0 0 0-1.273.096 9 9 0 0 1-.7-.159q-.317-.096-.477-.446a1.9 1.9 0 0 1 .191-1.272q.16-.16.35-.287a3 3 0 0 0 .414-.286q.19-.127.318-.318a.87.87 0 0 0 .223-.414q.222-.604.159-1.273-.032-.668-.032-1.304a5.2 5.2 0 0 1 0-1.146q.063-.572-.096-1.145.16-.414.032-.827a2.1 2.1 0 0 1 0-.891l-.063-4.582q0-2.323.063-4.646a2.3 2.3 0 0 0-.19-.795 1.27 1.27 0 0 0-.478-.636 4 4 0 0 1-.668-.35 1 1 0 0 1-.382-.605q-.159-.795.51-1.209.54-.191 1.113-.127.573.03 1.113-.032zm19.077.54a.75.75 0 0 1 .032.478 1.4 1.4 0 0 0-.064.445 22 22 0 0 1 0 1.655 22 22 0 0 0 0 1.655 6 6 0 0 0-.127.35.39.39 0 0 1-.223.254 2.04 2.04 0 0 1-.923.255q-.54 0-.89-.287a2 2 0 0 1-.319-.413l-.19-.509a3 3 0 0 0-.16-.478 1.6 1.6 0 0 0-.286-.477 3 3 0 0 1-.477-.54q-.224-.32-.573-.192-.255.351-.223.828.064.445-.032.89.096.732-.032 1.464-.094.7.096 1.4.063.414 0 .796-.064.35-.127.731l-.128.7q-.03.351.096.732 0 .445-.032.955 0 .477.064.922-.032.255-.032.51.031.254-.032.477a20 20 0 0 0 0 2.736q.159.541.096 1.114-.033.573.095 1.113a3.9 3.9 0 0 0-.032 1.114 2 2 0 0 0 .446.986q.317.192.668.414.35.223.413.605.033.35 0 .7 0 .35-.35.509a8.5 8.5 0 0 1-2.64.35q-1.369-.032-2.705-.032a1.44 1.44 0 0 0-.732-.127 2.3 2.3 0 0 1-.763 0 2 2 0 0 1-.605-.159 1.06 1.06 0 0 0-.636-.064.57.57 0 0 1-.319-.382 3.4 3.4 0 0 1-.031-.477q0-.191.031-.382a.5.5 0 0 1 .191-.286q.255-.255.605-.35.35-.096.477-.509.16-.35.16-.764.03-.413.095-.764a8 8 0 0 1-.064-1.432q.064-.73.032-1.463.064-.732.064-1.4v-1.432a4 4 0 0 0-.096-1.145 2.1 2.1 0 0 1 .064-1.146 4.2 4.2 0 0 1-.064-1.623 5 5 0 0 0 .064-1.591 6.4 6.4 0 0 0-.032-1.431l-.127-1.464v-1.495q-.191-.255-.446-.16-.51.446-.89.987a2.12 2.12 0 0 0-.414 1.209q-.096.287-.382.509t-.605.255a7 7 0 0 1-.922-.064q-.445-.096-.669-.541a5.6 5.6 0 0 1-.159-.986q0-.51.032-1.018.032-.51.032-1.019.032-.51 0-1.05.032-.255.159-.445.16-.19.35-.35a1.1 1.1 0 0 1 .636-.128q.35.032.7.032.922.064 1.846 0a11.5 11.5 0 0 1 1.909.032 34 34 0 0 1 2.1-.064q1.081-.03 2.1.096.446-.127.827-.064.382.064.827-.032.383.033.764 0 .414-.03.796-.031.381-.032.731.031a1.6 1.6 0 0 1 .7.223zm8.694-.445q.445.064.922.064.478-.031.923.032a2.44 2.44 0 0 1 1.177.032q.573.127 1.21-.032.54 0 1.05-.032.54-.063 1.081 0 .35 0 .446.286.128.287.254.541.065.637 0 1.273a6 6 0 0 0 0 1.241q-.063.255-.032.573.064.286.064.572.031.255-.063.509-.065.223-.35.382-.51.16-1.146.223a1.48 1.48 0 0 1-1.114-.318.9.9 0 0 1-.381-.509 2.8 2.8 0 0 0-.191-.637 4.1 4.1 0 0 0-1.4-1.368q-.828-.54-1.846-.382-.255.127-.318.478-.064.7.032 1.463.095.732-.127 1.432a5.2 5.2 0 0 1 .031 1.718 5.4 5.4 0 0 0 .064 1.655q0 .222.255.286a1.6 1.6 0 0 0 1.081-.413q.479-.414.732-.891.096-.191.127-.446.064-.255.128-.445a.9.9 0 0 1 .254-.35q.191-.159.51-.159.222 0 .477-.032.285-.032.509-.032.255 0 .477.095a.7.7 0 0 1 .35.35.9.9 0 0 1 .064.382q.03.223 0 .382a14.4 14.4 0 0 0-.032 2.864q.127 1.4.032 2.832.063.35 0 .668-.064.318-.414.477a3 3 0 0 1-.923.127 1.6 1.6 0 0 1-.859-.286 1.04 1.04 0 0 1-.35-.414l-.127-.509a3 3 0 0 0-.16-.477 1.1 1.1 0 0 0-.317-.446 1.88 1.88 0 0 0-1.241-.827.35.35 0 0 0-.35.064q-.159.127-.318.286a3.4 3.4 0 0 0-.064 1.305q.127.636.064 1.336.095 1.05 0 2.132-.065 1.05.19 2.1 0 .287.096.509.127.255.382.35a.9.9 0 0 0 .477.223q.255.063.477 0 .255-.064.478-.191.255-.127.445-.255.636-.54 1.082-1.177.445-.604.604-1.336.16-.16.255-.35a7 7 0 0 1 .255-.414q.159-.191.318-.286a.7.7 0 0 1 .477-.096h.827q.445 0 .7.414a.52.52 0 0 1 .096.382q0 .19-.064.381a2.5 2.5 0 0 1-.095.382 1.6 1.6 0 0 0 0 .446 2 2 0 0 0-.128.7q0 .35.032.732.032.381.032.763.031.382-.032.764a2.5 2.5 0 0 0-.032.413q.033.224 0 .414a.75.75 0 0 1-.159.35.66.66 0 0 1-.318.255 6.8 6.8 0 0 1-1.75.095 9 9 0 0 0-1.718.096 16.6 16.6 0 0 0-2.737-.096 16.3 16.3 0 0 1-2.704-.095 3 3 0 0 1-.986.031 1.8 1.8 0 0 0-.891.096q-.256 0-.478-.064a1.3 1.3 0 0 0-.413-.063h-.732a1.3 1.3 0 0 1-.7-.128 1.26 1.26 0 0 1-.382-.445q-.127-.223-.032-.541a.92.92 0 0 1 .223-.509q.19-.223.414-.414.255-.19.445-.413.224-.192.318-.478.127-.445.064-.922a7.5 7.5 0 0 1-.064-.987 14 14 0 0 0 0-1.336q0-.7.096-1.4a37 37 0 0 1-.064-2.164q0-1.082.127-2.1a15 15 0 0 1-.095-1.686 46 46 0 0 0 .032-1.686q0-.924-.032-1.91a62 62 0 0 1-.032-2.004.9.9 0 0 0-.159-.541 1.6 1.6 0 0 0-.382-.382 9 9 0 0 0-.477-.318 2.3 2.3 0 0 1-.414-.382 13 13 0 0 0-.159-.572 1.1 1.1 0 0 1 .064-.637q.35-.54.89-.54.542-.032 1.083.031a31 31 0 0 1 2.068-.127q1.113-.064 2.132.095zm22.373 1.75a6.1 6.1 0 0 1 1.846 1.687q.764 1.018 1.272 2.068.796 1.654.955 3.595.159 1.94.127 3.946-.127 1.05-.35 2.132a7.6 7.6 0 0 1-.732 2.004 2.8 2.8 0 0 1-.509 1.273 37 37 0 0 0-.732 1.209q-.54.796-1.272 1.273a6.2 6.2 0 0 1-1.56.732 1.6 1.6 0 0 1-.763.445 6 6 0 0 1-.86.191q-.572.096-1.113.191-.54.128-1.082.159a13 13 0 0 0-.89-.032q-.413 0-.764-.095a5 5 0 0 1-1.368 0 7.6 7.6 0 0 0-1.4 0l-1.56.127q-.795.064-1.559-.032a1.5 1.5 0 0 1-.413-.191 1.3 1.3 0 0 1-.318-.286 1.6 1.6 0 0 1-.096-.827q.096-.415.35-.7.255-.255.605-.382a.76.76 0 0 0 .509-.446q.255-.445.19-1.05a5 5 0 0 1 0-1.113 7 7 0 0 0 0-.955q-.03-.477.096-.923a45 45 0 0 1-.095-1.591q0-.795.159-1.59a12 12 0 0 1-.191-2.45q.063-1.273.19-2.482-.063-1.05-.158-2.068-.096-1.05 0-2.164l-.128-.7a.68.68 0 0 0-.413-.541l-.605-.223q-.255-.095-.413-.413a2 2 0 0 1-.128-.7q.033-.35.319-.637a.9.9 0 0 1 .477-.223q.255-.03.509 0 .286 0 .573.032.286.033.572 0a3.8 3.8 0 0 1 1.369-.063q.668.095 1.4.031.255.064.572 0 .318-.064.605-.031 3.913-.351 6.777 1.813m-4.04.955-.637-.35a1.34 1.34 0 0 0-.7-.191 2 2 0 0 0-.223.096q-.095.063-.095.158-.064.605-.096 1.241 0 .637.064 1.21a5 5 0 0 0 0 1.113q.096.541 0 1.082v1.623q.032.795-.096 1.622.096.541.064 1.114-.031.541.032 1.082.032.254 0 .509a5 5 0 0 1-.096.477q-.03.223-.063.478 0 .222.095.477.064.54-.032 1.082-.063.508.096 1.018.032.827-.064 1.75-.095.922.223 1.654a1 1 0 0 0 .35.319q.222.095.445.159.573.095.987-.35a4.6 4.6 0 0 0 .668-.828q.477-.858.573-1.877t.286-2.004q.032-.828.064-1.56a37 37 0 0 1 .159-1.527 7 7 0 0 1-.064-.923q0-.477.032-.954a7 7 0 0 0 0-.923q0-.445-.096-.891a4 4 0 0 0-.127-1.272q-.158-.573-.254-1.178a6.6 6.6 0 0 0-.382-1.877q-.286-.891-1.114-1.56m17.506-1.305a13 13 0 0 1 1.527 1.909 7.9 7.9 0 0 1 1.019 2.132q.158.541.254 1.146.096.573.223 1.177.031.764-.032 1.559a2.8 2.8 0 0 1-.445 1.432q-.191.604-.669 1.177a3.1 3.1 0 0 1-1.113.859q-.605.255-1.241.573a5.2 5.2 0 0 1-1.305.414 7 7 0 0 0-.731.318q-.383.159-.446.604-.096.287-.19.605-.064.286-.383.445-.381.159-.827.159a1.24 1.24 0 0 1-.764-.318 1.3 1.3 0 0 1-.286-.413q-.064-.255-.127-.478a3 3 0 0 0-.096-.477 1.3 1.3 0 0 0-.159-.477 21 21 0 0 0-.477-1.909 4 4 0 0 1 0-2.005q.35-.573.986-.763.637-.191 1.21-.446a6.6 6.6 0 0 0 1.622-.318q.764-.255 1.496-.605a1.4 1.4 0 0 0 .509-.922 5.2 5.2 0 0 0 0-1.146 2.04 2.04 0 0 0-.541-1.113 2.7 2.7 0 0 0-1.018-.732 3.7 3.7 0 0 0-1.528-.128q-.763.096-1.4.35-.668.255-1.24.032a3.1 3.1 0 0 1-1.019-.732 2.3 2.3 0 0 1-.509-1.018 2.8 2.8 0 0 1 .096-1.24q.159-.542.668-.923.51-.414 1.05-.478.573-.285 1.336-.254.796.032 1.368.19.828.351 1.623.764a7.5 7.5 0 0 1 1.56 1.05m-1.623 17.246q.414.573.478 1.336.063.764-.35 1.337-.445.827-1.241 1.304a3 3 0 0 1-1.687.509 2.27 2.27 0 0 1-1.336-.509 4 4 0 0 1-.923-1.082 2.7 2.7 0 0 1-.254-1.177l.063-1.177q.287-.7.955-1.305.668-.573 1.495-.541a3.3 3.3 0 0 1 1.591.255q.764.318 1.21 1.05"/></svg>