<svg xmlns="http://www.w3.org/2000/svg" width="310" height="165" fill="none"><g clip-path="url(#a)"><path fill="#000" d="m129 135.462 1.469-5.862 14.912 4.969-1.469 5.1zm5.503 18.1 9.536-13 3.787 3.188-8.555 13.256zM145.502 118h5.743l-.487 15.931h-4.648zm3.546 25.744 3.913-3.188 9.416 13-4.648 3.444zm2.444-9.175 15.039-4.969 1.469 5.862-14.912 4.207-1.59-5.1z"/></g><path fill="#000" d="M67.585 20.94c2.96 1.193 4.867 3.484 5.82 6.326.67 2.25.831 4.856.388 7.594-.09.702-.249 1.487-.415 2.196-.56 2.287-1.588 4.539-2.774 6.729l-3.121-1.256c.985-1.863 1.81-3.788 2.247-5.755.187-.48.291-1.029.395-1.578.11-1.32-.002-2.543-.399-3.508-.591-1.41-1.697-2.542-3.456-3.229-1.202-.506-2.766-.748-4.545-.816-7.963-.272-17.381 5.447-25.957 13.631-9.846 9.458-18.397 22.11-22.398 33.114-1.83 5.254-2.341 9.771.06 14.098 1.481 2.716 4.2 4.625 8.029 5.199 1.403.18 2.87.2 4.558.121 6.427-.512 13.68-2.95 20.799-7.686C54.01 81.375 59.912 75.13 70.09 63.408l2.92 1.582C61.943 77.95 55.02 85.676 46.945 91.734c-7.577 5.627-15.273 9.107-22.013 9.571-1.918.098-3.69.107-5.254-.135-4.843-.712-8.146-3.107-10.087-6.629-3.236-5.869-1.854-16.863.843-24.432 4.168-11.711 13.267-25.108 23.614-34.997 9.422-9.033 19.951-15.24 29.068-14.996 1.703.075 3.19.325 4.469.824M85.81 44.163c-.5 1.28-1.45 2.677-2.262 3.907-.118.396-.229.869-.055 1.084.243.132.792.236 1.334.263.779.083 1.48.173 2.134.575 1.14.667 1.641 1.931.441 4.816.69 1.632-.461 5.052-5.716 12.47-1.291 1.89-2.81 4.65-3.594 7.034l.063.688c.188.368.362.584.834.695.619.02 1.675-.231 3.161-.83 2.584-1.239 5.112-3.089 7.376-5.3 2.694-2.56 4.971-5.465 6.505-8.072l.076-.007.063-.16 3.051 1.339-.062.16c-1.944 3.183-4.928 7.619-8.365 11.325-2.666 2.865-5.52 5.361-8.48 6.712-2.299.981-4.035 1.372-5.28 1.255-1.632-.16-2.64-1.069-3.003-2.5-.41-1.118-.308-2.515.094-4.016.049-.313.174-.633.215-1.022.09-.702.18-1.403.339-2.189.678-3.53 2.822-7.889 4.661-10.523 1.5-2.142 2.582-3.782 3.401-4.937-.938-.145-1.876-.29-2.64-1.068-.258-.284-.522-.646-.634-1.02-1.027 1.404-2.388 3.378-3.686 5.193-1.777 2.475-4.935 7.543-5.483 8.287l-.076.007-2.642-1.916-.007-.077.076-.007c.278-.333 1.36-1.974 4.303-6.868 1.797-3.094 4.456-6.883 6.302-9.441 1.5-2.142 3.082-5.061 4.526-6.966zm38.888 6.147c-1.775 5.018-7.198 9.754-13.283 13.164-4.174 2.386-8.634 4.182-12.483 5.075.405 1.89 1.24 3.431 2.491 4.473a5.44 5.44 0 0 0 4.275 1.226c3.508-.398 7.69-2.709 11.523-5.45 4.695-3.435 8.632-7.573 9.936-10.159l3.253 1.013c-1.554 3.225-4.671 7.056-8.358 10.554-3.41 3.164-7.375 6.148-11.293 7.971-.59.286-1.181.571-1.702.773-3.792 1.504-6.94 1.638-9.324.855-2.468-.853-4.109-2.784-4.806-5.34-.104-.299-.132-.605-.153-.834-.279-1.362-.266-2.904-.017-4.391l-.459.042c-.695-.014-1.39-.027-2.091-.117l1.352-3.746c.389.041.778.082 1.237.04l.458-.042q.623-3.294 2.392-6.693c1.902-3.642 4.727-7.292 7.845-10.276 3.11-3.06 6.583-5.536 9.785-6.754 2.529-1.003 4.891-1.296 6.879-.63 1.119.436 2.03 1.123 2.587 2.151.563 1.105.753 4.016.421 5.434-.097.625-.201 1.174-.465 1.661M99.86 64.379c3.147-.983 6.613-2.688 9.961-4.844 5.32-3.34 9.938-7.616 11.346-11.599.138-.167.194-.403.256-.563a2.33 2.33 0 0 0-1.077-.826c-1.036-.367-2.405-.165-3.891.434-2.675 1.093-5.71 3.298-8.529 6.176-2.895 2.886-5.582 6.37-7.344 9.845-.264.487-.451.966-.722 1.377m67.088-9.079 3.509.45c-1.421 3.83-5.844 8.55-8.906 11.298-3.785 3.275-7.938 5.891-10.926 6.088-.917.084-1.71-.152-2.287-.561-1.321-.958-1.503-2.945-.886-5.468l.062-.16c-1.479 1.523-3.117 2.983-4.763 4.367-4.09 3.304-8.578 5.642-12.532 5.388-2.64-.22-4.427-1.213-5.352-2.9-1.009-1.758-1.143-4.058-.464-6.74a13.8 13.8 0 0 1 .428-3.74c.624-2.446 1.914-5.184 3.747-7.896 4.726-7.292 19.53-21.52 27.928-15.662 1.488 1.097 2.636 2.687 3.27 4.556.833-1.001 1.943-2.336 2.943-3.199l1.865 2.681c-3.146 2.678-9.253 13.411-11.071 17.123-.971 2.016-1.727 3.858-2.205 5.366.021.23.028.306.111.375.084.07.16.063.389.042 2.224-.127 5.606-1.902 8.704-4.266 2.167-1.586 5.514-4.59 6.436-7.142m-24.646 10.275c8.077-5.21 9.678-10.444 14.871-17.702-.134-1.452-1.239-2.584-2.671-3.07-6.923-2.37-19.727 10.132-23.308 15.625-1.423 2.134-2.464 4.233-2.983 6.13.035.383.146.758.327 1.05.543.875 1.599 1.471 3.225 1.553 3.252.165 7.045-1.339 10.539-3.586m39.264-29.88c-.805 1.306-1.533 2.606-2.262 3.906-4.962 8.933-8.992 17.935-10.086 22.813-.069.931-.006 1.62.134 2.3.348 1.279.884 2.077 1.69 2.466.16.062.396.117.563.256 2.62.84 5.725-.602 8.663-3.029 3.222-2.684 6.262-6.508 8.206-9.692.472-.737.944-1.474 1.27-2.12l-.007-.077.076-.007-.007-.076.077-.007-.007-.077 3.183 1.096.007.076-.077.007.007.076c-.582 1.21-1.38 2.593-2.324 4.067-2.43 3.768-5.789 8.315-9.331 11.723-3.978 3.678-8.32 5.926-12.219 4.588-.236-.056-.479-.187-.723-.32-1.529-.707-2.558-1.846-3.115-3.721-.46-1.654-.441-3.968.203-7.033l-.007-.076c.124-1.168.248-2.335.511-3.67 1.004-5.024 4.882-13.164 9.754-21.394.333-.57.673-1.064 1.006-1.634-1.987.182-4.342.552-6.294 1.116l-.184-3.682c2.939-.732 6.066-1.096 8.97-1.362 3.783-5.819 7.906-11.283 11.85-15.344l.139-.167 2.364 2.25c-3.097 3.212-6.457 7.759-9.691 12.834l.077-.007c4.516-.337 9.13-.452 13.653-.712l-.657 3.76c-5.066.232-10.131.466-15.335.865zm21.365 5.363c-3.964 4.68-8.198 10.617-11.266 15.83-1.068 1.794-1.984 3.574-2.622 5.02.021.229-.035.465-.014.694.056.612.328 1.05.668 1.403.411.271.89.458 1.425.41 2.3-.135 4.932-1.686 7.279-3.828 2.493-2.232 5.263-5.646 6.373-8.677l3.44.533c-1.54 4.226-5.24 9.266-8.489 12.493-3.173 3.22-6.798 5.71-10.092 5.935-1.383.05-2.571-.304-3.496-1.144a4.97 4.97 0 0 1-1.608-3.244c-.119-1.3.262-3.03 1.018-4.872 1.475-6.61 10.084-16.955 14.812-22.552zm8.62-13.584c-.784.689-1.521 1.064-2.438 1.148-.84.077-1.556-.165-2.071-.735-.591-.562-.738-1.32-.662-2.174a4.2 4.2 0 0 1 1.249-2.35c.701-.758 1.514-1.14 2.355-1.218.917-.084 1.633.16 2.155.805.514.57.737 1.32.661 2.174a4.2 4.2 0 0 1-1.249 2.35m-1.969 41.568c-2.008.8-3.696.878-5.073.157-.889-.458-1.724-1.152-2.218-2.34-.487-1.112-.627-2.64-.365-4.822.097-.626.194-1.251.367-1.884.02-.618.041-1.237.131-1.938.566-3.906 2.592-8.716 5.396-13.443 2.935-4.97 6.795-9.949 10.621-13.613l2.149 2.423c-3.18 3.143-6.575 8.156-9.413 13.348-2.428 4.616-4.391 9.266-5.215 12.887q-.021 1.042.168 1.834c.139.681.411 1.119.737 1.32.48.187 1.244.117 2.21-.28 1.417-.515 3.091-1.593 5.035-3.082 3.459-2.629 7.194-6.44 10.45-10.437.826-1.078 1.652-2.156 2.402-3.226-.161-.91-.168-1.835-.183-2.835.02-1.466.185-3.023.504-4.594 2.465-11.786 10.672-10.535 7.858-.874-1.781 5.79-6.668 13.02-8.854 16.072-3.284 4.54-7.046 8.892-10.498 11.598-2.313 1.676-4.348 3.019-6.209 3.73m21.725-32.05c-.964 2.94-.63 3.218.459-.041.922-2.551.144-1.786-.459.042m32.651.553c-1.775 5.018-7.198 9.754-13.282 13.164-4.175 2.386-8.634 4.182-12.483 5.075.404 1.89 1.239 3.431 2.491 4.473a5.44 5.44 0 0 0 4.274 1.226c3.509-.398 7.69-2.708 11.524-5.449 4.694-3.436 8.631-7.573 9.936-10.16l3.252 1.013c-1.554 3.225-4.671 7.056-8.358 10.554-3.409 3.164-7.375 6.148-11.293 7.972-.59.285-1.18.57-1.701.772-3.793 1.504-6.941 1.638-9.325.855-2.467-.853-4.108-2.784-4.805-5.34-.105-.299-.133-.605-.154-.834-.279-1.361-.266-2.904-.017-4.391l-.459.042c-.694-.014-1.389-.027-2.091-.117l1.352-3.746c.389.041.778.083 1.237.04l.459-.041q.622-3.295 2.392-6.694c1.901-3.642 4.726-7.292 7.844-10.276 3.111-3.06 6.583-5.536 9.786-6.754 2.528-1.003 4.891-1.296 6.878-.63 1.119.436 2.03 1.124 2.587 2.152.563 1.104.753 4.015.421 5.433-.097.626-.201 1.175-.465 1.661m-24.837 14.069c3.147-.982 6.613-2.687 9.96-4.844 5.321-3.34 9.938-7.616 11.346-11.599.139-.167.194-.403.256-.563a2.33 2.33 0 0 0-1.077-.826c-1.036-.367-2.405-.165-3.891.434-2.674 1.093-5.709 3.298-8.528 6.177-2.896 2.886-5.582 6.369-7.345 9.844-.263.487-.451.967-.721 1.377"/><g clip-path="url(#b)"><path fill="#000" d="M229.803 75.196 192.47 79.46l-39.223 4.48-41.115 4.697-38.456 4.393c-.488.057-.945.37-1.25.86-.957 1.524-.042 3.709 1.477 3.533l35.256-4.03 41.191-4.706 37.256-4.255 39.223-4.48 40.409-4.614c.496-.056.953-.376 1.266-.882.935-1.532.019-3.686-1.485-3.51z"/></g><path fill="#000" d="M201.773 112.109a.8.8 0 0 1 .382.159q.19.096.413.159.35.192.637.509.318.287.477.7.094.987 0 1.973l-.127 1.941q-.064.127-.128.286a.4.4 0 0 1-.222.191 1.8 1.8 0 0 1-.764.096.98.98 0 0 1-.636-.287 2.7 2.7 0 0 1-.637-1.463 10 10 0 0 0-.668-1.496q-.414-.764-1.273-1.05a1.63 1.63 0 0 0-.859-.095 1.27 1.27 0 0 0-.795.318l-.541.7a3.8 3.8 0 0 1-.159.859q-.096.414-.223.827-.095.382-.191.796a4 4 0 0 0-.032.859q.032.7-.127 1.336a3.1 3.1 0 0 0-.064 1.241q0 1.145-.031 2.291-.033 1.114.095 2.227.031 1.05.223 2.005.19.954.413 1.941.192.477.637.891.446.445.954.509 1.05 0 1.655-.859.254-.669.573-1.273.35-.573.445-1.305.096-.222.159-.477.095-.255.191-.445.127-.223.318-.35.19-.159.509-.159.382 0 .764.031.414 0 .604.414.16.541.096 1.146t.127 1.145a2.6 2.6 0 0 0-.032.891q.064.477.064.923.031.445-.095.827-.128.382-.605.636a5 5 0 0 1-1.845.732 56 56 0 0 1-2.005.414 3.7 3.7 0 0 0-1.082.032q-.54.095-1.082-.064a3 3 0 0 0-.763-.286 10.124 10.124 0 0 1-1.528-.382 2.3 2.3 0 0 1-.7-.382 18 18 0 0 1-1.336-1.146 4 4 0 0 1-.986-1.336 4.6 4.6 0 0 1-.764-1.623 51 51 0 0 0-.477-1.718 25 25 0 0 0-.318-2.513 9.4 9.4 0 0 1-.096-2.578 9 9 0 0 1 .255-1.559q.222-.764.35-1.559a1.7 1.7 0 0 1 .159-.35q.095-.16.223-.35.063-.668.381-1.241.318-.604.605-1.177a5.5 5.5 0 0 1 1.05-1.177q.605-.541 1.241-.987.54-.16 1.018-.413a2.5 2.5 0 0 1 1.018-.35 10 10 0 0 0 1.082-.191 2.6 2.6 0 0 1 1.145 0l1.528.127q.763.063 1.4.509m12.429-.159q.795.127 1.623.191.827.063 1.559.382.732.477 1.527 1.018.828.509 1.177 1.432.478.922.605 2.004a4.9 4.9 0 0 1-.223 2.132 8 8 0 0 0-.382.891q-.127.446-.541.827a6 6 0 0 1-.763.7 10 10 0 0 1-.827.573.49.49 0 0 0-.223.35q.095.382.286.764.223.35.382.795.35.414.414.955t.445.954q.223.7.509 1.368.287.7.573 1.369.318.508.636.954.319.477.796.923.19.381.095.827a1.6 1.6 0 0 1-.35.827q-.318.255-.7.287a2.1 2.1 0 0 1-.732 0 11 11 0 0 1-.795-.096 3 3 0 0 0-.764.032q-.16 0-.413.032a.56.56 0 0 1-.414-.032 46 46 0 0 0-.923-.318q-.445-.159-.509-.7a1.3 1.3 0 0 0-.159-.446 4 4 0 0 0-.223-.381l-.254-.382a1 1 0 0 1-.096-.446 1.7 1.7 0 0 0-.286-.7 4.6 4.6 0 0 1-.35-.636 15 15 0 0 0-.445-1.368 33 33 0 0 0-.541-1.273 10 10 0 0 1-.382-1.018q-.128-.509-.573-.955-.159-.031-.223.191a1.6 1.6 0 0 0 0 .446q.033.222.064.477a7.6 7.6 0 0 0-.127 2.195 13.4 13.4 0 0 1 .063 2.26q.033.286.191.445.192.19.382.318.223.16.414.287.222.159.35.381.159.255.159.605t-.159.604q-.445.51-1.146.35-.318-.095-.636-.063-.287.031-.605.063a6 6 0 0 1-.668.096 2.4 2.4 0 0 1-.668-.032 4.2 4.2 0 0 0-1.177-.159q-.605 0-1.178.064-.222 0-.509.031a4 4 0 0 1-.541.032q-.254 0-.477-.095a.7.7 0 0 1-.35-.35 2.3 2.3 0 0 1-.095-.668q0-.318.191-.573.254-.254.572-.35a1.06 1.06 0 0 0 .573-.382q.19-.381.191-.827a2.5 2.5 0 0 0-.095-.859q.127-.445.063-.891a13 13 0 0 1-.095-.891q.222-.923.095-1.814a9 9 0 0 1 0-1.845 6.3 6.3 0 0 0 0-1.273 4.7 4.7 0 0 1 .064-1.336q0-.796-.096-1.591a8.4 8.4 0 0 1 .032-1.623 10 10 0 0 1-.063-1.145q.031-.605-.032-1.146a.87.87 0 0 0-.318-.445 3.6 3.6 0 0 0-.478-.287 6 6 0 0 1-.445-.35q-.191-.19-.223-.541-.063-.477.159-.763.35-.35.764-.35h1.813q.51-.032.955-.032a40 40 0 0 0 4.55 0m.541 3.023a2.35 2.35 0 0 0-.796-.668 1.5 1.5 0 0 0-.954-.191.28.28 0 0 0-.159.191q-.032.127-.064.286.032.7-.032 1.4a8 8 0 0 0 0 1.4 4.7 4.7 0 0 0-.063 1.718 9.6 9.6 0 0 1 .095 1.75l.096.191a.43.43 0 0 0 .413.095q.255-.094.478-.159.54-.158.827-.509a2.5 2.5 0 0 0 .413-.827q.127-.477.16-.986.032-.51.095-.987-.064-.732-.127-1.432-.033-.731-.382-1.272m20.469-3.214q.35 0 .668.064.318.031.509.382l.096.318q0 1.018.032 2.036.031.987-.128 2.005a.69.69 0 0 1-.381.35 1.2 1.2 0 0 1-.478.095q-.445 0-.891-.032a1.1 1.1 0 0 1-.763-.382 7 7 0 0 1-.382-.572 4.6 4.6 0 0 0-.414-.637 3 3 0 0 0-.477-.541 1.5 1.5 0 0 0-.636-.318 33 33 0 0 0-.668-.191.75.75 0 0 0-.669.064l-.127.191q.032 1.082-.064 2.195a9 9 0 0 0 .064 2.132l-.095 1.305.159.159a.5.5 0 0 0 .222.127q.446-.064.828-.223.413-.19.668-.541.127-.222.223-.477a6 6 0 0 1 .254-.509q.127-.255.318-.445.192-.192.541-.223a2.6 2.6 0 0 1 .573.064q.286.031.445.381.127.541.096 1.019-.032.477.095 1.018a4 4 0 0 0-.095 1.336q.096.669.064 1.336.095.414.063.796a9 9 0 0 0-.032.795.58.58 0 0 1-.254.414 1.5 1.5 0 0 1-.414.191 2.3 2.3 0 0 1-.859-.032q-.382-.127-.636-.573a1.1 1.1 0 0 1-.223-.413q-.064-.255-.127-.478a1.1 1.1 0 0 0-.223-.445.94.94 0 0 0-.414-.318 1.2 1.2 0 0 1-.254-.096.7.7 0 0 0-.287-.127.44.44 0 0 0-.286-.032q-.128 0-.254.159a2.2 2.2 0 0 0-.223.828q-.032.413-.032.859.032.446.032.891.032.445-.096.859.096.827.096 1.686 0 .86.35 1.591l.254.255a.5.5 0 0 0 .287.19q.827 0 1.463-.636.638-.604.891-1.336a1.2 1.2 0 0 0 .287-.446q.094-.254.159-.509a4 4 0 0 1 .222-.445q.16-.223.478-.35.381-.223.891-.191.54 0 .922.286.318.255.382.573.065.35 0 .7a4 4 0 0 1-.127.732 2.9 2.9 0 0 0-.032.732q0 .54-.127 1.081a3.6 3.6 0 0 0-.064 1.178l-.127.381a.48.48 0 0 1-.286.319q-.542.19-1.178.127a118 118 0 0 1-1.145-.127q-.828.064-1.655.031-.827-.032-1.654.064a3.5 3.5 0 0 1-1.178-.127q-.508-.127-1.113.032a5.6 5.6 0 0 0-1.877 0 1.1 1.1 0 0 1-.637.127 8 8 0 0 0-.7-.032h-.795q-.414 0-.637-.445-.159-.255-.127-.669.063-.381.223-.636.127-.19.318-.318a8 8 0 0 0 .414-.255q.19-.095.35-.254a.68.68 0 0 0 .222-.382 8 8 0 0 0 0-1.432 5.2 5.2 0 0 1 .128-1.4q-.064-.732-.128-1.432-.031-.7.032-1.431 0-3.118.096-6.141a10 10 0 0 1-.064-1.146q.032-.573.127-1.145a9 9 0 0 1-.159-.796q-.063-.445-.541-.604a2.4 2.4 0 0 1-.445-.255 1.4 1.4 0 0 1-.318-.382 1.06 1.06 0 0 1-.032-.572 1.9 1.9 0 0 1 .254-.509.73.73 0 0 1 .414-.223q.255-.064.509-.064.286-.032.541-.032.255-.031.477-.127.827.032 1.655 0a9 9 0 0 1 1.686.032 4.8 4.8 0 0 1 1.464-.032 7 7 0 0 0 1.495-.032q.764.064 1.496.064.732-.032 1.495-.032m10.208.286a9 9 0 0 0 1.305-.031q.668-.064 1.304.127.287.222.414.509.16.286.254.605.096.318.159.668.096.318.255.604.127.828.382 1.623.254.763.318 1.591.191.763.382 1.495t.445 1.464q.255 1.019.414 2.036.16.987.509 1.941.255.541.318 1.178.095.604.35 1.145.064.605.223 1.209.16.604.35 1.146.127.318.382.572.286.255.509.509.254.287.382.573.126.286 0 .7a1.4 1.4 0 0 1-.223.35.62.62 0 0 1-.318.255l-.382.095a4.7 4.7 0 0 0-1.082 0 2.2 2.2 0 0 1-.986-.095q-1.05.222-2.132.159a35 35 0 0 0-2.132-.064 2.4 2.4 0 0 1-.414-.159.86.86 0 0 1-.286-.318 5 5 0 0 1-.095-.668.77.77 0 0 1 .191-.605q.413-.381.795-.827.413-.446.35-1.082a56 56 0 0 0-.286-1.686 12.5 12.5 0 0 0-.35-1.591.56.56 0 0 0-.255-.159l-.254-.128a5.5 5.5 0 0 0-1.019.032 6 6 0 0 1-1.05-.032q-.254.032-.541.096-.254.031-.413.382a8 8 0 0 0-.255.986 4.2 4.2 0 0 1-.318.955 5 5 0 0 0-.159 1.304q.031.732.541 1.177.923.573.795 1.528.096.254-.191.477-.445.255-.986.191a4 4 0 0 0-1.018 0 2.1 2.1 0 0 1-.955.032 2.1 2.1 0 0 0-.954.095 2 2 0 0 1-.446-.159.86.86 0 0 1-.286-.318 1.02 1.02 0 0 1-.127-.796q.127-.446.382-.731l.445-.382q.255-.191.382-.446 0-.604.223-1.05.222-.445.286-.986.159-.573.286-1.146.159-.572.318-1.209.128-.858.223-1.718a7.8 7.8 0 0 1 .446-1.718 5.4 5.4 0 0 1 .35-1.782 5.5 5.5 0 0 0 .413-1.782q.255-.827.382-1.622.159-.796.414-1.591.095-.51.254-1.05a1.8 1.8 0 0 0-.032-1.114q.064-.54.382-.732.35-.16.7-.095zm-.35 7.446a.5.5 0 0 0-.064-.223q-.063-.159-.19 0-.192.732-.382 1.432-.159.7-.318 1.432v.318q0 .159.159.223.668.19 1.463.127.159-.064.159-.223a.8.8 0 0 0 0-.318 6.3 6.3 0 0 1-.413-1.4 5.7 5.7 0 0 0-.414-1.368m17.761-7.732q.573.064 1.209.127.668.032 1.273-.127.19.032.413.032.224 0 .414.032a.77.77 0 0 1 .382.159q.19.095.286.35a.6.6 0 0 1 .096.318 1 1 0 0 1 0 .35 1.7 1.7 0 0 0-.032.35q0 .19.063.35-.094.35-.063.732a9 9 0 0 1 .032.732q.032.35 0 .7a1.4 1.4 0 0 1-.255.668q-.477.382-1.145.223a.88.88 0 0 1-.605-.446 7 7 0 0 1-.318-.732 1.6 1.6 0 0 1-.287-.413 4 4 0 0 0-.254-.446.77.77 0 0 0-.318-.318q-.16-.127-.446-.032a.4.4 0 0 0-.191.287v.318q.033 1.05 0 2.068a21 21 0 0 0 .032 2.004q.064.605-.063 1.146-.128.508.031 1.05 0 .636-.095 1.177-.096.541.064 1.082a2.9 2.9 0 0 0-.128.859q0 .446.032.923.031.445 0 .891 0 .445-.127.891.159.317.159.668.032.381.032.763t.032.732q.063.382.286.7a.95.95 0 0 0 .318.255q.19.095.35.191.19.095.318.222a.7.7 0 0 1 .223.382q.096.859-.605 1.337a2.9 2.9 0 0 1-1.145.095 5.5 5.5 0 0 0-1.177 0q-1.114 0-2.259.032-1.114.063-2.228 0-.636-.064-.859-.7a2 2 0 0 1 0-.7q.065-.35.318-.605a4 4 0 0 0 .732-.445.81.81 0 0 0 .414-.732q.032-.382-.032-.795a3 3 0 0 1 .032-.764 2.6 2.6 0 0 0 .064-.795q0-.414-.064-.796-.032-.414-.064-.795 0-.414.064-.828 0-.731.064-1.463a5.9 5.9 0 0 0-.064-1.496 1.6 1.6 0 0 0 0-.636 3 3 0 0 1 0-.605 16 16 0 0 1 0-2.036q.096-1.018.032-2.068v-1.559a.3.3 0 0 0-.128-.159 1.3 1.3 0 0 0-.159-.096q-.381.096-.636.318a2.1 2.1 0 0 0-.382.541q-.128.287-.254.605a3 3 0 0 1-.255.604.98.98 0 0 1-.668.414 1.4 1.4 0 0 1-.732-.064q-.573-.254-.636-.827a11 11 0 0 1-.064-1.177 8.6 8.6 0 0 0-.032-1.273q-.064-.668.128-1.241a.94.94 0 0 1 .445-.382q.255-.095.573-.063.318 0 .604.063.318.032.605-.031a9 9 0 0 1 1.304-.032q.669 0 1.305-.064a16 16 0 0 1 2.004 0 33 33 0 0 0 2.037 0m13.948.573q.159.286.159.668a.93.93 0 0 1-.223.636.97.97 0 0 1-.414.287 6 6 0 0 0-.509.222 1.4 1.4 0 0 0-.382.319q-.126.158-.095.509a6 6 0 0 1 .032 1.845 6.3 6.3 0 0 0 .063 1.782q.064 1.495.032 3.118a53 53 0 0 0 .032 3.182 37 37 0 0 0-.064 2.164q0 1.082.032 2.163.032.446.382.732.35.318.732.477.255.192.286.478.064.286.032.636a2.5 2.5 0 0 1-.095.382.48.48 0 0 1-.287.286 3.07 3.07 0 0 1-1.591.223 8.4 8.4 0 0 0-1.622-.032 5.6 5.6 0 0 1-1.687 0 15 15 0 0 0-1.686-.095q-.255.031-.573.063a.56.56 0 0 1-.541-.159 1.12 1.12 0 0 1-.286-.668 1.44 1.44 0 0 1 .095-.668.87.87 0 0 1 .319-.477q.253-.127.477-.255.255-.095.445-.255.192-.158.223-.509-.032-1.463-.032-2.927a26 26 0 0 1 .223-2.927q-.032-.446-.064-.923a5 5 0 0 1 .032-.954q0-.923.064-1.878.095-.954.032-1.877a7 7 0 0 1-.16-1.495q.032-.796.096-1.528a1.4 1.4 0 0 0-.446-.763 1.3 1.3 0 0 0-.763-.382q-.287-.223-.35-.509a1.4 1.4 0 0 1 0-.605q.159-.35.477-.445.35-.127.7-.159 1.178.063 2.355-.032 1.209-.096 2.322.032.255-.032.573-.096.318-.063.605-.063.318 0 .572.127a.97.97 0 0 1 .478.35m8.848-.35q.35 0 .636.127.318.128.509.414.096.222.128.477.063.222-.096.445a.9.9 0 0 1-.318.414l-.446.255a2.4 2.4 0 0 0-.445.254q-.19.127-.255.414 0 .795.287 1.463.286.669.445 1.432.192.541.287 1.114t.413 1.082q.128.7.35 1.336.255.636.382 1.368.096.191.127.446.033.222.287.286.318-.35.318-.795 0-.478.064-.987.381-1.272.668-2.545.318-1.304.668-2.546 0-.254.064-.572.095-.318.095-.605.032-.318-.064-.573-.095-.254-.413-.413a2.4 2.4 0 0 1-.668-.382 1 1 0 0 1-.382-.636q0-.351.095-.669a.88.88 0 0 1 .477-.477 10.4 10.4 0 0 1 1.655-.191 15 15 0 0 1 1.686-.032q.51.064 1.05.064.542 0 .828.509.063.446.031.923a1 1 0 0 1-.381.732 2.3 2.3 0 0 0-.955.954 4.8 4.8 0 0 0-.414 1.209 8.2 8.2 0 0 0-.668 1.909 22 22 0 0 1-.477 1.973q-.255.636-.318 1.4-.064.732-.414 1.273a6.5 6.5 0 0 1-.604 1.909 8 8 0 0 0-.605 1.877 49 49 0 0 1-.35 1.718 15 15 0 0 1-.414 1.719q0 .446-.19.795a5 5 0 0 1-.382.732l-.128.318a.29.29 0 0 1-.19.223 2 2 0 0 1-.732.191 2.3 2.3 0 0 1-.764 0q-.35 0-.7-.064-.318-.063-.477-.414a2.3 2.3 0 0 1-.35-1.018q-.032-.54-.35-1.018a3 3 0 0 1-.287-.795 2.2 2.2 0 0 0-.318-.828 3.4 3.4 0 0 0-.286-1.209 3.5 3.5 0 0 1-.286-1.273 1.8 1.8 0 0 1-.319-.636l-.127-.7a8 8 0 0 0-.095-.732 1.6 1.6 0 0 0-.223-.668 2 2 0 0 1-.318-.827 1.9 1.9 0 0 0-.287-.891 4 4 0 0 0-.159-.891 6 6 0 0 0-.254-.859 13 13 0 0 0-.287-.827 14 14 0 0 1-.222-.891 14 14 0 0 0-.446-1.4q-.255-.7-.509-1.432a1.9 1.9 0 0 0-.477-.446l-.509-.445a2.1 2.1 0 0 1-.35-.541q-.128-.286-.032-.7.063-.255.223-.509a.8.8 0 0 1 .445-.318 15 15 0 0 1 1.941-.064q1.018 0 1.941.096a2.7 2.7 0 0 1 1.304-.064q.7.096 1.337.032m21.592-.223q.35 0 .669.064.317.031.509.382l.095.318q0 1.018.032 2.036a10.8 10.8 0 0 1-.127 2.005.7.7 0 0 1-.382.35 1.2 1.2 0 0 1-.477.095q-.445 0-.891-.032a1.1 1.1 0 0 1-.764-.382 7 7 0 0 1-.382-.572 5 5 0 0 0-.413-.637 3 3 0 0 0-.478-.541 1.5 1.5 0 0 0-.636-.318 33 33 0 0 0-.668-.191.75.75 0 0 0-.668.064l-.128.191q.032 1.082-.063 2.195a8.9 8.9 0 0 0 .063 2.132l-.095 1.305.159.159a.5.5 0 0 0 .223.127q.445-.064.827-.223.413-.19.668-.541.127-.222.223-.477.128-.286.254-.509.127-.255.319-.445.19-.192.541-.223.285 0 .572.064.287.031.446.381.127.541.095 1.019-.031.477.096 1.018a4.1 4.1 0 0 0-.096 1.336q.096.669.064 1.336.095.414.063.796a9 9 0 0 0-.031.795.58.58 0 0 1-.255.414 1.5 1.5 0 0 1-.414.191 2.3 2.3 0 0 1-.859-.032q-.381-.127-.636-.573a1.1 1.1 0 0 1-.223-.413q-.063-.255-.127-.478a1.1 1.1 0 0 0-.223-.445.94.94 0 0 0-.413-.318 1.2 1.2 0 0 1-.255-.096.7.7 0 0 0-.286-.127.44.44 0 0 0-.287-.032q-.127 0-.254.159a2.2 2.2 0 0 0-.223.828q-.032.413-.032.859.032.446.032.891.031.445-.095.859.095.827.095 1.686 0 .86.35 1.591l.255.255q.127.159.286.19.827 0 1.464-.636.636-.604.891-1.336a1.25 1.25 0 0 0 .286-.446q.096-.254.159-.509.096-.222.223-.445.159-.223.477-.35.382-.223.891-.191.54 0 .923.286.318.255.381.573.065.35 0 .7a4 4 0 0 1-.127.732 3 3 0 0 0-.032.732q0 .54-.127 1.081a3.6 3.6 0 0 0-.064 1.178l-.127.381a.48.48 0 0 1-.286.319 2.7 2.7 0 0 1-1.177.127q-.605-.064-1.146-.127-.827.064-1.654.031-.828-.032-1.655.064a3.5 3.5 0 0 1-1.177-.127q-.51-.127-1.114.032a5.6 5.6 0 0 0-1.877 0 1.1 1.1 0 0 1-.637.127 8 8 0 0 0-.7-.032h-.795q-.414 0-.636-.445-.16-.255-.128-.669.064-.381.223-.636.127-.19.318-.318.224-.127.414-.255.19-.095.35-.254a.7.7 0 0 0 .223-.382 8 8 0 0 0 0-1.432 5.2 5.2 0 0 1 .127-1.4l-.127-1.432a11 11 0 0 1 .031-1.431q0-3.118.096-6.141a10 10 0 0 1-.064-1.146q.032-.573.128-1.145a9 9 0 0 1-.16-.796q-.063-.445-.54-.604a2.4 2.4 0 0 1-.446-.255 1.4 1.4 0 0 1-.318-.382 1.1 1.1 0 0 1-.032-.572q.096-.287.255-.509a.72.72 0 0 1 .413-.223q.255-.064.509-.064.287-.032.541-.032.255-.031.478-.127a22 22 0 0 0 1.654 0 9 9 0 0 1 1.686.032 4.8 4.8 0 0 1 1.464-.032 7 7 0 0 0 1.496-.032 18 18 0 0 0 1.495.064q.732-.032 1.495-.032M196.682 143.95l.954.064q.51.032.796.509.095.223.095.541a.6.6 0 0 1-.127.477 1.7 1.7 0 0 1-.35.318 4 4 0 0 0-.382.223 2.3 2.3 0 0 0-.35.286.7.7 0 0 0-.191.414q-.031.7-.127 1.368-.064.637.032 1.336.127.51.063 1.05-.031.51.128 1.019.095.159.222.031.733-.858 1.273-1.75.541-.922 1.241-1.813.064-.159.191-.318a4 4 0 0 0 .223-.382.86.86 0 0 0 .095-.382.9.9 0 0 0-.127-.446 7 7 0 0 0-.414-.381l-.35-.414a1.4 1.4 0 0 1-.222-.477.95.95 0 0 1 .031-.541.9.9 0 0 1 .223-.382.75.75 0 0 1 .446-.223q.922.032 1.877.032a27 27 0 0 0 1.877-.127q.287.031.573 0 .318-.031.604 0 .287 0 .509.127.255.096.414.382.096.255.127.541a.7.7 0 0 1-.127.509q-.477.445-1.114.7-.605.223-1.05.795-.413.637-.859 1.241-.413.573-.859 1.209a5 5 0 0 1-.827 1.178q-.509.54-.668 1.209 0 .477.223.827.222.35.381.764.446.636.669 1.4.254.732.7 1.336.063.445.254.859.19.414.414.796.254.381.477.795.255.383.445.795l.446.891q.254.445.668.796.16.35.446.541.317.19.509.541.19.159.445.286t.286.414q.064.286.032.572a.7.7 0 0 1-.286.509 2 2 0 0 1-.764.287 5.5 5.5 0 0 1-.827.063q-.414 0-.859-.031-.414 0-.827.095a3.6 3.6 0 0 0-.7-.064 4 4 0 0 1-.732 0q-.35 0-.637-.127-.286-.128-.477-.477a12 12 0 0 1-.763-1.559q-.319-.764-.669-1.591a15 15 0 0 1-1.018-1.782 9.3 9.3 0 0 0-1.018-1.782q-.096-.127-.159-.032a1 1 0 0 1-.064.16 4.5 4.5 0 0 0-.095 1.59 4.6 4.6 0 0 1-.032 1.623q.032.446.032.923t.445.764q.128.159.318.254.224.096.414.223t.318.286a.68.68 0 0 1 .159.446q.096.699-.509 1.05a3.3 3.3 0 0 1-.891.127 6 6 0 0 1-.891 0q-.445-.032-.922-.064-.445 0-.891.032a12 12 0 0 0-1.75 0 12 12 0 0 1-1.782 0 4 4 0 0 1-.35-.159.6.6 0 0 1-.286-.318.93.93 0 0 1-.096-.637q.096-.35.255-.572a.9.9 0 0 1 .35-.35q.222-.127.413-.255.191-.095.35-.254a.87.87 0 0 0 .223-.414q0-.636.032-1.305a4.3 4.3 0 0 0-.064-1.272 8.6 8.6 0 0 1-.032-1.273q.033-.637 0-1.336.096-.51.064-1.082v-1.114a41 41 0 0 1-.095-1.559q0-.795.063-1.527.064-1.05-.032-2.037a16 16 0 0 1 0-2.004q-.063-.383-.318-.573a2 2 0 0 0-.509-.318 3 3 0 0 1-.509-.35q-.222-.222-.223-.605-.031-.286.032-.54a.8.8 0 0 1 .35-.446.97.97 0 0 1 .764-.127q.413.064.827-.032a12 12 0 0 0 1.209 0 5 5 0 0 1 1.241.032q.445-.159.955-.096.54.064 1.018.064m19.85.382q.159.286.159.668a.93.93 0 0 1-.223.636.97.97 0 0 1-.414.287 6 6 0 0 0-.509.222 1.4 1.4 0 0 0-.382.319q-.126.159-.095.509a6 6 0 0 1 .032 1.845 6.3 6.3 0 0 0 .063 1.782q.064 1.495.032 3.118a53 53 0 0 0 .032 3.182 37 37 0 0 0-.064 2.164q0 1.082.032 2.163.032.446.382.732.35.318.732.477.255.192.286.478.064.286.032.636a2.5 2.5 0 0 1-.095.382.48.48 0 0 1-.287.286 3.07 3.07 0 0 1-1.591.223 8.4 8.4 0 0 0-1.622-.032 5.6 5.6 0 0 1-1.687 0 15 15 0 0 0-1.686-.095q-.255.031-.573.063a.56.56 0 0 1-.541-.159 1.12 1.12 0 0 1-.286-.668 1.44 1.44 0 0 1 .095-.668.87.87 0 0 1 .319-.477q.254-.127.477-.255.255-.095.445-.255.192-.158.223-.509-.032-1.463-.032-2.927a26 26 0 0 1 .223-2.927q-.032-.446-.064-.923a5 5 0 0 1 .032-.954q0-.923.064-1.878.095-.954.032-1.877a7 7 0 0 1-.16-1.495q.032-.796.096-1.528a1.4 1.4 0 0 0-.446-.763 1.3 1.3 0 0 0-.763-.382q-.287-.223-.35-.509a1.4 1.4 0 0 1 0-.605q.159-.35.477-.445.35-.127.7-.159 1.178.063 2.355-.032 1.209-.096 2.322.032.255-.032.573-.096.318-.063.605-.063.318 0 .572.127a.97.97 0 0 1 .478.35m10.598-.573q.573.064 1.209.127.668.032 1.273-.127.19.032.413.032.224 0 .414.032a.77.77 0 0 1 .382.159q.19.095.286.35a.6.6 0 0 1 .096.318 1 1 0 0 1 0 .35 1.7 1.7 0 0 0-.032.35q0 .19.063.35a2.1 2.1 0 0 0-.063.732 9 9 0 0 1 .032.732q.032.35 0 .7a1.4 1.4 0 0 1-.255.668q-.477.382-1.145.223a.88.88 0 0 1-.605-.446 7 7 0 0 1-.318-.732 1.6 1.6 0 0 1-.287-.413 4 4 0 0 0-.254-.446.77.77 0 0 0-.318-.318q-.16-.127-.446-.032a.4.4 0 0 0-.191.287v.318q.033 1.05 0 2.068a21 21 0 0 0 .032 2.004q.064.605-.063 1.146-.128.508.031 1.05 0 .637-.095 1.177-.096.541.064 1.082a2.9 2.9 0 0 0-.128.859q0 .446.032.923.031.446 0 .891 0 .445-.127.891.159.317.159.668.032.381.032.763t.032.732q.063.382.286.7a.95.95 0 0 0 .318.255q.19.095.35.191.19.095.318.222a.7.7 0 0 1 .223.382q.096.859-.605 1.337a2.9 2.9 0 0 1-1.145.095 5.5 5.5 0 0 0-1.177 0q-1.115 0-2.259.032-1.114.063-2.228 0-.636-.064-.859-.7a2 2 0 0 1 0-.7q.065-.35.318-.605a4 4 0 0 0 .732-.445.81.81 0 0 0 .414-.732q.032-.382-.032-.795a3 3 0 0 1 .032-.764q.096-.414.064-.795 0-.414-.064-.796-.032-.414-.064-.795 0-.414.064-.828 0-.731.064-1.463a5.9 5.9 0 0 0-.064-1.496 1.6 1.6 0 0 0 0-.636 3 3 0 0 1 0-.605 16 16 0 0 1 0-2.036q.095-1.018.032-2.068v-1.559a.3.3 0 0 0-.128-.159 1.3 1.3 0 0 0-.159-.096q-.381.096-.636.318a2.1 2.1 0 0 0-.382.541q-.128.287-.254.605a3 3 0 0 1-.255.604.98.98 0 0 1-.668.414 1.4 1.4 0 0 1-.732-.064q-.573-.254-.636-.827a11 11 0 0 1-.064-1.177 8.6 8.6 0 0 0-.032-1.273q-.063-.668.128-1.241a.94.94 0 0 1 .445-.382q.255-.094.573-.063.318 0 .604.063.318.032.605-.031a9 9 0 0 1 1.304-.032q.669 0 1.305-.064a16 16 0 0 1 2.004 0 33 33 0 0 0 2.037 0m17.257.35a.8.8 0 0 1 .382.159q.19.096.413.159.35.191.637.509.318.287.477.7.095.987 0 1.973l-.127 1.941q-.064.127-.128.286a.4.4 0 0 1-.222.191 1.8 1.8 0 0 1-.764.096.98.98 0 0 1-.636-.287 2.7 2.7 0 0 1-.637-1.463 10 10 0 0 0-.668-1.496q-.414-.764-1.273-1.05a1.63 1.63 0 0 0-.859-.095 1.27 1.27 0 0 0-.795.318l-.541.7a3.8 3.8 0 0 1-.159.859q-.096.414-.223.827-.095.382-.191.796a4 4 0 0 0-.032.859q.032.7-.127 1.336a3.1 3.1 0 0 0-.064 1.241q0 1.145-.031 2.291-.033 1.114.095 2.227.031 1.05.223 2.005.19.954.413 1.941.192.477.637.891.445.445.954.509 1.05 0 1.655-.859.254-.669.573-1.273.35-.573.445-1.305.096-.222.159-.477.096-.255.191-.445.127-.223.318-.35.19-.159.509-.159.382 0 .764.031.414 0 .604.414.16.541.096 1.146t.127 1.145a2.6 2.6 0 0 0-.032.891q.064.477.064.923.031.445-.095.827-.128.382-.605.636a5 5 0 0 1-1.845.732 56 56 0 0 1-2.005.414 3.7 3.7 0 0 0-1.082.032q-.54.095-1.082-.064a3 3 0 0 0-.763-.286 10.124 10.124 0 0 1-1.528-.382 2.3 2.3 0 0 1-.7-.382 18 18 0 0 1-1.336-1.146 4 4 0 0 1-.986-1.336 4.6 4.6 0 0 1-.764-1.623 51 51 0 0 0-.477-1.718 25 25 0 0 0-.318-2.513 9.4 9.4 0 0 1-.096-2.578 9 9 0 0 1 .255-1.559q.222-.764.35-1.559a1.7 1.7 0 0 1 .159-.35q.095-.16.223-.35.063-.668.381-1.241.318-.604.605-1.177a5.5 5.5 0 0 1 1.05-1.177q.605-.541 1.241-.987.54-.16 1.018-.413a2.5 2.5 0 0 1 1.018-.35 10 10 0 0 0 1.082-.191 2.6 2.6 0 0 1 1.145 0l1.528.127q.763.063 1.4.509m19.906-.223q.636.096.955.541.19.318.127.7a1.44 1.44 0 0 1-.286.637q-.35.254-.764.509-.414.254-.445.795-.064.255-.032.573.032.286.032.541a13.3 13.3 0 0 0 0 2.259q.095 1.113.031 2.227a.86.86 0 0 0-.095.605q.063.318.095.636.032.954-.063 1.941a7.7 7.7 0 0 0 .063 1.973q-.032.923-.095 1.845-.032.923.127 1.814a.74.74 0 0 0 .287.477q.223.19.445.318.255.159.414.318.19.192.191.541.032.287 0 .573a.78.78 0 0 1-.223.477.5.5 0 0 1-.318.191 1.3 1.3 0 0 1-.414.064 159 159 0 0 0-3.15-.032h-3.086a.86.86 0 0 1-.478-.286.73.73 0 0 1-.191-.478 1.8 1.8 0 0 1 .032-.763q.096-.318.446-.573.668-.414.827-1.05a60 60 0 0 0-.159-1.973 8.8 8.8 0 0 1 .095-1.972.9.9 0 0 0 .032-.414 4 4 0 0 1-.032-.445q0-.351-.031-.669a.53.53 0 0 0-.319-.509 2.8 2.8 0 0 0-1.05-.127 4.5 4.5 0 0 1-1.081-.064q-.192.033-.35.064-.16 0-.287.159a1.2 1.2 0 0 0-.159.891q.096.477.064.955.031.986 0 1.972 0 .987-.064 2.005.064.446.318.827.287.413.7.605.414.477.318 1.145a1.2 1.2 0 0 1-.381.509 3.7 3.7 0 0 1-1.528.127 7.4 7.4 0 0 0-1.527-.031 7.7 7.7 0 0 1-1.845.095 13.5 13.5 0 0 0-1.846 0 2.5 2.5 0 0 1-.509-.191q-.223-.095-.286-.382a2.7 2.7 0 0 0-.128-.572.64.64 0 0 1 .096-.509q.159-.192.414-.319.253-.095.477-.222.222-.127.382-.319.159-.19.159-.509v-.604q.031-1.273-.032-2.609-.032-1.368.064-2.673a6.7 6.7 0 0 1-.032-1.464 6.8 6.8 0 0 0 .032-1.463 4 4 0 0 1 .031-.891 1.8 1.8 0 0 0-.031-.891q.094-.255.063-.477a3 3 0 0 0-.095-.478l-.064-.445q0-.254.096-.509a12 12 0 0 1 0-1.241 4.2 4.2 0 0 0-.128-1.241.9.9 0 0 0-.382-.318 4 4 0 0 0-.445-.223 4 4 0 0 1-.382-.223q-.159-.159-.191-.477 0-.35.064-.636.096-.287.445-.446a7.1 7.1 0 0 1 2.132-.127q1.114.096 2.164 0 .636.063 1.273 0 .667-.064 1.336.032a.85.85 0 0 1 .445.286.7.7 0 0 1 .255.446q.031.35-.096.7-.095.318-.445.572-.541.286-.7.796a4 4 0 0 0-.127 1.05q0 .573.032 1.177.063.573-.064 1.05.064.636-.032 1.241a6 6 0 0 0 0 1.209q.096.255.318.286.223 0 .446.032l1.972-.127q.192-.063.35-.159a.34.34 0 0 0 .16-.35q.032-.954-.064-1.877a14 14 0 0 1 0-1.878q.063-.572.032-1.241 0-.699-.573-1.05a4 4 0 0 1-.477-.35.76.76 0 0 1-.191-.509 2.6 2.6 0 0 1 .032-.7.78.78 0 0 1 .381-.572.56.56 0 0 1 .478-.096q.286.031.541-.063 1.431 0 2.768.063 1.337.064 2.736-.032m14.527-.127q.351 0 .669.064.317.031.509.382l.095.318q0 1.018.032 2.036a10.8 10.8 0 0 1-.127 2.005.7.7 0 0 1-.382.35 1.2 1.2 0 0 1-.477.095q-.446 0-.891-.032a1.1 1.1 0 0 1-.764-.382 7 7 0 0 1-.382-.572 5 5 0 0 0-.413-.637 3 3 0 0 0-.478-.541 1.5 1.5 0 0 0-.636-.318 33 33 0 0 0-.668-.191.75.75 0 0 0-.668.064l-.128.191q.032 1.082-.063 2.195a8.9 8.9 0 0 0 .063 2.132l-.095 1.305.159.159a.5.5 0 0 0 .223.127q.445-.064.827-.223.413-.19.668-.541.127-.222.223-.477.128-.286.254-.509.127-.255.319-.445.19-.192.541-.223.285 0 .572.064.287.031.446.381.127.541.095 1.019-.031.477.096 1.018a4.1 4.1 0 0 0-.096 1.336q.096.669.064 1.336.095.414.063.796a9 9 0 0 0-.031.795.58.58 0 0 1-.255.414 1.5 1.5 0 0 1-.414.191 2.3 2.3 0 0 1-.859-.032q-.381-.127-.636-.573a1.1 1.1 0 0 1-.223-.413q-.063-.255-.127-.478a1.1 1.1 0 0 0-.223-.445.94.94 0 0 0-.413-.318 1.2 1.2 0 0 1-.255-.096.7.7 0 0 0-.286-.127.44.44 0 0 0-.287-.032q-.126 0-.254.159a2.2 2.2 0 0 0-.223.828q-.032.413-.032.859.032.446.032.891.031.445-.095.859.095.826.095 1.686t.35 1.591l.255.255q.127.159.286.19.827 0 1.464-.636.636-.604.891-1.336a1.25 1.25 0 0 0 .286-.446q.096-.254.159-.509.096-.222.223-.445.159-.223.477-.35.383-.223.891-.191.541 0 .923.286.318.255.381.573.065.35 0 .7a4 4 0 0 1-.127.732 3 3 0 0 0-.032.732q0 .54-.127 1.081a3.6 3.6 0 0 0-.064 1.178l-.127.381a.48.48 0 0 1-.286.319 2.7 2.7 0 0 1-1.177.127q-.605-.064-1.146-.127-.827.064-1.654.031-.828-.032-1.655.064a3.5 3.5 0 0 1-1.177-.127q-.51-.127-1.114.032a5.6 5.6 0 0 0-1.877 0 1.1 1.1 0 0 1-.637.127 8 8 0 0 0-.7-.032h-.795q-.414 0-.636-.445-.16-.255-.128-.669.064-.381.223-.636.127-.19.318-.318.224-.127.414-.255.19-.095.35-.254a.7.7 0 0 0 .223-.382 8 8 0 0 0 0-1.432 5.2 5.2 0 0 1 .127-1.4l-.127-1.432a11 11 0 0 1 .031-1.431q0-3.119.096-6.141a10 10 0 0 1-.064-1.146q.032-.573.128-1.145a9 9 0 0 1-.16-.796q-.063-.445-.54-.604a2.4 2.4 0 0 1-.446-.255 1.4 1.4 0 0 1-.318-.382 1.1 1.1 0 0 1-.032-.572q.096-.287.255-.509a.72.72 0 0 1 .413-.223q.255-.064.509-.064.287-.032.541-.032.255-.031.478-.127a22 22 0 0 0 1.654 0 9 9 0 0 1 1.686.032 4.8 4.8 0 0 1 1.464-.032 7 7 0 0 0 1.496-.032 18 18 0 0 0 1.495.064q.732-.032 1.495-.032m9.731.859q.159.35.477.668.35.286.446.732.032.287.254.573.255.255.35.541a5 5 0 0 0 1.05 1.527q.224.35.35.732l.255.7q.16.35.35.668.222.318.573.605.318.604.604 1.177.318.573.827 1.05.128.032.223-.127.064-.891.096-1.782a8.2 8.2 0 0 0-.128-1.782 3.9 3.9 0 0 1 0-.986q.064-.541.032-1.019a2.2 2.2 0 0 0-.191-.922q-.159-.446-.7-.7a10 10 0 0 1-.732-.446 1.08 1.08 0 0 1-.445-.732q0-.286.095-.54.096-.286.35-.51.351-.094.669-.063.35 0 .668.063.35.032.668.032.35 0 .7-.095.573.063 1.177.032.637-.064 1.114.191.35.19.414.477.095.287.031.636-.095.35-.35.509-.222.127-.477.255-.255.127-.477.286-.223.16-.287.509a5.3 5.3 0 0 0-.127 1.146v1.177q.032.573.032 1.177 0 .573-.095 1.146.159.858.031 1.75a9 9 0 0 0-.031 1.686l.095 1.05q-.063 1.177 0 2.386a15 15 0 0 1-.064 2.387q.064.604-.031 1.177-.064.604.095 1.146 0 .38-.127.7-.096.317-.446.509a1.8 1.8 0 0 1-.763.031 1.3 1.3 0 0 1-.732-.318l-.255-.509a3 3 0 0 0-.254-.509 21 21 0 0 0-.859-1.336l-.891-1.273a9 9 0 0 0-1.018-1.591 8 8 0 0 1-.955-1.654 10.7 10.7 0 0 1-1.273-2.1 9.6 9.6 0 0 0-1.241-2.1 5 5 0 0 1-.381-.637 2.2 2.2 0 0 0-.414-.573q-.255.065-.223.255a.64.64 0 0 1-.032.35q.127.987.096 2.036-.032 1.05-.127 2.069a85 85 0 0 0-.032 2.386q0 1.209.095 2.386.16.35.35.7a.77.77 0 0 0 .573.414l.445.127q.223.095.382.35.127.286.159.637a.69.69 0 0 1-.191.636 1.23 1.23 0 0 1-.604.286 3.4 3.4 0 0 1-.668.064 8 8 0 0 1-.7-.032 3.6 3.6 0 0 0-.669 0 2 2 0 0 1-.795.032 4.6 4.6 0 0 0-.764 0 13 13 0 0 1-.859-.096.99.99 0 0 1-.668-.413 1.34 1.34 0 0 1-.095-.668 1.16 1.16 0 0 1 .222-.605q.287-.255.605-.382a.86.86 0 0 0 .541-.445q.255-.382.286-.859.031-.478.096-.955a4.6 4.6 0 0 1-.032-1.623 5.4 5.4 0 0 0 0-1.654 20.4 20.4 0 0 1 0-3.596 21 21 0 0 1-.064-1.622q0-.796.064-1.591a3.4 3.4 0 0 1-.064-.923q.064-.446.064-.954-.064-.733-.414-1.273a4.2 4.2 0 0 0-.891-1.082.8.8 0 0 0-.191-.318.77.77 0 0 1-.159-.35q.065-.255.159-.509a.67.67 0 0 1 .414-.414 3.5 3.5 0 0 1 1.273-.159q.732.032 1.368.095.287 0 .573-.031.318-.065.636-.096t.605.032q.286.031.54.255z"/><defs><clipPath id="a"><path fill="#fff" d="M129 118h39v39h-39z"/></clipPath><clipPath id="b"><path fill="#fff" d="M74.05 59.905 269 71.037l-2.138 37.429L71.914 97.334z"/></clipPath></defs></svg>