<svg xmlns="http://www.w3.org/2000/svg" width="509" height="155" fill="none"><path fill="#000" d="M71.165 154.13c-35.571 0-58.575-20.235-58.575-58.575h22.152c0 25.134 13.632 39.192 36.423 39.192 22.79 0 36.636-14.058 36.636-40.683V2.9h22.152v92.655c0 38.34-23.43 58.575-58.788 58.575m132.509 0c-35.571 0-58.575-20.235-58.575-58.575V2.9h22.152v91.164c0 26.412 13.632 40.683 36.423 40.683s36.423-14.271 36.423-40.683V2.9h22.365v92.655c0 38.34-23.43 58.575-58.788 58.575m129.527 0c-37.488 0-58.788-18.531-58.788-47.286h22.578c.852 15.975 11.502 28.542 36.423 28.542 22.152 0 33.441-9.798 33.441-25.134 0-14.697-10.65-20.874-26.625-24.069l-20.235-4.047c-25.134-4.899-41.322-17.04-41.322-40.257 0-25.347 19.596-40.896 52.611-40.896s54.528 15.549 54.528 41.535h-22.578c-.213-13.632-11.715-22.791-31.737-22.791-21.513 0-29.82 10.65-29.82 22.578 0 10.65 6.39 19.17 23.856 22.578l19.383 3.834c29.607 5.751 45.156 17.466 45.156 41.322 0 28.968-22.791 44.091-56.871 44.091M435.17 152V22.283h-45.795V2.9h113.742v19.383h-45.795V152z"/><g clip-path="url(#a)"><path fill="#000" d="m64.811 135.315-.936-3.779-1.8-7.255-1.578-6.359-1.896-7.615-1.59-6.392-1.85-7.456-1.59-6.36-1.77-7.122-1.578-6.37-1.823-7.329-1.589-6.359-1.992-8.045-1.579-6.359-2.48-9.947v-.01l-.114-.472 10.32-2.231.108.45.772 3.217 1.578 6.614 1.919 7.986 1.618 6.767 1.714 7.139 1.635 6.846 1.646 6.847 1.658 6.906 1.617 6.756 1.635 6.842 1.726 7.213 1.618 6.73 1.55 6.47 1.646 6.858.477 1.987.783 3.27c-1.237.599-3.202.996-5.438 1.023h-.273c-1.527 0-2.934-.17-4.087-.461"/><path fill="#000" d="M63.983 135.225c-.846-3.397-1.686-6.794-2.532-10.197-.67-2.697-1.334-5.394-2.01-8.092q-1.293-5.182-2.577-10.366c-.823-3.312-1.64-6.618-2.464-9.93-.692-2.804-1.396-5.602-2.094-8.406-.88-3.534-1.754-7.07-2.634-10.604q-1.055-4.267-2.118-8.527c-.8-3.222-1.606-6.438-2.407-9.66-.857-3.45-1.708-6.895-2.565-10.345s-1.635-6.56-2.453-9.841c-.102-.424-.21-.843-.312-1.267-.045-.196.154-.307.324-.344 3.44-.742 6.88-1.49 10.32-2.231.403-.085 1.215.069 1.322.525.795 3.365 1.607 6.724 2.413 10.084.687 2.873 1.38 5.74 2.066 8.607.835 3.497 1.675 6.995 2.51 10.493.783 3.264 1.56 6.528 2.344 9.793.71 2.973 1.43 5.946 2.14 8.919q1.285 5.348 2.56 10.705c.664 2.782 1.334 5.564 1.998 8.352.84 3.503 1.675 7.011 2.515 10.514a5637 5637 0 0 1 2.237 9.332c.743 3.111 1.51 6.301 2.264 9.449.21.885.426 1.775.636 2.66.029.128-.057.244-.176.297-3.116 1.447-7.26 1.383-10.564.588-.255-.063-.8-.286-.704-.614.097-.329.698-.265.942-.207 2.81.678 6.381.694 9.026-.535l-.176.296c-.806-3.354-1.606-6.709-2.412-10.069-.698-2.904-1.391-5.808-2.09-8.712q-1.218-5.071-2.429-10.143c-.806-3.381-1.623-6.804-2.44-10.207q-1.021-4.286-2.05-8.564-1.287-5.382-2.583-10.757c-.681-2.846-1.357-5.692-2.043-8.538-.824-3.418-1.64-6.841-2.458-10.265-.818-3.423-1.67-6.98-2.51-10.466-.703-2.936-1.401-5.877-2.105-8.813-.193-.79-.38-1.585-.568-2.374l1.323.524c-3.44.742-6.88 1.49-10.32 2.231l.323-.344c.834 3.376 1.68 6.751 2.52 10.132q1.003 4.03 1.999 8.06 1.296 5.232 2.6 10.462c.811 3.243 1.612 6.487 2.418 9.73.704 2.835 1.402 5.67 2.111 8.51.88 3.546 1.766 7.086 2.651 10.631.704 2.82 1.403 5.644 2.1 8.464.818 3.28 1.63 6.566 2.447 9.846s1.675 6.735 2.51 10.101c.726 2.925 1.447 5.845 2.173 8.77l.625 2.523c.148.604-1.51.376-1.646-.18z"/><path fill="#F89A1C" d="m51.846 39.522 1.578 6.614s-.397 7.096-8.605 8.738l-1.579-6.359s6.574-2.22 8.606-8.993m3.497 14.6c.028-.064.051-.138.068-.207l1.59 6.625s-.012.127-.04.355c-.205 1.446-1.453 6.958-8.555 8.383h-.011l-1.578-6.359s6.448-2.178 8.526-8.792zm-5.12 22.486c.29-.101 6.352-2.28 8.452-8.575a5 5 0 0 0 .136-.413l1.59 6.624s-.012.244-.085.641c-.318 1.78-1.823 6.752-8.51 8.098h-.01l-1.579-6.36.011-.01zm3.349 13.487c.374-.128 6.233-2.28 8.384-8.368q.12-.31.204-.626l1.59 6.625s-.017.344-.136.906c-.426 1.96-2.084 6.54-8.453 7.827-.011.01-.017.01-.028.01l-1.578-6.358s.011 0 .017-.011zm3.434 13.821c1.198-.472 6.33-2.809 8.22-8.522.05-.127.085-.254.125-.387l1.59 6.624s-.012.228-.08.605c-.312 1.727-1.743 6.65-8.265 8.071-.085.026-.176.042-.261.063l-1.579-6.354s.086-.026.25-.1m3.486 14.001c.493-.154 6.136-2.067 8.094-8.474q.024-.057.04-.106l1.59 6.624s0 .08-.012.217c-.08 1.15-.834 6.625-8.129 8.103-.011 0-.028.011-.04.011l-1.577-6.359s.01 0 .04-.011zm11.256 4.727.085-.271 1.59 6.625s0 .191-.029.503a8.2 8.2 0 0 1-.397 1.733c-.482 1.42-1.527 3.228-3.786 4.547h-.273c-1.527 0-2.934-.17-4.087-.461l-.948-3.794-.164-.679s5.915-1.643 8.004-8.203z"/><path fill="#000" d="M52.68 39.586q.399 1.685.807 3.37c.187.774.369 1.553.556 2.326.068.292.199.615.216.917.045.641-.205 1.383-.398 1.982a10.3 10.3 0 0 1-2.185 3.795c-1.646 1.79-3.928 2.883-6.375 3.391-.482.1-1.18-.042-1.311-.561-.528-2.12-1.05-4.24-1.578-6.36-.051-.217.164-.365.352-.43 1.084-.37 2.31-1.101 3.326-1.849 2.384-1.743 4.099-4.139 4.933-6.852.204-.673 1.85-.26 1.646.414-1.248 4.043-4.632 7.811-8.946 9.279l.352-.43c.528 2.12 1.05 4.24 1.578 6.36l-1.311-.562c3.707-.768 6.658-3.015 7.816-6.433.205-.61.46-1.341.443-1.988 0 .09.023.149-.034 0-.074-.196-.102-.423-.148-.625l-.505-2.12c-.3-1.25-.596-2.506-.897-3.757-.17-.715 1.51-.514 1.664.133M54.52 53.915l.068-.206c.221-.668 1.521-.27 1.652.27l.715 2.989c.278 1.166.704 2.369.851 3.556.102.795-.255 1.78-.533 2.522a10.1 10.1 0 0 1-2.419 3.736 10.6 10.6 0 0 1-2.622 1.85c-1.079.54-2.515 1.176-3.758 1.176-.369 0-.823-.249-.914-.599-.528-2.12-1.05-4.24-1.578-6.359-.051-.217.165-.366.352-.43 1.067-.365 2.265-1.08 3.27-1.806 2.344-1.707 4.059-4.038 4.916-6.693.215-.668 1.861-.255 1.646.413-1.277 3.959-4.632 7.636-8.867 9.083l.352-.43c.528 2.12 1.05 4.24 1.578 6.36l-.914-.599c-.403 0 .301-.116.449-.159.26-.069.527-.148.783-.233.54-.18 1.067-.392 1.567-.652a9.6 9.6 0 0 0 2.23-1.573 9.5 9.5 0 0 0 2.288-3.487q.255-.683.409-1.389c.034-.154.062-.313.085-.466.017-.133.057-.276.051-.403.011.196-.017.063-.023.016-.227-1.081-.516-2.157-.772-3.233-.255-1.076-.527-2.21-.794-3.312l1.652.27-.069.207c-.22.668-1.861.254-1.646-.413zM49.74 76.11c3.871-1.341 7.101-4.934 8.242-8.702.205-.673 1.527-.26 1.652.27.517 2.146 1.18 4.298 1.55 6.47.142.838-.25 1.903-.556 2.687-.528 1.368-1.346 2.655-2.436 3.694a10.5 10.5 0 0 1-2.69 1.86c-1.05.509-2.436 1.113-3.633 1.113-.37 0-.824-.249-.914-.599q-.418-1.684-.835-3.376l-.539-2.178c-.057-.228-.346-.869-.114-1.08.506-.462 2.061.158 1.51.662.182-.165.023-.345.131 0 .074.238.12.493.182.736l.545 2.189.789 3.18-.914-.6c-.392 0 .312-.121.46-.158q.4-.104.794-.239a12 12 0 0 0 1.51-.625c.812-.419 1.567-.927 2.214-1.547a9.5 9.5 0 0 0 2.305-3.445c.272-.705.658-1.743.539-2.411-.199-1.124-.54-2.242-.8-3.35l-.75-3.116 1.652.27c-1.232 4.06-4.626 7.796-8.93 9.285-.663.228-1.923-.662-.958-.99zM53.09 89.602c1.169-.398 2.435-1.171 3.485-1.966 2.287-1.722 3.979-4.086 4.757-6.736.198-.678 1.527-.26 1.651.27.511 2.12 1.09 4.24 1.527 6.376.182.88-.198 1.907-.516 2.734a10.2 10.2 0 0 1-2.322 3.604 10.4 10.4 0 0 1-2.52 1.839c-1.141.599-2.333.848-3.548 1.24-.465.148-1.192-.08-1.311-.562-.528-2.12-1.05-4.24-1.578-6.36-.035-.126.073-.301.193-.36l.017-.01c.369-.175.84-.127 1.175.1.238.165.47.573.102.753l-.017.01.193-.36c.528 2.12 1.05 4.24 1.578 6.36l-1.311-.562c1.016-.323 2.026-.504 2.991-.975a9.7 9.7 0 0 0 2.31-1.558 9.4 9.4 0 0 0 2.368-3.466q.273-.683.437-1.4c.074-.317.176-.667.164-.995 0 .174-.017.005-.05-.112-.347-1.097-.54-2.252-.807-3.37l-.732-3.053 1.652.27c-1.192 4.039-4.644 7.828-8.93 9.28-.664.222-1.93-.668-.959-.991M56.53 103.417c3.746-1.478 6.874-4.849 8.003-8.616.205-.679 1.527-.26 1.652.27.511 2.136 1.13 4.271 1.538 6.423.154.795-.192 1.759-.46 2.517a10.2 10.2 0 0 1-2.23 3.625c-1.67 1.727-3.837 2.655-6.216 3.227-.477.117-1.186-.053-1.311-.562-.528-2.119-1.05-4.234-1.578-6.354-.057-.217.164-.365.352-.429q.129-.046.25-.101c.652-.264 1.907.605.959.991q-.121.055-.25.101l.352-.429c.528 2.12 1.05 4.234 1.578 6.354l-1.311-.562c2.049-.493 3.962-1.235 5.455-2.681a9.4 9.4 0 0 0 2.253-3.44c.261-.694.625-1.706.511-2.337-.21-1.123-.539-2.236-.8-3.349l-.75-3.116 1.653.27c-1.221 4.076-4.508 7.552-8.686 9.2-.652.26-1.913-.62-.959-.991zM60.01 117.424c1.186-.371 2.327-1.06 3.337-1.823 2.248-1.701 3.548-3.948 4.45-6.471.233-.657 1.522-.275 1.652.27l.716 2.989c.278 1.166.67 2.353.845 3.535.102.694-.125 1.526-.329 2.189a9 9 0 0 1-2.066 3.545c-1.63 1.696-3.786 2.57-6.108 3.127-.477.111-1.187-.053-1.311-.562-.528-2.12-1.05-4.24-1.579-6.359-.05-.202.16-.387.352-.43zc.392-.096.891-.011 1.164.291.227.249.176.61-.205.705l-.04.011.353-.43c.528 2.12 1.05 4.24 1.578 6.36l-1.312-.562c1.982-.472 3.855-1.15 5.314-2.544a8.3 8.3 0 0 0 2.129-3.365c.204-.615.454-1.388.38-2.04-.125-1.081-.528-2.199-.784-3.259-.255-1.06-.528-2.21-.794-3.312l1.652.27c-.96 2.681-2.345 5.008-4.706 6.831-1.107.853-2.396 1.616-3.764 2.045-.664.212-1.936-.689-.96-.991zM70.925 122.437l.085-.27c.216-.673 1.527-.265 1.652.27l1.345 5.612c.222.912.273 1.548.063 2.507a8.56 8.56 0 0 1-2.628 4.483 9 9 0 0 1-1.386 1.039c-.425.254-.817.233-1.305.228a18.2 18.2 0 0 1-4.042-.498c-.306-.075-.613-.265-.687-.562-.374-1.489-.75-2.978-1.112-4.473-.051-.207.164-.376.352-.429 3.735-1.049 6.556-4.521 7.663-7.912.221-.668 1.862-.249 1.646.413-1.203 3.678-4.246 7.34-8.344 8.495l.352-.429c.363 1.494.738 2.983 1.112 4.473l-.687-.562c1.357.328 2.736.424 4.133.424l-.556.106c1.714-1.028 2.974-2.512 3.599-4.325.215-.625.493-1.462.408-2.13-.034-.281-.136-.567-.204-.842l-1.38-5.75 1.652.27-.085.27c-.215.668-1.856.255-1.646-.413z"/><path fill="#000" d="M63.495 135.771c-.846-3.397-1.686-6.794-2.532-10.197-.67-2.697-1.334-5.394-2.01-8.092q-1.293-5.182-2.577-10.366c-.823-3.312-1.64-6.619-2.463-9.93-.693-2.804-1.397-5.602-2.095-8.406-.88-3.534-1.754-7.07-2.634-10.604q-1.055-4.267-2.117-8.527c-.8-3.222-1.607-6.438-2.407-9.66-.857-3.45-1.709-6.895-2.566-10.345s-1.635-6.56-2.452-9.841c-.057-.228-.12-.45-.17-.678-.006-.038-.018-.07-.03-.106-.016-.08-.147-.445-.022-.17.097.207.017.1-.006.037-.04-.106-.056-.233-.085-.35-.21-.842.574-1.446 1.357-1.616 3.44-.742 6.88-1.49 10.32-2.231.505-.111 1.158.212 1.272.705.794 3.365 1.606 6.725 2.412 10.085.687 2.872 1.38 5.739 2.067 8.606.834 3.498 1.674 6.995 2.509 10.493.783 3.264 1.56 6.529 2.344 9.793.71 2.973 1.43 5.946 2.14 8.92q1.285 5.348 2.56 10.704c.664 2.782 1.334 5.564 1.998 8.352.84 3.503 1.675 7.011 2.515 10.514q1.123 4.667 2.237 9.332c.743 3.111 1.51 6.301 2.265 9.449.21.885.425 1.776.635 2.661.17.715-.38 1.245-1.01 1.536-3.196 1.484-7.425 1.389-10.803.573-.698-.17-.766-1.034-.46-1.516.392-.62 1.142-.837 1.857-.668 2.736.663 6.216.647 8.787-.545l-1.01 1.536c-.806-3.354-1.607-6.709-2.413-10.069-.698-2.904-1.39-5.808-2.089-8.712q-1.219-5.071-2.43-10.143c-.805-3.381-1.623-6.804-2.44-10.207q-1.02-4.285-2.05-8.564-1.287-5.382-2.582-10.758c-.682-2.845-1.357-5.691-2.044-8.537q-1.233-5.128-2.458-10.265c-.834-3.487-1.669-6.98-2.509-10.466-.704-2.936-1.402-5.877-2.106-8.813-.193-.79-.38-1.585-.568-2.374l1.272.704c-3.44.742-6.88 1.49-10.32 2.231l1.357-1.616c.05.207.09.408.136.615.09.46-.102-.366.011-.032.085.244.125.509.188.758l.72 2.904c.489 1.96.977 3.927 1.465 5.888q1.004 4.03 1.998 8.06 1.295 5.23 2.6 10.461c.812 3.243 1.612 6.487 2.418 9.73.704 2.835 1.402 5.67 2.112 8.51.88 3.546 1.765 7.086 2.65 10.632.705 2.819 1.403 5.644 2.101 8.463.818 3.28 1.63 6.566 2.447 9.846s1.675 6.736 2.509 10.101c.726 2.925 1.447 5.845 2.174 8.771l.624 2.522c.341 1.362-2.264 2.39-2.628.917z"/><path fill="#FFF4EC" d="M40.433 38.095c-.258-1.041 1.93-2.403 4.886-3.042 2.956-.64 5.562-.314 5.82.727.259 1.04-1.929 2.402-4.885 3.041-2.957.64-5.563.314-5.821-.726"/><path fill="#000" d="M41.856 38.012c-.035-.106.079.1.107.137-.124-.137.165.106.063.043-.102-.064.33.143.204.095-.125-.048.068.021.074.021q.153.039.306.07c.216.042-.17-.022.063.01l.29.032c.181.015.357.026.539.026h.119q.169 0 .346-.016c.239-.01.483-.032.721-.058 1.499-.18 3.276-.641 4.45-1.532.324-.243.625-.561.614-.848 0-.121-.102-.233-.12-.254-.096-.1-.255-.154-.408-.19-.051-.011-.415-.086-.239-.059-.193-.032-.391-.042-.584-.053a8 8 0 0 0-1.13.032c-.857.069-1.72.249-2.538.509s-1.623.567-2.287 1.065c-.352.265-.664.577-.585.975.108.551-.993.758-1.373.774-.489.026-1.352-.059-1.46-.62-.13-.658.41-1.278.903-1.68.835-.679 1.856-1.145 2.878-1.51 2.333-.822 5.115-1.283 7.584-.764.75.16 1.737.482 2.072 1.198.312.657-.102 1.314-.596 1.78-.72.684-1.686 1.14-2.617 1.51a16.3 16.3 0 0 1-3.735.97c-1.425.197-2.907.27-4.326-.026-.908-.19-1.896-.578-2.174-1.484-.159-.535 1.033-.758 1.374-.773.534-.032 1.294.063 1.459.62z"/></g><defs><clipPath id="a"><path fill="#fff" d="M76 34H39v103h37z"/></clipPath></defs></svg>