<svg xmlns="http://www.w3.org/2000/svg" width="502" height="156" fill="none"><path fill="#000" d="M61.58 155.13c-34.506 0-54.102-21.3-48.138-58.362h13.206c-4.9 29.607 9.585 46.647 36.636 46.647 26.625 0 44.517-16.827 49.416-47.286L127.184 3.9h13.206l-14.697 92.868c-6.177 36.849-29.607 58.362-64.113 58.362m128.126 0c-34.719 0-53.25-21.513-47.499-58.362L156.904 3.9h13.206l-14.697 92.229c-4.899 30.459 9.159 47.286 36.21 47.286s44.73-16.827 49.416-47.286L255.736 3.9h13.206l-14.697 92.868c-5.964 36.849-29.82 58.362-64.539 58.362m124.51 0c-36.21 0-53.037-19.17-48.99-43.665h12.993c-1.917 17.892 9.585 32.376 37.701 32.376 27.264 0 44.304-13.845 44.304-34.719 0-16.827-11.502-22.578-28.116-25.986l-17.679-3.834c-23.004-5.112-34.08-16.188-34.08-34.506 0-26.412 22.791-42.813 54.954-42.813 31.524 0 48.564 15.762 45.156 37.701h-12.78c1.278-14.271-9.372-26.412-33.867-26.412s-39.831 12.141-39.831 30.885c0 12.993 7.668 20.874 26.412 24.708l17.679 3.834c21.3 4.686 35.997 13.206 35.997 35.145 0 29.394-24.921 47.286-59.853 47.286M416.527 153l21.726-137.385h-48.351L391.819 3.9h109.695l-2.13 11.715h-48.138L429.52 153z"/><g clip-path="url(#a)"><path fill="#000" d="M10.628 6.12c.55.08 1.03.43 1.53.7.98.73 1.72 1.69 1.67 2.99.05 1.08.02 2.21-.57 3.07-.24.33-.57.6-.91.8-.29.1-.57.33-.74.6-.05.15.12.23.21.3.79.48 1.62.98 2.12 1.84.48.83.55 1.86.5 2.92.14.38-.1.73-.17 1.11l-.41 1.03c-.64 1.31-1.98 1.76-3.17 2.14-.62.05-1.26.2-1.91.02-.84-.08-1.65.2-2.51.08-.79.08-1.6-.05-2.41-.08-.5-.02-1.24.28-1.5-.3-.1-.45-.05-.96.33-1.18.33-.38 1.03-.58.84-1.26.07-.63.05-1.36.07-2.06.33-.96-.1-1.94-.02-2.99.05-.55-.07-1.13 0-1.68-.14-.83.07-1.76.02-2.62-.12-.65.17-1.31 0-1.91.12-.53-.12-.96-.1-1.48-.17-.68-1.07-.55-1.12-1.31-.05-.18-.02-.4.05-.55.48-.65 1.36-.33 2.05-.45.72.05 1.53-.1 2.24.08 1.29-.05 2.65-.15 3.89.2zm-2.03 1.64c-.19-.05-.43-.05-.62.1-.1.23-.17.43-.17.68.19 1.26.17 2.69.07 3.95.02.35-.33.75.07 1.03.21.1.48-.1.72-.18.21-.28.57-.4.69-.78.21-.78.21-1.66.24-2.52-.02-.58.05-1.23-.36-1.68-.14-.23-.38-.48-.64-.6m.34 7.84c-.31-.13-.72-.4-1.03-.1l-.02 1.03c.07.91-.14 1.86 0 2.77-.12.86-.24 1.94.38 2.57.41.28.74-.08 1.03-.3.21-.43.38-.8.48-1.23.24-.98.17-2.01.1-2.99 0-.55-.36-.91-.52-1.36l-.41-.38zM25.138 6.68c.86.43 1 1.33 1.62 1.96.14.25.14.55.19.86.24.45.05 1.03.21 1.56-.07 1.26-.69 2.36-1.67 3.22-.26.2-.74.38-.69.83.19.48.55.86.62 1.38.33.5.36 1.16.67 1.69.1.58.36 1.03.45 1.56.29.53.36 1.18.83 1.61.33.4.91.68.86 1.28.02.25 0 .48-.14.65-.57.68-1.5.3-2.24.38-.62.18-1.29.03-1.81-.18-.31-.23-.43-.6-.6-.93-.36-.68-.33-1.48-.79-2.09-.17-.58-.29-1.18-.55-1.71-.07-.58-.52-.98-.55-1.56-.19-.4-.26-.88-.55-1.23-.17-.03-.24.08-.31.2-.05 1.31 0 2.62 0 3.95-.17.65 0 1.28.5 1.69.31.1.69.3.81.68.02.4.1.93-.26 1.16-.55.2-1.22.02-1.81.02-.67.08-1.34 0-2.03.08h-2.12c-.14-.08-.36-.15-.45-.33-.17-.38-.14-.98.17-1.28.29-.33.88-.38.91-.93.07-.63.14-1.18.12-1.86.17-.25.07-.58.02-.83.14-.78.05-1.58 0-2.39-.02-.6.21-1.21.07-1.81 0-.5.07-1.03.02-1.53-.24-.78-.17-1.79-.14-2.62.02-.5-.02-1.11-.02-1.69 0-.3-.21-.6-.48-.8-.33-.08-.74-.43-.79-.8 0-.4.02-.78.41-.98l.24-.08c.62-.03 1.34-.03 1.96 0 1.27 0 2.53-.1 3.79-.05l1.19.03c.79.23 1.53.63 2.34.91zm-4.1.88c-.12.03-.19.13-.24.23-.02.68-.02 1.38 0 2.09.1.86-.1 1.69.05 2.54 0 .45-.21 1.18.21 1.48.45.05.81-.1 1.12-.48.76-.75.55-1.96.72-2.99-.07-.83-.14-1.68-.57-2.34-.41-.33-.83-.45-1.29-.53M37.078 7.63c.31.71.17 1.56.5 2.24.17.38.19.83.38 1.21.24 1.23.6 2.41.79 3.67.45 1.11.38 2.44.83 3.54-.02.96.45 1.66.67 2.54.19.35.26.73.62 1.03.38.3.38.78.45 1.26-.17.55-.81.5-1.29.6-.55.13-1.12 0-1.74.08-.95-.08-1.96.08-2.91-.08-.26-.08-.43-.35-.48-.63-.14-.48.12-.96.48-1.23.86-.53.45-1.68.5-2.54-.14-.58-.36-1.08-.43-1.66-.1-.13-.19-.2-.33-.23-.17-.08-.31.03-.5.03-.67-.03-1.34-.1-2.03 0-.43.3-.36.93-.45 1.38-.24.45-.26.98-.31 1.53-.1.53.07 1.11.53 1.41.33.15.57.53.62.85.05.25.02.53-.1.75-.26.33-.72.25-1.07.33-.55-.15-1.22-.08-1.81 0-.36-.1-.88.03-1.12-.38-.17-.38-.12-.8.05-1.13.21-.33.67-.53.74-.93.33-1.06.57-2.16.81-3.27.33-.75.19-1.63.57-2.34.33-2.09.98-4.07 1.29-6.19.31-.65.33-1.41.53-2.09.02-.5-.43-1.21.12-1.51.67-.15 1.65-.08 2.12-.08l1 .03c.91.13.79 1.13.98 1.79zm-3.51 4.48c0 .35-.17.65-.17 1.01-.07.68-.36 1.26-.36 1.99.02.1.17.18.26.2.43 0 .88.25 1.24-.1.1-.08.1-.25.07-.38-.29-.96-.5-2.01-.74-3.04-.21-.3-.26.23-.31.33zM54.098 7.61c-.29.18-.79.35-.81.83-.07 1.21-.17 2.41-.14 3.65-.02 1.16-.02 2.36.05 3.5-.07 1.03-.05 2.14-.14 3.17.26.7.07 1.56.07 2.31.02.73-.07 1.38-.07 2.11 0 .18-.21.33-.36.4-.38.15-.88.15-1.19-.18-.91-1.46-1.69-2.92-2.58-4.35-.69-1.51-1.65-2.89-2.36-4.4-.55-.78-.84-1.68-1.46-2.41-.02-.08-.07-.08-.12 0-.17.38-.1.8-.17 1.18.05.53.07 1.03.1 1.56 0 .8-.02 1.53-.05 2.31-.12.43-.02.8 0 1.21-.02 1.03-.14 2.16.38 2.99.48.38 1.19.45 1.31 1.16 0 .43-.05.86-.45 1.03-.26.18-.57-.03-.86.05-1.05-.23-2.2.23-3.17-.23-.29-.23-.29-.6-.21-.96.07-.68.81-.68 1.12-1.13.29-.4.19-.96.31-1.43-.12-1.08-.17-2.26-.02-3.37-.14-.45.07-.91-.07-1.33.14-.7-.12-1.36-.02-1.99.07-1.13.07-2.31 0-3.42-.05-.6.12-1.28-.31-1.71-.31-.48-1.05-.68-1.03-1.33-.05-.38 0-.73.31-.9.48-.18 1-.1 1.55-.1.43-.05.93-.02 1.41-.02.5 0 1.12-.05 1.46.43.5.68.76 1.46 1.29 2.14.21.58.67 1.13.91 1.71.17.6.72.98.86 1.48.55.85.98 1.79 1.46 2.69.07.08.12.13.24.1.41-.48.12-1.23.05-1.76 0-.2.05-.3.07-.48-.07-.55-.07-1.21 0-1.79-.1-.6.14-1.41-.21-1.91-.26-.8-1.22-.7-1.46-1.48 0-.33-.02-.65.19-.91.74-.48 1.72-.15 2.62-.28.45-.05.91-.05 1.36 0 .26.03.52.33.6.6.02.48 0 .98-.43 1.26zM67.408 10.2c.79 1.74.83 3.87.81 5.96-.12 1.11-.31 2.26-.81 3.27-.1.73-.57 1.33-.93 1.96-.52.83-1.31 1.33-2.12 1.58-.33.38-.79.43-1.22.5-.57.1-1.1.25-1.65.28-.43-.03-.88 0-1.24-.1-.67.1-1.36-.08-2.08 0-.76.08-1.58.18-2.34.08-.21-.08-.41-.18-.55-.38-.17-.43-.05-.91.19-1.21.24-.28.67-.28.83-.65.24-.48.1-1.16.14-1.71.02-.53-.05-1.03.07-1.48-.05-.85-.1-1.68.05-2.51-.21-1.26-.12-2.62 0-3.9-.05-1.11-.21-2.19-.12-3.34-.05-.38-.05-.83-.41-.98-.33-.13-.62-.18-.76-.5-.12-.38-.14-.75.14-1.06.43-.38 1.03-.1 1.6-.15.72-.15 1.36.03 2.08-.03.26.08.6-.05.88-.02 1.93-.18 3.65.3 5.08 1.43 1.07.68 1.84 1.86 2.34 2.97zm-6.37-2.64c-.1.03-.24.1-.24.2-.07.63-.07 1.33-.02 1.94-.05.6.1 1.16 0 1.74 0 .85.05 1.68-.07 2.56.1.55 0 1.18.07 1.74.1.53-.26 1.01-.05 1.53.07.55-.12 1.13.05 1.66.02.88-.19 1.91.12 2.69.17.23.38.33.6.38.57.1.98-.5 1.24-.93.48-.91.45-2.04.64-3.07.02-.86.07-1.63.17-2.44-.14-.98.12-2.01-.1-2.92.02-.73-.19-1.31-.29-1.94-.05-1.06-.29-2.01-1.12-2.72-.29-.18-.62-.43-1-.43zM24.218 26.8c.55.08 1.03.43 1.53.7.98.73 1.72 1.69 1.67 2.99.05 1.08.02 2.21-.57 3.07-.24.33-.57.6-.91.8-.29.1-.57.33-.74.6-.05.15.12.23.21.3.79.48 1.62.98 2.12 1.84.48.83.55 1.86.5 2.92.14.38-.1.73-.17 1.11l-.41 1.03c-.64 1.31-1.98 1.76-3.17 2.14-.62.05-1.26.2-1.91.02-.83-.08-1.65.2-2.51.08-.79.08-1.6-.05-2.41-.08-.5-.02-1.24.28-1.5-.3-.1-.45-.05-.96.33-1.18.33-.38 1.03-.58.84-1.26.07-.63.05-1.36.07-2.06.33-.96-.1-1.94-.02-2.99.05-.55-.07-1.13 0-1.68-.14-.83.07-1.76.02-2.62-.12-.65.17-1.31 0-1.91.12-.53-.12-.96-.1-1.48-.17-.68-1.07-.55-1.12-1.31-.05-.18-.02-.4.05-.55.48-.65 1.36-.33 2.05-.45.72.05 1.53-.1 2.24.08 1.29-.05 2.65-.15 3.89.2zm-2.03 1.64c-.19-.05-.43-.05-.62.1-.1.23-.17.43-.17.68.19 1.26.17 2.69.07 3.95.02.35-.33.75.07 1.03.21.1.48-.1.72-.18.21-.28.57-.4.69-.78.21-.78.21-1.66.24-2.52-.02-.58.05-1.23-.36-1.68-.14-.23-.38-.48-.64-.6m.33 7.84c-.31-.13-.72-.4-1.03-.1l-.02 1.03c.07.91-.14 1.86 0 2.77-.12.86-.24 1.94.38 2.57.41.28.74-.08 1.03-.3.21-.43.38-.8.48-1.23.24-.98.17-2.01.1-2.99 0-.55-.36-.91-.53-1.36l-.41-.38zM41.138 27.83c-.29.53-.88.33-1.15.86-.5.7-.1 1.63-.17 2.46.05.98.05 1.91 0 2.87.02 1.23-.02 2.51 0 3.72-.17.45 0 .93-.07 1.41.12.88-.1 1.68-.14 2.54-.24.73-.43 1.46-1.15 1.96-.33.43-.83.45-1.29.68-.67.2-1.38.25-2.08.3-.45.08-.93.15-1.41 0-.38.08-.67-.15-1-.23-.52-.3-1.1-.43-1.58-.88-.57-.91-1.12-1.79-1.03-2.97-.24-.63.12-1.28 0-1.89.07-.38.05-.86.02-1.26.29-1.08-.12-2.31.12-3.39-.12-.53.02-1.03-.07-1.53.1-.58.1-1.28 0-1.86 0-.4.07-.75.07-1.16-.21-.4-.19-1.01-.64-1.28-.26-.08-.55-.1-.67-.38-.1-.28-.24-.65-.07-.93.48-.7 1.36-.28 2.1-.43.6-.13 1.19.15 1.81.05.38-.08.79 0 1.19-.08.5.1 1.24-.25 1.48.38.12.25.26.6.1.93-.26.63-1.07.5-1.22 1.23 0 1.46-.14 2.89-.1 4.35.1.28-.05.53 0 .85.26 1.21.19 2.49.1 3.77-.05.4.14.91-.02 1.31-.05.55 0 1.11.02 1.66-.07.6.31 1.01.67 1.41.31.3.74.3 1.17.4.5-.25 1.19-.15 1.48-.8.43-.7.36-1.61.5-2.41 0-.58-.14-1.18 0-1.76-.02-1.23 0-2.49-.07-3.77-.07-1.03.1-2.11 0-3.17.1-.73.26-1.58 0-2.24-.31-.48-1-.23-1.17-.88-.1-.25-.1-.55 0-.78.24-.43.69-.33 1.07-.43.41 0 .79 0 1.15.05.72.05 1.58-.43 2.03.28.14.33.17.73 0 1.03zM48.628 26.98c.1.38.1.8-.12 1.08-.31.33-.93.25-.98.8-.14 1.11-.14 2.24-.14 3.37.14 1.08-.29 2.06-.07 3.09-.02.7 0 1.36.07 2.04.1 1.61-.12 3.19.07 4.73.29.53 1 .6 1.07 1.23.02.43-.02.8-.36 1.01-.48.15-1-.02-1.53 0-.6 0-1.24.15-1.86.08-.69 0-1.34-.1-1.96.03-.36-.08-.72-.1-.88-.48-.07-.35-.02-.68.14-1.01.31-.33.88-.48.98-1.03.21-.63.1-1.36.1-2.04-.07-.6.07-1.21-.07-1.81.14-.43-.07-.91.02-1.36-.02-2.41-.05-4.85 0-7.29-.02-.45-.14-.86-.5-1.13-.31-.13-.72-.4-.79-.75-.07-.4.07-.75.38-.96.52-.2 1.12-.05 1.67-.13h2.62c.72.15 1.81-.43 2.12.53zM55.678 26.55c.14.05.33.15.43.33.14.35.05.78-.17 1.11-.21.2-.52.3-.79.45-.36.33-.24.86-.33 1.26-.05 1.21.24 2.46 0 3.65.14.6.1 1.21 0 1.79-.05 1.26.14 2.54.07 3.85.02.93-.1 1.81 0 2.77.07.28.1.6.38.78.31.18.62-.05.84-.15.67-.4 1.05-1.16 1.46-1.81.19-.43.26-1.06.79-1.21.48 0 1.05-.28 1.46.08.45.55.05 1.31.1 1.99-.1.83-.19 1.66-.29 2.46-.1.2-.24.45-.45.45l-.36.08h-3.48c-.79.08-1.48-.1-2.27 0-.33-.1-.67.08-1 .08-.74-.08-1.5-.08-2.22-.23a.75.75 0 0 1-.45-.55c-.05-.33.05-.63.29-.78.5-.13.93-.6 1.05-1.11 0-.85-.1-1.68-.07-2.54-.05-.45-.05-.88.07-1.33.02-.65-.17-1.33-.05-1.99-.14-.9-.02-1.94-.07-2.87-.05-.58.07-1.13 0-1.71.02-.78.05-1.71-.07-2.46s-1.07-.53-1.15-1.31c-.05-.35-.1-.75.17-1.01.57-.35 1.31-.1 1.93-.1.33 0 .74-.05 1.1-.02.98.13 2.1-.18 3.1.08zM10.058 58.42c0 .65.19 1.48-.1 2.09-.48.8-1.34.1-2.03.35-.6 0-1.12-.08-1.69 0-.74-.08-1.38.1-2.12.08-.45-.03-.98.05-1.36-.13a.84.84 0 0 1-.43-.68c.02-.78.02-1.51.05-2.31.05-.15.12-.33.29-.43.64-.18 1.41-.2 2.1-.1.64-.05 1.36.1 2-.08.79 0 1.55.02 2.31 0 .36 0 .74 0 .91.38.17.2.12.53.07.83M24.088 51.56c.79 1.74.83 3.87.81 5.96-.12 1.11-.31 2.26-.81 3.27-.1.73-.57 1.33-.93 1.96-.53.83-1.31 1.33-2.12 1.58-.33.38-.79.43-1.22.5-.57.1-1.1.25-1.65.28-.43-.03-.88 0-1.24-.1-.67.1-1.36-.08-2.08 0-.76.08-1.57.18-2.34.08-.21-.08-.41-.18-.55-.38-.17-.43-.05-.91.19-1.21.24-.28.67-.28.84-.65.24-.48.1-1.16.14-1.71.02-.53-.05-1.03.07-1.48-.05-.85-.1-1.68.05-2.51-.21-1.26-.12-2.62 0-3.9-.05-1.11-.21-2.19-.12-3.34-.05-.38-.05-.83-.41-.98-.33-.13-.62-.18-.76-.5-.12-.38-.14-.75.14-1.06.43-.38 1.03-.1 1.6-.15.72-.15 1.36.03 2.08-.03.26.08.6-.05.88-.02 1.93-.18 3.65.3 5.08 1.43 1.07.68 1.84 1.86 2.34 2.97zm-6.37-2.64c-.1.03-.24.1-.24.2-.07.63-.07 1.33-.02 1.94-.05.6.1 1.16 0 1.74 0 .85.05 1.68-.07 2.56.1.55 0 1.18.07 1.74.1.53-.26 1.01-.05 1.53.07.55-.12 1.13.05 1.66.02.88-.19 1.91.12 2.69.17.23.38.33.6.38.57.1.98-.5 1.24-.93.48-.91.45-2.04.64-3.07.02-.86.07-1.63.17-2.44-.14-.98.12-2.01-.1-2.92.02-.73-.19-1.31-.29-1.94-.05-1.06-.29-2.01-1.12-2.72-.29-.18-.62-.43-1-.43zM32.278 47.66c.1.38.1.8-.12 1.08-.31.33-.93.25-.98.8-.14 1.11-.14 2.24-.14 3.37.14 1.08-.29 2.06-.07 3.09-.02.7 0 1.36.07 2.04.1 1.61-.12 3.19.07 4.73.29.53 1 .6 1.07 1.23.02.43-.02.8-.36 1.01-.48.15-1-.02-1.53 0-.6 0-1.24.15-1.86.08-.69 0-1.34-.1-1.96.03-.36-.08-.72-.1-.88-.48-.07-.35-.02-.68.14-1.01.31-.33.88-.48.98-1.03.21-.63.1-1.36.1-2.04-.07-.6.07-1.21-.07-1.81.14-.43-.07-.91.02-1.36-.02-2.41-.05-4.85 0-7.29-.02-.45-.14-.86-.5-1.13-.31-.13-.72-.4-.79-.75-.07-.4.07-.75.38-.96.52-.2 1.12-.05 1.67-.13h2.62c.72.15 1.81-.43 2.12.53zM45.218 48.97c-.29.18-.79.35-.81.83-.07 1.21-.17 2.41-.14 3.65-.02 1.16-.02 2.36.05 3.5-.07 1.03-.05 2.14-.14 3.17.26.7.07 1.56.07 2.31.02.73-.07 1.38-.07 2.11 0 .18-.21.33-.36.4-.38.15-.88.15-1.19-.18-.91-1.46-1.69-2.92-2.58-4.35-.69-1.51-1.65-2.89-2.36-4.4-.55-.78-.84-1.68-1.46-2.41-.02-.08-.07-.08-.12 0-.17.38-.1.8-.17 1.18.05.53.07 1.03.1 1.56 0 .8-.02 1.53-.05 2.31-.12.43-.02.8 0 1.21-.02 1.03-.14 2.16.38 2.99.48.38 1.19.45 1.31 1.16 0 .43-.05.86-.45 1.03-.26.18-.57-.03-.86.05-1.05-.23-2.2.23-3.17-.23-.29-.23-.29-.6-.21-.96.07-.68.81-.68 1.12-1.13.29-.4.19-.96.31-1.43-.12-1.08-.17-2.26-.02-3.37-.14-.45.07-.91-.07-1.33.14-.7-.12-1.36-.02-1.99.07-1.13.07-2.31 0-3.42-.05-.6.12-1.28-.31-1.71-.31-.48-1.05-.68-1.03-1.33-.05-.38 0-.73.31-.9.48-.18 1-.1 1.55-.1.43-.05.93-.02 1.41-.02.5 0 1.12-.05 1.46.43.5.68.76 1.46 1.29 2.14.21.58.67 1.13.91 1.71.17.6.72.98.86 1.48.55.85.98 1.79 1.46 2.69.07.08.12.13.24.1.41-.48.12-1.23.05-1.76 0-.2.05-.3.07-.48-.07-.55-.07-1.21 0-1.79-.1-.6.14-1.41-.21-1.91-.26-.8-1.22-.7-1.46-1.48 0-.33-.02-.65.19-.91.74-.48 1.72-.15 2.62-.28.45-.05.91-.05 1.36 0 .26.03.52.33.6.6.02.48 0 .98-.43 1.26zM57.168 48.34c.17.45.07 1.06.17 1.53.02.58.05 1.13-.07 1.63.02.28.05.63-.12.85-.33.38-.98.35-1.41.23-.52-.28-.33-.93-.62-1.31-.07-.35.1-.83-.24-1.11-.45-.48-.72-1.33-1.43-1.43-.29 0-.55-.13-.81 0-.45.23-.98.58-1.15 1.13-.36 1.13-.29 2.39-.41 3.52.05.58-.1 1.08-.07 1.68-.1.23.07.53-.02.75 0 1.18.02 2.31.12 3.45.02.48-.02 1.06.1 1.58.02.8.5 1.46.81 2.14.31.38.81.53 1.22.45.12-.03.21-.15.26-.23.1-1.23.12-2.51.1-3.75v-.1c-.1-.53 0-1.18-.45-1.53-.33-.18-.96-.35-.93-.88-.02-.43 0-.93.41-1.16.62-.15 1.27.02 1.91-.1.69.23 1.38.03 2.17.1.76.23 1.93-.3 2.1.83.05.4-.02.86-.43 1.03-.62.38-.76 1.13-.67 1.86-.17.58.17 1.06.02 1.63-.12.35-.07.75 0 1.16-.02.45-.19.98-.1 1.48 0 .91-1 .75-1.5 1.21-.98.08-1.86.48-2.94.45-.43-.15-.88.05-1.29-.15-1.43-.3-2.74-.85-3.72-2.16-.69-1.03-1.34-2.09-1.43-3.39-.26-.78-.36-1.71-.48-2.62-.07-.73.1-1.41.02-2.11.19-.7.12-1.46.29-2.16.17-.33.36-.65.36-1.06.45-.65.41-1.48.86-2.11.62-.93 1.5-1.76 2.48-2.11.79-.63 1.84-.58 2.79-.68.67-.05 1.27.15 1.91.25.84.18 1.58.55 2.2 1.18z"/><path fill="#20201F" d="M7.048 28.65c.2.65.48.57.68 1.22.13.41.49.74.84.51.55-.36.46-.51 1.01-.87.52-.34 1.25.29 1.02.89-.25.64-.2.65-.45 1.29-.16.4 0 .63.42.69.65.09.61.33 1.26.42.61.09.75.87.2 1.17-.58.32-.57.33-1.14.66-.37.2-.36.65-.08.98.44.51.45.49.89 1 .41.48-.08 1.23-.69 1.09-.64-.14-.69.08-1.32-.07-.4-.09-.96.13-.94.56.02.69.36.67.39 1.36.02.65-.86.93-1.24.42l-.8-1.08c-.25-.34-.86-.39-1.12-.05-.4.54-.27.64-.67 1.18-.38.51-1.22.18-1.19-.47.02-.69.12-.68.14-1.37.02-.43-.46-.87-.87-.78-.64.14-.65.09-1.29.24-.6.14-.95-.44-.54-.92.44-.51.55-.41.99-.92.28-.32.11-1.08-.26-1.28-.58-.32-.63-.22-1.21-.54-.54-.3-.38-.95.23-1.04.65-.09.64-.1 1.29-.19.41-.06.68-.72.52-1.12-.25-.64-.32-.61-.57-1.24-.23-.6.48-1.25 1-.91.55.36.55.37 1.1.74.35.23.92.17 1.05-.24.2-.65.21-.65.41-1.3.19-.62.74-.63.93-.01z"/><path stroke="#20201F" stroke-linecap="round" stroke-linejoin="round" stroke-width=".86" d="M7.048 28.65c.2.65.48.57.68 1.22.13.41.49.74.84.51.55-.36.46-.51 1.01-.87.52-.34 1.25.29 1.02.89-.25.64-.2.65-.45 1.29-.16.4 0 .63.42.69.65.09.61.33 1.26.42.61.09.75.87.2 1.17-.58.32-.57.33-1.14.66-.37.2-.36.65-.08.98.44.51.45.49.89 1 .41.48-.08 1.23-.69 1.09-.64-.14-.69.08-1.32-.07-.4-.09-.96.13-.94.56.02.69.36.67.39 1.36.02.65-.86.93-1.24.42l-.8-1.08c-.25-.34-.86-.39-1.12-.05-.4.54-.27.64-.67 1.18-.38.51-1.22.18-1.19-.47.02-.69.12-.68.14-1.37.02-.43-.46-.87-.87-.78-.64.14-.65.09-1.29.24-.6.14-.95-.44-.54-.92.44-.51.55-.41.99-.92.28-.32.11-1.08-.26-1.28-.58-.32-.63-.22-1.21-.54-.54-.3-.38-.95.23-1.04.65-.09.64-.1 1.29-.19.41-.06.68-.72.52-1.12-.25-.64-.32-.61-.57-1.24-.23-.6.48-1.25 1-.91.55.36.55.37 1.1.74.35.23.92.17 1.05-.24.2-.65.21-.65.41-1.3.19-.62.74-.63.93-.01z"/></g><defs><clipPath id="a"><path fill="#fff" d="M.328 0h68.78v70.95H.328z"/></clipPath></defs></svg>