<svg xmlns="http://www.w3.org/2000/svg" width="548" height="168" fill="none"><g clip-path="url(#a)"><path fill="#000" d="M548 160h-1.714v-5.06H548zM3.714 160H2v-6.597h1.714zM548 149.281h-1.714v-6.597H548zM3.714 147.744H2v-6.607h1.714zM548 137.015h-1.714v-6.598H548zM3.714 135.478H2v-6.598h1.714zM548 124.758h-1.714v-6.597H548zM3.714 123.221H2v-6.597h1.714zM548 112.492h-1.714v-6.607H548zM3.714 110.955H2v-6.597h1.714zM548 100.236h-1.714v-6.597H548zM3.714 98.699H2v-6.607h1.714zM548 87.979h-1.714v-6.597H548zM3.714 86.434H2v-6.598h1.714zM548 75.713h-1.714v-6.607H548zM3.714 74.176H2V67.58h1.714zM548 63.457h-1.714V56.86H548zM3.714 61.91H2v-6.607h1.714zM548 51.19h-1.714v-6.596H548zM3.714 49.655H2v-6.597h1.714zM548 38.934h-1.714v-6.597H548zM3.714 37.389H2V30.79h1.714zM548 26.668h-1.714v-6.607H548zM3.714 25.131H2v-6.597h1.714zM548 14.412h-1.714V7.815H548zM3.714 12.865H2V6.258h1.714zM548 2.145h-1.714v-.428h-4.445V0h6.169v2.146zm-11.81-.428h-6.588V0h6.588zm-12.249 0h-6.598V0h6.598zm-12.239 0h-6.588V0h6.588zm-12.249 0h-6.588V0h6.588zm-12.239 0h-6.598V0h6.598zm-12.249 0h-6.588V0h6.588zm-12.239 0h-6.588V0h6.588zm-12.249 0h-6.598V0h6.598zm-12.239 0h-6.588V0h6.588zm-12.249 0h-6.588V0h6.588zm-12.239 0h-6.598V0h6.598zm-12.249 0h-6.588V0h6.588zm-12.239 0h-6.588V0h6.588zm-12.249 0h-6.598V0h6.598zm-12.239 0h-6.598V0h6.598zm-12.249 0h-6.588V0h6.588zm-12.239 0h-6.588V0h6.588zm-12.249 0h-6.598V0h6.598zm-12.239 0h-6.588V0h6.588zm-12.249 0h-6.588V0h6.588zm-12.239 0h-6.598V0h6.598zm-12.249 0h-6.588V0h6.588zm-12.239 0h-6.588V0h6.588zm-12.239 0h-6.597V0h6.597zm-12.249 0h-6.597V0h6.597zm-12.239 0h-6.587V0h6.587zm-12.248 0h-6.588V0h6.588zm-12.239 0h-6.598V0h6.598zm-12.249 0h-6.588V0h6.588zm-12.239 0h-6.588V0h6.588zm-12.249 0h-6.598V0h6.598zm-12.239 0h-6.598V0h6.598zm-12.249 0h-6.588V0h6.588zm-12.239 0h-6.588V0h6.588zm-12.249 0h-6.598V0h6.598zm-12.239 0h-6.588V0h6.588zm-12.25 0H88.82V0h6.588zm-12.238 0H76.57V0h6.598zm-12.249 0h-6.588V0h6.588zm-12.239 0h-6.588V0h6.588zm-12.249 0h-6.588V0h6.588zm-12.239 0h-6.598V0h6.598zm-12.249 0h-6.588V0h6.588zm-12.239 0H3.106V0h6.588v1.717z"/></g><path fill="#000" d="M21.087 165V10.788H53.25l46.221 133.338h.852l45.156-133.338h31.524V165h-18.744V32.088h-.852L110.76 165H88.182L40.683 31.875h-1.065V165zM204.626 55.944q2.556-14.484 8.733-25.134 6.177-10.863 17.04-16.827t27.051-5.964q16.401 0 26.625 5.964 10.224 5.751 15.762 16.401 5.538 10.437 7.455 24.495 2.13 13.845 2.13 29.82 0 25.134-4.686 43.878-4.473 18.531-16.401 28.755-11.715 10.224-33.441 10.224-16.401 0-26.838-5.751-10.437-5.964-16.188-16.614-5.538-10.863-7.881-25.347-2.13-14.697-2.13-31.95t2.769-31.95m17.679 31.737q0 21.939 2.769 35.997 2.982 14.058 10.224 20.874t20.235 6.816q19.596 0 26.625-15.762 7.029-15.975 7.029-48.777 0-20.448-2.769-34.293-2.556-14.058-9.585-21.087-6.816-7.029-19.809-7.029-19.596 0-27.264 16.188-7.455 15.975-7.455 47.073M350.982 165h-19.383V10.788h49.842q14.484 0 23.856 4.047 9.372 3.834 14.697 10.437t7.455 14.484 2.13 15.762q0 17.253-6.816 29.394t-22.152 17.253L435.33 165h-21.087l-32.376-58.788h-30.885zm0-138.024V90.45h22.791q9.798 0 17.679-2.343 8.094-2.556 12.993-9.798t4.899-21.087q0-12.78-4.473-19.17-4.473-6.603-13.419-8.733-8.946-2.343-22.365-2.343zm102.691-16.188h80.514v16.188h-60.918v51.546h56.871v15.975h-56.871v54.102h64.113V165h-83.709z"/><defs><clipPath id="a"><path fill="#fff" d="M2 0h546v160H2z"/></clipPath></defs></svg>