<svg xmlns="http://www.w3.org/2000/svg" width="160" height="160" fill="none"><path fill="#000" d="M128.265 106.63c1.756 3.022 2.144 2.789 3.9 5.822 1.1 1.911 1.189 4.1 1.256 6.011.077 2.089-.589 3.967-1.489 5.767s-2.067 3.466-3.711 4.666c-1.645 1.2-3.489 2.056-5.556 2.323-1.9.244-3.822-.289-5.878-1.078-3.266-1.245-3.466-.711-6.733-1.956-1.678-.633-3.333-1.2-5.011-1.111s-3.434.656-4.967 1.434-3.222 1.622-4.322 2.988c-1.1 1.367-1.678 3.078-2.145 4.823-.9 3.377-.766 3.411-1.666 6.789-.567 2.133-1.39 4.066-2.7 5.477-1.422 1.523-3.356 2.467-5.267 3.1-1.911.634-4.011.778-6.033.456s-3.967-1-5.611-2.278c-1.511-1.178-2.445-2.978-3.345-4.989-1.433-3.189-1.966-2.944-3.4-6.133-.733-1.645-1.655-3.022-2.9-4.145s-2.6-2.533-4.233-3.055-3.489-.211-5.233-.033c-1.745.177-3.145.933-4.7 1.833-3.023 1.755-3.223 1.4-6.256 3.144-1.911 1.1-3.889 1.3-5.811 1.367-2.089.078-3.967-.311-5.767-1.211s-3.544-2.011-4.744-3.667-2.434-3.489-2.69-5.555c-.244-1.9 0-4.156.79-6.223 1.244-3.266 1.622-3.122 2.866-6.388.634-1.678.5-3.367.4-5.045s.156-3.611-.622-5.144c-.778-1.534-2.233-2.678-3.589-3.778s-2.833-1.789-4.566-2.256c-3.378-.9-3.356-.966-6.734-1.866-2.133-.567-4.022-1.511-5.422-2.822-1.522-1.423-2.833-3.212-3.455-5.123-.623-1.91-.6-4.155-.278-6.166s.866-4.167 2.144-5.812c1.178-1.51 3.278-2.188 5.29-3.088 3.188-1.434 3.032-1.778 6.21-3.212 1.645-.733 2.945-1.855 4.067-3.1 1.122-1.244 2.255-2.7 2.778-4.333.522-1.633.166-3.378-.023-5.111s-.444-3.289-1.344-4.844c-1.756-3.023-1.789-3-3.544-6.023-1.1-1.91-1.178-4.01-1.245-5.922-.078-2.089.167-4.078 1.067-5.878s2.21-3.466 3.866-4.666 3.623-1.545 5.69-1.811c1.9-.245 3.944-.59 6.01.2 3.267 1.244 3.29 1.177 6.556 2.422 1.678.633 3.333 1.244 5.011 1.144s3.456-.655 4.978-1.433 3.011-1.811 4.111-3.178 1.267-3.089 1.733-4.822c.9-3.378 1.778-3.144 2.678-6.522.567-2.134 1.289-3.9 2.589-5.3 1.422-1.523 2.967-3 4.878-3.623 1.91-.622 4.089-.433 6.1-.122s3.833 1.1 5.489 2.378c1.51 1.178 2.766 2.711 3.677 4.722 1.434 3.19 1.656 3.09 3.09 6.267.733 1.644 1.655 3.111 2.9 4.222s2.8 2.167 4.433 2.7 3.4.289 5.144.1 3.178-.744 4.745-1.644c3.022-1.756 3.055-1.69 6.088-3.434 1.912-1.1 4.012-1.733 5.923-1.81 2.089-.078 4.111.744 5.911 1.655 1.8.91 3.166 2.444 4.366 4.089 1.2 1.644 2.045 3.378 2.3 5.455.245 1.9.389 3.978-.388 6.045-1.245 3.266-1.845 3.033-3.089 6.3-.634 1.678-.656 3.578-.556 5.255s.445 3.59 1.233 5.111c.789 1.523 2.112 2.845 3.467 3.934 1.356 1.089 2.967 1.633 4.711 2.089 3.378.9 3.245 1.377 6.622 2.277 2.134.567 3.712 1.534 5.112 2.845 1.522 1.422 3.333 2.744 3.966 4.644.634 1.9.578 4.19.256 6.2-.322 2.011-1.334 3.856-2.611 5.5a12.5 12.5 0 0 1-4.745 3.734c-3.189 1.433-3.322 1.144-6.5 2.577-1.644.734-3.233 1.778-4.355 3.023-1.123 1.244-1.367 3.233-1.889 4.866-.522 1.634-1.289 3.3-1.111 5.034s.922 3.322 1.822 4.877z"/><path fill="#000" d="M126.076 107.052c.856 1.455 1.889 2.744 2.844 4.133 1.312 1.9 1.956 3.7 2.1 5.989.256 4.111-1.688 8.578-5.222 10.867-1.878 1.211-3.966 1.8-6.155 1.255-1.945-.489-3.767-1.344-5.745-1.755s-3.811-1.245-5.755-1.767c-2.434-.655-4.923-.455-7.3.333-2.034.667-4.167 1.745-5.845 3.078-1.678 1.334-2.6 3.156-3.278 5.145-1.222 3.6-1.41 7.666-3.11 11.089-1.912 3.855-6.612 5.766-10.767 4.988-2.011-.377-3.911-1.244-5.09-2.966-1.177-1.722-1.766-3.711-2.866-5.456-.922-1.455-1.678-2.922-2.478-4.466-.989-1.912-2.377-3.378-3.966-4.8-1.767-1.578-3.622-2.812-6.023-3.1s-4.955-.023-7.144.711c-1.956.655-3.633 1.866-5.489 2.722-1.611.744-3.178 1.667-4.8 2.367-3.722 1.622-8.444.588-11.266-2.289-1.345-1.367-2.634-3.356-3-5.256-.456-2.311.1-4.755.988-6.889.611-1.478 1.434-2.866 2.056-4.344.967-2.322 1.055-4.367.944-6.845-.1-2.344.056-4.511-1.377-6.522-1.223-1.733-3.034-3.289-4.834-4.4-3.266-2.022-7.389-2.722-11.077-3.722-4.134-1.122-7.3-4.544-7.59-8.9-.133-2.089.245-4.411.978-6.378.79-2.111 2.123-3.066 4.111-3.933 1.7-.745 3.356-1.511 4.956-2.445 1.7-.989 3.589-1.666 5.189-2.822 1.6-1.155 3.156-2.878 4.255-4.589 1.378-2.133 1.623-4.31 1.334-6.789-.267-2.3-.522-4.522-1.656-6.588-.766-1.412-1.633-2.778-2.455-4.156-.534-.9-1.145-1.789-1.534-2.756-.433-1.088-.533-2.31-.6-3.466-.122-2.222-.044-4.5 1.045-6.5.966-1.79 2.389-3.611 4.3-4.456 1.91-.844 4.344-1.1 6.378-1.089 1.788 0 3.566.978 5.233 1.578 2.067.745 4.111 1.656 6.255 2.167 4.378 1.033 9.423-.778 12.645-3.823 1.644-1.544 2.333-3.31 2.844-5.466.434-1.8 1.134-3.2 1.923-4.834.877-1.81 1.122-3.855 2.044-5.644s2.5-3.389 4.189-4.411c3.4-2.056 8.611-.378 11.111 2.378 1.389 1.533 2.056 3.477 3 5.289.811 1.555 1.544 3.144 2.333 4.7 2.078 4.077 6.3 7.366 10.945 7.71 2.278.167 4.8-.144 6.955-.877 1.9-.645 3.589-1.789 5.345-2.744 3.478-1.923 6.944-4.478 11.033-2.834 4.089 1.645 6.689 5.522 7.089 9.8.211 2.322-.222 4.422-1.344 6.467-.845 1.544-1.745 3-2.312 4.689-1.4 4.166-.477 9.678 2.289 13.078 1.367 1.677 3.134 3.1 5.1 4.022 1.967.922 3.956 1.2 5.867 1.989 1.7.7 3.5 1.11 5.2 1.81s3.178 2.1 4.544 3.4c1.589 1.534 2.134 3.2 2.123 5.412 0 2.378-.634 4.555-1.956 6.533-1.2 1.789-2.733 3.189-4.7 4.1-1.467.678-3 1.167-4.511 1.733-2.011.767-4.022 1.712-5.689 3.09s-2.489 3.022-3.044 5.11c-.556 2.09-1.523 4.012-1.567 6.123-.044 2.222.922 4.344 2 6.244s5.7 1.467 4.389-.844c-1.245-2.189-2.045-4.256-1.322-6.756.3-1.022.7-2 .977-3.022.278-1.022.456-2.122 1.023-3.033 2.022-3.256 6.822-3.99 10.1-5.423 4.144-1.822 7.7-5.477 8.666-10.022.489-2.267.545-4.889-.166-7.111-.645-2-2.1-3.422-3.634-4.789-1.655-1.478-3.266-2.833-5.344-3.689-1.745-.71-3.578-1.155-5.333-1.866-1.978-.8-4.223-1.056-6.078-2.123-1.856-1.066-3.434-2.9-4.1-4.877-.745-2.212-.9-4.923-.4-7.2.4-1.834 1.433-3.312 2.311-4.934 2.211-4.133 2.344-9.244.044-13.4-2.3-4.155-6.077-7.122-10.744-8.255s-8.878 1.078-12.978 3.344c-1.722.956-3.422 2.133-5.278 2.8-2.01.722-4.755 1.045-6.7.034-3.71-1.934-5-5.878-6.8-9.378-1.01-1.967-1.8-3.945-3.244-5.656s-3.467-3.133-5.578-3.989c-4.255-1.733-9.778-2.033-13.655.69-1.7 1.188-3.4 2.877-4.39 4.71-.988 1.834-1.266 4.056-2.221 5.967-.845 1.7-1.645 3.244-2.1 5.111-.567 2.311-1.167 3.889-3.156 5.333-1.678 1.223-4.022 2.378-6.145 2.2s-4.055-1.266-5.955-1.955-3.822-1.622-5.822-1.933c-2.467-.39-5.145 0-7.578.477-4.567.911-8.189 4.211-9.644 8.645-.712 2.177-.656 4.61-.456 6.866.211 2.434 1.167 4.356 2.389 6.423.9 1.51 1.9 3.01 2.678 4.589.477.966.7 2 .844 3.066.189 1.322.445 2.733.4 4.067-.089 2.333-1.811 4.433-3.433 5.978-1.623 1.544-3.423 2.144-5.256 3.177-1.544.878-3.089 1.7-4.733 2.4-1.934.834-3.878 1.7-5.167 3.445C-.08 79.619-.69 85.474.798 89.463c1.634 4.367 5.545 7.433 9.911 8.745 3.678 1.1 8.045 1.566 11.1 4.011 1.8 1.444 3.023 2.766 3.123 5.155s.4 5.111-.545 7.489c-.622 1.556-1.489 3-2.133 4.544-.956 2.3-1.522 4.612-1.411 7.123.2 4.366 3.566 8.589 7.233 10.711 4.178 2.411 9.2 3.122 13.833 1.555 1.834-.622 3.511-1.744 5.29-2.522 1.922-.855 3.666-2.222 5.677-2.833 1.845-.567 4.356-.867 5.978.333s3.1 2.667 4.033 4.422c.867 1.634 1.689 3.211 2.656 4.789 1.133 1.834 1.789 3.9 3.033 5.678 2.822 4.044 8.233 5.711 13 5.333 4.478-.355 9.278-2.577 11.356-6.744 1.755-3.522 2.11-7.556 3.255-11.289.667-2.211 1.711-3.911 3.745-5.078 1.833-1.066 4.077-2.244 6.266-2.033s4.289 1.444 6.456 1.922c1.989.433 3.833 1.211 5.8 1.745 4.711 1.277 9.866-.178 13.2-3.778 3.144-3.389 4.466-7.811 3.989-12.345-.434-4.1-3.2-6.766-5.189-10.144-.589-1.011-1.967-1.478-3.089-1.245-.933.2-1.9 1.078-1.3 2.1z"/><path fill="#F3E7D3" d="M136.943 107.785c1.755 3.022 3.333 2.1 5.089 5.134 2.922 5.044.144 11.211-3.012 14.922-3.155 3.711-7.766 4.744-13.211 2.678-3.266-1.245-3.555-.489-6.822-1.723-6.867-2.6-14.544 1.623-16.433 8.711-.9 3.378-2.234 3.023-3.134 6.401-1.5 5.633-4.766 10.022-9.61 10.411-4.845.389-9.612-3.034-12-8.356-1.434-3.189-1.745-3.044-3.178-6.233-3.012-6.7-12.09-10.8-18.445-7.122-3.022 1.755-2.478 2.688-5.5 4.433-5.044 2.922-10.133 2.367-13.833-.778s-6.567-8.656-4.5-14.1c1.244-3.267 2.066-2.955 3.3-6.222 2.6-6.867-1.222-14.522-8.311-16.411-3.378-.9-3.5-.434-6.878-1.334-5.633-1.5-7.367-6.633-7.756-11.466-.389-4.834.234-10.756 5.545-13.145 3.189-1.433 3.355-1.066 6.533-2.5 6.7-3.01 10.978-11.377 7.3-17.733-1.755-3.022-3.555-1.978-5.3-5-2.922-5.044-2.689-11.8.456-15.5s9.61-4.578 15.055-2.5c3.267 1.244 2.79 2.5 6.056 3.744 6.866 2.6 16-2.288 17.9-9.388.9-3.378-.2-3.667.7-7.045 1.5-5.633 6.033-10.611 10.878-11s11.722 3.067 14.122 8.378c1.433 3.189-.078 3.866 1.355 7.055 3.011 6.7 10.123 7.9 16.478 4.223 3.022-1.756 4.556.889 7.578-.856 5.044-2.922 10.078-3.267 13.778-.122s5.933 8.844 3.855 14.289c-1.244 3.266-1.489 3.177-2.722 6.444-2.6 6.867 1.222 13.622 8.311 15.511 3.378.9 3.556.234 6.933 1.134 5.634 1.5 8.945 7.5 9.334 12.344s-1.745 11.656-7.056 14.045c-3.189 1.433-4.555-1.6-7.733-.167-6.7 3.011-8.789 12.522-5.122 18.878z"/><mask id="a" width="145" height="149" x="12" y="6" maskUnits="userSpaceOnUse" style="mask-type:luminance"><path fill="#fff" d="M136.943 107.785c1.755 3.022 3.333 2.1 5.089 5.134 2.922 5.044.144 11.211-3.012 14.922-3.155 3.711-7.766 4.744-13.211 2.678-3.266-1.245-3.555-.489-6.822-1.723-6.867-2.6-14.544 1.623-16.433 8.711-.9 3.378-2.234 3.023-3.134 6.401-1.5 5.633-4.766 10.022-9.61 10.411-4.845.389-9.612-3.034-12-8.356-1.434-3.189-1.745-3.044-3.178-6.233-3.012-6.7-12.09-10.8-18.445-7.122-3.022 1.755-2.478 2.688-5.5 4.433-5.044 2.922-10.133 2.367-13.833-.778s-6.567-8.656-4.5-14.1c1.244-3.267 2.066-2.955 3.3-6.222 2.6-6.867-1.222-14.522-8.311-16.411-3.378-.9-3.5-.434-6.878-1.334-5.633-1.5-7.367-6.633-7.756-11.466-.389-4.834.234-10.756 5.545-13.145 3.189-1.433 3.355-1.066 6.533-2.5 6.7-3.01 10.978-11.377 7.3-17.733-1.755-3.022-3.555-1.978-5.3-5-2.922-5.044-2.689-11.8.456-15.5s9.61-4.578 15.055-2.5c3.267 1.244 2.79 2.5 6.056 3.744 6.866 2.6 16-2.288 17.9-9.388.9-3.378-.2-3.667.7-7.045 1.5-5.633 6.033-10.611 10.878-11s11.722 3.067 14.122 8.378c1.433 3.189-.078 3.866 1.355 7.055 3.011 6.7 10.123 7.9 16.478 4.223 3.022-1.756 4.556.889 7.578-.856 5.044-2.922 10.078-3.267 13.778-.122s5.933 8.844 3.855 14.289c-1.244 3.266-1.489 3.177-2.722 6.444-2.6 6.867 1.222 13.622 8.311 15.511 3.378.9 3.556.234 6.933 1.134 5.634 1.5 8.945 7.5 9.334 12.344s-1.745 11.656-7.056 14.045c-3.189 1.433-4.555-1.6-7.733-.167-6.7 3.011-8.789 12.522-5.122 18.878z"/></mask><g fill="#000" stroke="#000" stroke-miterlimit="10" stroke-width=".86" mask="url(#a)"><path d="M158.498 150.052c-.7-.011-1.266.555-1.278 1.267 0 .644.645 1.255 1.323 1.255.633 0 1.144-.578 1.166-1.3.011-.711-.477-1.2-1.2-1.222zM159.809 145.241c.012-.689-.577-1.289-1.244-1.278-.633.011-1.244.667-1.244 1.322 0 .611.688 1.256 1.311 1.245.622-.011 1.166-.611 1.177-1.289ZM155.809 10.841c0-.656-.444-1.167-1.055-1.189-.656-.022-1.145.478-1.156 1.178-.011.666.445 1.155 1.067 1.166.689.023 1.133-.444 1.144-1.155ZM154.554 24.163c.644-.011 1.066-.478 1.055-1.167 0-.7-.489-1.2-1.155-1.166-.634.022-1.089.555-1.056 1.255.022.667.478 1.09 1.156 1.078ZM153.598 76.819c-.633-.012-1.1.455-1.122 1.122-.022.7.445 1.222 1.089 1.233.622 0 1.111-.489 1.122-1.133.011-.722-.422-1.211-1.089-1.222ZM152.154 96.263c-.023.667.411 1.167 1.044 1.2.645.033 1.145-.433 1.167-1.078.033-.722-.4-1.244-1.045-1.278-.644-.033-1.155.467-1.177 1.145zM153.165 103.574c.666 0 1.1-.433 1.111-1.111 0-.711-.456-1.222-1.111-1.222-.667 0-1.111.478-1.111 1.211 0 .667.444 1.122 1.111 1.122ZM155.087 53.597c.011-.734-.4-1.2-1.089-1.2-.655 0-1.1.444-1.122 1.122s.478 1.222 1.111 1.222 1.089-.467 1.1-1.145ZM153.509 82.952c-.655-.022-1.144.478-1.144 1.189 0 .644.422 1.11 1.033 1.144.7.034 1.156-.41 1.178-1.144.022-.678-.422-1.178-1.067-1.19ZM151.743 120.685c-.023.634.444 1.189 1.044 1.234s1.167-.512 1.178-1.178c.011-.678-.478-1.211-1.111-1.222-.589 0-1.089.511-1.111 1.166ZM153.443 151.219c.022-.667-.434-1.178-1.067-1.212-.633-.022-1.156.523-1.156 1.2 0 .656.467 1.145 1.123 1.145.677 0 1.077-.422 1.1-1.145zM152.432 143.974c-.623 0-1.078.478-1.1 1.167-.023.678.422 1.155 1.077 1.166.678.023 1.145-.466 1.145-1.177 0-.645-.489-1.145-1.122-1.156ZM153.743 132.874c0-.689-.423-1.133-1.078-1.155-.667-.022-1.134.478-1.134 1.178 0 .655.456 1.144 1.089 1.155.656.011 1.123-.467 1.123-1.189zM152.787 125.674c-.667-.011-1.144.478-1.144 1.178 0 .667.433 1.144 1.077 1.167.656.022 1.123-.456 1.145-1.167.011-.656-.445-1.167-1.078-1.178ZM154.054 114.585c0-.733-.4-1.155-1.078-1.155-.7 0-1.144.466-1.133 1.2.011.655.511 1.166 1.133 1.144.645-.022 1.089-.5 1.078-1.178zM154.476 90.163c.011-.667-.433-1.144-1.089-1.167-.644-.022-1.1.434-1.133 1.134s.444 1.2 1.133 1.2c.645 0 1.067-.445 1.089-1.167ZM154.776 71.896c0-.677-.422-1.189-1.022-1.222-.678-.033-1.189.489-1.189 1.222 0 .645.5 1.145 1.111 1.145.644 0 1.089-.467 1.1-1.145ZM154.898 65.674c-.022-.644-.522-1.133-1.155-1.11-.634.022-1.1.577-1.067 1.277.033.633.489 1.067 1.122 1.056.667 0 1.122-.512 1.1-1.223ZM154.643 15.785c-.622-.022-1.1.445-1.134 1.111-.033.734.389 1.212 1.067 1.234.667.011 1.133-.433 1.145-1.089.011-.722-.412-1.211-1.078-1.245zM155.209 47.419c0-.656-.455-1.156-1.089-1.167-.666 0-1.133.489-1.133 1.2 0 .667.456 1.144 1.089 1.156.655 0 1.122-.49 1.133-1.19ZM151.954 108.43c-.022.689.389 1.166 1.055 1.189.689.022 1.156-.445 1.167-1.167.011-.656-.478-1.178-1.1-1.178-.644 0-1.089.456-1.122 1.156ZM154.998 59.752c.022-.7-.444-1.244-1.089-1.244-.611 0-1.1.5-1.122 1.155-.022.667.422 1.167 1.056 1.2.622.034 1.133-.455 1.155-1.111ZM154.243 42.552c.644-.011 1.066-.478 1.055-1.178 0-.711-.466-1.178-1.155-1.156-.645.023-1.089.545-1.056 1.256.034.667.489 1.089 1.156 1.078ZM154.332 34.074c-.634-.022-1.145.522-1.145 1.2 0 .656.411 1.111 1.034 1.133.666.034 1.144-.41 1.177-1.077.034-.711-.411-1.245-1.066-1.267zM152.543 137.852c-.645 0-1.089.455-1.1 1.144-.012.678.433 1.178 1.066 1.189.645.011 1.134-.466 1.145-1.122 0-.733-.423-1.211-1.111-1.222zM154.432 27.963c-.645-.033-1.112.422-1.156 1.111-.033.667.456 1.211 1.122 1.223.622.022 1.067-.456 1.1-1.156.022-.667-.411-1.156-1.078-1.178zM149.609 10.763c0-.666-.333-1.044-.966-1.067-.667-.022-1.067.367-1.067 1.045 0 .644.355 1 1.022 1.011.656.011 1-.322 1.011-1zM148.009 48.352c.667 0 1-.333 1-1.011 0-.611-.4-1.022-1.011-1.033-.633 0-1.055.4-1.044 1 .011.7.355 1.033 1.066 1.044zM147.209 95.163c-.677-.022-1.044.322-1.089 1.011-.033.622.345 1.022.989 1.045.611.022 1.011-.322 1.056-.911.044-.69-.322-1.134-.956-1.156zM147.565 70.74c-.644 0-1.011.379-1.022 1.012 0 .678.378 1.044 1.066 1.033.656 0 .978-.355.967-1.044-.011-.667-.355-1.011-1.011-1.011zM146.543 131.763c-.678 0-1.045.378-1.034 1.078 0 .644.345.956 1.067.967.678 0 .978-.311.967-1.023 0-.688-.334-1.011-1-1.011zM146.598 125.719c-.589.011-1.011.411-1 .978 0 .711.389 1.088 1.123 1.077.633 0 .966-.389.944-1.066-.022-.623-.433-1-1.067-.978zM147.976 54.496c.578-.01.922-.41.911-1.033-.022-.711-.389-1.056-1.078-1.033-.644.033-.977.4-.955 1.078.011.644.422 1.01 1.122.988ZM148.076 102.374c0-.655-.422-1.111-1.033-1.1-.6 0-1.023.433-1.034 1.033 0 .634.422 1.056 1.089 1.056.567 0 .978-.411.978-.989ZM146.254 152.108c.722 0 .966-.223.978-.934.011-.722-.345-1.122-.989-1.122-.656 0-1.056.411-1.045 1.089 0 .655.345.955 1.056.967ZM147.454 138.974c0-.655-.434-1.122-1.034-1.122-.622 0-1.055.467-1.044 1.122 0 .6.444.978 1.089.978.622 0 .978-.355.989-.978ZM148.52 17.874c.623 0 .989-.344 1-.944.012-.667-.4-1.122-1.022-1.122-.633 0-1.055.444-1.044 1.1 0 .622.378.955 1.078.966zM148.32 30.063c.645 0 .978-.344.978-1.033 0-.634-.389-1.022-1.011-1.022-.633 0-1.011.389-1.022 1.022 0 .7.333 1.033 1.055 1.033ZM147.298 91.085c.656 0 .978-.333.978-1.033 0-.622-.4-1.022-1.022-1.022s-1.022.4-1.022 1.022c0 .711.322 1.022 1.066 1.033ZM146.865 113.463c-.689-.011-1.056.356-1.044 1.056 0 .622.388.977 1.044.989.611 0 .989-.345 1-.934 0-.722-.322-1.1-.989-1.111zM146.331 146.074c.634.011.989-.311 1.023-.922.033-.678-.367-1.122-.989-1.133-.645 0-1.056.366-1.078.977-.022.656.378 1.056 1.056 1.078zM147.343 85.041c.666.022 1.033-.322 1.044-.967.011-.633-.367-1.066-.955-1.078-.689-.022-1.089.356-1.1 1.023-.012.622.377 1 1.022 1.022zM147.676 66.652c.655.011 1.011-.333 1.011-1 0-.622-.4-1.044-1-1.056-.622-.01-1.067.4-1.067.99 0 .666.378 1.055 1.067 1.066zM149.109 41.33c0-.633-.389-1.067-.966-1.078-.667-.022-1.089.389-1.089 1.033 0 .634.377 1.012 1.022 1.023.644.022 1.033-.356 1.044-.978zM148.409 21.852c-.622 0-1.044.4-1.055 1.022-.011.634.433 1.078 1.089 1.067.577 0 .977-.422.966-1.022 0-.634-.411-1.067-1-1.078zM146.92 109.374c.678.022 1.012-.289 1.034-.955.022-.623-.367-1.067-.956-1.078-.633-.022-1.078.355-1.1.955-.022.678.334 1.067 1.011 1.089zM147.454 78.896c.622.023 1.011-.322 1.033-.91.022-.645-.4-1.145-.989-1.167-.611-.023-1.066.433-1.077 1.066-.023.611.366.978 1.044 1zM146.798 121.652c.6 0 .967-.367.967-.978 0-.6-.422-1.089-.967-1.111-.6-.022-1.078.444-1.1 1.067-.011.611.422 1.033 1.1 1.033zM147.765 60.608c.633.01 1-.311 1.033-.923.034-.644-.411-1.133-1.022-1.133-.622 0-1.022.411-1.044 1.044-.011.645.355 1 1.033 1.012ZM148.209 36.163c.622 0 .989-.333.989-.944 0-.678-.378-1.1-1.011-1.1-.656 0-1.022.377-1.022 1.066 0 .634.355.956 1.044.967zM141.754 114.474c.022-.522-.445-1-.978-1.022-.511-.011-.9.389-.911.967 0 .577.311.911.867.911.544 0 .989-.211 1.022-.867zM141.809 46.285c-.488.067-.777.4-.822.945-.033.555.378.989.9.978.578-.011.989-.39.989-.911 0-.534-.467-1-1.078-1.012zM142.476 71.63c0-.478-.522-.956-1.044-.922-.478.022-.878.522-.856 1.055.033.589.389.856.933.844.578-.022.934-.31.956-.966zM141.398 76.852c-.5-.011-.911.4-.922.967 0 .578.311.877.878.91.522.034 1-.388 1.022-.866.022-.533-.433-1-.978-1.011ZM141.82 52.419c-.5-.023-.911.389-.922.955 0 .567.267.9.845.922.555.023 1.011-.355 1.033-.844.022-.522-.433-1.011-.967-1.033zM143.087 35.13a1 1 0 0 0-.978-1.011c-.522 0-.9.389-.911.977 0 .59.334.878.889.912.556.033 1-.367 1.011-.878zM140.376 137.874c-.5-.022-.922.389-.933.956-.022.589.3.877.855.922.545.044 1.023-.356 1.045-.833.022-.512-.456-1.023-.956-1.045zM139.554 132.763c0 .489.3.811.855.867.534.055 1.011-.345 1.034-.845.033-.577-.423-1.044-1.012-1.044-.466 0-.855.422-.866 1.022zM140.443 125.707c-.478.067-.767.4-.789.945s.422 1 .922.955c.556-.044.967-.288.967-.922 0-.544-.467-.989-1.1-.978ZM141.854 108.285a.953.953 0 0 0-1.034-.944c-.577.033-.844.4-.855.944 0 .578.378.978.922.934.556-.045.945-.3.956-.934zM141.72 58.552c-.533-.011-.944.4-.933.956s.3.9.867.933c.544.033.989-.355 1.011-.867.022-.533-.422-1.022-.956-1.033zM139.332 144.997c.044.477.255.866.844.911.544.044 1.011-.334 1.044-.834a.98.98 0 0 0-.911-1.055c-.522-.045-.944.355-.966.978zM141.954 102.252c0-.522-.489-.978-1.011-.967-.489.011-.911.478-.889 1.023.022.588.4.844.933.866.511.022.978-.422.978-.911zM141.321 82.985a.91.91 0 0 0-.956.934c0 .544.289.9.856.966.5.056 1-.389 1.033-.855a.986.986 0 0 0-.933-1.045ZM140.698 119.585c-.522-.022-.933.378-.933.945 0 .566.278.9.844.944.523.045 1-.366 1.023-.844a1 1 0 0 0-.934-1.045ZM143.498 10.697c0-.523-.466-1.023-.989-1.023-.489 0-.9.456-.9 1 0 .59.323.878.878.9.567.023 1-.366 1-.877zM143.398 16.852c.011-.556-.4-1-.955-1.011-.5-.011-.923.389-.934.944 0 .578.322.878.867.934.511.055 1.011-.39 1.022-.856zM142.565 65.608a.984.984 0 0 0-.967-1.012c-.589 0-.855.378-.922.9-.067.523.367.99.878 1 .566 0 .989-.355 1.011-.877zM141.109 95.141c-.488-.022-.922.4-.933.956-.011.566.267.9.845.933.588.033 1.011-.322 1.033-.834.022-.544-.411-1.033-.945-1.055ZM141.387 22.93c.045.489.356.789.911.822.534.033 1-.389 1-.889 0-.522-.466-.989-.989-1-.5 0-.9.433-.922 1.056zM142.009 40.252c-.533 0-.944.456-.911 1.055.034.556.389.8.889.834.534.044.989-.389 1-.878 0-.544-.433-1.011-.978-1.011ZM140.098 150.063c-.489 0-.866.467-.844 1.034.011.522.411.911.922.855.533-.055.967-.278.956-.933-.011-.545-.467-.967-1.023-.956zM142.221 27.985c-.512-.022-.889.378-.912.978-.011.578.256.889.845.9.622.011 1-.3 1.022-.844a.97.97 0 0 0-.955-1.023zM141.165 89.03c-.522 0-.9.444-.889 1.01.022.59.356.856.922.856.611 0 .967-.366.945-.933a.98.98 0 0 0-.978-.933ZM136.387 21.852c-.689-.022-.978.3-1.011.822-.033.545.278.845.822.878.589.033.811-.344.834-.856.022-.51-.256-.8-.645-.844ZM136.009 46.252c-.833.055-1.077.433-1.044.922.033.545.4.845.978.8.589-.055.766-.533.655-.966-.078-.323-.444-.59-.589-.756ZM135.265 28.83c0 .5.433.922.922.878.511-.045.745-.39.745-.867 0-.522-.245-.867-.823-.856-.544 0-.822.312-.855.856zM135.909 89.852c0-.478-.233-.789-.744-.845a.845.845 0 0 0-.945.845c0 .544.334.833.845.867.567.033.8-.323.844-.867ZM135.576 10.485c-.011.612.344.867.833.89.522.021.834-.278.834-.845 0-.545-.278-.856-.823-.856s-.811.323-.844.811ZM135.987 40.219c-.611.01-.911.31-.922.844 0 .545.333.867.844.867.534 0 .811-.334.811-.889 0-.533-.288-.789-.733-.822ZM135.643 64.597c-.734-.045-.967.344-1 .833-.045.555.355.833.855.866.523.034.789-.333.811-.81.034-.534-.244-.856-.666-.878zM135.798 95.963c-.022-.555-.289-.822-.855-.822-.6 0-.8.389-.823.866-.022.545.389.823.878.834.556.022.767-.389.8-.878ZM134.131 144.008c-.588 0-.811.366-.822.866-.022.567.378.822.878.834.522 0 .778-.356.789-.845.011-.533-.267-.855-.845-.855ZM134.809 101.252c-.444 0-.744.3-.766.822-.034.533.255.856.8.878.555.022.833-.278.855-.811.022-.545-.222-.856-.889-.878zM135.176 132.585c.011-.566-.278-.833-.822-.844-.545 0-.834.3-.845.833-.011.567.345.845.845.856.522.011.822-.3.822-.856zM135.298 126.53c-.055-.522-.289-.834-.811-.845-.511-.011-.933.411-.878.9.067.511.367.811.9.811.623 0 .689-.455.789-.866ZM133.821 114.363c.011.511.388.778.877.789s.778-.311.789-.822c.011-.523-.189-.889-.766-.9-.578 0-.867.311-.9.933ZM134.82 109.008c.612 0 .745-.423.767-.9.011-.511-.278-.789-.789-.8-.555 0-.833.322-.878.822-.055.478.389.878.912.867zM134.876 150.908c0-.578-.289-.878-.833-.878-.545 0-.845.344-.845.855 0 .534.345.834.856.856.566.022.789-.345.822-.833ZM137.198 16.863c-.122-.71-.3-1.11-.877-1.089-.545.023-.823.356-.856.867-.033.478.467.967.922.833.334-.1.6-.444.811-.622zM135.32 78.54c.567-.021.778-.388.778-.888 0-.478-.244-.844-.767-.833-.544 0-.911.31-.888.888.022.523.344.8.877.845zM134.543 71.53c-.011.544.289.833.8.867.533.033.844-.256.866-.812.023-.544-.244-.866-.788-.888-.545-.023-.834.266-.878.822zM136.832 35.219c0-.8-.267-1.111-.823-1.123-.566-.01-.8.356-.877.845-.056.433.477.989.922.866.333-.1.6-.444.767-.577zM136.643 53.485c-.122-.7-.3-1.055-.889-1.078-.567-.022-.933.312-.911.856.011.556.389.889.866.833.334-.033.623-.4.934-.61ZM134.187 137.863c-.578.044-.811.422-.778.933.034.545.411.811.934.767.522-.044.766-.411.733-.889-.033-.511-.322-.844-.889-.8zM134.554 119.585c-.578-.044-.822.323-.822.834 0 .544.344.844.866.844.556 0 .789-.389.789-.911 0-.511-.278-.789-.822-.767zM136.431 59.33c-.066-.49-.288-.778-.833-.79-.6-.01-.833.356-.844.845-.011.534.322.845.855.845.567 0 .756-.4.811-.9zM135.243 82.963c-.6 0-.867.322-.9.833-.023.545.3.856.833.867.511.011.811-.3.833-.8.023-.522-.244-.856-.766-.911zM128.998 35.008c.289.2.545.51.867.577.478.09.756-.244.767-.722 0-.478-.289-.822-.745-.755-.311.044-.589.366-.878.566v.345zM127.965 96.019c.278.21.533.533.844.6.467.1.845-.256.745-.711-.067-.311-.422-.712-.711-.767-.245-.044-.578.344-.867.544 0 .111 0 .223-.011.334ZM127.754 108.174c.278.222.533.567.844.622.445.078.767-.233.789-.722s-.255-.822-.722-.766c-.311.044-.6.333-.9.522v.344zM127.954 137.719c-.2.289-.511.566-.567.878-.067.433.189.777.711.777.5 0 .811-.3.745-.744-.045-.322-.356-.6-.556-.9h-.344zM129.421 10.608c.288.2.566.51.877.555.467.067.734-.289.734-.767 0-.488-.323-.8-.767-.722-.311.056-.578.378-.856.59v.333zM128.487 53.096c.478.367.722.7 1.033.767.456.111.767-.211.789-.689.034-.522-.311-.844-.778-.8-.288.033-.555.367-1.044.711zM130.409 15.785c-.788-.022-.977.323-.977.767 0 .467.244.756.755.745.489-.023.811-.312.722-.767-.066-.311-.388-.578-.5-.745ZM127.031 150.919c.278.211.545.533.856.6.456.089.767-.234.767-.711 0-.467-.256-.834-.734-.756-.311.044-.6.344-.889.533zM129.198 22.708c.278.21.533.544.833.61.445.09.767-.21.8-.7.034-.488-.266-.822-.722-.777-.311.033-.6.333-.9.511l-.022.355zM129.754 27.84c-.178.3-.467.59-.5.912-.045.444.233.756.755.722.5-.033.789-.344.7-.778-.066-.31-.4-.577-.611-.855zM127.565 120.463c.278.2.544.522.855.578.456.078.756-.234.767-.722 0-.489-.311-.8-.744-.756-.311.033-.578.367-.867.556v.344zM128.931 76.697c-.177.3-.466.588-.511.9-.055.444.234.766.745.733.489-.034.8-.334.711-.789-.067-.311-.389-.578-.6-.867-.111 0-.233 0-.345.011zM130.432 47.252c-.023-.755-.334-.978-.789-.989-.511-.01-.734.311-.734.767 0 .455.256.833.745.733.322-.066.589-.378.767-.51zM128.154 125.552c-.2.267-.522.522-.567.811-.078.467.167.845.722.833.478-.011.823-.288.745-.755-.056-.322-.378-.589-.578-.889zM128.665 115.052c.211-.289.533-.545.6-.856.1-.511-.3-.844-.767-.766-.278.044-.633.422-.689.711-.089.422.189.766.856.911ZM127.854 102.119c.278.211.522.544.833.622.445.1.778-.2.8-.689.022-.478-.255-.822-.711-.789-.311.034-.6.322-.9.5 0 .111-.011.234-.022.345zM128.076 89.908c.289.2.544.5.867.566.477.1.744-.255.766-.71.011-.479-.289-.812-.744-.757-.311.045-.589.356-.878.545v.344zM129.076 70.574c-.189.29-.5.567-.555.878-.078.444.222.756.722.767.5 0 .811-.29.744-.745-.044-.322-.366-.589-.555-.889h-.345zM129.598 64.563c-.789-.022-.978.322-.978.767 0 .478.245.755.745.744.489 0 .8-.311.722-.766-.056-.312-.378-.59-.489-.745ZM127.143 144.874c.277.2.544.511.855.578.478.111.756-.233.767-.7.011-.478-.256-.822-.722-.755-.312.044-.589.344-.878.522 0 .122 0 .233-.011.355zM128.898 41.13c.289.2.545.51.856.578.466.088.755-.245.766-.723.012-.477-.288-.81-.744-.755-.311.044-.589.366-.878.555zM128.865 82.83c-.189.289-.478.555-.533.878-.078.455.211.744.722.744.5 0 .8-.289.733-.744-.055-.311-.366-.59-.566-.878h-.356ZM127.343 132.63c.289.2.544.511.855.577.478.1.756-.222.767-.7.011-.477-.256-.822-.733-.755-.311.044-.589.344-.889.522zM129.32 58.385c-.2.278-.522.534-.588.845-.089.433.166.778.677.778.489 0 .823-.256.778-.712-.033-.31-.344-.6-.522-.9h-.345zM123.887 71.23c-.244-.19-.455-.5-.722-.556-.433-.089-.7.267-.645.656.045.255.334.622.556.655.233.045.522-.255.789-.41 0-.112.011-.234.022-.345ZM122.843 132.196c-.245-.166-.534-.511-.734-.466-.255.055-.622.422-.622.655s.378.6.633.645c.2.033.478-.311.723-.489v-.34500000000000003ZM124.809 16.319c-.244-.178-.466-.467-.744-.522-.422-.078-.7.255-.622.644.044.256.344.6.566.633.245.022.523-.266.778-.422 0-.111.011-.222.022-.333ZM123.054 120.041c-.245-.167-.5-.478-.745-.467-.222.011-.622.389-.6.567.034.267.323.633.578.7.2.044.5-.289.756-.456v-.344zM121.776 95.785c.444.312.656.59.911.634.389.055.656-.178.667-.634 0-.444-.245-.71-.645-.655-.266.044-.5.333-.944.655zM124.376 40.696c-.256-.166-.544-.51-.756-.466-.255.055-.566.422-.6.689-.022.177.367.566.6.589.234.022.5-.3.745-.478v-.334zM123.676 83.507c-.233-.188-.489-.555-.711-.533-.245.022-.6.367-.645.622-.033.19.311.611.534.645.233.044.522-.256.789-.4 0-.111.022-.222.022-.334zM122.443 101.141c-.156.244-.478.522-.445.744.045.267.367.612.611.667.378.078.7-.222.6-.655-.066-.278-.322-.512-.489-.767-.1 0-.188.011-.288.022zM124.909 10.152c-.255-.167-.511-.478-.755-.467-.223.011-.556.345-.611.59-.089.355.111.755.577.688.278-.044.523-.289.778-.455v-.345zM123.776 21.719c-.156.266-.444.555-.422.81.022.234.378.423.589.645.211-.233.566-.444.6-.7.033-.233-.289-.51-.456-.767-.111 0-.211 0-.322.012zM122.732 150.574c-.478-.266-.723-.511-.978-.533-.434-.045-.622.289-.589.7s.278.711.7.589c.267-.078.467-.389.878-.756zM122.932 28.63c.422.322.7.678.911.644.244-.044.589-.433.589-.678 0-.21-.378-.555-.645-.61-.189-.034-.455.31-.867.633zM122.732 138.341c-.256-.167-.523-.489-.767-.467-.222.022-.578.4-.578.622 0 .223.345.611.567.634.244.022.522-.278.778-.445zM122.876 34.696c.344.323.533.645.778.69.422.088.7-.167.733-.645.022-.467-.278-.7-.644-.667-.256.022-.478.322-.867.611zM122.62 46.974c.445.3.689.578.934.59.444.032.722-.323.578-.745-.078-.245-.434-.556-.645-.545-.244.022-.467.356-.878.7zM123.454 107.963c-.456-.322-.7-.644-.956-.644-.211 0-.611.411-.578.577.045.267.345.6.6.689.178.056.467-.289.934-.611zM124.065 58.974c-.256-.155-.545-.466-.778-.422-.233.033-.567.422-.556.644 0 .223.356.611.578.623.245.01.5-.312.756-.49v-.354ZM123.554 89.474c-.256-.166-.522-.478-.767-.466-.211.01-.589.41-.567.6.034.266.345.644.578.688.211.045.489-.31.745-.5v-.322zM123.098 64.463c-.167.245-.433.467-.478.733-.066.4.189.756.612.667.244-.044.566-.378.588-.611.023-.245-.255-.533-.411-.8h-.322zM122.854 76.719c-.156.255-.478.544-.422.744.055.256.411.456.644.667.2-.222.545-.445.556-.667 0-.255-.3-.511-.467-.778-.1 0-.2.011-.3.022zM121.465 114.174c.489.267.744.511 1 .522.422.012.689-.322.544-.722-.089-.244-.444-.566-.655-.544-.245.022-.467.366-.889.744ZM122.032 125.563c-.156.245-.456.511-.434.745.023.244.311.622.545.666.366.078.744-.166.655-.622-.055-.289-.3-.533-.455-.8h-.311zM122.632 144.474c-.256-.166-.523-.478-.767-.455-.222.022-.578.4-.578.622s.333.6.567.633.511-.278.766-.444v-.356zM124.187 52.919c-.244-.178-.466-.456-.744-.522-.456-.112-.689.266-.622.633.044.244.344.61.566.633.245.034.522-.266.789-.411 0-.111.011-.222.022-.333zM116.587 100.93c-.278.433-.544.655-.544.889 0 .177.311.366.489.544.2-.2.489-.367.555-.6.045-.167-.233-.422-.489-.833zM117.332 10.163c.333.311.522.478.711.656.2-.223.466-.411.577-.678.045-.1-.3-.5-.444-.489-.244.022-.467.267-.844.5zM117.965 21.519c-.289.41-.556.633-.567.855 0 .189.3.378.467.578.2-.189.511-.356.567-.578.044-.178-.223-.433-.467-.855ZM116.931 70.596c-.133.234-.377.478-.366.7.011.19.333.367.511.545.178-.211.455-.4.511-.645.033-.166-.233-.4-.367-.6zM115.965 131.596c-.156.223-.433.445-.422.656 0 .2.322.389.5.589.189-.2.466-.367.522-.589.044-.178-.211-.422-.322-.633-.089 0-.178 0-.278-.011zM117.254 107.885c-.333-.288-.556-.622-.711-.588-.234.044-.511.311-.589.533-.045.133.278.533.444.544.234 0 .467-.244.867-.489zM118.087 59.019c-.378-.245-.633-.523-.778-.478-.222.067-.489.344-.533.578-.033.133.333.51.5.489.233-.023.433-.3.822-.59zM115.909 143.652c-.3.411-.566.633-.577.856-.012.177.288.377.444.577.2-.188.511-.344.567-.566.044-.167-.211-.434-.445-.867zM116.754 138.396c-.367-.277-.611-.577-.767-.544-.233.067-.489.333-.556.578-.033.133.312.511.478.511.222 0 .445-.278.834-.545zM116.376 113.096c-.278.445-.533.678-.533.912 0 .188.311.377.489.566.189-.211.477-.389.533-.633.044-.178-.233-.422-.489-.845ZM116.309 119.252c-.3.422-.566.644-.566.856 0 .188.3.377.466.555.2-.189.489-.355.556-.578.044-.155-.211-.411-.456-.833ZM116.154 125.374c-.267.434-.522.667-.522.889 0 .189.322.367.5.545.188-.2.477-.378.522-.612.033-.166-.234-.411-.5-.822ZM115.976 89.497c.356.288.578.6.722.566.234-.044.523-.3.589-.533.045-.145-.278-.545-.455-.545-.223 0-.456.256-.856.5zM114.943 150.585c.355.267.6.578.755.534.222-.067.489-.345.545-.578.033-.156-.311-.545-.456-.533-.233.022-.455.288-.833.577zM116.387 65.063c.345.289.556.611.711.578.234-.045.523-.3.589-.522.045-.134-.278-.545-.444-.545-.222 0-.456.245-.856.49ZM116.598 52.952c.356.278.611.589.756.544.233-.077.5-.366.533-.6.022-.155-.322-.544-.478-.533-.233.022-.444.3-.811.578zM116.687 46.774c.367.3.589.611.733.567.234-.056.512-.311.578-.545.045-.133-.289-.51-.466-.533-.212-.011-.445.245-.856.5zM118.387 40.696c-.367-.244-.633-.533-.789-.477-.222.077-.478.366-.522.61-.022.134.355.5.511.49.233-.023.433-.312.789-.611zM118.598 28.496c-.367-.266-.611-.577-.755-.533-.223.056-.489.333-.545.567-.033.133.311.51.478.51.222 0 .444-.266.833-.532zM118.054 15.485c-.289.434-.545.656-.556.878 0 .167.311.356.478.534.189-.19.478-.356.545-.578.044-.167-.212-.411-.467-.834ZM117.687 33.785c-.266.445-.522.678-.511.9 0 .178.333.356.522.523.178-.212.467-.39.511-.634.034-.166-.244-.389-.522-.8zM117.776 77.363c-.367-.278-.611-.578-.755-.533-.234.067-.489.333-.556.567-.033.122.3.51.467.5.233 0 .455-.267.844-.534ZM116.976 82.63c-.322.41-.6.622-.611.844-.011.19.289.39.455.59.2-.19.511-.345.578-.568.056-.166-.189-.433-.411-.877zM116.765 94.819c-.311.4-.6.61-.611.833-.011.189.289.4.455.6.2-.189.512-.344.589-.578.056-.167-.2-.422-.422-.855zM109.954 131.485c-.222.289-.456.456-.456.634 0 .177.223.366.345.544.189-.156.511-.278.544-.467.034-.166-.222-.4-.433-.722zM111.787 15.608c-.155.31-.355.51-.322.677s.289.278.444.423c.156-.178.389-.356.423-.556.022-.122-.278-.289-.545-.544ZM111.998 9.419c-.211.31-.433.489-.433.666s.222.345.355.511c.189-.144.489-.277.523-.455.033-.178-.223-.389-.445-.722ZM111.243 52.174c-.189.311-.4.511-.4.711 0 .145.278.29.433.434.156-.167.411-.323.445-.523.022-.133-.245-.333-.478-.622ZM110.354 71.13c.233.21.422.489.544.466.2-.044.367-.277.545-.433-.167-.167-.311-.422-.511-.489-.112-.033-.323.245-.578.456ZM111.198 95.597c-.266-.223-.444-.49-.6-.478-.189.022-.433.255-.489.444-.033.122.256.467.378.467.211-.011.4-.234.7-.433zM109.832 137.663c-.2.267-.434.445-.434.611 0 .167.245.334.378.489.178-.155.444-.289.511-.489.033-.122-.233-.344-.444-.622zM111.354 40.14c-.111.179-.334.379-.311.545.022.167.277.311.422.467.166-.178.433-.333.466-.533.034-.19-.166-.423-.266-.645-.111.056-.211.111-.322.167zM111.32 46.074c-.177.29-.389.478-.377.645.011.155.333.444.411.41.2-.077.433-.288.466-.477.023-.133-.266-.322-.5-.578ZM110.809 76.63c-.178.289-.4.478-.378.655.023.167.267.312.423.467.166-.178.422-.333.455-.533.022-.134-.266-.322-.5-.59ZM110.021 125.452c-.212.3-.445.5-.412.644.034.178.267.411.445.445.122.022.444-.267.433-.4-.022-.2-.244-.389-.455-.689zM109.709 143.808c-.188.255-.433.433-.422.589 0 .166.256.322.389.488.178-.155.433-.288.5-.488.033-.112-.244-.323-.467-.589ZM110.243 113.23c-.211.266-.445.444-.445.611 0 .155.256.322.389.478.178-.156.445-.289.489-.478.033-.133-.233-.345-.444-.611zM110.487 101.03c-.233.289-.489.466-.467.611.023.189.267.355.412.522.166-.144.455-.278.466-.422 0-.189-.211-.389-.411-.711ZM110.62 88.819c-.188.277-.422.466-.4.622.023.166.267.31.423.466.166-.166.411-.31.466-.51.034-.112-.255-.312-.477-.578zM111.743 21.64c-.178.29-.4.479-.389.645 0 .156.266.3.411.456.166-.167.422-.322.455-.511.023-.134-.255-.334-.489-.59zM111.065 64.385c-.2.256-.433.434-.433.59 0 .177.244.333.388.5.178-.156.434-.29.5-.49.034-.122-.244-.333-.455-.6ZM111.709 27.741c-.222.289-.477.467-.455.611.033.189.278.356.422.522.167-.144.456-.289.456-.433 0-.2-.223-.389-.423-.7ZM111.476 33.874c-.155.345-.333.567-.311.756.022.144.389.389.456.344.188-.111.388-.344.4-.544 0-.134-.278-.3-.556-.567zM111.387 83.363c-.278-.189-.489-.422-.633-.389-.178.045-.3.311-.445.478.167.133.334.378.489.367.178 0 .334-.245.6-.456zM110.343 107.063c-.211.311-.423.489-.411.667 0 .155.255.433.388.422.178 0 .489-.245.478-.367-.022-.211-.233-.4-.455-.722ZM110.154 119.363c-.2.256-.445.433-.433.589 0 .178.233.344.366.511.178-.156.456-.278.511-.467.034-.122-.233-.344-.444-.633ZM110.254 150.507c-.256-.222-.422-.455-.589-.466-.167 0-.345.233-.511.355.155.178.278.456.466.511.134.045.356-.211.645-.4zM110.531 58.94c.267.212.456.468.589.434.2-.044.356-.278.523-.433-.156-.156-.3-.4-.478-.422-.156-.023-.345.21-.634.422Z"/></g><path fill="#000" d="M134.809 108.174c.856 1.456 1.889 2.744 2.845 4.133 1.311 1.9 1.955 3.7 2.1 5.989.255 4.111-1.689 8.578-5.222 10.867-1.878 1.211-3.967 1.8-6.156 1.255-1.944-.488-3.767-1.344-5.744-1.755-1.978-.411-3.811-1.245-5.756-1.767-2.433-.655-4.922-.455-7.3.334-2.033.666-4.167 1.744-5.844 3.077-1.678 1.334-2.6 3.156-3.278 5.145-1.222 3.6-1.411 7.666-3.111 11.089-1.911 3.855-6.611 5.766-10.767 4.989-2.011-.378-3.911-1.245-5.089-2.967s-1.766-3.711-2.866-5.456c-.923-1.455-1.678-2.922-2.478-4.466-.99-1.911-2.378-3.378-3.967-4.8-1.767-1.578-3.622-2.811-6.022-3.1s-4.956-.023-7.145.711c-1.955.655-3.633 1.866-5.489 2.722-1.61.744-3.177 1.667-4.8 2.367-3.722 1.622-8.444.589-11.266-2.289-1.345-1.367-2.633-3.356-3-5.256-.456-2.311.1-4.755.989-6.889.61-1.477 1.433-2.866 2.055-4.344.967-2.322 1.056-4.367.945-6.845-.1-2.344.055-4.511-1.378-6.522-1.222-1.733-3.033-3.289-4.833-4.4-3.267-2.022-7.39-2.722-11.078-3.722-4.133-1.122-7.3-4.544-7.589-8.9-.133-2.089.244-4.411.978-6.378.789-2.11 2.122-3.066 4.11-3.933 1.7-.745 3.356-1.511 4.956-2.445 1.7-.989 3.59-1.666 5.19-2.822 1.6-1.155 3.155-2.878 4.255-4.589 1.378-2.133 1.622-4.31 1.333-6.789-.266-2.3-.522-4.522-1.655-6.588-.767-1.412-1.634-2.778-2.456-4.156-.533-.9-1.144-1.789-1.533-2.756-.434-1.088-.534-2.31-.6-3.466-.123-2.222-.045-4.5 1.044-6.5.967-1.79 2.39-3.611 4.3-4.456 1.911-.844 4.345-1.1 6.378-1.089 1.789 0 3.567.978 5.233 1.578 2.067.745 4.111 1.656 6.256 2.167 4.378 1.033 9.422-.778 12.644-3.823 1.645-1.544 2.334-3.31 2.845-5.466.433-1.8 1.133-3.2 1.922-4.834.878-1.81 1.122-3.855 2.044-5.644.923-1.789 2.5-3.389 4.19-4.411 3.4-2.056 8.61-.378 11.11 2.378 1.39 1.533 2.056 3.477 3 5.289.812 1.555 1.545 3.144 2.334 4.7 2.078 4.077 6.3 7.366 10.944 7.71 2.278.167 4.8-.144 6.956-.877 1.9-.645 3.589-1.789 5.344-2.744 3.478-1.923 6.945-4.478 11.034-2.834 4.088 1.645 6.688 5.522 7.088 9.8.212 2.322-.222 4.422-1.344 6.467-.844 1.544-1.744 3-2.311 4.689-1.4 4.166-.478 9.678 2.289 13.078 1.366 1.677 3.133 3.1 5.1 4.022s3.955 1.2 5.866 1.989c1.7.7 3.5 1.11 5.2 1.81s3.178 2.1 4.545 3.4c1.589 1.534 2.133 3.2 2.122 5.412 0 2.378-.633 4.555-1.955 6.533-1.2 1.79-2.734 3.19-4.7 4.1-1.467.678-3 1.167-4.512 1.733-2.011.767-4.022 1.712-5.688 3.09-1.667 1.377-2.489 3.022-3.045 5.11-.555 2.09-1.522 4.012-1.567 6.123-.044 2.222.923 4.344 2 6.244 1.078 1.9 5.7 1.467 4.389-.844-1.244-2.189-2.044-4.256-1.322-6.756.3-1.022.7-2 .978-3.022s.455-2.122 1.022-3.033c2.022-3.256 6.822-3.99 10.1-5.423 4.145-1.822 7.7-5.477 8.667-10.022.489-2.267.544-4.889-.167-7.11-.644-2-2.1-3.423-3.633-4.79-1.656-1.478-3.267-2.833-5.345-3.689-1.744-.71-3.577-1.155-5.333-1.866-1.978-.8-4.222-1.056-6.078-2.123-1.855-1.066-3.433-2.9-4.1-4.877-.744-2.212-.9-4.923-.4-7.2.4-1.834 1.434-3.312 2.311-4.934 2.211-4.133 2.345-9.244.045-13.4-2.3-4.155-6.078-7.122-10.745-8.255s-8.877 1.078-12.977 3.344c-1.723.956-3.423 2.133-5.278 2.8-2.011.722-4.756 1.045-6.7.034-3.711-1.934-5-5.878-6.8-9.378-1.011-1.967-1.8-3.945-3.245-5.656-1.444-1.71-3.466-3.133-5.577-3.989-4.256-1.733-9.778-2.033-13.656.69-1.7 1.188-3.4 2.877-4.389 4.71s-1.267 4.056-2.222 5.967c-.845 1.7-1.645 3.244-2.1 5.111-.567 2.311-1.167 3.889-3.156 5.333-1.678 1.223-4.022 2.378-6.144 2.2s-4.056-1.266-5.956-1.955-3.822-1.622-5.822-1.933c-2.467-.39-5.144 0-7.578.477-4.566.911-8.189 4.211-9.644 8.645-.711 2.177-.656 4.61-.456 6.866.211 2.434 1.167 4.356 2.39 6.423.9 1.51 1.9 3.01 2.677 4.589.478.966.7 2 .844 3.066.19 1.322.445 2.733.4 4.067-.088 2.333-1.81 4.433-3.433 5.978s-3.422 2.144-5.255 3.177c-1.545.878-3.09 1.7-4.734 2.4-1.933.834-3.878 1.7-5.166 3.445-2.567 3.478-3.178 9.333-1.69 13.322 1.634 4.367 5.545 7.433 9.912 8.745 3.678 1.1 8.044 1.566 11.1 4.011 1.8 1.444 3.022 2.766 3.122 5.155s.4 5.111-.544 7.489c-.623 1.556-1.49 3-2.134 4.545-.955 2.3-1.522 4.611-1.41 7.122.2 4.366 3.566 8.589 7.232 10.711 4.178 2.411 9.2 3.122 13.834 1.555 1.833-.622 3.51-1.744 5.289-2.522 1.922-.855 3.666-2.222 5.677-2.833 1.845-.567 4.356-.867 5.978.333s3.1 2.667 4.034 4.422c.866 1.634 1.688 3.212 2.655 4.789 1.133 1.834 1.789 3.9 3.033 5.678 2.823 4.045 8.234 5.711 13 5.333 4.478-.355 9.278-2.577 11.356-6.744 1.756-3.522 2.111-7.556 3.256-11.289.666-2.211 1.711-3.911 3.744-5.078 1.833-1.066 4.078-2.244 6.267-2.033s4.289 1.444 6.455 1.922c1.989.434 3.834 1.211 5.8 1.745 4.711 1.277 9.867-.178 13.2-3.778 3.145-3.389 4.467-7.811 3.989-12.345-.433-4.1-3.2-6.766-5.189-10.144-.589-1.011-1.966-1.478-3.089-1.244-.933.2-1.9 1.077-1.3 2.1z"/><path fill="#000" d="M91.287 83.896a12.7 12.7 0 0 1-2.633 4.5c-.433.467-.922.911-1.467 1.245 0 0-.655.333-.433.255.311-.1.233.034-.167-.055-1.544-.322-2.9-.767-4.166-1.734-4.467-3.433-5.356-10.277-2.834-15.11 1.6-3.067 4.422-5.334 7.678-6.456 3.255-1.123 6.911-.678 10.033.889 6.811 3.422 10.589 11.166 9.8 18.644-.922 8.689-8.389 16.978-16.666 19.511-6.767 2.078-14.634-.711-19.478-5.633-3.389-3.445-5.611-8.167-6.956-12.745-1.61-5.5-1.977-11.51-.289-17.033 2.111-6.911 7.134-12.322 13.234-16.033s13.31-6.311 20.71-4.634c13.401 3.023 22.168 16.2 23.812 29.234 2.022 15.989-6.789 31.478-21.067 38.766-13.5 6.889-29.655 2.3-40.255-7.766-5.49-5.211-9.522-11.934-11.378-19.29-2.067-8.188-1.3-16.966 1.644-24.855C54.532 54.552 63.243 45.52 73.9 40.618c.133-.055.266-.122.4-.177.255-.123-.434.177-.012 0 .211-.09.411-.167.622-.256.167-.067.323-.122.49-.189.566-.2 1.433-.6.666-1.033s-2.522.189-3.256.433c-2.944 1.023-5.755 2.611-8.377 4.278-5.745 3.656-10.79 8.511-14.478 14.245-4.845 7.533-7.422 16.777-7.022 25.733.366 8.3 3.477 16.278 8.61 22.789 5.134 6.511 11.8 11.2 19.478 13.844 8.1 2.789 16.978 2.8 25.19.434 16.866-4.845 30.166-20.078 30.255-37.978.067-14.411-8.411-29.522-22.611-34.1-8.1-2.611-16.778-1.056-24.433 2.255s-15.223 8.545-18.945 16.39c-4.944 10.421-2.344 23.977 4.945 32.721 12.388 14.856 38.955 7 45.222-9.989 2.866-7.788.578-16.877-6.022-22.055-7.067-5.533-17.79-4.422-24.934.456-5.466 3.733-7.867 10.933-4.867 17.01 1.367 2.756 3.69 4.79 6.656 5.623 3.856 1.078 8.633-.089 11.445-2.945 1.31-1.333 2.377-3.044 2.955-4.833.245-.767-4.244-.478-4.589.6z"/></svg>