<svg xmlns="http://www.w3.org/2000/svg" width="102" height="61" fill="none"><g clip-path="url(#a)"><path fill="#626D2F" d="m38.049 42.84-.547-.416-.535-.543-.782-.135-.493-.608-.655-.35-.693-.274-.681-.289-.559-.508-.6-.44-.786-.111-.624-.397-.562-.512-.674-.308-.724-.212-.597-.454-.712-.235-.693-.266-.547-.57-.681-.296-.774-.08-.709-.216-.662-.328-.643-.423-.782.065-.693-.308-.77-.008-.474.574-.404.605.092.716.139.681.473.513.47.47.435.53.62.297.651.459-.616-.613-.763-.22-.57-.488-.542-.532-.62-.42-.736-.238-.527-.574-.682-.316-.647-.389-.782-.069-.662-.335-.728-.111-.508.411-.223.609.242.62.2.712.594.424.42.604.723.231.593.386.616.342-.612-.339-.69-.184-.704-.147-.639-.27-.5-.592-.667-.228-.716-.073-.685-.042-.597.046-.031.64.246.612.147.724.516.523-.686-.292-.728.026-.704-.026-.663-.393-.72.25-.716-.304-.674.32-.6.335-.69.204-.416.608.089.708.077.744.55.496.67.262.686.166.64.266.654.242.7.058.786.208-.777.316-.513.504-.18.728-.355.624.127.72.65.354.71-.03.712.01.685-.203.716-.062.751.066.69-.2.67-.274.65-.331.647-.328.732-.065.824-.277-.79.365-.508.528-.724.177-.477.562-.566.424-.585.4-.655.335-.293.705-.697.358-.12.736.232.577.435.516.724.1.724-.046.72-.07.65-.365.667-.258.693-.162.67-.25.655-.289.697-.17.62-.38.777.015.547-.543.794.035.454-.486-.508.463-.536.573-.75.27-.563.535-.589.493-.6.474-.524.558-.435.605-.147.581.636.223.67-.277.724-.235.477-.6.481-.463-.48.447-.544.485-.431.597-.274.709-.631.427-.243.7-.211.67-.328.655.174.77.716.332.74-.116.708.016.685-.227.74-.039.6-.462.797.027.647-.331.693-.474-.654.54-.397.627-.293.678-.408.62-.204.773.474.69.766-.031.508-.497.69-.304.315-.662.447-.54.466-.535.443-.546.358-.613.435-.558.377-.597.162-.724.443-.497.02.705-.37.705.15.75.003.74.077.762.613.478.74.065.692-.323.3-.728.424-.577.69-.409.153-.774.49-.554.269-.69.524-.538.362-.64.32-.658.223-.705.631-.493.096-.778.3-.666.363-.639.593-.516.023-.812.408-.613.25-.693.574-.531.408-.616.235-.705.112-.762z"/><path fill="#000" d="M38.45 42.104c-.132-.1-.359-.362-.517-.393-.077-.015.204.212.104.108l-.1-.1-.312-.316c-.435-.439-.866-.477-1.444-.577l.578.358c-.154-.189-.304-.385-.466-.57-.227-.258-.512-.393-.805-.55-.396-.212-.824-.359-1.236-.532-.023-.012-.373-.139-.37-.158 0-.027.255.22.12.058-.05-.062-.123-.112-.181-.166a6 6 0 0 0-.505-.423c-.265-.193-.52-.42-.847-.49-.246-.05-.504-.069-.755-.103l.405.188c-.208-.135-.431-.254-.628-.404-.262-.2-.458-.47-.755-.628-.508-.273-1.059-.423-1.61-.585l.405.189c-.362-.274-.67-.54-1.105-.678-.37-.12-.728-.258-1.09-.397l.37.293c-.177-.185-.35-.37-.528-.55-.27-.274-.554-.386-.897-.536-.447-.196-.924-.15-1.382-.293q-.216-.062-.431-.13c-.131-.043.204.123.107.026-.038-.038-.115-.057-.161-.08-.124-.062-.27-.166-.405-.197-.161-.042.231.162.1.066-.061-.047-.13-.085-.192-.127-.324-.212-.624-.466-1.032-.455-.254.008-.512.043-.766.066l.423.07c-.323-.143-.658-.344-1.013-.378-.311-.031-.793-.093-1.078.05-.285.142-.52.531-.712.781-.193.25-.47.574-.547.894s.043.84.096 1.178c.066.381.12.836.362 1.148.197.254.443.485.67.712l.358.358c.17.17-.069-.073-.061-.058.023.066.12.147.162.2.311.382.635.62 1.085.82.27.12-.03-.045-.034-.042.011-.007.185.128.204.143l.439.308c.366.258.882.277 1.124-.162.258-.466.016-.974-.32-1.309-.227-.223-.442-.5-.712-.67-.296-.189-.735-.25-1.074-.35l.404.188c-.385-.327-.735-.708-1.124-1.024-.474-.389-.967-.59-1.54-.77l.37.293c-.332-.359-.624-.744-1.075-.952-.389-.18-.74-.42-1.12-.604-.205-.1-.409-.096-.632-.116-.085-.007-.258-.057-.343-.03-.092.03.112.023.146.053-.038-.034-.111-.053-.157-.08a3.5 3.5 0 0 0-1.375-.416c-.54-.058-1.178.473-1.363.97-.07.185-.154.37-.204.562-.097.362.054.686.18 1.017.035.088.128.239.136.339-.012-.177-.093-.282-.031-.043.084.324.158.724.37.986.153.193.404.354.612.485.23.147.019.07 0-.034.015.096.188.273.242.35.173.25.35.443.64.558.134.054.28.104.42.135.018.004.13.058.153.05.066-.023-.258-.173-.092-.065.439.285.881.55 1.336.804l.408-1.713a5.5 5.5 0 0 0-1.498-.585c-.208-.05-.454-.139-.662-.143-.12 0 .212.108.1.031-.058-.038-.158-.066-.22-.092l-.361-.154.37.292c-.247-.292-.513-.72-.871-.886a3.7 3.7 0 0 0-1.024-.304 9.5 9.5 0 0 0-2.06-.057c-.4.03-.593.439-.609.789-.02.397-.061.74.085 1.12l.139.347q.038.106.084.212c.066.135-.046-.277-.054-.135-.038.686.435 1.21.878 1.656l.778-1.421c-.377-.166-.74-.37-1.159-.366-.2 0-.424-.011-.62.023-.15.027.312.016.046 0l-.285-.011c-.061 0-.2-.035-.258-.008-.034.015.228.146.054 0a2.4 2.4 0 0 0-.547-.323c-.43-.193-.943.088-1.359.23l.624.008c-.431-.184-.901-.485-1.37-.3a6.4 6.4 0 0 0-1.064.539c-.065.042-.342.235.008.042-.07.039-.17.05-.246.074-.25.073-.62.127-.809.312-.393.38-.678.954-.612 1.486.027.208.05.416.077.624.023.161-.035-.355-.012-.074.012.147.031.29.043.436.042.416.123.762.442 1.066.15.143.305.289.462.42.324.266.77.42 1.171.527.2.054.412.12.616.15.15.024-.285-.119-.035 0 .131.062.27.112.409.166.38.154.777.343 1.193.378.447.034.84.13 1.275.246l-.424-1.787c-.508.208-.878.37-1.27.755-.208.2-.347.393-.428.678a5 5 0 0 0-.104.423c-.073.366.12-.115-.023.081-.165.227-.358.57-.393.847-.034.297.062.701.127.994.15.635 1.005 1.267 1.69 1.259.436-.004.925.027 1.356-.015.216-.023.42-.12.632-.174s.42-.05.635-.077c.031 0 .097 0 .131-.011.146-.05-.262-.043-.104-.004.127.03.281.023.412.035.27.023.493.03.755-.047a9.5 9.5 0 0 0 1.336-.477c.22-.1.435-.22.65-.327l.413-.208c.046-.023.123-.043.158-.081.065-.07-.243-.008-.073.027.516.108 1.205-.239 1.675-.397l-.84-1.733c-.258.12-.539.22-.782.362-.27.158-.473.431-.689.655l.378-.185c-.466.116-.932.162-1.256.54-.12.138-.23.292-.37.411-.084.077-.184.139-.277.208-.042.03-.338.258-.161.127.177-.13-.085.058-.135.089q-.148.105-.297.204c-.154.096-.315.173-.473.254-.235.12-.44.227-.57.47-.108.204-.181.435-.274.65l.3-.292c-.5.258-1.004.423-1.108 1.047-.05.32-.158.697-.085 1.017.062.258.196.566.312.805.258.523.774 1.047 1.344 1.136.493.077.959.073 1.455.034s.848-.08 1.263-.316c.154-.084.3-.169.463-.234.115-.05.238-.089.354-.139.343-.142-.154.011.077-.03a7.5 7.5 0 0 0 1.41-.428c.165-.066.33-.143.496-.216.177-.077.254-.089.02-.035.142-.03.28-.069.423-.103.258-.062.473-.128.697-.27.042-.027.358-.189.354-.22 0-.011-.22-.011-.127.043.027.015.18 0 .208 0 .343.008.624.057.909-.185.188-.162.358-.358.535-.535l-.59.177c.297.011.605.054.902.038.435-.023.662-.37.935-.666.682-.728-.37-2.23-1.19-1.486-.196.177-.396.35-.577.539-.127.13-.289.27-.389.42-.127.184.004-.131.089-.039-.012-.011-.22.077-.235.085-.32.115-.55.196-.805.423-.22.2-.427.409-.655.597-.466.393-.94.751-1.355 1.198-.231.246-.45.535-.632.824-.165.266-.215.578-.292.882-.108.439.146 1.066.597 1.224s.854.381 1.309.212c.3-.112.589-.246.893-.347.447-.146.632-.277.924-.643.2-.25.428-.462.663-.685.727-.697-.382-2.233-1.19-1.486-.381.35-.847.685-1.155 1.1-.32.436-.509.802-.705 1.306l.3-.292c-.285.192-.766.412-.932.72-.154.28-.23.639-.33.943-.058.181-.124.362-.17.543s.054-.1.034-.085c-.053.05-.096.189-.127.255-.077.154-.165.307-.223.47-.096.284-.042.546.02.827.119.531.211 1.013.754 1.29.323.166.735.408 1.105.381.293-.023.578-.111.874-.111.37 0 .632-.004.986-.12q.162-.05.323-.108c.255-.084-.027.012-.027.012.07.062.524-.02.62-.03.405-.047.747-.409 1.063-.652l-.589.178c.54.019 1.005.08 1.494-.174.374-.192.709-.423 1.06-.658l-1.017-1.61c-.193.158-.397.304-.578.474-.189.177-.312.404-.45.624-.216.342-.328.735-.551 1.074a3.8 3.8 0 0 0-.582 1.432c-.111.59.601 1.876 1.279 1.984.262.042.597.007.858-.023.343-.039.516-.208.751-.436.066-.061.355-.27.17-.184-.208.096.2-.07.254-.093.308-.135.524-.235.693-.547.07-.123.135-.258.185-.389 0 0 .073-.134.07-.142-.02-.02-.178.196-.074.092.162-.165.297-.362.45-.539.316-.37.647-.727.932-1.12.081-.112.15-.231.22-.35.035-.059.25-.451.139-.259-.028.035-.097.166 0 0q.085-.114.177-.227c.084-.108.173-.22.254-.331.377-.524.539-.99.681-1.61l-.204.374.443-.497-1.42-.882.018.705.104-.435c-.235.443-.527.85-.442 1.378.027.158.061.312.092.47.011.058.073.212.054.27.073-.227-.02-.25-.027-.035-.012.347.015.678.05 1.024.035.347.05.697.281.99.131.162.316.285.478.412s.32.277.5.358c.208.093.45.085.67.104.47.042.786-.073 1.21-.27.45-.207.527-.523.712-.939.123-.273.312-.5.493-.743l-.3.292c.292-.173.715-.342.927-.616s.231-.731.297-1.062l-.204.373c.292-.331.573-.612.735-1.028.03-.08.143-.254.131-.335-.015-.108-.1.092-.085.092.012 0 .074-.077.085-.088.189-.181.4-.378.543-.597.447-.682.736-1.436.982-2.206l-.204.373c.427-.335.797-.547.866-1.12.016-.128.043-.255.046-.382.012-.289-.096.123-.027-.011.1-.193.174-.4.27-.597s.281-.385.331-.585c.023-.093-.073.104-.077.1.016.004.093-.081.112-.097.111-.088.22-.188.327-.285.447-.408.374-.97.389-1.532l-.104.435c.327-.497.535-.955.74-1.51l-.205.374c.54-.5 1.005-.997 1.248-1.706.112-.327.185-.608.239-.947.011-.073.061-.216.042-.289-.008-.027-.162.22 0 .054.127-.127.22-.316.32-.462.57-.824-.786-2.099-1.444-1.148-.17.243-.4.493-.47.786-.062.246-.054.505-.112.75-.027.12-.077.236-.115.351l-.081.243c-.07.223.042-.073.023-.066-.077.027-.243.362-.281.428-.031.05-.066.1-.097.146.05-.077.19-.185.043-.084-.285.196-.581.512-.7.835q-.075.195-.143.389l-.081.223c-.07.193.134-.15.019-.08-.096.057-.212.315-.273.408-.124.196-.193.346-.208.593-.02.27-.016.543-.023.812l.23-.604c-.196.169-.42.327-.592.52-.205.223-.355.542-.49.808-.134.266-.307.581-.38.874-.062.247-.066.524-.097.778l.204-.373c-.204.157-.45.304-.631.488-.212.22-.355.728-.412 1.032-.031.162.13-.227.038-.103-.042.053-.065.134-.096.2-.066.135-.127.27-.197.404-.057.112-.123.216-.18.327-.043.073-.09.143-.124.22-.061.13-.12.058.062-.058-.216.143-.512.47-.643.7-.066.116-.104.267-.15.39-.027.07-.073.15-.085.223-.03.189.158-.13.062-.05-.243.204-.574.59-.659.89-.073.25-.104.52-.154.774l.377-.497q-.301.171-.596.35c-.24.147-.39.343-.555.566-.258.35-.396.686-.566 1.09l.3-.293-.693.32.416-.058-.74-.065.405.188-.608-.477.423.874c-.088-.843-.092-1.66-.262-2.495l-.077.678c.14-.262.308-.524.409-.805.115-.324.053-.701.046-1.04-.016-.593-.844-1.529-1.421-.882-.235.262-.547.528-.65.874-.043.147-.07.305-.101.451-.012.054-.054.162-.05.22.008.127.142-.174.035-.1-.104.069-.255.369-.312.492-.073.158.162-.196.061-.077q-.068.082-.13.17c-.2.258-.39.504-.555.785-.058.1-.343.5-.08.185-.101.12-.197.243-.297.362-.178.216-.362.423-.543.635-.4.466-.69.894-.955 1.448l.3-.292c-.258.111-.543.204-.774.361-.231.158-.404.37-.597.559l.378-.185-.767.03.79.363-.474-.69.227.932.135-.516c.02-.08.05-.161.062-.242-.054.304-.093.185-.012.096.231-.25.377-.6.512-.905.135-.304.316-.562.478-.85.096-.174-.15.092-.047.068.066-.015.17-.138.224-.18l.396-.328c.678-.558-.242-2.133-1.016-1.61-.443.3-.867.563-1.34.805l.416-.057c-.32-.012-.69-.077-1.01-.035-.338.046-.712.443-.977.647l.377-.185c-.242.012-.504-.004-.74.038-.296.055-.577.247-.873.282.366-.047-.039-.062-.166-.066-.116 0-.239-.015-.354-.008-.247.02-.497.078-.74.12l.424.07-.716-.336.593.755-.174-.77-.076.677c.361-.724.596-1.467.858-2.23l-.377.498c.292-.197.766-.42.94-.736.154-.277.196-.589.38-.85.1-.14.193-.305.309-.428-.305.323.204-.127.285-.2.211-.19.416-.382.624-.57l-1.19-1.487c-.162.154-.335.304-.486.466-.084.093-.157.197-.235.293-.046.058-.13.139-.165.208-.108.208-.046-.12.085-.023-.066-.046-.613.196-.713.23-.227.085-.446.186-.67.278l.624.008-.635-.224.597 1.225c.038-.15.084-.304.115-.455.046-.234.027.054-.038.07.034-.008.107-.15.13-.181.097-.131.185-.274.29-.4-.27.334.134-.112.207-.19.385-.411.867-.731 1.294-1.1.197-.17.408-.343.578-.54.138-.162-.027.058-.085.047.054.007.185-.066.235-.085.15-.054.312-.096.454-.162.285-.135.47-.416.686-.64.184-.188.385-.361.577-.538l-1.19-1.487-.454.486.59-.178c-.336-.015-.786-.107-1.11-.011-.323.096-.589.466-.82.697l.377-.185c-.25-.004-.531-.05-.777-.011-.17.023-.297.115-.436.203-.073.047-.154.09-.223.14-.046.03-.216.184-.058.065.116-.089.035-.012-.077.015l-.254.062c-.158.038-.32.069-.474.127-.23.084-.45.208-.677.3-.139.058-.285.104-.424.158-.054.02-.135.035-.18.07 0 0 .269-.066.065-.024-.3.062-.609.131-.894.239-.25.092-.496.185-.731.312-.108.061-.362.142-.435.242-.047.062.173-.007.104-.027-.066-.019-.193.02-.262.027-.312.031-.624.05-.94.074-.054.003-.289 0-.08.011.219.015-.07-.02-.124-.027l-.493-.065.578.358c-.062-.073-.443-.431-.428-.505.008-.03.131.312.104.147-.011-.058-.054-.131-.073-.185l-.135-.331.089.712.12-.735-.378.496c.258-.13.55-.242.786-.42.28-.215.377-.616.508-.935l-.3.293c.939-.482 1.767-1.04 2.456-1.845l-.377.185c.223-.054.45-.108.67-.166.308-.08.447-.215.654-.427.07-.07.212-.166.247-.258.035-.093-.1.077-.108.07.015.007.108-.05.127-.059.216-.088.424-.196.632-.292.966-.447.123-2.053-.84-1.733-.273.092-.543.189-.816.273.354-.111-.027-.034-.174-.023-.192.02-.385.023-.57.097-.465.184-.889.473-1.347.677-.146.066-.3.12-.447.181-.038.016-.135.035-.162.066.058-.066.27-.077.047-.012-.1.031-.428.066-.497.147-.054.061.196.03.104.015s-.185-.015-.274-.023c-.596-.054-1.155-.035-1.732.135-.54.161-1.16.08-1.725.107l.423.07-.65-.355.593.755-.128-.72-.077.678c.297-.52.47-.974.613-1.556l-.204.374.258-.25c.057-.058.127-.112.177-.174.138-.17-.027.058-.066.035.077.05.643-.262.751-.304.358-.147.455-.632.378-.97a1.1 1.1 0 0 0-.801-.821c-.436-.115-.828-.212-1.275-.246-.035 0-.116-.027-.15-.012-.093.038.13.058.111.046-.107-.065-.265-.1-.38-.142-.19-.07-.374-.147-.563-.224a5 5 0 0 0-.655-.227 8 8 0 0 0-.435-.108c-.28-.061.224.1-.019-.007a7 7 0 0 0-.393-.154c-.034-.012-.088-.047-.123-.05-.08 0 .146.142.104.065-.089-.17-.366-.331-.508-.458l.423.874a85 85 0 0 0-.192-1.694l-.077.677.412-.604-.505.354c.397-.115.794-.208 1.152-.412.33-.185.674-.346 1.016-.512l-.624-.008c.29.123.613.32.925.37.346.058.812-.193 1.136-.304l-.624-.008c.423.25.728.45 1.224.47.431.015.859.007 1.294-.012l-.424-.07.686.297c.874.378 1.355-.831.778-1.42q-.261-.262-.516-.524l.223.462a8.7 8.7 0 0 0-.477-1.579l.115.485.031-.639-.608.79.3-.024c.065-.003.173 0 .235-.019.135-.042-.17-.046-.112-.008.12.085.508.031.662.043.093.008.636.127.686.07-.012.01-.308-.105-.073-.024q.106.033.211.073l.336.112-.37-.293c.254.3.512.705.87.886.312.158.655.289.994.366.315.073.631.138.943.22.085.022.166.05.25.065.093.019-.25-.15-.046.011.146.112.339.189.5.277.413.231.902-.061 1.006-.489.123-.5-.17-.985-.597-1.224-.177-.1-.35-.204-.532-.297-.207-.107.243.162.02.016q-.156-.104-.312-.2c-.355-.232-.705-.347-1.105-.474l.37.292c-.162-.23-.309-.488-.509-.693s-.45-.346-.678-.512l.397.632a16 16 0 0 0-.528-1.571l.089.712.223-.608-.204.373.508-.412-.589.177c.177.027.358.062.54.081.084.008.25.089.084 0-.208-.108.035.035.07.05.35.197.646.308 1.047.343.104.008.223.035.331.027.231-.016-.123.08-.092-.05-.008.027.485.292.531.32.254.142.52.254.785.377l-.37-.293c.328.358.625.782 1.102.936.12.038.243.088.366.115-.008 0 .154.05.154.05-.004.012-.246-.173-.139-.084.181.142.393.246.574.392.312.258.59.57.897.836.405.347.882.447 1.387.593l-.405-.189q.308.306.616.613l.801-1.471c-.477-.335-.94-.624-1.467-.878l.37.292a11 11 0 0 0-.778-.874q-.118-.115-.235-.235c-.166-.161.2.224.046.039-.13-.154-.273-.297-.408-.447l.224.462c-.093-.466-.17-.924-.235-1.394l-.077.678.204-.3c.038-.054.27-.393.138-.216-.13.177.127-.146.174-.204l.234-.289-.377.185.77.012-.423-.07c.315.139.666.355 1.012.378.293.015.597-.039.886-.066l-.616-.192c.64.42 1.244.793 1.98 1.016.334.1.611.154.958.189.065.008.177.042.243.027-.158.035-.25-.096-.02.011.166.077.34.147.505.22L26 36.79c.231.243.458.535.72.743.247.193.612.29.901.393.166.058.34.127.512.17l.131.042q.151.055-.13-.096c.038 0 .111.084.142.108.343.277.65.465 1.078.593q.154.046.308.088l.135.039q.106.03-.05-.016-.154-.052-.054-.011l.123.057c.093.047.193.085.285.131.02.008.2.077.2.093 0 .027-.273-.224-.065-.008.127.131.273.27.42.381.227.177.492.347.747.485.327.178.727.185 1.093.235l-.404-.188c.547.396 1.036.931 1.656 1.193s1.163.486 1.729.786l-.37-.293c.227.277.458.655.766.84s.74.2 1.09.261l-.578-.358c.405.409.797.782 1.256 1.129.358.273.885.265 1.124-.162s.054-1.024-.32-1.31z"/><path fill="#626D2F" d="m31.942 9.424-.72-.17-.786-.239-.747.37-.277.797-.636.524-.05.816-.416.543.127-.608.15-.751.02-.766-.031-.767.273-.766-.242-.755-.073-.762-.062-.805-.666-.485-.585-.378-.709-.358-.735.3-.559.551-.339.709.016.8-.347.72.058.76-.196-.728.088-.743.116-.759-.255-.72-.204-.716-.254-.693-.208-.705-.4-.616-.458-.64-.794.035-.77-.104-.493.59-.435.58-.138.717-.235.674-.135.705-.146.704-.016.72-.038.747-.023-.804-.035-.782-.085-.793-.458-.667-.643-.45-.705-.012-.227.686-.285.535-.027.562-.262-.712-.073-.763v-.804l-.33-.736-.729-.358-.666-.192-.547.285-.327.639-.085.727-.138.736.065.735.035.736.188.716.17.716.061.732.081.728.139.72.243.75-.127-.781-.343-.662-.154-.716-.455-.617-.211-.697-.116-.739-.281-.678-.196-.716-.332-.658-.581-.516-.408-.59-.22-.777-.731-.293-.774.177-.42.647-.17.566-.146-.512-.358-.593-.273-.628-.297-.635-.481-.547-.747.05L6.427.56l-.424.628-.504.443-.335.608.18.67.405.532.393.535.497.462.523.443.59.408-.728.177-.72.204-.331.693.123.759.4.631.651.393.608.393.405.62.581.427.59.412.63.35.586.42.555.463.512.539.766.127.404.408-.412-.385-.685-.193-.682-.192-.585-.42-.628-.335-.762.035-.65-.258-.636-.358-.709-.085-.708.096-.709.012-.342.589.077.712.127.801.612.516.786.17.723.211.697.4-.862-.23-.655.554-.493.651.212.785.705.355.577.539.763.154.697.235-.67-.031-.686-.046-.677-.185-.686.077-.712-.181-.705.13-.508.536-.505.408-.358.597.012.74.466.573.3.686.616.4.605.416.762.077.632.366.678.262.727.069.647.358-.735-.015-.751-.239-.74.223-.781.058-.45.64-.282.615-.327.751.254.763.628.477.704.247.667.258.608.539.74.123.758-.042.743-.023.732.138.835.139-.843.18-.809-.06-.685.384-.72.343-.3.74-.07.73-.235.798.52.55.204.748.716.227.678.154.608.416.694.165.716-.088.697.254.712-.035.705-.158.693-.177.7-.03.706-.031.789-.166-.25.759-.482.596.123.825.786-.016.712.077.682-.166.658-.25.651-.262.693-.111.651-.274.7-.088.729.12.693-.04.708-.023h.724l.728.062.635.374.724.127.574.477.728.135.527.539.72.173.632.347.585.416.509.535.75.166.393.685.682.277.647.331.485.624-.27-.75-.28-.686-.228-.7-.458-.62-.324-.675-.192-.72-.25-.7-.262-.698-.112-.743-.297-.697.147-.79-.408-.685.25-.781-.116-.728-.161-.735-.143-.76.3-.715.07-.747.223-.717.316-.643.25-.67.254-.666.362-.62.331-.627.232-.674.396-.62-.13-.701-.501-.239-.716-.165-.563.161.197-.57-.008-.77.45-.627.027-.751.085-.728.362-.67.25-.708-.007-.748-.185-.739.046-.724-.193-.7-.073-.74-.589-.45z"/><path fill="#000" d="M31.31 8.873c-.481-.112-.97-.304-1.455-.393-.243-.046-.405.081-.628.193-.281.142-.324.142-.428.435-.069.2-.111.42-.246.577-.146.17-.474.285-.57.486-.108.22.035.562-.05.793-.073.192-.289.389-.412.554l1.583 1.098c.092-.447.223-.909.277-1.36.054-.489-.039-.985-.008-1.47.008-.128.104-.362.177-.574.1-.285.077-.354-.015-.647-.135-.424-.177-.82-.212-1.263-.02-.216.023-.52-.054-.724-.138-.366-.67-.628-.978-.855-.454-.331-.92-.666-1.417-.928-.22-.115-.443-.223-.662-.335-.397-.196-.516-.127-.893.027-.378.154-.717.42-.932.782-.12.2-.258.458-.293.685-.02.135.008.297.008.431 0 .077.015.17.003.247 0 .023-.023.138 0 .061-.065.247-.292.459-.342.705-.05.247.038.574.058.82l1.578.978c-.05-.192-.188-.593-.192-.681-.016-.235.058-.512.092-.743.035-.231.12-.505.112-.744-.008-.258-.177-.527-.254-.774q-.224-.703-.455-1.401c-.073-.22-.111-.455-.2-.666-.104-.25-.285-.49-.439-.713-.123-.185-.254-.362-.385-.539-.335-.447-.913-.978-1.47-1.093-.255-.054-.532.011-.79.011s-.52-.1-.774-.085c-.366.024-.701.659-.928.96-.281.377-.293.908-.447 1.355-.35 1.012-.37 2.071-.423 3.13l1.578 1.04c-.015-.47-.027-.94-.05-1.41-.023-.4 0-.847-.227-1.182-.15-.223-.293-.465-.477-.662-.274-.289-.632-.504-.955-.735-.324-.231-.667-.512-1.063-.566-.224-.031-.47-.008-.693-.008l-.058.02c-.093.284-.17.57-.308.835-.185.358-.212.535-.227.947l1.578 1.04c-.188-.509-.308-.913-.335-1.46v-.22c0-.142.008-.288 0-.43-.011-.247-.119-.432-.22-.663-.35-.785-1.204-1.151-1.944-1.505a4.5 4.5 0 0 0-.689-.247c-.296-.088-.404-.108-.681.039-.25.13-.312.161-.436.404-.123.243-.204.397-.234.674-.047.427-.193.878-.19 1.301.005.424.032.982.097 1.414.073.477.281.94.354 1.417s.066.982.143 1.47c.08.513.223.982.381 1.475.104.332.624.613.897.782.077.05.716.416.682.197-.077-.474-.139-.81-.358-1.233-.189-.358-.154-.785-.39-1.116-.084-.124-.176-.243-.265-.359-.065-.088-.108-.192-.073-.1a5 5 0 0 1-.204-.666c-.1-.45-.146-.808-.32-1.24-.146-.362-.196-.75-.373-1.101-.262-.512-.586-.87-1.028-1.236-.231-.193.227.35.119.115-.054-.115-.158-.227-.231-.335-.042-.061-.135-.261-.08-.107-.051-.135-.082-.285-.12-.424-.22-.778-.978-1.174-1.695-1.46-.234-.092-.485-.234-.735-.219-.181.012-.6.073-.755.181-.142.104-.312.45-.393.608-.096.185-.134.409-.192.609l1.579 1.04c-.062-.212-.108-.424-.208-.617-.066-.123-.147-.242-.22-.361q-.053-.08-.1-.166c-.073-.135.058.123 0-.015-.192-.443-.358-.979-.655-1.36C8.627 1.041 7.906.236 7.16.163 7.043.15 6.916.178 6.8.186c-.043 0-.478.019-.281.042C6.285.201 6.034.086 5.81.02a.17.17 0 0 0-.162 0c-.15.224-.285.474-.47.67-.2.212-.42.331-.558.59-.185.33-.254.415-.158.773.097.358.197.524.416.809.389.508.763.97 1.24 1.402.478.43 1.001.82 1.54 1.19l-.627-.72c-.24.057-.482.111-.72.177-.212.057-.528.084-.713.2-.165.104-.304.446-.362.639-.07.223.016.47.05.7.108.686.805 1.28 1.348 1.618.412.262.832.512 1.244.774l-.843-.69c.2.309.377.628.654.875.293.262.635.485.955.716.231.17.466.339.705.493.177.116.362.216.547.316.088.05.177.096.265.146.231.123.139.2-.27-.177.124.115.282.208.42.304.412.293-.43-.362-.146-.115.135.115.277.261.428.358.13.08-.15-.181-.066-.062.062.081.146.154.22.227.423.443.916.928 1.52 1.102.278.08.586.1.87.146l-1.366-.851.408.408 1.124.428c-.52-.486-1.05-.951-1.752-1.144a99 99 0 0 1-1.147-.327l.735.4c-.416-.296-.824-.581-1.274-.82-.235-.127-.512-.324-.778-.35-.146-.016-.582-.043-.705.03-.054.035.328.139.035.016-.123-.05-.25-.108-.377-.15-.27-.089.184.123-.043-.016-.12-.073-.246-.139-.37-.208a2.63 2.63 0 0 0-1.297-.339c-.397 0-.793.1-1.194.104-.239 0-.266-.004-.385.2-.104.181-.223.324-.235.524-.02.385.085.905.17 1.279.104.458.585.739.931 1.032.39.323.81.627 1.306.743.22.05.443.088.662.146.135.035.266.077.397.116.07.019.146.054.22.065.2.027-.386-.223-.224-.1.196.146.439.254.65.377l-.935-.959c-.32-.084-.809-.338-1.101-.165-.39.231-.67.608-.936.959-.135.177-.143.204-.089.42.054.215.085.465.193.654.331.593 1.186.909 1.779 1.205l-.797-.554c.527.493 1.078 1.082 1.798 1.259.466.112.897.216 1.356.37l-1.364-1.12c-.38-.02-.766-.047-1.147-.066q-.082 0-.17-.012c-.092-.011.155.035.008 0-.108-.023-.215-.058-.323-.088-.2-.054-.355-.093-.562-.081-.128.007-.27.019-.397.042-.158.03-.016.027-.073.02-.22-.028-.432-.14-.651-.166-.308-.035-.747.03-.978.242-.143.131-.258.293-.404.424-.154.139-.359.242-.493.396-.25.29-.37.578-.362.944 0 .2-.023.385.065.562.096.193.297.35.424.524.042.061-.039-.096.027.058.05.119.108.238.158.358.169.377.439.62.781.858.239.166.49.32.736.482s-.258-.181-.023-.012q.174.121.354.243c.32.22.643.462 1.032.531.239.043.485.05.724.073l-.624-.277c.443.258.87.516 1.344.7.447.174.84.232 1.317.274l-.428-.161.647.358-1.043-.978-.458-.008q-.121.001-.243-.004c.046.004.05.015-.065-.027-.3-.108-.578-.235-.886-.165-.289.061-.535.169-.832.192-.142.012-.381-.02-.512.039-.116.053-.166.157-.243.27a4.7 4.7 0 0 0-.47.823c-.123.274-.311.57-.38.863-.062.254.096.612.207.85.17.37.597.617.913.86.485.37.97.646 1.544.847.092.03.185.065.277.096l.027.011c.177.07.355.135.532.204l-.975-.643c.543.482 1.113 1.09 1.841 1.26.478.107.89.107 1.37.084.193-.011.39-.015.582-.019.058 0 .366-.011.189-.023.115.008.235.046.35.065.436.085.87.154 1.306.228l-1.467-1.14c-.277.057-.574.165-.859.18-.285.016-.6-.115-.878-.022-.277.092-.504.292-.755.416-.165.08-.377.138-.527.25-.123.092-.131.127-.197.289-.242.596-.28 1.22-.45 1.84-.058.216-.058.262.104.447q.187.21.385.408.04.04.073.081c.092.085.05-.012-.023-.039-.123-.046-.062-.123-.03.062.03.166.08.393.15.547.28.635 1.158.986 1.786 1.186.343.108.685.189 1.04.27l-.736-.401c.651.443 1.367.997 2.191.997.204 0 .408-.07.613-.077.088-.004-.127-.046.057.016q.161.059.328.119c.33.123.612.12.966.085.582-.058 1.136-.324 1.718-.35.681-.032 1.313-.078 1.983-.22l-1.525-1.12c-.143.434-.231.742-.516 1.093-.143.177-.208.22-.197.431.016.239.07.478.104.712.035.235.524.532.686.644.22.154.558.423.84.42.28-.005.561-.028.843-.008.327.019.589.084.908.007.593-.146 1.26-.493 1.76-.616.293-.073.585-.073.866-.188.397-.162.536-.205.951-.258.32-.043.605.069.928.088.258.015.528-.027.79-.038.7-.027 1.382-.02 2.08.042l-.625-.277c.328.192.663.435 1.013.577.3.123.655.143.97.2l-1.224-.716c.381.316.75.659 1.174.917s.786.308 1.252.392l-1.263-.831c.535.547 1.086 1.163 1.844 1.386.131.038.266.066.397.096.304.074.281.15-.02-.061.1.069.22.123.324.18.262.147.424.382-.127-.096.17.147.377.278.566.4-.797-.511-.57-.48-.296-.188q.13.14.262.277c.608.613 1.24.848 2.04 1.02l-1.42-1.039c.123.212.234.431.365.643.29.466.82.813 1.313 1.036.108.05.22.089.328.135.088.035.531.22.177.058.215.096.423.215.635.323l-1.043-.805.485.624c.243.312.608.555.943.747.058.035.651.331.582.139-.197-.54-.431-1.07-.609-1.617-.108-.328-.192-.57-.396-.844-.074-.096-.143-.192-.216-.289-.042-.057-.08-.123-.023-.019a6 6 0 0 1-.25-.52c-.224-.5-.332-1.074-.524-1.594-.104-.285-.235-.558-.277-.859-.05-.335-.096-.589-.231-.897-.093-.22-.143-.266-.123-.431.023-.197.127-.42.115-.616-.015-.289-.308-.62-.458-.867l.054.15c.073-.234.196-.488.235-.731.034-.212-.035-.439-.07-.65-.07-.44-.18-.867-.265-1.302-.062-.316-.081-.297.026-.555.097-.23.197-.427.22-.674.042-.458.115-.87.289-1.301.173-.431.381-.832.547-1.267.165-.435.335-.801.562-1.202.212-.373.393-.739.531-1.147.139-.408.516-.697.45-1.113-.08-.493-.15-.678-.577-1.009a5.7 5.7 0 0 0-1.278-.728 3.4 3.4 0 0 0-.824-.215c-.254-.039-.47.058-.717.13l1.525 1.121c.12-.354.193-.6.189-.97 0-.162.008-.37.027-.408.096-.189.293-.331.377-.528.112-.254.054-.585.081-.866.039-.443.096-.709.304-1.094.32-.6.482-1.201.35-1.883-.038-.204-.126-.404-.15-.608.008.08.008-.127.008-.143.008-.13.02-.258.023-.388.02-.324-.127-.593-.184-.91-.039-.215-.016-.442-.066-.654-.07-.289-.35-.466-.578-.647l-.308-.239q-.056-.045-.119-.092c-.154-.115.08.08.1.085-.123-.012-.389-.362-.485-.455-.254-.238-.755-.681-1.12-.697s.007.282.138.405c.408.377.824.724 1.263 1.063l-.477-.49c.027.262.034.536.088.794.077.366.181.547.162.858-.039.609.154 1.152.162 1.764.007.531-.435 1.009-.609 1.563-.161.516.077 1.206-.238 1.645-.093.13-.27.292-.316.442-.039.116-.004.293-.004.413 0 .4-.054.539-.189.939-.1.3 1.256 1.198 1.525 1.12.146-.042.297-.073.44-.127.16-.061.01-.042.068-.042.085 0 .178.043.262.062.096.023.193.054.289.065.204.027-.035-.027.008-.011.158.065.308.146.462.22l-1.275-.987c.035.185.131.436.116.62-.008.081-.177.316-.278.478-.188.3-.246.65-.4.963-.185.37-.42.72-.604 1.09-.155.311-.259.662-.382.989-.296.782-.65 1.44-.731 2.287-.035.35-.308.647-.32.986-.015.393.177.901.262 1.286.104.474.177.801.046 1.205-.08.25-.177.397-.058.632.112.22.258.427.385.639l-.053-.15c-.047.242-.162.547-.15.79.015.261.227.508.3.762s.05.52.119.766c.07.246.189.5.277.747.189.524.297 1.094.535 1.594.128.27.25.505.428.743.089.12.204.243.277.374-.084-.154-.008.027 0 .065.027.1.066.197.096.293.19.574.432 1.132.636 1.698l1.525.886c-.474-.613-.92-1.11-1.63-1.483a15 15 0 0 0-1.405-.643l1.275.986c-.285-.497-.493-.901-.974-1.251-.524-.382-.982-.509-1.59-.64l1.262.832a9.5 9.5 0 0 0-1.729-1.456 6 6 0 0 0-1.979-.85l1.263.831c-.37-.377-.716-.75-1.163-1.043-.446-.293-.843-.37-1.355-.462l1.12.697c-.408-.343-.808-.709-1.274-.975-.397-.227-.805-.27-1.248-.342l.624.277c-.389-.227-.824-.57-1.267-.655-.308-.058-.639-.061-.95-.061-.64 0-1.318.107-1.95.054-.415-.035-.704-.108-1.12-.054-.343.046-.604.215-.936.312-.188.053-.631.092-.92.204-.35.138-.7.292-1.055.408-.262.085-.678.17-1.036.13-.385-.042-.758-.03-1.143-.022l1.524 1.059c-.03-.212-.065-.428-.092-.64-.027-.211.065-.238.242-.462.255-.315.332-.635.459-1.02.1-.312-1.244-1.178-1.525-1.12a9.6 9.6 0 0 1-1.621.2c-.566.023-1.07.157-1.617.284a4.3 4.3 0 0 1-.798.1c-.069 0-.142.012-.215.012-.085 0 .127.046-.058-.02-.162-.057-.316-.126-.477-.176-.27-.085-.543-.031-.82.02-.182.034.019.03-.058.018-.07-.007-.143-.034-.208-.05l-.432-.104.736.4c-.474-.323-.944-.708-1.506-.85a20 20 0 0 1-1.232-.347l1.42 1.04c-.068-.254-.103-.562-.23-.793-.15-.266-.44-.493-.647-.713l.158.27c.073-.25.17-.505.227-.763.046-.223.027-.458.07-.677.042-.22.146-.443.238-.659.1-.227.239-.25.47-.358.185-.089.366-.177.547-.277.254-.143.366-.254.585-.224.531.074.947-.023 1.467-.134.239-.05-.37-.532-.423-.57-.3-.231-.663-.505-1.048-.57l-.508-.085-.285-.046c-.077-.011.135.027-.054-.011-.339-.066-.655-.14-1.001-.128-.347.012-.682.027-1.024.047-.316.019-.624-.058-.936-.112l1.224.716c-.531-.474-1.047-.966-1.721-1.236-.454-.185-.916-.343-1.378-.504l.94.55-.625-.477.478.489c-.066-.193-.262-.593-.25-.736.011-.154.238-.523.323-.72.092-.208.173-.431.289-.627.084-.15.377-.59.416-.609.2-.1.539-.015.762-.061.135-.027.27-.081.4-.12.058-.019.436-.108.235-.115.243.007.497.188.74.239.27.053.562.026.84.034.192 0-.159-.343-.174-.358a4.2 4.2 0 0 0-.87-.624c-.335-.185-.705-.45-1.086-.52a3 3 0 0 0-.601-.057c-.243 0 .158.08.085.042-.1-.054-.224-.085-.331-.127-.07-.027-.193-.104-.266-.104 0 0 .516.296.212.115l-.493-.288c-.474-.278-.863-.305-1.394-.358l.84.42a72 72 0 0 0-1.433-.96l.897.782c-.112-.254-.204-.539-.358-.774-.073-.115-.173-.215-.258-.323-.05-.066-.131-.135-.17-.208-.038-.073.024.108.02-.035-.008-.173-.031-.37-.008-.543.015-.12.035-.12.127-.273.181-.3.304-.44.578-.663.215-.173.381-.389.581-.573.093-.085.062-.07.247-.104l.258-.047c.027-.003.261-.05.17-.05-.086 0 .057.016.095.023q.148.04.297.074c.12.03.254.08.381.084.15.008.324-.03.474-.05.061-.007.127-.019.192-.019-.15 0 .046.016.116.035.639.177 1.27.192 1.933.227.223.012-.328-.493-.335-.497-.304-.25-.655-.496-1.032-.624a12 12 0 0 0-1.456-.392l1.12.697c-.311-.29-.611-.593-.962-.836-.35-.243-.74-.42-1.12-.608l1.097.897c-.058-.216-.162-.455-.181-.678-.015-.142-.03-.008.02-.112.057-.115.176-.235.253-.335.243-.32.54-.546.848-.804H8.11q.432.117.862.234c.29.077.1-.165.004-.269-.262-.285-.608-.497-.94-.69-.423-.246-.816-.488-1.29-.623-.407-.12-.82-.212-1.235-.3l1.12.697-.616-.517.3.343c-.053-.343-.115-.681-.15-1.028-.011-.12-.046-.254-.042-.373.004-.12-.004-.035.02-.104.03-.089.284-.524.269-.516.134-.073.462 0 .616-.008s.289-.03.435-.05c.373-.05.685-.008 1.063.038l-.428-.161c.39.22.767.427 1.182.589.193.077.382.17.59.185.23.015.473-.024.704-.031l-.427-.162.354.189q.114.065.227.123c.224.108-.523-.358-.323-.2.32.25.681.516 1.043.689.493.235 1.075.339 1.602.485l-1.12-.697.416.385c.273.255.677.57 1.047.67.27.073.293-.027.077-.242-.454-.455-.917-.936-1.525-1.186-.312-.127-.685-.147-1.013-.2l1.367.85a14 14 0 0 0-2.168-1.848c-.238-.165-.489-.3-.743-.439-.034-.019-.27-.18-.304-.165 0 0 .474.32.358.22-.042-.04-.096-.07-.142-.101-.331-.235-.655-.47-.982-.709l.631.551c-.127-.192-.242-.393-.377-.577-.258-.35-.64-.586-1.001-.817-.362-.23-.751-.473-1.129-.7l.844.689-.25-.393c-.043-.07-.116-.146-.143-.223.062.169.03-.008.027-.039-.015-.189-.104-.397-.092-.585.003-.062 0 .015.042-.104.035-.097.088-.189.135-.281.073-.15.108-.27.17-.308.15-.085.384-.112.554-.158.27-.073.539-.135.812-.2.243-.058-.585-.694-.628-.72l-.296-.205c-.07-.046-.135-.096-.204-.138-.281-.177.293.227.281.223-.181-.054-.404-.343-.55-.477-.124-.112-.24-.228-.363-.335-.223-.193.297.38.039.007-.15-.22-.316-.427-.478-.639q-.076-.096-.146-.192c-.085-.12.004.023-.011-.016a3.4 3.4 0 0 1-.128-.47c-.038-.188.104-.45.274-.677.138-.185.362-.3.516-.474.165-.185.292-.427.431-.635h-.162c.25.073.516.188.778.223s.54-.023.797-.042L7.324.475l.3.338c.047.054.093.12.147.166.12.108-.108-.273-.096-.112.019.24.273.578.373.809.12.277.25.528.408.786.05.08.108.161.15.246.054.115-.046-.12-.003.023s.084.297.127.447c.073.254 1.525 1.22 1.579 1.04.057-.2.1-.42.192-.609.073-.139.339-.574.37-.593.096-.062.289-.065.4-.092.058-.012.189-.023.239-.054.166-.1.073.196-.13-.093.095.135.553.224.72.285l-1.275-.986c.13.463.23.81.504 1.206.273.396.64.7 1.005 1.024l-.3-.343c.119.231.261.462.35.709s.131.52.227.77c.112.296.231.539.277.851s.104.562.19.851c.096.32.234.512.43.782.043.057.1.119.14.184.042.077-.028-.115 0 .066.03.173.057.358.11.524.082.258.27.473.355.727.085.255.092.54.13.794l1.58.978c-.166-.516-.316-1.013-.39-1.552-.08-.597-.088-1.194-.226-1.78-.066-.28-.143-.561-.216-.842-.073-.282-.062-.574-.08-.867q-.013-.144-.024-.289c-.011-.119-.042-.442-.042-.454.019-.27.111-.535.15-.805.054-.377.065-.627.235-.962.065-.131.111-.262.22-.35.134-.109.334-.178.488-.259h-.162q.192.059.382.112c.127.034.373.138.173.042.235.112.466.231.697.343l-1.275-.986c.093.212.29.54.328.705s-.008.535 0 .774c.023.57.142 1 .339 1.532.107.297.546.555.793.713.058.038.785.439.79.327.007-.193-.016-.416.042-.597.061-.192.207-.362.284-.55.043-.108.174-.617.166-.613.116-.077.547.008.693.008l-.84-.42.64.45-.631-.55.23.335c.054.081.12.158.17.243.035.061.038.138.008.011.057.247.061.536.08.79.039.523.043 1.055.058 1.578.008.247.632.605.794.713.057.038.781.439.789.327.03-.604.004-1.228.127-1.817.065-.316.116-.636.189-.948.061-.27.184-.523.254-.793.077-.289.065-.581.227-.832.185-.277.408-.535.624-.793.142-.17.146-.216.265-.223.19-.016.4.065.59.08.285.02.577-.01.866-.022l-1.47-.967c.157.216.319.431.469.65q.136.205.262.409c.038.058.088.12.12.185-.082-.173-.02.011-.016.03.142.563.373 1.09.531 1.645.077.273.166.539.262.808.115.324.046.513-.012.913-.034.254-.104.531-.096.786.008.254.123.543.193.8.088.324.635.62.897.782.084.054.697.424.681.197-.015-.228-.069-.459-.05-.674.008-.089.143-.335.227-.509.085-.173.116-.254.112-.442q-.001-.197-.008-.393c0-.066.016-.266 0-.216.108-.381.34-.7.613-.97.312-.308.608-.412 1.016-.578l-.481-.142.512.258c.327.165.008.034.012-.008 0 .027.265.173.28.181.09.058.174.116.263.17.1.061-.27-.205-.139-.09.035.032.073.055.108.078q.255.189.516.377l-.686-.643c.039.5.031 1.055.131 1.548.05.239.208.482.227.724.012.127.012-.092 0 .039-.007.061-.053.146-.073.204-.054.15-.13.308-.165.462-.112.535.042.986-.004 1.525-.042.47-.181.95-.277 1.417-.062.308 1.417 1.313 1.582 1.097.22-.285.409-.454.432-.812.007-.143-.031-.424.034-.551.066-.127.316-.262.424-.35.115-.097.177-.143.242-.266.1-.185.104-.431.216-.608.146-.24.524-.34.778-.466h-.162c.5.154.994.292 1.506.412.381.088-.058-.335-.139-.405-.296-.262-.72-.604-1.12-.697z"/><path fill="#626D2F" d="m38.11 42.836-.346-.678-.216-.709-.227-.704.027-.782-.389-.654-.127-.732-.08-.747-.193-.712-.331-.674-.143-.728-.239-.7-.207-.71-.05-.75-.509-.636.139-.797-.258-.7-.331-.686-.02-.755-.296-.697.12-.774-.359-.693-.004-.75-.03-.744-.282-.72-.023-.75.058-.76.293-.712.581-.37.651-.026.647.05.547.358.47.454.415.532.416.562-.008.72.336.75-.49-.716.004-.777-.358-.632-.408-.612-.277-.666-.081-.732-.327-.655-.081-.727-.262-.678-.181-.7v-.732l-.015-.717.157-.677.324-.628.705.108.52.408.72.32.319.662.354.635.27.674.07.74.303.696-.227-.731-.342-.666-.031-.74.065-.755-.285-.685-.035-.728-.169-.712.104-.716.243-.555.658-.154.474.535.639.34.304.45.077-.57-.127-.732-.011-.735.196-.72.212-.705-.127-.774.439-.628.246-.685.497-.531.666-.3.747.01.6.478.078.767.481.596-.05.74.235.7.038.72.035.725-.154.616.35-.493.724-.158.593-.243.64-.4.535.508.458.59-.4.7v.766l-.285.69-.212.716-.22.716-.55.574-.143.755-.373.646-.505.578-.077.801-.358.5.408-.404.408-.577.49-.509.48-.516.328-.673.67-.332.458-.554.547-.474.682-.246h.689l.62.104.281.681-.027.759-.266.7-.254.698-.473.6-.093.77-.57.543-.211.724-.413.62-.254.709-.427.608-.393.628-.447.593-.37.643-.377.578.501-.52.578-.509.612-.473.45-.636.578-.504.662-.4.4-.74.72-.327.605.192.266.69-.389.677-.635.451-.55.505-.467.712.47-.65.6-.382.636-.324.6-.373.679-.22.627-.304.666-.15.682-.085.605.362.165.736-.104.735-.204.713-.173.739-.482.597-.254.716-.462.597-.23.75-.49.409.528-.262.627-.339.694-.165.662-.174.747-.165.585.562-.423.685-.409.601-.646.377-.62.42-.682.32-.628.423-.635.428-.709.27-.739.196-.724.22-.485.396.54.239.734-.231.694.192.654.285.674.239.478.624-.158.785-.5.605-.644.396-.654.347-.674.316-.732.169-.674.312-.72.189-.7.242-.625.458-.654.37-.77.039-.694.261-.7.247-.682.308-.712.204-.736.142-.758.047-.624.497-.79-.04-.7.247-.678.324-.69.304z"/><path fill="#000" d="M38.638 42.535c-.093-.18-.181-.362-.273-.539-.135-.262.034.039.026.058.02-.062-.08-.258-.1-.32-.096-.308-.154-.785-.33-1.043.18.266.053.593.076.254.008-.127.008-.258.012-.389.011-.327-.023-.608-.185-.909-.1-.184-.208-.4-.339-.566-.154-.196.12.551.112.305-.004-.124-.043-.255-.062-.374-.135-.79-.185-1.571-.539-2.303q-.087-.177-.173-.354c-.05-.104-.185-.435-.02.016.166.45.062.123.039 0-.027-.14-.05-.278-.08-.413-.078-.358-.216-.7-.328-1.047-.02-.062-.212-.654-.197-.662.043-.02.043.554.07.377.011-.07-.012-.158-.016-.227l-.023-.381c-.042-.69-.439-1.105-.847-1.614l.297 1.082c.104-.589.227-1.078.015-1.655a15 15 0 0 0-.616-1.394l.185.677c-.012-.385.03-.835-.096-1.201-.043-.12-.1-.235-.147-.347-.038-.092-.07-.211-.127-.296-.12-.193-.02.55.062.346.292-.758-.093-1.44-.428-2.098l.185.677c-.004-.388-.008-.777-.023-1.166-.012-.274-.012-.54-.1-.801-.062-.181-.131-.505-.254-.647-.035-.039.046.624.054.242 0-.134-.008-.265-.012-.4-.004-.162 0-.316.015-.477.008-.128.047-.29.031-.416-.004-.043-.084.227.027.007.093-.188.162-.392.239-.585l-.2.266c.177-.112.366-.212.531-.34.089-.064-.058.016-.092.02.046 0 .096-.008.142-.004.123 0 .254 0 .374-.015.238-.023-.15-.023.03-.012.124.008.243.027.366.027.031 0 .112.023.139.012.092-.05-.123-.077-.096-.046.065.073.2.13.28.18.074.047.155.093.224.147-.316-.247-.062-.012.004.054q.127.129.258.25c.03.031-.193-.23-.027 0 .235.328.493.64.732.963l-.331-.89c-.004.343-.054.724.034 1.055.081.3.239.582.366.867l1.163-.37-.493-.716.185.678c0-.39.061-.851-.07-1.225-.111-.316-.32-.624-.496-.909-.096-.157-.197-.33-.316-.473-.166-.197.054.177.023.088-.035-.096-.077-.188-.12-.285-.034-.084-.06-.177-.107-.258-.093-.157.008.197.023.1.03-.177-.042-.446-.07-.623-.01-.066-.365-1.155-.496-1.155.085 0 .158.677.146.3 0-.1-.023-.204-.034-.304a2.5 2.5 0 0 0-.112-.555 5 5 0 0 0-.2-.52c-.112-.235.034.181.007.073q-.038-.15-.077-.3c-.023-.085-.03-.192-.069-.27-.08-.161-.02.181-.008.081.023-.2 0-.42 0-.623q0-.23-.007-.459c0-.084.019-.2-.008-.28-.027-.097-.054.226-.023.119.015-.054.027-.112.038-.166.027-.115.07-.235.081-.35.023-.216-.054.054-.019-.023.085-.197.196-.386.293-.574l-.455.146.709.108-.362-.193c.462.366.878.613 1.417.851l-.493-.504c.123.254.243.512.377.762.085.158.166.343.274.49.096.13-.135-.351-.039-.081.031.092.073.184.108.273.03.077.054.177.096.246.062.089-.023-.32-.03-.065-.008.18.026.389.053.57.054.346.232.662.37.978.154.354.493.882.955.816.462-.065.416-.635.316-.955-.181-.577-.404-1.09-.678-1.628l.185.677c-.02-.458-.008-.882.023-1.336.02-.296-.038-.55-.154-.82-.046-.108-.092-.335-.173-.416-.139-.135.146.385.054.381l-.008-.173c-.004-.25 0-.524-.042-.77-.02-.135-.066-.597-.166-.686.115.1-.03.278.027.089.015-.05.015-.108.023-.158.02-.135.027-.281.058-.416.011-.038-.089.185 0 .1.038-.038.058-.127.077-.177l.142-.316-.358.316.659-.158-.701-.373c.204.23.4.508.64.704.238.197.546.32.815.463l-.492-.505.304.45c.316.47 1.116.944 1.236.078a3.9 3.9 0 0 0-.023-1.286c-.039-.224.007-.247-.027-.031.015-.097 0-.208-.004-.308 0-.093.035-.278-.004-.359-.038-.08-.011.074-.027.124.016-.043.023-.093.035-.135.115-.385.227-.778.33-1.163.116-.431-.003-.862-.072-1.294l-.096.562c.188-.27.411-.531.535-.835.069-.17.142-.35.188-.528.047-.177.031-.019-.03.039q.09-.095.177-.189l.208-.22c.096-.107.157-.076-.008-.007q.242-.106.477-.216c.147-.069.216-.023.031-.027.058 0 .12-.003.181 0 .181.023.374.004.555.008l-.535-.204.596.481-.481-.843c.038.37.035.77.193 1.113.157.343.446.631.681.924l-.331-.89c-.027.409-.089.801.03 1.202q.077.256.17.504c.185.493-.015-.585-.004-.077.008.297.031.597.047.898 0 .069-.02.246.015.308.058.096.077-.2.02-.074-.074.166-.093.378-.14.551-.103.416.085.874.382 1.167.22.212.658.466.897.127l.35-.493-.28.162a6.2 6.2 0 0 0 2.11-.851l-.694-.154.266.254.158.15c.146.135.07.015.027.023-.066.012-.096-.123-.012.008.047.07.108.135.158.204l.231.293-.22-1.24c-.18.32-.477.693-.508 1.066a3.4 3.4 0 0 0 0 .628c.027.216.054-.058.012-.02-.042.035-.065.155-.085.209-.142.342-.25.677-.358 1.036l-.115.38c-.035.108-.081.224-.104.336-.035.192-.004-.004.023-.02-.262.162-.547.532-.628.825-.054.2-.085.415-.12.623.032-.208.059-.107-.022.027l-.158.274c-.166.288-.443.492-.616.77-.193.312-.162.8-.193 1.159l.108-.347-.358.5c-.44.617.539 2.111 1.201 1.452.435-.43.763-.927 1.186-1.366.193-.197.416-.397.574-.617.177-.25.293-.577.427-.854l-.2.265c.328-.161.647-.277.89-.554q.125-.145.246-.297c.073-.092.158-.2.008-.042.135-.139.308-.3.47-.408.115-.077.23-.116.362-.166q.152-.055.304-.112c.115-.042-.158-.011.046.024.112.019.243 0 .354 0 .135 0 .266.03.05-.008.2.038.405.07.605.104l-.782-.805c.077.189.139.397.239.574.162.3 0-.54-.035-.254-.015.127-.007.258-.011.385 0 .065-.039.366 0 .189.046-.19-.062.115-.081.169-.062.162-.127.323-.185.489q-.117.306-.223.612c.057-.17.05-.092-.058.031-.089.1-.173.212-.25.32-.258.354-.25.816-.3 1.243l.107-.346c-.22.208-.524.416-.643.697-.054.127-.08.273-.12.408-.026.088-.057.173-.076.266-.027.138.111-.17.03-.058-.18.254-.373.52-.489.812-.065.166-.138.343-.184.516-.054.2.019-.019.019-.015-.054.058-.096.135-.139.2-.647.924-1.24 1.875-1.856 2.819-.404.62.547 2.13 1.202 1.452l.312-.324c.05-.054.103-.1.15-.158.092-.108-.154.135-.05.039.184-.166.373-.335.566-.497.23-.189.508-.346.708-.562.085-.093.154-.216.224-.316.046-.062.32-.47.111-.22.154-.184.397-.373.593-.512.235-.169.57-.27.759-.492.17-.204.258-.501.396-.728-.104.17-.138.08-.019.054.066-.016.162-.073.224-.1l.4-.185-.331.038.604.193-.781-.805.265.69.035-.794-.216.377c-.05.085-.288.42-.057.197-.22.212-.52.346-.747.55-.428.382-.701.736-1.013 1.217-.416.64.678 2.184 1.201 1.452.143-.2.34-.404.447-.624 0-.008-.177.089-.035.039.054-.02.108-.07.158-.1.12-.078.239-.158.362-.232.385-.219.87-.377 1.202-.677.1-.089-.197.061-.062.007.054-.023.112-.034.166-.053l.412-.131c.261-.085.546-.197.777-.347.12-.073-.157.035-.065.015l.208-.046c.135-.03.273-.07.408-.092.227-.043.462-.058.693-.089l-.354-.08.605.361-.663-.966.085.37c.02.08.03.173.058.254.077.22-.081-.054.011-.089-.038.015-.058.389-.065.443q-.019.109-.031.223c-.016.147.088-.211.008-.084-.112.177-.143.489-.197.693q-.055.232-.111.47c-.016.065-.039.134-.047.2 0 .019.139-.162.016-.054-.193.17-.405.462-.508.7-.062.14-.105.29-.155.436-.026.073-.053.142-.077.215-.042.135.12-.157.023-.057-.415.435-.566.897-.735 1.459l.2-.266-.489.409c-.616.515.193 2.056.955 1.67q.347-.171.69-.35.224-.121.454-.242c-.204.111-.104.03 0 .007.096-.019.192-.046.289-.069.558-.135 1.113-.277 1.675-.4l-.535-.204.585.566-.39-1.41q-.206.342-.419.678-.088.136-.18.27c-.055.076-.124.157-.166.242-.074.15 0 .015.03 0-.47.22-.858.574-1.317.813-.489.258-.935.512-1.393.82-.231.154-.436.304-.697.4-.15.058-.3.112-.451.173-.035.016.204-.05.038-.015-.096.02-.188.05-.284.073q-.472.128-.944.274c-.316.096-.527.277-.793.493-.516.42-.085 1.405.443 1.64.323.142.658.358 1.012.285.166-.035.416-.093.563-.177.065-.035-.2-.081-.012 0 .089.038.189.054.281.077.077.023.173.07.254.07.127.003-.25-.117-.027-.013.166.081.335.15.505.22.296.123.604.223.905.331l-.528-.362.478.62-.297-1.082-.088.44c-.016.076-.047.16-.05.242-.012.188.053-.035.023-.012-.135.104-.25.297-.355.428-.023.03-.173.184-.054.08.12-.104-.107.05-.142.074-.527.327-1.078.585-1.629.87-.13.07-.15.061 0 .02q-.11.026-.22.05c-.165.038-.338.069-.5.115s-.3.119-.45.188c-.089.043-.185.077-.274.127-.188.104.096-.011 0 .012-.57.135-1.251.27-1.729.62a7 7 0 0 1-.747.493c-.077.042-.18.084-.25.142-.127.1.112 0 .023-.004a3.4 3.4 0 0 0-.624.035c-.527.066-1.151.366-1.648.566-.154.062-.304.139-.458.208q-.106.043-.204.092c.173-.088.096-.03-.043.008-.3.085-.589.162-.897.224a7 7 0 0 1-.932.107c-.354.023-.577.212-.835.447-.147.135-.139.046 0 .062-.081-.008-.166-.008-.247-.012-.165-.008-.365-.046-.527-.023-.316.042-.674.216-.967.347-.32.142-.635.3-.958.442-.09.039-.181.074-.27.12.096-.05.135-.035-.03 0-.197.038-.398.084-.594.13-.89.197-.115 1.938.643 1.772.4-.089.786-.162 1.163-.327.377-.166.724-.355 1.094-.505.161-.065.327-.115.492-.173q.072-.026.143-.05c.135-.046.015.042-.062.023.1.023.231.011.335.015.193.008.416.058.597-.03.181-.089.374-.274.512-.405.031-.03.07-.054.1-.08-.015.015-.207.038-.088.038.108 0 .216-.015.323-.02.181-.01.355-.022.532-.053.404-.07.79-.17 1.186-.285.35-.104.662-.278 1.001-.408.385-.15.778-.274 1.163-.42.146-.054.212-.023.038-.02.108 0 .216-.01.324-.015.227-.011.431-.004.64-.1.353-.165.673-.393.989-.624.123-.088.215-.158.35-.215.12-.05.246-.085.37-.127.135-.047.296-.077.1-.035.412-.089.8-.212 1.178-.389.1-.046.208-.085.304-.142-.115.065-.104.026.066-.008.23-.046.481-.093.7-.173.343-.131.675-.32 1.002-.49.635-.335 1.467-.773 1.686-1.517.066-.223.1-.47.143-.7.092-.501-.135-.882-.428-1.264-.177-.234-.35-.515-.6-.677-.231-.154-.543-.231-.805-.32-.289-.1.12.066-.035-.011-.119-.062-.246-.108-.37-.162a4 4 0 0 0-.608-.223c-.212-.058-.458-.166-.681-.135-.224.03-.474.15-.697.223l.354.081-.543-.239.443 1.64.316-.257c.03-.023.215-.208.092-.112-.092.073.035-.011.108-.035q.382-.121.77-.227c.574-.15 1.151-.308 1.648-.639.913-.612 1.868-1.12 2.8-1.702.489-.304.789-.99 1.09-1.475.3-.485-.04-1.07-.39-1.41-.35-.338-.693-.82-1.205-.746-.424.061-.85.2-1.267.304-.335.085-.693.135-1.005.285-.354.173-.7.37-1.055.547l.955 1.67c.185-.153.47-.323.612-.519s.235-.57.278-.805c.034-.196-.135.139.05-.069.104-.116.204-.25.296-.377.15-.216.22-.45.308-.697.054-.147.177-.32.027-.127q.144-.185.289-.362a1.5 1.5 0 0 0 .323-.659c.112-.473.278-.94.35-1.42.035-.224.093-.455.097-.678.008-.308-.108-.643-.177-.94-.166-.678-.99-1.463-1.748-1.41-.47.035-1.001.112-1.437.297-.13.054-.258.127-.385.189-.046.023-.111.042-.154.077-.088.065.208-.07.073-.016-.258.097-.542.139-.793.255-.212.1-.4.261-.604.377s-.432.204-.636.323c-.238.135-.52.285-.712.486-.177.188-.316.438-.466.65l1.201 1.452c.2-.304.37-.624.64-.87l.289-.266c.18-.165-.135.066.026-.015.19-.093.405-.262.563-.397.373-.32.7-1.005.585-1.475-.154-.62-.462-1.397-1.094-1.617-.18-.062-.389-.154-.577-.185-.27-.042-.505.112-.743.22-.181.08-.347.13-.466.296-.097.135-.328.47-.347.632-.011.1.166-.066 0 .007-.112.046-.216.131-.316.193a2.5 2.5 0 0 0-.404.285c-.35.304-.65.581-.901.978-.023.035-.07.077-.085.12-.019.046.181-.128.043-.04-.108.074-.212.162-.316.243-.147.116-.289.227-.428.35-.354.313-.685.632-1.012.971l1.201 1.452c.362-.555.678-1.128 1.078-1.66.185-.246.335-.512.505-.77s.396-.512.523-.809c.077-.18.154-.377.205-.566.061-.235-.078.093-.008 0 .061-.084.115-.177.173-.262.216-.323.35-.62.439-1 .042-.178.127-.174-.011-.043.057-.058.119-.112.177-.17.115-.111.277-.223.37-.354.196-.277.172-.797.211-1.128l-.108.347c.3-.386.524-.69.693-1.148.143-.385.37-.793.412-1.205.054-.543.02-1.032-.188-1.537-.143-.342-.266-.708-.562-.954-.255-.212-.601-.247-.917-.29-.427-.057-.855-.053-1.26.093-.446.162-.68.327-1.039.647-.17.15-.304.324-.447.497-.103.127-.23.173-.034.073q-.182.092-.362.177c-.246.123-.381.177-.508.443l-.15.304c-.031.066-.066.131-.097.196-.03.062-.127.166-.03.062.115-.127-.159.139-.2.185l-.232.25c-.162.17-.339.328-.489.505-.285.338-.504.677-.824.993l1.201 1.452c.193-.27.424-.516.47-.855.035-.262.05-.531.073-.793l-.107.346c.358-.408.777-.85.958-1.382.039-.116.05-.258.074-.378.015-.077.05-.18.05-.258 0-.123.092-.134-.047.027.181-.215.443-.392.578-.639.243-.446.304-1.032.474-1.513.08-.231.215-.454.285-.69.084-.296.03-.65.03-.954l-.108.346.397-.704c.231-.409.05-.894-.22-1.24a11 11 0 0 0-1.162-1.267c-.162-.154-.478-.289-.693-.154-.216.135-.408.28-.628.393-.1.05-.208.088-.308.13-.066.027-.139.05-.2.085-.17.081.061-.011.027-.004-.247.047-.536.077-.767.174-.254.107-.396.408-.554.627l1.278 1.294c.12-.473.185-.855.158-1.344-.023-.45 0-.936-.127-1.37-.054-.185-.104-.478-.212-.636-.057-.085.054.37.062.358.02-.027.004-.12.012-.158.019-.127.019-.265.026-.393.031-.696-.392-1.135-.8-1.64l.315.674c-.042-.412-.034-.859-.246-1.228-.2-.347-.582-.616-.901-.851-.574-.424-1.51-.25-2.084.111-.227.143-.489.424-.642.643-.09.124-.131.285-.181.424-.031.085-.062.165-.09.25-.01.031-.11.262-.026.1.085-.161-.054.062-.073.085-.054.073-.108.154-.162.231-.13.185-.262.343-.273.585-.02.324.088.674.138.99l.02-.408c-.174.581-.424 1.197-.436 1.806-.003.35.008.693.07 1.036.019.111.034.23.061.342.05.208-.027-.023 0-.08-.069.146-.053.392-.077.55l1.236.077c-.308-.454-.581-.84-1.078-1.101-.092-.05-.189-.116-.285-.15-.27-.104.412.435.2.17-.127-.159-.265-.301-.4-.451-.154-.174-.439-.436-.7-.374-.417.1-.848.108-1.044.531a3.6 3.6 0 0 0-.305 1.044c-.057.385-.034.785.108 1.178.066.177.023 0 .012-.092.011.085.008.173.011.258.008.22 0 .454.035.67.035.227.15.447.243.658.027.066.05.17.096.227 0 0-.008-.608-.073-.296-.073.354-.05.74-.035 1.098.02.515.173.916.408 1.374.035.066.108.162.123.239-.065-.4-.077-.166-.042-.03.05.18.112.361.17.538l1.27-.138-.17-.39c-.03-.073-.057-.192-.11-.254-.093-.111 0 .266.034.124.054-.239-.05-.697-.131-.928-.189-.555-.474-1.044-.743-1.564-.181-.35-.308-.75-.62-1.012-.1-.085-.778-.486-.87-.428-.012.008.223.177.08.054q-.111-.091-.223-.177c-.127-.1-.262-.227-.404-.3-.262-.135-.605-.135-.89-.178-.142-.023-.373-.007-.454.147-.316.62-.597 1.213-.585 1.925.015.67 0 1.294.169 1.949.08.315.166.723.339 1 .073.116-.023-.296-.031-.096-.004.093.023.19.03.282.028.254.055.47.159.708.069.166.158.324.239.481.038.074.069.17.119.24.054.072-.116-.61-.131-.301-.02.331.08.716.204 1.02.277.705.705 1.313 1.078 1.968l-.185-.678c0 .39-.061.855.07 1.225.123.346.396.65.6.95.204.301.528.694.928.56.362-.124.37-.632.235-.929-.096-.215-.177-.443-.292-.647-.166-.3-.012.543.03.262.024-.142.008-.308.008-.45 0-.686-.358-1.136-.755-1.652-.531-.693-1.297-1.64-2.225-1.714-.409-.03-.97-.13-1.356.039-.18.08-.412.227-.562.358-.208.177-.277.423-.377.674-.35.858-.297 2.017.038 2.86q.034.095.073.19c.112.246-.077.119-.023-.301-.015.112.008.243.012.358.008.22.015.435.015.655.004.42 0 .766.193 1.159q.168.34.35.681l-.185-.677c-.065.42-.18.824-.038 1.236.065.188.146.4.242.573.174.305-.011-.485-.026-.28-.008.103.003.215.007.319.008.273-.008.562.085.824.08.223.212.447.316.658.038.077.088.162.119.243-.154-.45-.065-.135-.035-.038.058.173.127.346.189.52l-.042-.64c-.074.416-.231.909-.127 1.32.115.455.508.837.797 1.195l-.332-.89c.024.397.016.816.124 1.198q.108.382.227.758c.058.181.115.366.185.54.077.192.034-.035-.02-.108.039.05.039.2.05.258.078.404.182.758.363 1.132.073.146.169.292.219.446-.17-.493-.015.097.015.227.023.085.039.174.07.255-.031-.085-.046-.304-.046-.1 0 .184.038.389.065.573.035.262.073.532.13.79.09.408.348.762.56 1.116l-.186-.677c-.007.258-.03.523-.026.781.007.385.18.774.296 1.136.181.578.4 1.094.678 1.633.161.316.624.743 1.005.535.4-.22.2-.84.05-1.136z"/><path fill="#000" d="M18.923 18.542c.504.574 1.063 1.128 1.525 1.737.462.608.816 1.27 1.236 1.894.805 1.19 1.779 2.291 2.7 3.393.446.539.812 1.132 1.2 1.713.39.582.844 1.113 1.314 1.656.908 1.051 1.894 2.04 2.626 3.227.389.627.72 1.194 1.228 1.721s1.009.982 1.406 1.563c.396.582.766 1.244 1.251 1.776.485.53 1.051 1.055 1.475 1.644.423.589.797 1.274 1.259 1.864.462.589 1.055 1.132 1.525 1.748s.805 1.301 1.26 1.913c.453.613 1.016 1.106 1.509 1.656s.831 1.186 1.228 1.775c.397.59.774 1.213 1.159 1.822.385.608.905 1.078 1.417 1.594s.905 1.02 1.332 1.583q.312.41.624.816c.374.485 1.552-.343 1.186-.82-.466-.609-.905-1.256-1.405-1.837-.501-.581-1.094-1.055-1.598-1.617-.474-.528-.805-1.236-1.183-1.837-.377-.6-.8-1.202-1.205-1.802-.404-.6-.89-1.07-1.367-1.587s-.855-1.093-1.255-1.698c-.77-1.167-1.775-2.13-2.553-3.284-.404-.597-.778-1.167-1.263-1.699-.485-.531-.974-1.008-1.367-1.59-.393-.581-.759-1.255-1.255-1.771-.497-.516-1.11-1.02-1.518-1.614-.408-.593-.735-1.32-1.186-1.913s-1.024-1.163-1.528-1.74c-.505-.578-1.028-1.133-1.498-1.734-.47-.6-.832-1.244-1.252-1.856s-.908-1.12-1.367-1.667-.885-1.125-1.324-1.69c-.44-.567-.809-1.163-1.198-1.76s-.808-1.086-1.278-1.618l-.682-.773c-.408-.466-1.575.38-1.186.82z"/><path fill="#000" d="M39.389 42.87c.18-.854.327-1.725.55-2.572.24-.92.493-1.837.69-2.768q.313-1.472.631-2.95c.212-.986.493-1.93.797-2.9s.459-1.936.659-2.915c.13-.646-1.294-.858-1.429-.196-.173.855-.289 1.744-.55 2.576-.285.913-.597 1.81-.798 2.742-.42 1.964-.831 3.924-1.336 5.864-.25.963-.435 1.941-.639 2.915-.135.643 1.294.859 1.429.197z"/><path fill="#000" d="M38.372 41.996c-1.898.1-3.793.278-5.687.358-.574.023-1.163.008-1.733.074-.447.053-.897.173-1.34.261-.393.077-.809.208-1.21.22-.596.02-1.216-.085-1.813-.123-1.036-.07-2.068.088-3.1.18-.643.058-.13 1.395.432 1.345.874-.077 1.802-.27 2.68-.208.982.065 1.944.227 2.91.038.59-.115 1.183-.27 1.78-.35.416-.058.843-.046 1.263-.066 1.043-.046 2.08-.12 3.123-.204s2.083-.127 3.123-.18c.639-.035.134-1.376-.432-1.345z"/></g><g clip-path="url(#b)"><path fill="#000" stroke="#000" stroke-miterlimit="10" stroke-width=".186" d="M65.162 57.688c-.936-1.93-1.407-4.578-1.407-7.953q-.001-8.914 3.776-20.804c2.514-7.927 5.756-14.713 9.716-20.364C81.207 2.924 85.25.098 89.372.098q4.095 0 6.946 4.256t4.216 11.165c.912 4.605 1.364 9.557 1.364 14.858s-.417 9.918-1.246 14.497q-1.243 6.866-3.654 11.085-2.41 4.216-5.622 4.217-4.658 0-6.664-3.855c-1.34-2.57-1.98-6.72-1.929-12.45q-2.085 7.07-5.222 11.888-3.135 4.817-8.03 4.818c-1.98 0-3.442-.963-4.377-2.893zm10.8-1.686c1.768-2.302 3.104-4.75 4.016-7.348s1.846-5.714 2.809-9.357q.16-.483.562-.483.724 0 .723.801-.163 3.538-.161 4.818c0 5.25.573 8.996 1.724 11.247q1.728 3.372 5.74 3.372 2.812 0 4.94-4.056 2.127-4.054 3.253-10.684 1.124-6.626 1.123-14.018c0-4.928-.416-9.84-1.245-14.257S97.36 8.044 95.67 5.313q-2.528-4.096-6.302-4.095c-3.854 0-7.685 2.826-11.484 8.473q-5.704 8.474-9.355 20.202-3.654 11.73-3.654 20.16-.001 4.42 1.123 6.908c.75 1.659 1.93 2.492 3.532 2.492q3.772 0 6.424-3.454zm11.485-44.295q.16-.2.4-.2.243 0 .401.2c.106.133.161.31.161.522q0 3.696-.884 8.394-.883 4.7-2.49 8.716-.242.484-.641.484-.642 0-.4-1.124 3.292-11.325 3.292-16.466c0-.212.05-.389.16-.522z"/></g><defs><clipPath id="a"><path fill="#fff" d="M0 0h60.679v60.679H0z"/></clipPath><clipPath id="b"><path fill="#fff" d="M63.657 0H102v60.679H63.657z"/></clipPath></defs></svg>