<svg xmlns="http://www.w3.org/2000/svg" width="314" height="49" fill="none"><path fill="#000" d="M.484 48V1.1h19.028c10.452 0 15.209 4.623 15.209 11.725 0 5.092-2.345 7.973-6.767 9.38 6.968 1.876 9.983 6.231 9.983 12.06C37.937 41.836 32.711 48 20.316 48zm10.05-27.872h8.576c3.015 0 5.561-1.608 5.561-5.427s-2.546-5.159-5.561-5.159h-8.576zm0 19.43h9.447c5.628 0 7.571-3.015 7.571-6.432 0-3.551-1.943-6.633-7.571-6.633h-9.447zM77.849 48h-9.916l-8.911-15.611H50.58V48H40.53V1.1h18.96c12.463 0 17.89 6.499 17.89 15.678 0 6.7-2.881 11.926-9.38 14.271zM50.579 9.81v13.869h8.577c5.494 0 7.906-2.747 7.906-6.901 0-4.221-2.412-6.968-7.906-6.968zM114.087 48l-3.015-8.777H91.306L88.291 48H77.772L94.723 1.1h12.931L124.605 48zM93.852 31.786h14.673l-7.035-20.435h-.603zM126.575 48V1.1h10.452l18.894 30.82h.201V1.1h10.05V48h-10.854l-18.492-30.217h-.201V48zm44.233 0V1.1h17.755c14.606 0 22.177 8.375 22.177 23.45S203.169 48 188.563 48zm10.05-8.71h6.7c9.581 0 12.931-4.422 12.931-14.74s-3.35-14.74-12.931-14.74h-6.7zM213.994 48V1.1h10.05V48zm14.659 0V1.1h10.452l18.894 30.82h.201V1.1h10.05V48h-10.854l-18.492-30.217h-.201V48zm65.279.67c-14.137 0-22.378-8.911-22.378-23.986 0-15.276 8.978-24.187 22.11-24.187 9.715 0 17.822 4.757 19.43 15.477h-9.916c-1.608-5.494-5.963-6.834-9.581-6.834-7.973 0-11.725 6.566-11.725 15.276 0 8.777 3.618 15.611 11.792 15.611 5.025 0 10.318-2.479 10.318-9.782h-9.045v-8.04h19.028v3.819c0 15.41-7.102 22.646-20.033 22.646"/></svg>