<svg xmlns="http://www.w3.org/2000/svg" width="143" height="55" fill="none"><path fill="#000" d="M35.355 11.464c1.55.624 2.547 1.823 3.046 3.31.35 1.178.435 2.542.203 3.975-.047.367-.13.778-.217 1.15-.294 1.196-.83 2.374-1.452 3.52l-1.633-.657c.516-.975.947-1.982 1.176-3.012.098-.25.152-.538.206-.825.058-.691 0-1.331-.208-1.836-.31-.738-.888-1.33-1.809-1.69-.629-.265-1.447-.392-2.378-.427-4.168-.143-9.097 2.85-13.584 7.134-5.153 4.949-9.628 11.57-11.722 17.329-.958 2.75-1.226 5.113.03 7.378.776 1.421 2.199 2.42 4.203 2.72.735.095 1.502.105 2.385.064 3.364-.268 7.16-1.543 10.885-4.023 3.765-2.482 6.854-5.75 12.18-11.885l1.528.828c-5.791 6.782-9.414 10.825-13.64 13.996-3.966 2.945-7.993 4.766-11.52 5.008-1.004.052-1.932.056-2.75-.07-2.535-.373-4.263-1.626-5.279-3.47-1.693-3.07-.97-8.824.442-12.785 2.18-6.13 6.943-13.14 12.357-18.315 4.931-4.728 10.442-7.975 15.213-7.848.89.04 1.669.17 2.338.43m9.538 12.154c-.261.669-.759 1.4-1.184 2.044-.062.207-.12.455-.029.567.128.07.415.124.699.138.407.043.775.09 1.116.301.597.349.86 1.01.231 2.52.361.854-.241 2.644-2.991 6.526-.676.99-1.471 2.434-1.881 3.681l.033.36c.098.193.19.306.437.364.323.01.876-.12 1.654-.434 1.352-.649 2.675-1.617 3.86-2.774 1.41-1.34 2.601-2.86 3.404-4.225l.04-.003.033-.084 1.596.7-.032.084c-1.017 1.667-2.58 3.988-4.378 5.927-1.395 1.5-2.889 2.806-4.437 3.513-1.203.514-2.112.718-2.763.657-.855-.083-1.383-.56-1.572-1.308-.215-.586-.161-1.317.049-2.102.025-.164.09-.331.112-.535.047-.367.094-.735.178-1.145.355-1.848 1.477-4.129 2.44-5.508.784-1.12 1.35-1.98 1.78-2.583-.492-.076-.983-.152-1.383-.56-.135-.148-.273-.337-.331-.533-.538.735-1.25 1.768-1.93 2.717-.93 1.296-2.582 3.948-2.869 4.337l-.04.004-1.383-1.003-.003-.04.04-.003c.145-.175.712-1.034 2.252-3.595.94-1.619 2.332-3.602 3.298-4.94.785-1.121 1.613-2.65 2.368-3.646zm20.352 3.216c-.93 2.626-3.768 5.105-6.952 6.89-2.184 1.248-4.518 2.188-6.533 2.655.212.989.649 1.796 1.304 2.34.611.51 1.4.76 2.237.643 1.836-.209 4.024-1.418 6.03-2.852 2.457-1.798 4.518-3.963 5.2-5.317l1.703.53c-.814 1.688-2.445 3.693-4.374 5.523-1.785 1.656-3.86 3.218-5.91 4.172-.31.15-.618.299-.89.404-1.986.787-3.633.858-4.88.448-1.292-.447-2.15-1.457-2.516-2.795-.054-.156-.069-.316-.08-.436-.146-.713-.14-1.52-.009-2.298l-.24.022a10 10 0 0 1-1.094-.061l.707-1.96c.204.02.407.042.648.02l.24-.022q.325-1.724 1.252-3.502c.994-1.907 2.473-3.817 4.105-5.378 1.628-1.601 3.445-2.897 5.12-3.535 1.324-.525 2.56-.678 3.6-.33.586.229 1.063.588 1.354 1.126.295.578.395 2.102.22 2.844-.05.327-.105.614-.242.87m-12.999 7.363c1.647-.514 3.46-1.407 5.213-2.535 2.784-1.748 5.2-3.986 5.937-6.07.073-.087.102-.211.135-.295a1.2 1.2 0 0 0-.564-.432c-.542-.192-1.259-.086-2.037.227-1.4.572-2.987 1.726-4.463 3.232-1.515 1.51-2.921 3.334-3.843 5.153-.138.254-.236.505-.378.72m35.11-4.751 1.836.235c-.744 2.004-3.059 4.475-4.661 5.913-1.981 1.714-4.155 3.083-5.718 3.186-.48.044-.895-.08-1.197-.294-.691-.501-.786-1.541-.464-2.861l.033-.084a34 34 0 0 1-2.493 2.286c-2.14 1.728-4.489 2.952-6.558 2.819-1.382-.115-2.317-.635-2.801-1.518-.528-.92-.598-2.123-.243-3.527a7.2 7.2 0 0 1 .224-1.957c.326-1.28 1.002-2.713 1.96-4.132 2.474-3.817 10.222-11.263 14.617-8.197.778.574 1.379 1.406 1.71 2.384.437-.524 1.018-1.222 1.541-1.673l.976 1.402c-1.646 1.402-4.842 7.019-5.794 8.961-.508 1.055-.903 2.02-1.154 2.809.011.12.015.16.058.196s.084.033.204.022c1.164-.067 2.934-.995 4.555-2.233 1.134-.83 2.886-2.402 3.368-3.737m-12.899 5.377c4.227-2.727 5.065-5.466 7.782-9.264-.07-.76-.648-1.353-1.397-1.607-3.623-1.24-10.324 5.303-12.198 8.177-.745 1.117-1.29 2.216-1.561 3.209.018.2.076.396.171.548.284.458.837.77 1.688.814 1.702.086 3.687-.701 5.515-1.877m20.549-15.638a57 57 0 0 0-1.184 2.045c-2.597 4.675-4.706 9.386-5.279 11.939-.036.487-.003.847.07 1.203.182.67.463 1.087.885 1.29.083.033.207.062.294.135 1.372.439 2.996-.315 4.534-1.585 1.686-1.405 3.277-3.406 4.294-5.073.247-.385.494-.771.665-1.11l-.004-.04.04-.003-.003-.04.04-.004-.004-.04 1.666.574.003.04-.04.003.004.04a21 21 0 0 1-1.216 2.129c-1.272 1.972-3.03 4.351-4.883 6.134-2.083 1.925-4.354 3.102-6.395 2.401a1.6 1.6 0 0 1-.378-.166c-.8-.37-1.34-.967-1.63-1.948-.242-.866-.231-2.077.106-3.68l-.004-.04c.065-.612.13-1.223.267-1.92.526-2.63 2.555-6.89 5.105-11.198.174-.298.352-.556.527-.855-1.04.096-2.273.29-3.295.585l-.096-1.928c1.538-.383 3.175-.573 4.695-.712 1.98-3.045 4.137-5.905 6.201-8.03l.073-.088 1.237 1.178c-1.62 1.68-3.379 4.06-5.072 6.716l.04-.003c2.364-.177 4.779-.237 7.146-.373l-.344 1.968c-2.651.122-5.302.244-8.025.453zm11.18 2.807c-2.074 2.45-4.29 5.556-5.895 8.285-.56.938-1.039 1.87-1.373 2.627.011.12-.018.243-.007.363.03.32.171.55.35.734.214.142.465.24.745.214 1.204-.07 2.582-.882 3.81-2.003 1.304-1.168 2.754-2.954 3.335-4.54l1.8.278c-.806 2.212-2.742 4.85-4.443 6.538-1.66 1.685-3.557 2.989-5.281 3.106-.724.026-1.346-.159-1.83-.598a2.6 2.6 0 0 1-.84-1.698c-.063-.68.136-1.586.532-2.55.772-3.458 5.277-8.873 7.751-11.802zm4.512-7.109c-.411.36-.796.557-1.276.601-.44.04-.815-.086-1.084-.384-.31-.295-.386-.691-.347-1.138.08-.451.283-.873.654-1.23.367-.396.792-.597 1.232-.637.48-.044.855.083 1.128.42.269.299.386.691.346 1.139a2.2 2.2 0 0 1-.653 1.23m-1.031 21.754c-1.051.42-1.934.46-2.655.082-.465-.24-.902-.603-1.161-1.224-.255-.582-.328-1.382-.191-2.524.051-.327.102-.654.192-.985.011-.324.022-.648.069-1.015.296-2.044 1.356-4.561 2.824-7.035 1.536-2.601 3.556-5.206 5.558-7.124l1.125 1.268c-1.665 1.645-3.441 4.268-4.926 6.986-1.271 2.415-2.298 4.849-2.73 6.744q-.01.544.088.96c.073.356.215.585.386.69.251.098.651.061 1.157-.146.741-.27 1.617-.834 2.635-1.613 1.81-1.376 3.765-3.37 5.468-5.463.433-.564.865-1.128 1.257-1.688-.084-.476-.088-.96-.095-1.483.01-.768.097-1.582.263-2.404 1.29-6.169 5.586-5.514 4.113-.458-.932 3.03-3.49 6.814-4.634 8.411-1.718 2.376-3.687 4.654-5.494 6.07-1.21.877-2.275 1.58-3.249 1.951m11.369-16.772c-.504 1.538-.329 1.684.24-.022.483-1.335.076-.935-.24.022m17.088.289c-.929 2.626-3.767 5.105-6.951 6.889-2.185 1.249-4.519 2.189-6.533 2.656.211.989.648 1.796 1.303 2.34a2.85 2.85 0 0 0 2.237.643c1.837-.209 4.025-1.418 6.031-2.852 2.457-1.798 4.517-3.964 5.2-5.317l1.702.53c-.813 1.688-2.444 3.692-4.374 5.523-1.784 1.656-3.86 3.218-5.91 4.172-.309.15-.618.298-.89.404-1.985.787-3.633.857-4.88.447-1.291-.446-2.15-1.456-2.515-2.794-.055-.156-.069-.316-.08-.436-.146-.713-.14-1.52-.009-2.299l-.24.022c-.364-.007-.728-.014-1.095-.06l.708-1.961c.203.021.407.043.647.021l.24-.022q.326-1.724 1.252-3.503c.995-1.906 2.473-3.816 4.105-5.377 1.628-1.602 3.445-2.898 5.121-3.535 1.323-.525 2.56-.678 3.6-.33.586.228 1.062.588 1.354 1.126.295.578.394 2.102.22 2.844-.051.327-.105.614-.243.869m-12.999 7.363c1.647-.514 3.461-1.407 5.213-2.535 2.784-1.748 5.201-3.986 5.938-6.07.072-.088.101-.211.134-.295a1.2 1.2 0 0 0-.564-.432c-.542-.193-1.258-.087-2.036.227-1.4.572-2.988 1.726-4.463 3.232-1.516 1.51-2.922 3.333-3.844 5.152-.138.255-.236.506-.378.72M120.217 39.502l-19.537 2.232-20.527 2.345-21.517 2.458-20.125 2.3c-.256.029-.495.192-.654.45-.5.797-.022 1.94.773 1.848l18.45-2.109 21.557-2.463 19.497-2.227 20.527-2.344 21.147-2.415c.26-.03.499-.197.663-.461.489-.802.009-1.93-.777-1.837z"/></svg>