<svg xmlns="http://www.w3.org/2000/svg" width="51" height="51" fill="none"><path fill="#000" d="m25.991 1.536 1.23 1.23-2.163 4.547 4.553-2.157 1.23 1.23-4.735 4.735-.977-.977 2.983-2.982-.031-.031-4.04 1.928-.73-.729 1.935-4.03-.034-.035-2.982 2.983-.977-.977 4.735-4.735z"/><path fill="#000" fill-rule="evenodd" d="M25.896 1.444a.13.13 0 0 1 .092-.038h.003a.13.13 0 0 1 .092.038l1.23 1.23a.13.13 0 0 1 .026.148L25.332 7.04l4.223-2.002a.13.13 0 0 1 .148.026l1.23 1.23a.13.13 0 0 1 0 .184l-4.736 4.735a.13.13 0 0 1-.183 0l-.977-.977a.13.13 0 0 1 0-.184l2.535-2.535-3.475 1.66a.13.13 0 0 1-.148-.026l-.73-.73a.13.13 0 0 1-.025-.147l1.669-3.475-2.542 2.54a.13.13 0 0 1-.183 0l-.977-.976a.13.13 0 0 1 0-.183zm.094.274-4.553 4.553.793.793 2.89-2.89a.13.13 0 0 1 .184 0l.034.034a.13.13 0 0 1 .025.148l-1.895 3.947.6.6 3.957-1.89a.13.13 0 0 1 .148.026l.03.03a.13.13 0 0 1 0 .184l-2.89 2.891.793.793 4.551-4.551-1.073-1.074-4.47 2.118a.13.13 0 0 1-.173-.173l2.124-4.464z" clip-rule="evenodd"/><path fill="#000" d="m30.674 13.921-1.92-1.919-1.18.593-1.023-1.023 6.383-3.09 1.254 1.254-3.09 6.383-1.024-1.023.594-1.18zm.504-.998 1.381-2.748-.058-.059-2.748 1.382z"/><path fill="#000" fill-rule="evenodd" d="M32.877 8.365a.13.13 0 0 1 .148.025l1.255 1.255c.04.039.05.098.025.148l-3.09 6.383a.13.13 0 0 1-.21.035l-1.022-1.023a.13.13 0 0 1-.025-.15l.552-1.097-1.781-1.781-1.097.551a.13.13 0 0 1-.15-.024l-1.023-1.023a.13.13 0 0 1 .035-.208zm-2.118 5.458.007.007a.13.13 0 0 1 0 .183l-.004.004-.53 1.053.828.828 2.971-6.135-1.124-1.125-6.135 2.972.827.827 1.097-.551a.13.13 0 0 1 .15.024zm1.683-3.822a.13.13 0 0 1 .15.024l.06.058c.039.04.049.1.023.15l-1.381 2.748a.13.13 0 0 1-.208.034l-1.425-1.425a.13.13 0 0 1 .034-.208zm-2.47 1.532 1.17 1.171 1.185-2.355z" clip-rule="evenodd"/><path fill="#000" d="m36.287 11.835 1.725 1.725c1.419 1.419 1.307 3.001-.214 4.522-1.52 1.52-3.103 1.632-4.522.213l-1.724-1.725zm-2.228 5.483c.93.93 1.703.81 2.744-.231s1.162-1.815.232-2.745l-.652-.652-2.977 2.976z"/><path fill="#000" fill-rule="evenodd" d="M36.196 11.743a.13.13 0 0 1 .183 0l1.725 1.725c.728.728 1.077 1.512 1.034 2.322-.043.806-.474 1.61-1.247 2.384s-1.578 1.204-2.384 1.246c-.81.043-1.594-.305-2.322-1.033l-1.725-1.725a.13.13 0 0 1 0-.183zm.092.276-4.552 4.551 1.633 1.633c.69.691 1.407.996 2.124.958.72-.038 1.467-.424 2.214-1.17.747-.748 1.133-1.495 1.171-2.215.038-.717-.267-1.434-.958-2.124zm.004 1.579a.13.13 0 0 1 .183 0l.652.652c.478.478.71.94.661 1.435-.048.487-.367.967-.893 1.493s-1.006.845-1.492.893c-.495.05-.958-.183-1.436-.66l-.652-.653a.13.13 0 0 1 0-.184zm-2.702 3.068.56.56c.453.453.842.625 1.227.587.393-.04.82-.302 1.335-.818.516-.516.778-.942.818-1.335.038-.385-.134-.774-.586-1.226l-.56-.56z" clip-rule="evenodd"/><path fill="#000" d="m40.748 16.292 3.112 3.113-.88.88-2.136-2.135-1.064 1.063 1.941 1.941-.791.791-1.941-1.94-1.122 1.121 2.2 2.201-.88.881-3.178-3.177 4.736-4.736z"/><path fill="#000" fill-rule="evenodd" d="M40.748 16.162a.13.13 0 0 1 .091.038l3.113 3.113a.13.13 0 0 1 0 .184l-.881.88a.13.13 0 0 1-.184 0l-2.044-2.044-.88.88 1.85 1.85a.13.13 0 0 1 0 .183l-.791.791a.13.13 0 0 1-.184 0l-1.85-1.85-.938.94 2.11 2.108a.13.13 0 0 1 0 .184l-.881.88a.13.13 0 0 1-.184 0l-3.178-3.177a.13.13 0 0 1 0-.183l4.739-4.739a.13.13 0 0 1 .092-.038m0 .314-4.555 4.555 2.994 2.993.697-.697-2.109-2.109a.13.13 0 0 1 0-.183l1.122-1.122a.13.13 0 0 1 .184 0l1.849 1.849.608-.608-1.85-1.85a.13.13 0 0 1 0-.183l1.064-1.063a.13.13 0 0 1 .183 0l2.044 2.044.697-.697z" clip-rule="evenodd"/><path fill="#000" d="m41.863 22.4 2.006 2.006-.745.745-2.006-2.006z"/><path fill="#000" fill-rule="evenodd" d="M41.772 22.308a.13.13 0 0 1 .183 0l2.006 2.006a.13.13 0 0 1 0 .184l-.745.744a.13.13 0 0 1-.183 0l-2.006-2.006a.13.13 0 0 1 0-.183zm-.47.837 1.823 1.822.56-.561-1.822-1.823z" clip-rule="evenodd"/><path fill="#000" d="m19.868 7.662 3.014 3.014-.881.88-2.037-2.036-1.11 1.11 1.685 1.684-.82.82-1.684-1.685-1.928 1.928-.977-.976 4.735-4.736z"/><path fill="#000" fill-rule="evenodd" d="M19.776 7.57a.13.13 0 0 1 .184 0l3.014 3.014a.13.13 0 0 1 0 .184l-.881.88a.13.13 0 0 1-.184 0l-1.945-1.944-.926.926 1.593 1.592a.13.13 0 0 1 0 .184l-.82.819a.13.13 0 0 1-.183 0l-1.593-1.593-1.837 1.837a.13.13 0 0 1-.183 0l-.977-.977a.13.13 0 0 1 0-.183l4.735-4.735zm.092.276 2.83 2.83-.697.697-1.945-1.945a.13.13 0 0 0-.184 0l-1.11 1.11a.13.13 0 0 0 0 .183l1.593 1.593-.635.636-1.593-1.593a.13.13 0 0 0-.183 0l-1.837 1.837-.794-.793z" clip-rule="evenodd"/><path fill="#000" d="M20.885 13.415c1.456-1.456 3.289-1.57 4.602-.254s1.2 3.15-.256 4.603-3.295 1.576-4.612.262c-1.317-1.313-1.187-3.162.263-4.611zm3.344 3.344c.946-.946 1.135-1.978.384-2.73-.751-.75-1.78-.562-2.73.384-.948.946-1.14 1.988-.392 2.735.748.749 1.796.55 2.735-.392z"/><path fill="#000" fill-rule="evenodd" d="M23.247 12.378c-.766.044-1.56.418-2.27 1.128l-.018.015c-.697.704-1.07 1.494-1.116 2.258-.046.768.235 1.523.868 2.155.635.633 1.388.915 2.155.869.768-.046 1.563-.423 2.274-1.131.71-.709 1.084-1.502 1.128-2.268.045-.765-.24-1.517-.872-2.151-.633-.634-1.384-.919-2.149-.875m-.014-.26c.844-.048 1.666.269 2.347.951.68.683.996 1.505.948 2.35-.049.842-.46 1.692-1.205 2.436s-1.598 1.156-2.442 1.207c-.846.05-1.67-.263-2.353-.944s-.995-1.507-.944-2.354c.051-.846.464-1.699 1.207-2.441l.018-.016c.742-.735 1.587-1.14 2.424-1.188m.07 1.339c.512-.078.998.077 1.402.48.404.405.56.891.481 1.404-.077.506-.38 1.025-.864 1.51a.1.1 0 0 1-.027.02c-.476.47-.988.765-1.488.843-.514.08-1.005-.07-1.407-.474-.403-.402-.557-.89-.477-1.405.079-.508.383-1.029.87-1.514.486-.485 1.004-.787 1.51-.864m.858 3.187c.447-.454.704-.916.768-1.342.066-.428-.06-.833-.408-1.18-.347-.348-.751-.474-1.179-.409-.433.066-.904.33-1.366.792-.463.46-.729.934-.796 1.37-.067.43.058.836.403 1.182.345.345.753.468 1.184.4.437-.067.91-.334 1.368-.793a.1.1 0 0 1 .026-.02" clip-rule="evenodd"/><path fill="#000" d="m26.106 23.37.71-2.441-.819-.82-1.576 1.577-.977-.977 4.736-4.735 1.842 1.842c1.211 1.212 1.082 2.396.154 3.323-.677.677-1.483.924-2.352.528l-.754 2.668zm.77-4.141.834.834c.534.535 1.044.492 1.465.071.42-.42.47-.94-.065-1.471l-.835-.835z"/><path fill="#000" fill-rule="evenodd" d="M28.088 15.882a.13.13 0 0 1 .184 0l1.842 1.842c.622.622.914 1.252.917 1.86.004.607-.282 1.166-.762 1.646-.351.351-.742.597-1.165.701-.383.094-.784.07-1.194-.087l-.715 2.526a.13.13 0 0 1-.216.056l-.965-.964a.13.13 0 0 1-.033-.128l.69-2.368-.673-.673-1.485 1.485a.13.13 0 0 1-.183 0l-.977-.977a.13.13 0 0 1 0-.184zm-4.46 4.827.794.793 1.484-1.484a.13.13 0 0 1 .184 0l.819.819a.13.13 0 0 1 .033.128l-.69 2.368.754.753.694-2.454a.13.13 0 0 1 .178-.083c.41.187.799.22 1.164.13.366-.09.717-.306 1.043-.632.447-.447.69-.943.687-1.462-.003-.52-.252-1.088-.842-1.677l-1.75-1.75zm4.556-2.972a.13.13 0 0 1 .184 0l.834.834c.283.281.426.575.429.868.002.294-.137.56-.364.787s-.491.365-.783.36q-.44-.006-.866-.431l-.834-.835a.13.13 0 0 1 0-.183zm-1.125 1.492.743.742c.252.253.483.353.686.356q.303.005.596-.285c.193-.193.289-.397.287-.6-.001-.205-.1-.437-.352-.687l-.743-.743z" clip-rule="evenodd"/><path fill="#000" d="m29.744 22.53 2.006 2.005-.745.745-2.006-2.006z"/><path fill="#000" fill-rule="evenodd" d="M29.652 22.438a.13.13 0 0 1 .184 0l2.006 2.006a.13.13 0 0 1 0 .184l-.745.744a.13.13 0 0 1-.184 0l-2.006-2.006a.13.13 0 0 1 0-.183zm-.47.837 1.823 1.822.561-.561-1.822-1.823z" clip-rule="evenodd"/><path fill="#000" d="m34 29.494-1.92-1.92-1.18.593-1.023-1.023 6.383-3.09 1.255 1.254-3.091 6.383-1.023-1.023.593-1.18zm.504-.999 1.382-2.748-.059-.058-2.748 1.381z"/><path fill="#000" fill-rule="evenodd" d="M36.203 23.937a.13.13 0 0 1 .148.025l1.255 1.255c.04.039.05.098.025.148l-3.09 6.383a.13.13 0 0 1-.21.035L33.31 30.76a.13.13 0 0 1-.024-.15l.55-1.097-1.78-1.78-1.097.55a.13.13 0 0 1-.15-.024l-1.023-1.023a.13.13 0 0 1 .035-.209zm-2.117 5.458.006.007a.13.13 0 0 1 0 .183l-.004.004-.53 1.053.828.828 2.971-6.135-1.124-1.125-6.135 2.972.828.827 1.096-.551a.13.13 0 0 1 .15.024zm1.683-3.822a.13.13 0 0 1 .15.024l.058.058c.04.04.05.1.025.15l-1.382 2.748a.13.13 0 0 1-.208.034l-1.425-1.425a.13.13 0 0 1 .034-.208zm-2.471 1.532 1.17 1.171 1.185-2.355z" clip-rule="evenodd"/><path fill="#000" d="m39.616 27.407.977.977-3.857 3.857 2.095 2.096-.88.88-3.073-3.072 4.735-4.735z"/><path fill="#000" fill-rule="evenodd" d="M39.616 27.277a.13.13 0 0 1 .092.038l.977.977a.13.13 0 0 1 0 .184l-3.766 3.765 2.004 2.004a.13.13 0 0 1 0 .184l-.881.88a.13.13 0 0 1-.184 0l-3.072-3.072a.13.13 0 0 1 0-.183l4.738-4.739a.13.13 0 0 1 .092-.038m0 .314-4.554 4.554 2.888 2.89.697-.698-2.003-2.004a.13.13 0 0 1 0-.183l3.765-3.766z" clip-rule="evenodd"/><path fill="#000" d="m43.202 30.992.977.977-3.858 3.858 2.096 2.095-.881.881-3.073-3.072 4.736-4.736z"/><path fill="#000" fill-rule="evenodd" d="M43.11 30.9a.13.13 0 0 1 .184 0l.976.978a.13.13 0 0 1 0 .183l-3.766 3.766 2.004 2.004a.13.13 0 0 1 0 .183l-.88.881a.13.13 0 0 1-.184 0l-3.073-3.072a.13.13 0 0 1 0-.184zm.092.276.793.793-3.766 3.766a.13.13 0 0 0 0 .184l2.004 2.003-.697.698-2.89-2.889z" clip-rule="evenodd"/><path fill="#000" d="m12.506 18.215-1.37.133-1.15 1.15-.976-.977 4.735-4.736.977.977-2.226 2.226 4.043-.412 1.147 1.147-3.854.368-.705 4.547-1.12-1.12.502-3.3z"/><path fill="#000" fill-rule="evenodd" d="M13.654 13.694a.13.13 0 0 1 .183 0l.977.976a.13.13 0 0 1 0 .184l-1.968 1.968 3.68-.375a.13.13 0 0 1 .105.038l1.147 1.146a.13.13 0 0 1-.08.221l-3.753.359-.69 4.447a.13.13 0 0 1-.22.072l-1.118-1.12a.13.13 0 0 1-.037-.11l.476-3.14-1.16.112-1.117 1.117a.13.13 0 0 1-.184 0l-.977-.977a.13.13 0 0 1 0-.183zm-4.46 4.827.793.793 1.058-1.058a.13.13 0 0 1 .08-.038l1.368-.133a.13.13 0 0 1 .105.038l.003.003c.03.03.043.07.036.111l-.49 3.236.891.892.666-4.294a.13.13 0 0 1 .116-.11l3.58-.34-.909-.91-3.981.406a.13.13 0 0 1-.105-.221l2.134-2.134-.793-.793z" clip-rule="evenodd"/><path fill="#000" d="m18.308 18.348.976.976-4.735 4.736-.977-.977z"/><path fill="#000" fill-rule="evenodd" d="M18.216 18.256a.13.13 0 0 1 .183 0l.977.977a.13.13 0 0 1 0 .183l-4.735 4.735a.13.13 0 0 1-.184 0l-.977-.976a.13.13 0 0 1 0-.184zm-4.46 4.827.793.793 4.552-4.552-.793-.793z" clip-rule="evenodd"/><path fill="#000" d="m19.992 20.032 1.017 1.017-1.277 4.949.019.018 3.112-3.112.977.976-4.735 4.736-1.054-1.054 1.255-4.85-.019-.018-3.05 3.05-.977-.977 4.735-4.735z"/><path fill="#000" fill-rule="evenodd" d="M19.885 19.959a.13.13 0 0 1 .107-.057h.003a.13.13 0 0 1 .107.057l.999.998a.13.13 0 0 1 .034.124l-1.171 4.538 2.808-2.807a.13.13 0 0 1 .183 0l.977.976a.13.13 0 0 1 0 .184l-4.735 4.735a.13.13 0 0 1-.184 0l-1.054-1.054a.13.13 0 0 1-.034-.124l1.149-4.439-2.746 2.746a.13.13 0 0 1-.183 0l-.977-.977a.13.13 0 0 1 0-.183zm.108.258-4.55 4.55.793.794 2.96-2.96a.13.13 0 0 1 .183 0l.018.02a.13.13 0 0 1 .034.123l-1.236 4.778.91.91 4.552-4.552-.794-.793-3.02 3.021a.13.13 0 0 1-.184 0l-.018-.019a.13.13 0 0 1-.034-.124l1.258-4.877z" clip-rule="evenodd"/><path fill="#000" d="m24.548 24.588 1.725 1.725c1.418 1.419 1.307 3.001-.214 4.522-1.52 1.52-3.103 1.632-4.522.213l-1.724-1.725zm-2.229 5.483c.93.93 1.703.81 2.745-.231s1.162-1.815.232-2.745l-.652-.652-2.977 2.976z"/><path fill="#000" fill-rule="evenodd" d="M24.456 24.496a.13.13 0 0 1 .184 0l1.725 1.725c.728.728 1.076 1.512 1.033 2.321-.043.806-.473 1.61-1.247 2.385-.773.773-1.578 1.203-2.384 1.246-.809.043-1.593-.305-2.321-1.033l-1.725-1.725a.13.13 0 0 1 0-.183zm.092.276-4.551 4.551 1.632 1.633c.691.691 1.407.996 2.124.958.72-.038 1.468-.424 2.215-1.171s1.133-1.494 1.17-2.214c.04-.717-.266-1.434-.957-2.124zm.096 1.54a.13.13 0 0 1 .092.039l.652.652c.478.478.71.94.661 1.435-.049.487-.367.967-.893 1.493s-1.007.844-1.493.893c-.495.05-.957-.183-1.435-.66l-.652-.653a.13.13 0 0 1 0-.184l2.976-2.976a.13.13 0 0 1 .092-.038m-2.793 3.107.56.56c.452.453.842.625 1.226.587.393-.04.82-.303 1.336-.818.515-.516.778-.942.818-1.335.038-.385-.134-.774-.587-1.226l-.56-.56z" clip-rule="evenodd"/><path fill="#000" d="m25.723 32.136 1.007 1.008c-.408.445-.497 1.057.127 1.685.529.528 1.038.578 1.422.191.324-.324.278-.695-.05-1.187l-.528-.785c-.566-.865-.835-1.808.024-2.667.906-.906 2.071-.665 3.091.358s1.296 2.272.328 3.24l-1.001-1.002c.438-.414.29-.943-.152-1.385-.522-.522-.992-.439-1.286-.148-.216.216-.337.556 0 1.042l.492.732c.856 1.277.84 2.114.123 2.831-1.023 1.023-2.274.65-3.31-.386-1.165-1.165-1.332-2.482-.29-3.524z"/><path fill="#000" fill-rule="evenodd" d="M29.21 29.965c-.489-.069-.967.081-1.393.507-.405.405-.537.82-.509 1.231.029.419.223.848.5 1.273l.53.785c.168.253.276.492.29.72q.02.355-.257.63l-.092-.091.092.091c-.216.218-.478.32-.765.285-.28-.035-.565-.2-.84-.476h-.001c-.33-.331-.483-.671-.488-1a1.2 1.2 0 0 1 .277-.769l.084.085.092-.092-.096-.088a2 2 0 0 0-.08.095l-.83-.83.087-.09.003-.003-.091-.092-.092.092.093.094c-.433.473-.608.993-.558 1.52.054.566.367 1.16.936 1.73.506.506 1.055.839 1.59.928.526.088 1.053-.059 1.537-.542.339-.34.502-.695.49-1.11-.013-.424-.208-.928-.63-1.558l-.491-.731.107-.073-.107.072c-.18-.26-.248-.495-.23-.705a.8.8 0 0 1 .245-.5l.001-.001a.88.88 0 0 1 .653-.268c.262.01.539.14.816.416.232.233.4.499.442.775a.85.85 0 0 1-.201.7l-.09-.09-.092.092.09.094q.05-.047.091-.097l.819.818-.09.095.092.091.092-.091-.095-.095c.388-.432.52-.912.456-1.395-.07-.524-.376-1.068-.873-1.566-.497-.5-1.02-.796-1.514-.866m.036-.257c.57.08 1.14.416 1.662.94.523.524.866 1.117.946 1.714.081.604-.107 1.197-.618 1.708a.13.13 0 0 1-.184 0l-1.001-1.001a.13.13 0 0 1 .002-.187c.19-.179.246-.372.216-.567-.032-.202-.16-.421-.37-.631-.245-.245-.464-.335-.641-.341a.62.62 0 0 0-.461.193.54.54 0 0 0-.17.34c-.012.134.029.31.185.535l.001.002.492.733c.433.646.659 1.2.673 1.694.015.502-.188.923-.566 1.301-.54.54-1.15.718-1.764.615-.606-.1-1.201-.473-1.73-1.001-.596-.597-.95-1.244-1.01-1.888-.061-.649.175-1.275.72-1.82l.003-.003a.13.13 0 0 1 .183 0l1.008 1.008c.05.05.05.128.004.18-.188.204-.294.438-.29.684.004.245.118.524.413.82.252.253.487.377.69.403.196.024.38-.042.548-.21.14-.14.191-.28.182-.432-.01-.16-.089-.353-.248-.592l-.529-.786c-.288-.44-.51-.915-.543-1.398-.033-.491.13-.978.585-1.432.48-.48 1.037-.662 1.612-.581" clip-rule="evenodd"/><path fill="#000" d="m30.668 35.703 2.006 2.006-.745.745-2.006-2.006z"/><path fill="#000" fill-rule="evenodd" d="M30.576 35.611a.13.13 0 0 1 .184 0l2.006 2.006a.13.13 0 0 1 0 .184l-.745.745a.13.13 0 0 1-.184 0l-2.006-2.006a.13.13 0 0 1 0-.184zm-.47.837 1.823 1.822.562-.56-1.823-1.823z" clip-rule="evenodd"/><path fill="#000" d="M33.305 38.08c1.455-1.456 3.288-1.57 4.602-.253 1.314 1.316 1.2 3.15-.257 4.602s-3.295 1.576-4.611.263c-1.317-1.314-1.187-3.162.262-4.612zm3.344 3.344c.946-.946 1.134-1.978.383-2.729s-1.78-.562-2.73.383c-.948.946-1.14 1.988-.392 2.736s1.796.55 2.736-.393z"/><path fill="#000" fill-rule="evenodd" d="M35.666 37.043c-.766.044-1.56.419-2.27 1.129l-.018.015c-.697.703-1.07 1.493-1.116 2.258-.047.768.234 1.523.868 2.155.634.633 1.388.914 2.154.868.77-.046 1.564-.422 2.275-1.13.71-.71 1.084-1.502 1.129-2.269.043-.764-.24-1.516-.873-2.15-.633-.635-1.384-.92-2.149-.876m-.014-.259c.844-.048 1.666.269 2.347.951.68.682.996 1.505.948 2.35-.049.842-.46 1.692-1.205 2.436s-1.598 1.156-2.442 1.206c-.846.051-1.67-.262-2.353-.943-.683-.682-.996-1.508-.944-2.355.051-.845.464-1.698 1.207-2.44l.018-.016c.742-.736 1.587-1.141 2.423-1.189m.07 1.338c.512-.078.998.078 1.402.481.404.404.559.89.481 1.403-.077.507-.38 1.025-.864 1.51a.1.1 0 0 1-.027.021c-.476.47-.988.765-1.488.843-.514.08-1.005-.071-1.407-.474s-.557-.891-.477-1.405c.078-.509.383-1.03.87-1.514.486-.485 1.004-.788 1.51-.865m.858 3.187c.447-.453.704-.915.768-1.342.066-.428-.06-.833-.408-1.18-.347-.347-.751-.473-1.179-.408-.433.066-.904.33-1.367.791s-.728.934-.795 1.37c-.067.43.058.837.403 1.182s.753.469 1.184.401c.437-.068.91-.334 1.368-.793a.1.1 0 0 1 .026-.02" clip-rule="evenodd"/><path fill="#000" d="m40.6 40.64 3.013 3.013-.881.88-2.037-2.036-1.11 1.11 1.688 1.687-.82.82-1.687-1.688-1.928 1.928-.977-.977 4.735-4.735z"/><path fill="#000" fill-rule="evenodd" d="M40.507 40.548a.13.13 0 0 1 .184 0l3.014 3.013a.13.13 0 0 1 0 .184l-.881.88a.13.13 0 0 1-.184 0l-1.945-1.944-.926.926 1.596 1.596a.13.13 0 0 1 0 .183l-.82.82a.13.13 0 0 1-.183 0l-1.596-1.597-1.837 1.837a.13.13 0 0 1-.183 0l-.977-.977a.13.13 0 0 1 0-.183zm.092.275-4.555 4.555.794.793 1.836-1.837a.13.13 0 0 1 .184 0l1.596 1.596.635-.636-1.596-1.596a.13.13 0 0 1 0-.183l1.11-1.11a.13.13 0 0 1 .184 0l1.945 1.945.697-.697z" clip-rule="evenodd"/><path fill="#000" d="m7.622 19.908 1.848 1.849c1.017 1.017 1.011 1.944.294 2.661-.513.513-1.032.578-1.604.29.488.866.34 1.599-.247 2.189-.764.763-1.895.88-3.1-.325l-1.926-1.925 4.735-4.735zm-1.99 5.777c.547.547 1.038.433 1.384.087s.482-.86-.065-1.406l-.918-.918-1.32 1.32zm1.876-2.046c.293.294.701.377 1.088-.01.386-.386.275-.769-.019-1.06l-.834-.834-1.07 1.07z"/><path fill="#000" fill-rule="evenodd" d="M7.573 19.789a.13.13 0 0 1 .141.028l1.849 1.848c.52.521.795 1.034.834 1.525.04.494-.162.941-.54 1.32q-.404.406-.851.482a1.3 1.3 0 0 1-.582-.04q.208.51.145.972c-.054.399-.255.754-.564 1.065-.403.402-.91.642-1.483.614-.57-.028-1.183-.32-1.801-.939L2.795 24.74a.13.13 0 0 1 0-.184l4.72-4.72a.13.13 0 0 1 .058-.046m.051.305-4.553 4.553 1.834 1.834c.587.587 1.143.839 1.63.863.486.023.925-.178 1.286-.539.278-.28.445-.585.49-.916s-.03-.703-.264-1.116a.13.13 0 0 1 .172-.18c.268.135.512.181.744.143.232-.04.467-.166.71-.41.338-.338.498-.713.465-1.116-.032-.406-.263-.865-.759-1.361zm.027 1.55a.13.13 0 0 1 .184 0l.834.834c.16.158.282.353.302.574.02.227-.07.456-.283.67-.214.213-.446.309-.677.297a.92.92 0 0 1-.595-.288l-.834-.834a.13.13 0 0 1 0-.184zm.092.275-.886.886.743.743c.13.13.277.205.424.212.143.007.308-.049.48-.222.173-.172.22-.328.208-.462-.012-.14-.092-.281-.226-.414zm-1.801 1.437a.13.13 0 0 1 .183 0l.918.918c.293.292.416.59.406.875-.01.282-.152.526-.34.715-.19.189-.43.325-.707.33-.28.004-.572-.126-.862-.417l-.918-.918a.13.13 0 0 1 0-.183zm-1.045 1.411.827.827c.256.256.484.343.674.34s.37-.096.527-.254c.157-.157.257-.343.264-.54.008-.196-.074-.428-.33-.683l-.825-.826z" clip-rule="evenodd"/><path fill="#000" d="m9.7 31.46.71-2.443-.819-.819-1.576 1.577-.977-.977 4.735-4.735 1.843 1.842c1.211 1.212 1.081 2.395.154 3.323-.677.677-1.484.924-2.352.528l-.754 2.668zm.769-4.143.835.835c.534.535 1.044.491 1.465.071.42-.42.47-.94-.065-1.471l-.835-.835z"/><path fill="#000" fill-rule="evenodd" d="M11.682 23.97a.13.13 0 0 1 .183 0l1.842 1.843c.622.622.914 1.252.918 1.86.003.607-.283 1.166-.763 1.646-.35.351-.742.597-1.165.701-.382.094-.784.07-1.194-.087l-.714 2.526a.13.13 0 0 1-.217.056l-.964-.964a.13.13 0 0 1-.033-.128l.69-2.368-.674-.673-1.484 1.484a.13.13 0 0 1-.184 0l-.977-.976a.13.13 0 0 1 0-.184zm-4.46 4.828.793.793 1.484-1.485a.13.13 0 0 1 .184 0l.819.82a.13.13 0 0 1 .033.128l-.69 2.368.754.753.694-2.454a.13.13 0 0 1 .179-.083c.41.187.798.22 1.163.13.366-.09.717-.306 1.043-.632.447-.447.69-.943.687-1.462-.003-.52-.252-1.088-.841-1.677l-1.75-1.75zm4.647-3.01a.13.13 0 0 1 .092.037l.834.835c.283.281.427.575.43.868.001.294-.138.56-.365.787s-.49.365-.783.36c-.291-.004-.583-.149-.865-.431l-.835-.835a.13.13 0 0 1 0-.183l1.4-1.4a.13.13 0 0 1 .092-.039m-1.216 1.53.742.742c.253.253.483.353.686.356q.303.005.596-.285c.193-.193.289-.397.287-.6-.001-.205-.1-.437-.352-.687l-.743-.743z" clip-rule="evenodd"/><path fill="#000" d="m15.037 35.026-1.92-1.92-1.18.594-1.023-1.023 6.383-3.09 1.255 1.254-3.091 6.383-1.023-1.023.593-1.181zm.504-.998 1.382-2.748-.059-.059-2.748 1.382z"/><path fill="#000" fill-rule="evenodd" d="M17.24 29.47a.13.13 0 0 1 .149.024l1.254 1.255c.04.04.05.099.026.149l-3.091 6.382a.13.13 0 0 1-.21.036l-1.022-1.024a.13.13 0 0 1-.024-.15l.551-1.097-1.78-1.78-1.098.551a.13.13 0 0 1-.15-.024l-1.023-1.023a.13.13 0 0 1 .035-.209zm-2.11 5.464a.13.13 0 0 1 0 .184l-.005.003-.53 1.054.828.828 2.972-6.135-1.125-1.125-6.135 2.971.828.828 1.097-.551a.13.13 0 0 1 .15.024zm1.676-3.829a.13.13 0 0 1 .15.024l.059.06c.04.039.049.1.024.15l-1.382 2.747a.13.13 0 0 1-.208.034l-1.425-1.425a.13.13 0 0 1 .034-.208zm-2.471 1.533 1.17 1.17 1.185-2.354z" clip-rule="evenodd"/><path fill="#000" d="m20.65 32.937 1.017 1.017-1.277 4.948.02.019 3.112-3.113.976.977-4.735 4.735-1.054-1.054 1.255-4.85-.019-.018-3.05 3.05-.977-.976 4.735-4.735z"/><path fill="#000" fill-rule="evenodd" d="M20.544 32.863a.13.13 0 0 1 .107-.056h.003a.13.13 0 0 1 .107.056l.998.999a.13.13 0 0 1 .034.124l-1.17 4.538 2.807-2.808a.13.13 0 0 1 .184 0l.977.977a.13.13 0 0 1 0 .184l-4.736 4.735a.13.13 0 0 1-.183 0l-1.054-1.054a.13.13 0 0 1-.034-.124l1.148-4.439-2.745 2.746a.13.13 0 0 1-.184 0l-.976-.977a.13.13 0 0 1 0-.184zm.108.259-4.55 4.55.793.793 2.96-2.959a.13.13 0 0 1 .183 0l.018.019a.13.13 0 0 1 .034.124l-1.236 4.778.91.91 4.551-4.552-.793-.793-3.02 3.02a.13.13 0 0 1-.184 0l-.019-.018a.13.13 0 0 1-.034-.124l1.258-4.877z" clip-rule="evenodd"/><path fill="#000" d="m25.207 37.493 1.724 1.724c1.419 1.42 1.31 3.002-.213 4.522s-3.103 1.632-4.522.214l-1.725-1.725zm-2.23 5.486c.931.93 1.704.81 2.746-.232 1.041-1.041 1.162-1.814.232-2.745l-.653-.652-2.976 2.977z"/><path fill="#000" fill-rule="evenodd" d="M25.115 37.4a.13.13 0 0 1 .183 0l1.725 1.726c.728.727 1.077 1.512 1.035 2.32s-.473 1.611-1.248 2.385c-.776.774-1.58 1.204-2.386 1.247-.808.043-1.592-.306-2.32-1.034L20.38 42.32a.13.13 0 0 1 0-.184zm-4.46 4.828 1.633 1.633c.69.69 1.406.996 2.122.958.72-.039 1.468-.425 2.216-1.172s1.134-1.494 1.172-2.214c.038-.717-.268-1.433-.959-2.124l-1.633-1.633zm4.647-3.008a.13.13 0 0 1 .092.038l.652.653c.479.478.71.94.661 1.435-.049.486-.367.967-.893 1.493s-1.006.844-1.493.893c-.495.05-.957-.183-1.435-.661l-.652-.652a.13.13 0 0 1 0-.184l2.976-2.977a.13.13 0 0 1 .092-.038m-2.793 3.107.56.56c.453.452.842.625 1.227.586.393-.039.82-.302 1.335-.818.515-.515.778-.942.818-1.335.038-.384-.134-.774-.586-1.226l-.56-.56z" clip-rule="evenodd"/><path fill="#000" d="m26.38 45.04 1.008 1.008c-.408.445-.497 1.057.127 1.682.529.528 1.039.578 1.422.192.325-.325.278-.696-.05-1.187l-.528-.785c-.569-.866-.835-1.809.025-2.668.905-.906 2.07-.664 3.09.359s1.296 2.271.328 3.239l-1.001-1.002c.439-.414.29-.942-.152-1.384-.519-.52-.992-.44-1.286-.149-.216.217-.336.557 0 1.042l.492.733c.86 1.276.84 2.114.124 2.83-1.023 1.024-2.275.65-3.31-.386-1.166-1.165-1.333-2.482-.291-3.523z"/><path fill="#000" fill-rule="evenodd" d="M29.868 42.867c-.489-.07-.966.08-1.393.507-.405.405-.537.82-.51 1.23.028.42.223.849.502 1.273l.529.785c.168.254.276.492.29.72q.02.355-.257.631l-.092-.092.092.092c-.216.218-.478.32-.765.285-.28-.035-.565-.2-.84-.476-.33-.33-.484-.67-.49-.998a1.2 1.2 0 0 1 .278-.768l.085.084.091-.092-.095-.087q-.042.045-.081.095l-.83-.831q.041-.046.087-.093l-.088-.088v-.003l-.002.001-.001-.001v.003l-.09.089.093.092c-.433.473-.606.992-.556 1.519.053.566.366 1.16.935 1.728.507.507 1.055.84 1.59.93.526.087 1.053-.06 1.537-.543.339-.34.503-.695.491-1.11-.012-.423-.207-.927-.63-1.557l-.492-.732.107-.073-.107.072v.001c-.18-.26-.248-.495-.23-.706a.8.8 0 0 1 .246-.5v-.001a.88.88 0 0 1 .655-.267c.261.01.538.14.814.416.232.232.4.498.443.774a.85.85 0 0 1-.202.7l-.09-.09-.091.092.089.095q.05-.048.092-.097l.818.818-.09.094.092.092.092-.092-.094-.094c.387-.433.52-.912.455-1.396-.07-.524-.375-1.067-.872-1.566-.498-.5-1.02-.796-1.515-.865m.036-.258c.57.08 1.14.416 1.663.94.523.525.865 1.117.945 1.715.081.603-.107 1.197-.618 1.708a.13.13 0 0 1-.184 0L30.71 45.97a.13.13 0 0 1 .003-.186c.19-.18.246-.373.215-.567-.032-.203-.16-.422-.37-.632-.243-.243-.462-.333-.64-.34a.62.62 0 0 0-.462.192.54.54 0 0 0-.17.34c-.011.134.029.31.185.536l.001.002.492.732c.435.647.66 1.2.675 1.694.014.502-.19.924-.568 1.301-.54.54-1.15.718-1.763.615-.607-.1-1.202-.472-1.73-1-.597-.597-.95-1.244-1.01-1.889-.062-.648.174-1.275.719-1.82a.13.13 0 0 1 .092-.037h.003a.13.13 0 0 1 .091.038l1.008 1.008c.05.049.051.128.004.179-.187.205-.294.438-.29.684.004.245.118.523.413.818.253.253.487.377.69.402.196.024.38-.041.548-.21.14-.14.192-.279.182-.431-.01-.161-.089-.354-.247-.592l-.53-.786c-.29-.44-.511-.915-.544-1.399-.032-.491.131-.977.586-1.432.48-.48 1.037-.662 1.612-.58" clip-rule="evenodd"/></svg>