<svg xmlns="http://www.w3.org/2000/svg" width="61" height="59" fill="none"><path fill="#F3E7D3" d="m50.08 12.087.568.636.639.542.65.532.625.565.564.624.468.707.556.625.6.6.39.754.489.682.375.75.41.728.55.657.282.796.354.764.407.74.289.792.143.836.293.789.285.796-.007.86.264.804.118.832.007.842.161.825.11.836-.17.842.007.836.164.85-.2.825.003.846-.117.832-.354.789-.168.818.014.867-.314.786-.367.76-.183.825-.357.76-.357.761-.307.782-.364.757-.418.729-.539.653-.521.657-.46.697-.419.731-.539.643-.61.582-.454.725-.64.546-.57.622-.614.57-.661.526-.79.346-.57.64-.74.406-.728.415-.7.464-.76.35-.736.407-.725.435-.867.093-.782.29-.772.328-.775.336-.835.107-.793.31-.828.132-.854-.025-.824.125-.832.075-.829.208-.842-.09-.84.025-.828-.146-.839-.014-.828-.118-.814-.2-.843-.05-.804-.225-.82-.172-.847-.085-.74-.447-.846-.117-.742-.404-.775-.325-.768-.336-.782-.317-.675-.514-.742-.4-.654-.529-.707-.453-.596-.597-.785-.353-.472-.725-.778-.375-.525-.653-.514-.664-.632-.543-.504-.66-.61-.569-.582-.6-.497-.664-.439-.714-.714-.496-.382-.753-.578-.607-.475-.686-.44-.707-.503-.664-.393-.74-.425-.713-.471-.686-.5-.668-.246-.82-.4-.726-.518-.667-.475-.69-.157-.853-.403-.728-.365-.747-.425-.717-.31-.772-.268-.792-.41-.729-.347-.757-.157-.828-.25-.793-.3-.774-.29-.782-.192-.811-.26-.79-.286-.788-.122-.825-.293-.79-.053-.838-.16-.818-.026-.835-.082-.829-.132-.825.11-.835-.064-.832.022-.836.103-.825.247-.803.135-.814-.017-.86.392-.754.222-.803.464-.704.236-.81.489-.679.532-.639.543-.625.478-.696.721-.446.686-.461.614-.568.71-.435.804-.247.721-.414.775-.296.807-.193.729-.457.82-.154.818-.157.829-.1.803-.246.85.093.825-.072.817-.225.832.007.836.147.832-.243.825.218h.832l.828.064.836-.007.839-.014.817.153.818.182.832.05.8.268.828.086.836.068.814.178.786.307.814.157.792.265.822.15.77.324.8.225.811.197.814.189.818.186.75.371.775.31.782.283.742.382.779.296.796.254.732.403.757.343.707.45.728.393.775.31.754.365.76.346.582.643.807.278.59.614.695.45z"/><mask id="a" width="60" height="56" x="0" y="2" maskUnits="userSpaceOnUse" style="mask-type:luminance"><path fill="#fff" d="m50.08 12.087.568.636.639.542.65.532.625.565.564.624.468.707.556.625.6.6.39.754.489.682.375.75.41.728.55.657.282.796.354.764.407.74.289.792.143.836.293.789.285.796-.007.86.264.804.118.832.007.842.161.825.11.836-.17.842.007.836.164.85-.2.825.003.846-.117.832-.354.789-.168.818.014.867-.314.786-.367.76-.183.825-.357.76-.357.761-.307.782-.364.757-.418.729-.539.653-.521.657-.46.697-.419.731-.539.643-.61.582-.454.725-.64.546-.57.622-.614.57-.661.526-.79.346-.57.64-.74.406-.728.415-.7.464-.76.35-.736.407-.725.435-.867.093-.782.29-.772.328-.775.336-.835.107-.793.31-.828.132-.854-.025-.824.125-.832.075-.829.208-.842-.09-.84.025-.828-.146-.839-.014-.828-.118-.814-.2-.843-.05-.804-.225-.82-.172-.847-.085-.74-.447-.846-.117-.742-.404-.775-.325-.768-.336-.782-.317-.675-.514-.742-.4-.654-.529-.707-.453-.596-.597-.785-.353-.472-.725-.778-.375-.525-.653-.514-.664-.632-.543-.504-.66-.61-.569-.582-.6-.497-.664-.439-.714-.714-.496-.382-.753-.578-.607-.475-.686-.44-.707-.503-.664-.393-.74-.425-.713-.471-.686-.5-.668-.246-.82-.4-.726-.518-.667-.475-.69-.157-.853-.403-.728-.365-.747-.425-.717-.31-.772-.268-.792-.41-.729-.347-.757-.157-.828-.25-.793-.3-.774-.29-.782-.192-.811-.26-.79-.286-.788-.122-.825-.293-.79-.053-.838-.16-.818-.026-.835-.082-.829-.132-.825.11-.835-.064-.832.022-.836.103-.825.247-.803.135-.814-.017-.86.392-.754.222-.803.464-.704.236-.81.489-.679.532-.639.543-.625.478-.696.721-.446.686-.461.614-.568.71-.435.804-.247.721-.414.775-.296.807-.193.729-.457.82-.154.818-.157.829-.1.803-.246.85.093.825-.072.817-.225.832.007.836.147.832-.243.825.218h.832l.828.064.836-.007.839-.014.817.153.818.182.832.05.8.268.828.086.836.068.814.178.786.307.814.157.792.265.822.15.77.324.8.225.811.197.814.189.818.186.75.371.775.31.782.283.742.382.779.296.796.254.732.403.757.343.707.45.728.393.775.31.754.365.76.346.582.643.807.278.59.614.695.45z"/></mask><g fill="#000" stroke="#20201F" stroke-miterlimit="10" stroke-width=".97" mask="url(#a)"><path d="M60.51 56.742a.61.61 0 0 0-.84.246c-.15.261-.042.647.222.804a.62.62 0 0 0 .836-.215.62.62 0 0 0-.222-.831zM61.531 51.36a.594.594 0 0 0-.8.265c-.128.271-.007.643.254.775.285.143.671.018.803-.268.129-.271 0-.643-.26-.771zM58.986 55.899a.595.595 0 0 0-.822.246c-.135.247-.007.647.247.779a.62.62 0 0 0 .8-.24c.139-.253.025-.65-.225-.785ZM58.343 58.202c.16-.285.06-.664-.218-.814a.59.59 0 0 0-.804.25c-.139.257-.021.636.24.778.26.143.639.04.782-.214ZM60.07 55.16c.144-.286.026-.65-.25-.786a.58.58 0 0 0-.795.261.605.605 0 0 0 .253.771c.271.14.657.018.793-.246ZM60.135 53.878c.279.154.628.06.782-.21.154-.272.06-.643-.197-.793a.59.59 0 0 0-.824.228c-.15.268-.04.618.239.772zM56.047 57.517c.282.16.592.082.75-.197.16-.278.089-.593-.168-.743-.318-.185-.604-.107-.79.218a.53.53 0 0 0 .208.718zM60.132 49.24c-.147.246-.075.571.16.71.304.182.607.122.775-.157.168-.278.104-.603-.157-.757-.303-.182-.593-.103-.778.204ZM57.564 53.753c-.16.275-.085.582.182.736.297.175.586.107.754-.172s.096-.607-.168-.76c-.29-.172-.596-.093-.768.196ZM60.01 50.543c-.289-.164-.578-.075-.753.229a.537.537 0 0 0 .221.732c.268.15.579.064.732-.2.172-.297.093-.593-.2-.76ZM57.65 55.81c.154-.286.072-.593-.207-.747-.296-.16-.593-.064-.764.254-.14.254-.032.564.25.718.275.15.568.057.721-.225ZM59.168 52.04c-.29-.165-.586-.076-.757.224a.54.54 0 0 0 .214.732.525.525 0 0 0 .742-.21c.161-.286.08-.586-.203-.747zM53.515 57.456a.52.52 0 0 0 .178.71c.24.147.586.058.736-.185a.54.54 0 0 0-.182-.732c-.264-.16-.564-.075-.732.203zM59.514 46.887a.516.516 0 0 0 .2.718c.257.135.585.039.724-.211a.55.55 0 0 0-.207-.725c-.257-.143-.564-.05-.714.218zM54.372 55.938c-.142.26-.053.593.197.725.257.136.589.04.728-.21a.547.547 0 0 0-.218-.74c-.239-.128-.567-.025-.703.225zM60.364 45.38a.524.524 0 0 0 .189.725c.25.143.585.05.728-.2a.54.54 0 0 0-.214-.736.52.52 0 0 0-.703.21ZM57.79 49.911a.53.53 0 0 0 .178.714c.246.15.585.068.735-.178a.557.557 0 0 0-.193-.747.534.534 0 0 0-.72.211ZM56.932 51.429a.516.516 0 0 0 .211.7c.264.142.586.05.721-.207a.546.546 0 0 0-.207-.725c-.264-.15-.567-.05-.725.232ZM55.215 54.453a.523.523 0 0 0 .203.703c.265.143.59.057.729-.192a.545.545 0 0 0-.214-.743.536.536 0 0 0-.718.232ZM58.64 48.419a.525.525 0 0 0 .192.689c.26.15.6.06.743-.197a.56.56 0 0 0-.229-.739c-.253-.132-.56-.028-.71.243zM57.014 53.421a.543.543 0 0 0-.235-.718c-.272-.132-.572-.025-.722.26-.121.23-.007.572.225.69.275.14.6.036.732-.228zM58.018 46.016c-.14.239-.06.553.171.696a.52.52 0 0 0 .696-.172.523.523 0 0 0-.174-.71.513.513 0 0 0-.693.186ZM59.717 43.013a.53.53 0 0 0 .186.692c.218.125.557.047.686-.164.146-.24.07-.575-.165-.714a.527.527 0 0 0-.71.186zM55.443 50.554a.526.526 0 0 0 .182.696c.222.132.564.043.7-.186a.52.52 0 0 0-.193-.707.513.513 0 0 0-.689.197ZM54.608 54.089a.527.527 0 0 0-.204-.703.526.526 0 0 0-.685.203.53.53 0 0 0 .196.693c.218.128.564.028.693-.197zM53.755 55.589a.52.52 0 0 0-.197-.707.516.516 0 0 0-.696.224.517.517 0 0 0 .221.682.52.52 0 0 0 .672-.196zM59.064 45.227a.516.516 0 0 0 .685-.204c.125-.24.03-.568-.196-.693a.527.527 0 0 0-.7.215.505.505 0 0 0 .211.681ZM57.832 47.34a.52.52 0 0 0-.686.204.52.52 0 0 0 .211.7c.232.117.557.021.675-.2a.53.53 0 0 0-.2-.707zM52.02 56.588c-.14.24-.062.55.174.693s.56.064.696-.168c.143-.24.057-.582-.182-.714a.516.516 0 0 0-.692.19zM54.583 52.068a.537.537 0 0 0 .189.7c.225.128.575.024.696-.2a.516.516 0 0 0-.196-.693.506.506 0 0 0-.69.193ZM57.179 49.554a.514.514 0 0 0-.2-.689c-.24-.129-.568-.036-.69.2-.128.246-.035.571.197.693a.525.525 0 0 0 .693-.2zM50.52 55.756c-.129.225-.047.536.174.654.225.121.536.043.661-.172a.516.516 0 0 0-.193-.689c-.221-.121-.507-.032-.642.204zM53.937 49.733a.49.49 0 0 0 .192.632c.232.12.536.042.66-.172a.52.52 0 0 0-.196-.689c-.228-.121-.524-.018-.66.229zM56.515 45.194a.487.487 0 0 0 .185.65c.222.118.54.032.66-.182.13-.221.037-.546-.188-.675-.232-.132-.522-.043-.66.204zM59.082 40.67a.493.493 0 0 0 .175.64c.214.124.557.032.675-.183a.506.506 0 0 0-.197-.67c-.228-.13-.517-.037-.657.213zM53.261 51.875a.5.5 0 0 0 .664-.16.5.5 0 0 0-.178-.676c-.236-.135-.514-.053-.66.2a.47.47 0 0 0 .174.636ZM59.935 39.163a.477.477 0 0 0 .2.632c.24.129.55.033.668-.203a.5.5 0 0 0-.214-.65c-.236-.129-.522-.032-.654.221ZM49.852 57.924a.484.484 0 0 0 .653-.182.485.485 0 0 0-.21-.665c-.24-.132-.493-.05-.64.204-.135.236-.053.503.193.643zM58.857 41.974c-.232-.129-.507-.032-.646.228-.118.221-.029.493.203.625a.49.49 0 0 0 .657-.175c.136-.243.043-.536-.214-.678ZM54.972 48.865a.5.5 0 0 0 .664-.16c.14-.226.047-.558-.189-.69-.236-.128-.514-.04-.657.214a.48.48 0 0 0 .182.636ZM58.022 43.502c-.24-.14-.511-.057-.657.193a.475.475 0 0 0 .182.646.503.503 0 0 0 .66-.172.49.49 0 0 0-.185-.667ZM51.373 54.25c-.133.228-.047.507.192.642a.497.497 0 0 0 .657-.178.49.49 0 0 0-.192-.664c-.236-.136-.511-.054-.654.2zM55.84 47.35a.51.51 0 0 0 .664-.174c.128-.225.035-.54-.2-.672a.473.473 0 0 0-.647.193.47.47 0 0 0 .183.65zM52.869 52.55c-.246-.136-.5-.054-.65.214-.125.221-.04.5.19.628.235.133.553.043.67-.182a.49.49 0 0 0-.21-.66ZM60.17 35.31c-.11.2-.028.49.169.597.228.129.51.054.635-.164a.46.46 0 0 0-.185-.643c-.222-.118-.486-.029-.618.21ZM49.89 53.428c-.103.186-.032.468.147.571.254.15.532.086.668-.153a.477.477 0 0 0-.182-.636c-.232-.121-.493-.032-.632.218ZM50.744 51.918a.444.444 0 0 0 .154.59c.25.145.521.081.653-.155a.47.47 0 0 0-.178-.635c-.222-.125-.493-.04-.629.196zM54.176 45.883c-.111.2-.04.472.157.586.243.14.532.068.653-.16a.466.466 0 0 0-.207-.643c-.207-.111-.475-.015-.603.217ZM56.743 41.356c-.11.2-.032.482.16.585.258.14.526.072.65-.164a.474.474 0 0 0-.192-.632c-.218-.121-.486-.029-.618.21ZM48.17 56.46c-.104.189-.029.474.15.575.257.146.542.078.667-.165a.46.46 0 0 0-.203-.628c-.225-.125-.479-.036-.618.218zM57.614 39.824c-.114.19-.053.478.129.59.242.15.525.088.657-.137a.456.456 0 0 0-.143-.624c-.236-.147-.493-.079-.643.17ZM55.05 44.34a.45.45 0 0 0 .14.608c.235.143.503.085.639-.136a.455.455 0 0 0-.147-.64c-.221-.135-.489-.063-.632.169ZM52.462 48.897a.446.446 0 0 0 .178.593c.236.128.504.057.629-.164a.46.46 0 0 0-.193-.643c-.215-.118-.482-.022-.614.214ZM62.517 32.1c-.222-.128-.493-.053-.632.18a.456.456 0 0 0 .157.603c.243.139.521.068.65-.165a.47.47 0 0 0-.179-.62zM59.31 36.828c-.11.2-.039.468.161.579.254.143.514.082.65-.15a.46.46 0 0 0-.175-.632c-.229-.132-.493-.047-.632.203zM49.045 54.924c-.118.193-.054.475.132.59.257.153.518.1.657-.133a.463.463 0 0 0-.164-.639c-.229-.136-.475-.064-.625.182ZM53.319 47.383a.44.44 0 0 0 .143.59c.246.146.524.089.657-.14a.477.477 0 0 0-.172-.639c-.207-.129-.492-.043-.628.186zM58.468 38.314c-.111.196-.04.478.15.589.25.146.51.086.653-.15a.47.47 0 0 0-.179-.636c-.225-.125-.489-.042-.624.197ZM55.89 42.86a.45.45 0 0 0 .16.602c.243.136.496.075.636-.153a.463.463 0 0 0-.172-.636c-.225-.132-.486-.053-.625.186ZM51.612 50.404a.44.44 0 0 0 .16.6c.236.132.515.064.64-.157a.46.46 0 0 0-.172-.636c-.22-.128-.485-.05-.624.193zM56.125 38.978a.44.44 0 0 0 .14.575c.189.114.496.035.61-.157.121-.204.05-.447-.164-.575-.229-.14-.447-.079-.586.16zM57.55 37.292c-.225-.125-.447-.05-.579.193a.437.437 0 0 0 .175.56.48.48 0 0 0 .604-.185c.107-.19.018-.45-.2-.571zM46.399 56.938c-.218-.121-.436-.053-.568.179-.11.189-.039.457.15.567.2.118.507.029.621-.178.108-.197.015-.446-.203-.568ZM47.56 54.07c-.115.197-.044.486.146.59.189.104.485.025.596-.157.125-.21.054-.457-.171-.593-.215-.128-.44-.064-.568.16zM48.984 52.386c-.214-.122-.453-.04-.582.196-.1.182-.014.464.175.56a.47.47 0 0 0 .603-.182c.108-.192.022-.453-.192-.574zM50.987 48.033a.434.434 0 0 0 .157.582c.2.114.482.029.6-.178.11-.19.022-.454-.19-.575-.21-.122-.438-.05-.57.171zM60.974 31.272c-.214-.125-.436-.064-.575.157a.44.44 0 0 0 .15.586c.197.107.5.021.607-.168.11-.196.029-.446-.186-.575zM55.84 40.32c-.207-.121-.436-.057-.572.168a.433.433 0 0 0 .154.586c.19.103.482.028.596-.154.122-.193.04-.471-.178-.596zM49.255 51.079a.44.44 0 0 0 .157.568c.193.11.497.028.611-.165.11-.193.018-.478-.196-.592-.211-.111-.447-.036-.572.189ZM54.961 41.838c-.214-.118-.435-.05-.564.182a.43.43 0 0 0 .157.568c.204.117.504.028.618-.186.103-.196.01-.446-.207-.568zM57.825 35.978c-.104.182-.029.465.157.568.189.107.5.022.61-.168.108-.182.022-.46-.182-.582-.21-.128-.453-.053-.589.179zM50.12 49.558c-.111.2-.04.453.16.564a.457.457 0 0 0 .604-.168.43.43 0 0 0-.179-.579c-.221-.128-.453-.053-.585.179zM52.412 46.369c-.21-.125-.44-.06-.575.16a.436.436 0 0 0 .15.586c.193.111.493.029.607-.168.11-.189.029-.453-.182-.578ZM52.69 45.027a.42.42 0 0 0 .168.578c.204.107.496.018.6-.186.103-.196.014-.45-.2-.571-.214-.118-.443-.046-.568.175zM46.688 55.603a.436.436 0 0 0 .16.571c.197.11.5.025.611-.168.107-.193.025-.46-.182-.582-.21-.125-.457-.05-.59.179ZM58.85 35.022c.203.114.496.035.603-.165a.435.435 0 0 0-.182-.578c-.21-.125-.453-.047-.585.182a.42.42 0 0 0 .164.56ZM53.554 43.505a.41.41 0 0 0 .16.575c.194.11.472.036.59-.157.121-.196.046-.45-.168-.578-.228-.14-.446-.079-.585.16zM59.55 32.94c-.111.189-.04.457.146.568a.466.466 0 0 0 .618-.175c.107-.197.021-.45-.197-.572-.21-.118-.435-.05-.567.179ZM49.17 48.533c-.204-.14-.432-.032-.56.182-.108.182-.022.432.174.54.186.103.453.031.553-.144a.437.437 0 0 0-.167-.578ZM51.737 44.005c-.21-.118-.429-.05-.55.164a.403.403 0 0 0 .171.554c.2.107.465.028.561-.164.1-.19.014-.45-.186-.557zM50.027 47.012c-.208-.114-.422-.043-.543.185-.114.211-.054.408.164.533.193.11.464.039.564-.154.1-.186.011-.453-.185-.564ZM59.625 30.987c.103-.193.014-.464-.186-.575-.182-.1-.436-.021-.543.171-.118.207-.05.44.164.557.204.115.461.043.565-.15zM46.917 51.71c-.122.215-.058.425.164.55a.41.41 0 0 0 .55-.142c.103-.182.014-.486-.175-.586-.19-.1-.425-.021-.54.179ZM44.481 56.799c.2.118.46.053.572-.14.103-.178.025-.463-.161-.57a.4.4 0 0 0-.547.15c-.128.214-.07.435.14.56zM43.496 57.745c-.125.214-.068.44.146.557.193.107.447.05.557-.128.115-.186.036-.468-.164-.586-.189-.114-.418-.046-.539.157ZM57.721 33.43c-.185-.133-.428-.026-.539.185a.404.404 0 0 0 .171.542c.19.097.454.026.554-.153.11-.196.025-.46-.186-.575ZM56.204 37.007c.1-.179.018-.461-.168-.568a.4.4 0 0 0-.546.157c-.125.214-.068.432.146.557.197.114.457.05.568-.146ZM53.45 40.992a.393.393 0 0 0-.542.16c-.121.214-.06.436.154.56.192.111.46.04.567-.153.1-.185.018-.453-.175-.564zM53.926 40.188c.193.107.45.04.553-.139.107-.193.022-.468-.182-.578-.193-.108-.425-.036-.539.164-.118.21-.05.435.168.553ZM55.161 37.957c-.207-.118-.421-.047-.543.178a.38.38 0 0 0 .161.54c.186.106.454.039.557-.14.114-.196.032-.464-.171-.578zM60.314 28.912c-.215-.125-.422-.068-.554.15-.121.2-.046.432.172.554.189.107.446.039.55-.14a.425.425 0 0 0-.168-.564ZM50.512 46.244c.2.1.45.022.547-.168.096-.189 0-.478-.2-.578-.186-.093-.44 0-.536.196-.107.222-.032.44.19.547zM58.593 31.911c-.193-.114-.415-.046-.536.164-.121.215-.071.418.132.543.197.118.46.06.575-.125s.032-.46-.171-.582ZM46.063 53.218c-.121.207-.068.428.132.546s.468.057.575-.129a.44.44 0 0 0-.175-.582c-.2-.114-.407-.05-.532.165ZM56.865 34.94c-.19-.104-.425-.033-.54.17-.114.2-.039.44.172.554.189.104.446.036.553-.146s.014-.468-.185-.578ZM48.295 50.043c-.186-.103-.429-.028-.543.165-.114.2-.043.431.175.55.193.106.45.042.557-.144.11-.189.022-.46-.19-.574zM52.062 42.645c-.125.218-.068.432.146.557.193.11.465.035.568-.154.1-.185.018-.453-.178-.564-.197-.114-.418-.046-.54.16zM45.73 54.574c-.195-.107-.42-.035-.535.165-.121.217-.057.435.165.55.196.103.446.039.553-.14.11-.193.025-.46-.182-.575ZM57.95 29.587a.405.405 0 0 0-.55.15c-.096.168-.032.41.14.518.174.107.428.05.535-.125.107-.172.043-.44-.125-.54zM58.8 28.07a.387.387 0 0 0-.54.157.4.4 0 0 0 .143.514c.175.1.44.032.536-.14.107-.196.046-.428-.136-.531zM56.365 33.133c.11-.2.046-.447-.147-.547a.396.396 0 0 0-.539.175c-.09.165-.01.407.164.507.172.097.425.029.518-.135zM47.992 46.333a.375.375 0 0 0 .132.51c.185.112.439.044.542-.146a.38.38 0 0 0-.153-.52c-.19-.104-.41-.036-.521.156ZM46.274 49.358c-.11.189-.05.418.14.525.17.1.424.039.52-.122.108-.178.05-.435-.12-.539a.38.38 0 0 0-.54.136ZM42.843 55.403a.38.38 0 0 0 .125.517.4.4 0 0 0 .55-.135.4.4 0 0 0-.125-.518.39.39 0 0 0-.547.136zM60.528 25.045a.386.386 0 0 0-.547.14c-.1.174-.035.41.136.517.182.11.443.043.547-.14a.39.39 0 0 0-.14-.513zM59.117 26.72a.37.37 0 0 0 .161.503.388.388 0 0 0 .375-.678c-.197-.107-.425-.036-.536.175ZM51.573 40.834a.39.39 0 0 0 .521-.168c.09-.174.014-.428-.146-.517a.4.4 0 0 0-.543.168.38.38 0 0 0 .171.517zM42.532 56.763c-.204-.121-.421-.064-.54.14-.1.174-.042.41.126.517.171.107.428.043.539-.125.093-.143.075-.443-.125-.532ZM54.836 34.265a.377.377 0 0 0 .15.52c.186.1.407.044.514-.138.114-.197.06-.422-.128-.529-.2-.118-.422-.057-.54.143zM52.947 39.17a.4.4 0 0 0-.146-.528.38.38 0 0 0-.525.143.39.39 0 0 0 .136.532c.171.096.439.025.535-.147ZM49.362 44.684a.39.39 0 0 0-.528.146.397.397 0 0 0 .15.529c.175.1.432.028.528-.147a.4.4 0 0 0-.153-.528zM47.645 47.69a.387.387 0 0 0-.532.182.39.39 0 0 0 .172.507c.17.09.424.018.514-.15a.383.383 0 0 0-.154-.539ZM45.428 50.85a.383.383 0 0 0 .135.532.387.387 0 0 0 .518-.125c.118-.185.068-.432-.107-.535-.203-.122-.425-.068-.546.128ZM43.7 53.892a.38.38 0 0 0 .146.525c.179.1.436.025.536-.153a.394.394 0 0 0-.157-.525.385.385 0 0 0-.525.153ZM53.99 35.75a.384.384 0 0 0 .14.528c.178.1.42.036.532-.146a.4.4 0 0 0-.143-.529.384.384 0 0 0-.529.147ZM49.855 43.845c.175.089.432.017.518-.143.11-.204.043-.44-.154-.54a.39.39 0 0 0-.525.161.39.39 0 0 0 .161.522ZM56.557 31.237a.366.366 0 0 0 .143.507c.19.107.425.05.528-.133a.385.385 0 1 0-.67-.374ZM53.133 37.27a.38.38 0 0 0 .146.526c.182.1.41.04.518-.132a.384.384 0 1 0-.66-.39zM50.559 41.802a.37.37 0 0 0 .153.521.39.39 0 0 0 .525-.153.393.393 0 0 0-.153-.525.375.375 0 0 0-.522.157zM45.099 52.232c-.203-.118-.421-.06-.54.143-.1.175-.038.403.137.51.178.111.42.05.532-.128a.387.387 0 0 0-.129-.529zM48.71 42.338a.367.367 0 0 0-.49.153c-.082.15 0 .422.15.497.154.078.39-.011.486-.182a.343.343 0 0 0-.143-.468zM53.144 35.236a.34.34 0 0 0-.157-.465.37.37 0 0 0-.486.175.38.38 0 0 0 .168.475c.168.086.386.004.475-.182zM40.15 57.445a.38.38 0 0 0-.496.14c-.086.146-.014.413.136.5.146.085.389 0 .489-.165a.34.34 0 0 0-.132-.471zM41.364 54.574c-.093.165-.021.4.15.493.157.086.375.01.471-.157a.34.34 0 0 0-.142-.486c-.165-.085-.382-.014-.479.15ZM42.717 52.914c-.168-.1-.378-.043-.489.14-.093.15-.025.406.136.496.16.089.378.018.485-.161.1-.168.043-.368-.128-.475zM45.653 47.015c-.09.154-.011.411.153.497.154.082.375 0 .471-.165.104-.175.05-.367-.128-.478-.16-.096-.397-.029-.496.146ZM47.002 45.359a.365.365 0 0 0-.493.142c-.089.161-.01.404.157.493.161.086.365.01.468-.168.1-.175.047-.364-.135-.467zM56.55 29.24a.35.35 0 0 0-.117-.481.387.387 0 0 0-.5.135c-.093.154-.018.407.139.5.15.086.378.014.478-.153ZM55.576 30.255a.37.37 0 0 0-.497.143c-.093.16-.017.41.15.496.157.082.372.007.472-.164a.33.33 0 0 0-.129-.475zM51.655 36.44c-.09.153-.014.406.146.495.147.083.372 0 .472-.164.103-.171.05-.368-.125-.475-.165-.1-.39-.035-.493.14zM60.22 21.335a.376.376 0 0 0 .147.497c.165.089.386.01.482-.172a.337.337 0 0 0-.132-.457.36.36 0 0 0-.492.136zM54.719 31.776a.36.36 0 0 0-.497.128c-.093.154-.021.397.147.497.16.092.36.032.47-.15.112-.179.065-.361-.12-.475ZM53.85 33.282a.374.374 0 0 0-.492.15c-.082.157-.014.39.14.482.163.1.374.029.485-.16a.33.33 0 0 0-.132-.472ZM45.288 48.394a.36.36 0 0 0-.496.132c-.09.16-.014.4.153.492.165.09.365.022.472-.157.103-.171.05-.364-.129-.467ZM50.409 39.32a.375.375 0 0 0-.49.169c-.074.157.008.4.161.478.168.086.386.004.483-.178a.34.34 0 0 0-.154-.468ZM49.716 41.28a.34.34 0 0 0-.157-.467.37.37 0 0 0-.475.16c-.086.165-.007.415.153.497.165.082.383-.003.479-.19ZM47.984 44.334a.36.36 0 0 0-.14-.49c-.16-.081-.4-.003-.488.161-.083.154 0 .407.157.49.157.082.375.003.471-.165zM59.996 23.17c.085-.16.018-.357-.15-.45a.36.36 0 0 0-.49.143c-.089.168-.014.397.161.49.157.082.386 0 .482-.183zM58.507 24.36c-.082.157 0 .41.164.492.16.079.371 0 .468-.175a.35.35 0 0 0-.14-.475c-.16-.089-.403-.01-.492.161zM43.703 51.875c.104-.178.054-.368-.125-.471a.363.363 0 0 0-.496.139c-.09.154-.01.407.153.496.157.086.364.015.468-.164ZM43.953 50.011a.37.37 0 0 0 .125.496c.153.093.374.033.478-.135.114-.182.064-.382-.121-.486a.36.36 0 0 0-.482.125ZM58.278 26.188a.344.344 0 0 0-.143-.472.37.37 0 0 0-.478.147c-.093.16-.021.41.14.496.16.086.385.007.485-.171zM41.147 56.385a.343.343 0 0 0-.154-.468.376.376 0 0 0-.479.15.393.393 0 0 0 .15.496c.158.086.386 0 .479-.182zM50.79 37.957c-.092.16-.017.4.154.492.16.086.368.018.471-.157.1-.168.047-.368-.132-.475a.363.363 0 0 0-.492.14ZM57.272 27.234a.373.373 0 0 0-.49.16c-.075.147 0 .397.15.483.157.089.39.007.486-.175a.34.34 0 0 0-.146-.468ZM41.296 52.518c.09-.164.047-.357-.1-.443-.16-.093-.353-.032-.45.14-.092.164-.05.353.104.442.157.093.353.032.45-.14zM55.75 26.402c-.157-.09-.335-.036-.432.128-.1.172-.057.364.104.457.153.086.343.029.435-.132.1-.178.058-.357-.107-.453ZM52.744 31.062c-.097.164-.054.35.1.442a.31.31 0 0 0 .439-.11c.103-.175.068-.364-.086-.46-.157-.097-.353-.044-.45.124zM51.997 33.025c.165.093.332.043.429-.128.1-.179.053-.368-.11-.454-.169-.089-.344-.028-.444.15-.089.164-.039.34.125.432ZM43.307 47.69c-.09.164-.04.35.118.44.157.092.346.028.442-.15.09-.161.036-.361-.114-.443-.157-.086-.357-.018-.45.153zM59.285 20.807c.104-.182.06-.354-.11-.45-.161-.09-.336-.04-.432.128a.33.33 0 0 0 .11.457c.157.086.336.033.429-.135zM54.897 27.92c-.16-.097-.35-.036-.45.142-.09.16-.046.336.104.425.171.104.346.057.45-.125.096-.164.053-.35-.104-.443ZM42.91 49.04c-.153-.09-.343-.032-.439.132-.104.171-.054.368.11.457.158.086.333.029.433-.143.096-.164.05-.357-.104-.446ZM49.316 37.103a.335.335 0 0 0 .093.45c.147.093.36.029.454-.132.096-.168.046-.368-.115-.457-.146-.082-.342-.018-.435.14zM39.586 55.524c.097-.171.043-.364-.125-.45-.157-.078-.335-.018-.428.15-.093.165-.05.343.11.436.165.096.343.043.443-.136ZM45.581 44.959c.096-.165.054-.354-.1-.447-.153-.093-.36-.028-.453.143-.09.164-.04.35.125.44.168.092.328.042.428-.136ZM46.317 43.013c-.154-.086-.336-.025-.433.142-.096.165-.05.347.111.44.168.096.35.039.447-.14a.32.32 0 0 0-.126-.439zM48.156 40.42c.092-.171.05-.34-.111-.436-.164-.092-.346-.035-.443.14-.09.164-.043.346.114.435.161.093.343.036.443-.142zM48.898 38.492c-.164-.092-.35-.035-.446.14-.093.164-.047.346.11.439.161.093.343.04.447-.136.093-.16.046-.35-.107-.44zM50.723 35.896c.096-.182.057-.342-.11-.435-.176-.097-.35-.04-.447.146-.086.164-.029.36.125.44.164.082.34.02.432-.15ZM54.15 29.855c.094-.164.047-.346-.11-.44-.157-.092-.332-.042-.435.13a.31.31 0 0 0 .117.453c.161.089.329.032.429-.143ZM56.715 25.334c.096-.167.057-.353-.09-.442-.164-.1-.364-.04-.46.143a.32.32 0 0 0 .121.435c.164.086.336.032.429-.136ZM57.593 23.795a.32.32 0 0 0-.136-.435c-.16-.082-.353-.008-.44.171a.307.307 0 0 0 .137.418c.167.09.35.025.442-.154zM60.156 19.279a.31.31 0 0 0-.114-.44c-.164-.093-.35-.032-.446.147-.09.168-.043.35.114.435.164.09.35.032.443-.142zM42.16 50.99c.093-.175.043-.35-.121-.436-.172-.09-.354-.025-.447.157-.082.16-.032.336.122.422.175.096.35.039.446-.143ZM38.615 56.606c-.161-.093-.336-.04-.436.129-.1.164-.057.357.096.442.161.093.35.043.443-.117.104-.175.06-.361-.103-.458zM51.037 34.075c-.1.168-.06.343.1.44.168.1.346.046.45-.133a.316.316 0 0 0-.114-.442c-.16-.09-.336-.036-.436.135ZM58.425 22.331c.103-.171.057-.37-.104-.46-.15-.082-.343-.025-.44.136-.096.16-.053.35.1.442.154.093.347.04.44-.118zM39.883 53.725c-.093.164-.05.346.107.439.16.096.346.046.446-.129.093-.16.05-.353-.1-.443-.154-.092-.357-.032-.453.133ZM47.177 41.502c-.16-.09-.336-.036-.432.136-.096.168-.054.353.104.443.16.092.346.039.439-.122.103-.182.06-.36-.111-.457ZM44.588 46.02c-.167-.08-.35 0-.432.181-.067.154 0 .35.143.422.164.078.346.014.432-.157.093-.183.036-.361-.143-.447ZM58.232 18.532c.164.093.296.054.385-.117.083-.154.04-.311-.114-.397-.157-.09-.318-.043-.396.107-.093.175-.054.307.125.407ZM39.368 51.768c.154.089.307.043.393-.114.082-.15.039-.333-.1-.411a.306.306 0 0 0-.418.128c-.082.154-.036.304.125.397ZM51.658 30.115q-.25-.149-.41.104c-.093.15-.054.3.103.396.15.09.297.057.386-.082.103-.168.075-.329-.082-.418zM55.072 24.063c-.16-.085-.304-.046-.393.114-.093.168-.05.311.125.404q.247.129.382-.128c.09-.168.047-.3-.118-.39zM42.332 47.122c.082-.153.04-.317-.107-.4a.292.292 0 0 0-.418.118.305.305 0 0 0 .125.404c.15.086.314.035.396-.122zM46.506 39.164c-.168-.093-.314-.047-.403.128-.086.164-.043.286.135.386.168.093.286.057.382-.125.093-.172.058-.297-.11-.39zM47.345 37.66c-.15-.078-.307-.032-.382.107-.096.179-.05.325.132.422.16.085.293.035.382-.14.079-.157.029-.307-.132-.389ZM57.39 20.06c.146.075.285.025.367-.135.093-.179.047-.318-.128-.404-.164-.082-.297-.032-.386.14-.086.164-.032.31.146.4ZM37.076 55.778c-.165-.09-.322-.04-.411.128-.079.157-.032.297.14.39.15.085.296.042.378-.104.089-.16.046-.328-.107-.414ZM38.515 53.278c.164.093.29.058.386-.117.085-.158.042-.311-.111-.397a.28.28 0 0 0-.4.11q-.142.254.125.404ZM50.894 32.033c.09-.165.047-.332-.11-.415a.29.29 0 0 0-.4.118c-.09.157-.036.322.128.411.143.078.3.029.379-.114zM42.807 45.726c.15.082.289.043.374-.107.097-.175.058-.321-.107-.41-.164-.09-.314-.043-.403.128-.079.146-.025.3.14.39zM43.664 44.202c.178.1.27.075.37-.1.1-.179.069-.325-.092-.414-.164-.09-.318-.043-.41.128-.09.164-.047.286.132.386ZM45.752 41.088c.09-.16.047-.34-.103-.421-.157-.083-.325-.029-.41.139-.08.15-.026.303.139.393.153.082.292.042.378-.111zM60.8 14.008c.16.09.292.047.385-.125.086-.157.043-.307-.114-.393-.157-.085-.307-.042-.393.115-.096.171-.057.303.125.403zM52.233 29.108c.164.093.29.05.386-.125.086-.157.04-.31-.114-.393-.158-.085-.311-.039-.397.118-.096.175-.057.3.125.404zM49.08 34.64c-.167-.097-.31-.054-.407.12-.082.154-.039.297.125.39.15.086.293.05.375-.097q.15-.269-.096-.41zM44.506 42.706c.154.089.29.057.379-.093.1-.164.06-.332-.093-.418-.16-.09-.314-.053-.404.096-.096.161-.05.318.118.411zM38.044 54.664c.092-.161.057-.31-.093-.4-.161-.097-.322-.054-.411.114-.09.164-.053.29.118.39s.29.067.386-.104ZM53.069 27.602c.164.096.3.06.393-.1.089-.157.053-.314-.093-.4-.168-.1-.318-.06-.414.107-.086.154-.043.3.114.393ZM36.222 57.295c-.153-.086-.321-.043-.403.104-.09.157-.043.325.114.417.147.086.307.036.393-.121.086-.154.043-.318-.107-.4zM55.658 23.056q.248.138.389-.11c.086-.154.043-.315-.107-.4-.154-.09-.318-.047-.404.1-.093.164-.05.314.122.41ZM59.46 16.929c.086-.157.05-.318-.096-.404-.16-.096-.325-.053-.414.111-.086.157-.043.304.114.396s.307.054.393-.103zM49.652 33.622c.168.1.293.068.389-.097.09-.153.054-.314-.093-.4-.157-.093-.318-.057-.403.09-.1.167-.065.31.103.41zM53.933 26.084c.154.09.296.057.382-.086.093-.157.057-.339-.09-.425-.15-.089-.324-.039-.413.122-.086.15-.043.296.121.393zM41.375 48.219c-.154-.09-.31-.047-.397.107-.096.168-.057.31.111.407.157.09.297.05.39-.11a.287.287 0 0 0-.104-.4zM40.24 50.25c.15.082.292.043.374-.107.097-.175.058-.318-.11-.41q-.26-.14-.4.132c-.079.153-.029.3.136.385ZM47.948 36.671c.15.082.29.04.375-.114.082-.15.043-.329-.093-.41a.303.303 0 0 0-.417.114c-.09.15-.036.314.135.407zM56.504 21.56c.157.09.293.057.382-.09.096-.156.05-.338-.1-.42a.28.28 0 0 0-.4.117c-.09.157-.046.3.118.393ZM59.943 15.515c.153.086.292.05.375-.1.092-.168.053-.325-.104-.414-.164-.09-.307-.047-.404.128q-.127.236.129.386zM47.666 34.193c.075-.125.025-.31-.107-.389-.128-.075-.278-.025-.357.118s-.046.271.093.346c.136.072.275.082.371-.078zM56.964 17.172c-.132-.05-.25-.007-.332.125a.255.255 0 0 0 .093.368c.143.075.3.035.371-.093.076-.132.022-.314-.132-.397zM53.68 23.592c.06-.121 0-.31-.136-.371-.122-.058-.29.01-.357.146-.072.15-.022.268.121.34.146.07.275.05.371-.112zM41.572 44.377c-.115-.072-.286-.022-.368.107a.25.25 0 0 0 .082.353c.14.086.3.054.375-.071a.29.29 0 0 0-.09-.393zM37.383 52.314a.276.276 0 0 0-.125-.378c-.154-.075-.264-.007-.343.121-.086.14-.043.286.1.357s.296.032.368-.1ZM52.697 24.749c-.125-.072-.282-.025-.36.114-.079.143-.04.264.092.346.125.079.304.04.372-.078a.29.29 0 0 0-.104-.386zM56.132 18.704c-.121-.076-.282-.03-.36.114-.079.139-.054.26.085.346.136.082.3.05.372-.071a.296.296 0 0 0-.1-.39zM58.803 14.562a.28.28 0 0 0-.107-.386c-.129-.075-.279-.025-.36.121-.083.147-.036.264.096.347.135.085.3.046.371-.082ZM36.394 53.414c-.125-.05-.282.025-.343.171-.064.157 0 .264.14.329a.25.25 0 0 0 .353-.125c.06-.132-.015-.318-.15-.375ZM38.233 50.81a.284.284 0 0 0-.093-.385.253.253 0 0 0-.36.111c-.072.14-.05.264.088.35.136.086.293.053.368-.075zM44.139 39.849c-.122-.071-.283-.025-.365.11-.085.143-.046.261.09.347.128.086.303.05.37-.068a.31.31 0 0 0-.096-.393zM44.624 38.46c-.068.121-.036.243.093.332.125.086.3.05.371-.071a.285.285 0 0 0-.11-.4c-.115-.064-.272-.01-.358.136zM45.806 36.821c-.129-.046-.247-.003-.329.129-.078.132-.032.307.1.364.143.064.279.06.368-.097.075-.135.018-.31-.143-.396zM48.53 32.661a.27.27 0 0 0-.128-.375c-.15-.067-.264-.014-.343.122-.082.143-.04.296.104.357.146.064.278.053.364-.104zM55.272 20.221a.254.254 0 0 0-.361.114c-.071.14-.046.264.09.354.131.082.296.046.37-.079a.283.283 0 0 0-.096-.385zM39.954 47.776a.285.285 0 0 0-.1-.39c-.129-.07-.282-.02-.36.122q-.125.216.089.346c.139.086.296.05.37-.078ZM40.329 46.03c-.064.132-.029.25.107.332.129.079.303.04.371-.082.072-.125.018-.318-.107-.386-.121-.068-.286-.014-.371.136ZM42.903 41.484c-.053.125-.053.25.086.343a.27.27 0 0 0 .375-.064.28.28 0 0 0-.086-.39c-.125-.081-.282-.039-.375.111ZM49.38 31.169c.072-.129.011-.31-.121-.382-.125-.065-.293-.004-.36.132-.076.15-.015.264.114.343a.27.27 0 0 0 .367-.097zM51.844 26.273a.26.26 0 0 0-.368.104c-.071.14-.05.268.082.357a.28.28 0 0 0 .375-.075.28.28 0 0 0-.089-.386ZM34.433 56.931c.15.079.279.075.372-.078a.285.285 0 0 0-.104-.386.27.27 0 0 0-.364.121c-.068.14-.05.264.093.343zM46.706 35.325c-.129-.079-.286-.032-.36.107-.08.14-.054.264.081.35.125.082.3.043.372-.071a.28.28 0 0 0-.09-.386zM61.37 10.038a.28.28 0 0 0-.1-.386.26.26 0 0 0-.36.107c-.082.143-.04.264.09.35.12.082.306.04.374-.075zM54.522 22.103a.28.28 0 0 0-.104-.386c-.146-.082-.264-.021-.353.1a.256.256 0 0 0 .082.368c.14.079.296.047.371-.082zM35.669 55.335a.31.31 0 0 0-.107-.393c-.122-.068-.293-.014-.364.125-.075.143-.04.265.1.35.132.082.3.043.37-.082ZM50.137 29.276c-.121-.071-.285-.025-.364.11-.078.14-.053.262.086.35.143.09.296.058.371-.067.079-.132.036-.314-.093-.39zM60.039 11.284c-.054.128-.018.246.114.328a.27.27 0 0 0 .371-.085.29.29 0 0 0-.11-.382c-.126-.068-.286-.018-.375.139ZM57.836 15.694c-.136-.072-.3-.015-.372.139-.068.143-.01.25.107.328.129.082.3.04.368-.082a.285.285 0 0 0-.107-.385zM39.093 49.297a.28.28 0 0 0-.1-.386c-.16-.096-.271-.014-.36.111-.083.114-.036.279.089.35.143.082.296.05.371-.071zM42.407 42.852c-.125-.064-.279 0-.354.143-.067.132-.021.282.115.339.142.057.278.06.364-.104a.28.28 0 0 0-.125-.378ZM59.557 12.658c-.126-.074-.275-.028-.361.118-.082.143-.057.257.09.34.153.085.288.06.367-.072a.275.275 0 0 0-.1-.386zM50.983 27.759c-.132-.068-.285-.015-.357.132-.075.15-.028.264.115.34.153.081.289.038.36-.104a.28.28 0 0 0-.118-.368ZM58.939 10.33c-.168-.1-.286-.057-.364.068-.083.132-.047.25.085.329.143.089.25.025.325-.1s.043-.236-.046-.297ZM55.518 16.376c-.214-.1-.328-.04-.389.089-.064.14-.018.268.136.332.157.068.26-.029.296-.15.025-.093-.032-.207-.043-.268zM57.707 11.92c-.064.124-.018.289.11.346.136.057.24.003.304-.118.072-.132.057-.25-.086-.325-.139-.072-.246-.032-.328.096ZM49.559 27.248c.068-.118.05-.228-.071-.314a.24.24 0 0 0-.35.082c-.072.136-.029.254.093.332.135.086.242.029.328-.103zM37.526 48.097c-.171-.1-.29-.068-.379.068s-.035.254.086.329c.122.078.236.042.314-.079.075-.121.083-.243-.021-.318ZM33.184 55.635c-.132-.075-.268-.036-.34.107-.074.147 0 .26.111.325.122.071.243.01.311-.107.075-.129.057-.246-.082-.325ZM34.13 54.446c.057-.132.057-.25-.09-.332-.142-.079-.256-.029-.328.1-.068.121-.039.246.082.321.133.082.247.036.336-.086zM32.352 57.135c-.143-.083-.29-.036-.357.1-.075.146-.01.25.114.32.132.076.232.022.307-.1.082-.135.047-.242-.064-.32ZM56.336 14.865c-.154-.079-.271-.046-.346.086-.076.135-.036.26.092.332.136.075.25.025.325-.11.072-.133.036-.236-.071-.308ZM52.933 20.903c-.175-.11-.286-.046-.36.072-.086.132-.026.257.096.332.125.078.242.025.314-.093.082-.129.057-.247-.05-.31ZM40.014 43.523c-.107-.075-.225-.01-.303.114-.079.129-.025.258.096.333.122.071.24.032.31-.093.069-.122.087-.243-.106-.354zM48.698 28.759c.068-.143.04-.247-.1-.322-.15-.082-.253-.01-.325.104-.078.136-.014.257.104.328.136.079.243.008.321-.11ZM41.743 40.527c-.143-.082-.254-.017-.325.104-.082.14-.018.257.107.328.132.075.242.015.31-.103.075-.132.05-.25-.093-.329ZM47.73 29.948c-.11-.061-.228-.025-.303.1-.078.128-.05.246.082.328.136.082.247.043.325-.086.079-.132.06-.242-.1-.342zM43.557 37.82c.082-.139.042-.246-.09-.32-.135-.076-.25-.04-.325.092-.078.14-.028.257.093.329.129.075.246.039.322-.1ZM44.41 36.325c.057-.14.04-.247-.09-.322-.124-.071-.288-.025-.342.108-.053.135-.018.25.114.324.154.086.236-.017.315-.11zM34.916 52.603c-.143-.071-.257-.057-.336.082-.071.13-.032.283.1.343.129.058.236.022.31-.103.083-.14.047-.243-.07-.322zM45.7 33.086c-.065.129-.008.246.11.314s.235.029.31-.1c.076-.128.072-.246-.07-.328-.144-.082-.258-.04-.35.11zM46.68 31.883c.154.086.247-.004.315-.121.072-.125.04-.236-.09-.308-.135-.078-.249-.032-.331.086-.079.114-.022.271.11.343zM40.99 42.352c.078-.143.046-.257-.086-.332-.136-.075-.257-.029-.329.1-.075.132-.028.253.097.332.135.082.242.021.317-.096zM35.526 51.529c.15.085.247 0 .314-.111.075-.121.043-.236-.082-.31-.117-.076-.293-.026-.343.096-.053.132-.032.253.111.325ZM59.818 9.195c.064-.196.078-.318-.072-.393-.14-.068-.253-.021-.332.1-.071.115-.018.304.118.336.096.021.21-.029.286-.043ZM50.952 24.342c.142.071.246.01.314-.118.064-.122.053-.243-.079-.314-.14-.072-.271-.047-.343.1-.068.132-.025.25.108.328zM51.712 22.485c-.079.132-.043.25.082.328.129.083.247.05.325-.085.079-.132.057-.25-.078-.329-.133-.078-.247-.046-.333.086zM57.229 13.733c.107-.2.086-.314-.05-.393-.14-.078-.25-.02-.332.093-.075.1-.014.315.11.343.097.021.211-.028.272-.04zM54.693 18.268c.065-.19.068-.303-.075-.39-.139-.081-.275-.05-.346.09s-.021.275.104.329c.085.035.21-.015.317-.025zM38.43 46.865c.053-.125.038-.228-.09-.307-.136-.078-.246-.042-.332.079-.079.114-.029.278.096.346.147.079.24-.003.325-.121zM38.854 45.148c-.071.143-.043.253.097.332.146.082.25.021.321-.107.071-.125.043-.24-.086-.31-.139-.08-.246-.033-.328.085zM36.62 49.59c-.144-.09-.255-.04-.333.085-.079.133-.036.258.093.333.14.082.253.017.325-.111.071-.125.035-.232-.086-.31zM42.592 39.006c-.15-.068-.26-.007-.321.125-.064.14-.007.257.129.322.135.06.246 0 .303-.122.06-.132.036-.253-.11-.321zM45.17 34.49c-.139-.09-.25-.03-.321.096-.075.136-.029.26.1.328.14.075.25.011.321-.117.068-.129.04-.236-.1-.304zM53.844 19.7c.05-.132.035-.236-.1-.31-.15-.087-.258-.022-.325.096-.075.128-.032.257.1.328.142.079.246 0 .325-.114ZM50.33 25.434c-.146-.085-.26-.039-.335.086-.079.132-.04.254.089.329.125.075.243.035.314-.086.075-.129.054-.247-.068-.332zM36.748 45.673c-.061.028-.175.053-.23.125-.074.096-.07.243.062.285.085.029.232-.003.292-.067.097-.1.054-.225-.124-.343ZM34.28 50.297c-.19-.107-.286-.065-.35.053-.057.104-.057.218.06.286.122.068.258.06.311-.075.032-.086-.01-.2-.018-.26zM55.3 12.612c.043.09.068.204.136.26.107.09.221.043.29-.078.063-.118.038-.243-.083-.29-.082-.031-.196.012-.296.022zM46.735 27.705c.042.09.06.207.128.265.104.089.243.05.282-.075.025-.086-.007-.236-.071-.29-.057-.046-.193.008-.293.018l-.05.082zM45.028 30.715c.04.093.057.215.125.268.1.082.221.046.296-.071.072-.118.047-.24-.078-.29-.086-.032-.197 0-.293.008zM41.054 38.117c-.09.047-.204.072-.261.143-.075.096-.057.221.071.29.125.067.243.035.29-.086.032-.086-.008-.2-.015-.3zM38.361 43.113c.054-.029.172-.054.229-.125.096-.122.021-.24-.093-.304-.114-.068-.21 0-.271.1-.068.118-.05.221.135.329ZM58.729 6.574c.046.09.07.204.142.26.107.083.222.03.29-.089.067-.12.028-.242-.093-.285-.086-.029-.197.018-.293.032l-.043.086zM52.708 17.057c.068.158.086.272.154.333.1.089.22.053.292-.065.079-.128.036-.253-.085-.303-.079-.032-.19.014-.361.035ZM32.241 53.657c.19.067.286.021.354-.093.075-.122.021-.229-.086-.297-.121-.078-.24-.018-.286.097-.032.082.008.196.018.293ZM58.271 8.002c-.192-.11-.289-.053-.346.06-.064.115-.043.226.09.29.124.06.242.032.285-.093.029-.085-.018-.196-.025-.253zM39.029 41.292c.043.089.064.207.132.264.1.082.221.046.29-.072.063-.117.05-.242-.08-.289-.085-.032-.196.007-.296.014q-.023.042-.046.082ZM57.025 9.57c.04.09.057.207.125.264.1.086.221.05.296-.064.075-.118.047-.24-.075-.293-.082-.036-.193 0-.293.004l-.053.085zM56.464 10.923c-.085.05-.196.082-.25.157-.071.104-.042.222.09.282.128.061.242.022.282-.1.028-.085-.022-.196-.036-.296zM43.307 33.757c.042.09.064.204.135.261.104.082.222.043.29-.075.071-.121.032-.243-.083-.29-.082-.031-.192.011-.292.022l-.047.086zM49.609 23.013c-.086.05-.197.083-.25.157-.075.104-.043.225.085.286.125.06.247.025.286-.1.029-.09-.021-.196-.032-.296q-.042-.021-.09-.043zM53.994 15.865c.1-.193.05-.29-.061-.354-.125-.071-.225-.025-.286.093-.06.115-.05.243.086.282.09.025.2-.014.26-.021ZM31.31 54.903c.042.09.063.21.135.26.1.076.221.043.289-.082.064-.121.036-.242-.086-.289-.082-.032-.196.014-.293.025q-.02.044-.046.082zM34.74 48.85c.04.09.058.208.126.268.1.09.221.043.292-.068.075-.117.043-.242-.07-.292-.08-.036-.194.003-.294.01l-.05.082zM37.719 44.259c-.19-.122-.283-.075-.354.04-.071.113-.057.224.064.295.118.068.243.043.293-.078.036-.086 0-.2-.007-.257zM30.456 56.403c.046.089.071.207.142.26.104.079.225.029.29-.089.067-.121.025-.243-.093-.286-.086-.028-.197.015-.297.029l-.042.082zM42.76 35.107c-.085.04-.2.06-.253.125-.082.104-.075.236.068.307.121.06.246.04.289-.086.029-.085-.014-.2-.025-.3q-.042-.023-.082-.046zM44.317 32.554c.09-.043.207-.064.264-.132.093-.114.04-.253-.085-.296-.075-.025-.215.021-.268.082-.079.093-.057.218.09.346ZM45.877 29.216c.04.092.058.207.125.267.097.086.222.058.293-.06.072-.118.05-.243-.071-.293-.082-.036-.197 0-.293 0q-.027.043-.054.082zM47.595 26.195c.043.089.068.2.14.26.107.093.22.04.289-.075.068-.117.039-.242-.082-.289-.086-.032-.197.01-.293.018l-.05.086zM50.48 21.503c-.09.046-.2.071-.257.143-.079.103-.05.218.075.289.125.068.243.036.286-.086.032-.085-.011-.196-.018-.296zM51.426 20.071c-.193-.11-.285-.053-.35.057-.068.118-.039.222.086.29.125.064.243.032.286-.093.028-.086-.015-.197-.022-.254ZM39.879 39.795c.042.09.064.2.132.261.103.093.221.043.289-.071.068-.115.05-.24-.079-.29-.082-.032-.192.008-.292.011l-.054.086zM35.998 47.262c-.193-.11-.29-.05-.35.06-.064.118-.036.218.093.286.128.068.242.025.282-.093.028-.085-.018-.196-.025-.253ZM54.443 14.126c.043.09.068.204.136.26.104.086.221.04.29-.074.067-.118.038-.243-.083-.29-.082-.032-.196.011-.296.022l-.047.086zM48.756 24.534c-.086.047-.197.075-.254.147-.082.103-.05.218.079.282.125.068.239.036.282-.086.028-.085-.01-.196-.022-.296q-.042-.023-.085-.047ZM41.596 36.764c.043.09.068.2.136.26.103.09.218.047.29-.07.067-.119.046-.24-.08-.287-.085-.032-.196.004-.292.011l-.05.086zM33.027 51.872c.046.085.075.196.146.253.107.09.222.036.286-.082.068-.121.036-.243-.09-.286-.085-.028-.196.015-.296.025l-.046.086zM52.198 18.496c-.09.043-.204.065-.26.133-.083.096-.065.214.063.285.122.068.24.05.29-.071.035-.082 0-.197-.008-.297zM59.589 5.056c.046.086.075.197.146.254.107.086.222.036.286-.082.068-.122.025-.243-.093-.286-.086-.028-.196.015-.293.029l-.043.085zM49.091 20.964c-.032-.082-.046-.186-.103-.236-.097-.082-.21-.029-.25.075-.025.068 0 .2.05.24.053.042.164.006.25.006q.027-.04.053-.082zM40.529 36.043c-.04-.075-.064-.2-.118-.218-.071-.022-.21.021-.243.078-.032.058.01.2.072.247.046.036.164-.014.25-.025l.042-.082zM59.232 2.564c-.075.04-.193.06-.215.118-.025.071 0 .204.058.254.082.071.203.046.239-.079.021-.079 0-.168-.007-.254-.025-.01-.05-.025-.075-.035zM58.518 4.346c-.036-.082-.05-.207-.108-.228-.067-.025-.2.014-.242.07-.032.044 0 .194.05.233.053.04.164.007.25 0l.05-.082zM56.8 7.374c-.035-.079-.053-.182-.114-.232-.093-.079-.21-.032-.243.075-.021.068.004.2.057.236.057.039.168.003.254 0l.05-.083zM35.387 45.109c-.04-.079-.06-.197-.121-.222s-.193.025-.232.082c-.032.047.007.193.057.225.06.036.168 0 .253-.007a1 1 0 0 1 .047-.082zM42.235 33.036c-.039-.075-.06-.19-.121-.218-.057-.028-.207.015-.225.061-.029.071-.004.204.05.254.043.039.164 0 .25-.011l.05-.086zM45.22 26.805c.068.14.086.236.143.282.09.068.19.047.254-.067.064-.111.035-.215-.072-.25-.071-.025-.171.018-.325.035ZM53.373 13.405c-.04-.079-.068-.204-.125-.218-.072-.021-.2.029-.243.09-.033.042.014.192.071.228.057.035.164-.007.25-.015q.023-.043.047-.082zM47.366 23.999c-.032-.082-.046-.207-.103-.229-.064-.028-.2.011-.243.068-.036.043-.004.193.046.236.054.043.165.007.25.007a1 1 0 0 0 .05-.079zM44.66 28.234c-.075.039-.193.064-.211.125-.025.071.007.203.064.25.082.067.207.039.24-.083.02-.078-.011-.171-.018-.26zM37.08 42.049c-.022-.04-.047-.154-.108-.182-.057-.025-.192.021-.228.078-.032.054-.007.193.043.236.093.078.203.057.293-.132ZM32.363 49.475c.068.136.09.24.153.282.09.061.19.029.247-.089.057-.121.007-.21-.09-.246-.067-.025-.16.025-.31.053ZM31.098 52.668c-.039-.079-.06-.193-.121-.222-.06-.028-.2.015-.232.068s0 .197.05.236c.053.043.168.004.253 0q.028-.043.05-.086zM31.78 50.897c-.039.021-.132.046-.178.107-.068.09-.054.2.06.257.104.053.193.028.25-.086.061-.114.036-.193-.135-.275zM57.664 5.846c-.04-.075-.06-.19-.125-.218-.057-.029-.186.01-.232.06-.071.08-.075.204.05.25.075.029.171 0 .257-.007q.025-.043.05-.085ZM34.12 46.483c.035.079.05.193.11.225.053.029.182-.003.236-.053.089-.082.06-.207-.036-.257-.068-.036-.172 0-.26.007q-.026.037-.05.075zM28.381 56.917c-.075.046-.182.078-.214.146-.025.057.014.186.068.229.089.075.207.039.246-.075.025-.075-.007-.172-.014-.261q-.042-.022-.082-.04zM55.804 8.58c-.075.047-.186.08-.214.147-.025.06.036.157.06.24.086-.03.204-.033.243-.093.04-.054 0-.168-.007-.254zM37.997 40.617c-.082-.132-.11-.225-.171-.268-.104-.068-.197-.01-.243.096-.046.107-.028.218.093.243.078.018.171-.032.321-.068zM54.654 10.191c.064.136.082.264.14.286.064.025.206-.029.238-.09.029-.053-.017-.192-.078-.239-.043-.036-.157.018-.304.043zM39.668 37.564c-.043-.079-.064-.193-.128-.222-.057-.025-.197.022-.229.079-.032.053 0 .196.054.236.057.039.167 0 .253-.004q.023-.043.047-.086zM53.815 11.702c.043.128.046.232.1.278.093.082.2.054.268-.06.068-.115.025-.211-.068-.254-.064-.029-.164.014-.3.036ZM52.08 14.733c.071.136.092.236.153.275.107.068.225.018.247-.107.01-.072-.033-.2-.086-.225-.064-.029-.168.025-.314.057ZM43.982 30.076c-.068-.143-.09-.257-.15-.29-.054-.028-.208.019-.222.065a.28.28 0 0 0 .057.254c.036.035.157-.011.318-.029zM50.805 17.925c-.043-.075-.072-.189-.136-.21-.06-.022-.196.028-.225.085s.007.2.06.236c.058.036.169-.01.258-.018l.046-.09zM46.524 25.474c-.04-.08-.065-.19-.129-.222-.053-.025-.203.021-.221.072-.029.07 0 .207.053.25.047.039.168-.011.254-.022.014-.029.029-.053.043-.082zM49.816 19.164c-.075.036-.172.057-.218.118-.071.09-.057.214.06.25.069.021.194-.018.233-.071.04-.057.007-.168.007-.254-.025-.014-.054-.028-.079-.043zM48.084 22.192c-.075.043-.193.072-.207.129-.022.071.043.167.068.257.078-.029.196-.036.228-.093.036-.06-.003-.168-.01-.257-.025-.01-.054-.025-.079-.036ZM42.64 31.358c.085.132.113.228.178.268.103.06.218.014.235-.107.011-.072-.035-.2-.089-.225-.064-.029-.168.028-.325.064ZM41.232 34.279c-.071.04-.182.064-.21.125-.03.064-.008.196.046.243.079.067.207.06.25-.068.025-.079 0-.175-.007-.26zM38.804 39.082c-.043-.075-.068-.193-.129-.218-.057-.025-.196.021-.228.075-.032.057 0 .196.053.235.054.04.165 0 .254-.003.018-.029.032-.057.05-.09ZM36.233 43.612c-.039-.078-.06-.193-.121-.221-.057-.029-.196.014-.229.071-.032.054 0 .197.05.236.054.04.168.004.254 0 .018-.029.032-.057.05-.082zM33.698 48.205c-.071-.143-.093-.258-.157-.29-.053-.025-.207.025-.225.075-.025.072.01.197.068.247.04.035.157-.015.314-.032ZM51.662 16.43c-.036-.08-.057-.18-.114-.233-.1-.09-.208-.028-.243.075-.025.068 0 .196.053.236.057.039.168.007.254.003zM29.392 55.678c-.04-.075-.064-.19-.125-.218-.057-.029-.182.01-.232.064-.068.075-.079.204.05.246.075.025.171-.003.257-.01.014-.029.032-.057.046-.082zM30.238 54.175c-.043-.075-.071-.19-.135-.218-.058-.025-.193.028-.222.085s.007.197.06.233c.058.035.169-.008.254-.015zM43.228 27.384c-.129.071-.225.093-.257.15-.025.043.029.132.046.203.075-.021.175-.025.222-.075.032-.035 0-.135-.008-.275zM31.306 48.843c-.058-.114-.083-.221-.126-.232a.26.26 0 0 0-.214.075c-.025.029.015.168.057.19.061.028.15-.011.282-.033ZM55.772 4.817c.042.122.064.193.089.26.082-.028.171-.038.235-.088.022-.018-.007-.165-.042-.182-.065-.029-.154 0-.282.01ZM54.379 7.738c-.128.064-.225.082-.257.136-.029.046.021.135.036.207.075-.022.175-.018.218-.068.035-.04.003-.136 0-.275zM47.442 19.857c-.065.04-.161.068-.186.125-.022.05.032.136.053.203.076-.028.168-.039.215-.089.032-.035-.004-.132-.011-.2q-.037-.02-.075-.04zM38.894 34.957c-.068.032-.168.05-.193.107-.025.054.025.143.043.215.071-.025.167-.029.21-.075.036-.04.004-.133.004-.204l-.068-.043zM42.442 29.212c-.042-.118-.057-.232-.1-.243a.25.25 0 0 0-.217.054c-.029.028-.004.171.035.196.057.032.15 0 .282-.004zM26.62 56.185c.058.11.083.218.126.225a.26.26 0 0 0 .214-.072c.025-.028-.014-.171-.057-.193-.057-.028-.15.015-.286.04zM27.817 54.557c-.125.06-.228.078-.257.135-.025.054.025.147.043.222.075-.029.171-.036.214-.09.036-.042 0-.135 0-.267ZM57.79 1.71c-.13.072-.226.094-.254.147-.025.047.028.136.046.204.075-.022.172-.025.218-.075.032-.036 0-.136-.007-.275zM29.192 51.65c.057.118.078.225.121.236.065.014.165-.022.215-.072.024-.025-.011-.167-.054-.189-.057-.029-.146.007-.282.021zM30.32 50.05c-.068.04-.16.061-.192.118-.026.047.024.132.042.2.075-.021.172-.021.215-.071.035-.04.007-.136.007-.207l-.068-.043zM33.484 44.087c.057.118.075.222.118.232a.26.26 0 0 0 .214-.064c.025-.029-.007-.171-.05-.193-.057-.028-.146.007-.282.025ZM49.309 17.122c-.06-.114-.086-.218-.129-.225a.25.25 0 0 0-.21.071c-.025.029.014.172.057.19.06.025.15-.015.285-.036zM35.526 40.977c-.132.061-.228.079-.26.132-.03.05.02.14.035.211.075-.021.175-.021.225-.068.036-.032.004-.132 0-.275ZM37.24 37.96c-.132.065-.229.082-.26.136-.03.043.02.136.035.203.075-.017.172-.017.221-.064.036-.036.008-.136.008-.275zM38.165 36.76c-.054-.118-.075-.228-.118-.239a.27.27 0 0 0-.218.068c-.025.028.007.171.05.193.057.028.15-.007.282-.022zM41.518 30.394c-.129.072-.225.097-.258.154-.025.046.029.135.047.207.075-.025.171-.032.218-.086.032-.04 0-.136-.008-.275ZM40.66 31.922c-.131.064-.228.082-.26.136-.025.046.025.132.04.203.074-.021.17-.021.217-.068.032-.032.004-.132 0-.27zM39.79 33.429c-.125.071-.222.096-.25.154-.025.046.028.135.05.203.075-.025.171-.032.214-.082.032-.04 0-.136-.014-.275ZM44.628 24.445c.05.122.06.229.103.243.065.018.172-.003.218-.053.029-.029 0-.172-.039-.2-.053-.033-.15 0-.282.01ZM36.055 39.56c.053.118.071.225.114.235.064.015.171-.017.214-.071.029-.036 0-.178-.043-.196-.06-.025-.153.01-.285.028zM48.06 18.4c.045.118.056.229.1.243a.25.25 0 0 0 .217-.05c.028-.029.003-.171-.036-.196-.053-.032-.15 0-.282.007zM49.759 15.404c.053.118.071.232.114.24a.26.26 0 0 0 .214-.076c.029-.035-.007-.178-.046-.196-.06-.028-.154.014-.282.036zM50.627 13.872c.05.125.064.232.107.243a.25.25 0 0 0 .217-.057c.029-.028 0-.168-.043-.196-.053-.032-.146 0-.282.007zM51.876 12.587c-.06-.11-.085-.218-.132-.229a.28.28 0 0 0-.214.079c-.025.032.018.175.06.193.061.025.15-.018.283-.047zM28.656 53.057c-.128.071-.225.093-.253.15-.025.05.028.136.046.207.075-.025.171-.029.218-.079.032-.035 0-.132-.011-.275zM53.59 9.57c-.053-.118-.075-.225-.118-.236-.064-.018-.167.018-.214.068-.025.029.007.168.05.193.057.028.147-.007.282-.022zM32.962 45.505c-.132.06-.232.078-.264.132-.029.046.018.14.032.21.075-.02.175-.017.222-.067.035-.036.01-.136.014-.275zM55.225 6.246c-.132.067-.225.089-.26.142-.026.043.028.133.046.2.075-.021.168-.025.214-.071.032-.036 0-.132 0-.271ZM31.755 47.13c.061.114.086.221.129.228a.26.26 0 0 0 .214-.068c.025-.028-.014-.171-.057-.193-.057-.028-.15.015-.286.033ZM56.954 3.207c-.132.064-.229.086-.26.14-.026.046.02.135.038.206.075-.021.172-.021.218-.067.036-.036.004-.136 0-.275zM52.644 10.766c-.125.075-.221.097-.25.157-.021.047.036.132.057.204.075-.029.168-.036.214-.086.032-.036-.007-.132-.021-.271zM34.659 42.488c-.126.064-.222.086-.254.143-.025.042.029.132.046.203.075-.021.172-.025.218-.075.032-.04 0-.136-.007-.271zM46.731 21.66c-.053-.118-.075-.225-.118-.236a.28.28 0 0 0-.214.065c-.025.025.007.167.046.189.057.028.15-.004.282-.018zM45.813 22.864c-.136.06-.232.075-.268.128-.028.043.018.14.032.21.075-.017.172-.014.222-.064.035-.035.01-.135.018-.275zM44.1 25.88c-.133.058-.233.072-.269.126-.028.046.018.139.032.21.08-.018.175-.018.226-.064.035-.032.007-.132.01-.271ZM37.408 34.111c-.093.043-.175.054-.2.096s.007.122.01.182c.069-.01.165 0 .2-.042.033-.04 0-.133-.01-.24zM53.647 5.424c-.082.057-.157.082-.171.125-.014.047.032.111.053.168.065-.025.147-.036.179-.082.021-.029-.032-.11-.064-.21zM54.54 3.907c-.097.046-.175.06-.2.107-.022.043.01.118.018.178.068-.01.16 0 .192-.042.033-.04 0-.129-.01-.24zM48.527 14.48c-.09.053-.172.07-.197.12-.017.037.033.112.05.169.065-.022.147-.025.182-.068.026-.032-.014-.114-.035-.222ZM45.728 19.093c.028.085.039.178.071.19.057.017.129-.022.196-.037-.017-.064-.021-.146-.06-.192-.022-.025-.115.017-.204.035zM42.607 25.32c-.036-.093-.046-.186-.086-.2-.05-.021-.142.003-.182.043-.025.028 0 .15.032.168.054.025.133 0 .232-.011zM36.536 35.636c-.089.039-.167.05-.192.092-.022.043.014.115.025.175.068-.014.15-.01.192-.053.025-.025-.01-.118-.028-.218zM50.194 11.491c-.053.029-.135.05-.153.093-.018.046.025.114.043.175.064-.022.153-.025.189-.068s.018-.129.021-.197h-.103zM49.38 12.97c-.082.046-.16.063-.182.11-.017.04.022.153.047.157.06.007.146-.014.182-.057.025-.032-.021-.118-.047-.214zM45.092 20.528c-.086.047-.164.068-.182.11-.018.044.025.115.043.172.064-.021.15-.025.185-.071.026-.029-.02-.114-.046-.214zM30.63 46.451c-.06-.1-.081-.178-.131-.207-.036-.018-.136.025-.158.068s.008.15.043.164c.054.021.129-.01.247-.025ZM38.247 32.615c-.093.046-.178.064-.193.103-.018.05.011.14.05.172.029.021.147-.007.16-.043.022-.054-.006-.129-.02-.236zM32.023 43.248c.029.086.04.182.075.19.058.017.129-.022.197-.04-.022-.064-.025-.15-.068-.189-.029-.025-.114.018-.204.036zM35.669 37.157c-.082.035-.164.05-.186.089-.021.043.018.114.032.175.065-.014.15-.014.19-.054.025-.025-.018-.114-.036-.21ZM33.973 40.16c-.093.043-.182.053-.197.093-.017.053.022.124.04.189.06-.014.153-.014.171-.05.025-.05-.007-.129-.018-.232zM33.18 41.934c-.042-.1-.06-.2-.096-.207-.057-.01-.136.025-.179.068-.021.018.011.14.04.15.057.022.132-.004.235-.014zM39.964 29.59c-.09.04-.171.05-.193.093-.021.04.018.115.032.175.065-.014.15-.014.19-.053.025-.029-.01-.118-.029-.214ZM41.69 26.577c-.097.04-.186.05-.2.09-.022.05.017.124.031.188.061-.014.154-.007.175-.042.029-.047 0-.129-.003-.236zM43.385 23.545c-.085.043-.168.057-.185.1-.018.047.025.115.039.175.064-.018.146-.021.186-.064.025-.025-.022-.114-.043-.21zM24.604 57.035c-.033-.09-.043-.186-.08-.2-.053-.018-.142.01-.181.053-.022.022.01.14.05.165.043.025.118-.008.21-.018ZM52.812 6.924c-.086.046-.165.064-.186.11-.018.04.025.111.043.168.064-.021.15-.021.185-.064.025-.032-.017-.118-.039-.214zM28.817 49.2c-.09.058-.168.083-.19.136-.017.04.033.111.05.165.065-.026.15-.033.186-.079.026-.029-.02-.114-.046-.225zM46.82 17.507c-.086.036-.168.047-.19.09-.02.042.019.117.03.178.064-.014.15-.014.189-.053.025-.025-.015-.115-.032-.215zM51.972 8.441c-.092.04-.182.054-.196.093-.018.05.021.125.036.19.06-.015.153-.011.171-.047.029-.05 0-.128-.01-.232zM28.042 51.004c-.04-.1-.05-.193-.09-.207-.053-.018-.131.01-.185.046-.018.01.004.136.036.15.053.025.128.007.24.01ZM51.08 9.941c-.086.064-.16.097-.182.147-.015.039.043.15.068.15.06 0 .142-.033.175-.083.021-.032-.029-.11-.061-.214ZM26.342 54.003c-.053-.103-.071-.182-.118-.21-.032-.022-.139.017-.16.057-.022.039 0 .15.035.167.05.025.129 0 .243-.01zM27.103 52.253c-.082.04-.164.05-.186.093s.018.118.029.179c.068-.018.15-.018.193-.06.025-.026-.018-.115-.036-.212ZM29.756 48.004c-.047-.114-.06-.192-.104-.235-.021-.022-.132.003-.15.035-.025.043-.025.147.008.168.046.032.128.018.246.032ZM25.407 55.267c-.093.04-.171.046-.193.086-.021.043.008.118.015.178.068-.014.15-.01.196-.046.025-.021-.007-.114-.018-.218ZM44.32 22.289c-.046-.086-.064-.175-.103-.186-.05-.014-.118.036-.178.06.021.054.032.14.071.158.043.021.118-.015.21-.033ZM55.375 2.404c-.082.042-.16.06-.178.1-.018.046.025.114.039.17.064-.017.146-.02.186-.063.021-.025-.022-.111-.047-.207ZM40.829 28.066c-.093.05-.172.064-.193.11-.022.04.007.143.04.161.042.021.156.004.167-.025.025-.053-.004-.132-.014-.243zM39.111 31.112c-.086.035-.168.046-.19.089-.02.043.011.118.022.178.068-.014.15-.007.193-.046.029-.025-.01-.118-.025-.218zM31.156 44.755c.036.093.046.186.082.197.053.017.128-.018.193-.033-.018-.06-.018-.142-.057-.171-.036-.029-.115 0-.215.007zM34.894 38.903c-.036-.09-.043-.172-.082-.197-.043-.025-.118.011-.179.022.015.064.007.15.047.19.028.028.117-.004.214-.015ZM47.43 16.076c.04.089.05.178.086.189.054.018.125-.021.19-.036-.018-.06-.022-.143-.061-.171-.036-.025-.114.007-.214.018Z"/></g><path fill="#000" d="M49.559 12.526c.882.99 1.985 1.725 2.87 2.71.054.061.115.118.165.182-.1-.124-.047-.05.007.033.114.185.235.371.364.546.196.264.432.51.657.75q.15.153.307.307c.079.078.154.164.24.236.124.11-.036-.09.006.02.115.305.297.612.486.876.4.56.682 1.164 1.021 1.764.172.303.425.525.622.81.17.25.22.575.335.857.229.572.596 1.082.814 1.653.072.19.136.382.207.572.068.178-.014-.125 0 .025.011.103.036.21.054.314.064.375.164.7.293 1.057l.353.971c.047.129 0 .146.011.029-.004.071 0 .142 0 .21 0 .2-.036.429-.007.629.021.15.1.314.146.457.04.114.075.225.114.339.043.128.022.16.011.043.032.318.107.632.114.953.008.34-.003.654.061.986a18 18 0 0 1 .21 1.328c.008.071.05-.171-.006-.007-.072.203-.104.453-.136.668-.05.32-.046.692-.018 1.017.01.129.043.254.064.382.022.118.036.243.068.36.036.13 0 .172.029.04-.064.346-.197.671-.2 1.025v.61c0 .143-.014.161 0 .04q-.02.133-.04.268-.026.177-.05.36c0 .029-.039.26 0 .11.04-.15-.05.1-.067.137l-.154.342c-.275.61-.442 1.44-.314 2.107.04.193.104-.21.029-.121-.047.057-.075.185-.104.253-.064.16-.125.322-.193.479-.136.307-.328.603-.418.928-.05.186-.085.382-.128.571-.007.032-.075.29-.025.143.046-.136-.047.086-.068.129q-.23.49-.46.982c-.286.603-.5 1.228-.804 1.824q-.081.16-.175.314l-.16.282c-.058.1-.208.247-.03.065-.21.218-.392.475-.585.714a14 14 0 0 0-1.203 1.75q-.082.137-.157.275c-.05.092-.157.185.003 0-.135.15-.26.314-.392.467-.04.05-.104.104-.133.157.111-.196.097-.096-.017.011q-.23.216-.461.436c-.143.139-.24.296-.343.464-.085.136-.303.368-.328.528.018-.107.318-.328.089-.15-.082.065-.16.136-.24.204-.142.121-.285.24-.417.378q-.197.211-.39.422c-.05.057-.11.11-.156.171.128-.164.085-.086-.032.022-.258.235-.508.467-.779.685-.082.064-.168.125-.246.197-.225.203.086-.068.196-.086-.186.028-.403.175-.575.25-.453.196-.721.478-1.042.839-.05.053-.118.114-.157.175.075-.125.396-.272.125-.136-.193.096-.383.21-.572.314-.253.143-.514.282-.764.436-.25.153-.493.35-.757.49-.293.153-.603.267-.896.428q-.439.24-.871.496c-.09.053-.186.103-.272.164-.242.16.043-.057.182-.036-.192-.032-.457.05-.65.072-.653.071-1.3.414-1.899.671l-.396.172c-.093.039-.19.075-.279.12-.203.105.107.022-.004.019-.339-.01-.76.078-1.078.196-.186.068-.396.129-.568.222-.157.085.097.014.047 0-.082-.025-.25.039-.332.053-.104.018-.207.029-.31.05-.158.032-.15.014-.015.018a39 39 0 0 0-.64-.018c-.37-.01-.717.06-1.085.107-.3.04-.607.04-.907.086-.171.029-.343.082-.51.125q-.157.036-.318.079c-.34.092.01-.05.121 0-.267-.122-.764-.09-1.06-.083q-.302.007-.604.018c-.11-.043-.167.004 0 0-.085-.032-.192-.032-.282-.05a6.4 6.4 0 0 0-1.039-.103c-.364-.008-.675-.065-1.017-.1-.065-.008-.272-.047-.015.007a3 3 0 0 1-.2-.05c-.196-.05-.392-.104-.592-.147-.165-.035-.322-.042-.49-.053a10 10 0 0 0-.32-.018c-.126-.004-.254-.029-.065.014-.34-.078-.668-.196-1.01-.267-.318-.068-.633-.143-.954-.175-.146-.015-.471-.115-.604-.061.086-.036.347.178.104.014-.1-.068-.207-.125-.31-.19-.183-.11-.347-.228-.554-.274-.179-.04-.368-.05-.55-.075q-.128-.015-.257-.036c-.032-.003.132.082.025-.018-.15-.135-.407-.228-.59-.317-.531-.272-1.106-.486-1.656-.718q-.268-.11-.543-.221c-.064-.026-.132-.05-.192-.079.214.1-.004-.025-.068-.072a7 7 0 0 0-.914-.606c-.104-.058-.211-.111-.315-.168-.082-.043-.171-.143-.021-.011-.154-.136-.318-.257-.475-.386-.253-.203-.543-.35-.803-.542-.247-.183-.418-.454-.665-.636-.257-.193-.617-.293-.91-.425l.2.164c-.168-.257-.321-.624-.553-.824s-.618-.307-.897-.443l.2.164c-.343-.425-.668-.86-1.014-1.285-.178-.218-.41-.404-.632-.579-.196-.153.025.082-.096-.09q-.168-.229-.347-.453c-.324-.42-.764-.76-1.135-1.146-.054-.053-.104-.11-.16-.164-.104-.1-.008 0 0 .004l-.311-.415a8 8 0 0 1-.432-.653 1.7 1.7 0 0 0-.547-.586c-.132-.093-.26-.185-.393-.275-.064-.042.072.136.022.018-.036-.082-.082-.164-.125-.246-.132-.257-.24-.471-.44-.682-.117-.122-.231-.247-.35-.368-.024-.025-.139-.157-.06-.057s-.053-.086-.075-.118c-.603-.871-1.196-1.746-1.717-2.663a15 15 0 0 0-.897-1.393c-.096-.136-.2-.268-.3-.4-.035-.05-.075-.129-.125-.168-.107-.086-.007.05-.025.014-.12-.289-.15-.614-.274-.903-.225-.521-.582-.932-.911-1.382-.157-.218-.293-.453-.457-.664-.06-.078.036.147.01.047q-.024-.11-.039-.218c-.035-.182-.057-.372-.103-.55-.125-.507-.521-1.05-.757-1.521-.236-.472-.514-.918-.718-1.421-.203-.504-.328-.957-.589-1.418a9 9 0 0 1-.34-.671c-.056-.122-.117-.243-.167-.368.046.118.029.1.014 0-.014-.1-.039-.2-.057-.3-.1-.532-.26-1.05-.457-1.557a50 50 0 0 1-.296-.778c-.061-.172-.129-.34-.186-.51-.036-.108.04.146.014.035l-.064-.275a16 16 0 0 0-.493-1.607l-.171-.471c-.014-.104-.046-.125 0 0-.007-.068-.021-.136-.029-.204-.042-.278-.067-.553-.16-.817q-.085-.234-.175-.468c-.025-.068-.057-.136-.075-.204-.011-.046 0 .143.021 0 .036-.235-.021-.553-.053-.789-.036-.264-.125-.525-.157-.789-.033-.264-.004-.55-.022-.821a11 11 0 0 0-.214-1.632c0 .007-.025.16 0 .022.014-.068.018-.14.028-.207.022-.172.054-.343.068-.515.025-.289-.028-.585-.046-.875-.014-.257 0-.51.007-.767q-.001-.085.004-.172c-.008.086-.018.147.007.036.039-.182.046-.375.071-.56.064-.5.268-.975.35-1.475.046-.286.057-.55.05-.843 0-.05.029-.436-.01-.46.07.05-.15.339-.011.182.057-.068.096-.183.135-.261.132-.253.247-.482.322-.76.042-.161.121-.347.139-.515.021-.2-.047.147-.104.179.043-.022.09-.132.115-.172.171-.26.392-.528.489-.828.046-.15.085-.3.132-.446.021-.079.057-.161.071-.243.043-.229-.171.21-.085.153.189-.125.328-.47.47-.657.169-.217.358-.428.537-.635.178-.207.374-.407.539-.625.082-.107.157-.229.232-.34.071-.106.389-.467.103-.231-.285.235.136-.057.222-.111.118-.071.239-.143.353-.221.232-.15.46-.307.686-.461.225-.154.575-.4.725-.636.082-.128-.172.086-.068.04.057-.029.114-.068.168-.104.053-.036.478-.243.478-.293 0 .015-.228.068-.06.036.067-.014.135-.04.2-.06.164-.05.335-.093.496-.154a3.5 3.5 0 0 0 .853-.46c.132-.1-.157.05-.064.02.06-.017.121-.046.182-.07.171-.069.343-.147.521-.2.257-.083.532-.111.79-.194.285-.089.574-.289.813-.464.311-.221-.435.06-.064.007.179-.025.357-.064.532-.1a42 42 0 0 1 1.625-.264c.293-.043.568-.132.853-.218.068-.021.157-.032.222-.067.142-.079-.25.021-.24.028.125.064.39.043.525.057a4.7 4.7 0 0 0 1.74-.16c.153-.043.324-.068.467-.129.193-.082-.375-.014-.225.025.071.018.182 0 .253 0 .258 0 .504 0 .757.043.325.057.629.146.954.064.275-.071.55-.16.821-.24l-.468.012c.272.071.543.15.818.21.307.068.625.025.94.036.542.018 1.074.064 1.62.057s1.003 0 1.532.1c.064.01.125.025.19.036.013 0-.197-.043-.033-.007q.258.057.518.114c.275.06.532.09.81.107.086.007.518.071.243-.004.146.04.286.097.429.143.271.09.51.154.792.182.25.025.504.054.754.072.171.014.357.05.532.043.118-.004.043-.008-.043-.022.075.01.15.032.225.05.55.122 1.053.375 1.6.482q.276.054.56.107.075.014.15.029c-.16-.04-.096-.022.007.018.272.096.55.2.836.257q.246.046.492.09.102.017.204.035c.168.028-.075-.036-.018 0 .21.136.507.228.746.31.518.179 1.068.293 1.6.418s1.086.197 1.593.368.978.464 1.474.657c1 .39 1.957.857 2.985 1.185.486.158.932.465 1.397.675q.115.054.232.107c.142.061-.09-.057-.018-.014l.425.268c.239.15.482.286.732.421.457.247.939.41 1.403.636.228.11.453.221.685.325.161.075.322.157.486.221.118.047.01.029-.029-.021q.072.08.143.16c.197.218.357.461.632.572.168.068.343.118.515.175q.086.026.17.057c.03.01-.088-.11-.017.01.26.454.9.843 1.35 1.072.25.128.514.228.767.343.547.242 1.514-.693.807-1.007-.214-.097-.424-.2-.642-.286l-.1-.043c-.115-.05.15.093.039.025a14 14 0 0 1-.382-.25c-.34-.218-.543-.56-.86-.792-.18-.13-.436-.175-.64-.247-.089-.028-.193-.05-.275-.093.222.114-.039-.1-.096-.164-.157-.171-.297-.371-.496-.486-.2-.114-.436-.196-.65-.296-.718-.332-1.454-.625-2.15-1-.075-.039-.296-.178-.107-.053q-.12-.074-.24-.154c-.196-.125-.392-.26-.6-.368-.402-.203-.81-.375-1.206-.592-.678-.372-1.471-.507-2.164-.864-.742-.383-1.553-.6-2.303-.968-.7-.346-1.496-.446-2.253-.632-.435-.107-.878-.207-1.307-.343-.357-.114-.682-.318-1.05-.39-.239-.045-.478-.085-.717-.131-.136-.025.182.071-.032-.018-.14-.06-.293-.096-.44-.146a4 4 0 0 0-.546-.143q-.209-.042-.418-.079l-.142-.028c-.204-.036.089.042.007 0-.747-.429-1.693-.493-2.525-.572-.207-.018-.418-.043-.625-.064-.082-.007-.335-.071-.082.007-.118-.036-.232-.078-.35-.118-.428-.142-.87-.26-1.328-.225-.2.015.164.047-.029.008q-.18-.04-.364-.079c-.196-.043-.396-.09-.593-.129a5.8 5.8 0 0 0-1.356-.128c-.8.018-1.59-.054-2.385-.054-.104 0-.211-.007-.315 0 .236-.01-.007-.003-.121-.035-.247-.065-.536-.179-.796-.179-.261 0-.547.129-.786.196-.071.022-.229.036-.282.083.386-.318.393.017.253-.05-.06-.029-.164-.029-.228-.04a7 7 0 0 0-1.285-.1 2.3 2.3 0 0 0-.625.1l-.429.118c-.046.014-.093.022-.14.04-.095.035.219.003.058-.022-.225-.04-.514.057-.743.064.232-.01.05-.014-.071-.025-.16-.018-.318-.039-.479-.053a1.7 1.7 0 0 0-.617.068c-.129.035-.254.078-.382.114-.068.021-.136.036-.2.06-.104.04-.11-.028.071-.01-.403-.032-.91.118-1.31.196-.429.082-.896.114-1.31.254-.23.075-.44.246-.643.371-.075.047-.182.093-.247.154.2-.182.182-.047.09-.054-.072-.007-.18.043-.247.057-.436.104-.835.24-1.25.41-.228.097-.439.23-.653.35-.054.033-.11.058-.16.094-.119.078-.09-.008.074-.025-.103.01-.214.064-.314.096-.493.15-.885.353-1.321.636a3.2 3.2 0 0 0-.468.385c-.09.082-.196.16-.275.254-.121.143.207-.125-.046.046-.386.257-.775.504-1.168.754s-.571.624-.86.996c-.268.346-.579.667-.86 1.003a8 8 0 0 0-.697.928c-.15.243-.207.525-.286.8-.018.065-.1.215-.082.275-.14-.482.2-.307.107-.228-.057.046-.1.15-.14.214-.124.19-.288.382-.385.59-.107.224-.146.495-.21.731-.025.097-.133.293-.015.082q-.068.13-.132.254c-.128.243-.289.478-.307.757-.014.221.007.453.014.675v.146c0 .125.022-.175 0-.046l-.075.45c-.064.385-.217.742-.3 1.124a7.3 7.3 0 0 0-.074 2.51c.032.222.039-.103 0 .068-.025.122-.033.25-.05.372-.029.2-.061.392-.043.596.046.443.132.882.178 1.325.036.36.007.728.05 1.089.05.432.164.832.19 1.267.028.464.21.81.342 1.253.036.115-.035-.164-.021-.042.003.035.014.071.014.103.01.129.04.26.057.39.029.196.068.364.132.553.157.446.318.892.465 1.346.06.186-.022-.136.014.068.021.132.064.264.093.396.05.204.103.4.175.596.157.436.307.886.492 1.31.082.19-.035-.128.025.062q.066.213.136.428c.057.179.1.343.136.525.093.49.225.871.435 1.325.147.307.354.589.486.9.175.407.29.846.457 1.26.143.353.353.66.536.996.207.39.389.79.603 1.175.05.093.107.182.154.275-.1-.2-.008.032.007.11.043.24.057.533.157.754.16.35.471.686.707.989.268.346.453.703.678 1.082-.107-.179 0 .01.029.1l.118.393c.057.196.11.346.235.507.275.367.55.735.804 1.12.446.683.789 1.404 1.27 2.061.515.7.911 1.421 1.515 2.057.068.071.157.253.071.068.04.085.086.171.129.257.1.196.178.439.339.593.16.153.393.3.578.403.04.021.079.054.115.082-.057-.043-.097-.118-.054-.057.082.11.146.24.221.357.45.732 1.007 1.357 1.636 1.939.09.082.175.178.271.253.15.115-.075-.124.032.029.14.2.29.4.447.586.135.164.307.292.468.432q.123.107.246.21c-.175-.146.046.068.103.143q.376.49.765.968c.257.318.689.471 1.07.657l-.2-.164c.161.25.304.564.515.774.232.236.636.297.921.457-.064-.035-.09-.085-.032.008.046.075.146.146.207.207.107.107.21.232.329.328.217.175.482.29.707.454s.425.371.653.528c.129.086.279.154.414.225l.25.136c.032.018.24.15.132.071-.107-.078.032.036.061.057.082.068.168.129.253.193.118.09.233.19.361.264.26.15.564.236.84.35.51.215 1.042.418 1.542.66.271.133.525.336.814.419.143.042.303.046.453.067.093.015.19.029.282.04.343.035-.046.042-.064-.065.01.058.35.211.396.24.14.085.293.207.45.264.3.11.668.068.979.114.114.018.225.047.339.072l.278.057c.033.007.29.068.143.028-.146-.039.036.014.072.025l.303.086c.143.04.286.09.436.118s.3.028.45.04q.139.01.278.017c.057 0 .325.029.05-.018.318.05.629.171.947.229.564.103 1.106.078 1.67.132.333.032.65.142.986.142.125 0 .254-.007.379-.01q.138-.001.278-.007c.154-.004.2.039.036 0 .289.068.689.121.989.085.164-.017.339-.082.5-.125l.282-.071c.06-.014.289-.036.132-.032s.014.007.06.007c.09-.004.18-.018.272-.025.14-.014.282-.021.421-.04q.225-.028.45-.067c.086-.014.172-.018.257-.04.207-.046-.035-.014 0-.01.647.046 1.343.04 1.968-.15.135-.043.264-.104.396-.154.086-.032.175-.06.257-.1.168-.075.118-.01-.003-.017.282.021.71-.058.985-.147.529-.171 1.036-.46 1.55-.664.15-.06.307-.114.46-.168.075-.028.161-.05.233-.085.17-.083-.161-.004-.022 0 .336.014.843-.05 1.143-.204.5-.26.96-.59 1.464-.843.25-.125.517-.214.76-.353.243-.14.471-.322.714-.471.547-.333 1.264-.583 1.718-1.036.2-.204.382-.428.571-.64l-.443.304c.422-.182.864-.335 1.229-.617.328-.258.639-.522.942-.804.282-.264.69-.582.879-.914-.008.01-.154.132.017 0q.155-.125.304-.26c.19-.161.346-.315.479-.525.12-.193.274-.39.37-.593.097-.204-.313.307-.106.143.118-.097.221-.211.332-.315.307-.289.596-.6.85-.939.114-.153.203-.328.3-.492.06-.108.128-.215.189-.325.086-.165-.125.182.04-.065.228-.346.456-.674.717-1 .485-.606.942-1.178 1.289-1.881.346-.703.625-1.446.964-2.16.16-.343.346-.679.439-1.047.054-.217.093-.435.146-.653-.032.14-.039.096.022-.021.075-.14.14-.29.207-.432.16-.333.343-.693.436-1.05.053-.215.025-.457.021-.682 0-.114-.01-.232-.007-.35s-.018.146 0 .068q.02-.093.04-.186l.081-.393c.011-.043.064-.285.022-.143-.043.143.064-.132.082-.171.06-.136.125-.271.182-.407.154-.364.207-.782.228-1.175.011-.203 0-.41 0-.614 0-.093-.01-.193 0-.286-.028.268.05-.11.065-.167.046-.197.125-.4.132-.604.007-.228-.075-.471-.118-.696a2.3 2.3 0 0 1-.043-.436v-.403c0-.114.036-.286-.003-.107.096-.425.189-.81.132-1.243-.057-.432-.136-.814-.207-1.225-.057-.335-.008-.674-.036-1.014a5.2 5.2 0 0 0-.25-1.21 15 15 0 0 1-.125-.379c-.01-.032-.029-.067-.032-.103-.018-.118.018.16.028.043.018-.236.029-.497.008-.729-.029-.346-.218-.703-.336-1.032q-.114-.315-.229-.625c-.014-.042-.035-.085-.046-.128 0 0 .043.168.028.071-.02-.139-.05-.278-.07-.418-.137-.774-.486-1.396-.83-2.092-.185-.375-.342-.75-.481-1.143-.054-.153-.097-.296-.186-.428-.136-.2-.325-.36-.468-.557-.442-.61-.689-1.339-1.128-1.953-.221-.31-.343-.671-.557-.986s-.536-.539-.786-.817c-.142-.161-.296-.318-.432-.486-.075-.093.097.136.036.032-.018-.032-.04-.057-.06-.089-.083-.136-.18-.268-.265-.4-.214-.325-.49-.621-.76-.896-.543-.546-1.172-1.01-1.757-1.507-.272-.232-.497-.51-.732-.778-.397-.447-1.51.35-1.043.874z"/><path fill="#20201F" d="M10.589 33.75q-.184-.25-.361-.5c-.04-.057-.082-.11-.121-.167.175.246-.03-.086-.065-.168-.05-.11-.096-.229-.153-.336-.097-.178-.022-.003-.025-.021-.072-.225-.118-.457-.182-.686-.097-.353-.29-.668-.443-1-.175-.378-.322-.746-.557-1.092-.075-.107-.143-.222-.222-.329-.157-.21.029.004.025.122.011-.218-.132-.518-.189-.732-.046-.168-.11-.318-.178-.479-.054-.121-.097-.253-.161-.371-.09-.171.014.143-.021-.05-.158-.832-.547-1.568-.732-2.392.06.27 0-.061-.011-.111l-.072-.375a2.8 2.8 0 0 0-.164-.557l-.143-.357c-.028-.072-.089-.31-.039-.064-.05-.233-.075-.472-.121-.704a8 8 0 0 0-.268-1.067c-.068-.204-.136-.418-.225-.611-.121-.26.021.046-.01.086.046-.058.024-.261.031-.34.022-.214.072-.446.029-.66-.043-.225-.143-.447-.21-.66-.011-.036-.036-.186-.065-.197.157.064-.004.371.04.157.006-.043.006-.104.006-.143.015-.24.036-.478.04-.714.003-.793-.025-1.589-.032-2.382 0-.164-.047.118.039-.11.046-.122.075-.254.11-.379.054-.175.093-.339.122-.521.078-.496.225-.864.393-1.335.075-.211.139-.425.203-.64.01-.035.022-.075.036-.11.043-.115-.068.128-.007.032q.123-.194.246-.382c.247-.382.322-.775.432-1.214l-.136.196c.233-.193.575-.386.747-.632.171-.246.253-.625.368-.907.21-.518-.986-1.185-1.24-.557l-.32.796.135-.196c-.314.26-.714.486-.832.89-.064.22-.093.453-.171.67.067-.196-.043.032-.086.1q-.115.177-.229.354c-.2.332-.268.714-.4 1.078-.157.429-.296.771-.367 1.221-.061.382-.229.743-.286 1.122-.057.378 0 .839.004 1.242 0 .44.014.878.025 1.321v-.071c0 .05-.008.1-.011.153q-.015.211-.025.422c-.014.221-.01.403.057.617.046.15.1.543.21.65-.035-.035.011-.339-.039-.078-.028.153-.032.317-.046.475-.043.453.14.825.296 1.242-.068-.178-.01-.032.018.082l.093.372c.046.185.079.364.11.553.083.471.208.89.404 1.328.057.129-.025-.182.01.058.019.121.047.242.069.364.039.207.085.407.143.61.124.44.253.86.446 1.275.103.222-.004-.086.025.054l.075.335c.046.215.086.425.168.632.085.222.185.44.282.657-.107-.235.007.032.028.111.04.146.075.296.115.443.064.25.17.432.314.646.085.125.164.26.257.379.125.157-.072-.19.025.053.182.454.396.914.632 1.343-.086-.154-.004-.033.028.1q.059.228.122.457c.057.217.136.407.228.614.207.453.465.825.754 1.228.178.25.553.493.875.4.32-.093.303-.421.139-.646zM16.276 42.038c-.446-.7-.892-1.378-1.417-2.025-.222-.275-.375-.596-.575-.885-.236-.34-.5-.664-.768-.979-.089-.107-.175-.242-.282-.332-.06-.053-.018-.028-.003.007q-.022-.062-.043-.132-.117-.36-.232-.721c-.125-.39-1.471-.09-1.368.229.122.37.19.781.443 1.081.296.35.575.7.853 1.065.218.289.375.617.586.91.24.332.518.632.75.975.26.385.51.775.76 1.164.197.31 1.518-.01 1.296-.36z"/><path fill="#F89A1C" d="m45.552 21.435.515.696.61.56.632.547.622.572.507.667.535.654.346.77.49.69.178.84.429.727.257.797.282.793.16.824-.057.854.325.807-.021.842.014.84-.157.828-.196.814-.068.832-.182.814-.079.85-.286.793-.446.724-.371.75-.482.686-.425.714-.518.653-.414.736-.69.503-.588.582-.6.579-.66.507-.643.528-.668.518-.81.254-.704.467-.807.232-.796.247-.779.3-.846.032-.786.382-.846-.025-.835-.068-.836.179-.835-.075-.818-.215-.807-.196-.825-.125-.782-.293-.771-.303-.764-.318-.76-.332-.833-.232-.71-.454-.679-.5-.568-.632-.624-.557-.625-.557-.582-.607-.507-.671-.382-.753-.465-.693-.5-.686-.242-.81-.34-.764-.196-.814-.214-.804-.357-.778-.04-.843-.1-.828-.135-.836.01-.843.176-.828.046-.835.068-.843.386-.771.128-.832.293-.786.414-.728.29-.79.356-.763.607-.604.475-.682.372-.778.66-.532.529-.66.628-.561.782-.354.678-.482.593-.632.779-.325.803-.254.736-.41.807-.225.81-.204.803-.242.825-.161.836-.086.839.079.828.082.832.025.84-.007.82.157.793.271.847.082.764.35.796.272.764.35.725.428.59.625z"/><path fill="#000" d="M45.038 21.31c.25.34.482.71.793 1q.433.406.889.796c.286.247.553.51.839.757.16.136-.107-.171 0 .011.064.104.154.2.229.296q.14.187.285.368c.14.171.271.357.422.518.17.182-.133-.314-.054-.079.04.118.103.232.153.347.172.382.372.717.633 1.05.114.142.014 0 .02.028.026.11.05.225.072.336.043.2.072.396.161.578s.207.354.31.529c.033.057.136.296.058.089.032.09.057.182.09.271.124.382.253.757.388 1.136.047.132.075.25.104.385l.071.36c.015.069.029.33.032.169-.007.371-.11.728.015 1.082.078.214.196.421.257.639-.025-.093-.004-.018-.011.078-.01.157-.007.318-.01.475-.008.347.035.704.007 1.046-.025.318-.115.643-.183.954-.171.75-.26 1.503-.4 2.26-.025.143-.035.282-.05.425-.01.118-.028.24-.032.36 0 .04-.003.086-.01.122-.004.032.028-.093 0 .01-.108.38-.261.725-.465 1.058-.203.332-.37.667-.55 1.014-.153.293-.37.542-.55.82-.21.33-.381.665-.624.969s-.504.632-.657 1.003a.7.7 0 0 1-.068.121s.086-.071.025-.014c-.075.079-.19.14-.275.2-.15.107-.31.21-.45.332-.286.246-.543.54-.814.803-.529.511-1.125.954-1.7 1.41-.171.137-.342.269-.514.404-.028.022-.064.057-.096.075-.057.032.1-.053.003-.018-.107.04-.218.068-.325.1-.153.047-.325.083-.467.154-.207.107-.382.271-.582.39-.275.16-.61.21-.918.303-.357.107-.71.214-1.06.346-.122.046-.25.09-.368.143-.082.036-.168.053-.068.04-.24.035-.49.01-.732.024a.9.9 0 0 0-.386.118l-.343.168c-.05.025-.335.132-.153.103-.325.054-.721-.017-1.053-.046a4 4 0 0 0-1.257.078c-.082.018-.168.043-.254.054-.11.014.125 0 .014-.01a.5.5 0 0 1-.107-.011c-.225-.036-.453-.025-.678-.061.236.036-.054-.029-.1-.04l-.318-.081q-.24-.066-.485-.125c-.411-.1-.807-.179-1.222-.243-.042-.007-.292-.04-.142-.01.15.028-.097-.04-.133-.05l-.578-.215c-.746-.286-1.471-.61-2.21-.914-.34-.14-.707-.218-1.06-.318l.446.218c-.311-.197-.622-.39-.918-.607l-.296-.218c-.282-.207-.036-.132.078.096-.1-.2-.346-.396-.5-.56-.25-.272-.535-.504-.81-.747-.16-.142-.322-.289-.482-.428-.111-.096-.168-.15-.025-.01a9 9 0 0 1-.254-.265c-.082-.09-.168-.193-.26-.271-.158-.129.1.146-.026-.015-.142-.185-.303-.37-.428-.567-.175-.272-.286-.582-.457-.857a18 18 0 0 0-.714-1.032c-.057-.082-.118-.16-.175-.243-.068-.096.053.15.018.036l-.032-.104a5 5 0 0 0-.204-.668c-.125-.332-.307-.628-.39-.974-.1-.418-.2-.836-.317-1.246a3 3 0 0 0-.168-.433q-.074-.167-.153-.335a2 2 0 0 1-.06-.132c-.044-.1.013.125 0 .017-.062-.382-.037-.789-.083-1.174-.09-.74-.279-1.471-.164-2.221.064-.414.16-.786.182-1.203.021-.383.007-.804.085-1.179.022-.1-.028.075-.007.01.011-.035.04-.078.058-.11.064-.118.12-.243.182-.364.075-.146.139-.271.171-.432.05-.232.06-.475.11-.707.018-.079-.01.014-.014.025.011-.043.032-.086.047-.128l.139-.372c.132-.357.353-.657.514-1.003.15-.322.232-.672.382-.993.082-.178.15-.4.26-.56.112-.161.308-.308.454-.45a4 4 0 0 0 .636-.85c.207-.36.271-.693.6-.957.357-.286.585-.564.882-.914.09-.107.19-.197.296-.29.1-.089.2-.174.297-.264.021-.021.053-.053.078-.071.068-.047-.082.05.029-.007.403-.207.764-.354 1.135-.618.343-.246.575-.568.893-.84.06-.053-.018.008-.025.012.036-.022.09-.04.128-.054.125-.043.247-.104.368-.153.14-.058.275-.111.414-.158.418-.135.757-.26 1.14-.474.335-.19.689-.272 1.06-.368.742-.197 1.474-.418 2.228-.564.05-.011.307-.054.129-.029q.123-.015.246-.025c.193-.021.396-.057.589-.057.371 0 .753.068 1.121.104.425.042.843.067 1.271.074h.85c.182-.01-.14-.042.082.004s.45.118.668.129c.118.007-.157-.054-.075-.029q.06.016.114.04.226.077.447.153c.382.132.867.243 1.27.21.111-.007-.206-.035-.21-.053 0 .01.118.053.125.057.104.057.218.1.325.146.15.068.293.133.446.19.397.139.768.278 1.15.453.086.04.175.075.26.118-.296-.15-.014.007.047.043l.536.314-.418-.332c.268.286.532.632.853.86.322.229.76.325 1.136.454.203.068.468.121.425-.168-.036-.26-.493-.557-.714-.632l-.829-.282.572.407c-.34-.36-.654-.746-1.086-1.003a11 11 0 0 0-1.146-.614c-.4-.183-.782-.297-1.175-.454-.357-.14-.693-.368-1.075-.425a7 7 0 0 0-.689-.068c-.028 0-.075-.014-.107-.01-.153.01.304.132.182.046-.093-.064-.253-.086-.357-.121a8.6 8.6 0 0 0-1.271-.325c-.35-.06-.707-.022-1.06-.025a14 14 0 0 1-1.275-.068c-.764-.075-1.471-.136-2.232 0-.76.136-1.553.378-2.328.582-.321.086-.668.146-.96.303-.404.211-.729.379-1.165.515-.332.103-.735.214-1.024.403-.172.11-.31.31-.447.457-.064.068-.125.14-.189.204.068-.065-.085.067-.15.114-.389.278-.76.436-1.182.657-.285.15-.56.418-.778.653-.29.308-.49.625-.818.89-.121.096-.285.192-.375.317-.139.197-.207.46-.321.675-.16.296-.364.604-.596.85-.158.164-.357.31-.493.49-.114.15-.179.349-.26.524-.162.34-.254.707-.411 1.046s-.368.607-.493.943c-.154.41-.257.76-.325 1.196-.014.093-.018.193-.043.282.04-.14-.064.104-.078.136-.1.203-.254.421-.308.646-.078.332-.06.714-.082 1.057a8 8 0 0 1-.171 1.268c-.157.732.043 1.464.128 2.188.05.418.058.832.093 1.254.029.35.265.646.382.975.14.396.222.828.322 1.239.1.41.267.717.41 1.092.129.34.168.721.368 1.029.222.339.475.657.7.996.432.642.721 1.331 1.246 1.917.56.625 1.207 1.221 1.86 1.75.008.003-.146-.16.011.018l.268.3c.157.175.303.339.496.482q.503.384 1.04.724c.45.29.87.45 1.381.593.086.025.314.136.086.018.093.046.193.086.29.125.174.078.349.157.528.228.753.318 1.531.686 2.32.907.368.104.758.115 1.129.208.418.1.828.217 1.246.317.371.09.818.157 1.196.115.193-.022.39-.082.582-.122.047-.01.29-.046.207-.046s.197.025.247.028c.432.032.867.075 1.3.068.157 0 .246-.04.385-.11l.378-.186a4 4 0 0 1 .165-.082c.089-.04-.118.014-.018-.008.428-.082.796 0 1.214-.164a15 15 0 0 1 1.221-.41c.304-.093.646-.143.925-.297.207-.114.382-.292.596-.396.172-.086.375-.129.56-.186.68-.21 1.233-.853 1.793-1.282.36-.278.682-.55 1.007-.867q.178-.172.35-.343l.29-.286c.114-.11-.044.018.103-.093.182-.139.386-.257.557-.407.153-.132.225-.3.325-.478.2-.357.464-.64.7-.975.45-.643.864-1.332 1.22-2.028.358-.696.772-1.243.847-2.021.04-.432.129-.825.21-1.25.061-.325.05-.66.104-.985.068-.4.19-.79.264-1.19s.065-.788.065-1.213c0-.329.078-.704-.014-1.018-.068-.232-.186-.46-.276-.682-.06-.15-.025.086-.01-.078.014-.165.021-.311.032-.465.053-.753-.254-1.453-.486-2.153a5.7 5.7 0 0 0-.503-1.167c-.054-.093-.125-.193-.172-.293s.043.128.03.046c-.008-.039-.022-.082-.026-.121a3.2 3.2 0 0 0-.146-.686c-.068-.178-.218-.339-.325-.492a13 13 0 0 0-.197-.279c-.067-.093.068.143.015.04a1.4 1.4 0 0 1-.072-.165 4.8 4.8 0 0 0-.693-1.157c-.253-.31-.478-.65-.742-.953-.24-.275-.54-.51-.81-.754-.315-.274-.63-.55-.936-.831-.068-.061-.15-.172-.232-.215.218.11.26.314.064.047-.125-.172-.254-.343-.378-.518-.186-.254-.479-.51-.8-.571-.24-.043-.404.085-.233.324z"/><path fill="#20201F" d="M36.108 21.274c.204-.028.407-.064.6-.125-.504.161-1.096-.003-.65.179a1 1 0 0 0 .2.053c.203.032.436.008.643-.014q.219-.02.439-.06l.168-.033c.317-.064.089-.043-.693.065.314.2.728.22 1.078.328q.29.09.579.193c.182.06.371.053.546.11.157.054.2.19.314.297.093.09.211.143.318.21.343.222.678.183 1.075.14.293-.032-.45-.114-.279.046.058.054.143.086.207.132.154.104.208.161.265.332.121.354.339.283.628.45.064.04.26.018.322.015q.267-.012.532-.05c.07-.011.55-.111.47-.158-.117-.067-.242-.078-.363-.128-.147-.06-.165-.15-.211-.282-.086-.254-.286-.382-.525-.504-.275-.139-.657-.071-.95-.035q-.255.029.357-.018l-.085-.05a2 2 0 0 0-.161-.107 1.3 1.3 0 0 1-.343-.3c-.193-.236-.407-.182-.678-.254-.354-.089-.69-.246-1.047-.332-.185-.046-.367-.071-.542-.146-.14-.06-.25-.11-.404-.122-.214-.017-.432 0-.646.025a7 7 0 0 0-.514.083q-.37.073.468-.047l.321.014c-.132-.028-.236-.1-.36-.142a1.3 1.3 0 0 0-.443-.043 5.4 5.4 0 0 0-.982.128c-.057.015-.304.065-.04.025-.078.011-.525.057-.471.157s.775-.025.853-.035zM31.695 23.335c.136-.14.239-.275.268-.468.007-.054.003-.11.014-.168l-.025.114a.3.3 0 0 1 .028-.075l-.067.115s.021-.033.035-.047l-.103.114.057-.05-.136.104c.122-.093.243-.19.364-.282l-.135.104c.078-.061.157-.115.246-.165l-.164.09c.164-.09.332-.172.496-.261l-.164.09c.132-.072.275-.119.407-.183.146-.075.303-.168.4-.303.057-.083.128-.229.075-.333-.143-.26-.582-.175-.793-.071-.082.043-.168.075-.253.11-.132.058-.254.13-.382.197l.164-.09c-.186.1-.379.183-.554.3-.164.111-.314.24-.47.361l.135-.103c-.175.132-.372.282-.44.503-.032.107-.024.197-.042.3l.025-.114q-.011.032-.022.057l.068-.114s-.021.028-.032.046l.104-.114-.015.014c-.085.09-.196.207-.196.343 0 .114.078.21.186.243a.77.77 0 0 0 .45-.007c.167-.05.346-.129.47-.254zM31.855 43.566c.368.271.772.471 1.136.735.282.204.628.343.957.443.264.082.45.14.7.25.296.132.6.218.896.35a3 3 0 0 0 .978.253c.325.022.643 0 .957 0 .104 0 .293.026.386-.028.175-.1-.197 0-.222-.096.011.05.2.139.236.16.254.143.564.229.85.132.078-.028.25-.082.3-.157.103-.15-.175.057-.19-.043.004.032.233.093.276.108.646.178 1.146-.268 1.738-.347.265-.035.586-.014.829-.136.11-.057.168-.132.253-.214.14-.139.25-.218.447-.293.428-.157 1.17-.192 1.332-.728.057-.186-.008-.121.139-.168.139-.043.275-.035.403-.121a.9.9 0 0 0 .254-.29c.1-.16.193-.256.335-.385.204-.182.447-.282.643-.471.279-.268.379-.511.564-.832.307-.529-.914-1.186-1.228-.647-.197.34-.293.611-.646.825a3 3 0 0 0-.85.768c-.015.018-.04.118-.047.125-.05.04-.235.018-.303.032-.168.043-.322.125-.41.279-.076.128-.065.274-.176.364-.139.114-.36.143-.528.178-.357.072-.778.243-1.014.529-.029.032-.172.153-.06.107-.072.028-.19-.004-.265 0-.182.018-.375.046-.557.071-.225.032-.347.132-.54.229-.064.032-.278.125-.274.125-.025 0-.132-.029-.222-.054-.2-.064-.41-.093-.614-.035-.175.05-.31.182-.489.22l.464.008c.204.043-.085-.075-.157-.114a1.4 1.4 0 0 0-.418-.16c-.278-.05-.546.028-.825.024-.296-.003-.624.029-.914-.05-.267-.075-.503-.225-.774-.307-.272-.082-.49-.232-.754-.325s-.546-.079-.778-.225c-.364-.225-.747-.45-1.093-.703-.228-.172-.65-.336-.903-.115-.254.222-.04.572.168.725z"/></svg>