<svg xmlns="http://www.w3.org/2000/svg" width="186" height="153" fill="none"><path fill="#000" fill-rule="evenodd" d="M146.647 2.443A8 8 0 0 1 152.401 0h6.178a8 8 0 0 1 7.997 8.223l-.201 7.198 6.497-2.168a8 8 0 0 1 10.276 5.582l1.696 6.542a8 8 0 0 1-5.604 9.716l-5.988 1.662 4.143 5.671a8 8 0 0 1-1.613 11.084l-4.966 3.783a8 8 0 0 1-11.52-1.952l-3.706-5.603-3.624 5.55a8 8 0 0 1-11.472 2.047l-4.739-3.523a8 8 0 0 1-3.575-6.666v-.014c0-1.853.64-3.609 1.758-5.004l3.923-5.37-5.999-1.665a8 8 0 0 1-5.604-9.716l1.696-6.542a8 8 0 0 1 10.259-5.587l6.441 2.133-.248-7.102a8 8 0 0 1 2.241-5.836" clip-rule="evenodd"/><path fill="#000" d="M7.038 26 .759 1.85h5.313l3.864 16.87h.242l4.657-16.87h5.313l4.657 16.87h.242l3.864-16.87h5.313L27.945 26h-5.382L17.492 8.37 12.42 26zm30.418 0V1.85h16.49v4.485H42.632v5.417h10.28v4.036h-10.28v5.727h11.66V26zm-18.17 35-1.553-4.52H7.556L6.003 61H.587l8.728-24.15h6.659L24.702 61zm-10.42-8.349h7.556l-3.623-10.522h-.31zM47.004 61h-5.106l-4.589-8.038h-4.347V61h-5.175V36.85h9.764c6.417 0 9.211 3.346 9.211 8.073 0 3.45-1.483 6.141-4.83 7.349zM32.96 41.335v7.142h4.416c2.83 0 4.071-1.415 4.071-3.554 0-2.174-1.242-3.588-4.07-3.588zM50.41 61V36.85H66.9v4.485H55.584v5.416h10.281v4.037h-10.28v5.727h11.66V61zM16.616 103.954q.268.603.268 1.206.068.603 0 1.273v1.273q0 .603.134 1.273-.402 1.34-.268 2.613.201 1.206.335 2.479.135 3.618.067 7.236-.068 3.55-.134 7.169a11.5 11.5 0 0 0-.134 3.015q.134 1.475-.067 3.015a5.8 5.8 0 0 0-.201 1.541q.067.804-.067 1.541.335 1.005.268 2.01a27 27 0 0 1-.201 1.876q.134 1.139.335 2.144.2 1.072.871 2.01.402.402.804.603.47.201.871.335.47.201.871.402.47.268.871.67.335.603.469 1.206.2.603.067 1.34-.47.804-1.206 1.072a3.85 3.85 0 0 1-1.608.335 7.8 7.8 0 0 1-1.742-.067 11 11 0 0 0-1.675-.134q-.737.201-1.34 0a12 12 0 0 0-1.206-.201 13 13 0 0 1-3.283.268 85 85 0 0 0-3.417-.067q-.603-.269-1.474 0a7 7 0 0 0-1.005-.067 3.3 3.3 0 0 1-.938 0 1.9 1.9 0 0 1-.871-.201q-.402-.134-.67-.67a2.73 2.73 0 0 1-.268-1.474q.135-.737.536-1.34a3.9 3.9 0 0 1 1.005-.737q.603-.268 1.139-.536a4.4 4.4 0 0 0 1.072-.67q.536-.335.871-.938.402-1.005.603-2.144a6.9 6.9 0 0 0 .134-2.345q.201-.469.134-.938 0-.469-.067-.938-.068-.47-.134-.871a2.6 2.6 0 0 1 .067-1.005 2.27 2.27 0 0 1 .268-1.34q.335-.603.134-1.34-.603-1.206-.469-2.613.135-1.407.335-2.613a11.7 11.7 0 0 1-.469-3.752q.135-1.943 0-3.886.335-1.005.134-1.943-.135-1.005-.268-2.077-.201-.402-.536-.469a1.35 1.35 0 0 0-.737-.067l-.804.134a4.5 4.5 0 0 1-.737.067 4.1 4.1 0 0 1-1.474-.134q-.67-.2-1.139-.871a7.5 7.5 0 0 1-.402-2.077q0-1.139.536-1.943a7.8 7.8 0 0 1 2.211-1.072q1.14-.402 2.278-.938a4.7 4.7 0 0 0 2.144-1.675q.804-1.206 1.541-2.345.335-.737.603-1.474.268-.804 1.206-.938 1.14-.201 2.345-.134 1.206 0 2.412.134.334.134.603.335a.8.8 0 0 1 .469.469m28.599.737q1.407.938 2.411 2.144a12.2 12.2 0 0 1 1.81 2.479 23 23 0 0 1 1.407 2.747q.602 1.407 1.138 2.814.135 1.34.47 2.412.401 1.072.267 2.345.537 2.48.402 5.092a68 68 0 0 0 .068 5.226v3.819q0 1.942-.738 3.618a10 10 0 0 1-.67 2.881 19 19 0 0 0-.87 2.814 7.7 7.7 0 0 0-.938 1.407 11 11 0 0 1-.67 1.474 36 36 0 0 1-2.413 3.082q-1.34 1.54-3.216 2.144-1.34.47-2.747.871-1.34.469-3.015.134a24 24 0 0 0-2.68-.67q-1.34-.268-2.345-1.34-2.88-1.809-4.489-4.623a24.4 24.4 0 0 1-2.411-5.829 32 32 0 0 0-.47-2.211 41 41 0 0 0-.468-2.278q-.136-2.948-.268-5.695a51 51 0 0 1 .066-5.829q.135-2.412.402-4.69.336-2.345.938-4.556a17.6 17.6 0 0 1 1.474-3.417 894 894 0 0 1 1.81-3.216q1.474-1.809 3.148-3.082 1.743-1.34 3.82-1.608 1.071-.335 2.076-.201 1.073.134 2.144.134 1.14.2 2.279.67 1.205.402 2.278.938m-4.557 4.556a1.9 1.9 0 0 0-.468-.536 1.8 1.8 0 0 0-.603-.402.87.87 0 0 0-.67 0 1 1 0 0 0-.537.268q-1.34 1.274-1.54 3.015l-.403 3.35a67 67 0 0 1-.2 2.881 31 31 0 0 0 0 2.881q.133 4.087.066 8.241v8.241q.335 1.742.269 3.618 0 1.876.334 3.618.135.536.202 1.072.133.603.603 1.139.4.268.803.268.47.067.871 0a5.2 5.2 0 0 0 1.14-.871q.535-.469.535-1.139.135-1.273.402-2.546.27-1.206-.067-2.613.135-1.139.47-2.278a3.6 3.6 0 0 0-.068-2.278 12 12 0 0 0 .135-3.082 74 74 0 0 1-.068-3.216 33 33 0 0 1-.066-4.69q.133-2.412 0-4.69.134-1.876-.202-3.551a46 46 0 0 1-.401-3.484 7 7 0 0 1-.068-1.675 2.12 2.12 0 0 0-.469-1.541m36.387-4.556q1.407.938 2.412 2.144a12.2 12.2 0 0 1 1.809 2.479 23 23 0 0 1 1.407 2.747q.603 1.407 1.139 2.814.134 1.34.469 2.412.402 1.072.268 2.345.535 2.48.402 5.092a68 68 0 0 0 .067 5.226v3.819q0 1.942-.737 3.618a10 10 0 0 1-.67 2.881 19 19 0 0 0-.871 2.814q-.603.737-.938 1.407-.268.737-.67 1.474a36 36 0 0 1-2.412 3.082q-1.341 1.54-3.216 2.144-1.341.47-2.747.871-1.341.469-3.015.134a24 24 0 0 0-2.68-.67q-1.34-.268-2.345-1.34-2.88-1.809-4.49-4.623a24.4 24.4 0 0 1-2.411-5.829 32 32 0 0 0-.47-2.211 41 41 0 0 0-.468-2.278q-.135-2.948-.268-5.695a51 51 0 0 1 .067-5.829q.134-2.412.402-4.69.335-2.345.938-4.556.535-1.742 1.474-3.417a864 864 0 0 1 1.809-3.216q1.473-1.809 3.149-3.082 1.742-1.34 3.819-1.608 1.071-.335 2.077-.201 1.072.134 2.144.134 1.139.2 2.278.67 1.206.402 2.278.938m-4.556 4.556a1.9 1.9 0 0 0-.47-.536 1.8 1.8 0 0 0-.602-.402.87.87 0 0 0-.67 0 1 1 0 0 0-.536.268q-1.34 1.274-1.541 3.015l-.402 3.35a67 67 0 0 1-.201 2.881 31 31 0 0 0 0 2.881q.134 4.087.067 8.241v8.241a16 16 0 0 1 .268 3.618q0 1.876.335 3.618.135.536.2 1.072.135.603.604 1.139.402.268.804.268.469.067.87 0a5.2 5.2 0 0 0 1.14-.871q.536-.469.536-1.139.134-1.273.402-2.546.267-1.206-.067-2.613.134-1.139.469-2.278a3.6 3.6 0 0 0-.067-2.278q.267-1.608.134-3.082a74 74 0 0 1-.067-3.216 33 33 0 0 1-.067-4.69q.135-2.412 0-4.69.134-1.876-.201-3.551a46 46 0 0 1-.402-3.484 7 7 0 0 1-.067-1.675 2.12 2.12 0 0 0-.47-1.541m29.418-5.762q.737.335 1.34.871.67.535 1.34 1.005a6.36 6.36 0 0 1 2.211 2.01q.871 1.273 1.206 2.613.938 1.742.938 3.953a24 24 0 0 1-.335 4.087q-.335 2.345-1.943 4.623-1.54 2.21-3.819 3.283a8.2 8.2 0 0 1-2.345.871q-1.273.268-2.613.201a12.6 12.6 0 0 1-2.546-.402 9.2 9.2 0 0 1-2.211-1.072 7.13 7.13 0 0 1-2.948-2.68 11.1 11.1 0 0 1-1.34-3.685q-.937-2.747-.603-6.097.2-1.474.67-2.881.47-1.474 1.206-2.747a11.6 11.6 0 0 1 1.876-2.278 8.4 8.4 0 0 1 2.613-1.675q1.608-.737 3.618-.603 2.01.067 3.685.603m20.435 1.273q.067.871-.268 1.474t-.603 1.273a10.8 10.8 0 0 0-.871 1.943q-.269.938-1.005 1.809a22 22 0 0 1-1.273 2.948 23.5 23.5 0 0 0-1.273 2.881 766 766 0 0 1-3.082 6.097l-3.015 6.164-1.474 3.082a20 20 0 0 1-1.675 2.948q-.536 1.54-1.072 2.948a35 35 0 0 1-1.206 2.68 8.7 8.7 0 0 0-1.206 2.412q-.335 1.273-1.273 2.345-.133.536-.603 1.005a3 3 0 0 0-.536 1.072 5 5 0 0 0-.603.938q-.2.536-.469 1.005a2.8 2.8 0 0 1-.603.871q-.335.402-.938.536a9.5 9.5 0 0 0-1.943.067q-1.005.134-1.608-.737a1.17 1.17 0 0 1 .067-.871q.201-.402.335-.737.335-1.34.871-2.479l1.072-2.278q1.34-3.015 2.68-5.829a675 675 0 0 0 2.814-5.695 35 35 0 0 0 1.541-2.747q.736-1.407 1.407-2.814.402-.872.67-1.608.269-.804.603-1.742 1.34-1.943 2.01-4.02a20 20 0 0 1 1.943-4.087q.67-2.01 1.608-3.752a95 95 0 0 0 1.943-3.685q.268-.67.536-1.407a7.4 7.4 0 0 1 .67-1.474 4.4 4.4 0 0 1 .938-1.206q.603-.469 1.541-.536.402.134.938.134a3.8 3.8 0 0 1 1.005 0q.536 0 .871.268.402.201.536.804m-22.847 2.948q-.135-.268-.469-.469-.268-.268-.67-.134-.334.2-.804.469-.402.269-.603.804a18.4 18.4 0 0 1-.402 3.149q-.335 1.474-.201 3.149.134 1.942.134 3.819 0 1.809.737 3.417.269.335.603.67.402.335.938.335.335-.067.536-.268.268-.2.536-.469.67-1.675.737-3.551l.268-3.752a19.7 19.7 0 0 0-.201-3.685 11 11 0 0 0-1.139-3.484m28.006 24.522a8.75 8.75 0 0 1 1.541 4.288q.201 2.345.536 4.623 0 1.474-.469 2.747l-.938 2.546a14.2 14.2 0 0 1-2.211 2.814q-1.273 1.34-2.814 1.943a3.34 3.34 0 0 1-1.675.737q-.871.134-1.809.268a18.4 18.4 0 0 1-4.422-.804q-2.078-.603-3.417-2.747-.804-.736-1.206-1.608a7.5 7.5 0 0 0-1.005-1.608l-.871-2.948a22 22 0 0 1 .201-4.556q.402-2.278 1.474-4.087a18.7 18.7 0 0 1 2.144-3.015q1.273-1.54 2.948-2.144a19.6 19.6 0 0 1 4.891-.469q2.546 0 4.489 1.541.736.535 1.407 1.206.67.603 1.206 1.273m-6.097 3.551a27 27 0 0 0-.536-1.474q-.268-.737-.603-1.474-.201-.335-.536-.335a3.4 3.4 0 0 0-.67-.067q-1.139.737-1.474 1.943t-.469 2.412a136 136 0 0 0-.335 4.087 14 14 0 0 0 .335 4.087q0 .938.201 1.675.201.804.938 1.407.335.133.67.201a.87.87 0 0 0 .67 0q.67-.2 1.005-.67.402-.47.603-1.072.2-.535.268-1.206.067-.67.201-1.273a32 32 0 0 1-.134-4.154 20.5 20.5 0 0 0-.134-4.087"/></svg>