<svg xmlns="http://www.w3.org/2000/svg" width="143" height="77" fill="none"><mask id="a" width="19" height="19" x="57" y="53" maskUnits="userSpaceOnUse" style="mask-type:luminance"><path fill="#fff" d="M75.497 53.432h-17.99v17.99h17.99z"/></mask><g mask="url(#a)"><path fill="#000" d="m57.506 61.487.678-2.704 6.879 2.292-.678 2.353zm2.539 8.35 4.399-5.997 1.747 1.47-3.947 6.115zm5.074-16.405h2.649l-.225 7.35H65.4zm1.635 11.876 1.805-1.47 4.344 5.996-2.144 1.589zm1.128-4.233 6.937-2.292.678 2.704-6.88 1.941-.733-2.353z"/></g><path fill="#000" d="M29.176 8.66c1.366.55 2.245 1.607 2.685 2.917.309 1.039.384 2.24.18 3.504-.042.324-.116.686-.192 1.013-.26 1.054-.733 2.093-1.28 3.104l-1.44-.58c.455-.859.836-1.747 1.037-2.654.086-.222.134-.475.182-.728.05-.61 0-1.173-.184-1.619-.273-.65-.783-1.172-1.594-1.489-.555-.234-1.276-.345-2.097-.377-3.673-.125-8.018 2.513-11.973 6.289-4.542 4.362-8.487 10.199-10.333 15.274-.844 2.424-1.08 4.508.028 6.504.683 1.253 1.937 2.133 3.704 2.398.647.083 1.324.092 2.103.056 2.964-.236 6.31-1.36 9.594-3.546 3.319-2.188 6.041-5.069 10.736-10.476l1.347.73c-5.105 5.978-8.298 9.541-12.024 12.336-3.495 2.596-7.045 4.201-10.154 4.415-.885.045-1.702.05-2.423-.062-2.235-.329-3.758-1.434-4.654-3.058-1.492-2.707-.855-7.779.39-11.27 1.922-5.403 6.12-11.582 10.892-16.144 4.346-4.167 9.204-7.03 13.409-6.918.785.035 1.471.15 2.061.38m8.408 10.712c-.23.59-.67 1.235-1.044 1.802-.054.183-.106.401-.025.5.112.061.365.11.615.122.36.038.683.08.984.265.526.307.758.89.204 2.221.318.753-.213 2.33-2.637 5.753-.595.872-1.296 2.145-1.658 3.245l.03.317c.086.17.166.269.384.32.285.01.773-.106 1.458-.382 1.192-.572 2.358-1.425 3.402-2.445 1.243-1.18 2.294-2.521 3.001-3.724l.035-.003.03-.074 1.407.618-.029.073c-.897 1.469-2.273 3.515-3.859 5.225-1.23 1.321-2.546 2.473-3.911 3.096-1.06.453-1.862.633-2.436.578-.753-.073-1.218-.492-1.385-1.152-.19-.516-.142-1.16.043-1.853.023-.144.08-.292.1-.471.04-.324.082-.648.156-1.01.313-1.629 1.302-3.64 2.15-4.855.692-.987 1.191-1.744 1.569-2.277-.433-.066-.866-.134-1.218-.492a1.3 1.3 0 0 1-.293-.471c-.473.648-1.101 1.558-1.7 2.395-.82 1.142-2.276 3.48-2.53 3.823l-.034.003-1.22-.883-.002-.036.035-.003c.128-.154.628-.91 1.985-3.168.829-1.427 2.055-3.175 2.907-4.355.692-.988 1.422-2.335 2.088-3.214zm17.938 2.835c-.819 2.315-3.32 4.5-6.127 6.073-1.926 1.1-3.983 1.93-5.758 2.34.186.872.571 1.584 1.148 2.064a2.5 2.5 0 0 0 1.973.566c1.618-.184 3.547-1.25 5.315-2.514 2.166-1.585 3.982-3.493 4.583-4.686l1.5.467c-.716 1.488-2.154 3.255-3.855 4.868-1.573 1.46-3.401 2.836-5.209 3.677-.272.132-.545.264-.785.357-1.75.694-3.201.756-4.301.394-1.138-.393-1.895-1.284-2.217-2.463-.048-.138-.06-.279-.07-.385-.13-.628-.123-1.34-.008-2.026l-.212.02a9 9 0 0 1-.965-.054l.624-1.728c.18.02.359.038.57.019l.212-.02q.288-1.52 1.104-3.087c.877-1.68 2.18-3.364 3.618-4.74 1.435-1.412 3.037-2.554 4.514-3.116 1.166-.463 2.256-.598 3.173-.29.516.2.936.518 1.193.992.26.51.348 1.852.195 2.506-.045.289-.093.542-.215.767m-11.457 6.49c1.451-.453 3.05-1.24 4.594-2.234 2.455-1.54 4.585-3.513 5.234-5.35.064-.078.09-.186.118-.26a1.08 1.08 0 0 0-.497-.381c-.477-.17-1.109-.076-1.794.2-1.234.504-2.634 1.521-3.935 2.849-1.335 1.331-2.575 2.938-3.387 4.541-.122.225-.209.446-.333.635m30.947-4.187 1.618.207c-.655 1.766-2.695 3.944-4.108 5.212-1.746 1.51-3.662 2.717-5.04 2.808a1.56 1.56 0 0 1-1.055-.259c-.61-.442-.693-1.359-.409-2.522l.029-.074a30 30 0 0 1-2.197 2.015c-1.887 1.524-3.957 2.602-5.781 2.485-1.218-.102-2.042-.56-2.469-1.338-.465-.81-.527-1.872-.214-3.11a6.4 6.4 0 0 1 .197-1.724c.288-1.128.883-2.392 1.729-3.642 2.18-3.364 9.009-9.928 12.883-7.225a4.33 4.33 0 0 1 1.508 2.101c.385-.461.897-1.077 1.358-1.475l.86 1.237c-1.451 1.235-4.268 6.186-5.107 7.898-.448.93-.796 1.78-1.017 2.475.01.106.013.142.051.174.039.032.074.028.18.019 1.025-.059 2.586-.877 4.015-1.968 1-.732 2.543-2.118 2.969-3.294m-11.37 4.74c3.726-2.404 4.465-4.819 6.86-8.167-.061-.67-.571-1.192-1.232-1.416-3.193-1.093-9.1 4.674-10.751 7.208-.657.984-1.137 1.953-1.376 2.828.016.176.067.35.15.484.25.403.738.679 1.488.716 1.5.076 3.25-.617 4.862-1.654m18.113-13.784c-.372.602-.707 1.202-1.044 1.802-2.289 4.12-4.148 8.273-4.652 10.523-.032.43-.003.747.062 1.061.16.59.407.958.78 1.137.073.03.182.055.259.119 1.208.387 2.64-.278 3.996-1.398 1.486-1.238 2.889-3.002 3.785-4.47.218-.34.436-.68.586-.979l-.003-.035.035-.003-.003-.035.035-.004-.003-.035 1.468.505.004.036-.036.003.003.035a18 18 0 0 1-1.072 1.876c-1.12 1.738-2.67 3.836-4.304 5.408-1.835 1.697-3.838 2.733-5.637 2.116-.108-.026-.22-.086-.333-.147-.705-.327-1.18-.852-1.437-1.717-.212-.763-.203-1.83.094-3.244l-.004-.035c.058-.539.115-1.077.236-1.693.463-2.318 2.252-6.073 4.5-9.87.153-.262.31-.49.464-.753-.917.084-2.003.255-2.904.515l-.085-1.699c1.356-.337 2.799-.505 4.138-.628 1.745-2.684 3.647-5.205 5.466-7.078l.064-.077 1.091 1.038c-1.429 1.482-2.978 3.58-4.47 5.92l.035-.003c2.083-.155 4.212-.208 6.298-.328l-.303 1.734c-2.337.107-4.673.215-7.074.4zm9.855 2.474c-1.828 2.158-3.781 4.897-5.197 7.302a22 22 0 0 0-1.21 2.315c.01.106-.015.215-.006.32.026.283.152.485.308.648.19.125.411.211.658.189 1.06-.062 2.275-.778 3.358-1.766 1.15-1.03 2.427-2.604 2.94-4.002l1.586.245c-.71 1.95-2.417 4.275-3.916 5.763-1.463 1.485-3.136 2.634-4.655 2.738-.638.023-1.186-.14-1.613-.528a2.3 2.3 0 0 1-.742-1.496c-.054-.6.121-1.398.47-2.247.68-3.05 4.652-7.822 6.833-10.404zm3.977-6.267c-.362.318-.702.491-1.125.53-.388.036-.718-.076-.956-.339-.272-.26-.34-.609-.305-1.003.07-.397.25-.77.576-1.084.324-.35.699-.526 1.087-.561.423-.04.753.073.994.37.237.263.34.61.305 1.004-.07.397-.25.77-.576 1.084m-.909 19.176c-.926.369-1.705.405-2.34.072-.41-.212-.795-.532-1.023-1.08-.225-.512-.29-1.218-.168-2.224.044-.289.09-.577.169-.869.01-.285.019-.57.06-.894.261-1.802 1.196-4.02 2.49-6.201 1.353-2.293 3.134-4.59 4.899-6.28l.991 1.118c-1.467 1.45-3.033 3.762-4.342 6.157-1.12 2.13-2.026 4.275-2.406 5.945q-.009.48.078.846c.064.314.19.516.34.609.221.086.574.054 1.02-.13.653-.237 1.425-.734 2.322-1.42 1.596-1.214 3.318-2.971 4.82-4.816.381-.497.762-.994 1.108-1.488-.074-.42-.077-.846-.084-1.307a11.5 11.5 0 0 1 .232-2.12c1.138-5.436 4.923-4.859 3.625-.403-.821 2.671-3.076 6.006-4.084 7.414-1.515 2.094-3.25 4.102-4.843 5.35-1.067.773-2.005 1.393-2.864 1.72M104.7 16.064c-.445 1.357-.291 1.485.211-.019.426-1.177.067-.824-.211.02m15.061.255c-.818 2.315-3.32 4.5-6.127 6.073-1.925 1.1-3.982 1.929-5.758 2.34.187.872.572 1.583 1.149 2.064a2.5 2.5 0 0 0 1.972.566c1.618-.184 3.547-1.25 5.316-2.514 2.165-1.585 3.981-3.494 4.583-4.686l1.5.466c-.717 1.488-2.154 3.255-3.855 4.869-1.573 1.46-3.402 2.836-5.21 3.677-.272.132-.544.263-.784.357-1.75.693-3.202.755-4.302.394-1.138-.394-1.895-1.284-2.216-2.463a1.5 1.5 0 0 1-.071-.385c-.129-.628-.123-1.34-.008-2.026l-.212.02c-.32-.007-.641-.013-.964-.054l.623-1.728c.18.019.359.038.571.018l.212-.019q.287-1.52 1.103-3.087c.877-1.68 2.18-3.364 3.618-4.74 1.435-1.412 3.037-2.554 4.515-3.116 1.166-.463 2.256-.598 3.172-.291.516.201.937.518 1.194.992.259.51.347 1.853.194 2.507-.045.288-.093.542-.215.766m-11.457 6.49c1.452-.453 3.051-1.24 4.595-2.234 2.454-1.54 4.584-3.514 5.234-5.35.064-.078.089-.187.118-.26a1.08 1.08 0 0 0-.497-.382c-.478-.17-1.11-.076-1.795.2-1.234.505-2.634 1.522-3.934 2.85-1.336 1.331-2.575 2.938-3.388 4.541-.121.224-.208.446-.333.635"/><mask id="b" width="92" height="24" x="31" y="26" maskUnits="userSpaceOnUse" style="mask-type:luminance"><path fill="#fff" d="m122.087 31.769-89.928-5.135-.986 17.265 89.928 5.135z"/></mask><g mask="url(#b)"><path fill="#000" d="m104.006 33.687-17.221 1.968L68.69 37.72l-18.966 2.167-17.739 2.026c-.225.027-.436.17-.576.397-.442.703-.02 1.71.68 1.63l16.264-1.859 19.001-2.171 17.186-1.963 18.093-2.067 18.64-2.128c.229-.026.44-.173.584-.407.432-.706.009-1.7-.685-1.619z"/></g><path fill="#000" d="M91.076 50.715q.102.015.176.073.088.045.19.074.162.088.295.234a.8.8 0 0 1 .22.323q.044.456 0 .91l-.059.896q-.03.058-.06.132a.18.18 0 0 1-.101.088.8.8 0 0 1-.353.044.45.45 0 0 1-.293-.132 1.24 1.24 0 0 1-.294-.675 5 5 0 0 0-.308-.69 1 1 0 0 0-.588-.485.75.75 0 0 0-.396-.043.6.6 0 0 0-.367.146l-.249.323q-.015.206-.073.396-.045.192-.103.382-.045.176-.088.367-.03.191-.015.396.015.324-.059.617a1.4 1.4 0 0 0-.03.572q0 .528-.014 1.057-.015.514.044 1.027.015.485.103.925t.19.895q.09.22.294.411a.76.76 0 0 0 .44.235.89.89 0 0 0 .764-.396q.118-.309.264-.587.162-.264.206-.602.045-.103.073-.22.045-.118.088-.206a.5.5 0 0 1 .147-.161.36.36 0 0 1 .235-.073q.175 0 .352.014.19 0 .279.19.073.25.044.53-.03.277.058.528-.044.206-.014.41.03.221.03.426a1 1 0 0 1-.045.382q-.058.176-.279.293-.382.25-.85.338-.455.103-.926.191a1.7 1.7 0 0 0-.499.015q-.249.044-.499-.03a1.4 1.4 0 0 0-.352-.132 4.5 4.5 0 0 1-.705-.176 1 1 0 0 1-.323-.176 8 8 0 0 1-.616-.529 1.9 1.9 0 0 1-.455-.616 2.1 2.1 0 0 1-.352-.749 23 23 0 0 0-.22-.792q-.045-.587-.147-1.16a4.4 4.4 0 0 1-.044-1.189q.03-.381.117-.719a6 6 0 0 0 .162-.719.8.8 0 0 1 .073-.161q.045-.074.103-.162.03-.308.176-.572.146-.279.279-.543.206-.309.484-.543.279-.25.573-.456.25-.073.47-.19.22-.132.469-.161.25-.03.5-.089a1.2 1.2 0 0 1 .527 0l.705.059q.352.03.646.235m5.733-.074q.367.06.749.089.381.029.72.176.337.22.703.47.382.234.544.66.22.426.279.924.058.499-.103.984a4 4 0 0 0-.176.41.83.83 0 0 1-.25.382 2.7 2.7 0 0 1-.352.323 5 5 0 0 1-.382.265.22.22 0 0 0-.102.161q.043.177.132.352.102.162.176.367a.8.8 0 0 1 .19.44q.03.25.206.44.103.323.235.632.132.323.264.631.147.235.294.44.146.221.367.426a.57.57 0 0 1 .044.382.75.75 0 0 1-.162.381.6.6 0 0 1-.323.133 1 1 0 0 1-.337 0 5 5 0 0 1-.367-.045 1.4 1.4 0 0 0-.353.015 2 2 0 0 0-.19.015.26.26 0 0 1-.191-.015 21 21 0 0 0-.426-.147q-.205-.073-.235-.323a.6.6 0 0 0-.073-.205 2 2 0 0 0-.103-.176l-.117-.176a.45.45 0 0 1-.044-.206.8.8 0 0 0-.132-.323 2 2 0 0 1-.162-.293 7 7 0 0 0-.205-.631 15 15 0 0 0-.25-.588 5 5 0 0 1-.176-.47.95.95 0 0 0-.264-.44q-.073-.014-.103.088a.7.7 0 0 0 0 .206l.03.22q-.104.499-.06 1.013.06.529.03 1.042.016.132.088.206.09.087.176.146.104.074.191.133a.556.556 0 0 1 .162.733.5.5 0 0 1-.529.162q-.147-.045-.293-.03l-.28.03q-.146.03-.308.044-.146.015-.308-.015a2 2 0 0 0-.543-.073q-.278 0-.543.03a2 2 0 0 0-.235.014 2 2 0 0 1-.25.014.6.6 0 0 1-.22-.044.33.33 0 0 1-.16-.161q-.045-.146-.045-.308 0-.147.088-.265a.6.6 0 0 1 .264-.16.5.5 0 0 0 .265-.177.84.84 0 0 0 .088-.382q.015-.19-.044-.396a1 1 0 0 0 .029-.41 6 6 0 0 1-.044-.412q.102-.426.044-.837a4 4 0 0 1 0-.85 3 3 0 0 0 0-.588q-.03-.308.03-.616a6 6 0 0 0-.045-.734 4 4 0 0 1 .015-.749 5 5 0 0 1-.03-.528q.015-.279-.014-.529a.4.4 0 0 0-.147-.205 2 2 0 0 0-.22-.132 3 3 0 0 1-.205-.162.4.4 0 0 1-.103-.25q-.03-.219.073-.351a.5.5 0 0 1 .353-.162h.836q.235-.014.44-.014a19 19 0 0 0 2.1 0m.25 1.395a1.1 1.1 0 0 0-.367-.308.7.7 0 0 0-.44-.088.13.13 0 0 0-.074.088q-.015.059-.03.132.016.322-.014.645-.03.309 0 .646a2.2 2.2 0 0 0-.03.793q.06.396.045.807l.044.088a.2.2 0 0 0 .19.044q.118-.043.221-.073a.75.75 0 0 0 .382-.235q.132-.176.19-.382a2.4 2.4 0 0 0 .074-.454 7 7 0 0 1 .044-.456l-.059-.66a1.16 1.16 0 0 0-.176-.587m9.442-1.483q.161 0 .308.03.147.014.235.176l.044.147q0 .47.015.939.015.455-.059.925a.32.32 0 0 1-.176.161.6.6 0 0 1-.22.044q-.206 0-.411-.015a.5.5 0 0 1-.352-.176 3 3 0 0 1-.176-.264 2 2 0 0 0-.191-.294 1.4 1.4 0 0 0-.22-.25.7.7 0 0 0-.294-.146l-.308-.088a.35.35 0 0 0-.309.03l-.058.088q.015.498-.03 1.012-.043.514.03.984l-.044.602.073.073a.2.2 0 0 0 .103.059q.205-.03.382-.103a.8.8 0 0 0 .308-.25q.058-.102.103-.22.058-.132.117-.235a.8.8 0 0 1 .147-.205.4.4 0 0 1 .249-.103q.132 0 .264.03.133.015.206.175.059.25.044.47t.044.47a1.9 1.9 0 0 0-.044.617q.044.307.03.616.043.191.029.367a4 4 0 0 0-.015.367.27.27 0 0 1-.117.19.7.7 0 0 1-.191.089 1.1 1.1 0 0 1-.397-.015.54.54 0 0 1-.293-.264.5.5 0 0 1-.103-.19l-.058-.221a.5.5 0 0 0-.103-.206.43.43 0 0 0-.191-.146.6.6 0 0 1-.117-.045.3.3 0 0 0-.133-.058.2.2 0 0 0-.132-.015q-.059 0-.117.073a1 1 0 0 0-.103.382q-.014.191-.015.397.015.206.015.41.015.207-.044.397.044.38.044.778 0 .396.162.733l.117.118a.23.23 0 0 0 .132.088q.382 0 .675-.294.294-.277.411-.616a.6.6 0 0 0 .133-.206q.043-.117.073-.234.044-.103.102-.206a.5.5 0 0 1 .221-.161.7.7 0 0 1 .411-.088q.25 0 .425.132a.45.45 0 0 1 .176.264q.03.161 0 .323-.014.176-.058.338-.03.176-.015.337 0 .25-.059.499a1.6 1.6 0 0 0-.029.543l-.059.176a.22.22 0 0 1-.132.147q-.249.088-.543.059l-.528-.059q-.382.03-.764.015-.38-.015-.763.029-.294.015-.543-.059a1 1 0 0 0-.513.015 2.6 2.6 0 0 0-.866 0 .5.5 0 0 1-.294.059 4 4 0 0 0-.323-.015h-.367q-.19 0-.294-.205a.5.5 0 0 1-.058-.309.8.8 0 0 1 .103-.293.5.5 0 0 1 .146-.147q.103-.059.191-.118a.6.6 0 0 0 .162-.117.3.3 0 0 0 .102-.176q.03-.338 0-.66-.015-.322.059-.646l-.059-.66a5 5 0 0 1 .015-.661q0-1.438.044-2.833a5 5 0 0 1-.029-.528q.014-.264.058-.529a4 4 0 0 1-.073-.367q-.029-.206-.25-.278a1 1 0 0 1-.205-.118.7.7 0 0 1-.147-.176.5.5 0 0 1-.014-.264.9.9 0 0 1 .117-.235.33.33 0 0 1 .191-.103 1 1 0 0 1 .235-.03q.132-.014.249-.014a.8.8 0 0 0 .22-.059q.382.015.764 0a4 4 0 0 1 .777.015q.338-.06.676-.015.351.03.689-.014.353.03.69.03.338-.015.69-.016m4.709.132q.293.015.602-.014.308-.03.601.059a.6.6 0 0 1 .191.234q.073.132.118.28.044.146.073.308.044.146.118.278.058.382.176.749.117.353.146.734.088.352.177.69.088.337.205.675.117.47.191.939a5 5 0 0 0 .235.895q.117.25.146.544.044.278.162.528.03.279.103.558.074.278.161.528a.8.8 0 0 0 .176.264q.132.118.235.235.117.132.176.264a.46.46 0 0 1-.103.485.3.3 0 0 1-.146.117l-.176.044a2.2 2.2 0 0 0-.5 0q-.235.03-.454-.044a3.7 3.7 0 0 1-.984.074q-.485-.03-.983-.03a1 1 0 0 1-.191-.073.4.4 0 0 1-.132-.147 2 2 0 0 1-.044-.308.36.36 0 0 1 .088-.28q.19-.175.367-.38a.61.61 0 0 0 .161-.5 25 25 0 0 0-.132-.778 6 6 0 0 0-.161-.733.26.26 0 0 0-.118-.074l-.117-.059a2.5 2.5 0 0 0-.47.015q-.234.015-.484-.015-.118.015-.25.044-.117.015-.19.177a3.4 3.4 0 0 0-.118.454 2 2 0 0 1-.147.441 2.4 2.4 0 0 0-.073.602q.015.337.249.542.426.265.367.705.044.117-.088.22a.72.72 0 0 1-.455.088 1.9 1.9 0 0 0-.469 0 .96.96 0 0 1-.441.015 1 1 0 0 0-.44.044 1 1 0 0 1-.206-.073.4.4 0 0 1-.132-.147.47.47 0 0 1-.058-.367.85.85 0 0 1 .176-.337l.205-.177a.6.6 0 0 0 .177-.205q0-.28.102-.485.103-.205.132-.455a10 10 0 0 0 .132-.528q.074-.264.147-.558.059-.396.103-.792.058-.41.206-.793.014-.44.161-.822a2.6 2.6 0 0 0 .191-.822q.117-.381.176-.748.073-.368.191-.734.043-.235.117-.484a.83.83 0 0 0-.015-.514q.03-.25.176-.338a.53.53 0 0 1 .323-.044zm-.162 3.435a.2.2 0 0 0-.029-.103q-.029-.073-.088 0l-.176.66-.147.661v.147q0 .073.074.103a1.9 1.9 0 0 0 .675.059q.072-.03.073-.103a.4.4 0 0 0 0-.147 3 3 0 0 1-.191-.646 2.6 2.6 0 0 0-.191-.63m8.193-3.567q.266.03.558.059.308.015.587-.059.089.015.191.015t.191.015q.102.015.176.073a.28.28 0 0 1 .132.162.3.3 0 0 1 .044.146q.015.074 0 .162a1 1 0 0 0-.015.161q0 .088.03.162a1 1 0 0 0-.03.337q.015.176.015.338.015.16 0 .323a.64.64 0 0 1-.117.308.59.59 0 0 1-.529.103.4.4 0 0 1-.279-.206 3 3 0 0 1-.146-.337.7.7 0 0 1-.133-.19 2 2 0 0 0-.117-.207.35.35 0 0 0-.147-.146q-.072-.06-.205-.015a.18.18 0 0 0-.088.132v.147q.015.484 0 .954a10 10 0 0 0 .014.924q.03.279-.029.529a.9.9 0 0 0 .015.484q0 .294-.044.543-.045.25.029.5-.059.19-.059.396t.015.425q.015.205 0 .411 0 .205-.059.411.074.146.074.309.014.175.015.352 0 .176.014.337.03.177.132.323a.4.4 0 0 0 .147.118q.087.043.161.088.088.044.147.102.074.06.103.176a.62.62 0 0 1-.279.617 1.3 1.3 0 0 1-.528.044 2.5 2.5 0 0 0-.543 0q-.514 0-1.042.015-.514.03-1.028 0-.294-.03-.396-.323a.9.9 0 0 1 0-.323.5.5 0 0 1 .146-.28q.162-.072.338-.204a.38.38 0 0 0 .191-.338q.015-.176-.015-.367a1.4 1.4 0 0 1 .015-.352q.044-.191.03-.367 0-.191-.03-.367l-.03-.367q0-.191.03-.382 0-.338.03-.675a2.7 2.7 0 0 0-.03-.69.8.8 0 0 0 0-.293 1.3 1.3 0 0 1 0-.28 7 7 0 0 1 0-.938q.044-.47.015-.954v-.72a.14.14 0 0 0-.059-.073 1 1 0 0 0-.074-.044.7.7 0 0 0-.293.147 1 1 0 0 0-.176.25 7 7 0 0 0-.117.278q-.045.146-.118.279a.45.45 0 0 1-.308.19.66.66 0 0 1-.338-.029q-.264-.117-.293-.381a5 5 0 0 1-.03-.543q.015-.28-.014-.587a1.35 1.35 0 0 1 .059-.573.43.43 0 0 1 .205-.176q.117-.044.264-.03.147 0 .279.03.147.015.279-.014.293-.03.601-.015.31 0 .602-.03.47-.029.925 0 .47.015.939 0m6.434.265q.074.132.074.308a.43.43 0 0 1-.103.293.45.45 0 0 1-.191.133q-.117.044-.235.102a.6.6 0 0 0-.176.147q-.059.074-.044.235.074.425.015.851-.045.411.029.822.03.69.015 1.438-.015.75.015 1.468-.03.499-.03.998 0 .5.015.998.014.206.176.338.16.147.338.22a.31.31 0 0 1 .132.22 1 1 0 0 1 .014.294 1 1 0 0 1-.044.176.22.22 0 0 1-.132.132 1.4 1.4 0 0 1-.734.103 4 4 0 0 0-.748-.015q-.397.06-.778 0a7 7 0 0 0-.778-.044q-.117.015-.264.03a.26.26 0 0 1-.25-.074.52.52 0 0 1-.132-.308.7.7 0 0 1 .044-.308.4.4 0 0 1 .147-.22q.118-.06.22-.118a.7.7 0 0 0 .206-.118q.089-.074.102-.234-.014-.675-.014-1.35.014-.69.103-1.35l-.03-.427a2 2 0 0 1 .015-.44q0-.425.029-.866.044-.44.015-.866a3.2 3.2 0 0 1-.074-.69q.015-.367.045-.704a.65.65 0 0 0-.206-.352.6.6 0 0 0-.352-.176.42.42 0 0 1-.162-.235.7.7 0 0 1 0-.28.35.35 0 0 1 .22-.205q.162-.058.323-.073.543.03 1.087-.015.556-.044 1.071.015.117-.014.264-.044t.279-.03a.6.6 0 0 1 .264.06q.132.042.22.16m4.082-.162q.16 0 .293.059.148.059.235.19.044.104.059.22.03.105-.044.206a.4.4 0 0 1-.147.191l-.205.118a1 1 0 0 0-.206.117.3.3 0 0 0-.117.19q0 .367.132.676.132.308.205.66.088.25.133.514.043.264.19.5.059.322.162.616.117.293.176.63.044.09.058.206.016.104.133.132a.53.53 0 0 0 .146-.367q0-.22.03-.455.176-.586.308-1.174.147-.601.308-1.174 0-.117.03-.264a1 1 0 0 0 .044-.28.6.6 0 0 0-.03-.263.36.36 0 0 0-.19-.19 1.1 1.1 0 0 1-.309-.177.47.47 0 0 1-.176-.294q0-.162.044-.308a.4.4 0 0 1 .22-.22q.367-.075.764-.088.396-.03.777-.015.236.03.485.03t.382.234q.029.206.014.426a.46.46 0 0 1-.176.338 1.05 1.05 0 0 0-.44.44 2.2 2.2 0 0 0-.191.558q-.206.41-.309.88a10 10 0 0 1-.22.91 2.2 2.2 0 0 0-.146.646q-.03.337-.191.587a3 3 0 0 1-.279.88 3.8 3.8 0 0 0-.279.867q-.074.396-.161.792a7 7 0 0 1-.191.793.75.75 0 0 1-.088.367q-.074.176-.176.337l-.059.147a.14.14 0 0 1-.088.103.9.9 0 0 1-.338.088q-.175.03-.352 0-.16 0-.323-.03-.147-.028-.22-.19a1.1 1.1 0 0 1-.161-.47.94.94 0 0 0-.162-.47 1.4 1.4 0 0 1-.132-.366 1 1 0 0 0-.147-.382 1.5 1.5 0 0 0-.132-.558 1.6 1.6 0 0 1-.132-.587.85.85 0 0 1-.147-.294l-.058-.322a4 4 0 0 0-.044-.338.7.7 0 0 0-.103-.308.9.9 0 0 1-.147-.382.9.9 0 0 0-.132-.41 1.8 1.8 0 0 0-.074-.412 2.6 2.6 0 0 0-.117-.396 6 6 0 0 0-.132-.381 6 6 0 0 1-.103-.411 6 6 0 0 0-.205-.646 39 39 0 0 1-.235-.66.9.9 0 0 0-.22-.206l-.235-.206a1 1 0 0 1-.161-.25.5.5 0 0 1-.015-.322.8.8 0 0 1 .103-.235.37.37 0 0 1 .205-.147q.44-.044.895-.03.47 0 .896.045.293-.09.601-.03.323.045.617.015m9.96-.103q.162 0 .309.03.147.014.235.176l.043.147q0 .47.015.939.015.455-.058.925a.32.32 0 0 1-.177.161.6.6 0 0 1-.22.044q-.206 0-.411-.015a.5.5 0 0 1-.352-.176 3 3 0 0 1-.176-.264 2 2 0 0 0-.191-.294 1.4 1.4 0 0 0-.22-.25.7.7 0 0 0-.294-.146l-.308-.088a.35.35 0 0 0-.308.03l-.059.088q.015.498-.029 1.012-.045.514.029.984l-.044.602.073.073q.045.044.103.059.205-.03.382-.103a.77.77 0 0 0 .308-.25q.058-.102.103-.22.058-.132.117-.235a.8.8 0 0 1 .147-.205.4.4 0 0 1 .25-.103q.13 0 .264.03.132.015.205.175.06.25.044.47-.015.22.044.47a1.9 1.9 0 0 0-.044.617q.044.307.03.616.044.191.029.367a4 4 0 0 0-.015.367.27.27 0 0 1-.117.19.7.7 0 0 1-.191.089q-.22.03-.396-.015a.54.54 0 0 1-.294-.264.5.5 0 0 1-.103-.19l-.058-.221a.5.5 0 0 0-.103-.206.43.43 0 0 0-.191-.146.6.6 0 0 1-.117-.045.3.3 0 0 0-.132-.058.2.2 0 0 0-.133-.015q-.059 0-.117.073a1 1 0 0 0-.103.382q-.014.191-.014.397.014.206.014.41.014.207-.043.397.043.38.043.778 0 .396.162.733l.117.118a.23.23 0 0 0 .132.088.93.93 0 0 0 .676-.294q.292-.277.411-.616a.6.6 0 0 0 .132-.206q.044-.117.073-.234.045-.103.103-.206a.5.5 0 0 1 .22-.161.7.7 0 0 1 .411-.088q.249 0 .426.132a.46.46 0 0 1 .175.264q.03.161 0 .323-.014.176-.058.338-.03.176-.015.337 0 .25-.058.499a1.6 1.6 0 0 0-.03.543l-.059.176a.22.22 0 0 1-.132.147 1.24 1.24 0 0 1-.542.059l-.529-.059q-.381.03-.763.015t-.764.029q-.293.015-.542-.059a1 1 0 0 0-.514.015 2.6 2.6 0 0 0-.866 0 .5.5 0 0 1-.294.059 4 4 0 0 0-.323-.015h-.367q-.19 0-.293-.205a.5.5 0 0 1-.059-.309.8.8 0 0 1 .103-.293.5.5 0 0 1 .146-.147q.104-.059.191-.118a.6.6 0 0 0 .162-.117.32.32 0 0 0 .103-.176 4 4 0 0 0 0-.66q-.015-.322.058-.646l-.058-.66a5 5 0 0 1 .014-.661q0-1.438.044-2.833a5 5 0 0 1-.029-.528 5 5 0 0 1 .059-.529 4 4 0 0 1-.074-.367q-.028-.206-.249-.278a1 1 0 0 1-.206-.118.7.7 0 0 1-.146-.176.5.5 0 0 1-.015-.264.9.9 0 0 1 .117-.235.34.34 0 0 1 .191-.103 1 1 0 0 1 .235-.03q.132-.014.249-.014a.8.8 0 0 0 .221-.059q.381.015.763 0 .396-.029.778.015.337-.06.675-.015.352.03.69-.014.352.03.69.03.337-.015.689-.016m-50.99 14.85.44.03q.236.014.368.234a.6.6 0 0 1 .044.25.28.28 0 0 1-.059.22.8.8 0 0 1-.161.146q-.088.045-.177.103-.087.06-.161.132a.32.32 0 0 0-.088.191 7 7 0 0 1-.059.631q-.03.293.015.617.06.235.029.484a1.3 1.3 0 0 0 .06.47q.043.073.102.014.337-.396.587-.807.25-.425.572-.836a.6.6 0 0 1 .088-.147q.06-.09.103-.176a.4.4 0 0 0 .044-.177.4.4 0 0 0-.059-.205 3 3 0 0 0-.19-.176l-.162-.191a.6.6 0 0 1-.102-.22.44.44 0 0 1 .014-.25.4.4 0 0 1 .103-.176.35.35 0 0 1 .206-.103q.425.015.865.015.44-.016.866-.058.132.015.264 0 .147-.015.28 0 .131 0 .234.058.118.044.19.176.045.118.06.25a.33.33 0 0 1-.06.235 1.6 1.6 0 0 1-.513.323 1.1 1.1 0 0 0-.484.366q-.191.294-.397.573-.19.264-.396.558a2.3 2.3 0 0 1-.381.543q-.236.249-.308.558 0 .22.102.381.103.162.176.353.205.293.309.645.117.337.323.617.029.205.117.396t.19.367q.119.176.22.367.119.176.206.367l.206.41q.117.207.308.368.074.16.206.25a.64.64 0 0 1 .234.249q.089.074.206.132t.132.19q.03.133.014.264a.32.32 0 0 1-.132.235.9.9 0 0 1-.352.133q-.19.03-.381.029-.192 0-.397-.015-.19 0-.381.044a1.7 1.7 0 0 0-.323-.03q-.162.015-.338 0a.7.7 0 0 1-.293-.058.48.48 0 0 1-.22-.22 5.4 5.4 0 0 1-.352-.719q-.147-.353-.31-.734a7 7 0 0 1-.469-.822 4.3 4.3 0 0 0-.47-.822q-.043-.06-.073-.015a1 1 0 0 1-.03.074 2.1 2.1 0 0 0-.043.734q.06.367-.015.748.015.206.015.426t.205.352q.06.074.147.118.103.044.19.103.089.059.148.131a.3.3 0 0 1 .073.206.45.45 0 0 1-.235.484 1.5 1.5 0 0 1-.41.06q-.207.013-.412 0l-.425-.03q-.206 0-.411.014a6 6 0 0 0-.807 0q-.397.03-.823 0a2 2 0 0 1-.16-.073.28.28 0 0 1-.133-.147.43.43 0 0 1-.044-.294.8.8 0 0 1 .117-.263.4.4 0 0 1 .162-.162q.103-.06.19-.117a.6.6 0 0 0 .162-.118.4.4 0 0 0 .103-.19q0-.294.014-.603.03-.292-.029-.586a4 4 0 0 1-.015-.588q.015-.292 0-.616.045-.235.03-.499v-.514q-.03-.366-.044-.72 0-.365.029-.703.03-.485-.015-.94a7 7 0 0 1 0-.924.4.4 0 0 0-.146-.265 1 1 0 0 0-.235-.147 1.4 1.4 0 0 1-.235-.161.38.38 0 0 1-.103-.28.7.7 0 0 1 .015-.248.38.38 0 0 1 .161-.206.45.45 0 0 1 .353-.058q.19.028.381-.015.294.015.558 0 .28-.03.572.014a.95.95 0 0 1 .44-.044q.25.03.47.03m9.157.176q.073.131.073.308a.445.445 0 0 1-.294.426 3 3 0 0 0-.234.102.7.7 0 0 0-.176.147q-.06.074-.044.235.074.426.015.851-.045.411.029.822.03.69.014 1.439-.014.749.015 1.467-.03.5-.03.999 0 .498.015.998.016.204.177.337.161.147.337.22a.31.31 0 0 1 .132.22q.03.133.015.294-.015.089-.044.176a.22.22 0 0 1-.132.132q-.338.147-.734.103a4 4 0 0 0-.748-.015 2.6 2.6 0 0 1-.779 0 7 7 0 0 0-.777-.044q-.118.015-.265.03a.26.26 0 0 1-.25-.074.52.52 0 0 1-.131-.308.7.7 0 0 1 .044-.308.4.4 0 0 1 .147-.22q.117-.059.22-.118a.7.7 0 0 0 .205-.117q.089-.074.103-.235-.015-.675-.015-1.35.016-.69.103-1.35l-.03-.426a2.2 2.2 0 0 1 .015-.44q0-.427.03-.867.043-.44.015-.866a3.2 3.2 0 0 1-.074-.69q.015-.366.044-.704a.65.65 0 0 0-.206-.352.6.6 0 0 0-.352-.176.4.4 0 0 1-.161-.235.7.7 0 0 1 0-.28.35.35 0 0 1 .22-.204q.161-.06.323-.074.543.03 1.086-.014.559-.045 1.071.014.118-.015.265-.044.146-.03.279-.03a.6.6 0 0 1 .264.06q.132.044.22.161m4.889-.264q.264.03.558.058.308.014.587-.058.088.014.19.014.104 0 .191.015.103.015.177.074.087.044.131.161.045.074.045.147a.5.5 0 0 1 0 .161 1 1 0 0 0-.015.162q0 .087.029.161-.044.162-.029.338t.015.337q.014.162 0 .323a.64.64 0 0 1-.118.308.59.59 0 0 1-.528.103.4.4 0 0 1-.279-.206 3 3 0 0 1-.147-.337.7.7 0 0 1-.132-.19 2 2 0 0 0-.117-.206.36.36 0 0 0-.147-.147q-.074-.06-.206-.015a.18.18 0 0 0-.088.133v.146q.015.484 0 .954-.015.455.015.925.03.279-.029.528a.9.9 0 0 0 .014.485q0 .293-.044.543-.044.249.03.499-.059.19-.059.396t.014.426q.015.206 0 .41 0 .207-.058.412.073.146.073.308.015.176.015.352t.015.338a.8.8 0 0 0 .132.322.4.4 0 0 0 .146.118q.089.045.162.088.087.045.147.103.073.059.102.176a.61.61 0 0 1-.279.616 1.3 1.3 0 0 1-.528.044 2.5 2.5 0 0 0-.543 0q-.514 0-1.042.015-.514.03-1.028 0-.292-.03-.396-.323a.9.9 0 0 1 0-.323q.03-.16.147-.279.162-.073.337-.205a.37.37 0 0 0 .191-.338q.016-.176-.014-.367a1.4 1.4 0 0 1 .014-.352q.045-.191.03-.367 0-.191-.03-.367l-.029-.367q0-.19.029-.381 0-.338.03-.675a2.7 2.7 0 0 0-.03-.69.7.7 0 0 0 0-.294 1.5 1.5 0 0 1 0-.279 8 8 0 0 1 0-.94 6 6 0 0 0 .015-.953v-.72a.13.13 0 0 0-.059-.073 1 1 0 0 0-.073-.044.7.7 0 0 0-.294.147 1 1 0 0 0-.176.25q-.058.13-.117.278-.045.147-.118.28a.45.45 0 0 1-.308.19.66.66 0 0 1-.337-.03q-.265-.117-.294-.38a5 5 0 0 1-.03-.544 4 4 0 0 0-.014-.587q-.03-.307.059-.573a.44.44 0 0 1 .205-.176q.118-.043.265-.029.146 0 .278.03.147.014.28-.015.293-.03.601-.015.308 0 .602-.03.47-.029.924 0 .47.015.94 0m7.96.161a.36.36 0 0 1 .177.073q.088.044.19.074.162.088.294.235a.8.8 0 0 1 .22.322q.043.457 0 .91l-.059.896q-.029.06-.059.132a.18.18 0 0 1-.102.088.8.8 0 0 1-.352.044.45.45 0 0 1-.294-.132 1.25 1.25 0 0 1-.294-.675 4.7 4.7 0 0 0-.308-.69 1 1 0 0 0-.587-.484.75.75 0 0 0-.396-.044.6.6 0 0 0-.367.147l-.25.322a1.7 1.7 0 0 1-.073.397 5 5 0 0 1-.103.381l-.088.367q-.028.192-.015.397.015.322-.058.616a1.4 1.4 0 0 0-.03.572q0 .53-.014 1.057-.015.514.044 1.027.014.485.103.925.088.44.19.896.088.22.294.41a.76.76 0 0 0 .44.236.88.88 0 0 0 .763-.397q.118-.308.265-.587a1.5 1.5 0 0 0 .205-.602q.045-.102.073-.22.044-.118.089-.205a.5.5 0 0 1 .146-.162.36.36 0 0 1 .235-.073q.177 0 .352.014.191 0 .279.191.074.25.044.529t.059.528a1.2 1.2 0 0 0-.015.411q.03.22.03.426a1 1 0 0 1-.044.381q-.06.176-.279.294-.383.25-.851.337a27 27 0 0 1-.925.191 1.7 1.7 0 0 0-.499.015q-.25.045-.499-.03a1.4 1.4 0 0 0-.352-.131 4.6 4.6 0 0 1-.705-.177 1 1 0 0 1-.323-.176 8 8 0 0 1-.616-.528 1.85 1.85 0 0 1-.455-.617 2.1 2.1 0 0 1-.353-.748 22 22 0 0 0-.22-.793 11 11 0 0 0-.146-1.16 4.4 4.4 0 0 1-.045-1.188q.03-.382.118-.72.102-.351.161-.719a1 1 0 0 1 .074-.161q.043-.073.103-.162.029-.308.175-.572.147-.279.279-.543.206-.308.485-.543.28-.25.572-.455.25-.075.47-.19.22-.133.469-.162a5 5 0 0 0 .5-.088 1.2 1.2 0 0 1 .528 0l.705.058q.351.03.645.235m9.183-.103q.293.045.44.25.088.147.059.323a.67.67 0 0 1-.132.294 6 6 0 0 1-.352.234.43.43 0 0 0-.206.367.8.8 0 0 0-.014.264q.014.132.014.25-.044.513 0 1.042.043.514.015 1.027a.4.4 0 0 0-.044.28q.029.146.044.293.015.44-.029.895-.045.456.029.91-.015.426-.044.851-.015.426.058.837a.34.34 0 0 0 .133.22q.103.088.205.147.117.074.191.147.088.088.088.25.015.13 0 .263a.36.36 0 0 1-.103.22.23.23 0 0 1-.146.089.6.6 0 0 1-.191.03q-.735-.016-1.453-.016h-1.424a.4.4 0 0 1-.221-.132.34.34 0 0 1-.088-.22.9.9 0 0 1 .015-.352.52.52 0 0 1 .206-.264q.307-.192.381-.485a25 25 0 0 0-.073-.91 4 4 0 0 1 .044-.91.4.4 0 0 0 .015-.19 2 2 0 0 1-.015-.206q0-.162-.014-.308a.245.245 0 0 0-.148-.235 1.3 1.3 0 0 0-.484-.059q-.264.015-.499-.03l-.161.03q-.073 0-.132.074a.56.56 0 0 0-.074.41q.044.22.03.441.013.455 0 .91 0 .454-.03.925a.9.9 0 0 0 .147.381.8.8 0 0 0 .323.28.63.63 0 0 1 .146.527.52.52 0 0 1-.175.235q-.337.103-.705.059a3.4 3.4 0 0 0-.705-.015 3.5 3.5 0 0 1-.851.044 6 6 0 0 0-.851 0 1 1 0 0 1-.235-.088q-.102-.044-.132-.176a1.3 1.3 0 0 0-.059-.264.3.3 0 0 1 .044-.235.6.6 0 0 1 .191-.147 1.5 1.5 0 0 0 .22-.102.6.6 0 0 0 .177-.147.36.36 0 0 0 .073-.235v-.279q.015-.587-.015-1.203-.015-.632.03-1.233a3 3 0 0 1-.015-.676q.044-.337.015-.675a2 2 0 0 1 .014-.41.84.84 0 0 0-.014-.412.46.46 0 0 0 .029-.22 2 2 0 0 0-.044-.22l-.03-.205q0-.118.045-.235a6 6 0 0 1 0-.573 2 2 0 0 0-.059-.572.4.4 0 0 0-.177-.147 2 2 0 0 0-.205-.103 2 2 0 0 1-.176-.103.35.35 0 0 1-.088-.22q0-.16.029-.293.044-.132.206-.206.47-.102.983-.058.514.045.998 0 .294.03.588 0a2.6 2.6 0 0 1 .616.014.4.4 0 0 1 .205.132.32.32 0 0 1 .118.206.74.74 0 0 1-.045.323.5.5 0 0 1-.205.264.62.62 0 0 0-.323.367 2 2 0 0 0-.058.484q0 .266.014.543.03.265-.029.485.03.293-.015.572a2.7 2.7 0 0 0 0 .558q.045.117.147.132.103 0 .206.015l.909-.059a.8.8 0 0 0 .162-.073.16.16 0 0 0 .074-.162q.014-.44-.03-.866a7 7 0 0 1 0-.866q.029-.264.015-.572a.53.53 0 0 0-.265-.485 2 2 0 0 1-.22-.161.35.35 0 0 1-.088-.235 1.2 1.2 0 0 1 .015-.323.36.36 0 0 1 .176-.264.26.26 0 0 1 .22-.044.54.54 0 0 0 .25-.03q.66 0 1.277.03t1.262-.015m6.701-.058q.162 0 .309.03.145.013.234.175l.044.147q0 .47.015.94.015.454-.059.924a.32.32 0 0 1-.176.162.6.6 0 0 1-.22.043q-.206 0-.411-.014a.5.5 0 0 1-.352-.176 3 3 0 0 1-.177-.264 2 2 0 0 0-.19-.294 1.4 1.4 0 0 0-.221-.25.7.7 0 0 0-.293-.147l-.308-.088a.35.35 0 0 0-.308.03l-.059.088q.015.499-.029 1.013-.045.513.029.983l-.044.602.073.073q.045.045.103.059.205-.03.382-.103a.8.8 0 0 0 .308-.25q.058-.102.103-.22.059-.132.117-.234a.8.8 0 0 1 .147-.206.4.4 0 0 1 .25-.102q.13 0 .263.03.133.013.206.175.059.25.044.47t.044.47a1.9 1.9 0 0 0-.044.616q.044.308.029.616.045.191.03.367-.015.162-.015.367a.27.27 0 0 1-.117.19.7.7 0 0 1-.191.089 1.1 1.1 0 0 1-.397-.015.54.54 0 0 1-.293-.264.5.5 0 0 1-.103-.19l-.058-.221a.5.5 0 0 0-.103-.205.44.44 0 0 0-.191-.147.6.6 0 0 1-.117-.044.3.3 0 0 0-.132-.059.2.2 0 0 0-.133-.015q-.059 0-.117.074a1 1 0 0 0-.103.382q-.014.19-.015.396.015.206.015.41.015.207-.044.397.044.382.044.778t.162.734l.117.117a.23.23 0 0 0 .132.088.93.93 0 0 0 .676-.293q.292-.28.411-.617a.6.6 0 0 0 .131-.205q.044-.118.074-.235a2 2 0 0 1 .103-.205.5.5 0 0 1 .22-.162.7.7 0 0 1 .411-.088q.25 0 .425.132a.45.45 0 0 1 .176.264q.03.162 0 .323-.014.176-.058.338-.03.176-.015.338 0 .249-.059.498a1.6 1.6 0 0 0-.029.544l-.059.175a.22.22 0 0 1-.132.147q-.249.089-.543.06-.279-.03-.528-.06a7 7 0 0 1-.763.015q-.382-.015-.764.03a1.6 1.6 0 0 1-.543-.06 1 1 0 0 0-.514.015 2.6 2.6 0 0 0-.865 0 .5.5 0 0 1-.294.06 4 4 0 0 0-.323-.016h-.367q-.19 0-.293-.205a.5.5 0 0 1-.059-.309.8.8 0 0 1 .103-.293.5.5 0 0 1 .146-.147 3 3 0 0 0 .191-.117.6.6 0 0 0 .162-.117.32.32 0 0 0 .103-.177 4 4 0 0 0 0-.66q-.016-.322.058-.646l-.058-.66a5 5 0 0 1 .014-.66q0-1.44.044-2.834a5 5 0 0 1-.029-.528q.014-.264.059-.528a4 4 0 0 1-.074-.368q-.03-.205-.249-.278a1 1 0 0 1-.206-.118.7.7 0 0 1-.147-.176.5.5 0 0 1-.014-.264.9.9 0 0 1 .117-.235.33.33 0 0 1 .191-.102 1 1 0 0 1 .235-.03q.132-.015.249-.015a.8.8 0 0 0 .221-.058q.38.015.763 0a4 4 0 0 1 .777.014q.338-.059.676-.014.352.03.69-.015.352.03.689.03.337-.015.69-.015m4.489.396q.073.162.22.308.162.132.206.338a.5.5 0 0 0 .117.264.64.64 0 0 1 .161.25q.176.396.485.704.102.162.161.338l.118.323q.074.16.161.308.102.145.264.279.147.279.279.543.147.264.382.484.059.014.102-.058.03-.412.045-.823a4 4 0 0 0-.059-.822 1.7 1.7 0 0 1 0-.454q.029-.25.014-.47a1 1 0 0 0-.088-.426q-.073-.206-.323-.323a5 5 0 0 1-.337-.205.5.5 0 0 1-.206-.338q0-.132.044-.25a.55.55 0 0 1 .162-.234q.162-.045.308-.03.162 0 .308.03.162.014.309.014.161 0 .322-.043.266.029.543.014a.9.9 0 0 1 .514.088q.161.088.191.22a.6.6 0 0 1 .015.294.38.38 0 0 1-.162.235q-.102.058-.22.117t-.22.132q-.103.074-.132.235a2.4 2.4 0 0 0-.059.529v.543q.015.264.015.543 0 .264-.044.528.074.396.014.807a4 4 0 0 0-.014.778l.044.485q-.03.542 0 1.1.03.544-.03 1.101.03.279-.014.543-.03.279.044.529 0 .175-.059.323a.4.4 0 0 1-.205.234.84.84 0 0 1-.352.015.6.6 0 0 1-.338-.147l-.118-.235a1.3 1.3 0 0 0-.117-.234 9 9 0 0 0-.396-.617l-.411-.587a4.2 4.2 0 0 0-.47-.734 3.7 3.7 0 0 1-.44-.763 5 5 0 0 1-.588-.969 4.4 4.4 0 0 0-.572-.968 2.4 2.4 0 0 1-.176-.294 1 1 0 0 0-.191-.264q-.117.03-.103.117a.3.3 0 0 1-.014.162q.059.454.044.939t-.059.954q-.015.543-.014 1.1 0 .56.043 1.102.073.161.162.322a.35.35 0 0 0 .264.191l.205.059q.103.044.177.161a1 1 0 0 1 .073.294.32.32 0 0 1-.088.294.57.57 0 0 1-.279.132q-.146.03-.308.03-.161 0-.323-.016-.162-.015-.308 0a.9.9 0 0 1-.367.015 2 2 0 0 0-.352 0 6 6 0 0 1-.397-.044.46.46 0 0 1-.308-.19.6.6 0 0 1-.044-.309q.015-.161.103-.279a1 1 0 0 1 .279-.176.4.4 0 0 0 .249-.205.8.8 0 0 0 .132-.397q.015-.22.045-.44a2.1 2.1 0 0 1-.015-.749 2.5 2.5 0 0 0 0-.763 9.4 9.4 0 0 1 0-1.659 9.5 9.5 0 0 1 0-1.482 1.6 1.6 0 0 1-.03-.426q.03-.205.03-.44a1.26 1.26 0 0 0-.191-.587 1.9 1.9 0 0 0-.411-.499.4.4 0 0 0-.088-.147.36.36 0 0 1-.074-.161q.03-.118.074-.235a.3.3 0 0 1 .191-.19q.264-.09.587-.074.337.014.631.044.132 0 .264-.015.147-.03.294-.044a.9.9 0 0 1 .279.015q.131.015.249.117z"/></svg>