<svg xmlns="http://www.w3.org/2000/svg" width="138" height="74" fill="none"><path fill="#000" d="M6.075 19V3.61H.594V.1h15.012v3.51h-5.481V19zM29.582.1h4.05V19h-4.05v-7.776h-7.399V19h-4.05V.1h4.05v7.776h7.398zM37.104 19V.1h4.05V19zm7.527 0V.1h4.212l7.614 12.42h.081V.1h4.05V19h-4.374L48.762 6.823h-.08V19zm31.866 0-5.805-7.587-2.565 2.997V19h-4.05V.1h4.05v8.883L75.66.1h4.752l-7.236 8.424L81.14 19zm-66.48 27.27c-5.454 0-9.018-3.942-9.018-9.72 0-5.805 3.564-9.693 9.018-9.693s9.018 3.888 9.018 9.693c0 5.778-3.564 9.72-9.018 9.72m0-3.483c3.105 0 4.86-2.484 4.86-6.237 0-3.78-1.755-6.21-4.86-6.21s-4.86 2.43-4.86 6.21c0 3.753 1.755 6.237 4.86 6.237m19.77 3.483c-4.645 0-7.804-2.403-7.804-7.452V27.1h4.077v11.421c0 2.808 1.404 4.239 3.726 4.239s3.7-1.431 3.7-4.239V27.1h4.076v11.718c0 5.049-3.186 7.452-7.776 7.452M45.571 46V30.61h-5.481V27.1h15.012v3.51h-5.481V46zm19.037.27c-4.833 0-7.91-2.295-7.91-6.453h4.184c.081 1.701 1.161 3.105 3.753 3.105 2.187 0 3.348-.918 3.348-2.457 0-1.296-.864-1.944-2.565-2.268l-2.727-.513c-2.97-.594-5.48-1.944-5.48-5.373 0-3.618 2.915-5.454 7.154-5.454 4.32 0 7.398 1.944 7.398 5.805h-4.158c.054-1.701-1.35-2.457-3.186-2.457-2.16 0-2.97 1.107-2.97 2.268 0 .864.46 1.782 2.16 2.079l2.538.486c4.428.837 6.13 2.538 6.13 5.4 0 4.077-3.376 5.832-7.669 5.832M75.23 46V27.1h4.05V46zm7.527 0V27.1h7.155c5.886 0 8.937 3.375 8.937 9.45S95.8 46 89.912 46zm4.05-3.51h2.7c3.861 0 5.211-1.782 5.211-5.94s-1.35-5.94-5.21-5.94h-2.7zM101.781 46V27.1h12.906v3.51h-8.856v4.239h8.046v3.159h-8.046v4.482h9.126V46zM6.075 73V57.61H.594V54.1h15.012v3.51h-5.481V73zm23.507-18.9h4.05V73h-4.05v-7.776h-7.399V73h-4.05V54.1h4.05v7.776h7.398zM37.104 73V54.1H50.01v3.51h-8.856v4.239H49.2v3.159h-8.046v4.482h9.126V73zm22.622 0V54.1h7.668c4.212 0 6.13 1.863 6.13 4.725 0 2.052-.946 3.213-2.728 3.78 2.808.756 4.023 2.511 4.023 4.86 0 3.051-2.106 5.535-7.1 5.535zm4.05-11.232h3.456c1.215 0 2.241-.648 2.241-2.187s-1.026-2.079-2.24-2.079h-3.457zm0 7.83h3.807c2.268 0 3.051-1.215 3.051-2.592 0-1.431-.783-2.673-3.05-2.673h-3.808zm22.189 3.672c-5.454 0-9.018-3.942-9.018-9.72 0-5.805 3.564-9.693 9.018-9.693s9.018 3.888 9.018 9.693c0 5.778-3.564 9.72-9.018 9.72m0-3.483c3.105 0 4.86-2.484 4.86-6.237 0-3.78-1.755-6.21-4.86-6.21s-4.86 2.43-4.86 6.21c0 3.753 1.755 6.237 4.86 6.237M101.218 73l-4.914-18.9h4.158l3.024 13.203h.189L107.32 54.1h4.158l3.645 13.203h.189l3.024-13.203h4.158L117.58 73h-4.212l-3.969-13.797L105.43 73zm23.805 0V54.1h4.05v15.39h8.694V73z"/></svg>