<svg xmlns="http://www.w3.org/2000/svg" width="154" height="49" fill="none"><path fill="#000" d="M16.894 48.67c-10.72 0-16.616-6.834-14.74-18.358h2.814c-1.541 9.983 3.283 15.745 12.328 15.745 8.911 0 14.941-5.695 16.549-15.812L38.468 1.1h2.881l-4.623 29.212C34.85 41.769 27.614 48.67 16.894 48.67m39.78 0c-10.788 0-16.349-6.901-14.54-18.358L46.757 1.1h2.814l-4.623 29.145c-1.54 10.117 3.15 15.812 12.194 15.812s15.008-5.695 16.616-15.812L78.381 1.1h2.881L76.64 30.312C74.83 41.769 67.46 48.67 56.673 48.67m38.507 0c-11.256 0-16.147-6.03-15.008-13.333h2.747c-.603 6.03 3.283 10.72 12.663 10.72 9.246 0 15.008-4.757 15.008-11.725 0-5.829-4.02-7.638-9.38-8.844l-5.561-1.206c-7.37-1.608-10.586-5.36-10.586-10.72 0-8.04 6.9-13.065 16.75-13.065 9.782 0 14.74 4.958 13.802 11.323h-2.68c.268-4.489-2.948-8.71-11.39-8.71-8.308 0-13.534 4.087-13.534 10.385 0 4.489 2.814 7.102 8.978 8.442l5.561 1.206c6.164 1.34 11.055 3.886 11.055 10.921 0 8.978-7.571 14.606-18.425 14.606m32.332-.67 6.968-44.287h-15.477l.469-2.613h33.835l-.402 2.613h-15.544L130.394 48z"/></svg>