<svg xmlns="http://www.w3.org/2000/svg" width="167" height="49" fill="none"><path fill="#000" d="M.886 48V1.1h5.896l17.889 40.602L42.627 1.1h5.829V48h-4.891V10.346h-.201L26.748 48h-4.154L5.978 10.346h-.134V48zm72.84.67c-12.06 0-21.171-8.442-21.171-24.12S61.667.497 73.727.497c11.992 0 21.105 8.375 21.105 24.053S85.72 48.67 73.727 48.67m0-4.288c9.246 0 16.08-6.633 16.08-19.832 0-13.132-6.834-19.765-16.08-19.765-9.312 0-16.146 6.633-16.146 19.765 0 13.199 6.834 19.832 16.147 19.832M132.473 48h-5.025l-10.854-18.358h-12.73V48h-4.958V1.1h16.884c10.787 0 16.348 5.427 16.348 14.338 0 7.169-3.685 12.06-10.854 13.668zM103.863 5.455V25.22h11.725c7.638 0 11.524-3.484 11.524-9.782 0-6.499-3.886-9.983-11.524-9.983zM135.875 48V1.1h29.547v4.355h-24.589V21.87h22.579v4.02h-22.579v17.755h25.259V48z"/></svg>