<svg xmlns="http://www.w3.org/2000/svg" width="210" height="49" fill="none"><path fill="#000" d="M18.904 48.67C7.179 48.67.881 42.707.881 34.332h5.561c.335 5.36 4.02 9.581 12.529 9.581 7.638 0 11.457-3.551 11.457-8.777 0-5.293-3.819-7.437-9.246-8.509l-6.164-1.206C6.777 23.746 2.221 19.793 2.221 13.026 2.221 5.522 7.916.497 18.301.497c10.184 0 16.482 4.891 16.482 12.462h-5.494c-.201-4.422-3.886-7.772-10.988-7.772-7.437 0-10.318 3.685-10.318 7.906 0 3.819 2.345 6.767 8.442 7.973l6.03 1.206c8.509 1.675 13.735 5.092 13.735 12.73 0 8.71-6.633 13.668-17.286 13.668m32.16-.67V5.991H36.259V1.1h35.107v4.891H56.56V48zm41.412.67c-11.055 0-18.023-6.566-18.023-18.425V1.1h5.56v28.81c0 8.978 4.624 13.869 12.463 13.869s12.462-4.891 12.462-13.869V1.1h5.561v29.145c0 11.859-7.035 18.425-18.023 18.425M115.61 48V1.1h15.142c14.874 0 22.177 8.442 22.177 23.45 0 14.941-7.303 23.45-22.177 23.45zm5.494-4.891h9.179c11.859 0 17.085-6.03 17.085-18.559s-5.226-18.559-17.085-18.559h-9.179zM157.03 48V1.1h5.494V48zm30.836.67c-12.194 0-21.239-8.576-21.239-24.12S175.672.497 187.866.497s21.306 8.509 21.306 24.053-9.112 24.12-21.306 24.12m0-4.824c9.112 0 15.678-6.566 15.678-19.296s-6.566-19.229-15.678-19.229c-9.045 0-15.611 6.499-15.611 19.229s6.566 19.296 15.611 19.296"/></svg>