<svg xmlns="http://www.w3.org/2000/svg" width="47" height="41" fill="none"><path fill="#000" d="M4.896 17 .528.2h3.696l2.688 11.736h.168L10.32.2h3.696l3.24 11.736h.168L20.112.2h3.696L19.44 17h-3.744L12.168 4.736 8.64 17zm21.16 0V.2h11.472v3.12h-7.872v3.768h7.152v2.808h-7.152v3.984h8.112V17zm-12.64 24-1.08-3.144h-7.08L4.176 41H.408L6.48 24.2h4.632L17.184 41zm-7.248-5.808h5.256l-2.52-7.32h-.216zM32.698 41h-3.552l-3.192-5.592H22.93V41h-3.6V24.2h6.792c4.464 0 6.408 2.328 6.408 5.616 0 2.4-1.032 4.272-3.36 5.112zM22.93 27.32v4.968h3.072c1.968 0 2.832-.984 2.832-2.472 0-1.512-.864-2.496-2.832-2.496zM35.067 41V24.2H46.54v3.12h-7.872v3.768h7.152v2.808h-7.152v3.984h8.112V41z"/></svg>