<svg xmlns="http://www.w3.org/2000/svg" width="479" height="150" fill="none"><path fill="#000" d="M28.138 150 50.929 6.438H.661L1.726.9H107.8l-.852 5.538H56.68L34.102 150zM219.097.9h5.964L201.418 150h-5.964l11.076-69.438h-93.933L101.521 150h-5.963L119.2.9h5.964l-11.715 74.55h93.933zM330.303 150l-10.437-44.943h-76.68L218.265 150h-6.39L294.945.9h5.751L336.48 150zm-84.135-50.268h72.42l-21.3-90.951h-.639zM346.848 150 370.491.9h8.52l71.142 142.071h.426L472.944.9h5.964L455.265 150h-8.52L375.603 7.503h-.213L352.812 150z"/></svg>