<svg xmlns="http://www.w3.org/2000/svg" width="183" height="146" fill="none"><path fill="#000" d="M10.2 35 1.1 0h7.7l5.6 24.45h.35L21.5 0h7.7l6.75 24.45h.35L41.9 0h7.7l-9.1 35h-7.8L25.35 9.45 18 35zm44.084 0V0h23.9v6.5h-16.4v7.85h14.9v5.85h-14.9v8.3h16.9V35zM27.95 85l-2.25-6.55H10.95L8.7 85H.85L13.5 50h9.65L35.8 85zm-15.1-12.1H23.8l-5.25-15.25h-.45zM68.12 85h-7.4l-6.65-11.65h-6.3V85h-7.5V50h14.15c9.3 0 13.35 4.85 13.35 11.7 0 5-2.15 8.9-7 10.65zM47.77 56.5v10.35h6.4c4.1 0 5.9-2.05 5.9-5.15 0-3.15-1.8-5.2-5.9-5.2zM73.057 85V50h23.9v6.5h-16.4v7.85h14.9v5.85h-14.9v8.3h16.9V85z"/><path fill="#000" fill-rule="evenodd" d="M143.647 89.443A8 8 0 0 1 149.401 87h6.178a8 8 0 0 1 7.997 8.223l-.201 7.198 6.497-2.168a8 8 0 0 1 10.276 5.582l1.696 6.542a8 8 0 0 1-5.604 9.716l-5.988 1.662 4.143 5.671a8 8 0 0 1-1.613 11.084l-4.966 3.783a8.004 8.004 0 0 1-11.52-1.952l-3.706-5.603-3.624 5.551a8.003 8.003 0 0 1-11.472 2.046l-4.739-3.523a8 8 0 0 1-3.575-6.666v-.014c0-1.853.64-3.609 1.758-5.004l3.923-5.37-5.999-1.665a8 8 0 0 1-5.604-9.716l1.696-6.542a8 8 0 0 1 10.259-5.587l6.441 2.133-.248-7.102a8 8 0 0 1 2.241-5.836" clip-rule="evenodd"/></svg>