<svg width="743" height="144" viewBox="0 0 743 144" fill="none" xmlns="http://www.w3.org/2000/svg">
	<path
		d="M110.4 142L97.4 107H31L18 142H0.6L54 1.99999H74.4L127.8 142H110.4ZM35.8 94.2H92.6L64.8 19.8H63.6L35.8 94.2ZM237.328 142H220.728L188.928 88H186.928H152.328V142H135.928V1.99999H186.928C219.728 1.99999 236.328 18.4 236.328 45.2C236.328 66.4 225.528 81.2 204.328 86.2L237.328 142ZM152.328 16.6V73.4H186.328C208.328 73.4 219.528 63.4 219.528 45.2C219.528 26.6 208.328 16.6 186.328 16.6H152.328ZM247.459 142V1.99999H336.459V16.6H263.859V63.4H330.459V76.8H263.859V127.4H338.459V142H247.459ZM431.738 142V87.2L380.538 1.99999H399.138L440.138 71.2L481.338 1.99999H499.938L448.538 87.2V142H431.738ZM559.445 144C523.045 144 496.045 118.4 496.045 72C496.045 25.6 523.045 0.19999 559.445 0.19999C595.845 0.19999 623.045 25.6 623.045 72C623.045 118.4 595.845 144 559.445 144ZM559.445 129.6C586.645 129.6 606.245 110 606.245 72C606.245 34 586.645 14.6 559.445 14.6C532.445 14.6 512.845 34 512.845 72C512.845 110 532.445 129.6 559.445 129.6ZM688.791 144C655.791 144 634.991 124.4 634.991 89V1.99999H651.591V88C651.591 114.8 665.391 129.4 688.791 129.4C712.191 129.4 725.991 114.8 725.991 88V1.99999H742.591V89C742.591 124.4 721.591 144 688.791 144Z"
		fill="#F3E7D3" />
</svg>