<svg width="804" height="144" viewBox="0 0 804 144" fill="none" xmlns="http://www.w3.org/2000/svg">
	<path
		d="M65.6 144C26 144 0.4 117.4 0.4 72C0.4 26.8 26 0.19999 65.6 0.19999C97.2 0.19999 121.8 15.8 124.6 50.6H95.4C91.2 33.2 80.2 26 65.6 26C41.2 26 31.2 45.8 31.2 72C31.2 98.2 41 118.2 65.6 118.2C80 118.2 91.2 111 95.4 93.4H124.6C121.8 128.4 97.2 144 65.6 144ZM244.495 142H214.895L188.295 95.4H163.095V142H133.095V1.99999H189.695C226.895 1.99999 243.095 21.4 243.095 48.8C243.095 68.8 234.495 84.4 215.095 91.4L244.495 142ZM163.095 28V69.4H188.695C205.095 69.4 212.295 61.2 212.295 48.8C212.295 36.2 205.095 28 188.695 28H163.095ZM352.667 142L343.667 115.8H284.667L275.667 142H244.267L294.867 1.99999H333.467L384.067 142H352.667ZM292.267 93.6H336.067L315.067 32.6H313.267L292.267 93.6ZM409.352 142L358.752 1.99999H390.152L427.752 111.4H429.552L467.152 1.99999H498.552L447.952 142H409.352ZM505.384 142V1.99999H535.384V142H505.384ZM549.142 142V1.99999H580.342L636.742 94H637.342V1.99999H667.342V142H634.942L579.742 51.8H579.142V142H549.142ZM744.005 144C701.805 144 677.205 117.4 677.205 72.4C677.205 26.8 704.005 0.19999 743.205 0.19999C772.205 0.19999 796.405 14.4 801.205 46.4H771.605C766.805 30 753.805 26 743.005 26C719.205 26 708.005 45.6 708.005 71.6C708.005 97.8 718.805 118.2 743.205 118.2C758.205 118.2 774.005 110.8 774.005 89H747.005V65H803.805V76.4C803.805 122.4 782.605 144 744.005 144Z"
		fill="#F3E7D3" />
</svg>