<svg width="426" height="175" viewBox="0 0 426 175" fill="none" xmlns="http://www.w3.org/2000/svg">
	<path
		d="M0.6 175V-1.28746e-05H33.6V14H16.6V161H33.6V175H0.6ZM48.6547 149V8.99999H137.655V23.6H65.0547V72.2H124.655V86H65.0547V149H48.6547ZM205.742 151C169.342 151 142.342 125.4 142.342 79C142.342 32.6 169.342 7.19999 205.742 7.19999C242.142 7.19999 269.342 32.6 269.342 79C269.342 125.4 242.142 151 205.742 151ZM205.742 136.6C232.942 136.6 252.542 117 252.542 79C252.542 41 232.942 21.6 205.742 21.6C178.742 21.6 159.142 41 159.142 79C159.142 117 178.742 136.6 205.742 136.6ZM382.687 149H366.088L334.288 95H332.288H297.688V149H281.288V8.99999H332.288C365.088 8.99999 381.688 25.4 381.688 52.2C381.688 73.4 370.888 88.2 349.688 93.2L382.687 149ZM297.688 23.6V80.4H331.688C353.688 80.4 364.888 70.4 364.888 52.2C364.888 33.6 353.688 23.6 331.688 23.6H297.688ZM425.819 175H392.819V161H409.819V14H392.819V-1.28746e-05H425.819V175Z"
		fill="#F3E7D3" />
</svg>