<svg width="75" height="20" viewBox="0 0 75 20" fill="none" xmlns="http://www.w3.org/2000/svg">
	<path
		d="M0.404 19L0.404 0.0999987L5.507 0.0999987L10.448 13.492L15.416 0.0999987L20.519 0.0999987L20.519 19H16.469L16.469 7.093H16.334L11.96 19L8.936 19L4.589 7.093L4.454 7.093L4.454 19H0.404ZM23.9889 19L23.9889 0.0999987L36.8949 0.0999987V3.61L28.0389 3.61V7.849H36.0849V11.008H28.0389V15.49L37.1649 15.49V19L23.9889 19ZM39.8483 19V0.0999987L44.0603 0.0999987L51.6743 12.52H51.7553V0.0999987L55.8053 0.0999987V19L51.4313 19L43.9793 6.823H43.8983V19H39.8483ZM66.9647 19.27C62.3207 19.27 59.1617 16.867 59.1617 11.818V0.0999987L63.2387 0.0999987V11.521C63.2387 14.329 64.6427 15.76 66.9647 15.76C69.2867 15.76 70.6637 14.329 70.6637 11.521V0.0999987L74.7407 0.0999987V11.818C74.7407 16.867 71.5547 19.27 66.9647 19.27Z"
		fill="#F3E7D3" />
</svg>