<svg width="130" height="75" viewBox="0 0 130 75" fill="none" xmlns="http://www.w3.org/2000/svg">
	<path
		d="M9.017 20.27C3.563 20.27 -0.000999987 16.328 -0.000999987 10.55C-0.000999987 4.745 3.563 0.856999 9.017 0.856999C14.471 0.856999 18.035 4.745 18.035 10.55C18.035 16.328 14.471 20.27 9.017 20.27ZM9.017 16.787C12.122 16.787 13.877 14.303 13.877 10.55C13.877 6.77 12.122 4.34 9.017 4.34C5.912 4.34 4.157 6.77 4.157 10.55C4.157 14.303 5.912 16.787 9.017 16.787ZM28.7861 20.27C24.1421 20.27 20.9831 17.867 20.9831 12.818L20.9831 1.1L25.0601 1.1L25.0601 12.521C25.0601 15.329 26.4641 16.76 28.7861 16.76C31.1081 16.76 32.4851 15.329 32.4851 12.521V1.1L36.5621 1.1V12.818C36.5621 17.867 33.3761 20.27 28.7861 20.27ZM54.94 20L50.944 20L47.353 13.709H43.951V20H39.901V1.1L47.542 1.1C52.564 1.1 54.751 3.719 54.751 7.418C54.751 10.118 53.59 12.224 50.971 13.169L54.94 20ZM43.951 4.61V10.199H47.407C49.621 10.199 50.593 9.092 50.593 7.418C50.593 5.717 49.621 4.61 47.407 4.61L43.951 4.61ZM7.91 47.27C3.077 47.27 -0.000999987 44.975 -0.000999987 40.817H4.184C4.265 42.518 5.345 43.922 7.937 43.922C10.124 43.922 11.285 43.004 11.285 41.465C11.285 40.169 10.421 39.521 8.72 39.197L5.993 38.684C3.023 38.09 0.512 36.74 0.512 33.311C0.512 29.693 3.428 27.857 7.667 27.857C11.987 27.857 15.065 29.801 15.065 33.662H10.907C10.961 31.961 9.557 31.205 7.721 31.205C5.561 31.205 4.751 32.312 4.751 33.473C4.751 34.337 5.21 35.255 6.911 35.552L9.449 36.038C13.877 36.875 15.578 38.576 15.578 41.438C15.578 45.515 12.203 47.27 7.91 47.27ZM18.5309 47L18.5309 28.1H22.5809L22.5809 47L18.5309 47ZM26.0582 47L26.0582 28.1H31.1612L36.1022 41.492L41.0702 28.1H46.1732V47H42.1232V35.093H41.9882L37.6142 47H34.5902L30.2432 35.093H30.1082V47H26.0582ZM49.6431 47V28.1L54.7461 28.1L59.6871 41.492L64.6551 28.1H69.7581L69.7581 47H65.7081L65.7081 35.093H65.5731L61.1991 47H58.1751L53.8281 35.093H53.6931V47H49.6431ZM73.2281 47L73.2281 28.1L86.1341 28.1V31.61H77.2781V35.849H85.3241V39.008H77.2781L77.2781 43.49H86.4041V47H73.2281ZM104.126 47H100.13L96.5394 40.709H93.1374L93.1374 47H89.0874L89.0874 28.1H96.7284C101.75 28.1 103.937 30.719 103.937 34.418C103.937 37.118 102.776 39.224 100.157 40.169L104.126 47ZM93.1374 31.61V37.199H96.5934C98.8074 37.199 99.7794 36.092 99.7794 34.418C99.7794 32.717 98.8074 31.61 96.5934 31.61H93.1374ZM7.91 74.27C3.077 74.27 -0.000999987 71.975 -0.000999987 67.817H4.184C4.265 69.518 5.345 70.922 7.937 70.922C10.124 70.922 11.285 70.004 11.285 68.465C11.285 67.169 10.421 66.521 8.72 66.197L5.993 65.684C3.023 65.09 0.512 63.74 0.512 60.311C0.512 56.693 3.428 54.857 7.667 54.857C11.987 54.857 15.065 56.801 15.065 60.662H10.907C10.961 58.961 9.557 58.205 7.721 58.205C5.561 58.205 4.751 59.312 4.751 60.473C4.751 61.337 5.21 62.255 6.911 62.552L9.449 63.038C13.877 63.875 15.578 65.576 15.578 68.438C15.578 72.515 12.203 74.27 7.91 74.27ZM18.5309 74V55.1L26.1719 55.1C31.1939 55.1 33.3809 57.719 33.3809 61.418C33.3809 65.09 31.1939 67.709 26.1719 67.709H22.5809V74H18.5309ZM22.5809 64.199H26.0369C28.2509 64.199 29.2229 63.092 29.2229 61.418C29.2229 59.717 28.2509 58.61 26.0369 58.61H22.5809V64.199ZM36.0514 74L36.0514 55.1H48.9574V58.61H40.1014V62.849H48.1474L48.1474 66.008L40.1014 66.008V70.49L49.2274 70.49V74L36.0514 74ZM60.3077 74.27C54.9617 74.27 51.5057 70.679 51.5057 64.55C51.5057 58.448 54.9617 54.857 60.3077 54.857C64.5737 54.857 67.8947 56.963 68.2727 61.661L64.3307 61.661C63.7637 59.312 62.2787 58.34 60.3077 58.34C57.0137 58.34 55.6637 61.013 55.6637 64.55C55.6637 68.087 56.9867 70.787 60.3077 70.787C62.2517 70.787 63.7637 69.815 64.3307 67.439H68.2727C67.8947 72.164 64.5737 74.27 60.3077 74.27ZM71.0396 74V55.1H75.0896V74H71.0396ZM92.1241 74L90.9091 70.463H82.9441L81.7291 74H77.4901L84.3211 55.1H89.5321L96.3631 74H92.1241ZM83.9701 67.466H89.8831L87.0481 59.231H86.8051L83.9701 67.466ZM98.7768 74V55.1H102.827V70.49H111.521V74H98.7768ZM121.694 74.27C116.861 74.27 113.783 71.975 113.783 67.817H117.968C118.049 69.518 119.129 70.922 121.721 70.922C123.908 70.922 125.069 70.004 125.069 68.465C125.069 67.169 124.205 66.521 122.504 66.197L119.777 65.684C116.807 65.09 114.296 63.74 114.296 60.311C114.296 56.693 117.212 54.857 121.451 54.857C125.771 54.857 128.849 56.801 128.849 60.662H124.691C124.745 58.961 123.341 58.205 121.505 58.205C119.345 58.205 118.535 59.312 118.535 60.473C118.535 61.337 118.994 62.255 120.695 62.552L123.233 63.038C127.661 63.875 129.362 65.576 129.362 68.438C129.362 72.515 125.987 74.27 121.694 74.27Z"
		fill="#F3E7D3" />
</svg>