<svg width="78" height="132" viewBox="0 0 78 132" fill="none" xmlns="http://www.w3.org/2000/svg">
	<path
		d="M24.4741 89.0043V61.5289C30.7343 60.9493 36.5887 59.79 42.0374 58.051C47.602 56.3121 52.1233 53.5877 55.6012 49.878C59.0791 46.0523 60.818 40.9514 60.818 34.5753C60.818 28.8947 59.8326 24.6053 57.8618 21.7071C56.0069 18.6929 53.4565 16.6641 50.2105 15.6208C46.9644 14.4615 43.3706 13.8818 39.429 13.8818C33.5166 13.8818 28.4157 15.273 24.1263 18.0553C19.8369 20.7217 17.0546 25.9965 15.7793 33.8797L0.824403 31.2713C1.51998 25.9385 3.31689 21.0115 6.21513 16.4902C9.11338 11.853 13.3448 8.08533 18.9094 5.18709C24.59 2.28885 31.7197 0.839722 40.2985 0.839722C46.7905 0.839722 52.8189 1.88309 58.3835 3.96982C64.064 5.94063 68.5853 9.36056 71.9473 14.2296C75.4252 18.9827 77.1641 25.5327 77.1641 33.8797C77.1641 41.647 75.4831 48.0811 72.1212 53.182C68.8751 58.167 64.3539 62.1086 58.5574 65.0068C52.8768 67.7891 46.4427 69.8759 39.2551 71.267V89.0043H24.4741ZM31.7776 131.087C27.3723 131.087 23.9524 129.927 21.5179 127.609C19.0833 125.29 17.8661 121.986 17.8661 117.697C17.8661 113.292 19.0833 109.93 21.5179 107.611C23.9524 105.292 27.3723 104.133 31.7776 104.133C41.052 104.133 45.6892 108.654 45.6892 117.697C45.6892 121.986 44.4719 125.29 42.0374 127.609C39.7188 129.927 36.2989 131.087 31.7776 131.087Z"
		fill="#F3E7D3" />
</svg>