<svg width="334" height="65" viewBox="0 0 334 65" fill="none" xmlns="http://www.w3.org/2000/svg">
	<path
		d="M49.48 64L43.63 48.25H13.75L7.9 64H0.0700002L24.1 0.999996H33.28L57.31 64H49.48ZM15.91 42.49H41.47L28.96 9.01H28.42L15.91 42.49ZM106.598 64H99.1277L84.8177 39.7H83.9177H68.3477V64H60.9677V0.999996H83.9177C98.6777 0.999996 106.148 8.38 106.148 20.44C106.148 29.98 101.288 36.64 91.7477 38.89L106.598 64ZM68.3477 7.57V33.13H83.6477C93.5477 33.13 98.5877 28.63 98.5877 20.44C98.5877 12.07 93.5477 7.57 83.6477 7.57H68.3477ZM111.157 64V0.999996H151.207V7.57H118.537V28.63H148.507V34.66H118.537V57.43H152.107V64H111.157ZM194.082 64V39.34L171.042 0.999996H179.412L197.862 32.14L216.402 0.999996H224.772L201.642 39.34V64H194.082ZM251.55 64.9C235.17 64.9 223.02 53.38 223.02 32.5C223.02 11.62 235.17 0.189995 251.55 0.189995C267.93 0.189995 280.17 11.62 280.17 32.5C280.17 53.38 267.93 64.9 251.55 64.9ZM251.55 58.42C263.79 58.42 272.61 49.6 272.61 32.5C272.61 15.4 263.79 6.67 251.55 6.67C239.4 6.67 230.58 15.4 230.58 32.5C230.58 49.6 239.4 58.42 251.55 58.42ZM309.756 64.9C294.906 64.9 285.546 56.08 285.546 40.15V0.999996H293.016V39.7C293.016 51.76 299.226 58.33 309.756 58.33C320.286 58.33 326.496 51.76 326.496 39.7V0.999996H333.966V40.15C333.966 56.08 324.516 64.9 309.756 64.9Z"
		fill="#F3E7D3" />
</svg>