<svg width="362" height="65" viewBox="0 0 362 65" fill="none" xmlns="http://www.w3.org/2000/svg">
	<path
		d="M29.67 64.9C11.85 64.9 0.33 52.93 0.33 32.5C0.33 12.16 11.85 0.189995 29.67 0.189995C43.89 0.189995 54.96 7.21 56.22 22.87H43.08C41.19 15.04 36.24 11.8 29.67 11.8C18.69 11.8 14.19 20.71 14.19 32.5C14.19 44.29 18.6 53.29 29.67 53.29C36.15 53.29 41.19 50.05 43.08 42.13H56.22C54.96 57.88 43.89 64.9 29.67 64.9ZM110.173 64H96.8529L84.8829 43.03H73.5429V64H60.0429V0.999996H85.5129C102.253 0.999996 109.543 9.73 109.543 22.06C109.543 31.06 105.673 38.08 96.9429 41.23L110.173 64ZM73.5429 12.7V31.33H85.0629C92.4429 31.33 95.6829 27.64 95.6829 22.06C95.6829 16.39 92.4429 12.7 85.0629 12.7H73.5429ZM158.85 64L154.8 52.21H128.25L124.2 64H110.07L132.84 0.999996H150.21L172.98 64H158.85ZM131.67 42.22H151.38L141.93 14.77H141.12L131.67 42.22ZM184.358 64L161.588 0.999996H175.718L192.638 50.23H193.448L210.368 0.999996H224.498L201.728 64H184.358ZM227.573 64V0.999996H241.073V64H227.573ZM247.264 64V0.999996H261.304L286.684 42.4H286.954V0.999996H300.454V64H285.874L261.034 23.41H260.764V64H247.264ZM334.952 64.9C315.962 64.9 304.892 52.93 304.892 32.68C304.892 12.16 316.952 0.189995 334.592 0.189995C347.642 0.189995 358.532 6.58 360.692 20.98H347.372C345.212 13.6 339.362 11.8 334.502 11.8C323.792 11.8 318.752 20.62 318.752 32.32C318.752 44.11 323.612 53.29 334.592 53.29C341.342 53.29 348.452 49.96 348.452 40.15H336.302V29.35H361.862V34.48C361.862 55.18 352.322 64.9 334.952 64.9Z"
		fill="#F3E7D3" />
</svg>