<svg width="151" height="65" viewBox="0 0 151 65" fill="none" xmlns="http://www.w3.org/2000/svg">
	<path
		d="M0.22 64V0.999996H40.27V7.57H7.6V29.44H34.42V35.65H7.6V64H0.22ZM70.9094 64.9C54.5294 64.9 42.3794 53.38 42.3794 32.5C42.3794 11.62 54.5294 0.189995 70.9094 0.189995C87.2894 0.189995 99.5294 11.62 99.5294 32.5C99.5294 53.38 87.2894 64.9 70.9094 64.9ZM70.9094 58.42C83.1494 58.42 91.9694 49.6 91.9694 32.5C91.9694 15.4 83.1494 6.67 70.9094 6.67C58.7594 6.67 49.9394 15.4 49.9394 32.5C49.9394 49.6 58.7594 58.42 70.9094 58.42ZM150.535 64H143.065L128.755 39.7H127.855H112.285V64H104.905V0.999996H127.855C142.615 0.999996 150.085 8.38 150.085 20.44C150.085 29.98 145.225 36.64 135.685 38.89L150.535 64ZM112.285 7.57V33.13H127.585C137.485 33.13 142.525 28.63 142.525 20.44C142.525 12.07 137.485 7.57 127.585 7.57H112.285Z"
		fill="#F3E7D3" />
</svg>