<svg width="10" height="34" viewBox="0 0 10 34" fill="none" xmlns="http://www.w3.org/2000/svg">
	<path
		d="M9 33.3863L0.739071 33.3863L0.739071 31.1559L6.59253 28.9962L0.739071 26.8248L0.739071 24.5943L9 24.5943L9 26.3645L3.79561 26.3645L3.79561 26.4235L9 28.3354L9 29.6571L3.79562 31.5571L3.79562 31.6161L9 31.6161L9 33.3863ZM9 23.0777L0.739071 23.0777L0.739071 17.4367L2.27324 17.4367L2.27324 21.3075L4.12605 21.3075L4.12605 17.7907L5.50681 17.7907L5.50681 21.3075L7.46583 21.3075L7.46583 17.3186L9 17.3186L9 23.0777ZM9 16.1458L0.739071 16.1458L0.739071 14.3048L6.16768 10.9768L6.16768 10.9414L0.73907 10.9414L0.73907 9.17121L9 9.17121L9 11.083L3.6776 14.3402L3.6776 14.3756L9 14.3756L9 16.1458ZM9.11801 4.29357C9.11801 6.3234 8.06769 7.70416 5.86085 7.70416L0.73907 7.70416L0.73907 5.92216L5.73103 5.92216C6.95837 5.92216 7.58384 5.30849 7.58384 4.29357C7.58384 3.27866 6.95837 2.67679 5.73103 2.67679L0.73907 2.67679L0.73907 0.894791L5.86085 0.894791C8.06769 0.894791 9.11801 2.28735 9.11801 4.29357Z"
		fill="#F3E7D3" />
</svg>