<svg width="40" height="69" viewBox="0 0 40 69" fill="none" xmlns="http://www.w3.org/2000/svg">
	<path
		d="M12.43 46.3V32.08C15.67 31.78 18.7 31.18 21.52 30.28C24.4 29.38 26.74 27.97 28.54 26.05C30.34 24.07 31.24 21.43 31.24 18.13C31.24 15.19 30.73 12.97 29.71 11.47C28.75 9.91 27.43 8.86 25.75 8.32C24.07 7.72 22.21 7.41999 20.17 7.41999C17.11 7.41999 14.47 8.14 12.25 9.58C10.03 10.96 8.59 13.69 7.93 17.77L0.190001 16.42C0.55 13.66 1.48 11.11 2.98 8.77C4.48 6.37 6.67 4.42 9.55 2.92C12.49 1.42 16.18 0.669996 20.62 0.669996C23.98 0.669996 27.1 1.21 29.98 2.29C32.92 3.31 35.26 5.08 37 7.6C38.8 10.06 39.7 13.45 39.7 17.77C39.7 21.79 38.83 25.12 37.09 27.76C35.41 30.34 33.07 32.38 30.07 33.88C27.13 35.32 23.8 36.4 20.08 37.12V46.3H12.43ZM16.21 68.08C13.93 68.08 12.16 67.48 10.9 66.28C9.64 65.08 9.01 63.37 9.01 61.15C9.01 58.87 9.64 57.13 10.9 55.93C12.16 54.73 13.93 54.13 16.21 54.13C21.01 54.13 23.41 56.47 23.41 61.15C23.41 63.37 22.78 65.08 21.52 66.28C20.32 67.48 18.55 68.08 16.21 68.08Z"
		fill="#F3E7D3" />
</svg>