<svg width="235" height="63" viewBox="0 0 235 63" fill="none" xmlns="http://www.w3.org/2000/svg">
	<path
		d="M17.35 63L0.52 -4.29153e-06H8.08L21.58 52.56H21.94L37.69 -4.29153e-06H45.61L61.36 52.56H61.72L75.22 -4.29153e-06H82.87L65.95 63H58.03L41.65 9.45L25.36 63H17.35ZM127.485 -4.29153e-06H134.955V63H127.485V35.19H94.2754V63H86.8954V-4.29153e-06H94.2754V28.98H127.485V-4.29153e-06ZM188.003 63L182.153 47.25H152.273L146.423 63H138.593L162.623 -4.29153e-06H171.803L195.833 63H188.003ZM154.433 41.49H179.993L167.483 8.01H166.943L154.433 41.49ZM207.715 63V6.57H187.825V-4.29153e-06H234.985V6.57H215.095V63H207.715Z"
		fill="#F3E7D3" />
</svg>